<svg xmlns="http://www.w3.org/2000/svg" xmlns:xlink="http://www.w3.org/1999/xlink" viewBox="0 0 2866.25 2800"><defs><style>.cls-1{fill:url(#linear-gradient);}.cls-2{fill:#bdd0fb;}.cls-3,.cls-6{fill:#fff;}.cls-3{opacity:0.43;isolation:isolate;}.cls-4{fill:#91b3fa;}.cls-5{fill:url(#linear-gradient-2);}.cls-7{fill:url(#linear-gradient-3);}.cls-8{fill:url(#linear-gradient-4);}.cls-9{fill:url(#linear-gradient-5);}.cls-10{fill:url(#linear-gradient-6);}.cls-11{fill:url(#linear-gradient-7);}.cls-12{fill:url(#linear-gradient-8);}.cls-13{fill:url(#linear-gradient-9);}.cls-14{fill:url(#linear-gradient-10);}.cls-15{fill:url(#linear-gradient-11);}.cls-16{fill:url(#linear-gradient-12);}.cls-17{fill:url(#linear-gradient-13);}.cls-18{fill:url(#linear-gradient-14);}.cls-19{fill:url(#linear-gradient-15);}.cls-20{fill:url(#linear-gradient-16);}.cls-21{fill:url(#linear-gradient-17);}.cls-22{fill:url(#linear-gradient-18);}.cls-23{fill:url(#linear-gradient-19);}.cls-24{fill:url(#linear-gradient-20);}.cls-25{fill:url(#linear-gradient-21);}.cls-26{fill:url(#linear-gradient-22);}.cls-27{opacity:0.3;}</style><linearGradient id="linear-gradient" x1="3149.34" y1="-826.41" x2="657.87" y2="2267.84" gradientTransform="matrix(1, 0, 0, -1, 0, 2800)" gradientUnits="userSpaceOnUse"><stop offset="0" stop-color="#dae3fe"/><stop offset="1" stop-color="#e9effd"/></linearGradient><linearGradient id="linear-gradient-2" x1="3575.18" y1="1224.86" x2="-1765.48" y2="1652.11" gradientTransform="matrix(1, 0, 0, -1, 0, 2800)" gradientUnits="userSpaceOnUse"><stop offset="0" stop-color="#4f52ff"/><stop offset="1" stop-color="#4042e2"/></linearGradient><linearGradient id="linear-gradient-3" x1="3451.27" y1="2530.45" x2="-5161.37" y2="-1763.39" xlink:href="#linear-gradient-2"/><linearGradient id="linear-gradient-4" x1="4339.02" y1="3574.15" x2="-3062.85" y2="-1543.51" xlink:href="#linear-gradient-2"/><linearGradient id="linear-gradient-5" x1="2763.65" y1="4709.22" x2="741.65" y2="393.75" gradientTransform="matrix(1, 0, 0, -1, 0, 2800)" gradientUnits="userSpaceOnUse"><stop offset="0" stop-color="#ff928e"/><stop offset="1" stop-color="#fe7062"/></linearGradient><linearGradient id="linear-gradient-6" x1="3080.85" y1="-5611.89" x2="2982.12" y2="-6670.97" gradientTransform="matrix(0.22, -0.97, -0.97, -0.22, -3563.64, 3450.88)" xlink:href="#linear-gradient-2"/><linearGradient id="linear-gradient-7" x1="134.2" y1="-5612.38" x2="35.47" y2="-6671.44" gradientTransform="translate(-2821.62 226.3) rotate(102.97)" xlink:href="#linear-gradient-2"/><linearGradient id="linear-gradient-8" x1="3390.61" y1="-4058.72" x2="3106.54" y2="-5212.72" gradientTransform="matrix(0.22, -0.97, -0.97, -0.22, -3563.64, 3450.88)" gradientUnits="userSpaceOnUse"><stop offset="0" stop-color="#09005d"/><stop offset="1" stop-color="#1a0f91"/></linearGradient><linearGradient id="linear-gradient-9" x1="3148.37" y1="-4301.28" x2="3061.57" y2="-5232.43" xlink:href="#linear-gradient-8"/><linearGradient id="linear-gradient-10" x1="5115.69" y1="917.56" x2="5259.76" y2="917.56" gradientTransform="translate(7017.1 3487.5) rotate(178)" xlink:href="#linear-gradient-8"/><linearGradient id="linear-gradient-11" x1="4906.48" y1="1697.11" x2="4943.51" y2="1697.11" gradientTransform="matrix(-0.99, 0.14, -0.14, -0.99, 6953.85, 3706.05)" gradientUnits="userSpaceOnUse"><stop offset="0" stop-color="#febbba"/><stop offset="1" stop-color="#ff928e"/></linearGradient><linearGradient id="linear-gradient-12" x1="-780.45" y1="5616.5" x2="-636.38" y2="5616.5" gradientTransform="translate(8010.65 4140.69) rotate(98.93)" xlink:href="#linear-gradient-8"/><linearGradient id="linear-gradient-13" x1="-1436" y1="5772.78" x2="-1398.96" y2="5772.78" gradientTransform="translate(8212.57 4243.95) rotate(93.11)" xlink:href="#linear-gradient-11"/><linearGradient id="linear-gradient-14" x1="1681.82" y1="592.46" x2="1742.74" y2="580.04" gradientTransform="matrix(0.99, 0.12, 0.12, -0.99, 80.94, 1895.9)" xlink:href="#linear-gradient-11"/><linearGradient id="linear-gradient-15" x1="2253.67" y1="485.13" x2="2527.88" y2="-44.25" gradientTransform="matrix(1, 0, 0, -1, 0, 2800)" xlink:href="#linear-gradient-8"/><linearGradient id="linear-gradient-16" x1="1514.34" y1="282.84" x2="1965.72" y2="841.02" xlink:href="#linear-gradient-5"/><linearGradient id="linear-gradient-17" x1="1869.69" y1="411.27" x2="2196.02" y2="344.7" gradientTransform="matrix(1, 0, 0, -1, 0, 2800)" xlink:href="#linear-gradient-8"/><linearGradient id="linear-gradient-18" x1="5216.7" y1="825.04" x2="4947.96" y2="331.25" gradientTransform="translate(7123.96 2961.72) rotate(-173.57)" xlink:href="#linear-gradient-11"/><linearGradient id="linear-gradient-19" x1="4833.59" y1="-3669.92" x2="4714.82" y2="-3827.04" gradientTransform="matrix(-0.75, -0.66, 0.66, -0.75, 8157.19, 2127.73)" xlink:href="#linear-gradient-11"/><linearGradient id="linear-gradient-20" x1="4742.88" y1="-3707.82" x2="4884.76" y2="-3707.82" gradientTransform="matrix(-0.75, -0.66, 0.66, -0.75, 8157.19, 2127.73)" xlink:href="#linear-gradient-8"/><linearGradient id="linear-gradient-21" x1="4659.64" y1="-3794.35" x2="4754.9" y2="-3696.61" gradientTransform="matrix(-0.75, -0.66, 0.66, -0.75, 8157.19, 2127.73)" xlink:href="#linear-gradient-11"/><linearGradient id="linear-gradient-22" x1="2352.53" y1="1187.71" x2="2388.79" y2="1180.32" gradientTransform="matrix(1, 0, 0, -1, 0, 2800)" xlink:href="#linear-gradient-11"/></defs><title>Asset 1</title><g id="Layer_2" data-name="Layer 2"><g id="Layer_1-2" data-name="Layer 1"><g id="Illustration"><path class="cls-1" d="M2463.92,2406.15c-57.23,60.25-111.38,99.1-154.16,129.8-502.89,360.83-1098,255.65-1224.41,230C898.6,2728,537.61,2654.66,276.63,2347.75-118.22,1883.41-56.74,1151.87,249.53,669c56-88.33,352-578.59,953.41-657.21,364-47.58,788.31,48.38,1095.58,305.82C2943.51,857.94,2897.59,1949.59,2463.92,2406.15Z"/><path class="cls-2" d="M2657.66,305c-5.49-15-27.44-12.62-29.58,3.18-20.63,152.76-87.29,551.62-243.83,780.27-254.9,372.29-380.19,936.36-148.36,1186.92C2235.89,2275.4,3255.89,1936,2657.66,305Z"/><path class="cls-3" d="M2658.06,518.82c.3,4.85.16,8.88.2,13.22l-.15,12.81-.59,25.57c-.51,17-1.29,34.07-2.06,51.1Q2653,672.6,2649.3,723.6c-4.93,68-11.7,135.86-19.49,203.6s-17.29,135.31-28.31,202.62-23.11,134.48-37.35,201.21c-28.2,133.51-63.7,265.61-108.39,394.68-23,64.28-47.72,128-76.08,190.14-28.79,61.92-60.23,122.64-95.95,180.81a2.69,2.69,0,0,1-4.64-2.72l0,0a1979.26,1979.26,0,0,0,90.41-182.57c27.19-62.25,50.74-126,72.59-190.31s41.06-129.51,58.81-195.09,32.72-131.9,47.35-198.27c28.68-132.9,50.26-267.27,68.13-402.11q13.2-101.16,22.46-202.81,4.76-50.81,8.47-101.7l3.26-50.92,1.37-25.46.54-12.73c.11-4.17.3-8.65.24-12.3V519a2.67,2.67,0,0,1,5.33-.2Z"/><path class="cls-4" d="M1991.84,21.07c-9.12-12.23-28.62-4.09-26.27,11,22.76,145.71,70.44,529.67-10.74,782.06-132.2,410.94-93.21,962.41,187.74,1128.95C2142.57,1943.07,2985.37,1353.56,1991.84,21.07Z"/><path class="cls-3" d="M2050.56,217c1.61,4.38,2.58,8.11,3.8,12.08l3.36,11.78,6.44,23.61c4.19,15.77,8.13,31.6,12.07,47.42q11.64,47.52,22.21,95.29c14,63.71,26.35,127.79,37.7,192s21.07,128.79,29.33,193.53,15.5,129.63,20.65,194.72c10.56,130.13,14,261,8.25,391.52-3.58,65.23-8.87,130.4-17.93,195.13-9.52,64.64-21.8,128.9-38.72,192a2.62,2.62,0,0,1-5.08-1.25v0a1898.81,1898.81,0,0,0,33-192.1c7.94-64.5,12.13-129.4,14.62-194.32s2.31-130,.69-194.94-6-129.88-10.67-194.73c-9.93-129.7-26.81-258.81-47.18-387.33q-15.49-96.37-34.71-192.12-9.48-47.89-19.95-95.58l-10.9-47.58-5.68-23.73-3-11.82c-1-3.85-2.09-8-3.13-11.34l-.17-.56a2.59,2.59,0,0,1,4.91-1.67Z"/><circle class="cls-5" cx="1147.39" cy="1380.92" r="1114.9"/><circle class="cls-6" cx="1222.04" cy="1380.92" r="1114.89"/><circle class="cls-7" cx="1222.07" cy="1380.92" r="951.52"/><path class="cls-6" d="M1222.06,2380.1c-550.94,0-999.17-448.23-999.17-999.18s448.23-999.19,999.17-999.19S2221.24,830,2221.24,1380.92,1773,2380.1,1222.06,2380.1Zm0-1950.71c-524.66,0-951.51,426.85-951.51,951.53s426.84,951.52,951.51,951.52,951.52-426.85,951.52-951.52S1746.74,429.39,1222.06,429.39Z"/><circle class="cls-8" cx="1222.07" cy="1380.92" r="580.09"/><path class="cls-6" d="M1222.06,2008.67c-346.14,0-627.75-281.61-627.75-627.75s281.61-627.75,627.75-627.75,627.76,281.6,627.76,627.75S1568.21,2008.67,1222.06,2008.67Zm0-1160.19c-293.58,0-532.43,238.85-532.43,532.44s238.85,532.44,532.43,532.44,532.44-238.86,532.44-532.44S1515.65,848.48,1222.06,848.48Z"/><circle class="cls-9" cx="1222.07" cy="1380.92" r="224.75"/><path class="cls-6" d="M1222.06,1653.32c-150.2,0-272.4-122.19-272.4-272.4s122.2-272.41,272.4-272.41,272.41,122.2,272.41,272.41S1372.27,1653.32,1222.06,1653.32Zm0-449.49c-97.64,0-177.08,79.44-177.08,177.09S1124.42,1558,1222.06,1558s177.1-79.44,177.1-177.09S1319.71,1203.83,1222.06,1203.83Z"/><path class="cls-10" d="M2774.78,1716l47.61,96.08-201.89-46.48a226.44,226.44,0,0,1-152.1-120.14h0Z"/><path class="cls-11" d="M2781.42,1687.16l84.83-65.59-201.88-46.48A226.45,226.45,0,0,0,2475,1616.62h0Z"/><polygon class="cls-12" points="2785.99 1683.18 2778.02 1717.78 1467.7 1416.1 1475.66 1381.5 2785.99 1683.18"/><path class="cls-13" d="M1536.45,1364.44c19.86,4.57-1.69,98.16-21.54,93.59l-301.46-108.49c-11.13-4-7.31-20.62,4.46-19.36Z"/><path class="cls-14" d="M1856.29,2714.51s16.1,23.19,16.9,55.77a14.09,14.09,0,0,1-13.69,14.28l-123.86,4.32a5.93,5.93,0,0,1-3.78-10.67c22.86-17.27,67.86-49.63,100.75-62.87Z"/><path class="cls-15" d="M1859.38,2675l-3.17,47.62a9.64,9.64,0,0,1-10.27,9.06,34.83,34.83,0,0,1-11.41-3,11.05,11.05,0,0,1-6.43-10.51l2.15-57.46Z"/><path class="cls-16" d="M2546.36,2506.76s25.82-11.4,58-6a14.09,14.09,0,0,1,11.42,16.15l-19.26,122.44a5.93,5.93,0,0,1-11.19,1.69c-12.62-25.73-35.85-76.05-42.62-110.86Z"/><path class="cls-17" d="M2508.11,2496.23l46.15,12.15a9.63,9.63,0,0,1,6.95,11.8,34.67,34.67,0,0,1-5.14,10.63,11.06,11.06,0,0,1-11.54,4.32l-56-13Z"/><path class="cls-18" d="M1876.1,1532.89s-4.15-9.6-3.48-15.27.82-23.39-9.8-30.87c0,0-5.76.28-5.87,6.74-6.77-7.26-7.12-13.54-14.11-9.08s-33.31,20.41-20.17,30.94,33.8,30.57,33.8,30.57Z"/><path class="cls-19" d="M2104.16,2298.92s23.44,187.09,90.57,194.23,324.19,44.27,324.19,44.27l7.14-38.56s-148.53-90-237.07-88.55c-44.28-65.69-33.48-247.22-33.48-247.22Z"/><path class="cls-20" d="M2380.3,1645.73c-7.91,208.59-117.33,227-117.33,227v266.79H2108.69s-74.81-182.18-72.86-243.08c-111.27-47-167.59-316.08-179.36-350.53,5.49-4.17,8.43-4,19.63-13,151.66,241.37,188.66,278.47,188.66,278.47h85.69c164.66-14.79,205.17-171.31,205.17-171.31Z"/><path class="cls-21" d="M2258.16,2139s12.26,130.72-245.23,232.6C1950.09,2488.67,1867.67,2707,1867.67,2707H1813.4s37.13-329.71,102.83-395.41,137.37-139.62,192.46-172C2236.14,2126.25,2258.16,2139,2258.16,2139Z"/><path class="cls-22" d="M2148.38,1714.12l28.39,100s-48.52,26.09-84.41,19L2082.5,1745Z"/><path class="cls-23" d="M2089.54,1641.49c-1,1.17-39.66,97.22-39.66,97.22l55.31,20.89,50.14-85.6S2107,1621.9,2089.54,1641.49Z"/><path class="cls-24" d="M2132.34,1685.27l-22.86,47.13a7.72,7.72,0,0,1-1.1,1.66c-2.73,3.07-12.9,13-22.39,2-8.61-10-16.61-19-24.68-21.36a7.31,7.31,0,0,0-8.86,4.28c-3.5,8.73-11,28.54-15,46.76a7.3,7.3,0,0,0,5,8.48c10.89,3.37,34,9.83,53.88,10.66a7.33,7.33,0,0,0,6.61-3.53c6.76-11.24,27.44-45.34,34.67-54,6.79-8.08,21-6.23,26.9-5a7.19,7.19,0,0,0,5.55-1.15c5.73-4,17-14.55,4.59-30.11a7.32,7.32,0,0,1,1.35-10.46c6.64-5,14.18-14.25,5.58-27.79-8.74-13.76-22.38-13.26-30.93-11.19a7.33,7.33,0,0,1-8.4-4.22c-.83-1.85-2.47-3.36-5.62-3.44a7.21,7.21,0,0,1-6.81-8.21c1.06-8.06-.68-18.6-14.21-24.54-24-10.55-42.23,11.73-45.79,29.49s23.12,27.72,39.4,28.33c12.37.46,20.11,13.65,23.11,20A7.26,7.26,0,0,1,2132.34,1685.27Z"/><path class="cls-25" d="M2129.17,1744.42s7.52-30.68,20.65-30.74,24.53,12,9.68,28C2141,1761.63,2129.17,1744.42,2129.17,1744.42Z"/><path class="cls-26" d="M2385.46,1590.7s-33.32-14.76-29,10-4.66,42.84,14.33,44.75S2391.91,1607.81,2385.46,1590.7Z"/><g class="cls-27"><path class="cls-4" d="M412.51,498.73a10.63,10.63,0,0,1-11-9c-1.86-11.85-3.23-24-4.07-36a10.63,10.63,0,0,1,9.86-11.35h.2a10.64,10.64,0,0,1,11.14,9.87c.8,11.43,2.1,22.94,3.86,34.2a10.61,10.61,0,0,1-8.85,12.14A8.7,8.7,0,0,1,412.51,498.73Zm-4-92.47a10.78,10.78,0,0,1-1.27,0,10.63,10.63,0,0,1-9.89-11.31c.81-12,2.14-24.14,3.95-36a10.62,10.62,0,0,1,21,3.21c-1.72,11.28-3,22.78-3.75,34.21A10.62,10.62,0,0,1,408.49,406.26Zm16.43-91.06a10.64,10.64,0,0,1-10.72-13.67c3.46-11.52,7.46-23,11.89-34.22a10.62,10.62,0,0,1,19.75,7.83c-4.21,10.62-8,21.55-11.28,32.5A10.64,10.64,0,0,1,424.92,315.2Zm36.39-85.12a10.62,10.62,0,0,1-9.77-15.86c5.95-10.46,12.43-20.79,19.24-30.71a10.62,10.62,0,0,1,17.51,12c-6.47,9.42-12.62,19.23-18.27,29.18A10.59,10.59,0,0,1,461.31,230.08Zm54.46-74.86a10.62,10.62,0,0,1-8.38-17.78c8.1-8.86,16.69-17.5,25.54-25.67a10.63,10.63,0,1,1,14.42,15.61c-8.41,7.77-16.58,16-24.28,24.4A10.55,10.55,0,0,1,515.77,155.22Zm69.65-60.94a10.63,10.63,0,0,1-6.61-19.34c9.88-6.86,20.17-13.38,30.6-19.38A10.62,10.62,0,1,1,620,74c-9.91,5.71-19.69,11.9-29.07,18.42A10.55,10.55,0,0,1,585.42,94.28ZM973,49.2a10.46,10.46,0,0,1-4.44-.73C957.9,44.28,947,40.5,936,37.24a10.62,10.62,0,1,1,6.07-20.36c11.55,3.43,23.07,7.41,34.26,11.82A10.63,10.63,0,0,1,973,49.2ZM666.8,50.31a10.63,10.63,0,0,1-4.51-20.47c11.16-4.49,22.64-8.56,34.14-12.08a10.63,10.63,0,1,1,6.22,20.32c-10.92,3.35-21.83,7.2-32.42,11.47A10.7,10.7,0,0,1,666.8,50.31ZM883.58,25.17a10.3,10.3,0,0,1-2.14-.1c-11.29-1.7-22.81-2.94-34.23-3.69A10.62,10.62,0,1,1,848.59.18c12,.78,24.13,2.08,36,3.88a10.62,10.62,0,0,1-1,21.11ZM756,25.63a10.63,10.63,0,0,1-2.19-21.11c11.86-1.88,24-3.27,36-4.13l.23,0a10.63,10.63,0,0,1,1.3,21.21c-11.41.82-22.91,2.14-34.18,3.93A11,11,0,0,1,756,25.63Z"/><path class="cls-4" d="M1039.6,82.74a10.65,10.65,0,0,1-6.15-1.59c-4.65-2.9-9.44-5.74-14.23-8.47a10.62,10.62,0,1,1,10.49-18.47c5,2.86,10.08,5.85,15,8.89a10.63,10.63,0,0,1-5.08,19.64Z"/></g><g class="cls-27"><path class="cls-4" d="M1225.92,347.7a10.63,10.63,0,0,1-10.92-8.4c-1.14-5.36-2.41-10.78-3.78-16.12a10.63,10.63,0,0,1,20.59-5.28c1.44,5.62,2.78,11.33,4,17a10.63,10.63,0,0,1-8.18,12.61A10.86,10.86,0,0,1,1225.92,347.7Z"/><path class="cls-4" d="M842.74,847.42q-7.32.38-14.71.5a10.63,10.63,0,1,1-.37-21.25c11.37-.2,22.71-.86,33.82-2a10.62,10.62,0,1,1,2.12,21.14C856.73,846.54,849.71,847.06,842.74,847.42ZM772,845.05a11,11,0,0,1-1.81-.06c-11.77-1.4-23.62-3.31-35.2-5.69a10.62,10.62,0,0,1,4.27-20.81c11,2.25,22.25,4.07,33.44,5.4a10.62,10.62,0,0,1-.7,21.16Zm146.7-8.63a10.63,10.63,0,0,1-3-20.94c10.91-2.63,21.86-5.77,32.54-9.33a10.62,10.62,0,1,1,6.71,20.16c-11.24,3.75-22.77,7.05-34.26,9.83A10.39,10.39,0,0,1,918.71,836.42Zm-235.43-12a10.7,10.7,0,0,1-4.08-.59c-11.17-3.95-22.3-8.43-33.09-13.3a10.62,10.62,0,0,1,8.75-19.36c10.25,4.62,20.82,8.87,31.42,12.62a10.62,10.62,0,0,1-3,20.63Zm321-19A10.63,10.63,0,0,1,999,785.24c10.06-5,20.05-10.44,29.69-16.26a10.62,10.62,0,1,1,11,18.19c-10.15,6.13-20.66,11.89-31.25,17.12A10.63,10.63,0,0,1,1004.28,805.38Zm76.7-49.07a10.62,10.62,0,0,1-7.23-18.87c8.76-7.07,17.32-14.59,25.44-22.35a10.62,10.62,0,1,1,14.68,15.36c-8.55,8.17-17.56,16.08-26.77,23.52A10.58,10.58,0,0,1,1081,756.31Zm64.17-64.61a10.63,10.63,0,0,1-8.85-17.23c7-8.81,13.73-18,20-27.36a10.63,10.63,0,1,1,17.68,11.8c-6.57,9.83-13.64,19.52-21,28.79A10.59,10.59,0,0,1,1145.15,691.7Zm48.54-77.07a10.63,10.63,0,0,1-10.08-15.25c4.91-10.13,9.44-20.58,13.48-31.07a10.62,10.62,0,1,1,19.83,7.63c-4.25,11-9,22-14.2,32.71A10.6,10.6,0,0,1,1193.69,614.63Zm30.46-85.88a10.64,10.64,0,0,1-10.89-13c2.55-10.94,4.67-22.12,6.3-33.26a10.63,10.63,0,0,1,21,3.07c-1.72,11.73-3.95,23.51-6.64,35A10.63,10.63,0,0,1,1224.15,528.75ZM1235,438.33c-.22,0-.44,0-.66,0a10.63,10.63,0,0,1-10.52-10.73c.09-8.28-.09-16.67-.51-24.92-.15-3-.34-6-.55-8.94a10.61,10.61,0,0,1,9.82-11.37,10.5,10.5,0,0,1,11.37,9.82c.23,3.13.42,6.26.58,9.41.45,8.68.63,17.5.54,26.21A10.62,10.62,0,0,1,1235,438.33Z"/><path class="cls-4" d="M601.06,784.56a10.61,10.61,0,0,1-6.19-1.61c-4.87-3.07-9.77-6.29-14.55-9.59a10.62,10.62,0,1,1,12-17.5c4.54,3.13,9.19,6.19,13.82,9.1a10.62,10.62,0,0,1-5.13,19.6Z"/></g><path class="cls-4" d="M609.11,660.76a5,5,0,0,0,5.63,1.24l55.58-23.72a263.35,263.35,0,0,0,77.06,36.57l16.81,58a5,5,0,0,0,4.52,3.58l72.41,3.62A5,5,0,0,0,846,737l22.52-56.05a263.28,263.28,0,0,0,80.33-28.68l52.94,29.15a5,5,0,0,0,5.73-.66l53.76-48.64a5,5,0,0,0,1.23-5.63l-23.72-55.59a262.86,262.86,0,0,0,36.57-77.06l58-16.81a4.94,4.94,0,0,0,3.57-4.52l3.63-72.4a5,5,0,0,0-3.11-4.86l-56-22.52a263.24,263.24,0,0,0-28.69-80.32l29.16-53a5,5,0,0,0-.67-5.72l-48.63-53.76a5,5,0,0,0-5.63-1.24l-55.59,23.72a263.35,263.35,0,0,0-77.06-36.57l-16.81-58a5,5,0,0,0-4.52-3.58l-72.41-3.62a5,5,0,0,0-4.85,3.1l-22.52,56.05a263.28,263.28,0,0,0-80.33,28.68l-52.94-29.15a5,5,0,0,0-5.73.67l-53.76,48.63a5,5,0,0,0-1.23,5.63l23.71,55.59a263.33,263.33,0,0,0-36.56,77.06l-58,16.81a5,5,0,0,0-3.57,4.52l-3.63,72.4a5,5,0,0,0,3.11,4.86l56,22.52A263.3,263.3,0,0,0,589,548.34L559.8,601.28a5,5,0,0,0,.67,5.72Z"/><path class="cls-2" d="M824.5,493.13a72.86,72.86,0,1,1,10.62-1.32A75,75,0,0,1,824.5,493.13Zm-6.39-128.59a57.69,57.69,0,0,0-8.22,1,55.79,55.79,0,1,0,8.22-1Z"/><path class="cls-2" d="M831.34,598.17c-6.09.31-12.24.31-18.41,0h0q-2.92-.15-5.83-.39a180.79,180.79,0,0,1-28.32-4.62l-.38-.09-1.07-.28c-.7-.17-1.39-.36-2.09-.54a4.25,4.25,0,0,1-3.14-3.88,4.31,4.31,0,0,1,.14-1.33,4.26,4.26,0,0,1,5.21-3,170.81,170.81,0,0,0,214.9-156.29,174.32,174.32,0,0,0,0-17.56A170.74,170.74,0,0,0,830.43,248.76c-94-4.7-174.29,67.94-179,161.93a170.79,170.79,0,0,0,19.77,88.74,4.12,4.12,0,0,1,.5,1.78,4.25,4.25,0,0,1-8,2.21,178.69,178.69,0,0,1-20.75-75,181.11,181.11,0,0,1,0-18.2c4.94-98.68,89.27-174.93,187.91-170a179.22,179.22,0,0,1,170,169.47,180,180,0,0,1,0,18.44,179.21,179.21,0,0,1-169.5,170Z"/><g class="cls-27"><path class="cls-4" d="M64.67,796.8a6.56,6.56,0,0,1-6.53-4.39c-1.84-5.25-3.54-10.64-5.06-16a6.56,6.56,0,1,1,12.62-3.59c1.45,5.11,3.08,10.25,4.83,15.27a6.54,6.54,0,0,1-5.86,8.71Z"/><path class="cls-4" d="M52.45,747.83a6.56,6.56,0,0,1-6.81-5.56,285.09,285.09,0,0,1-2.94-28.72c-.1-2-.18-4-.24-6.07a6.79,6.79,0,0,1,6.36-6.76,6.57,6.57,0,0,1,6.76,6.36c.06,1.94.13,3.88.23,5.8a273.7,273.7,0,0,0,2.79,27.4,6.55,6.55,0,0,1-5.48,7.48C52.89,747.79,52.67,747.82,52.45,747.83Zm-2-68.11a5.9,5.9,0,0,1-.94,0,6.58,6.58,0,0,1-5.94-7.14,284.05,284.05,0,0,1,5.34-34.52,6.56,6.56,0,1,1,12.82,2.8,272,272,0,0,0-5.09,32.92A6.55,6.55,0,0,1,50.42,679.72ZM65,613.16a6.49,6.49,0,0,1-2.52-.37,6.56,6.56,0,0,1-4-8.37,283.25,283.25,0,0,1,13.67-32.17,6.56,6.56,0,0,1,11.74,5.87,268.2,268.2,0,0,0-13,30.67A6.58,6.58,0,0,1,65,613.16Zm30.47-60.95A6.56,6.56,0,0,1,89.65,542a284.77,284.77,0,0,1,21.11-27.84,6.57,6.57,0,0,1,9.95,8.57,269.89,269.89,0,0,0-20.14,26.54A6.52,6.52,0,0,1,95.44,552.21Zm44.43-51.66a6.56,6.56,0,0,1-4.75-11.41,285.51,285.51,0,0,1,27.22-21.86A6.56,6.56,0,1,1,169.92,478a275,275,0,0,0-26,20.86A6.54,6.54,0,0,1,139.87,500.55Zm55.61-39.31A6.56,6.56,0,0,1,192,448.91a282.23,282.23,0,0,1,31.74-14.56,6.56,6.56,0,0,1,4.72,12.24,269.84,269.84,0,0,0-30.25,13.88A6.38,6.38,0,0,1,195.48,461.24ZM259,436.74a6.56,6.56,0,0,1-1.91-12.92,285.31,285.31,0,0,1,34.35-6.34,6.57,6.57,0,1,1,1.58,13,269.09,269.09,0,0,0-32.76,6A6.1,6.1,0,0,1,259,436.74Zm101.71-6a6.46,6.46,0,0,1-1.16,0,268.83,268.83,0,0,0-28.9-2.06c-1.47,0-2.91-.05-4.35-.05a6.57,6.57,0,0,1,0-13.13c1.54,0,3.07,0,4.61.06a282.18,282.18,0,0,1,30.27,2.16,6.56,6.56,0,0,1-.48,13.06Z"/></g><g class="cls-27"><path class="cls-4" d="M344,981.7a6.57,6.57,0,0,1-.75-13.11,270.09,270.09,0,0,0,32.51-4.06,6.56,6.56,0,1,1,2.42,12.9,286.27,286.27,0,0,1-34.09,4.26Zm-33.57.12h-.71a287.42,287.42,0,0,1-34.13-4,6.56,6.56,0,0,1,2.3-12.92,276,276,0,0,0,32.57,3.8,6.56,6.56,0,0,1,0,13.1Zm99.43-12.46a6.56,6.56,0,0,1-2.32-12.81,271.24,271.24,0,0,0,30.58-11.81,6.56,6.56,0,0,1,5.45,11.94,285.49,285.49,0,0,1-32,12.37A6.55,6.55,0,0,1,409.88,969.36ZM244.46,970a6.59,6.59,0,0,1-2.27-.28A283.19,283.19,0,0,1,210,957.64a6.56,6.56,0,1,1,5.36-12,271,271,0,0,0,30.68,11.54A6.57,6.57,0,0,1,244.46,970Zm226.33-28.57A6.56,6.56,0,0,1,467,929.32a269.58,269.58,0,0,0,26.83-18.81A6.56,6.56,0,0,1,502,920.78a285.68,285.68,0,0,1-28.13,19.73A6.56,6.56,0,0,1,470.79,941.46Zm52.45-41.69a6.56,6.56,0,0,1-5-11.16,274.31,274.31,0,0,0,21.57-24.68,6.56,6.56,0,0,1,10.39,8,286.22,286.22,0,0,1-22.61,25.89A6.57,6.57,0,0,1,523.24,899.77Zm41-53.06a6.43,6.43,0,0,1-3.68-.91,6.57,6.57,0,0,1-2.29-9,269.05,269.05,0,0,0,15-29.14,6.56,6.56,0,0,1,12,5.29,282.79,282.79,0,0,1-15.74,30.57A6.59,6.59,0,0,1,564.2,846.71Z"/><path class="cls-4" d="M183,942.48a6.45,6.45,0,0,1-3.72-.94c-4.81-2.9-9.55-6-14.1-9.1a6.56,6.56,0,1,1,7.45-10.81c4.33,3,8.86,5.91,13.44,8.68A6.56,6.56,0,0,1,183,942.48Z"/></g><path class="cls-4" d="M184.14,857.54a3.32,3.32,0,0,0,3.77.83L225.1,842.5A176.53,176.53,0,0,0,276.67,867l11.25,38.82a3.31,3.31,0,0,0,3,2.39l48.45,2.43a3.33,3.33,0,0,0,3.25-2.08L357.71,871a176.26,176.26,0,0,0,53.75-19.2l35.43,19.51a3.33,3.33,0,0,0,3.83-.45l36-32.54a3.34,3.34,0,0,0,.83-3.77l-15.87-37.2a176.47,176.47,0,0,0,24.47-51.56l38.82-11.25a3.31,3.31,0,0,0,2.39-3l2.43-48.45a3.33,3.33,0,0,0-2.08-3.25l-37.51-15.07A175.88,175.88,0,0,0,481,611l19.51-35.43a3.33,3.33,0,0,0-.45-3.83l-32.54-36a3.32,3.32,0,0,0-3.77-.82l-37.2,15.87A176,176,0,0,0,375,526.37l-11.25-38.82a3.31,3.31,0,0,0-3-2.39l-48.45-2.43a3.32,3.32,0,0,0-3.25,2.08l-15.07,37.5a175.9,175.9,0,0,0-53.75,19.2L204.75,522a3.31,3.31,0,0,0-3.83.44L165,555a3.3,3.3,0,0,0-.83,3.77L180,596a176,176,0,0,0-24.47,51.57L116.7,658.76a3.33,3.33,0,0,0-2.39,3l-2.43,48.45a3.33,3.33,0,0,0,2.08,3.25l37.5,15.07a176,176,0,0,0,19.2,53.75l-19.51,35.42a3.33,3.33,0,0,0,.44,3.84Z"/><path class="cls-2" d="M328.24,746.25a49.77,49.77,0,1,1,7.3-.91A49.24,49.24,0,0,1,328.24,746.25Zm-4.26-86a37.53,37.53,0,0,0-5.32.66A36.52,36.52,0,0,0,333,732.48h0a36.52,36.52,0,0,0-9-72.28Z"/><path class="cls-2" d="M332.91,819.37q-6.23.32-12.57,0a124.5,124.5,0,0,1-24.9-3.8l-1.09-.29a6.57,6.57,0,0,1-4.86-6,6.79,6.79,0,0,1,.22-2,6.57,6.57,0,0,1,8-4.63A111.2,111.2,0,0,0,321,806.27h0l1.3.05a109.46,109.46,0,0,0,52.94-11.17,111,111,0,0,0,24.68-16.63l.18-.16.56-.5a110.47,110.47,0,1,0-171.68-30,6.46,6.46,0,0,1,.76,2.76A6.56,6.56,0,0,1,217.39,754a123.42,123.42,0,0,1-14.32-51.72,125.08,125.08,0,0,1,0-12.55A123.63,123.63,0,0,1,450,689.38a125.31,125.31,0,0,1,0,12.71A123.8,123.8,0,0,1,332.91,819.37Z"/></g></g></g></svg>