<svg xmlns="http://www.w3.org/2000/svg" xmlns:xlink="http://www.w3.org/1999/xlink" viewBox="0 0 2806.14 2800"><defs><style>.cls-1{fill:none;}.cls-2{fill:url(#linear-gradient);}.cls-3{fill:#91b3fa;}.cls-4,.cls-45{fill:#fff;}.cls-5{fill:#bdd0fb;}.cls-6{fill:url(#linear-gradient-2);}.cls-7{fill:url(#linear-gradient-3);}.cls-8{fill:#7d97f4;}.cls-9{fill:url(#linear-gradient-4);}.cls-10{clip-path:url(#clip-path);}.cls-11{fill:url(#linear-gradient-5);}.cls-12{fill:url(#linear-gradient-6);}.cls-13{fill:url(#linear-gradient-7);}.cls-14{fill:url(#linear-gradient-8);}.cls-15{fill:url(#linear-gradient-9);}.cls-16{fill:url(#linear-gradient-10);}.cls-17{fill:url(#linear-gradient-11);}.cls-18{fill:url(#linear-gradient-12);}.cls-19{fill:url(#linear-gradient-13);}.cls-20{fill:url(#linear-gradient-14);}.cls-21{fill:url(#linear-gradient-15);}.cls-22{fill:url(#linear-gradient-16);}.cls-23{fill:url(#linear-gradient-17);}.cls-24{fill:url(#linear-gradient-18);}.cls-25{fill:url(#linear-gradient-19);}.cls-26{fill:url(#linear-gradient-20);}.cls-27{fill:url(#linear-gradient-21);}.cls-28{fill:url(#linear-gradient-22);}.cls-29{fill:url(#linear-gradient-23);}.cls-30{fill:url(#linear-gradient-24);}.cls-31{fill:url(#linear-gradient-25);}.cls-32{fill:url(#linear-gradient-26);}.cls-33{fill:url(#linear-gradient-27);}.cls-34{fill:url(#linear-gradient-28);}.cls-35{fill:url(#linear-gradient-29);}.cls-36{fill:url(#linear-gradient-30);}.cls-37{fill:url(#linear-gradient-31);}.cls-38{opacity:0.3;}.cls-39{fill:url(#linear-gradient-32);}.cls-40{fill:url(#linear-gradient-33);}.cls-41{fill:url(#linear-gradient-34);}.cls-42{fill:url(#linear-gradient-35);}.cls-43{fill:url(#linear-gradient-36);}.cls-44{fill:url(#linear-gradient-37);}.cls-45{opacity:0.7;isolation:isolate;}.cls-46{fill:url(#linear-gradient-38);}.cls-47{fill:url(#linear-gradient-39);}.cls-48{fill:url(#linear-gradient-40);}.cls-49{fill:url(#linear-gradient-41);}.cls-50{fill:url(#linear-gradient-42);}</style><linearGradient id="linear-gradient" x1="3145.13" y1="-821.56" x2="656.99" y2="2268.56" gradientTransform="matrix(1, 0, 0, -1, 0, 2800)" gradientUnits="userSpaceOnUse"><stop offset="0" stop-color="#dae3fe"/><stop offset="1" stop-color="#e9effd"/></linearGradient><linearGradient id="linear-gradient-2" x1="-347.46" y1="404.13" x2="202.48" y2="1141.86" gradientTransform="matrix(0.96, -0.26, -0.26, -0.96, 880.31, 2950.74)" gradientUnits="userSpaceOnUse"><stop offset="0" stop-color="#09005d"/><stop offset="1" stop-color="#1a0f91"/></linearGradient><linearGradient id="linear-gradient-3" x1="446.66" y1="1783.54" x2="2184.45" y2="1783.54" gradientTransform="matrix(1, 0, 0, -1, 0, 2800)" gradientUnits="userSpaceOnUse"><stop offset="0" stop-color="#4f52ff"/><stop offset="1" stop-color="#4042e2"/></linearGradient><linearGradient id="linear-gradient-4" x1="1814.4" y1="1828.83" x2="2222.59" y2="1828.83" xlink:href="#linear-gradient-3"/><clipPath id="clip-path"><path class="cls-1" d="M2205.83,1652.87c-17.14-9.94-60.76-54.47-123.12-183.49-60.26-124.68-120.39-291.36-169.29-469.33s-82.41-352-94.32-489.94c-12.33-142.77,2.41-203.34,12.06-220.64,17.14,9.94,60.76,54.47,123.12,183.49,60.27,124.68,297.86,242.6,346.77,420.57s-95.07,400.74-83.16,538.71C2230.22,1575,2215.48,1635.57,2205.83,1652.87Z"/></clipPath><linearGradient id="linear-gradient-5" x1="1950.79" y1="1632.11" x2="859.79" y2="1569.51" xlink:href="#linear-gradient-2"/><linearGradient id="linear-gradient-6" x1="-115.86" y1="1244.5" x2="-156.1" y2="2257.21" xlink:href="#linear-gradient-2"/><linearGradient id="linear-gradient-7" x1="508.75" y1="1204.01" x2="-208.38" y2="-1502.15" gradientTransform="matrix(1, 0, 0, -1, 0, 2800)" gradientUnits="userSpaceOnUse"><stop offset="0" stop-color="#cb236d"/><stop offset="1" stop-color="#4c246d"/></linearGradient><linearGradient id="linear-gradient-8" x1="1350.6" y1="1089.19" x2="1249.07" y2="983.15" gradientTransform="matrix(1, 0, 0, -1, 0, 2800)" gradientUnits="userSpaceOnUse"><stop offset="0" stop-color="#febbba"/><stop offset="1" stop-color="#ff928e"/></linearGradient><linearGradient id="linear-gradient-9" x1="778.06" y1="975.76" x2="548.21" y2="741.22" gradientTransform="matrix(1, 0, 0, -1, 0, 2800)" gradientUnits="userSpaceOnUse"><stop offset="0" stop-color="#e1473d"/><stop offset="1" stop-color="#e9605a"/></linearGradient><linearGradient id="linear-gradient-10" x1="1360.67" y1="1003.31" x2="672.3" y2="660.88" xlink:href="#linear-gradient-8"/><linearGradient id="linear-gradient-11" x1="1363.95" y1="1007.36" x2="675.57" y2="664.94" xlink:href="#linear-gradient-8"/><linearGradient id="linear-gradient-12" x1="149.05" y1="-266.95" x2="448.4" y2="910.18" gradientTransform="matrix(1, 0, 0, -1, 0, 2800)" gradientUnits="userSpaceOnUse"><stop offset="0" stop-color="#ff928e"/><stop offset="1" stop-color="#fe7062"/></linearGradient><linearGradient id="linear-gradient-13" x1="471.68" y1="896.38" x2="563.15" y2="1146.16" xlink:href="#linear-gradient-8"/><linearGradient id="linear-gradient-14" x1="913.44" y1="573.1" x2="594.47" y2="338.56" xlink:href="#linear-gradient-8"/><linearGradient id="linear-gradient-15" x1="336.58" y1="695.01" x2="501.49" y2="695.01" xlink:href="#linear-gradient-9"/><linearGradient id="linear-gradient-16" x1="376.12" y1="876.51" x2="658.37" y2="876.51" xlink:href="#linear-gradient-9"/><linearGradient id="linear-gradient-17" x1="674.91" y1="1251.37" x2="406.7" y2="1046.15" xlink:href="#linear-gradient-8"/><linearGradient id="linear-gradient-18" x1="939.56" y1="2098.68" x2="418.16" y2="1045.84" xlink:href="#linear-gradient-9"/><linearGradient id="linear-gradient-19" x1="641.64" y1="1294.85" x2="373.43" y2="1089.63" xlink:href="#linear-gradient-8"/><linearGradient id="linear-gradient-20" x1="1088.37" y1="582.92" x2="1527.16" y2="582.92" xlink:href="#linear-gradient-8"/><linearGradient id="linear-gradient-21" x1="1680.01" y1="927.45" x2="1705.81" y2="268.39" xlink:href="#linear-gradient-3"/><linearGradient id="linear-gradient-22" x1="1884.59" y1="691.93" x2="2862.62" y2="171.25" xlink:href="#linear-gradient-3"/><linearGradient id="linear-gradient-23" x1="2070.16" y1="1021.8" x2="1999.8" y2="1232.88" xlink:href="#linear-gradient-8"/><linearGradient id="linear-gradient-24" x1="2055.06" y1="406.02" x2="2795.01" y2="406.02" xlink:href="#linear-gradient-12"/><linearGradient id="linear-gradient-25" x1="2868.34" y1="1280.55" x2="2579.14" y2="676.77" xlink:href="#linear-gradient-12"/><linearGradient id="linear-gradient-26" x1="2008.17" y1="924.06" x2="2986.2" y2="403.38" xlink:href="#linear-gradient-3"/><linearGradient id="linear-gradient-27" x1="2417.94" y1="1808.19" x2="2387.49" y2="1402.29" xlink:href="#linear-gradient-3"/><linearGradient id="linear-gradient-28" x1="2497.36" y1="406.94" x2="2268.68" y2="-32.82" xlink:href="#linear-gradient-8"/><linearGradient id="linear-gradient-29" x1="7446.13" y1="-3373.71" x2="7193.23" y2="-3708.28" gradientTransform="translate(9574.76 4584.18) rotate(-133.27)" xlink:href="#linear-gradient-8"/><linearGradient id="linear-gradient-30" x1="7252.99" y1="-3454.05" x2="7555.09" y2="-3454.05" gradientTransform="translate(9574.76 4584.18) rotate(-133.27)" xlink:href="#linear-gradient-2"/><linearGradient id="linear-gradient-31" x1="7075.72" y1="-3638.67" x2="7278.58" y2="-3430.54" gradientTransform="translate(9574.76 4584.18) rotate(-133.27)" xlink:href="#linear-gradient-8"/><linearGradient id="linear-gradient-32" x1="814.32" y1="2359.22" x2="1430.61" y2="2359.22" xlink:href="#linear-gradient-12"/><linearGradient id="linear-gradient-33" x1="1465.04" y1="2574.5" x2="1504.22" y2="2574.5" xlink:href="#linear-gradient-12"/><linearGradient id="linear-gradient-34" x1="1690.13" y1="2301.4" x2="1718.1" y2="2301.4" xlink:href="#linear-gradient-12"/><linearGradient id="linear-gradient-35" x1="1095.57" y1="1982.85" x2="1732.13" y2="1982.85" xlink:href="#linear-gradient-12"/><linearGradient id="linear-gradient-36" x1="1024.53" y1="1795.64" x2="1063.29" y2="1795.64" xlink:href="#linear-gradient-12"/><linearGradient id="linear-gradient-37" x1="1260.37" y1="1543.18" x2="1290.81" y2="3055.4" xlink:href="#linear-gradient-12"/><linearGradient id="linear-gradient-38" x1="459.84" y1="1756.39" x2="480.13" y2="1756.39" xlink:href="#linear-gradient-12"/><linearGradient id="linear-gradient-39" x1="445" y1="1979.54" x2="782.84" y2="1979.54" xlink:href="#linear-gradient-12"/><linearGradient id="linear-gradient-40" x1="633.88" y1="1655.15" x2="1037.61" y2="1655.15" xlink:href="#linear-gradient-12"/><linearGradient id="linear-gradient-41" x1="585.4" y1="1600.65" x2="614.9" y2="1600.65" xlink:href="#linear-gradient-12"/><linearGradient id="linear-gradient-42" x1="736.46" y1="1583.68" x2="787.21" y2="2537.7" xlink:href="#linear-gradient-12"/></defs><title>Asset 1</title><g id="Layer_2" data-name="Layer 2"><g id="Layer_1-2" data-name="Layer 1"><g id="Illustration"><path class="cls-2" d="M2460.63,2402.93c-57.16,60.17-111.23,99-154,129.62-502.22,360.35-1096.48,255.31-1222.77,229.66-186.51-37.88-547-111.1-807.64-417.6C-118.07,1880.89-56.66,1150.33,249.2,668.07c55.95-88.22,351.47-577.82,952.13-656.34,363.52-47.52,787.26,48.32,1094.12,305.41C2939.58,856.79,2893.72,1947,2460.63,2402.93Z"/><path class="cls-3" d="M60.11,73.56C57,60.23,75.73,51.36,87.22,60.68c116.63,94.58,396.87,377.8,327,872.75-87.63,621,62.18,847.58,248.65,985.8,0,0-256.08-65-417.2-294.93C-149.89,1059.77,115.8,310.65,60.11,73.56Z"/><path class="cls-4" d="M148.87,267.52c14.59,69.13,27.59,138.47,37.64,208.13Q202.21,580,210.5,685c5.18,70,8.84,140,9.05,210.08.57,70.06-2.34,140.07-5.55,210.35-2.76,70.26-6,141-.85,212.28s20,142.86,49.73,210.11c7.43,16.77,15.24,33.47,24.11,49.62,8.53,16.29,17.89,32.27,27.59,48.09a758.53,758.53,0,0,0,66.16,91C430,1774.37,489.46,1825.64,555,1869c6.89,4.57,16.76,3.45,22-2.5s4-14.17-2.53-18.8l-.05,0c-15.58-10.94-31-22-45.79-33.66-7.5-5.72-14.7-11.72-22-17.59-7.06-6.11-14.39-12-21.22-18.27a753.33,753.33,0,0,1-76.94-79.07c-47-55.58-84.63-117.51-113.14-181.71a613.13,613.13,0,0,1-33-99,674.5,674.5,0,0,1-15.91-102.56c-5.61-69.17-3.08-139.23-.91-209.5s3.58-140.93,1.72-211.52Q246,841.87,242.58,789c-1-17.62-2.44-35.23-3.82-52.83q-2.37-26.37-5.12-52.73-11.37-105.36-30.22-209.89c-13-69.59-28.1-138.86-46.29-207.51a4.28,4.28,0,0,0-5-2.74A3.7,3.7,0,0,0,148.87,267.52Z"/><path class="cls-5" d="M362.24,1560c-14.3,15.17-39.45,10.81-48.05-8.18C266.72,1447,159.3,1138.53,336.71,783.2c149.81-300.07,202.53-477,220.9-559,3.88-17.34,27.64-19.64,34.81-3.39C671.54,400.15,880.44,1010.14,362.24,1560Z"/><path class="cls-4" d="M336.27,1548.89a8.14,8.14,0,0,1-9.59-8.14c.08-5.09,10-514.48,199.46-941.1A8.14,8.14,0,1,1,541,606.26C352.94,1029.78,343,1535.94,343,1541A8.13,8.13,0,0,1,336.27,1548.89Z"/><path class="cls-6" d="M246.86,1760.88s418.58,573.36,531.85,685.44c131.48,130.11,364.35-39.82,315.87-165.61s-499.11-577-499.11-577Z"/><polygon class="cls-7" points="446.65 1204.51 1811.36 267 2184.45 1686.66 556.6 1765.92 446.65 1204.51"/><ellipse class="cls-8" cx="2008.52" cy="978.38" rx="153.7" ry="754.34" transform="translate(-187.46 567.21) rotate(-15.37)"/><path class="cls-9" d="M2205.83,1652.87c-17.14-9.94-60.76-54.47-123.12-183.49-60.26-124.68-120.39-291.36-169.29-469.33s-82.41-352-94.32-489.94c-12.33-142.77,2.41-203.34,12.06-220.64,17.14,9.94,60.76,54.47,123.12,183.49,60.27,124.68,120.39,291.36,169.3,469.34s82.4,352,94.31,489.93C2230.22,1575,2215.48,1635.57,2205.83,1652.87Z"/><g class="cls-10"><path class="cls-11" d="M2207,913.56c34,123.58-5.09,242.06-136.85,278.27S1804,1157.21,1770,1033.62s45.32-253.12,177.09-289.33S2173,790,2207,913.56Z"/></g><path class="cls-12" d="M195,1240.94c68.69-27.74,169.63-58.67,286.57-63.7,15.79,199.3,75.49,395.15,173.57,588L344.84,1850.5A104.3,104.3,0,0,1,222.16,1793c-42.38-93.7-106.53-253.15-122.71-390.91A154.35,154.35,0,0,1,195,1240.94Z"/><path class="cls-8" d="M421.09,1334.78l-241.77,66.44a22.87,22.87,0,0,1-27.86-28.94,6.45,6.45,0,0,1,12.3,3.89,10,10,0,0,0,12.15,12.62l241.76-66.44a10,10,0,0,0,7-12.26l-4.73-17.2a10,10,0,0,0-12.26-7L164.1,1352.85a6.44,6.44,0,0,1-3.41-12.43l243.56-66.94a22.89,22.89,0,0,1,28.1,16l4.73,17.21A22.89,22.89,0,0,1,421.09,1334.78Z"/><path class="cls-8" d="M429,1447.78l-241.77,66.44a22.87,22.87,0,0,1-27.86-28.94,6.45,6.45,0,1,1,12.29,3.89,10,10,0,0,0,12.15,12.61l241.77-66.43a10,10,0,0,0,7-12.26l-4.73-17.2a10,10,0,0,0-12.25-7L172,1465.85a6.45,6.45,0,1,1-3.42-12.44l243.56-66.93a22.89,22.89,0,0,1,28.11,16l4.72,17.2A22.89,22.89,0,0,1,429,1447.78Z"/><path class="cls-8" d="M485,1567.25l-241.76,66.44a22.87,22.87,0,0,1-27.86-28.94,6.45,6.45,0,0,1,12.29,3.89,10,10,0,0,0,12.15,12.62l241.77-66.44a10,10,0,0,0,7-12.26l-4.73-17.2a10,10,0,0,0-12.25-7L228,1585.32a6.45,6.45,0,1,1-3.42-12.43L468.13,1506a22.89,22.89,0,0,1,28.11,16l4.72,17.21A22.89,22.89,0,0,1,485,1567.25Z"/><path class="cls-8" d="M545.86,1700.23l-241.77,66.43a22.87,22.87,0,0,1-27.86-28.94,6.45,6.45,0,0,1,12.3,3.89,10,10,0,0,0,12.15,12.62l241.76-66.44a10,10,0,0,0,7-12.25l-4.73-17.21a10,10,0,0,0-12.26-7l-243.56,66.93a6.44,6.44,0,1,1-3.41-12.43L529,1638.93a22.89,22.89,0,0,1,28.1,16l4.73,17.21A22.9,22.9,0,0,1,545.86,1700.23Z"/><path class="cls-8" d="M969.75,2397.66a163.86,163.86,0,0,1-34.63,5.59,161.35,161.35,0,0,1-134.23-58.75l-311.08-376a6.45,6.45,0,0,1,9.94-8.22l311.08,376a148.56,148.56,0,0,0,123.59,54.09c47.16-2.52,89-26.4,114.84-65.52q2.07-3.13,4.14-6.42a6.45,6.45,0,1,1,10.91,6.88c-1.43,2.27-2.86,4.48-4.29,6.65A157.82,157.82,0,0,1,969.75,2397.66Z"/><path class="cls-13" d="M450.49,1915a6.46,6.46,0,0,1-6.68-2.1l-34.7-41.95a6.45,6.45,0,1,1,9.93-8.22l34.71,41.94a6.44,6.44,0,0,1-3.26,10.33Z"/><path class="cls-3" d="M2169.87,916.82a6.45,6.45,0,0,1-7.79-4.07c-20.93-59.38-54.33-98.75-99.25-117-77.69-31.62-164.57,10.46-165.44,10.89a6.45,6.45,0,0,1-5.71-11.56c3.76-1.85,93-45.06,176-11.27,48.49,19.73,84.34,61.69,106.55,124.69a6.43,6.43,0,0,1-3.93,8.22Z"/><path class="cls-14" d="M1182.8,1803s18.33-19.69,52.27-13.5,64.15,18,85.29,0,28.58,6.15,28.58,6.15l-63.32,48.14Z"/><path class="cls-15" d="M571.12,1826.21,582,2118.31a801.49,801.49,0,0,0,88.31,25.07C687.83,2087,726.4,2017.76,758,1966.3,641.93,1925.27,571.12,1826.21,571.12,1826.21Z"/><path class="cls-16" d="M1150.51,1821.24c-159.19,171.87-288,182-392.53,145.06-31.58,51.46-70.15,120.68-87.67,177.08,425.11,93.73,525.22-297.09,525.22-297.09Z"/><path class="cls-17" d="M1144.92,1836.65s12.57-52.54,50.43-45.34,123.83,54,146,45.34,50.48-29.23,65-21.94l-25.6,31.83s65.81-38,77.14-14.64l-109.51,61.62S1188.17,1877.48,1144.92,1836.65Z"/><path class="cls-18" d="M20,2788.91s-54.32-775.47,341.66-1016.6c0,0,110.7-73.09,248.65,68.45s93.52,288.58-22.25,426.39-233.67,384-205.61,521.76Z"/><path class="cls-19" d="M561.26,1561.08c-.1,9.25-132,196.54-132,196.54S453,1804.23,566,1842.08l97.53-200.53Z"/><path class="cls-20" d="M509.41,2204.11s250.17,209.51,520.31,118.09a64.31,64.31,0,0,1,50.71,3.82l77.66,41a69.33,69.33,0,0,0,91.89-25.73c10.78-18,20-38.66,21.82-58.41l-152-61.52,11.2-18.63s-74.19-6.29-93.61,46.89c0,0-141.32,58.78-379.65-203.36C657.78,2046.28,549.63,2138.24,509.41,2204.11Z"/><path class="cls-21" d="M495.94,2203.19a5.45,5.45,0,0,1-3.09-1C387.21,2130.87,337.51,2015.65,337,2014.5a5.54,5.54,0,1,1,10.19-4.33c.48,1.13,49,113.41,151.84,182.9a5.53,5.53,0,0,1-3.11,10.12Z"/><path class="cls-22" d="M652.84,2044a5.54,5.54,0,0,1-4.66-2.54c-.31-.49-32.51-50.62-93.83-160.41-18.67-33.44-43.18-54.6-72.84-62.91-49.19-13.77-96.65,12.63-97.12,12.9a5.53,5.53,0,0,1-5.47-9.62c2.09-1.19,51.78-28.93,105.47-14,32.65,9.11,59.44,32.06,79.63,68.2,61.11,109.43,93.15,159.32,93.47,159.81a5.53,5.53,0,0,1-1.66,7.65A5.46,5.46,0,0,1,652.84,2044Z"/><path class="cls-23" d="M665.08,1453.76s46.92,107.78,50.07,164.35,15.34,93.28-50.07,104.67-120.51-21.19-150.36-77.54c0,0-46.77-86.83-36.28-122.39S665.08,1453.76,665.08,1453.76Z"/><path class="cls-24" d="M537.07,1604.72l3.72-1.64a9,9,0,0,0,4.39-12.33c-9.22-17.82-27.2-58.66-4-68.19,29.94-12.28,148.52-36.46,174.1-78.53,24.59-40.44,2.81-92.64-29.94-107.49a4.51,4.51,0,0,0-5.89,1.92l-2.73,5.17a4.45,4.45,0,0,1-8.2-.84h0a4.42,4.42,0,0,0-8-1.15c-7.87,12.59-29.1,33-85.88,43.47-80.69,14.9-134,47.55-135.37,103.31a4.45,4.45,0,0,1-6.88,3.67c-6-3.63-15.49-5.34-28.23,5.38-22.16,18.63-13.09,67,35.49,106.73a4.42,4.42,0,0,1-.21,7.12c-8.81,5.73-21.94,19.37,12.08,37.56,35.19,18.81,61.46,17.26,71.58,15.59a4.42,4.42,0,0,0,3.59-5.34l-10.8-49a4.45,4.45,0,0,1,4.34-5.4Z"/><path class="cls-25" d="M539.1,1615.06s-17.9-68.84-48.76-49.54,16,77.14,40.83,79.72Z"/><path class="cls-26" d="M1236,2231.24s-22.74-59.86-49.3-54.38-55.63,25.89-55.63,25.89l-42.67,57.71s119.79,47.19,161.92,20.15c0,0,122.36,21.14,276.87-4.22-22.37-47.22-35.7-94.49-43.53-131.19C1405.38,2189.5,1321.08,2222.58,1236,2231.24Z"/><path class="cls-27" d="M1884.1,1797s-175.18,220.65-400.46,348.17c7.82,36.7,21.15,84,43.52,131.19,116.87-19.17,252.12-64.94,366.79-166.63Z"/><path class="cls-28" d="M2082.21,2777.49s-.43-279.39-162.86-567.89c-50.82-90.24-68.89-195.28-53-297.62l17.79-115s222.94-75.44,470.05-3.18c0,0,342.64,282.82,113.64,1006.15Z"/><path class="cls-29" d="M1922.05,1650.33l57.81,138.88a27.65,27.65,0,0,0,20.91,16.62c33.32,5.72,113.93,14.65,166.87-20.16a13.46,13.46,0,0,0,3.6-18.92l-106.8-153.32Z"/><path class="cls-30" d="M2064.63,2303a12.83,12.83,0,0,0-8.11,18.35L2223.75,2642a12.84,12.84,0,0,0,14.94,6.39l547-157.94a12.84,12.84,0,0,0,8.77-15.9l-94.23-326.21a12.83,12.83,0,0,0-15.6-8.85Z"/><path class="cls-5" d="M2099.91,2265.3a13.44,13.44,0,0,0-9.49,17.71l133.87,363.64a13.43,13.43,0,0,0,16.33,8.27L2786,2497.45a13.43,13.43,0,0,0,9.41-15.74l-75.59-350a13.43,13.43,0,0,0-16.24-10.23Z"/><path class="cls-31" d="M2147.41,2228.59a16.61,16.61,0,0,0-13.68,20.17l90.92,392.56a16.61,16.61,0,0,0,20.79,12.21l537.12-155.08a16.61,16.61,0,0,0,11.48-20.1l-82.61-320.44a16.59,16.59,0,0,0-18.57-12.27Z"/><path class="cls-32" d="M2582.21,2378.3c41.69-314.92-201-557.06-201-557.06l-144.39,168.33c109.62,136.64,161.73,261.85,185.53,360.19C2453.93,2340.56,2529.94,2326,2582.21,2378.3Z"/><path class="cls-33" d="M2422.36,2353.45a3.7,3.7,0,0,1-3.58-2.82c-29.53-122-91.72-242.68-184.83-358.75a3.69,3.69,0,1,1,5.76-4.62c93.79,116.92,156.46,238.59,186.24,361.63a3.68,3.68,0,0,1-3.59,4.56Z"/><path class="cls-34" d="M2422.36,2349.76c22.13,91.4,19.8,159.59,16.44,192.16a25.35,25.35,0,0,1-23.45,22.71c-14,1-33,2.27-50,3.25-18.7,1.08-39.45-10.74-53.32-20.62-7.09-5-16.25,2.81-12.29,10.56,10.35,20.26,36.64,38.29,54.75,48.9a8.64,8.64,0,0,1-2,15.79l-77.47,22c127.29,119.92,211.34-14.26,211.34-14.26,56.2-86.83,85.25-171.73,95.86-251.92C2529.94,2326,2453.93,2340.56,2422.36,2349.76Z"/><path class="cls-35" d="M1981.83,1437.85c-2.42,2.29-102.46,198.73-102.46,198.73l113.38,54.73,122.47-172.1S2022.48,1399.59,1981.83,1437.85Z"/><path class="cls-36" d="M2063.7,1539.86l-56.55,94.26a17.76,17.76,0,0,1-3.1,3.86c-6.73,6.27-29.76,24.49-47.57-.32-15.17-21.15-29.41-40.37-44.67-48.3a18.07,18.07,0,0,0-24.39,8c-9.32,18.47-27.37,56.11-38.7,91.8a18,18,0,0,0,10.47,22.07c23,9.3,68.33,26.13,108.6,31.68a18.06,18.06,0,0,0,17.1-7.27c17.32-23.73,66.14-90.05,82.81-106.65,15.48-15.42,44.05-9.6,56.92-5.91a18.18,18.18,0,0,0,14.45-1.89c13.06-7.87,35.86-27.46,15-60.63a18.11,18.11,0,0,1,5.6-24.59c14.59-9.6,30.41-27.6,15.33-56.76-15.26-29.53-42.52-32.18-61.08-29.91-8.21,1-16.55-3.3-19.7-10.95-1.41-3.4-4.18-6.31-9.33-7.35-9.73-2-16.12-10.87-14.21-20.62,3.27-16.7.81-38.4-25.87-53.07-48.92-26.89-91.77,16.93-102.66,53.93s43.8,63.14,78.2,67.5c25.28,3.2,39.13,30.79,44.71,45.2A18.16,18.16,0,0,1,2063.7,1539.86Z"/><path class="cls-37" d="M2046.46,1663.64s21.75-63.65,49.59-61.31,49.76,30.07,15.25,61.26C2068.38,1702.37,2046.46,1663.64,2046.46,1663.64Z"/><g class="cls-38"><path class="cls-39" d="M835.62,720.46a11.49,11.49,0,0,1-12.34-9.17c-2.57-12.73-4.62-25.76-6.09-38.73a11.49,11.49,0,0,1,10.11-12.72l.23,0A11.49,11.49,0,0,1,840,670c1.4,12.32,3.35,24.69,5.78,36.78a11.48,11.48,0,0,1-9,13.54Q836.22,720.4,835.62,720.46Zm-8.71-99.76a12.37,12.37,0,0,1-1.37,0A11.49,11.49,0,0,1,814.32,609c.3-13,1.17-26.19,2.57-39.09a11.49,11.49,0,1,1,22.85,2.48c-1.33,12.26-2.15,24.76-2.44,37.15A11.48,11.48,0,0,1,826.91,620.7Zm13.47-99.19a11.52,11.52,0,0,1-12.23-14.27c3.19-12.61,7-25.25,11.24-37.55a11.49,11.49,0,1,1,21.72,7.53c-4.05,11.68-7.64,23.68-10.67,35.66A11.51,11.51,0,0,1,840.38,521.51ZM875.7,427.8a11.5,11.5,0,0,1-11.3-16.69c5.94-11.59,12.44-23.06,19.34-34.1a11.5,11.5,0,0,1,19.5,12.19c-6.56,10.48-12.74,21.38-18.38,32.39A11.5,11.5,0,0,1,875.7,427.8ZM931,344.32a11.49,11.49,0,0,1-9.9-18.82c8.34-10,17.22-19.71,26.4-29a11.5,11.5,0,0,1,16.32,16.2c-8.73,8.79-17.17,18.05-25.09,27.51A11.49,11.49,0,0,1,931,344.32Zm72.41-69.16a11.49,11.49,0,0,1-8.06-20.58c10.35-7.89,21.17-15.42,32.16-22.4a11.5,11.5,0,0,1,12.33,19.41c-10.44,6.63-20.72,13.79-30.56,21.28A11.43,11.43,0,0,1,1003.45,275.16Zm416.74-67a11.34,11.34,0,0,1-4.83-.58c-11.67-4-23.68-7.59-35.69-10.6a11.5,11.5,0,1,1,5.6-22.3c12.64,3.17,25.29,6.93,37.59,11.17a11.49,11.49,0,0,1-2.67,22.31Zm-330.85,15.63a11.5,11.5,0,0,1-5.84-21.91c11.84-5.39,24.07-10.32,36.33-14.67a11.5,11.5,0,1,1,7.68,21.67c-11.65,4.13-23.25,8.81-34.5,13.93A11.71,11.71,0,0,1,1089.34,223.81Zm233.11-37.38a11.16,11.16,0,0,1-2.31,0c-12.29-1.31-24.8-2.1-37.18-2.37a11.49,11.49,0,0,1,.49-23c13,.28,26.19,1.12,39.12,2.49a11.5,11.5,0,0,1-.12,22.88Zm-137.91,6.5a11.5,11.5,0,0,1-3.36-22.71c12.73-2.59,25.75-4.67,38.7-6.17l.24,0a11.49,11.49,0,0,1,2.4,22.86c-12.29,1.43-24.66,3.4-36.76,5.87C1185.35,192.83,1184.94,192.89,1184.54,192.93Z"/><path class="cls-40" d="M1493.8,241.29a11.47,11.47,0,0,1-6.72-1.43c-5.16-2.91-10.47-5.76-15.78-8.47a11.5,11.5,0,0,1,10.47-20.47c5.58,2.85,11.17,5.85,16.6,8.91a11.5,11.5,0,0,1-4.57,21.46Z"/></g><g class="cls-38"><path class="cls-41" d="M1707.67,518.89a11.5,11.5,0,0,1-12.2-8.56c-1.48-5.74-3.11-11.54-4.84-17.24a11.5,11.5,0,0,1,22-6.68c1.82,6,3.54,12.12,5.1,18.16a11.46,11.46,0,0,1-10.06,14.32Z"/><path class="cls-42" d="M1317.05,1077.06q-7.89.75-15.88,1.24a11.5,11.5,0,0,1-1.39-23c12.28-.75,24.5-2,36.46-3.72a11.49,11.49,0,1,1,3.29,22.75C1332.13,1075.45,1324.57,1076.35,1317.05,1077.06Zm-76.56.78a11.63,11.63,0,0,1-2,0c-12.79-1-25.68-2.47-38.31-4.49a11.49,11.49,0,0,1,3.64-22.7c12,1.92,24.24,3.35,36.39,4.27a11.49,11.49,0,0,1,.24,22.9Zm158.16-16.24a11.5,11.5,0,0,1-4.26-22.49c11.67-3.36,23.36-7.27,34.73-11.62a11.49,11.49,0,1,1,8.21,21.47c-12,4.58-24.28,8.7-36.57,12.24A12.06,12.06,0,0,1,1398.65,1061.6Zm-255-1.91a11.42,11.42,0,0,1-4.43-.45c-12.26-3.74-24.5-8-36.39-12.81a11.49,11.49,0,1,1,8.55-21.34c11.28,4.51,22.91,8.61,34.55,12.16a11.5,11.5,0,0,1-2.28,22.44ZM1489.68,1024a11.5,11.5,0,0,1-6.63-21.52c10.64-5.84,21.18-12.23,31.32-19a11.49,11.49,0,1,1,12.73,19.14c-10.68,7.1-21.78,13.82-33,20A11.74,11.74,0,0,1,1489.68,1024Zm80.58-56.65a11.49,11.49,0,0,1-8.7-20.06c9.13-8,18-16.59,26.44-25.36a11.5,11.5,0,1,1,16.59,15.92c-8.86,9.23-18.22,18.21-27.83,26.68A11.37,11.37,0,0,1,1570.26,967.37Zm66.31-72.86a11.5,11.5,0,0,1-10.38-18.21c7.17-9.85,14-20.12,20.29-30.51a11.5,11.5,0,0,1,19.66,11.92c-6.63,10.94-13.81,21.74-21.35,32.11A11.47,11.47,0,0,1,1636.57,894.51Zm48.84-85.59a11.38,11.38,0,0,1-5.64-.9,11.49,11.49,0,0,1-6-15.11c4.83-11.17,9.24-22.68,13.11-34.21a11.49,11.49,0,0,1,21.79,7.31c-4.07,12.14-8.71,24.26-13.8,36A11.51,11.51,0,0,1,1685.41,808.92Zm28.87-94.26a11.5,11.5,0,0,1-12.38-13.57c2.24-11.94,4-24.13,5.24-36.24a11.49,11.49,0,1,1,22.87,2.33c-1.3,12.76-3.16,25.59-5.52,38.16A11.51,11.51,0,0,1,1714.28,714.66Zm7.45-98.23-.71.05a11.5,11.5,0,0,1-11.87-11.1c-.3-9-.88-18-1.72-26.92q-.47-4.83-1-9.63a11.49,11.49,0,0,1,10.08-12.75,11.37,11.37,0,0,1,12.75,10.08c.39,3.37.75,6.74,1.07,10.14.89,9.36,1.5,18.89,1.82,28.3A11.5,11.5,0,0,1,1721.73,616.43Z"/><path class="cls-43" d="M1052.87,1020.52a11.56,11.56,0,0,1-6.77-1.46c-5.4-3.08-10.85-6.34-16.17-9.67a11.49,11.49,0,1,1,12.19-19.49c5.07,3.17,10.24,6.26,15.37,9.19a11.5,11.5,0,0,1-4.62,21.43Z"/></g><path class="cls-44" d="M1055.74,886.33a5.37,5.37,0,0,0,6.14,1.07l59-28.26a284.83,284.83,0,0,0,85,35.9l20.9,61.91a5.36,5.36,0,0,0,5,3.65l78.43.51a5.38,5.38,0,0,0,5.1-3.59l21.7-61.63a284.78,284.78,0,0,0,85.47-34.79l58.6,29a5.36,5.36,0,0,0,6.15-1L1543.08,834a5.38,5.38,0,0,0,1.07-6.15l-28.25-59a285.18,285.18,0,0,0,35.89-85L1613.7,663a5.36,5.36,0,0,0,3.65-5l.51-78.43a5.35,5.35,0,0,0-3.59-5.1l-61.63-21.7a284.89,284.89,0,0,0-34.79-85.47l29-58.59a5.38,5.38,0,0,0-1-6.16l-55.1-55.82a5.38,5.38,0,0,0-6.15-1.07l-59,28.26a284.55,284.55,0,0,0-85-35.89l-20.9-61.92a5.38,5.38,0,0,0-5.06-3.65l-78.43-.51a5.38,5.38,0,0,0-5.1,3.59l-21.7,61.63A284.89,284.89,0,0,0,1124,371.91l-58.59-29a5.37,5.37,0,0,0-6.16,1L1003.44,399a5.37,5.37,0,0,0-1.08,6.15l28.26,59a284.61,284.61,0,0,0-35.89,85L932.81,570a5.37,5.37,0,0,0-3.65,5l-.51,78.43a5.38,5.38,0,0,0,3.59,5.1l61.64,21.7a284.89,284.89,0,0,0,34.79,85.47l-29,58.59a5.37,5.37,0,0,0,1,6.16Z"/><path class="cls-45" d="M1280.64,695a78.91,78.91,0,1,1,11.42-1.94A79,79,0,0,1,1280.64,695Zm-13-138.69a61.59,61.59,0,0,0-8.84,1.49,60.37,60.37,0,1,0,8.84-1.49Z"/><path class="cls-45" d="M1293,808.2a196.17,196.17,0,0,1-19.9.88h0c-2.11,0-4.21-.06-6.32-.14a195.4,195.4,0,0,1-30.83-3.66l-.41-.08-1.17-.25-2.28-.49a4.58,4.58,0,0,1-3.58-4.05,4.41,4.41,0,0,1,.09-1.44,4.6,4.6,0,0,1,5.48-3.49,184.79,184.79,0,0,0,224.08-198,184.69,184.69,0,0,0-182.61-166.86C1173.68,430,1090.36,512.23,1089.7,614a184.85,184.85,0,0,0,25.55,95,4.52,4.52,0,0,1,.62,1.91,4.6,4.6,0,0,1-8.54,2.77,193.33,193.33,0,0,1-26-80,195.32,195.32,0,0,1-.87-19.67c.69-106.89,88.25-193.28,195.1-192.59a193.9,193.9,0,0,1,191.71,175.16q.93,9.87.87,19.93A193.88,193.88,0,0,1,1293,808.2Z"/><g class="cls-38"><path class="cls-46" d="M473.7,1059a7.09,7.09,0,0,1-7.26-4.44c-2.24-5.6-4.34-11.34-6.23-17.06a7.1,7.1,0,0,1,13.47-4.47c1.81,5.46,3.81,10.93,5.94,16.27a7.1,7.1,0,0,1-4,9.23A7.67,7.67,0,0,1,473.7,1059Z"/><path class="cls-47" d="M458.18,1006.66a7.1,7.1,0,0,1-7.62-5.69,306.3,306.3,0,0,1-4.53-30.9c-.2-2.17-.39-4.36-.55-6.55a7.35,7.35,0,0,1,6.56-7.6,7.1,7.1,0,0,1,7.6,6.55c.16,2.1.33,4.19.53,6.26a293.22,293.22,0,0,0,4.31,29.48,7.11,7.11,0,0,1-5.58,8.35Zm-5.4-73.52a6.91,6.91,0,0,1-1,0,7.1,7.1,0,0,1-6.75-7.44,308.82,308.82,0,0,1,4.14-37.56,7.1,7.1,0,0,1,14,2.42,294.52,294.52,0,0,0-3.95,35.83A7.09,7.09,0,0,1,452.78,933.14Zm12.59-72.63a7.09,7.09,0,0,1-7.46-9.14A307.07,307.07,0,0,1,471.16,816a7.1,7.1,0,0,1,13,5.79,293,293,0,0,0-12.64,33.77A7.08,7.08,0,0,1,465.37,860.51Zm30.06-67.31a7.1,7.1,0,0,1-6.74-10.74,308.51,308.51,0,0,1,21.51-31.09,7.1,7.1,0,1,1,11.15,8.79,295.29,295.29,0,0,0-20.51,29.64A7.11,7.11,0,0,1,495.43,793.2ZM541,735.27a7.1,7.1,0,0,1-5.68-12.11,310.71,310.71,0,0,1,28.4-24.91,7.1,7.1,0,1,1,8.7,11.22,295.35,295.35,0,0,0-27.1,23.78A7.07,7.07,0,0,1,541,735.27Zm58.26-45.1A7.1,7.1,0,0,1,595,677a304.17,304.17,0,0,1,33.61-17.24,7.1,7.1,0,1,1,5.68,13,289.64,289.64,0,0,0-32,16.43A7.17,7.17,0,0,1,599.28,690.17Zm67.5-29.49a7.1,7.1,0,0,1-2.68-13.87,306.22,306.22,0,0,1,36.83-8.46,7.1,7.1,0,0,1,2.33,14,293.71,293.71,0,0,0-35.13,8.06A6.43,6.43,0,0,1,666.78,660.68Zm109.64-11.29a7.44,7.44,0,0,1-1.25,0,294.33,294.33,0,0,0-31.34-.86c-1.59,0-3.15.08-4.7.15a7.09,7.09,0,0,1-7.39-6.79,7,7,0,0,1,6.78-7.4c1.66-.07,3.32-.13,5-.16a306.51,306.51,0,0,1,32.82.91,7.1,7.1,0,0,1,.1,14.14Z"/></g><g class="cls-38"><path class="cls-48" d="M784.34,1245.69a7.1,7.1,0,0,1-1.43-14.12,293.45,293.45,0,0,0,35-5.93,7.1,7.1,0,0,1,3.22,13.84,311.73,311.73,0,0,1-36.64,6.21Zm-36.28,1.72a4.86,4.86,0,0,1-.77,0,310.55,310.55,0,0,1-37.07-2.69,7.1,7.1,0,0,1,1.87-14.08,297,297,0,0,0,35.38,2.58,7.1,7.1,0,0,1,.59,14.16Zm106.88-18.16a7.1,7.1,0,0,1-3.11-13.73,293.26,293.26,0,0,0,32.49-14.2,7.1,7.1,0,1,1,6.46,12.64,306.84,306.84,0,0,1-34.06,14.89A7,7,0,0,1,854.94,1229.25Zm-178.76,8.52a7.17,7.17,0,0,1-2.47-.19A305.91,305.91,0,0,1,638.37,1226a7.1,7.1,0,1,1,5.23-13.2,290.34,290.34,0,0,0,33.7,11,7.09,7.09,0,0,1-1.12,13.93Zm243.29-41.53a7.1,7.1,0,0,1-4.66-13,294,294,0,0,0,28.12-21.59,7.1,7.1,0,0,1,9.32,10.72,310.61,310.61,0,0,1-29.48,22.64A7.2,7.2,0,0,1,919.47,1196.24Zm54.72-47.54a7.09,7.09,0,0,1-5.94-11.82,296.6,296.6,0,0,0,22.15-27.7,7.1,7.1,0,1,1,11.6,8.18,310.65,310.65,0,0,1-23.21,29A7,7,0,0,1,974.19,1148.7Zm41.77-59.27A7.11,7.11,0,0,1,1009,1079a290.17,290.17,0,0,0,14.85-32.21,7.1,7.1,0,0,1,13.24,5.16,308.46,308.46,0,0,1-15.58,33.77A7.12,7.12,0,0,1,1016,1089.43Z"/><path class="cls-49" d="M608.46,1210.9a7.13,7.13,0,0,1-4.07-.84c-5.33-2.92-10.6-6-15.66-9.17a7.1,7.1,0,0,1,7.53-12c4.83,3,9.86,6,15,8.75a7.1,7.1,0,0,1-2.75,13.3Z"/></g><path class="cls-50" d="M605.69,1119a3.58,3.58,0,0,0,4.11.71l39.45-18.9a190.89,190.89,0,0,0,56.89,24l14,41.42a3.58,3.58,0,0,0,3.38,2.45l52.48.34a3.6,3.6,0,0,0,3.41-2.4l14.52-41.25a190.41,190.41,0,0,0,57.19-23.28l39.21,19.42a3.6,3.6,0,0,0,4.12-.66L931.79,1084a3.6,3.6,0,0,0,.72-4.11l-18.91-39.46a190.41,190.41,0,0,0,24-56.89l41.43-14a3.59,3.59,0,0,0,2.44-3.38l.34-52.48a3.59,3.59,0,0,0-2.4-3.42L938.19,895.8a190.52,190.52,0,0,0-23.28-57.19l19.42-39.21a3.59,3.59,0,0,0-.67-4.12l-36.87-37.35a3.6,3.6,0,0,0-4.11-.72l-39.45,18.91a190.63,190.63,0,0,0-56.89-24l-14-41.43a3.58,3.58,0,0,0-3.38-2.44l-52.48-.34a3.59,3.59,0,0,0-3.41,2.4l-14.52,41.24a190.73,190.73,0,0,0-57.2,23.28l-39.2-19.41a3.59,3.59,0,0,0-4.12.66l-37.35,36.87A3.6,3.6,0,0,0,570,797l18.91,39.46a190.47,190.47,0,0,0-24,56.88l-41.43,14a3.59,3.59,0,0,0-2.44,3.38l-.34,52.48a3.59,3.59,0,0,0,2.4,3.41l41.24,14.52a190.58,190.58,0,0,0,23.28,57.2l-19.42,39.21a3.6,3.6,0,0,0,.67,4.12Z"/><path class="cls-45" d="M756.19,992a53.85,53.85,0,1,1,7.85-1.33A54.55,54.55,0,0,1,756.19,992Zm-8.65-92.81a39.51,39.51,0,1,0,13.12,77.7h0a39.51,39.51,0,0,0-13.12-77.7Z"/><path class="cls-45" d="M764.69,1070.77c-4.48.42-9,.62-13.59.6a134.63,134.63,0,0,1-27.09-2.93l-1.2-.26a7.1,7.1,0,0,1-5.53-6.25,7.25,7.25,0,0,1,.14-2.22,7.12,7.12,0,0,1,8.47-5.39,120.08,120.08,0,0,0,25.3,2.85h1.4a118.32,118.32,0,0,0,56.7-14.57,120.41,120.41,0,0,0,25.88-19.13l.19-.19.58-.57a119.51,119.51,0,1,0-187-24.36,7,7,0,0,1,1,2.94,7.1,7.1,0,0,1-13.18,4.28,133.46,133.46,0,0,1-17.92-55.22c-.42-4.5-.63-9-.6-13.58a133.74,133.74,0,0,1,266.86-12,136.44,136.44,0,0,1,.61,13.75C885.25,1007.66,832.11,1064.38,764.69,1070.77Z"/><path class="cls-8" d="M2650.22,633.54,2197.36,779.18a13.66,13.66,0,0,1-17.19-8.83l-20-62a13.66,13.66,0,0,1,8.83-17.19L2621.9,545.5a13.67,13.67,0,0,1,17.2,8.83l20,62A13.68,13.68,0,0,1,2650.22,633.54Z"/><path class="cls-8" d="M2796.65,789.4,2278.68,956a13.68,13.68,0,0,1-17.2-8.83l-19.94-62a13.67,13.67,0,0,1,8.83-17.2l518-166.59a13.67,13.67,0,0,1,17.2,8.83l19.95,62A13.67,13.67,0,0,1,2796.65,789.4Z"/><path class="cls-8" d="M2765.53,1006.05l-471.34,151.59a13.67,13.67,0,0,1-17.2-8.83l-19.95-62a13.68,13.68,0,0,1,8.83-17.2L2737.21,918a13.67,13.67,0,0,1,17.2,8.83l19.94,62A13.67,13.67,0,0,1,2765.53,1006.05Z"/></g></g></g></svg>