<svg xmlns="http://www.w3.org/2000/svg" xmlns:xlink="http://www.w3.org/1999/xlink" viewBox="0 0 2715.24 2770.52"><defs><style>.cls-1{fill:none;}.cls-2{fill:url(#linear-gradient);}.cls-3{fill:url(#linear-gradient-2);}.cls-21,.cls-22,.cls-26,.cls-4{fill:#fff;}.cls-4{opacity:0.49;}.cls-26,.cls-4{isolation:isolate;}.cls-5{fill:#7d97f4;}.cls-6{fill:url(#linear-gradient-3);}.cls-7{fill:url(#linear-gradient-4);}.cls-8{fill:#91b3fa;}.cls-9{fill:url(#linear-gradient-5);}.cls-10{fill:url(#linear-gradient-6);}.cls-11{fill:url(#linear-gradient-7);}.cls-12{fill:url(#linear-gradient-8);}.cls-13{fill:url(#linear-gradient-9);}.cls-14{fill:url(#linear-gradient-10);}.cls-15{clip-path:url(#clip-path);}.cls-16{fill:url(#linear-gradient-11);}.cls-17{fill:url(#linear-gradient-12);}.cls-18{fill:url(#linear-gradient-13);}.cls-19{fill:url(#linear-gradient-14);}.cls-20{fill:url(#linear-gradient-15);}.cls-22{fill-rule:evenodd;}.cls-23{fill:url(#linear-gradient-16);}.cls-24{fill:url(#linear-gradient-17);}.cls-25{fill:url(#linear-gradient-18);}.cls-26{opacity:0.78;}.cls-27{fill:url(#linear-gradient-19);}.cls-28{fill:url(#linear-gradient-20);}.cls-29{fill:url(#linear-gradient-21);}.cls-30{fill:url(#linear-gradient-22);}.cls-31{fill:url(#linear-gradient-23);}.cls-32{fill:url(#linear-gradient-24);}.cls-33{fill:url(#linear-gradient-25);}.cls-34{fill:url(#linear-gradient-26);}.cls-35{fill:url(#linear-gradient-27);}.cls-36{fill:url(#linear-gradient-28);}.cls-37{fill:url(#linear-gradient-29);}.cls-38{fill:url(#linear-gradient-30);}.cls-39{fill:url(#linear-gradient-31);}.cls-40{fill:url(#linear-gradient-32);}.cls-41{fill:url(#linear-gradient-33);}.cls-42{fill:url(#linear-gradient-34);}.cls-43{fill:url(#linear-gradient-35);}.cls-44{fill:url(#linear-gradient-36);}.cls-45{fill:url(#linear-gradient-37);}.cls-46{fill:url(#linear-gradient-38);}.cls-47{fill:url(#linear-gradient-39);}.cls-48{fill:url(#linear-gradient-40);}.cls-49{fill:url(#linear-gradient-41);}.cls-50{fill:url(#linear-gradient-42);}.cls-51{fill:url(#linear-gradient-43);}.cls-52{fill:url(#linear-gradient-44);}.cls-53{fill:url(#linear-gradient-45);}.cls-54{fill:url(#linear-gradient-46);}.cls-55{fill:url(#linear-gradient-47);}.cls-56{fill:url(#linear-gradient-48);}.cls-57{fill:url(#linear-gradient-49);}.cls-58{fill:url(#linear-gradient-50);}</style><linearGradient id="linear-gradient" x1="2879.59" y1="-264.02" x2="887.05" y2="1886.66" gradientTransform="matrix(1, 0, 0, -1, 0, 2800)" gradientUnits="userSpaceOnUse"><stop offset="0" stop-color="#dae3fe"/><stop offset="1" stop-color="#e9effd"/></linearGradient><linearGradient id="linear-gradient-2" x1="1879.13" y1="3745" x2="684.68" y2="1938.39" gradientTransform="matrix(1, 0, 0, -1, 0, 2800)" gradientUnits="userSpaceOnUse"><stop offset="0" stop-color="#ff928e"/><stop offset="1" stop-color="#fe7062"/></linearGradient><linearGradient id="linear-gradient-3" x1="651.08" y1="-583.43" x2="1074.12" y2="387.07" gradientTransform="matrix(1, 0, 0, -1, 0, 2800)" gradientUnits="userSpaceOnUse"><stop offset="0" stop-color="#4f52ff"/><stop offset="1" stop-color="#4042e2"/></linearGradient><linearGradient id="linear-gradient-4" x1="1209.11" y1="-242.83" x2="1592.32" y2="717.7" xlink:href="#linear-gradient-3"/><linearGradient id="linear-gradient-5" x1="1224.81" y1="855.32" x2="2269.96" y2="-184.84" xlink:href="#linear-gradient-3"/><linearGradient id="linear-gradient-6" x1="2421.08" y1="3533.25" x2="952.9" y2="1134.39" gradientTransform="matrix(1, 0, 0, -1, 0, 2800)" gradientUnits="userSpaceOnUse"><stop offset="0" stop-color="#e1473d"/><stop offset="1" stop-color="#e9605a"/></linearGradient><linearGradient id="linear-gradient-7" x1="-1788.49" y1="1395.3" x2="-2353.67" y2="2217.39" gradientTransform="matrix(0.76, 0.65, 0.65, -0.76, 1426.61, 2945.37)" xlink:href="#linear-gradient-3"/><linearGradient id="linear-gradient-8" x1="1904.17" y1="2287.68" x2="1992.1" y2="2078.64" gradientTransform="matrix(1, 0, 0, -1, 0, 2800)" gradientUnits="userSpaceOnUse"><stop offset="0" stop-color="#09005d"/><stop offset="1" stop-color="#1a0f91"/></linearGradient><linearGradient id="linear-gradient-9" x1="1910.64" y1="3184.05" x2="2079.85" y2="2666.46" xlink:href="#linear-gradient-3"/><linearGradient id="linear-gradient-10" x1="2790.64" y1="2725.47" x2="2516.34" y2="2488.78" xlink:href="#linear-gradient-3"/><clipPath id="clip-path"><path class="cls-1" d="M2387.54,621.1c-3.9-4-12.41-19.29-19.7-58.91-7.05-38.28-10.93-87.94-10.93-139.83s3.88-101.54,10.93-139.83c7.29-39.61,15.8-54.93,19.7-58.91,3.91,4,12.42,19.3,19.71,58.91,7.05,38.29,62.67,88,62.67,139.83s-55.62,101.55-62.67,139.83C2400,601.81,2391.45,617.13,2387.54,621.1Z"/></clipPath><linearGradient id="linear-gradient-11" x1="2442.63" y1="2449" x2="2309.9" y2="2296.36" xlink:href="#linear-gradient-8"/><linearGradient id="linear-gradient-12" x1="1837.39" y1="2466.7" x2="1943.57" y2="2279.23" xlink:href="#linear-gradient-8"/><linearGradient id="linear-gradient-13" x1="1484.15" y1="2239.66" x2="1842.5" y2="2739.58" xlink:href="#linear-gradient-2"/><linearGradient id="linear-gradient-14" x1="-639.31" y1="112.01" x2="-393.76" y2="567.7" gradientTransform="matrix(0.96, 0.29, 0.29, -0.96, 534.45, 2454.16)" xlink:href="#linear-gradient-6"/><linearGradient id="linear-gradient-15" x1="-697.19" y1="143.15" x2="-451.65" y2="598.85" gradientTransform="matrix(0.96, 0.29, 0.29, -0.96, 534.45, 2454.16)" xlink:href="#linear-gradient-6"/><linearGradient id="linear-gradient-16" x1="1577.75" y1="2190.27" x2="1856.5" y2="1234.57" gradientTransform="matrix(1, 0, 0, -1, 0, 2800)" gradientUnits="userSpaceOnUse"><stop offset="0" stop-color="#ff928e"/><stop offset="0.6" stop-color="#fe7e74"/><stop offset="1" stop-color="#fe7062"/></linearGradient><linearGradient id="linear-gradient-17" x1="1724.12" y1="424.01" x2="2006.12" y2="751.33" xlink:href="#linear-gradient-6"/><linearGradient id="linear-gradient-18" x1="2165.46" y1="990.06" x2="1331.58" y2="-269.69" xlink:href="#linear-gradient-2"/><linearGradient id="linear-gradient-19" x1="2069.05" y1="977.8" x2="1982.78" y2="592.9" xlink:href="#linear-gradient-2"/><linearGradient id="linear-gradient-20" x1="1588.55" y1="-137.01" x2="2128.04" y2="616.24" xlink:href="#linear-gradient-2"/><linearGradient id="linear-gradient-21" x1="1633.87" y1="-167.37" x2="2173.36" y2="585.88" xlink:href="#linear-gradient-2"/><linearGradient id="linear-gradient-22" x1="1679.19" y1="-197.72" x2="2218.68" y2="555.53" xlink:href="#linear-gradient-2"/><linearGradient id="linear-gradient-23" x1="1724.51" y1="-228.08" x2="2264" y2="525.17" xlink:href="#linear-gradient-2"/><linearGradient id="linear-gradient-24" x1="1769.83" y1="-258.43" x2="2309.32" y2="494.82" xlink:href="#linear-gradient-2"/><linearGradient id="linear-gradient-25" x1="2184.39" y1="330.03" x2="2466.39" y2="657.35" xlink:href="#linear-gradient-6"/><linearGradient id="linear-gradient-26" x1="2625.74" y1="896.08" x2="1791.86" y2="-363.67" xlink:href="#linear-gradient-2"/><linearGradient id="linear-gradient-27" x1="2502.98" y1="839.97" x2="2460.95" y2="530.28" xlink:href="#linear-gradient-2"/><linearGradient id="linear-gradient-28" x1="2635.06" y1="570.02" x2="2177.16" y2="-20.16" xlink:href="#linear-gradient-2"/><linearGradient id="linear-gradient-29" x1="2681.39" y1="536.14" x2="2223.49" y2="-54.04" xlink:href="#linear-gradient-2"/><linearGradient id="linear-gradient-30" x1="2727.72" y1="502.26" x2="2269.83" y2="-87.92" xlink:href="#linear-gradient-2"/><linearGradient id="linear-gradient-31" x1="2774.06" y1="468.38" x2="2316.16" y2="-121.8" xlink:href="#linear-gradient-2"/><linearGradient id="linear-gradient-32" x1="253.42" y1="77.52" x2="395.41" y2="77.52" gradientTransform="matrix(1, 0, 0, -1, 0, 2800)" gradientUnits="userSpaceOnUse"><stop offset="0" stop-color="#53d8ff"/><stop offset="1" stop-color="#3840f7"/></linearGradient><linearGradient id="linear-gradient-33" x1="253.41" y1="105.34" x2="391.4" y2="105.34" xlink:href="#linear-gradient-8"/><linearGradient id="linear-gradient-34" x1="266.53" y1="144.19" x2="306.52" y2="144.19" gradientTransform="matrix(1, 0, 0, -1, 0, 2800)" gradientUnits="userSpaceOnUse"><stop offset="0" stop-color="#febbba"/><stop offset="1" stop-color="#ff928e"/></linearGradient><linearGradient id="linear-gradient-35" x1="0" y1="42.31" x2="54.41" y2="42.31" xlink:href="#linear-gradient-32"/><linearGradient id="linear-gradient-36" x1="0.4" y1="96.46" x2="80.26" y2="96.46" xlink:href="#linear-gradient-8"/><linearGradient id="linear-gradient-37" x1="41.91" y1="165.05" x2="89.71" y2="165.05" xlink:href="#linear-gradient-34"/><linearGradient id="linear-gradient-38" x1="428.51" y1="680.83" x2="20.44" y2="12.37" xlink:href="#linear-gradient-8"/><linearGradient id="linear-gradient-39" x1="318.94" y1="1543.58" x2="318.94" y2="821.94" xlink:href="#linear-gradient-3"/><linearGradient id="linear-gradient-40" x1="699.33" y1="1171.83" x2="510.03" y2="925.56" xlink:href="#linear-gradient-34"/><linearGradient id="linear-gradient-41" x1="474.76" y1="1114.14" x2="-157.24" y2="365.1" xlink:href="#linear-gradient-3"/><linearGradient id="linear-gradient-42" x1="710.48" y1="1739.56" x2="446.7" y2="1097.54" xlink:href="#linear-gradient-3"/><linearGradient id="linear-gradient-43" x1="277.38" y1="1012.66" x2="298.09" y2="1121.39" xlink:href="#linear-gradient-34"/><linearGradient id="linear-gradient-44" x1="333.42" y1="1212.14" x2="215.26" y2="1121.73" xlink:href="#linear-gradient-34"/><linearGradient id="linear-gradient-45" x1="250.24" y1="1283.73" x2="360.29" y2="1142.04" xlink:href="#linear-gradient-8"/><linearGradient id="linear-gradient-46" x1="318.76" y1="1231.3" x2="200.6" y2="1140.88" xlink:href="#linear-gradient-34"/><linearGradient id="linear-gradient-47" x1="705.62" y1="1191.22" x2="752.07" y2="1191.22" xlink:href="#linear-gradient-2"/><linearGradient id="linear-gradient-48" x1="388.04" y1="935.42" x2="305.34" y2="811.37" xlink:href="#linear-gradient-34"/><linearGradient id="linear-gradient-49" x1="-194.16" y1="800.3" x2="-381.01" y2="749.1" gradientTransform="translate(9.63 2804.09) rotate(-177.17)" xlink:href="#linear-gradient-8"/><linearGradient id="linear-gradient-50" x1="-453.97" y1="904.89" x2="-585.76" y2="765.59" gradientTransform="translate(42.5 2800) rotate(180)" xlink:href="#linear-gradient-8"/></defs><title>Asset 1</title><g id="Layer_2" data-name="Layer 2"><g id="Layer_1-2" data-name="Layer 1"><g id="Illustration"><path class="cls-2" d="M2601.92,1838.42c-273.79,640-996.51,914.83-1562.77,868-154.61-12.79-465.69-38.54-708.59-268.24C-135.9,1997-64.06,1075,382.48,532.09,440,462.18,838-6.21,1458.3.06c454.13,4.59,772.88,261.13,811.64,293.09,49,40.37,157,136.31,254.28,288.51C2752.91,939.28,2773,1438.52,2601.92,1838.42Z"/><path class="cls-3" d="M1008,1245.85H342.67a41.73,41.73,0,0,1-41.25-35.52L223.94,694.69a20.2,20.2,0,0,1,20-23.2H1008v574.36Z"/><path class="cls-4" d="M743.51,1001.75H371.24a5.54,5.54,0,0,1-5.47-4.62l-12.94-76.64a5.54,5.54,0,0,1,5.46-6.47H720.87a5.55,5.55,0,0,1,5.46,4.62l21.33,77.67A4.3,4.3,0,0,1,743.51,1001.75Z"/><path class="cls-4" d="M768.21,1092.3a4.57,4.57,0,0,1-4.38,5.83H386.62a4.57,4.57,0,0,1-4.53-3.81l-10.56-63A4.55,4.55,0,0,1,376,1026H744.46a6.2,6.2,0,0,1,6,4.5Z"/><path class="cls-4" d="M719.8,891.31H354.68a9.09,9.09,0,0,1-8.94-7.45l-9.39-51.28a9.1,9.1,0,0,1,8.94-10.73H702.18a9.1,9.1,0,0,1,9,7.56l13.91,55.16A5.42,5.42,0,0,1,719.8,891.31Z"/><path class="cls-5" d="M1249.62,1977.6H584.33a41.7,41.7,0,0,1-41.25-35.51L465.6,1426.44a20.19,20.19,0,0,1,20-23.19h764.05Z"/><path class="cls-4" d="M939,1733.36H566.75a5.54,5.54,0,0,1-5.46-4.62l-12.95-76.63a5.55,5.55,0,0,1,5.47-6.47H916.38a5.54,5.54,0,0,1,5.47,4.62l21.32,77.67A4.3,4.3,0,0,1,939,1733.36Z"/><path class="cls-4" d="M963.73,1823.92a4.56,4.56,0,0,1-4.39,5.82H582.13a4.56,4.56,0,0,1-4.52-3.8L567,1763a4.56,4.56,0,0,1,4.5-5.31H940a6.23,6.23,0,0,1,6,4.5Z"/><path class="cls-4" d="M915.31,1622.92H550.2a9.08,9.08,0,0,1-8.94-7.45l-9.39-51.28a9.08,9.08,0,0,1,8.94-10.72H897.69a9.09,9.09,0,0,1,9,7.56l13.91,55.15A5.41,5.41,0,0,1,915.31,1622.92Z"/><path class="cls-6" d="M1455.91,2709.36H799.44a52,52,0,0,1-51.38-44.24L673.81,2171a31.35,31.35,0,0,1,31-36h751.1v574.36Z"/><path class="cls-4" d="M1155.12,2463.94H782.85a5.54,5.54,0,0,1-5.47-4.62l-12.94-76.64a5.53,5.53,0,0,1,5.46-6.46h362.58a5.54,5.54,0,0,1,5.46,4.62l21.33,77.66A4.3,4.3,0,0,1,1155.12,2463.94Z"/><path class="cls-4" d="M1179.82,2554.5a4.56,4.56,0,0,1-4.38,5.82H798.23a4.57,4.57,0,0,1-4.53-3.8l-10.56-63a4.56,4.56,0,0,1,4.49-5.31h368.45a6.2,6.2,0,0,1,6,4.5Z"/><path class="cls-4" d="M1131.41,2353.5H766.29a9.09,9.09,0,0,1-8.94-7.45L748,2294.77A9.1,9.1,0,0,1,756.9,2284h356.89a9.1,9.1,0,0,1,9,7.56l13.91,55.16A5.41,5.41,0,0,1,1131.41,2353.5Z"/><path class="cls-7" d="M2091.52,2091.24c0,16.35-224.89,48.31-505.56,48.31s-498.5-35.64-498.5-52,215.19-25.93,495.86-25.93S2091.52,2074.89,2091.52,2091.24Z"/><path class="cls-5" d="M2301.23,1360.37c0,20.65-352.49,71.64-748.56,71.64s-667.57-49.74-667.57-70.4S1190.88,1326,1586.94,1326,2301.23,1339.71,2301.23,1360.37Z"/><path class="cls-8" d="M2043.25,2004.67c-314.45,35.17-620.89,33.8-920.09-.61a94.63,94.63,0,0,1-79.93-66.85l-168.77-564.8a8.64,8.64,0,0,1,10.63-10.8c226.09,63.27,1214.32,68.46,1409.17-.93a5.2,5.2,0,0,1,6.74,6.38L2131.68,1931A104.39,104.39,0,0,1,2043.25,2004.67Z"/><path class="cls-9" d="M1834.41,2736a1770.37,1770.37,0,0,1-503.39-.87,96.75,96.75,0,0,1-79-67.93l-170.22-569.68a7.83,7.83,0,0,1,8.75-10c318.5,50.94,699.71,48.35,987.83.74a10.26,10.26,0,0,1,11.47,13.09l-168,559.59A106.84,106.84,0,0,1,1834.41,2736Z"/><path class="cls-10" d="M2494.58,627.85c0,24.1-399.34,43.64-906.57,43.64S681.51,652,681.51,627.85s399.27-43.63,906.5-43.63S2494.58,603.75,2494.58,627.85Z"/><path class="cls-8" d="M1055.57,724a296.68,296.68,0,0,0,174.14,14c111-24.48,193.76-107.9,222.69-210.12L1165.52,447Z"/><path class="cls-5" d="M1452.4,527.9a299.11,299.11,0,0,0-14.72-202.49L1165.52,447Z"/><path class="cls-8" d="M1437.68,325.41a297.84,297.84,0,0,0-135.16-143.08L1165.52,447Z"/><path class="cls-11" d="M1140.12,452.59,962.05,213.53c-91.06,67.91-139,185.12-113,303.25,22.12,100.28,92.35,177.53,181.08,212.84Z"/><path class="cls-5" d="M1302.52,182.33a298.08,298.08,0,0,0-84.38-28.75C1200.52,265.52,1165.52,447,1165.52,447Z"/><path class="cls-5" d="M1218.14,153.58a298.83,298.83,0,0,0-230.69,54.35L1165.52,447S1200.52,265.52,1218.14,153.58Z"/><path class="cls-12" d="M1848.49,504.46s70.76,186.59,93.11,225.41c26,45.06,101.73,16.35,98-21.36s-92.31-193.58-92.31-193.58Z"/><polygon class="cls-13" points="1944.09 368.53 2383.85 216.06 2379.23 628.67 1932.08 528.89 1944.09 368.53"/><ellipse class="cls-5" cx="2384.27" cy="423.56" rx="43.21" ry="212.04"/><path class="cls-14" d="M2387.54,621.1c-3.9-4-12.41-19.29-19.7-58.91-7.05-38.28-10.93-87.94-10.93-139.83s3.88-101.54,10.93-139.83c7.29-39.61,15.8-54.93,19.7-58.91,3.91,4,12.42,19.3,19.71,58.91,7.05,38.29,10.93,88,10.93,139.83s-3.88,101.55-10.93,139.83C2400,601.81,2391.45,617.13,2387.54,621.1Z"/><g class="cls-15"><path class="cls-16" d="M2442.92,420.78c0,36-19.41,65.24-57.82,65.24s-69.56-29.21-69.56-65.24,31.14-65.23,69.56-65.23S2442.92,384.75,2442.92,420.78Z"/></g><path class="cls-17" d="M1873.17,359.66c20.68-2.4,50.35-3.27,82.42,4.08-10.56,55.2-9,112.73,3.25,172.31h-90.46a29.31,29.31,0,0,1-29-24.73c-4.51-28.55-10-76.55-4.15-115.1A43.39,43.39,0,0,1,1873.17,359.66Z"/><path class="cls-8" d="M1927.46,401.93H1857a6.43,6.43,0,0,1-5.4-9.92,1.82,1.82,0,0,1,2.51-.53,1.8,1.8,0,0,1,.53,2.5,2.81,2.81,0,0,0-.11,2.87,2.78,2.78,0,0,0,2.47,1.46h70.48a2.8,2.8,0,0,0,2.8-2.8v-5a2.8,2.8,0,0,0-2.8-2.8h-71a1.82,1.82,0,0,1,0-3.63h71a6.44,6.44,0,0,1,6.43,6.43v5A6.44,6.44,0,0,1,1927.46,401.93Z"/><path class="cls-8" d="M1921.17,433.15h-70.48a6.43,6.43,0,0,1-5.39-9.92,1.81,1.81,0,1,1,3,2,2.8,2.8,0,0,0,2.35,4.32h70.49a2.8,2.8,0,0,0,2.8-2.8v-5a2.81,2.81,0,0,0-2.8-2.81h-71a1.81,1.81,0,0,1,0-3.62h71a6.43,6.43,0,0,1,6.42,6.43v5A6.43,6.43,0,0,1,1921.17,433.15Z"/><path class="cls-8" d="M2008,357.36a1.81,1.81,0,0,1-.55-3.54l333.07-106a1.82,1.82,0,0,1,1.1,3.46l-333.07,106A1.76,1.76,0,0,1,2008,357.36Z"/><path class="cls-8" d="M1963,375.77a1.81,1.81,0,0,1-.68-3.49l17.14-7a1.81,1.81,0,0,1,1.37,3.35l-17.14,7A1.87,1.87,0,0,1,1963,375.77Z"/><path class="cls-8" d="M1927.46,469.71H1857a6.43,6.43,0,0,1-5.4-9.92,1.81,1.81,0,1,1,3,2,2.77,2.77,0,0,0-.1,2.86,2.73,2.73,0,0,0,2.46,1.46h70.48a2.8,2.8,0,0,0,2.8-2.8v-5a2.8,2.8,0,0,0-2.8-2.81h-71a1.81,1.81,0,1,1,0-3.62h71a6.44,6.44,0,0,1,6.43,6.43v5A6.44,6.44,0,0,1,1927.46,469.71Z"/><path class="cls-8" d="M1934.06,510.29h-70.48a6.43,6.43,0,0,1-5.4-9.92,1.81,1.81,0,1,1,3,2,2.77,2.77,0,0,0-.1,2.86,2.73,2.73,0,0,0,2.46,1.46h70.48a2.8,2.8,0,0,0,2.8-2.8v-5a2.8,2.8,0,0,0-2.8-2.8h-71a1.81,1.81,0,1,1,0-3.62h71a6.43,6.43,0,0,1,6.43,6.43v5A6.44,6.44,0,0,1,1934.06,510.29Z"/><path class="cls-8" d="M1997,730.91a46.31,46.31,0,0,1-9.81-1.06,45.33,45.33,0,0,1-32-25.93l-56.31-125.1a1.81,1.81,0,1,1,3.3-1.49l56.31,125.11A41.8,41.8,0,0,0,1988,726.31a40.92,40.92,0,0,0,36-9.21c.54-.46,1.07-.94,1.61-1.43a1.81,1.81,0,1,1,2.44,2.67c-.56.51-1.11,1-1.66,1.49A44.33,44.33,0,0,1,1997,730.91Z"/><path class="cls-8" d="M1892.21,561.39a1.81,1.81,0,0,1-1.65-1.07l-6.28-14a1.81,1.81,0,1,1,3.3-1.49l6.28,14a1.81,1.81,0,0,1-.91,2.4A1.76,1.76,0,0,1,1892.21,561.39Z"/><path class="cls-8" d="M2432.62,418.91a1.81,1.81,0,0,1-1.8-1.69c-1.25-17.65-7.37-30.81-18.19-39.12-18.7-14.36-45.39-9.42-45.65-9.37a1.81,1.81,0,1,1-.69-3.56c1.16-.22,28.57-5.28,48.55,10.06,11.67,9,18.27,23,19.6,41.73a1.82,1.82,0,0,1-1.68,1.94Z"/><path class="cls-5" d="M1701,551.56c.67-3.12-1.66-6.69-6.3-10.38,6.67-1.45,10.85-3.89,11.58-7.29,2.19-10.29-28-25.43-67.33-33.81s-73.06-6.83-75.25,3.46c-.67,3.12,1.66,6.69,6.3,10.38-6.67,1.45-10.85,3.89-11.58,7.29-.66,3.12,1.66,6.69,6.3,10.38-6.67,1.45-10.85,3.89-11.57,7.29-.67,3.12,1.66,6.69,6.3,10.38-6.68,1.44-10.86,3.88-11.58,7.28-1,4.56,4.4,10.05,14.08,15.5a90.74,90.74,0,0,0-3,10.94c-4,19,12.46,39.7,40,47.93s57.31-4.45,63.12-22.95a96.51,96.51,0,0,0,3.08-12.28c14.5-.46,24.13-3.44,25.27-8.78.66-3.13-1.66-6.69-6.3-10.38,6.67-1.45,10.85-3.89,11.58-7.29.66-3.12-1.67-6.69-6.31-10.38C1696.14,557.4,1700.32,555,1701,551.56Z"/><path class="cls-8" d="M1594,586a173.57,173.57,0,0,1-29.76-11.6,1,1,0,0,1-.41-1.3,1,1,0,0,1,1.3-.41c12.74,6.62,30.61,12.57,50.32,16.77,16.14,3.43,31.63,5.29,44.8,5.37a1,1,0,1,1,0,1.93c-13.3-.08-28.93-2-45.19-5.42C1607.71,589.74,1600.64,587.93,1594,586Z"/><path class="cls-8" d="M1599.45,568.32c-14.83-4.43-27.68-9.78-36.23-15.24a1,1,0,0,1,1-1.63c12.2,7.78,33.3,15.36,56.46,20.29,22.91,4.88,45.13,6.57,59.44,4.52a1,1,0,0,1,1.09.82,1,1,0,0,1-.82,1.09c-14.52,2.08-37,.38-60.11-4.54C1613.1,572.09,1606.07,570.3,1599.45,568.32Z"/><path class="cls-8" d="M1604.53,550.61c-16-4.78-29.54-10.61-38-16.54a1,1,0,0,1,1.1-1.58c11.84,8.25,33.67,16.32,58.41,21.58,22.9,4.88,45.12,6.57,59.43,4.53a1,1,0,0,1,1.09.81,1,1,0,0,1-.81,1.1c-14.53,2.07-37,.37-60.11-4.55C1618.26,554.4,1611.18,552.59,1604.53,550.61Z"/><path class="cls-8" d="M1609.93,533c-12.7-3.79-24-8.27-32.34-13a1,1,0,0,1,.94-1.69c12.61,7,31.83,13.63,52.73,18.08,22.71,4.83,44.8,6.54,59.11,4.56a1,1,0,0,1,.27,1.91c-14.52,2-36.87.29-59.78-4.59C1623.62,536.75,1616.58,535,1609.93,533Z"/><path class="cls-18" d="M1562.64,413.09a135.52,135.52,0,0,0-9.71-52.41c-14.27-35.68-34.09-105.49-14.78-186.93C1566.25,55.29,1687,27.83,1778.83,63.89s163.93,134,121.4,239.31c-26.17,64.8-78.59,104.22-115,125a160.92,160.92,0,0,0-56.63,54.56c-17.33,27.61-48.37,59.2-96.21,47.4C1570.44,514.86,1562.08,450.41,1562.64,413.09Z"/><path class="cls-19" d="M1654.87,511.56l97-204.65c2-4.23,5.07-6.55,6.86-5.19s1.6,5.89-.41,10.12l-.17.36-101,201.28c-.76,1.51-1.87,2.28-2.48,1.71S1654.17,513,1654.87,511.56Z"/><path class="cls-20" d="M1620.13,503,1651.2,278.7c.65-4.64-.65-8.27-2.88-8.11s-4.57,4.05-5.21,8.69c0,.12,0,.27,0,.4l-25.9,223.71c-.19,1.68.32,2.94,1.14,2.8S1619.9,504.65,1620.13,503Z"/><path class="cls-4" d="M1757.16,288.42a3.61,3.61,0,0,0-4-2.41l-20.92,3.09-1-20.06a4.11,4.11,0,0,0-1.57-2.92,4.74,4.74,0,0,0-6.16.06l0,.05-23.32,23-2.31-43.38v-.07a4.71,4.71,0,0,0-1.41-3,5.74,5.74,0,0,0-7.34-.7l-29.79,22.76a2.66,2.66,0,0,0-.36,3.89,3.7,3.7,0,0,0,4.64.85l24.78-15.18,5.6,42.28v0a3.07,3.07,0,0,0,1,1.89,3.66,3.66,0,0,0,4.72.17l23.89-21.09,2.16,14.92,0,.14c0,.1,0,.21.07.32a3.6,3.6,0,0,0,4,2.41l24.84-3.67A2.7,2.7,0,0,0,1757.16,288.42Z"/><path class="cls-4" d="M1793.65,402.45a6.09,6.09,0,0,1-3.17-2.22,6.17,6.17,0,0,1,1.24-8.63,253,253,0,0,0,22.09-18.53,6.16,6.16,0,1,1,8.46,9,263,263,0,0,1-23.16,19.45A6.17,6.17,0,0,1,1793.65,402.45Z"/><path class="cls-4" d="M1834.68,364a6.16,6.16,0,0,1-2.94-9.88c58.3-69.24,48.46-144.78,48.36-145.54a6.17,6.17,0,0,1,12.21-1.72c.46,3.31,10.67,81.79-51.14,155.2A6.17,6.17,0,0,1,1834.68,364Z"/><circle class="cls-8" cx="2014.09" cy="166.38" r="143.87"/><path class="cls-21" d="M2014.09,256.6a90.23,90.23,0,1,1,90.23-90.22A90.32,90.32,0,0,1,2014.09,256.6Zm0-165.33a75.11,75.11,0,1,0,75.11,75.11A75.19,75.19,0,0,0,2014.09,91.27Z"/><path class="cls-22" d="M1985.83,201.12V136.26a8.94,8.94,0,0,1,13.5-7.69L2054,161a8.94,8.94,0,0,1,0,15.38l-54.66,32.43A8.94,8.94,0,0,1,1985.83,201.12Z"/><circle class="cls-8" cx="646.54" cy="383.65" r="151.18"/><path class="cls-21" d="M646.54,489.27A25.23,25.23,0,0,1,624.78,477C598.6,433.76,567.4,376.81,567.4,351.05c0-40.27,35.5-73,79.14-73s79.13,32.75,79.13,73c0,25.76-31.2,82.71-57.37,126A25.23,25.23,0,0,1,646.54,489.27Zm0-201c-38,0-68.95,28.18-68.95,62.83,0,18,20.38,62,55.91,120.68a15.25,15.25,0,0,0,26.09,0c35.52-58.7,55.9-102.68,55.9-120.68C715.49,316.4,684.56,288.22,646.54,288.22Z"/><path class="cls-21" d="M640.41,402A49.13,49.13,0,0,1,591.33,353a5.1,5.1,0,1,1,10.19,0,38.89,38.89,0,1,0,7.7-23.23,5.1,5.1,0,1,1-8.17-6.09A49.08,49.08,0,1,1,640.41,402Z"/><path class="cls-23" d="M2208.8,1272.38c-416.33,27.12-841.05,25.27-1273.25-2.43a118.14,118.14,0,0,1-106-85.49L674.8,643a12.9,12.9,0,0,1,13.66-16.39c588.16,56.57,1188.06,55.08,1799-.1A13,13,0,0,1,2501.15,643l-148.48,513.64A160.66,160.66,0,0,1,2208.8,1272.38Z"/><circle class="cls-24" cx="2011.81" cy="2042.06" r="210.24"/><circle class="cls-25" cx="2011.81" cy="2042.06" r="203.25"/><path class="cls-4" d="M1844.21,1962.29a4.66,4.66,0,0,1-4.16-6.76,191.47,191.47,0,0,1,171.76-105.76,194.17,194.17,0,0,1,34.69,3.12,4.67,4.67,0,0,1-1.68,9.18,184.63,184.63,0,0,0-33-3,182.19,182.19,0,0,0-163.43,100.63A4.67,4.67,0,0,1,1844.21,1962.29Z"/><circle class="cls-26" cx="2016.21" cy="2046.49" r="172.02" transform="translate(-856.55 2025.07) rotate(-45)"/><path class="cls-27" d="M1999.36,2174.37v-18.71c-19.51-.78-38.81-5.39-52.52-11.39a10.82,10.82,0,0,1-6-12.79l4.76-17.43a10.91,10.91,0,0,1,14.81-7.14c13.59,5.7,30.38,10.21,48.48,10.21,18.8,0,32.81-6.37,32.81-19.43,0-11.79-10.83-18.79-37-25.8-37.26-10.19-64-26.44-64-59.24,0-29.63,21.66-52.24,59.25-58.29v-18.72a10.9,10.9,0,0,1,10.9-10.9h11a10.9,10.9,0,0,1,10.9,10.9v16.81c18,.72,31.2,3.81,41.63,7.47a10.86,10.86,0,0,1,6.78,13.1l-4.38,16.13a10.87,10.87,0,0,1-14.35,7.34,113.58,113.58,0,0,0-40.83-7.41c-22.29,0-28.66,9.23-28.66,17.51,0,10.2,13.38,17.2,42.36,26.12,41.41,12.42,58.61,29.62,58.61,60.52,0,28.34-21,53.83-61.79,60.2v20.94a10.92,10.92,0,0,1-10.91,10.91h-11A10.9,10.9,0,0,1,1999.36,2174.37Z"/><path class="cls-28" d="M2214.16,2385.28H1809.47a3.64,3.64,0,0,1-3.64-3.63v-71.2a3.64,3.64,0,0,1,3.64-3.64h404.69a3.64,3.64,0,0,1,3.63,3.64v71.2A3.64,3.64,0,0,1,2214.16,2385.28Z"/><path class="cls-29" d="M2214.48,2478.46H1809.79a3.63,3.63,0,0,1-3.63-3.63v-71.2a3.63,3.63,0,0,1,3.63-3.64h404.69a3.63,3.63,0,0,1,3.63,3.64v71.2A3.63,3.63,0,0,1,2214.48,2478.46Z"/><path class="cls-30" d="M2214.8,2571.64H1810.11a3.64,3.64,0,0,1-3.63-3.63v-71.2a3.64,3.64,0,0,1,3.63-3.64H2214.8a3.64,3.64,0,0,1,3.64,3.64V2568A3.64,3.64,0,0,1,2214.8,2571.64Z"/><path class="cls-31" d="M2215.13,2664.82H1810.44a3.64,3.64,0,0,1-3.64-3.63V2590a3.64,3.64,0,0,1,3.64-3.64h404.69a3.64,3.64,0,0,1,3.63,3.64v71.2A3.64,3.64,0,0,1,2215.13,2664.82Z"/><path class="cls-32" d="M2215.45,2758H1810.76a3.63,3.63,0,0,1-3.63-3.63v-71.2a3.63,3.63,0,0,1,3.63-3.64h404.69a3.63,3.63,0,0,1,3.63,3.64v71.2A3.63,3.63,0,0,1,2215.45,2758Z"/><circle class="cls-33" cx="2472.09" cy="2136.04" r="210.24"/><circle class="cls-34" cx="2472.09" cy="2136.04" r="203.25"/><path class="cls-4" d="M2304.49,2056.27a4.66,4.66,0,0,1-4.16-6.76,191.47,191.47,0,0,1,171.76-105.75,194.73,194.73,0,0,1,34.68,3.11,4.67,4.67,0,0,1-1.67,9.18,184.47,184.47,0,0,0-33-3,182.22,182.22,0,0,0-163.44,100.63A4.65,4.65,0,0,1,2304.49,2056.27Z"/><circle class="cls-26" cx="2476.48" cy="2140.47" r="172.02" transform="translate(-788.2 2378.06) rotate(-45)"/><path class="cls-35" d="M2459.64,2268.36v-18.72c-19.51-.78-38.81-5.39-52.52-11.39a10.82,10.82,0,0,1-6-12.79l4.75-17.43a10.92,10.92,0,0,1,14.82-7.14c13.59,5.7,30.38,10.21,48.48,10.21,18.79,0,32.81-6.37,32.81-19.43,0-11.78-10.83-18.79-36.95-25.8-37.26-10.19-64-26.44-64-59.24,0-29.62,21.66-52.24,59.24-58.29v-18.72a10.9,10.9,0,0,1,10.91-10.9h11a10.9,10.9,0,0,1,10.91,10.9v16.81c18.05.72,31.19,3.81,41.62,7.47a10.84,10.84,0,0,1,6.78,13.1l-4.37,16.13a10.87,10.87,0,0,1-14.35,7.34,113.63,113.63,0,0,0-40.83-7.41c-22.29,0-28.66,9.23-28.66,17.52,0,10.19,13.37,17.19,42.36,26.11,41.4,12.42,58.6,29.62,58.6,60.52,0,28.35-21,53.83-61.79,60.2v20.94a10.9,10.9,0,0,1-10.9,10.91h-11A10.9,10.9,0,0,1,2459.64,2268.36Z"/><path class="cls-36" d="M2674.43,2479.26H2269.74a3.64,3.64,0,0,1-3.63-3.63v-71.2a3.64,3.64,0,0,1,3.63-3.64h404.69a3.64,3.64,0,0,1,3.64,3.64v71.2A3.64,3.64,0,0,1,2674.43,2479.26Z"/><path class="cls-37" d="M2674.76,2572.44H2270.07a3.64,3.64,0,0,1-3.64-3.63v-71.2a3.64,3.64,0,0,1,3.64-3.64h404.69a3.64,3.64,0,0,1,3.63,3.64v71.2A3.64,3.64,0,0,1,2674.76,2572.44Z"/><path class="cls-38" d="M2675.08,2665.62H2270.39a3.64,3.64,0,0,1-3.63-3.63v-71.2a3.64,3.64,0,0,1,3.63-3.64h404.69a3.63,3.63,0,0,1,3.63,3.64V2662A3.62,3.62,0,0,1,2675.08,2665.62Z"/><path class="cls-39" d="M2675.4,2758.8H2270.71a3.63,3.63,0,0,1-3.63-3.63V2684a3.64,3.64,0,0,1,3.63-3.64H2675.4A3.64,3.64,0,0,1,2679,2684v71.2A3.63,3.63,0,0,1,2675.4,2758.8Z"/><path class="cls-40" d="M391.4,2715.61c-24.33,2.11-66.54,5.52-99.82,7-20,.88-31.52-1.08-38.16-3.74,0,.75,0,1.46.06,2.11a6.89,6.89,0,0,0,6.54,6.5,1167.55,1167.55,0,0,0,130.71.13,4.9,4.9,0,0,0,4-7.36A40.9,40.9,0,0,0,391.4,2715.61Z"/><path class="cls-41" d="M291.58,2722.6c33.28-1.47,75.49-4.88,99.82-7-23.92-29.34-99.82-49.11-99.82-49.11H270.14c-14.75,21.25-16.88,41.49-16.72,52.36C260.06,2721.52,271.57,2723.48,291.58,2722.6Z"/><path class="cls-42" d="M266.53,2631.5l2,39.7a9.06,9.06,0,0,0,7.74,8.53,35.23,35.23,0,0,0,16.1-1.34,10.72,10.72,0,0,0,7.21-8.24l6.93-38.65Z"/><path class="cls-43" d="M17.72,2761.41c-10.55-1.9-15.32-9-17.32-16.55a1.18,1.18,0,0,0,0,.2,18.86,18.86,0,0,0,9.23,20.2c8.7,4.76,18.2,5.57,25.58,5.17A23.63,23.63,0,0,0,54.35,2759l.06-.1C46.46,2764,35.31,2764.58,17.72,2761.41Z"/><path class="cls-44" d="M67.45,2643.73H49.77C22.84,2643,5.93,2716.43.4,2744.86c2,7.57,6.77,14.65,17.32,16.55,17.59,3.17,28.74,2.57,36.69-2.51,14.55-24.74,21.76-61,25.23-82.13C83.58,2652.72,67.45,2643.73,67.45,2643.73Z"/><path class="cls-45" d="M52,2606.88l-9.81,39a10.59,10.59,0,0,0,5.51,12c5.49,2.82,13.23,5.78,20.33,4.92a8.84,8.84,0,0,0,7.22-5.9l14.42-41.08Z"/><path class="cls-46" d="M397.38,2092.63S309.65,2641,311.1,2644c0,0-24.23,11-50.65,1.41,0,0,7.94-293.15,26.53-405.56,0,0-149.73,262-197.27,392.58,0,0-24.8-2.95-45.33-16.46,0,0,161.21-471.63,204.22-534.44Z"/><path class="cls-47" d="M290.48,2237a2.54,2.54,0,0,1-1.37-.4,2.58,2.58,0,0,1-.82-3.57l32.78-52.36a2.62,2.62,0,0,1,1.68-1.17l24.13-4.85a2.59,2.59,0,0,1,1,5.08l-23,4.63-32.19,51.42A2.59,2.59,0,0,1,290.48,2237Z"/><path class="cls-48" d="M800,1555.64s-59.2,13.06-95.2,29.69a32.88,32.88,0,0,0-16.11,16.19c-10.77,23.59-43,82.74-105.47,111,9,11.94,23.49,36.78,29.8,78.54,37.53-27.93,69.93-74.58,85.48-151.08,0,0,11.85,6.44,26.62-.74,7.81-3.79,16.82-9.17,23.59-13.4a30.89,30.89,0,0,0,13.71-18.41c2.58-10.1,1.06-19,1.06-28.52l30.43-9.43S803,1566,800,1555.64Z"/><path class="cls-49" d="M613,1791c-6.31-41.76-20.8-66.6-29.8-78.54-38.81,17.53-89.3,23.14-153.6.86a68.11,68.11,0,0,0-18.37-3.62c-34.23-2-147-5.67-240.35,25.16a72.48,72.48,0,0,0-43.75,39.83c-25.25,57.94-66.13,189.88,47.35,256.5a281,281,0,0,1,27.38-51.83c-18.27-30.82-23.68-72.92,8.74-127.74,23.65,63.85,34.74,157,37.06,198.24a88.72,88.72,0,0,1-6.94,39.65l-.58,1.37a4.69,4.69,0,0,0,3.29,6.41c63.88,14.35,130.32,10.45,150.17,8.81a8.19,8.19,0,0,0,7.3-6.26C432,1969,432,1879.7,424.42,1823.26,453.48,1829.76,542.34,1843.61,613,1791Z"/><path class="cls-50" d="M424.55,1826.78a2.6,2.6,0,0,1-2.57-2.25c-7.29-55.11-22.15-79.16-22.3-79.4a2.59,2.59,0,0,1,4.38-2.77c.63,1,15.59,25.08,23.06,81.49a2.59,2.59,0,0,1-2.23,2.91Z"/><path class="cls-51" d="M266.9,1633.48s-6.46,68.33-12.15,88.54a6.91,6.91,0,0,0,3.25,7.89c9.66,5.52,32.82,14.52,64.5-1a14.35,14.35,0,0,0,8-13.53l-2.79-66Z"/><path class="cls-52" d="M329.09,1546.06s20.67,47.49,22.05,72.41,6.76,41.09-22.05,46.11-53.1-9.34-66.25-34.16c0,0-20.6-38.26-16-53.92S329.09,1546.06,329.09,1546.06Z"/><path class="cls-53" d="M272.69,1612.57l1.64-.72a4,4,0,0,0,1.93-5.44c-4.06-7.85-12-25.84-1.75-30,13.19-5.41,65.43-16.06,76.7-34.6,10.84-17.81,1.24-40.81-13.19-47.35a2,2,0,0,0-2.6.85l-1.2,2.27a2,2,0,0,1-3.61-.37,2,2,0,0,0-3.53-.5c-3.46,5.54-12.81,14.53-37.83,19.15-35.55,6.56-59.05,21-59.64,45.51a2,2,0,0,1-3,1.62c-2.62-1.6-6.82-2.35-12.44,2.37-9.76,8.21-5.76,29.5,15.64,47a2,2,0,0,1-.09,3.14C225.81,1618,220,1624,235,1632c15.5,8.29,27.08,7.61,31.53,6.87a2,2,0,0,0,1.59-2.35L263.37,1615a2,2,0,0,1,1.91-2.38Z"/><path class="cls-54" d="M273.59,1617.12s-7.89-30.33-21.49-21.82,7.06,34,18,35.12Z"/><path class="cls-55" d="M714.26,1632.89a2.59,2.59,0,0,1-2-4.22c2.24-2.76,22.11-27.05,29.76-31.37,2.79-1.57,4.45-3.2,4.8-4.7a3.85,3.85,0,0,0-.35-2.44l-23.34,4.68-13.23,11.35a2.59,2.59,0,1,1-3.37-3.93l13.74-11.79a2.58,2.58,0,0,1,1.17-.58l25.85-5.18a2.58,2.58,0,0,1,2.65,1.1c1.9,2.81,2.53,5.42,1.92,8-.71,3-3.1,5.65-7.29,8-5.76,3.25-22.37,22.85-28.29,30.13A2.58,2.58,0,0,1,714.26,1632.89Z"/><path class="cls-56" d="M272.58,2064.06l91.37,1.13-32-30.1a23.86,23.86,0,0,0-29.25-2.74,69.16,69.16,0,0,0-16.25,14.47s-57-20.83-84.62-67.43a281.58,281.58,0,0,0-27.38,51.83C199.23,2045.76,231.34,2057.19,272.58,2064.06Z"/><path class="cls-57" d="M282.43,2075.84H283l231.92-.25a10.27,10.27,0,1,0,0-20.54l-231.91.25a10.27,10.27,0,0,0-.51,20.53Z"/><path class="cls-58" d="M723.36,1867.5H530.22a36.85,36.85,0,0,0-33.3,20.88l-89.29,187.34h240a22.38,22.38,0,0,0,20.81-14l69.24-173.35A15.28,15.28,0,0,0,723.36,1867.5Z"/><ellipse class="cls-5" cx="601.64" cy="1968.13" rx="24.5" ry="15.2" transform="translate(-1455.91 1923.48) rotate(-71.76)"/></g></g></g></svg>