<svg xmlns="http://www.w3.org/2000/svg" xmlns:xlink="http://www.w3.org/1999/xlink" viewBox="0 0 2794.23 2800"><defs><style>.cls-1,.cls-22,.cls-8{fill:#fff;}.cls-1{opacity:0.57;}.cls-2{fill:url(#linear-gradient);}.cls-3{fill:url(#linear-gradient-2);}.cls-4{fill:url(#linear-gradient-3);}.cls-5{fill:#91b3fa;}.cls-6{fill:url(#linear-gradient-4);}.cls-7{opacity:0.53;}.cls-9{fill:url(#linear-gradient-5);}.cls-10{fill:url(#linear-gradient-6);}.cls-11{fill:url(#linear-gradient-7);}.cls-12{fill:url(#linear-gradient-8);}.cls-13{fill:url(#linear-gradient-9);}.cls-14{fill:url(#linear-gradient-10);}.cls-15{fill:url(#linear-gradient-11);}.cls-16{clip-path:url(#clip-path);}.cls-17{fill:url(#linear-gradient-12);}.cls-18{clip-path:url(#clip-path-2);}.cls-19{fill:url(#linear-gradient-13);}.cls-20{clip-path:url(#clip-path-3);}.cls-21{fill:url(#linear-gradient-14);}.cls-22{opacity:0.44;}.cls-23{fill:url(#linear-gradient-15);}.cls-24{fill:url(#linear-gradient-16);}.cls-25{fill:url(#linear-gradient-17);}.cls-26{fill:url(#linear-gradient-18);}.cls-27{fill:url(#linear-gradient-19);}.cls-28{fill:url(#linear-gradient-20);}.cls-29{opacity:0.48;}.cls-30{fill:#bdd0fb;}.cls-31{fill:url(#linear-gradient-21);}.cls-32{fill:url(#linear-gradient-22);}.cls-33{fill:url(#linear-gradient-23);}.cls-34{fill:url(#linear-gradient-24);}.cls-35{fill:url(#linear-gradient-25);}.cls-36{fill:url(#linear-gradient-26);}.cls-37{fill:url(#linear-gradient-27);}.cls-38{fill:url(#linear-gradient-28);}.cls-39{fill:url(#linear-gradient-29);}.cls-40{fill:url(#linear-gradient-30);}.cls-41{fill:url(#linear-gradient-31);}.cls-42{fill:url(#linear-gradient-32);}.cls-43{fill:url(#linear-gradient-33);}.cls-44{fill:url(#linear-gradient-34);}.cls-45{fill:url(#linear-gradient-35);}.cls-46{fill:url(#linear-gradient-36);}.cls-47{fill:url(#linear-gradient-37);}.cls-48{fill:url(#linear-gradient-38);}.cls-49{fill:url(#linear-gradient-39);}.cls-50{fill:url(#linear-gradient-40);}.cls-51{fill:url(#linear-gradient-41);}.cls-52{fill:url(#linear-gradient-42);}.cls-53{fill:url(#linear-gradient-43);}.cls-54{fill:url(#linear-gradient-44);}.cls-55{fill:url(#linear-gradient-45);}.cls-56{fill:url(#linear-gradient-46);}.cls-57{fill:url(#linear-gradient-47);}.cls-58{fill:url(#linear-gradient-48);}.cls-59{fill:url(#linear-gradient-49);}.cls-60{fill:url(#linear-gradient-50);}.cls-61{fill:url(#linear-gradient-51);}.cls-62{fill:url(#linear-gradient-52);}.cls-63{fill:url(#linear-gradient-53);}.cls-64{fill:url(#linear-gradient-54);}.cls-65{fill:url(#linear-gradient-55);}.cls-66{fill:url(#linear-gradient-56);}</style><linearGradient id="linear-gradient" x1="3105.79" y1="3567.48" x2="654.8" y2="523.51" gradientUnits="userSpaceOnUse"><stop offset="0" stop-color="#dae3fe"/><stop offset="1" stop-color="#e9effd"/></linearGradient><linearGradient id="linear-gradient-2" x1="1463.04" y1="2745.96" x2="1488.46" y2="1525.77" gradientUnits="userSpaceOnUse"><stop offset="0" stop-color="#09005d"/><stop offset="1" stop-color="#1a0f91"/></linearGradient><linearGradient id="linear-gradient-3" x1="1399.79" y1="151.31" x2="1394.71" y2="2291.74" xlink:href="#linear-gradient-2"/><linearGradient id="linear-gradient-4" x1="1495.65" y1="3316.31" x2="1444.8" y2="2563.85" xlink:href="#linear-gradient-2"/><linearGradient id="linear-gradient-5" x1="1560.9" y1="1307.6" x2="1564" y2="1627.04" gradientUnits="userSpaceOnUse"><stop offset="0" stop-color="#ff928e"/><stop offset="1" stop-color="#fe7062"/></linearGradient><linearGradient id="linear-gradient-6" x1="1715.81" y1="1306.62" x2="1718.91" y2="1626.32" xlink:href="#linear-gradient-5"/><linearGradient id="linear-gradient-7" x1="1872.18" y1="1305.91" x2="1875.28" y2="1625.19" xlink:href="#linear-gradient-5"/><linearGradient id="linear-gradient-8" x1="2026.1" y1="1304.62" x2="2029.21" y2="1624.91" xlink:href="#linear-gradient-5"/><linearGradient id="linear-gradient-9" x1="2182.59" y1="1304.14" x2="2185.69" y2="1623.48" xlink:href="#linear-gradient-5"/><linearGradient id="linear-gradient-10" x1="2337.64" y1="1303.24" x2="2340.74" y2="1622.65" xlink:href="#linear-gradient-5"/><linearGradient id="linear-gradient-11" x1="2492.67" y1="1302.31" x2="2495.77" y2="1621.85" xlink:href="#linear-gradient-5"/><clipPath id="clip-path"><path class="cls-1" d="M443.18,1538.36a172.06,172.06,0,1,0,172.06,172.06A172.06,172.06,0,0,0,443.18,1538.36Zm0,270.08a98,98,0,1,1,98-98A98,98,0,0,1,443.18,1808.44Z"/></clipPath><linearGradient id="linear-gradient-12" x1="466.7" y1="1535.32" x2="442.45" y2="2256.82" xlink:href="#linear-gradient-5"/><clipPath id="clip-path-2"><path class="cls-1" d="M862.61,1538.36a172.06,172.06,0,1,0,172.05,172.06A172.06,172.06,0,0,0,862.61,1538.36Zm0,270.08a98,98,0,1,1,98-98A98,98,0,0,1,862.61,1808.44Z"/></clipPath><linearGradient id="linear-gradient-13" x1="884.25" y1="1549.35" x2="860" y2="2270.86" xlink:href="#linear-gradient-5"/><clipPath id="clip-path-3"><path class="cls-1" d="M1282,1538.36a172.06,172.06,0,1,0,172.06,172.06A172.06,172.06,0,0,0,1282,1538.36Zm0,270.08a98,98,0,1,1,98-98A98,98,0,0,1,1282,1808.44Z"/></clipPath><linearGradient id="linear-gradient-14" x1="1306.42" y1="1563.55" x2="1282.17" y2="2285.05" xlink:href="#linear-gradient-5"/><linearGradient id="linear-gradient-15" x1="1758.25" y1="1631.22" x2="1641.49" y2="1984.23" xlink:href="#linear-gradient-5"/><linearGradient id="linear-gradient-16" x1="1840.51" y1="1772.62" x2="1763.59" y2="2005.17" xlink:href="#linear-gradient-5"/><linearGradient id="linear-gradient-17" x1="1964.09" y1="1645.73" x2="1887.17" y2="1878.28" gradientUnits="userSpaceOnUse"><stop offset="0" stop-color="#fdf53f"/><stop offset="1" stop-color="#d93c65"/></linearGradient><linearGradient id="linear-gradient-18" x1="2088.81" y1="1776.68" x2="2011.89" y2="2009.23" gradientTransform="translate(3540.84 -515.69) rotate(80.78)" xlink:href="#linear-gradient-5"/><linearGradient id="linear-gradient-19" x1="2270.4" y1="1581.58" x2="2193.48" y2="1814.13" xlink:href="#linear-gradient-17"/><linearGradient id="linear-gradient-20" x1="2399.49" y1="1711.76" x2="2322.57" y2="1944.3" gradientUnits="userSpaceOnUse"><stop offset="0" stop-color="#53d8ff"/><stop offset="1" stop-color="#3840f7"/></linearGradient><linearGradient id="linear-gradient-21" x1="1121.21" y1="2495.17" x2="1263" y2="2495.17" xlink:href="#linear-gradient"/><linearGradient id="linear-gradient-22" x1="1614.87" y1="207.65" x2="462.35" y2="1737.82" gradientUnits="userSpaceOnUse"><stop offset="0" stop-color="#4f52ff"/><stop offset="1" stop-color="#4042e2"/></linearGradient><linearGradient id="linear-gradient-23" x1="1614.87" y1="207.65" x2="462.35" y2="1737.81" gradientTransform="translate(907.85 -592.34) rotate(45)" xlink:href="#linear-gradient-22"/><linearGradient id="linear-gradient-24" x1="1614.87" y1="207.65" x2="462.35" y2="1737.81" gradientTransform="translate(1678.68 -521.71) rotate(76.72)" xlink:href="#linear-gradient-22"/><linearGradient id="linear-gradient-25" x1="120.67" y1="4519.83" x2="-62.21" y2="5262.77" gradientTransform="translate(1713.72 -4763.99)" xlink:href="#linear-gradient-2"/><linearGradient id="linear-gradient-26" x1="1203.66" y1="-333.04" x2="1244.33" y2="307.56" xlink:href="#linear-gradient-5"/><linearGradient id="linear-gradient-27" x1="-6933.56" y1="1346.72" x2="-6845.68" y2="1567.17" gradientTransform="matrix(-1, 0, 0, 1, -6358.57, 0)" xlink:href="#linear-gradient-2"/><linearGradient id="linear-gradient-28" x1="-6612.3" y1="2758.05" x2="-6537.78" y2="2758.05" gradientTransform="matrix(-1, 0, 0, 1, -6358.57, 0)" xlink:href="#linear-gradient-2"/><linearGradient id="linear-gradient-29" x1="-6927.19" y1="3051.91" x2="-6819.95" y2="1798.56" gradientTransform="matrix(-1, 0, 0, 1, -6358.57, 0)" gradientUnits="userSpaceOnUse"><stop offset="0" stop-color="#a22b25"/><stop offset="1" stop-color="#c0423c"/></linearGradient><linearGradient id="linear-gradient-30" x1="-6958.51" y1="2744.44" x2="-6837.94" y2="2744.44" gradientTransform="matrix(-1, 0, 0, 1, -6358.57, 0)" xlink:href="#linear-gradient-2"/><linearGradient id="linear-gradient-31" x1="-6711.47" y1="3070.56" x2="-6604.2" y2="1816.88" xlink:href="#linear-gradient-29"/><linearGradient id="linear-gradient-32" x1="1051.36" y1="1441.28" x2="395.5" y2="1959.87" xlink:href="#linear-gradient-22"/><linearGradient id="linear-gradient-33" x1="420.96" y1="2039.79" x2="624.33" y2="2405.85" xlink:href="#linear-gradient-22"/><linearGradient id="linear-gradient-34" x1="590.08" y1="1544.99" x2="508.72" y2="1765.31" gradientTransform="matrix(1, 0, 0, 1, 0, 0)" xlink:href="#linear-gradient-29"/><linearGradient id="linear-gradient-35" x1="464.3" y1="1683.91" x2="413.46" y2="2070.3" gradientTransform="matrix(1, 0, 0, 1, 0, 0)" xlink:href="#linear-gradient-29"/><linearGradient id="linear-gradient-36" x1="4881.69" y1="19271.83" x2="4741.02" y2="19048.12" gradientTransform="matrix(-0.98, -0.19, -0.19, 0.98, -6209.14, -196.9)" xlink:href="#linear-gradient-29"/><linearGradient id="linear-gradient-37" x1="-7014.52" y1="202.29" x2="-6926.63" y2="422.75" gradientTransform="matrix(-0.98, -0.19, -0.19, 0.98, -6209.14, -196.9)" xlink:href="#linear-gradient-2"/><linearGradient id="linear-gradient-38" x1="4913.6" y1="19251.76" x2="4772.93" y2="19028.04" gradientTransform="matrix(-0.98, -0.19, -0.19, 0.98, -6209.14, -196.9)" xlink:href="#linear-gradient-29"/><linearGradient id="linear-gradient-39" x1="-6348.86" y1="1779.51" x2="-6443.33" y2="1921.22" gradientTransform="matrix(-1, 0, 0, 1, -4158.36, 0)" gradientUnits="userSpaceOnUse"><stop offset="0" stop-color="#febbba"/><stop offset="1" stop-color="#ff928e"/></linearGradient><linearGradient id="linear-gradient-40" x1="-6502.63" y1="2759.49" x2="-6340.45" y2="2759.49" gradientTransform="matrix(-1, 0, 0, 1, -4158.36, 0)" xlink:href="#linear-gradient-22"/><linearGradient id="linear-gradient-41" x1="-6340.99" y1="2488.15" x2="-6377.91" y2="2602.81" gradientTransform="matrix(-1, 0, 0, 1, -4158.36, 0)" xlink:href="#linear-gradient-2"/><linearGradient id="linear-gradient-42" x1="-6487.66" y1="2683.32" x2="-6441.98" y2="2683.32" xlink:href="#linear-gradient-39"/><linearGradient id="linear-gradient-43" x1="-6792.12" y1="2786.79" x2="-6729.96" y2="2786.79" gradientTransform="matrix(-1, 0, 0, 1, -4158.36, 0)" xlink:href="#linear-gradient-22"/><linearGradient id="linear-gradient-44" x1="-6634.7" y1="2393.57" x2="-6671.63" y2="2508.23" gradientTransform="matrix(-1, 0, 0, 1, -4158.36, 0)" xlink:href="#linear-gradient-2"/><linearGradient id="linear-gradient-45" x1="-6744.24" y1="2659.5" x2="-6689.65" y2="2659.5" xlink:href="#linear-gradient-39"/><linearGradient id="linear-gradient-46" x1="-6302.63" y1="2070.32" x2="-6768.77" y2="2833.9" gradientTransform="matrix(-1, 0, 0, 1, -4158.36, 0)" xlink:href="#linear-gradient-22"/><linearGradient id="linear-gradient-47" x1="2488.31" y1="1164.76" x2="2290.03" y2="2074.82" xlink:href="#linear-gradient-22"/><linearGradient id="linear-gradient-48" x1="-5993.28" y1="1509.46" x2="-6209.52" y2="1790.78" xlink:href="#linear-gradient-39"/><linearGradient id="linear-gradient-49" x1="2723.43" y1="1132.09" x2="2526.83" y2="1382.92" xlink:href="#linear-gradient-2"/><linearGradient id="linear-gradient-50" x1="2779.1" y1="1154.56" x2="2349.75" y2="1525.15" xlink:href="#linear-gradient-22"/><linearGradient id="linear-gradient-51" x1="-6475.27" y1="1691.28" x2="-6451.61" y2="1567.08" xlink:href="#linear-gradient-39"/><linearGradient id="linear-gradient-52" x1="-6411.25" y1="1463.41" x2="-6546.23" y2="1566.69" xlink:href="#linear-gradient-39"/><linearGradient id="linear-gradient-53" x1="-6506.27" y1="1381.64" x2="-6380.56" y2="1543.49" gradientTransform="matrix(-1, 0, 0, 1, -4158.36, 0)" xlink:href="#linear-gradient-2"/><linearGradient id="linear-gradient-54" x1="-6428" y1="1441.53" x2="-6562.97" y2="1544.81" xlink:href="#linear-gradient-39"/><linearGradient id="linear-gradient-55" x1="1817.55" y1="1151.38" x2="1806.25" y2="1375.09" gradientTransform="matrix(1, 0, 0, 1, 0, 0)" xlink:href="#linear-gradient-39"/><linearGradient id="linear-gradient-56" x1="-6461.44" y1="1938.15" x2="-6523.72" y2="2031.56" xlink:href="#linear-gradient-39"/></defs><title>Asset 1</title><g id="Layer_2" data-name="Layer 2"><g id="Illustration"><path class="cls-2" d="M2431.5,2367.05c-56.29,59.27-109.56,97.49-151.65,127.69-494.72,355-1080.11,251.49-1204.52,226.23-183.71-37.32-538.83-109.44-795.58-411.37C-108.68,1852.81-48.2,1133.15,253.1,658.09,308.21,571.2,599.33,88.9,1191,11.56c358.08-46.81,775.49,47.6,1077.77,300.85C2903.3,844,2858.13,1917.91,2431.5,2367.05Z"/><polygon class="cls-3" points="1175.89 2208.54 1115.55 2624.91 1815.56 2624.91 1724.38 2208.54 1175.89 2208.54"/><path class="cls-4" d="M0,875.32V2114.64a188,188,0,0,0,183.16,188c452.66,11.67,2035.84,40,2466.74,33.62a138.33,138.33,0,0,0,136.19-134.39c8.31-287.91,21.8-980.24-28.14-1301.66a142.34,142.34,0,0,0-136.11-120.49c-379.27-12.14-2057.55-50.66-2488.25-41A136.65,136.65,0,0,0,0,875.32Z"/><path class="cls-5" d="M77.76,869.29V2046.73a108.93,108.93,0,0,0,107.3,108.91l2402.84,29.69a106,106,0,0,0,107.6-105.61l4-1166.91a77.53,77.53,0,0,0-75.64-77.8L163.81,785.31A84,84,0,0,0,77.76,869.29Z"/><path class="cls-5" d="M2713.59,2233.94h-.06L77.7,2189a3.68,3.68,0,0,1-3.62-3.74,3.72,3.72,0,0,1,3.75-3.63l2635.82,44.92a3.69,3.69,0,0,1-.06,7.37Z"/><path class="cls-5" d="M1421.68,2288.79a31.11,31.11,0,1,1,31.11-31.11A31.14,31.14,0,0,1,1421.68,2288.79Zm0-54.85a23.74,23.74,0,1,0,23.74,23.74A23.77,23.77,0,0,0,1421.68,2233.94Z"/><path class="cls-6" d="M1966.34,2735.63H941.83c-27.83,0-48.73-19.82-43.35-41.1l13.15-52c4-15.63,21.15-27.11,41.58-27.75L1940.88,2584c21.34-.67,40.24,10.66,44.89,26.91l23.7,82.81C2015.63,2715.21,1994.62,2735.63,1966.34,2735.63Z"/><path class="cls-5" d="M1493.34,2629.22a3.69,3.69,0,0,1,0-7.37l42.33-.62a3.72,3.72,0,0,1,3.73,3.63,3.68,3.68,0,0,1-3.63,3.74l-42.32.62Z"/><path class="cls-5" d="M936.41,2707.31a2.84,2.84,0,0,1-.58,0,3.68,3.68,0,0,1-3.06-4.21l6-37.82a42.53,42.53,0,0,1,41.44-35.88l448.9-6.56a3.64,3.64,0,0,1,3.73,3.63,3.69,3.69,0,0,1-3.63,3.74l-448.89,6.56a35.17,35.17,0,0,0-34.28,29.67l-6,37.82A3.69,3.69,0,0,1,936.41,2707.31Z"/><g class="cls-7"><rect class="cls-8" x="1514.51" y="961.73" width="92.97" height="480.57"/><rect class="cls-8" x="1669.84" y="961.73" width="92.97" height="480.57"/><rect class="cls-8" x="1825.18" y="961.73" width="92.97" height="480.57"/><rect class="cls-8" x="1980.52" y="961.73" width="92.97" height="480.57"/><rect class="cls-8" x="2135.85" y="961.73" width="92.97" height="480.57"/><rect class="cls-8" x="2291.19" y="961.73" width="92.97" height="480.57"/><rect class="cls-8" x="2446.52" y="961.73" width="92.97" height="480.57"/></g><rect class="cls-9" x="1514.51" y="1190.8" width="92.97" height="251.5"/><rect class="cls-10" x="1669.84" y="1277.23" width="92.97" height="165.06"/><rect class="cls-11" x="1825.18" y="1063.61" width="92.97" height="378.68"/><rect class="cls-12" x="1980.52" y="1351.32" width="92.97" height="90.97"/><rect class="cls-13" x="2135.85" y="1114.24" width="92.97" height="328.06"/><rect class="cls-14" x="2291.19" y="1171.04" width="92.97" height="271.26"/><rect class="cls-15" x="2446.52" y="1232.78" width="92.97" height="209.52"/><path class="cls-1" d="M443.18,1538.36a172.06,172.06,0,1,0,172.06,172.06A172.06,172.06,0,0,0,443.18,1538.36Zm0,270.08a98,98,0,1,1,98-98A98,98,0,0,1,443.18,1808.44Z"/><g class="cls-16"><rect class="cls-17" x="202.91" y="1672.58" width="511.09" height="216.29"/></g><path class="cls-1" d="M862.61,1538.36a172.06,172.06,0,1,0,172.05,172.06A172.06,172.06,0,0,0,862.61,1538.36Zm0,270.08a98,98,0,1,1,98-98A98,98,0,0,1,862.61,1808.44Z"/><g class="cls-18"><rect class="cls-19" x="622.33" y="1588.98" width="511.09" height="299.89"/></g><path class="cls-1" d="M1282,1538.36a172.06,172.06,0,1,0,172.06,172.06A172.06,172.06,0,0,0,1282,1538.36Zm0,270.08a98,98,0,1,1,98-98A98,98,0,0,1,1282,1808.44Z"/><g class="cls-20"><rect class="cls-21" x="1041.76" y="1780.72" width="511.09" height="108.15"/></g><path class="cls-22" d="M2534.47,2117.51l-984.86-7.4a35.36,35.36,0,0,1-35.1-35.37v-506a35.37,35.37,0,0,1,35.37-35.37h984.86a35.38,35.38,0,0,1,35.37,35.37v513.4A35.37,35.37,0,0,1,2534.47,2117.51Z"/><path class="cls-22" d="M2381.71,1761.83l-126.64-133.89-181.59,197.5-128.13-138.25L1825.18,1823l-92.15-112-181.61,189.07v136.74a32.9,32.9,0,0,0,32.65,32.89l916,6.88a32.89,32.89,0,0,0,33.14-32.89v-372Z"/><rect class="cls-8" x="2382.31" y="1758.11" width="3.68" height="318.55"/><rect class="cls-8" x="2253.23" y="1627.94" width="3.68" height="446.89"/><rect class="cls-8" x="2071.64" y="1823.03" width="3.68" height="250.43"/><rect class="cls-8" x="1946.91" y="1692.08" width="3.68" height="381.37"/><rect class="cls-8" x="1823.34" y="1818.97" width="3.68" height="254.48"/><rect class="cls-8" x="1733.14" y="1701.58" width="3.68" height="369.43"/><path class="cls-23" d="M1762.81,1701.58a27.83,27.83,0,1,1-27.83-27.83A27.83,27.83,0,0,1,1762.81,1701.58Z"/><circle class="cls-24" cx="1825.18" cy="1818.97" r="18.33"/><path class="cls-25" d="M1967.09,1692.09a18.34,18.34,0,1,1-18.34-18.34A18.34,18.34,0,0,1,1967.09,1692.09Z"/><circle class="cls-26" cx="2073.48" cy="1823.03" r="18.33" transform="translate(-58.15 3577.72) rotate(-80.78)"/><circle class="cls-27" cx="2255.07" cy="1627.94" r="18.33"/><circle class="cls-28" cx="2384.15" cy="1758.11" r="18.33"/><g class="cls-29"><path class="cls-8" d="M592.23,961.73H288.46c-12.71,0-23,9.45-23,21.1s10.3,21.1,23,21.1H592.23c12.71,0,23-9.44,23-21.1S604.94,961.73,592.23,961.73Z"/><path class="cls-8" d="M592.23,1055.17H288.46c-12.71,0-23,9.45-23,21.1s10.3,21.11,23,21.11H592.23c12.71,0,23-9.45,23-21.11S604.94,1055.17,592.23,1055.17Z"/><path class="cls-8" d="M592.23,1428.94H288.46c-12.71,0-23,9.44-23,21.1s10.3,21.1,23,21.1H592.23c12.71,0,23-9.45,23-21.1S604.94,1428.94,592.23,1428.94Z"/><path class="cls-8" d="M592.23,1335.49H288.46c-12.71,0-23,9.45-23,21.11s10.3,21.1,23,21.1H592.23c12.71,0,23-9.45,23-21.1S604.94,1335.49,592.23,1335.49Z"/><path class="cls-8" d="M592.23,1242.05H288.46c-12.71,0-23,9.45-23,21.11s10.3,21.1,23,21.1H592.23c12.71,0,23-9.45,23-21.1S604.94,1242.05,592.23,1242.05Z"/></g><g class="cls-29"><path class="cls-8" d="M1014.49,961.73H710.72c-12.71,0-23,9.45-23,21.1s10.3,21.1,23,21.1h303.77c12.71,0,23-9.44,23-21.1S1027.2,961.73,1014.49,961.73Z"/><path class="cls-8" d="M1014.49,1055.17H710.72c-12.71,0-23,9.45-23,21.1s10.3,21.11,23,21.11h303.77c12.71,0,23-9.45,23-21.11S1027.2,1055.17,1014.49,1055.17Z"/><path class="cls-8" d="M1014.49,1428.94H710.72c-12.71,0-23,9.44-23,21.1s10.3,21.1,23,21.1h303.77c12.71,0,23-9.45,23-21.1S1027.2,1428.94,1014.49,1428.94Z"/><path class="cls-8" d="M1014.49,1335.49H710.72c-12.71,0-23,9.45-23,21.11s10.3,21.1,23,21.1h303.77c12.71,0,23-9.45,23-21.1S1027.2,1335.49,1014.49,1335.49Z"/><path class="cls-8" d="M1014.49,1242.05H710.72c-12.71,0-23,9.45-23,21.11s10.3,21.1,23,21.1h303.77c12.71,0,23-9.45,23-21.1S1027.2,1242.05,1014.49,1242.05Z"/></g><g class="cls-29"><path class="cls-8" d="M1436.75,961.73H1133c-12.7,0-23,9.45-23,21.1s10.31,21.1,23,21.1h303.77c12.71,0,23-9.44,23-21.1S1449.46,961.73,1436.75,961.73Z"/><path class="cls-8" d="M1436.75,1055.17H1133c-12.7,0-23,9.45-23,21.1s10.31,21.11,23,21.11h303.77c12.71,0,23-9.45,23-21.11S1449.46,1055.17,1436.75,1055.17Z"/><path class="cls-8" d="M1436.75,1428.94H1133c-12.7,0-23,9.44-23,21.1s10.31,21.1,23,21.1h303.77c12.71,0,23-9.45,23-21.1S1449.46,1428.94,1436.75,1428.94Z"/><path class="cls-8" d="M1436.75,1335.49H1133c-12.7,0-23,9.45-23,21.11s10.31,21.1,23,21.1h303.77c12.71,0,23-9.45,23-21.1S1449.46,1335.49,1436.75,1335.49Z"/><path class="cls-8" d="M1436.75,1242.05H1133c-12.7,0-23,9.45-23,21.11s10.31,21.1,23,21.1h303.77c12.71,0,23-9.45,23-21.1S1449.46,1242.05,1436.75,1242.05Z"/></g><path class="cls-5" d="M1172.79,2651.85s-164.66,181.53-302.17,104.81C760.1,2695,917.11,2711.11,1050.3,2682c10.45-2.28,7.72-17.9-2.89-16.5-104.21,13.82-263.21,25.11-290.83-29.23-41.69-82-1.26-55.42,125.63-43.57s151.34-19.48,68.51-39-214.59,23.65-245.28-16.49-47.47-119.8-59.71-154.07,157.95-85.67,204-40.69,83.38,145.38,138,163.71-4.14-70.48-40.35-116.32-50.57-79.91,21.78-69,110.6,99.24,118.22,165.15,33.11,102.77,32,70.17-13-132.61-36.11-162.68S1225.12,2400.1,1172.79,2651.85Z"/><path class="cls-30" d="M1159.38,2653.58a2.16,2.16,0,0,1-2.19-.4c-141.33-123.64-378.37-213.51-380.75-214.4a2.16,2.16,0,1,1,1.53-4.05c2.38.89,240.14,91,382.07,215.2a2.16,2.16,0,0,1,.2,3.05A2.1,2.1,0,0,1,1159.38,2653.58Z"/><path class="cls-30" d="M1272.19,2767.79s-300.7,9.92-350.54-176.86c-40.06-150.11,79.88,2.08,219.34,94.61,11,7.26,22.38-8.49,12.08-16.64-101.2-80.07-247-210.6-222.69-281.37,36.7-106.83,47.79-48.46,145.74,73.53s146.47,116.77,92.91,27.08-204.17-169-195-230.32,65.07-144.21,84.82-184.26,210.47,66.05,210.13,145-56.94,197.7-26.46,261.5,58.61-63.86,68.08-134.95,27.25-112.84,79.41-39.72,7,182.28-44.59,245.31-62.32,117-34.56,88.11,105.81-124.73,112.56-170.8S1538.84,2598.85,1272.19,2767.79Z"/><path class="cls-31" d="M1259.22,2757.45a2.63,2.63,0,0,1-1.53-2.27c-11.74-230.23-135-516-136.26-518.83a2.66,2.66,0,1,1,4.88-2.12c1.24,2.87,124.9,289.48,136.68,520.68a2.64,2.64,0,0,1-3.77,2.54Z"/><circle class="cls-1" cx="1168.94" cy="799.7" r="599.75" transform="translate(-223.09 1060.79) rotate(-45)"/><circle class="cls-32" cx="1168.94" cy="799.7" r="511.86"/><path class="cls-8" d="M1168.94,1337.2c-296.38,0-537.5-241.12-537.5-537.5s241.12-537.51,537.5-537.51,537.5,241.12,537.5,537.51S1465.32,1337.2,1168.94,1337.2Zm0-1049.37c-282.24,0-511.86,229.62-511.86,511.87s229.62,511.86,511.86,511.86S1680.8,1081.94,1680.8,799.7,1451.18,287.83,1168.94,287.83Z"/><circle class="cls-33" cx="1168.94" cy="799.7" r="312.06" transform="translate(-223.09 1060.79) rotate(-45)"/><path class="cls-8" d="M1168.94,1137.39c-186.2,0-337.69-151.49-337.69-337.69S982.74,462,1168.94,462s337.7,151.49,337.7,337.7S1355.15,1137.39,1168.94,1137.39Zm0-624.11c-157.93,0-286.42,128.48-286.42,286.42s128.49,286.42,286.42,286.42,286.42-128.49,286.42-286.42S1326.87,513.28,1168.94,513.28Z"/><circle class="cls-34" cx="1168.94" cy="799.7" r="120.9" transform="translate(122.07 1753.63) rotate(-76.72)"/><path class="cls-8" d="M1168.94,946.23c-80.8,0-146.53-65.73-146.53-146.53s65.73-146.54,146.53-146.54,146.54,65.73,146.54,146.54S1249.74,946.23,1168.94,946.23Zm0-241.8a95.27,95.27,0,1,0,95.27,95.27A95.37,95.37,0,0,0,1168.94,704.43Z"/><rect class="cls-35" x="1654.84" y="5.32" width="22.86" height="865.63" transform="translate(2306.43 2037.69) rotate(-126.54)"/><path class="cls-36" d="M1328.79,649.76c10.54-7.81,47.35,41.86,36.81,49.67L1186.48,801.67c-6.62,3.78-13.16-5-7.62-10.27Z"/><path class="cls-5" d="M2020.4,189.9l80.25,20.2-128.44,95.19a174.77,174.77,0,0,1-146.73,29.07h0Z"/><path class="cls-5" d="M2006.79,171.53l4-82.65-128.44,95.19A174.76,174.76,0,0,0,1811.87,316h0Z"/><path class="cls-37" d="M522.88,1465.3s-29.63,14.42-35.08,31c-4.37,13.28-37.13,15-40.36,41.12-1.67,13.49-11.65,24.29-25.09,26.35-33.46,5.12-85,22.5-93.27,80.59-6.29,44.34,16.31,61.15,40,67,17.42,4.28,29,21.22,25.48,38.81-3.38,16.88,1.66,36.38,30.89,51.8C491,1836.48,556.39,1720,556.39,1720l13.41-203.32Z"/><path class="cls-38" d="M253.64,2740.18,249.4,2775a14.37,14.37,0,0,1-12.62,12.59c-11.17,1.28-29.1,2.59-46.63.73a12.32,12.32,0,0,1-10.35-16c4.27-13.45,12.09-33.65,23.37-45.53h38.65A11.9,11.9,0,0,1,253.64,2740.18Z"/><path class="cls-39" d="M556.39,2332l6.53,38.38s-21.85,221.3-25.74,309.82a69.34,69.34,0,0,0,10.27,39.43l38,61.69-96.55-57L487,2712.55l15.81-21.73-20.7-247.91a76.07,76.07,0,0,1,8.65-42.07l20-37.52Z"/><path class="cls-40" d="M591.8,2790.24H561a18.55,18.55,0,0,1-14.72-7.21c-9.6-12.48-29.51-36.83-39-37.47-12.81-.86-11.17,44.68-11.17,44.68h-7.18l-9.1-56.59a33.49,33.49,0,0,1,17.58-35h0s2.93,21.66,18.81,31.23,64.61,43.89,64.61,43.89a44.12,44.12,0,0,1,12.52.33C603,2775.85,601.68,2790.24,591.8,2790.24Z"/><path class="cls-41" d="M424.15,2350.22s-128,242.79-148.34,298.22-27.47,101.68-27.75,106.06c-.42,6.84-8.93,13.4-32.39,13.4-12.11,0-18-4.85-20.94-9.55a13.67,13.67,0,0,1-.52-13.25c7.4-15,30.9-62.86,39.6-84.58,10.39-25.93,32.74-143.44,45-184.3s26.12-85.18,79.49-126C358.29,2350.22,394.93,2314.33,424.15,2350.22Z"/><path class="cls-42" d="M505,1952.4c33-139.91-50.62-219-50.62-219,52.78-50.66,148.93-73.71,148.93-73.71s91.76,67.08,80.87,119.58c-6.38,30.77-64.49,184.33-64.49,184.33S566,1989,505,1952.4Z"/><path class="cls-43" d="M431.8,2021.66c13.44-40.48,73.2-69.26,73.2-69.26,61,36.6,114.69,11.17,114.69,11.17s12,46.06,3.73,88.87-60.5,317.93-60.5,317.93c-82.23,16.66-208.69-16.76-208.69-16.76C406.6,2260.62,418.37,2062.14,431.8,2021.66Z"/><path class="cls-44" d="M543.33,1567.2l-26.84,120.58c-2.57,10.62,7.11,8.88,17.84,6.85,17.59-3.31,40.25-10.14,47.83-23.82a13.05,13.05,0,0,0,1.37-4.55l11.53-83.6a15,15,0,0,0-8.79-15.79L564,1557A15,15,0,0,0,543.33,1567.2Z"/><path class="cls-45" d="M454.38,1733.37s-187.35,134-24,274.88c0,0,6.23,7,18.49,10.71,6.18,1.85,24.49,15.7,33.77,22.92a6.36,6.36,0,0,0,9.3-1.67h0a8.72,8.72,0,0,0,.49-8.33l-23.2-49a17.89,17.89,0,0,0-23.23-1h0a8.83,8.83,0,0,1-13.39-3c-12.63-25.72-36.48-101.38,61.14-186.87a10.57,10.57,0,0,0,2.34-12.86C489.28,1765.89,473.59,1739.73,454.38,1733.37Z"/><path class="cls-46" d="M594.74,1457.29s28.58,19.34,40.86,68.61-7.68,66.93-28.13,65.85-50.12-7.41-75.82-42.75S557.29,1433.65,594.74,1457.29Z"/><path class="cls-47" d="M557.57,1529.13s-10.47-70.59,48.14-59.8l11.85,12.34s28.68-32.3-3.06-56.73-75.8-18.16-100.17,26.3-33.22,75.7-12.79,103.32,35.79,3.93,35.79,3.93-9.37-23.91-1.59-34.17,17.8,6,17.8,6Z"/><path class="cls-48" d="M549.56,1535.17s-5.17-36.32-23.72-25.93,6.69,33.92,16.8,41.93Z"/><path class="cls-49" d="M2322.39,2007.37,2218,2008.66l36.52-34.38a27.27,27.27,0,0,1,33.42-3.13,78.65,78.65,0,0,1,18.55,16.54s65.11-23.8,96.67-77a321.54,321.54,0,0,1,31.28,59.2C2406.18,1986.47,2369.5,1999.53,2322.39,2007.37Z"/><path class="cls-50" d="M2186.67,2751.64c27.79,2.4,76,6.31,114,8,22.86,1,36-1.23,43.59-4.27,0,.86,0,1.67-.07,2.42a7.85,7.85,0,0,1-7.47,7.42,1334.82,1334.82,0,0,1-149.3.15,5.6,5.6,0,0,1-4.56-8.41A46.25,46.25,0,0,1,2186.67,2751.64Z"/><path class="cls-51" d="M2300.69,2759.62c-38-1.67-86.23-5.58-114-8,27.32-33.51,114-56.1,114-56.1h24.49c16.84,24.28,19.28,47.39,19.1,59.81C2336.7,2758.39,2323.55,2760.63,2300.69,2759.62Z"/><path class="cls-52" d="M2329.31,2655.56l-2.3,45.35a10.35,10.35,0,0,1-8.84,9.74,40.29,40.29,0,0,1-18.39-1.52,12.27,12.27,0,0,1-8.24-9.42l-7.92-44.15Z"/><path class="cls-53" d="M2613.52,2790.62c12.05-1.95,17.5-9.24,19.79-17,0,.07,0,.14,0,.21,1.78,8.22-2.33,16.73-10.55,20.79-9.93,4.89-20.79,5.73-29.22,5.32-9-.43-17.34-4.79-21.9-11.76l-.07-.11C2580.68,2793.27,2593.43,2793.89,2613.52,2790.62Z"/><path class="cls-54" d="M2556.71,2669.53h20.2c30.76-.73,50.07,74.81,56.4,104.06-2.29,7.79-7.74,15.08-19.79,17-20.09,3.27-32.84,2.65-41.91-2.58-16.62-25.46-24.86-62.75-28.82-84.51C2538.28,2678.78,2556.71,2669.53,2556.71,2669.53Z"/><path class="cls-55" d="M2574.31,2627.44l11.22,44.6a12.12,12.12,0,0,1-6.3,13.72c-6.28,3.22-15.11,6.61-23.23,5.63a10.14,10.14,0,0,1-8.25-6.75l-16.46-46.92Z"/><path class="cls-56" d="M2179.83,2040s100.21,626.41,98.56,629.86c0,0,27.68,12.58,57.86,1.6,0,0-9.07-334.87-30.3-463.26,0,0,171,299.3,225.34,448.44,0,0,28.33-3.38,51.78-18.81,0,0-184.15-538.73-233.28-610.49Z"/><path class="cls-57" d="M2302,2207.16a5.17,5.17,0,0,0,4.37-7.9l-37.45-59.81a5.16,5.16,0,0,0-3.36-2.32l-27.56-5.55a5.16,5.16,0,0,0-2,10.11l25.38,5.11,36.27,57.93A5.15,5.15,0,0,0,2302,2207.16Z"/><path class="cls-58" d="M1720,1426.62s67.62,14.91,108.75,33.9a37.54,37.54,0,0,1,18.39,18.5c12.31,26.94,49.11,94.51,120.48,126.76-10.28,13.64-26.83,42-34,89.71-42.86-31.9-79.87-85.19-97.64-172.57,0,0-13.53,7.35-30.41-.85-8.91-4.33-19.21-10.47-26.94-15.3a35.27,35.27,0,0,1-15.66-21c-2.94-11.54-1.21-21.68-1.21-32.57l-34.76-10.77S1716.47,1438.45,1720,1426.62Z"/><path class="cls-59" d="M1933.54,1695.49c7.21-47.69,23.76-76.07,34-89.71,44.34,20,102,26.43,175.46,1a78.24,78.24,0,0,1,21-4.14c39.1-2.29,167.94-6.47,274.55,28.75a82.85,82.85,0,0,1,50,45.49c28.84,66.19,75.53,216.91-54.09,293a321.54,321.54,0,0,0-31.28-59.2c20.87-35.21,27-83.3-10-145.92-27,72.93-39.68,179.35-42.33,226.45a101.26,101.26,0,0,0,7.93,45.29l.67,1.57a5.36,5.36,0,0,1-3.77,7.32c-73,16.39-148.86,11.93-171.54,10.06a9.35,9.35,0,0,1-8.34-7.14c-35.48-149.52-35.56-251.5-26.87-316C2115.75,1739.73,2014.25,1755.56,1933.54,1695.49Z"/><path class="cls-60" d="M2148.81,1738.53a5.16,5.16,0,0,0,5.1-4.48c8.25-62.33,25-89.54,25.15-89.81a5.16,5.16,0,0,0-8.71-5.52c-.74,1.16-18.07,29.07-26.66,94a5.16,5.16,0,0,0,4.43,5.79A5.32,5.32,0,0,0,2148.81,1738.53Z"/><path class="cls-61" d="M2328.88,1515.53s7.38,78,13.88,101.14a7.88,7.88,0,0,1-3.71,9c-11,6.3-37.49,16.58-73.68-1.15a16.43,16.43,0,0,1-9.12-15.46l3.19-75.42Z"/><path class="cls-62" d="M2257.85,1415.67s-23.61,54.24-25.2,82.71-7.72,46.94,25.2,52.67,60.64-10.66,75.67-39c0,0,23.53-43.7,18.25-61.59S2257.85,1415.67,2257.85,1415.67Z"/><path class="cls-63" d="M2322.27,1491.64l-1.88-.83a4.51,4.51,0,0,1-2.2-6.2c4.64-9,13.69-29.52,2-34.32-15.07-6.17-74.74-18.34-87.62-39.52-12.37-20.35-1.41-46.62,15.07-54.09a2.27,2.27,0,0,1,3,1l1.37,2.6a2.24,2.24,0,0,0,4.13-.43h0a2.23,2.23,0,0,1,4-.57c4,6.33,14.64,16.6,43.21,21.87,40.61,7.5,67.46,23.93,68.13,52a2.24,2.24,0,0,0,3.46,1.85c3-1.83,7.79-2.69,14.21,2.71,11.15,9.37,6.58,33.7-17.86,53.71a2.22,2.22,0,0,0,.1,3.58c4.43,2.89,11,9.75-6.08,18.9-17.71,9.47-30.93,8.69-36,7.85a2.23,2.23,0,0,1-1.81-2.69l5.44-24.66a2.24,2.24,0,0,0-2.19-2.72Z"/><path class="cls-64" d="M2321.25,1496.85s9-34.65,24.54-24.94-8.06,38.82-20.55,40.12Z"/><path class="cls-65" d="M1817.87,1517.05a5.15,5.15,0,0,0,4-8.41c-2.58-3.18-25.52-31.22-34.61-36.35-2.6-1.47-3.89-2.78-4.3-3.62l23.8,4.76,14.67,12.59a5.16,5.16,0,1,0,6.72-7.82l-15.69-13.47a5.12,5.12,0,0,0-2.35-1.14l-29.52-5.92a5.13,5.13,0,0,0-5.29,2.18c-2.49,3.69-3.33,7.34-2.5,10.85,1,4.08,4,7.54,9.38,10.56,5.59,3.16,22.4,22.46,31.69,33.89A5.16,5.16,0,0,0,1817.87,1517.05Z"/><path class="cls-66" d="M2366.1,1965.34s-8.88-14.79-29.6-14.79-44.39,38.47-44.39,38.47,32.55,14.8,44.39,26.64S2366.1,1989,2366.1,1965.34Z"/></g></g></svg>