<svg xmlns="http://www.w3.org/2000/svg" xmlns:xlink="http://www.w3.org/1999/xlink" width="2000" zoomAndPan="magnify" viewBox="0 0 1500 1499.999933" height="2000" preserveAspectRatio="xMidYMid meet" version="1.0"><defs><clipPath id="4f818eada2"><path d="M 148.085938 53.296875 L 1500 53.296875 L 1500 1231 L 148.085938 1231 Z M 148.085938 53.296875 " clip-rule="nonzero"/></clipPath><clipPath id="bbe38684e5"><path d="M 0 116 L 1328.9375 116 L 1328.9375 1446.9375 L 0 1446.9375 Z M 0 116 " clip-rule="nonzero"/></clipPath></defs><g clip-path="url(#4f818eada2)"><path fill="#010674" d="M 1492.8125 70.992188 C 1471.417969 65.441406 1450.007812 59.898438 1428.609375 54.351562 C 1426.953125 53.425781 1424.898438 53.027344 1422.523438 53.484375 C 1421.425781 53.601562 1420.417969 53.894531 1419.523438 54.34375 C 1415.359375 55.683594 1411.25 57.175781 1407.167969 58.699219 C 1393.214844 63.871094 1379.492188 69.550781 1365.957031 75.574219 C 1345.605469 84.652344 1325.679688 94.539062 1306.121094 105.007812 C 1279.835938 119.074219 1254.246094 134.242188 1229.332031 150.28125 C 1198.210938 170.3125 1168.109375 191.707031 1139.074219 214.226562 C 1105.199219 240.496094 1072.777344 268.339844 1041.839844 297.503906 C 1006.191406 331.101562 972.507812 366.453125 940.792969 403.222656 C 904.800781 444.945312 871.238281 488.398438 840.167969 533.332031 C 805.152344 583.988281 773.269531 636.453125 744.339844 690.246094 C 711.765625 750.820312 682.894531 813.085938 657.390625 876.449219 C 652.429688 888.78125 647.601562 901.160156 642.894531 913.574219 C 626.441406 900.734375 609.976562 887.902344 593.523438 875.0625 C 550.378906 841.417969 507.230469 807.769531 464.085938 774.117188 C 424.4375 743.195312 384.789062 712.273438 345.140625 681.351562 C 335.0625 673.492188 324.984375 665.636719 314.90625 657.777344 C 312.332031 655.765625 310.078125 653.835938 306.882812 652.632812 C 296.886719 648.867188 286.539062 643.980469 276.136719 641.34375 C 272.1875 640.339844 267.21875 641.707031 263.222656 642.320312 C 256.261719 643.390625 249.304688 644.460938 242.347656 645.527344 C 237.964844 646.199219 232.035156 646.171875 228.371094 648.761719 C 226.355469 650.191406 225.410156 652.019531 224.210938 653.980469 C 213.089844 672.179688 201.972656 690.375 190.851562 708.566406 C 178.460938 728.847656 166.0625 749.132812 153.664062 769.410156 C 150.773438 774.148438 147.460938 778.089844 148.472656 783.808594 C 149.644531 790.453125 151.070312 797.070312 152.375 803.699219 C 157.339844 829.035156 162.3125 854.375 167.277344 879.71875 C 168.808594 887.523438 170.007812 895.464844 171.886719 903.207031 C 172.988281 907.746094 176.355469 910.109375 180.84375 911.773438 C 184.761719 913.21875 188.675781 914.664062 192.578125 916.144531 C 193.960938 916.675781 195.347656 917.203125 196.734375 917.738281 C 197.492188 918.027344 198.25 918.316406 199.007812 918.609375 C 199.402344 918.757812 199.796875 918.914062 200.191406 919.0625 C 200.257812 919.089844 200.300781 919.105469 200.351562 919.125 C 204.273438 920.648438 208.199219 922.191406 212.113281 923.742188 C 234.351562 932.558594 256.394531 941.792969 278.273438 951.347656 C 343.9375 980.039062 408.160156 1011.65625 470.089844 1046.671875 C 542.980469 1087.878906 613.234375 1133.878906 675.578125 1187.902344 C 690.523438 1200.851562 704.964844 1214.292969 718.804688 1228.242188 C 723.59375 1233.074219 733.527344 1230.75 735.058594 1224.300781 C 736.988281 1216.140625 739.179688 1208.027344 741.378906 1199.921875 C 747.496094 1177.390625 754.144531 1154.96875 761.136719 1132.65625 C 771.792969 1098.648438 783.285156 1064.863281 795.523438 1031.3125 C 811.058594 988.714844 827.796875 946.484375 845.738281 904.695312 C 866.363281 856.660156 888.625 809.21875 912.632812 762.523438 C 938.976562 711.261719 967.421875 660.894531 998.238281 611.773438 C 1030.355469 560.582031 1065.066406 510.730469 1102.785156 462.855469 C 1141.160156 414.160156 1182.769531 367.5625 1227.949219 324.035156 C 1273.203125 280.441406 1322.070312 239.816406 1374.84375 204.003906 C 1401.496094 185.917969 1429.097656 169.011719 1457.617188 153.5 C 1464.164062 149.949219 1473.984375 146.78125 1477.085938 140.132812 C 1478.132812 137.867188 1478.886719 135.460938 1479.777344 133.144531 C 1483.878906 122.601562 1487.960938 112.042969 1492.046875 101.480469 C 1494.574219 94.972656 1497.085938 88.472656 1499.605469 81.972656 C 1501.375 77.402344 1497.585938 72.21875 1492.8125 70.992188 " fill-opacity="1" fill-rule="nonzero"/></g><g clip-path="url(#bbe38684e5)"><path fill="#010674" d="M 1199.105469 387.085938 C 1172.398438 415.570312 1146.394531 445.832031 1121.398438 477.558594 C 1120.691406 478.457031 1119.988281 479.363281 1119.28125 480.261719 C 1176.648438 566.746094 1210.101562 670.433594 1210.101562 781.804688 C 1210.101562 1083.125 965.261719 1328.265625 664.3125 1328.265625 C 363.367188 1328.265625 118.523438 1083.125 118.523438 781.804688 C 118.523438 480.488281 363.367188 235.347656 664.3125 235.347656 C 779.074219 235.347656 885.667969 270.992188 973.644531 331.8125 C 990.636719 314.050781 1007.992188 296.808594 1025.589844 280.21875 C 1037.179688 269.296875 1048.96875 258.578125 1060.894531 248.089844 C 1018.355469 216.320312 972.203125 189.835938 922.914062 168.976562 C 840.976562 134.273438 753.96875 116.675781 664.3125 116.675781 C 574.65625 116.675781 487.65625 134.273438 405.714844 168.976562 C 326.605469 202.472656 255.5625 250.421875 194.570312 311.488281 C 133.582031 372.554688 85.691406 443.679688 52.230469 522.886719 C 17.574219 604.921875 0 692.039062 0 781.804688 C 0 871.574219 17.574219 958.683594 52.230469 1040.722656 C 85.6875 1119.929688 133.578125 1191.054688 194.570312 1252.125 C 255.558594 1313.1875 326.597656 1361.136719 405.714844 1394.636719 C 487.65625 1429.339844 574.664062 1446.9375 664.3125 1446.9375 C 753.96875 1446.9375 840.972656 1429.339844 922.914062 1394.636719 C 1002.027344 1361.136719 1073.070312 1313.1875 1134.054688 1252.125 C 1195.046875 1191.054688 1242.941406 1119.929688 1276.402344 1040.722656 C 1311.046875 958.683594 1328.632812 871.574219 1328.632812 781.804688 C 1328.632812 692.039062 1311.046875 604.929688 1276.402344 522.886719 C 1255.9375 474.441406 1230.058594 429.03125 1199.105469 387.085938 " fill-opacity="1" fill-rule="nonzero"/></g></svg>