<svg id="visual" viewBox="0 0 900 600" width="900" height="600" xmlns="http://www.w3.org/2000/svg" xmlns:xlink="http://www.w3.org/1999/xlink" version="1.1"><rect x="0" y="0" width="900" height="600" fill="#FFFFFF"></rect><defs><linearGradient id="grad1_0" x1="33.3%" y1="100%" x2="100%" y2="0%"><stop offset="20%" stop-color="#ffffff" stop-opacity="1"></stop><stop offset="80%" stop-color="#ffffff" stop-opacity="1"></stop></linearGradient></defs><defs><linearGradient id="grad2_0" x1="0%" y1="100%" x2="66.7%" y2="0%"><stop offset="20%" stop-color="#ffffff" stop-opacity="1"></stop><stop offset="80%" stop-color="#ffffff" stop-opacity="1"></stop></linearGradient></defs><g transform="translate(900, 600)"><path d="M-459.7 0C-448 -81 -436.3 -161.9 -398.1 -229.9C-359.9 -297.8 -295.3 -352.7 -224.5 -388.8C-153.7 -425 -76.9 -442.3 0 -459.7L0 0Z" fill="#BBD2FF"></path></g><g transform="translate(0, 0)"><path d="M459.7 0C450.4 85.1 441.1 170.2 398.1 229.9C355.1 289.5 278.5 323.6 206.5 357.7C134.5 391.7 67.3 425.7 0 459.7L0 0Z" fill="#BBD2FF"></path></g></svg>