<svg id="visual" viewBox="0 0 900 600" width="900" height="600" xmlns="http://www.w3.org/2000/svg" xmlns:xlink="http://www.w3.org/1999/xlink" version="1.1"><rect x="0" y="0" width="900" height="600" fill="#FFFFFF"></rect><defs><linearGradient id="grad1_0" x1="33.3%" y1="0%" x2="100%" y2="100%"><stop offset="20%" stop-color="#ffffff" stop-opacity="1"></stop><stop offset="80%" stop-color="#ffffff" stop-opacity="1"></stop></linearGradient></defs><defs><linearGradient id="grad2_0" x1="0%" y1="0%" x2="66.7%" y2="100%"><stop offset="20%" stop-color="#ffffff" stop-opacity="1"></stop><stop offset="80%" stop-color="#ffffff" stop-opacity="1"></stop></linearGradient></defs><g transform="translate(900, 0)"><path d="M0 513.8C-84.9 492.6 -169.8 471.5 -249 431.3C-328.2 391.1 -401.8 331.9 -445 256.9C-488.1 181.8 -501 90.9 -513.8 0L0 0Z" fill="#BBD2FF"></path></g><g transform="translate(0, 600)"><path d="M0 -513.8C94.2 -502.8 188.3 -491.9 256.9 -445C325.5 -398 368.5 -315.2 407 -235C445.6 -154.8 479.7 -77.4 513.8 0L0 0Z" fill="#BBD2FF"></path></g></svg>