<svg id="visual" viewBox="0 0 900 600" width="900" height="600" xmlns="http://www.w3.org/2000/svg" xmlns:xlink="http://www.w3.org/1999/xlink" version="1.1"><rect x="0" y="0" width="900" height="600" fill="#FFFFFF"></rect><defs><linearGradient id="grad1_0" x1="33.3%" y1="0%" x2="100%" y2="100%"><stop offset="20%" stop-color="#ffffff" stop-opacity="1"></stop><stop offset="80%" stop-color="#ffffff" stop-opacity="1"></stop></linearGradient></defs><defs><linearGradient id="grad2_0" x1="0%" y1="0%" x2="66.7%" y2="100%"><stop offset="20%" stop-color="#ffffff" stop-opacity="1"></stop><stop offset="80%" stop-color="#ffffff" stop-opacity="1"></stop></linearGradient></defs><g transform="translate(900, 0)"><path d="M0 432.7C-85.3 426.9 -170.5 421.1 -216.3 374.7C-262.1 328.3 -268.4 241.2 -297.9 172C-327.4 102.8 -380 51.4 -432.7 0L0 0Z" fill="#BBD2FF"></path></g><g transform="translate(0, 600)"><path d="M0 -432.7C79.4 -423.5 158.8 -414.3 216.3 -374.7C273.9 -335.1 309.7 -265 342.1 -197.5C374.5 -130 403.6 -65 432.7 0L0 0Z" fill="#BBD2FF"></path></g></svg>