<svg id="visual" viewBox="0 0 900 600" width="900" height="600" xmlns="http://www.w3.org/2000/svg" xmlns:xlink="http://www.w3.org/1999/xlink" version="1.1"><rect x="0" y="0" width="900" height="600" fill="#FFFFFF"></rect><defs><linearGradient id="grad1_0" x1="33.3%" y1="100%" x2="100%" y2="0%"><stop offset="20%" stop-color="#ffffff" stop-opacity="1"></stop><stop offset="80%" stop-color="#ffffff" stop-opacity="1"></stop></linearGradient></defs><defs><linearGradient id="grad2_0" x1="0%" y1="100%" x2="66.7%" y2="0%"><stop offset="20%" stop-color="#ffffff" stop-opacity="1"></stop><stop offset="80%" stop-color="#ffffff" stop-opacity="1"></stop></linearGradient></defs><g transform="translate(900, 600)"><path d="M-432.7 0C-426.9 -85.3 -421.1 -170.5 -374.7 -216.3C-328.3 -262.1 -241.2 -268.4 -172 -297.9C-102.8 -327.4 -51.4 -380 0 -432.7L0 0Z" fill="#BBD2FF"></path></g><g transform="translate(0, 0)"><path d="M432.7 0C423.5 79.4 414.3 158.8 374.7 216.3C335.1 273.9 265 309.7 197.5 342.1C130 374.5 65 403.6 0 432.7L0 0Z" fill="#BBD2FF"></path></g></svg>