<?xml version="1.0" encoding="utf-8"?>
<!-- Generator: Adobe Illustrator 26.0.1, SVG Export Plug-In . SVG Version: 6.00 Build 0)  -->
<svg version="1.1" id="Layer_1" xmlns="http://www.w3.org/2000/svg" xmlns:xlink="http://www.w3.org/1999/xlink" x="0px" y="0px"
	 viewBox="0 0 500 500" style="enable-background:new 0 0 500 500;" xml:space="preserve">
<style type="text/css">
	.st0{opacity:0.4;fill:#D4E8FF;enable-background:new    ;}
	.st1{fill:#F0F6FF;}
	.st2{fill:#9FC6FF;}
	.st3{fill:#0053CC;}
	.st4{fill:#FFFFFF;}
	.st5{fill:#71B8FF;}
	.st6{fill:#318FFF;}
	.st7{fill:#FF8B7B;}
	.st8{fill:#0F264C;}
	.st9{fill:#0A1B35;}
	.st10{fill:#EA7063;}
	.st11{fill:#407BFF;}
	.st12{fill:#FF5652;}
</style>
<g id="Background_1">
	<path class="st0" d="M314.6,82.7c-41.9-17.4-92.9-24.1-131.2,5c-35.7,27.2-29.2,65-50.7,99.1c-20.3,32.2-58.4,41.5-35.5,86.7
		c15.6,30.9,65.5,52.5,95.5,65.2C278.8,375.2,344,347,390,267.5C424.5,207.8,377.8,108.9,314.6,82.7z"/>
</g>
<g id="Objects">
	<g>
		<ellipse class="st1" cx="250" cy="416.2" rx="193.9" ry="11.3"/>
		<g>
			<g>
				<path class="st2" d="M392.2,210.1c-54.7-2.7-89.8,17.1-110.9,38.7c25.2-57.6,84.1-94.6,84.1-94.6
					c-48.7,12.6-76.5,39.9-92.2,66.3c17.9-64.1,63.6-115.9,63.6-115.9c-42,27-62.3,61.6-72.1,91.6c4.2-67.1,22.2-98.1,22.2-98.1
					s-33.6,11.5-36.9,109.5c-3.2-98-36.9-109.5-36.9-109.5s18,31,22.2,98.1c-9.8-30-30.1-64.6-72.1-91.6c0,0,45.7,51.8,63.6,115.9
					c-15.7-26.4-43.5-53.6-92.2-66.3c0,0,58.9,37,84.1,94.6c-21.1-21.6-56.2-41.5-110.9-38.7c0,0,127.4,23.7,121.1,128.6
					c-2,33.8-9.7,56-15.4,77.6H250h32.6c2-22.9-6.3-55-10.8-78.7C257.5,236.3,392.2,210.1,392.2,210.1z"/>
				<g>
					<g>
						
							<ellipse transform="matrix(0.3229 -0.9464 0.9464 0.3229 -146.9793 275.6547)" class="st3" cx="119.2" cy="240.6" rx="16.8" ry="16.8"/>
						<path class="st4" d="M127.3,242.7c2.8-2.8,2.8-7.4,0-10.2s-7.4-2.8-10.2,0c-2.6,2.6-2.8,6.8-0.6,9.6c-0.5,0.4-1,0.8-1.4,1.2
							c-0.7,0.6-1.3,1.2-2,1.8c-0.6,0.6-1.3,1.2-1.9,1.8c-0.3,0.3-0.6,0.6-0.9,0.9c-0.2,0.1-0.3,0.3-0.4,0.5
							c-0.1,0.1-0.1,0.2-0.1,0.4c0,0.1,0,0.3,0,0.4c0,0.5,0.5,1,1,1c0.2,0,0.3,0,0.4,0s0.2-0.1,0.3-0.1c0.2-0.1,0.4-0.2,0.5-0.4
							c0.3-0.3,0.6-0.6,0.9-0.9c0.6-0.6,1.2-1.3,1.8-1.9c0.6-0.7,1.2-1.3,1.8-2c0.4-0.5,0.8-0.9,1.2-1.4
							C120.5,245.5,124.7,245.3,127.3,242.7z M118.2,241.6c-2.2-2.2-2.2-5.8,0-8.1s5.8-2.2,8.1,0c2.2,2.2,2.2,5.8,0,8.1
							C124,243.9,120.4,243.9,118.2,241.6z"/>
					</g>
					<g>
						<circle class="st2" cx="357.2" cy="106.9" r="11.4"/>
						<path class="st4" d="M362.3,108.6c1.9-1.9,1.9-4.9,0-6.7c-1.9-1.9-4.9-1.9-6.7,0c-1.7,1.7-1.9,4.5-0.4,6.3
							c-0.3,0.2-0.6,0.5-0.9,0.8c-0.4,0.4-0.9,0.8-1.3,1.2c-0.4,0.4-0.9,0.8-1.3,1.2c-0.2,0.2-0.4,0.4-0.6,0.6
							c-0.1,0.1-0.2,0.2-0.3,0.4c0,0.1-0.1,0.1-0.1,0.2s0,0.2,0,0.3c0,0.4,0.3,0.6,0.7,0.7c0.1,0,0.2,0,0.3,0c0.1,0,0.2,0,0.2-0.1
							c0.1-0.1,0.3-0.2,0.4-0.3c0.2-0.2,0.4-0.4,0.6-0.6c0.4-0.4,0.8-0.8,1.2-1.3c0.4-0.4,0.8-0.9,1.2-1.3c0.3-0.3,0.5-0.6,0.8-0.9
							C357.8,110.4,360.6,110.3,362.3,108.6z M356.3,107.8c-1.5-1.5-1.5-3.9,0-5.3c1.5-1.5,3.9-1.5,5.3,0c1.5,1.5,1.5,3.9,0,5.3
							C360.1,109.3,357.7,109.3,356.3,107.8z"/>
					</g>
					<g>
						<ellipse class="st5" cx="140.8" cy="105.7" rx="10.1" ry="10.1"/>
						<path class="st4" d="M145.5,107.2c1.7-1.7,1.7-4.5,0-6.3s-4.5-1.7-6.3,0c-1.6,1.6-1.7,4.2-0.3,5.9c-0.3,0.2-0.6,0.5-0.9,0.7
							c-0.4,0.4-0.8,0.7-1.2,1.1s-0.8,0.7-1.2,1.1c-0.2,0.2-0.4,0.4-0.6,0.6c-0.1,0.1-0.2,0.2-0.2,0.3c0,0.1-0.1,0.1-0.1,0.2
							s0,0.2,0,0.3c0,0.3,0.3,0.6,0.6,0.6c0.1,0,0.2,0,0.3,0s0.1,0,0.2-0.1c0.1-0.1,0.2-0.1,0.3-0.2c0.2-0.2,0.4-0.4,0.6-0.6
							c0.4-0.4,0.8-0.8,1.1-1.2c0.4-0.4,0.7-0.8,1.1-1.2c0.2-0.3,0.5-0.6,0.7-0.9C141.4,108.9,143.9,108.8,145.5,107.2z
							 M139.9,106.5c-1.4-1.4-1.4-3.6,0-5s3.6-1.4,5,0s1.4,3.6,0,5S141.3,107.9,139.9,106.5z"/>
					</g>
					<g>
						<ellipse class="st5" cx="143.9" cy="189.3" rx="16.8" ry="16.8"/>
						<path class="st4" d="M149.5,184.4c0-0.2-0.1-0.4-0.3-0.5c-1-0.4-2.2-0.7-3.5-0.7c-4.3,0-7.8,3.5-7.8,7.8
							c0,2.9,1.9,4.4,3.8,4.4c1.7,0,3-0.6,4.1-2c0.2,0.5,0.4,0.9,0.6,1.2c0.5,0.5,1.2,0.8,2,0.8c3,0,6-2.7,6-7.8
							c0-5.5-3.9-9.4-9.5-9.4c-6.7,0-11.7,5.3-11.7,12.3c0,5.9,4.1,10.1,9.8,10.1c2.3,0,4-0.4,5.7-1.3c0.2-0.1,0.3-0.4,0.2-0.6
							l-0.5-1.3c-0.1-0.1-0.2-0.2-0.3-0.3s-0.3,0-0.4,0c-1.2,0.7-2.7,1-4.4,1c-4.4,0-7.4-3.1-7.4-7.8c0-5.6,3.7-9.7,8.7-9.7
							c4.3,0,6.9,2.7,6.9,7.2c0,1.9-0.5,3.6-1.5,4.5c-0.4,0.4-0.9,0.6-1.3,0.6c-0.2,0-0.3-0.1-0.4-0.2c-0.2-0.2-0.4-0.9,0-2.7
							L149.5,184.4z M145.3,185.8c0.3,0,0.7,0,1,0.1l-0.6,3c-0.3,1.7-1.8,3.8-3.3,3.8c-1.3,0-1.5-1.2-1.5-1.8
							C140.9,188.1,143,185.8,145.3,185.8z"/>
					</g>
					<g>
						<circle class="st6" cx="278.5" cy="81.3" r="10.1"/>
						<path class="st4" d="M281.9,78.3c0-0.1,0-0.3-0.2-0.3c-0.6-0.3-1.4-0.4-2.1-0.4c-2.6,0-4.7,2.1-4.7,4.7c0,1.7,1.2,2.7,2.3,2.7
							c1,0,1.8-0.4,2.5-1.2c0.1,0.3,0.2,0.6,0.4,0.7c0.3,0.3,0.7,0.5,1.2,0.5c1.8,0,3.6-1.6,3.6-4.7c0-3.3-2.4-5.7-5.7-5.7
							c-4.1,0-7.1,3.2-7.1,7.5c0,3.5,2.5,6.1,6,6.1c1.4,0,2.4-0.2,3.5-0.8c0.1-0.1,0.2-0.2,0.1-0.4l-0.3-0.8c0-0.1-0.1-0.1-0.2-0.2
							c-0.1,0-0.2,0-0.3,0c-0.7,0.4-1.7,0.6-2.7,0.6c-2.7,0-4.5-1.9-4.5-4.7c0-3.4,2.2-5.9,5.3-5.9c2.6,0,4.2,1.7,4.2,4.3
							c0,1.2-0.3,2.2-0.9,2.7c-0.3,0.2-0.5,0.4-0.8,0.4c-0.1,0-0.2-0.1-0.2-0.1c-0.1-0.1-0.2-0.5,0-1.6L281.9,78.3z M279.4,79.1
							c0.2,0,0.4,0,0.6,0.1l-0.3,1.8c-0.2,1.1-1.1,2.3-2,2.3c-0.8,0-0.9-0.7-0.9-1.1C276.7,80.5,278,79.1,279.4,79.1z"/>
					</g>
					<g>
						<ellipse class="st3" cx="341.1" cy="137.5" rx="16.8" ry="16.8"/>
						<path class="st4" d="M346.7,132.6c0-0.2-0.1-0.4-0.3-0.5c-1-0.4-2.2-0.7-3.5-0.7c-4.3,0-7.8,3.5-7.8,7.8
							c0,2.9,1.9,4.4,3.8,4.4c1.7,0,3-0.6,4.1-2c0.2,0.5,0.4,0.9,0.6,1.2c0.5,0.5,1.2,0.8,2,0.8c3,0,6-2.7,6-7.8
							c0-5.5-3.9-9.4-9.5-9.4c-6.7,0-11.7,5.3-11.7,12.3c0,5.9,4.1,10.1,9.8,10.1c2.3,0,4-0.4,5.7-1.3c0.2-0.1,0.3-0.4,0.2-0.6
							l-0.5-1.3c-0.1-0.1-0.2-0.2-0.3-0.3s-0.3,0-0.4,0c-1.2,0.7-2.7,1-4.4,1c-4.4,0-7.4-3.1-7.4-7.8c0-5.6,3.7-9.7,8.7-9.7
							c4.3,0,7,2.7,7,7.2c0,1.9-0.5,3.6-1.5,4.5c-0.4,0.4-0.9,0.6-1.3,0.6c-0.2,0-0.3-0.1-0.4-0.2c-0.2-0.2-0.4-0.9,0-2.7
							L346.7,132.6z M342.5,134c0.3,0,0.7,0,1,0.1l-0.6,3c-0.3,1.7-1.8,3.8-3.3,3.8c-1.3,0-1.5-1.2-1.5-1.8
							C338.1,136.3,340.2,134,342.5,134z"/>
					</g>
					<g>
						<ellipse class="st2" cx="160.7" cy="139" rx="16.8" ry="16.8"/>
						<path class="st4" d="M171.1,139C171.1,138.9,171.1,138.9,171.1,139c0-0.6,0-1.1-0.1-1.7c-0.4-2.8-1.9-5.2-4.2-6.8
							c-1.7-1.3-3.8-1.9-5.9-2c-0.1,0-0.1,0-0.2,0l0,0l0,0c-0.1,0-0.2,0-0.3,0c-0.5,0-0.9,0-1.4,0.1c-5.1,0.8-8.7,5.3-8.8,10.3
							c0,0,0,0,0,0.1c0,0,0,0,0,0.1c0,0.5,0,1.1,0.1,1.6c0.8,5.1,5.3,8.8,10.3,8.8l0,0l0,0c0.5,0,1.1,0,1.7-0.1
							C167.4,148.5,171.1,144,171.1,139L171.1,139z M168.4,143.1h-1.8c0.3-1,0.4-2.1,0.5-3.3h2.3C169.3,141,168.9,142.1,168.4,143.1
							z M152.9,134.8h1.8c-0.3,1-0.4,2.1-0.5,3.3h-2.3C152.1,136.9,152.4,135.8,152.9,134.8z M165.3,137.5c0,0.2,0,0.4,0,0.6h-3.8
							v-3.3h3.3C165,135.7,165.2,136.6,165.3,137.5z M161.5,133.1v-2.8c0.2,0.1,0.5,0.2,0.7,0.4c0.7,0.5,1.4,1.4,1.9,2.4
							L161.5,133.1L161.5,133.1z M159.8,130.4v2.8h-2.6C157.9,131.7,158.8,130.7,159.8,130.4z M159.8,134.8v3.3H156
							c0.1-1.2,0.3-2.3,0.6-3.3H159.8z M152,140.4c0-0.2,0-0.4-0.1-0.6h2.3c0,0.3,0,0.5,0,0.8c0.1,0.9,0.2,1.7,0.4,2.5h-1.8
							C152.5,142.3,152.2,141.4,152,140.4z M156,140.4c0-0.2,0-0.4,0-0.6h3.8v3.3h-3.3C156.3,142.3,156.1,141.4,156,140.4z
							 M159.8,144.8v2.8c-0.2-0.1-0.5-0.2-0.7-0.4c-0.7-0.5-1.4-1.4-1.9-2.4L159.8,144.8L159.8,144.8z M161.5,147.6v-2.8h2.6
							C163.5,146.2,162.6,147.2,161.5,147.6z M161.5,143.1v-3.3h3.8c-0.1,1.2-0.3,2.3-0.6,3.3H161.5z M167,138.1c0-0.3,0-0.5,0-0.8
							c-0.1-0.9-0.2-1.7-0.4-2.5h1.8c0.5,0.8,0.8,1.8,0.9,2.7c0,0.2,0,0.4,0.1,0.6H167L167,138.1z M167.2,133.1H166
							c-0.2-0.6-0.5-1.2-0.9-1.7c0.2,0.1,0.4,0.3,0.7,0.4C166.3,132.2,166.8,132.7,167.2,133.1z M156.2,131.4
							c-0.3,0.5-0.6,1.1-0.9,1.7h-1.2C154.7,132.5,155.4,131.9,156.2,131.4z M154.1,144.8h1.2c0.3,0.6,0.5,1.2,0.9,1.7
							C155.4,146.1,154.7,145.5,154.1,144.8z M165.1,146.5c0.3-0.5,0.6-1.1,0.9-1.7h1.2C166.6,145.5,165.9,146,165.1,146.5z"/>
					</g>
					<g>
						
							<ellipse transform="matrix(0.2288 -0.9735 0.9735 0.2288 171.2459 388.7462)" class="st3" cx="331" cy="86.3" rx="10.1" ry="10.1"/>
						<path class="st4" d="M337.7,86.2L337.7,86.2c0-0.4,0-0.7-0.1-1.1c-0.3-1.8-1.3-3.3-2.7-4.4c-1.1-0.8-2.4-1.2-3.8-1.3H331l0,0
							l0,0c-0.1,0-0.1,0-0.2,0c-0.3,0-0.6,0-0.9,0.1c-3.3,0.5-5.6,3.4-5.7,6.6l0,0l0,0c0,0.3,0,0.7,0.1,1c0.5,3.3,3.4,5.7,6.6,5.7
							l0,0l0,0c0.4,0,0.7,0,1.1-0.1C335.3,92.3,337.7,89.5,337.7,86.2L337.7,86.2z M335.9,88.9h-1.2c0.2-0.7,0.3-1.4,0.3-2.1h1.5
							C336.5,87.5,336.2,88.2,335.9,88.9z M325.9,83.5h1.2c-0.2,0.7-0.3,1.4-0.3,2.1h-1.5C325.4,84.9,325.6,84.2,325.9,83.5z
							 M333.9,85.3c0,0.1,0,0.3,0,0.4h-2.5v-2.1h2.1C333.7,84.1,333.9,84.6,333.9,85.3z M331.5,82.4v-1.8c0.2,0.1,0.3,0.1,0.5,0.2
							c0.5,0.3,0.9,0.9,1.2,1.6L331.5,82.4L331.5,82.4z M330.4,80.6v1.8h-1.7C329.1,81.5,329.7,80.9,330.4,80.6z M330.4,83.5v2.1
							h-2.5c0-0.8,0.2-1.5,0.4-2.1H330.4z M325.3,87.1c0-0.1,0-0.2,0-0.4h1.5c0,0.2,0,0.3,0,0.5c0.1,0.6,0.1,1.1,0.3,1.6h-1.2
							C325.7,88.3,325.4,87.7,325.3,87.1z M327.9,87.1c0-0.1,0-0.3,0-0.4h2.5v2.1h-2.1C328.1,88.3,328,87.8,327.9,87.1z M330.4,90
							v1.8c-0.2-0.1-0.3-0.1-0.5-0.2c-0.5-0.3-0.9-0.9-1.2-1.6C328.7,90,330.4,90,330.4,90z M331.5,91.7V90h1.7
							C332.7,90.9,332.1,91.5,331.5,91.7z M331.5,88.9v-2.1h2.5c0,0.8-0.2,1.5-0.4,2.1H331.5z M335,85.6c0-0.2,0-0.3,0-0.5
							c-0.1-0.6-0.1-1.1-0.3-1.6h1.2c0.3,0.5,0.5,1.1,0.6,1.8c0,0.1,0,0.2,0,0.4H335V85.6z M335.1,82.4h-0.8
							c-0.2-0.4-0.3-0.8-0.6-1.1c0.1,0.1,0.3,0.2,0.4,0.3C334.6,81.9,334.9,82.1,335.1,82.4z M328,81.3c-0.2,0.3-0.4,0.7-0.6,1.1
							h-0.8C327.1,82,327.5,81.6,328,81.3z M326.7,90h0.8c0.2,0.4,0.3,0.8,0.6,1.1C327.5,90.8,327.1,90.4,326.7,90z M333.8,91.1
							c0.2-0.3,0.4-0.7,0.6-1.1h0.8C334.8,90.4,334.3,90.8,333.8,91.1z"/>
					</g>
					<g>
						<ellipse class="st6" cx="387.4" cy="187.9" rx="16.8" ry="16.8"/>
						<g>
							<path class="st4" d="M395.4,180.5h-15.8c-1.7,0-3,1.4-3,3v8.2c0,1.7,1.4,3,3,3h11.6l-0.1,2.9l2.9-2.9h1.4c1.7,0,3-1.4,3-3
								v-8.2C398.4,181.8,397,180.5,395.4,180.5z M379.2,184c0-0.5,0.4-0.8,0.8-0.8h3.6c0.5,0,0.8,0.4,0.8,0.8
								c0,0.5-0.4,0.8-0.8,0.8H380C379.6,184.8,379.2,184.4,379.2,184z M394.5,191.9h-6.3c-0.5,0-0.8-0.4-0.8-0.8
								c0-0.5,0.4-0.8,0.8-0.8h6.3c0.5,0,0.8,0.4,0.8,0.8S394.9,191.9,394.5,191.9z M394.5,188.3h-13.6c-0.5,0-0.8-0.4-0.8-0.8
								c0-0.5,0.4-0.8,0.8-0.8h13.6c0.5,0,0.8,0.4,0.8,0.8C395.3,188,394.9,188.3,394.5,188.3z M394.5,184.8h-8
								c-0.5,0-0.8-0.4-0.8-0.8c0-0.5,0.4-0.8,0.8-0.8h8c0.5,0,0.8,0.4,0.8,0.8C395.3,184.4,394.9,184.8,394.5,184.8z"/>
						</g>
					</g>
					<g>
						<ellipse class="st3" cx="116.1" cy="147.7" rx="12.7" ry="12.7"/>
						<g>
							<path class="st4" d="M121.8,142.7h-11.3c-1.2,0-2.2,1-2.2,2.2v5.9c0,1.2,1,2.2,2.2,2.2h8.3l-0.1,2l2.1-2h1
								c1.2,0,2.2-1,2.2-2.2v-5.9C123.9,143.6,122.9,142.7,121.8,142.7z M110.2,145.2c0-0.3,0.3-0.6,0.6-0.6h2.6
								c0.3,0,0.6,0.3,0.6,0.6s-0.3,0.6-0.6,0.6h-2.6C110.4,145.8,110.2,145.5,110.2,145.2z M121.1,150.8h-4.5
								c-0.3,0-0.6-0.3-0.6-0.6s0.3-0.6,0.6-0.6h4.5c0.3,0,0.6,0.3,0.6,0.6S121.4,150.8,121.1,150.8z M121.1,148.3h-9.7
								c-0.3,0-0.6-0.3-0.6-0.6s0.3-0.6,0.6-0.6h9.7c0.3,0,0.6,0.3,0.6,0.6S121.4,148.3,121.1,148.3z M121.1,145.8h-5.8
								c-0.3,0-0.6-0.3-0.6-0.6s0.3-0.6,0.6-0.6h5.8c0.3,0,0.6,0.3,0.6,0.6S121.4,145.8,121.1,145.8z"/>
						</g>
					</g>
					<g>
						<ellipse class="st2" cx="214" cy="77.5" rx="10.1" ry="10.1"/>
						<g>
							<path class="st4" d="M218.5,73.3h-9.2c-1,0-1.8,0.8-1.8,1.8v4.7c0,1,0.8,1.8,1.8,1.8h6.7v1.7l1.7-1.7h0.8
								c1,0,1.8-0.8,1.8-1.8V75C220.3,74.1,219.5,73.3,218.5,73.3z M209.2,75.3c0-0.3,0.2-0.5,0.5-0.5h2.1c0.3,0,0.5,0.2,0.5,0.5
								s-0.2,0.5-0.5,0.5h-2.1C209.4,75.8,209.2,75.5,209.2,75.3z M218,79.9h-3.7c-0.3,0-0.5-0.2-0.5-0.5s0.2-0.5,0.5-0.5h3.7
								c0.3,0,0.5,0.2,0.5,0.5C218.5,79.7,218.3,79.9,218,79.9z M218,77.8h-7.9c-0.3,0-0.5-0.2-0.5-0.5s0.2-0.5,0.5-0.5h7.9
								c0.3,0,0.5,0.2,0.5,0.5C218.5,77.6,218.3,77.8,218,77.8z M218,75.8h-4.7c-0.3,0-0.5-0.2-0.5-0.5s0.2-0.5,0.5-0.5h4.7
								c0.3,0,0.5,0.2,0.5,0.5C218.5,75.5,218.3,75.8,218,75.8z"/>
						</g>
					</g>
					<g>
						<ellipse class="st5" cx="374" cy="245.4" rx="16.8" ry="16.8"/>
						<g>
							<path class="st4" d="M376.7,242.4c-4.1-1.2-6.6-5.7-6.6-5.7s-1.3-0.1-1.4,1.1c-0.1,2.1,1,3.5,1.7,4.2l-2-0.1
								c-0.7,0-1.4,0-2.1,0.2l-0.7,0.2c-1.1,0.3-1.8,1.5-1.5,2.6l0.9,3.8c0.3,1.2,1.1,2.3,2.1,2.9c0.9,0.6,2.1,0.8,3.2,0.6
								c2-0.3,5.1-0.7,5.6-0.8l0,0l1.4-0.1l0.5-8.6L376.7,242.4z"/>
							<path class="st3" d="M383.1,252.5h-5.5c-0.4,0-0.8-0.4-0.8-0.8V242c0-0.4,0.4-0.8,0.8-0.8h5.5c0.4,0,0.8,0.4,0.8,0.8v9.7
								C383.8,252.1,383.5,252.5,383.1,252.5z"/>
						</g>
					</g>
					<g>
						<ellipse class="st6" cx="103.9" cy="192" rx="12.7" ry="12.7"/>
						<g>
							<path class="st4" d="M105.4,189.9c-3-0.9-4.9-4.2-4.9-4.2s-1-0.1-1,0.8c-0.1,1.5,0.7,2.6,1.2,3.1l-1.4-0.1
								c-0.5,0-1,0-1.5,0.2l-0.5,0.1c-0.8,0.2-1.3,1.1-1.1,1.9l0.7,2.8c0.2,0.9,0.8,1.7,1.6,2.2c0.7,0.4,1.5,0.6,2.3,0.5
								c1.5-0.2,3.8-0.6,4.2-0.6l0,0l1-0.1l0.4-6.3L105.4,189.9z"/>
							<path class="st3" d="M110.1,197.3h-4c-0.3,0-0.6-0.3-0.6-0.6v-7.2c0-0.3,0.3-0.6,0.6-0.6h4c0.3,0,0.6,0.3,0.6,0.6v7.2
								C110.7,197.1,110.4,197.3,110.1,197.3z"/>
						</g>
					</g>
					<g>
						<ellipse class="st3" cx="195" cy="105.7" rx="12.7" ry="12.7"/>
						<g>
							<path class="st4" d="M197,103.6c-3-0.9-4.9-4.2-4.9-4.2s-1-0.1-1,0.8c-0.1,1.5,0.7,2.6,1.2,3.1l-1.4-0.1c-0.5,0-1,0-1.5,0.2
								l-0.5,0.1c-0.8,0.2-1.3,1.1-1.1,1.9l0.7,2.8c0.2,0.9,0.8,1.7,1.6,2.2c0.7,0.4,1.5,0.6,2.3,0.5c1.5-0.2,3.8-0.6,4.2-0.6l0,0
								l1-0.1l0.4-6.3L197,103.6z"/>
							<path class="st2" d="M201.7,111h-4c-0.3,0-0.6-0.3-0.6-0.6v-7.2c0-0.3,0.3-0.6,0.6-0.6h4c0.3,0,0.6,0.3,0.6,0.6v7.2
								C202.3,110.7,202,111,201.7,111z"/>
						</g>
					</g>
					<g>
						
							<ellipse transform="matrix(0.1602 -0.9871 0.9871 0.1602 111.6242 327.1985)" class="st6" cx="248.1" cy="98" rx="16.8" ry="16.8"/>
						<path class="st4" d="M255.1,91.3h-13.8c-1.4,0-2.5,1.1-2.5,2.5v8.5c0,1.4,1.1,2.5,2.5,2.5h13.8c1.4,0,2.5-1.1,2.5-2.5v-8.5
							C257.6,92.4,256.5,91.3,255.1,91.3z M245.9,101.6v-7.1l6.2,3.6L245.9,101.6z"/>
					</g>
					<g>
						<circle class="st3" cx="385.4" cy="150.2" r="10.1"/>
						<path class="st4" d="M389.8,146.1h-8.4c-0.8,0-1.5,0.7-1.5,1.5v5.2c0,0.8,0.7,1.5,1.5,1.5h8.4c0.8,0,1.5-0.7,1.5-1.5v-5.2
							C391.3,146.8,390.6,146.1,389.8,146.1z M384.2,152.4v-4.3l3.7,2.2L384.2,152.4z"/>
					</g>
					<g>
						<ellipse class="st5" cx="156.6" cy="249.6" rx="10.1" ry="10.1"/>
						<path class="st4" d="M160.8,245.5h-8.4c-0.8,0-1.5,0.7-1.5,1.5v5.2c0,0.8,0.7,1.5,1.5,1.5h8.4c0.8,0,1.5-0.7,1.5-1.5V247
							C162.3,246.2,161.6,245.5,160.8,245.5z M155.2,251.7v-4.3l3.7,2.2L155.2,251.7z"/>
					</g>
					<g>
						
							<ellipse transform="matrix(0.7071 -0.7071 0.7071 0.7071 -35.1114 302.0851)" class="st6" cx="347.1" cy="193.4" rx="12.7" ry="12.7"/>
						<path class="st4" d="M347.1,185.8c-4.2,0-7.6,3.4-7.6,7.6c0,3.6,2.5,6.6,5.8,7.4l1.7,2.2l1.7-2.2l0,0c3.3-0.8,5.8-3.8,5.8-7.4
							C354.7,189.1,351.3,185.8,347.1,185.8z M347.1,196.5c-1.7,0-3.2-1.4-3.2-3.2s1.4-3.2,3.2-3.2s3.2,1.4,3.2,3.2
							S348.9,196.5,347.1,196.5z"/>
					</g>
					<g>
						<ellipse class="st5" cx="303.3" cy="105.7" rx="12.7" ry="12.7"/>
						<path class="st4" d="M303.3,98c-4.2,0-7.6,3.4-7.6,7.6c0,3.6,2.5,6.6,5.8,7.4l1.7,2.2l1.7-2.2l0,0c3.3-0.8,5.8-3.8,5.8-7.4
							C310.9,101.4,307.5,98,303.3,98z M303.3,108.8c-1.7,0-3.2-1.4-3.2-3.2c0-1.7,1.4-3.2,3.2-3.2s3.2,1.4,3.2,3.2
							S305,108.8,303.3,108.8z"/>
					</g>
				</g>
			</g>
			<g>
				<g>
					<path class="st7" d="M207.4,339.9c-0.2,0.8-0.3,1.4-0.4,2.1l-0.5,2c-0.3,1.3-0.7,2.6-1.1,3.9c-0.8,2.6-1.7,5.1-2.7,7.6
						c-0.9,2.5-2,4.9-3.1,7.3c-0.5,1.2-1.1,2.4-1.7,3.6l-0.4,0.9l-0.2,0.5c-0.1,0.2-0.2,0.5-0.4,0.7c-0.5,0.9-1.2,1.7-1.9,2.4
						c-1.4,1.4-2.9,2.3-4.3,3c-1.4,0.7-2.9,1.2-4.3,1.7c-2.8,0.8-5.6,1.3-8.3,1.6c-5.5,0.6-10.7,0.5-16.1,0l0.1-5
						c2.4-0.3,5-0.5,7.5-1c2.5-0.4,4.9-0.8,7.3-1.4c2.4-0.6,4.7-1.2,6.8-2.1c2.1-0.8,3.9-2,4.8-3c0.2-0.2,0.3-0.5,0.4-0.7l0.5-1.4
						c0.5-1.2,0.9-2.4,1.3-3.5c0.9-2.4,1.7-4.7,2.5-7.1s1.6-4.8,2.3-7.1c0.4-1.2,0.7-2.4,1-3.6l0.5-1.8l0.4-1.6L207.4,339.9z"/>
					<path class="st8" d="M200.6,327.4c-4,1-6.8,17.6-6.8,17.6l11.1,7.5c0,0,10.6-16.7,7.5-21.1
						C209.2,326.8,206.5,325.9,200.6,327.4z"/>
					<path class="st9" d="M200.2,333.4l8.6,2l0.8,8.4c-2.3,4.6-4.8,8.7-4.8,8.7l-6.7-4.6C198.4,344.1,199.1,336,200.2,333.4z"/>
					<path class="st4" d="M206.1,351c-0.1,0-0.1,0-0.1,0l-11.8-8c-0.1-0.1-0.2-0.2-0.1-0.4c0.1-0.1,0.2-0.2,0.4-0.1l11.8,8
						c0.1,0.1,0.2,0.2,0.1,0.4C206.2,351,206.1,351,206.1,351z"/>
					<path class="st7" d="M163.5,372.2l-6.9-7l-0.9,9.9c0,0,5.2,3.5,8.8,1.6L163.5,372.2z"/>
					<polygon class="st7" points="148.5,364.1 148.2,372.4 155.7,375.1 156.6,365.2 					"/>
					<path class="st8" d="M200.6,327.4c0,0-4.7,1.6,4.7,58.9c15.7,0,32,0,39.7,0c-0.7-16.1-0.7-26.1,7-59.2c0,0-8.3-1.8-16.8-2.2
						c-6.7-0.3-12.1-0.5-18,0C209.4,325.6,200.6,327.4,200.6,327.4z"/>
					<path class="st9" d="M242.6,342.5l5.1,4.4c-1.1,5.8-1.8,10.6-2.3,14.9C244.5,357.4,242.1,345.8,242.6,342.5z"/>
					<path class="st8" d="M246.7,314.9c-3.1-5.4-6.2-12-3.3-21.1c3.3-10.5,1.5-15.7-0.6-18.2c-1.9-2.3-4.9-3.3-8.5-2.9
						c-3.4,0.1-5.1,2.4-5.1,2.4s-15.5,1.3-25.4,12.7c3.2,9.3-1.4,20.6-7.3,24.9c18.8,15.9,38.9,10.9,45.5,8c3.2-1.4,4.3-3.4,3.6-6.6
						c0.2,0.3,0.4,0.6,0.5,1c0,0.1,0.1,0.1,0.2,0.1h0.1C246.7,315.2,246.7,315.1,246.7,314.9z M242.4,276c0.8,1,1.6,2.4,2,4.5
						c-1.2-3.8-4.4-6.1-7.1-7.2C239.5,273.6,241.2,274.5,242.4,276z M242.2,293.1c1-1.7,1.6-3.3,2.1-4.8c-0.3,1.6-0.7,3.4-1.4,5.4
						c-1.5,4.8-1.4,8.9-0.6,12.5C240.7,302,239.9,297.3,242.2,293.1z"/>
					<path class="st4" d="M238.1,302.8c0,0.7-0.6,1.3-1.3,1.3s-1.3-0.6-1.3-1.3s0.6-1.3,1.3-1.3S238.1,302.2,238.1,302.8z"/>
					<path class="st4" d="M222.8,334.2c-1.9,0-7.6,0-9.6-4.1c-0.9-1.9-0.6-3.7-0.1-4.9c0.1-0.1,0.2-0.2,0.3-0.2s0.2,0.2,0.2,0.3
						c-0.4,1.1-0.7,2.8,0.1,4.5c1.8,3.8,7.3,3.8,9.1,3.8c12.8,0,15.1-7.7,15.2-8l0.2-0.6c0-0.1,0.2-0.2,0.3-0.2s0.2,0.2,0.2,0.3
						l-0.2,0.6C238.3,326.1,236,334.2,222.8,334.2z"/>
					<path class="st7" d="M233.3,304.6c-1.1,5.8-2.3,16.4,1.8,20.3c0,0-1.6,5.9-12.4,5.9c-10.4,0-5.7-5.9-5.7-5.9
						c6.5-1.5,6.3-6.3,5.2-10.8L233.3,304.6z"/>
					<path class="st10" d="M228.8,308.4l-6.5,5.6c0.3,1.1,0.5,2.1,0.6,3.2c2.5-0.4,5.9-3.1,6.1-5.7C229.1,310.3,229,309,228.8,308.4
						z"/>
					<path class="st7" d="M234,289.3c1.1,9.6,1.8,13.7-2.1,19.4c-5.9,8.6-18,7.9-22-1.2c-3.6-8.2-4.8-22.6,3.8-28
						C222.3,274.2,232.9,279.7,234,289.3z"/>
					<path class="st8" d="M224.8,281.1c-2.2,4.2-18.2,9.3-25.8,8.8c0,0,2.2-1.2,3-2.2c0-3.3,0-10.5,4.9-14.6
						c8.1-6.7,16.4-6,21.4-4.5c2.9,0.8,5.3,3.1,6.2,6l0.5,1.7L224.8,281.1z"/>
					<path class="st8" d="M228.2,277.8l-4.3,2.4c0,0-2.8,14.9,10.9,14.5C234.8,294.7,234.7,280,228.2,277.8z"/>
					<path class="st7" d="M238.1,296.1c-0.2,2-1.3,3.7-2.5,4.8c-1.9,1.6-3.8,0.2-4-2.1c-0.2-2.1,0.5-5.4,2.7-6.1
						C236.5,292,238.3,293.8,238.1,296.1z"/>
					<path class="st3" d="M268.9,397.5c-1-12.8-19.3-12.2-31.6-10.6c-0.6,0.1-1.1,0.2-1.7,0.2c-0.4-0.8-1.2-1.2-2.7-0.9
						c-10.1-0.2-23.6,0.2-23.6,0.2c-6.4-1.4-18.8-2.2-28.2-2.3c-8.9-0.1-21.3,0-27.8,1.9c-5.7,1.6-11.5,2.8-12.6,8s0.1,17.6,10.4,20
						c11.4,2.7,25.1,3.7,37.3,5.8c0,0,1.3-4.3,3.3-10.2l0.2,0.1h0.1c3.4,0.5,6.9,0.6,10.3,0.4c2.2-0.2,4.2,1.4,4.6,3.6l0,0
						c0.9,5.2,6.1,11.2,30.1,10.5C261.1,423.5,269.9,410.3,268.9,397.5z"/>
					<path class="st8" d="M189.8,418.2l2.8-10.6c0.1-0.4,0.5-0.6,0.8-0.6l8.7,1c0.9,0.1,1.5,1.1,1.3,2c-1,3.7-1.7,5.4-3,10.1
						c-0.8,2.9-2,8.9-3.1,12.8c-1,3.9-5,3.1-4.9,1.4c0.4-7.8-1-11.3-2.5-14.4C189.7,419.4,189.6,418.8,189.8,418.2z"/>
					<path class="st11" d="M188.6,424.5c-0.2,0-0.3,0-0.5-0.1s-0.4-0.3-0.5-0.5c-0.3-1.3,2.6-4.5,2.9-4.9c0-0.1,0.1-0.1,0.2,0
						c0.1,0,0.1,0.1,0.1,0.2c-0.1,1.6-0.4,4.4-1.6,5.1C189.1,424.4,188.9,424.5,188.6,424.5z M190.5,419.6c-1,1.1-2.7,3.4-2.5,4.2
						c0,0.1,0.1,0.2,0.2,0.3c0.3,0.1,0.6,0.1,0.8-0.1C189.8,423.6,190.3,421.9,190.5,419.6z"/>
					<polygon class="st2" points="189.8,420.1 193.4,406.4 188.6,404.4 181.8,419.2 					"/>
					<path class="st11" d="M186.9,421.5c-0.2,0-0.3,0-0.4-0.1c-0.2-0.1-0.5-0.3-0.4-0.9c0.1-0.5,0.3-0.8,0.7-1.1
						c1.3-0.9,3.9-0.5,4-0.4c0.1,0,0.1,0,0.1,0.1s0,0.1,0,0.2C190.1,420.1,188,421.5,186.9,421.5z M189.2,419.2
						c-0.8,0-1.6,0.1-2.2,0.5c-0.3,0.2-0.5,0.5-0.6,0.9c-0.1,0.5,0.1,0.6,0.2,0.6c0.7,0.3,2.8-0.9,3.8-1.9
						C190.1,419.2,189.7,419.2,189.2,419.2z"/>
					<path class="st8" d="M211.3,420.4l2.8-10.6c0.1-0.4-0.1-0.8-0.4-0.9l-8.1-3.4c-0.8-0.4-1.9,0.2-2.1,1.1
						c-0.9,3.7-1.2,5.6-2.4,10.2c-0.8,2.9-2.6,8.7-3.7,12.7c-1,3.9,2.8,5.2,3.6,3.7c3.6-7,6.5-9.3,9.3-11.2
						C210.8,421.5,211.1,421,211.3,420.4z"/>
					<path class="st11" d="M209.8,426.6h-0.1c-0.4-0.1-0.7-0.3-0.9-0.7c-0.6-1.2,0.5-3.8,1.2-5.3c0-0.1,0.1-0.1,0.2-0.1
						c0.1,0,0.1,0.1,0.1,0.1c0.1,0.5,1,4.7,0.1,5.7C210.2,426.6,210,426.6,209.8,426.6z M210,421.3c-0.5,1.2-1.5,3.5-1,4.5
						c0.1,0.3,0.4,0.4,0.7,0.5c0.1,0,0.3,0,0.3-0.1C210.7,425.6,210.3,422.8,210,421.3z"/>
					<path class="st11" d="M212.7,424.9C212.6,424.9,212.6,424.9,212.7,424.9c-1.2-0.1-2.6-2.8-2.8-4.1c0-0.1,0-0.1,0.1-0.2
						c0,0,0.1,0,0.2,0c0.1,0,2.6,0.9,3.2,2.3c0.2,0.4,0.2,0.9,0.1,1.3C213.2,424.8,212.9,424.9,212.7,424.9z M210.3,421
						c0.4,1.4,1.6,3.4,2.4,3.5c0.1,0,0.3,0,0.4-0.4c0.1-0.3,0.1-0.7,0-1C212.5,422.1,210.9,421.3,210.3,421z"/>
					<polygon class="st2" points="210.9,420.3 213.2,407.5 218.8,407.3 218.3,423.6 					"/>
					<path class="st8" d="M220,294.6c0.1,0.8-0.2,1.5-0.7,1.6s-1-0.5-1.2-1.2c-0.1-0.8,0.2-1.5,0.7-1.6
						C219.4,293.2,219.9,293.8,220,294.6z"/>
					<path class="st8" d="M211.3,296.1c0.1,0.8-0.2,1.5-0.7,1.6s-1-0.5-1.2-1.2c-0.1-0.8,0.2-1.5,0.7-1.6S211.1,295.4,211.3,296.1z"
						/>
					<path class="st8" d="M210.3,294.9l-2-0.2C208.4,294.7,209.6,296,210.3,294.9z"/>
					<path class="st12" d="M213.8,297.1c0,0-0.7,3.6-1.9,5.4c1.2,0.8,2.9,0,2.9,0L213.8,297.1z"/>
					<path class="st8" d="M218.8,304.7c-0.1,0-0.1,0-0.1-0.1s0-0.2,0.1-0.2c2.4-0.8,3.4-3.2,3.5-3.3c0-0.1,0.1-0.1,0.2-0.1
						c0.1,0,0.1,0.1,0.1,0.2C222.4,301.3,221.4,303.8,218.8,304.7L218.8,304.7z"/>
					<path class="st8" d="M221.1,289.6c-0.1,0-0.1,0-0.2-0.1c-1.6-1.4-3.3-0.9-3.4-0.9c-0.2,0-0.3,0-0.4-0.2c0-0.2,0-0.3,0.2-0.4
						c0.1,0,2.1-0.6,3.9,1c0.1,0.1,0.1,0.3,0,0.4C221.3,289.6,221.2,289.6,221.1,289.6z"/>
					<path class="st8" d="M206.3,292.9c-0.1,0-0.1,0-0.2-0.1c-0.1-0.1-0.2-0.3-0.1-0.4c1.4-2,3.5-2,3.6-2c0.2,0,0.3,0.1,0.3,0.3
						c0,0.2-0.2,0.3-0.3,0.3s-1.8,0-3,1.7C206.5,292.9,206.4,292.9,206.3,292.9z"/>
					<path class="st8" d="M219.1,293.3l-2-0.2C217.2,293.1,218.4,294.4,219.1,293.3z"/>
					<path class="st2" d="M245.5,384l0.3,3.5c0.1,0.3-0.2,0.6-0.6,0.6h-40.1c-0.4,0-0.7-0.2-0.7-0.4l-0.4-3.5c0-0.2,0.3-0.5,0.7-0.5
						h40.2C245.2,383.7,245.4,383.8,245.5,384z"/>
					<path class="st8" d="M240.1,388.5h1.1c0.2,0,0.4-0.1,0.4-0.2l-0.5-4.6c0-0.1-0.2-0.2-0.4-0.2h-1.1c-0.2,0-0.4,0.1-0.4,0.2
						l0.5,4.6C239.7,388.4,239.9,388.5,240.1,388.5z"/>
					<path class="st8" d="M208.1,388.5h1.1c0.2,0,0.4-0.1,0.4-0.2l-0.5-4.6c0-0.1-0.2-0.2-0.4-0.2h-1.1c-0.2,0-0.4,0.1-0.4,0.2
						l0.5,4.6C207.7,388.4,207.9,388.5,208.1,388.5z"/>
					<path class="st8" d="M224.1,388.5h1.1c0.2,0,0.4-0.1,0.4-0.2l-0.5-4.6c0-0.1-0.2-0.2-0.4-0.2h-1.1c-0.2,0-0.4,0.1-0.4,0.2
						l0.5,4.6C223.7,388.4,223.9,388.5,224.1,388.5z"/>
				</g>
				<g>
					<polygon class="st6" points="134.2,358.9 203.8,358.9 213.9,400 144.3,400 					"/>
					<polygon class="st6" points="169.5,392.3 212,402.3 239.4,394.6 239.1,392.3 					"/>
					<path class="st7" d="M255.7,338c1,2.9,1.9,5.8,2.7,8.7c0.8,2.9,1.6,5.9,2.3,8.8c0.7,3,1.3,6,1.7,9.1c0.2,1.6,0.4,3.2,0.5,4.8
						c0,0.8,0.1,1.7,0,2.6v0.7v0.4v0.5c-0.1,0.7-0.2,1.3-0.4,2c-0.8,2.5-2.3,4.1-3.6,5.5c-1.4,1.3-2.8,2.3-4.3,3.2
						c-2.9,1.7-5.8,3-8.7,4.1c-5.9,2.2-11.7,3.7-17.8,4.7l-1.2-4.9c5.4-2,10.9-4.2,16-6.8c2.5-1.3,5-2.7,7.1-4.2
						c1-0.8,2-1.6,2.7-2.4s1.1-1.6,1.2-1.9c0,0.1,0-1.5-0.2-2.7c-0.2-1.3-0.4-2.6-0.7-4c-0.5-2.7-1.2-5.5-2-8.3
						c-0.7-2.8-1.6-5.6-2.4-8.4c-0.8-2.8-1.7-5.6-2.5-8.3L255.7,338z"/>
					<path class="st8" d="M252,327.1c4,1.2,10.1,16.8,10.1,16.8l-15.4,11c0,0-6.9-13.3-5.3-18.5C243.1,331.1,247.4,325.7,252,327.1z
						"/>
					<path class="st4" d="M245.7,353.3c-0.1,0-0.2,0-0.2-0.1c-0.1-0.1-0.1-0.3,0.1-0.4l15.5-11.1c0.1-0.1,0.3-0.1,0.4,0.1
						c0.1,0.1,0.1,0.3-0.1,0.4l-15.5,11.1C245.8,353.3,245.7,353.3,245.7,353.3z"/>
					<path class="st7" d="M228.9,388.7l-9.3-2.3l4.4,8.9c0,0,6.3,0.3,8.3-3.2L228.9,388.7z"/>
					<polygon class="st7" points="212.1,389.7 216.2,396.9 224,395.2 219.6,386.3 					"/>
					<polygon class="st2" points="132.1,358.9 201.7,358.9 211.8,400 142.2,400 					"/>
					<polygon class="st2" points="142.2,400 142.4,402.3 212,402.3 211.8,400 					"/>
				</g>
			</g>
		</g>
	</g>
</g>
</svg>
