<?xml version="1.0" encoding="utf-8"?>
<!-- Generator: Adobe Illustrator 26.0.1, SVG Export Plug-In . SVG Version: 6.00 Build 0)  -->
<svg version="1.1" id="Illustration" xmlns="http://www.w3.org/2000/svg" xmlns:xlink="http://www.w3.org/1999/xlink" x="0px"
	 y="0px" viewBox="0 0 3710 3710" style="enable-background:new 0 0 3710 3710;" xml:space="preserve">
<style type="text/css">
	.st0{fill:url(#SVGID_1_);}
	.st1{fill:#91B3FA;}
	.st2{fill:#7D97F4;}
	.st3{fill:url(#SVGID_00000161594516616427266980000008119892754392509883_);}
	.st4{fill:url(#SVGID_00000129922164378143655090000003515441840243485316_);}
	.st5{fill:url(#SVGID_00000098923156733313035030000000071369387472456839_);}
	.st6{opacity:0.61;}
	.st7{fill:#FFFFFF;}
	.st8{opacity:0.74;}
	.st9{fill:url(#SVGID_00000022549639679367259180000008919665518821116560_);}
	.st10{fill:url(#SVGID_00000159450777349905401390000005879388228179954603_);}
	.st11{fill:url(#SVGID_00000012466063634317518030000004654514048687587496_);}
	.st12{fill:url(#SVGID_00000146475120097873474530000014752405528734830990_);}
	.st13{fill:url(#SVGID_00000047764365939212102180000007786496277859975808_);}
	.st14{fill:url(#SVGID_00000083771732146903088940000004962676914111939517_);}
	.st15{fill:url(#SVGID_00000051372802125966438590000000226356881066561436_);}
	.st16{fill:url(#SVGID_00000111907507811482618940000002096935901751893404_);}
	.st17{fill:url(#SVGID_00000075850181010740750540000009787500245540655794_);}
	.st18{fill:url(#SVGID_00000082346946922056598860000009954846566130243472_);}
	.st19{fill:url(#SVGID_00000131341091352189243290000005508641647691499935_);}
	.st20{fill:url(#SVGID_00000044856459849251448010000005330844366214325177_);}
	.st21{fill:url(#SVGID_00000033341476682247631590000010323017847594398094_);}
	.st22{fill:url(#SVGID_00000116933187673205775760000009402848077534391977_);}
	.st23{fill:url(#SVGID_00000075161836500745144620000017346348247369360258_);}
	.st24{fill:url(#SVGID_00000132783083557826152290000015731001619763205305_);}
	.st25{fill:url(#SVGID_00000127723811354509306220000005914688169737796788_);}
	.st26{fill:url(#SVGID_00000078729450082844540750000017510142721925022370_);}
	.st27{fill:url(#SVGID_00000134229161445939977260000009159330794771497146_);}
	.st28{fill:url(#SVGID_00000139291591047173266210000009526220289419219382_);}
	.st29{fill:url(#SVGID_00000157279165135295837550000015071137510564963500_);}
	.st30{opacity:0.23;fill:url(#SVGID_00000137131993578802342230000011289960284951807633_);}
	.st31{fill:url(#SVGID_00000017500617994761387480000000397961900260066192_);}
	.st32{fill:url(#SVGID_00000047025557993325640810000005402426784723783093_);}
	.st33{fill:url(#SVGID_00000000195056176572236860000008076183274565831312_);}
	.st34{fill:url(#SVGID_00000005231002017968885680000018317628476571825808_);}
	.st35{fill:url(#SVGID_00000181052248025508518340000009895232542611517863_);}
	.st36{fill:url(#SVGID_00000170967200546454325430000006287589273462090904_);}
	.st37{fill:url(#SVGID_00000174568091806791477920000000599013871078232223_);}
	.st38{fill:url(#SVGID_00000178896513650744845290000012799372425249142419_);}
	.st39{fill:url(#SVGID_00000002382523494755802270000004383108926312384131_);}
	.st40{fill:url(#SVGID_00000020396728802810163560000001906360982128865687_);}
	.st41{fill:url(#SVGID_00000145770849356616403050000002610969366562912935_);}
	.st42{fill:url(#SVGID_00000160883997704433937240000000639495638961883297_);}
	.st43{fill:url(#SVGID_00000070797725732941537160000008448444341942312610_);}
	.st44{fill:url(#SVGID_00000134220712434804168850000007374581350656756628_);}
	.st45{fill:url(#SVGID_00000142870133616767003790000003924979473448601992_);}
	.st46{fill:url(#SVGID_00000126292259731885433680000017119353736122573737_);}
	.st47{fill:url(#SVGID_00000180356396898922616560000015822335712098706593_);}
	.st48{fill:url(#SVGID_00000062885194288829609580000011632856866381511355_);}
	.st49{fill:url(#SVGID_00000155112600788104597160000006368071333123792554_);}
	.st50{fill:url(#SVGID_00000121255694199069810530000016016448848077065391_);}
	.st51{fill:url(#SVGID_00000082344584668974432300000003718886191294636443_);}
	.st52{fill:url(#SVGID_00000111895109621433629170000008150154377356519606_);}
	.st53{fill:url(#SVGID_00000070835859072416178620000014019708278863559302_);}
	.st54{fill:url(#SVGID_00000146486497813139338890000006783462489352441756_);}
	.st55{fill:url(#SVGID_00000085966679675481306850000011633203132967676050_);}
	.st56{fill:url(#SVGID_00000100358985932548373080000014234896491742123435_);}
	.st57{opacity:0.14;fill:#FFFFFF;}
	.st58{opacity:0.77;fill:#FFFFFF;}
</style>
<g>
	<linearGradient id="SVGID_1_" gradientUnits="userSpaceOnUse" x1="3883.4575" y1="4133.0635" x2="1451.5674" y2="1544.278">
		<stop  offset="0" style="stop-color:#DAE3FE"/>
		<stop  offset="1" style="stop-color:#E9EFFD"/>
	</linearGradient>
	<path class="st0" d="M3131.2,3113.9c-88.4,93.8-167.4,148.9-228,190.5c-590.4,405.9-1267.3,357.8-1475.9,317.8
		c-336.6-64.5-618.7-178.9-862.9-406C9.6,2700.1,36.6,1623.4,460.5,956.4c50.3-79.1,473.5-725.2,1149.8-816.2
		c16.5-2.2,28.9-3.5,39.7-4.7c104.6-11.4,753-71.6,1281.6,384.5c75.7,65.3,210.3,175.1,310.4,362.7
		C3600.1,1553.8,3656.3,2556.5,3131.2,3113.9z"/>
	<g>
		<g>
			<path class="st1" d="M3101.3,1555.4c-1-4.5-2-9-3.1-13.5c-159.8-677.6-828.7-1092.1-1494-925.7l292.6,1240.4L3101.3,1555.4z"/>
			<path class="st1" d="M1893.2,1851.9l1172.6,414.6c72.9-217.8,89.4-458.6,35.7-699.7c-1.7-7.6-3.5-15.1-5.3-22.7L1893.2,1851.9z"
				/>
			<path class="st2" d="M1896.8,1856.7l238.3,1252.7c7.6-1.5,15.3-3.1,22.9-4.8c440.1-97.7,774.8-424.8,911.4-833.3L1896.8,1856.7z"
				/>
			
				<linearGradient id="SVGID_00000124151778791686081380000008744929641603443349_" gradientUnits="userSpaceOnUse" x1="1301.6746" y1="316.5133" x2="938.2778" y2="3223.6941">
				<stop  offset="0" style="stop-color:#FF928E"/>
				<stop  offset="1" style="stop-color:#FE7062"/>
			</linearGradient>
			<path style="fill:url(#SVGID_00000124151778791686081380000008744929641603443349_);" d="M1744.4,1753.3L1497,518.4
				c-559.5,118.9-952.5,608.9-986.8,1169l1227.4,74C1741.9,1761.7,1745.3,1757.7,1744.4,1753.3z"/>
			
				<linearGradient id="SVGID_00000117665625157053769760000002705313581620156337_" gradientUnits="userSpaceOnUse" x1="3817.6599" y1="3603.0786" x2="1494.7703" y2="2354.2134">
				<stop  offset="0" style="stop-color:#4F52FF"/>
				<stop  offset="1" style="stop-color:#4042E2"/>
			</linearGradient>
			<path style="fill:url(#SVGID_00000117665625157053769760000002705313581620156337_);" d="M1897.6,1851.4L660.7,1809
				c-5.3,111.6,4.5,205.1,29.1,319.4c115.1,533.3,538.8,913.9,1034.7,986.9L1897.6,1851.4z"/>
			
				<linearGradient id="SVGID_00000013915040036906516840000003576192834353428662_" gradientUnits="userSpaceOnUse" x1="2186.6323" y1="2305.9221" x2="3622.1687" y2="794.3877">
				<stop  offset="0" style="stop-color:#4F52FF"/>
				<stop  offset="1" style="stop-color:#4042E2"/>
			</linearGradient>
			<path style="fill:url(#SVGID_00000013915040036906516840000003576192834353428662_);" d="M1714.1,3119.2
				c136.8,21.4,279.4,19.3,422.7-9.5l0,0l-237-1252.9L1714.1,3119.2z"/>
		</g>
		<g class="st6">
			<path class="st7" d="M1454.9,3002.1c-1,0-2.1-0.2-3.1-0.6c-171.2-72.8-325.9-187-447.5-330.3c-125.6-148.1-216-328.1-261.3-520.4
				c-4.1-17.2-7.8-34.7-11.1-52c-0.9-4.6,2-9.1,6.5-10c4.5-0.9,8.8,2.1,9.7,6.7c3.3,17,7,34.3,11,51.3
				c44.8,189.7,133.9,367.2,257.7,513.3c119.9,141.4,272.5,254,441.4,325.8c4.2,1.8,6.2,6.7,4.5,11.1
				C1461.2,3000.1,1458.1,3002.1,1454.9,3002.1z"/>
		</g>
		<g class="st6">
			<path class="st7" d="M2349.7,3007.5c-3.3,0-6.4-2-7.7-5.4c-1.7-4.4,0.4-9.3,4.6-11c306.2-125.1,549.6-379.6,667.8-698.1
				c1.6-4.4,6.4-6.6,10.6-4.9c4.2,1.7,6.4,6.6,4.7,10.9c-119.9,322.9-366.7,580.9-677.1,707.8
				C2351.8,3007.3,2350.7,3007.5,2349.7,3007.5z"/>
		</g>
		<g class="st6">
			<path class="st7" d="M2860.3,1128.5c-2.5,0-5-1.2-6.6-3.4c-147.9-201.8-350-349.4-584.4-426.8c-4.3-1.4-6.7-6.2-5.3-10.7
				c1.4-4.5,6-6.9,10.4-5.5c237.6,78.5,442.5,228.2,592.5,432.7c2.7,3.7,2,9.1-1.6,11.9C2863.7,1127.9,2862,1128.5,2860.3,1128.5z"
				/>
		</g>
		<g class="st8">
			<path class="st7" d="M1184,1681.5c-0.2,0-0.4,0-0.5,0l-629.8-41.8l1.4-9.2c16.6-110,43.8-216.4,85.8-335
				c1.6-4.4,6.3-6.7,10.5-5.1c4.3,1.6,6.5,6.5,4.9,10.9c-40.4,114.3-67.1,217.1-83.6,322.7l611.8,40.6c4.5,0.3,8,4.3,7.7,9
				C1191.9,1678.1,1188.3,1681.5,1184,1681.5z"/>
		</g>
		<g class="st8">
			<path class="st7" d="M1677.9,1714.3c-0.3,0-0.6,0-0.9,0l-128.5-8.6c-4.5-0.3-8-4.3-7.7-9c0.3-4.7,4.3-8.2,8.7-7.9l124.2,8.3
				l-133.6-644.2c-0.9-4.6,1.9-9.1,6.3-10.1c4.4-1,8.8,1.9,9.8,6.5l134.5,648.5c0.9,4.2-0.2,8.5-2.9,11.8
				C1685.4,1712.6,1681.8,1714.3,1677.9,1714.3z M1674.8,1701.4L1674.8,1701.4L1674.8,1701.4z"/>
		</g>
	</g>
	<g>
		<g>
			
				<linearGradient id="SVGID_00000160877612049968311420000008409365803602354846_" gradientUnits="userSpaceOnUse" x1="3163.6592" y1="760.1746" x2="2107.6169" y2="1793.2593">
				<stop  offset="0" style="stop-color:#2B3582"/>
				<stop  offset="1" style="stop-color:#150E42"/>
			</linearGradient>
			<polygon style="fill:url(#SVGID_00000160877612049968311420000008409365803602354846_);" points="1905,1586.1 1899.1,1575 
				2299.3,1349.7 2671.2,1518.1 2990.5,1195.6 2991.2,1195.2 3366.2,967.3 3372.5,978.2 2998.1,1205.7 2673.9,1533.2 2299.9,1363.9 
							"/>
		</g>
		
			<linearGradient id="SVGID_00000049223559728662044730000012131460922546065579_" gradientUnits="userSpaceOnUse" x1="1971.6604" y1="1512.3915" x2="1867.9684" y2="1613.8293">
			<stop  offset="0" style="stop-color:#09005D"/>
			<stop  offset="1" style="stop-color:#1A0F91"/>
		</linearGradient>
		
			<ellipse style="fill:url(#SVGID_00000049223559728662044730000012131460922546065579_);" cx="1902" cy="1580.5" rx="43" ry="44.3"/>
		
			<linearGradient id="SVGID_00000174561209093311880110000012692414421778263207_" gradientUnits="userSpaceOnUse" x1="2369.2424" y1="1288.687" x2="2265.5503" y2="1390.125">
			<stop  offset="0" style="stop-color:#09005D"/>
			<stop  offset="1" style="stop-color:#1A0F91"/>
		</linearGradient>
		
			<ellipse style="fill:url(#SVGID_00000174561209093311880110000012692414421778263207_);" cx="2299.6" cy="1356.8" rx="43" ry="44.3"/>
		
			<linearGradient id="SVGID_00000101793519389972512690000017088741119508863658_" gradientUnits="userSpaceOnUse" x1="2742.2317" y1="1449.0789" x2="2638.5393" y2="1550.517">
			<stop  offset="0" style="stop-color:#09005D"/>
			<stop  offset="1" style="stop-color:#1A0F91"/>
		</linearGradient>
		
			<ellipse style="fill:url(#SVGID_00000101793519389972512690000017088741119508863658_);" cx="2672.6" cy="1517.2" rx="43" ry="44.3"/>
		
			<linearGradient id="SVGID_00000156548504391290065810000007424892300847987900_" gradientUnits="userSpaceOnUse" x1="3053.739" y1="1132.5159" x2="2950.0469" y2="1233.9537">
			<stop  offset="0" style="stop-color:#09005D"/>
			<stop  offset="1" style="stop-color:#1A0F91"/>
		</linearGradient>
		
			<ellipse style="fill:url(#SVGID_00000156548504391290065810000007424892300847987900_);" cx="2984.1" cy="1200.7" rx="43" ry="44.3"/>
		
			<linearGradient id="SVGID_00000010271748475500211690000012881348002261712022_" gradientUnits="userSpaceOnUse" x1="3439.0244" y1="904.5904" x2="3335.3325" y2="1006.0283">
			<stop  offset="0" style="stop-color:#09005D"/>
			<stop  offset="1" style="stop-color:#1A0F91"/>
		</linearGradient>
		
			<ellipse style="fill:url(#SVGID_00000010271748475500211690000012881348002261712022_);" cx="3369.4" cy="972.7" rx="43" ry="44.3"/>
	</g>
	<g>
		<g>
			<g>
				
					<linearGradient id="SVGID_00000134233823413343873380000003255576575167960467_" gradientUnits="userSpaceOnUse" x1="1723.9532" y1="3632.8943" x2="1957.0769" y2="3632.8943" gradientTransform="matrix(1 0 0 1 -1140.7335 0)">
					<stop  offset="0" style="stop-color:#4F52FF"/>
					<stop  offset="1" style="stop-color:#4042E2"/>
				</linearGradient>
				<path style="fill:url(#SVGID_00000134233823413343873380000003255576575167960467_);" d="M809.8,3621.3
					c-39.9,3.6-109.2,9.3-163.9,11.8c-32.8,1.5-51.8-1.8-62.6-6.3c0,1.3,0.1,2.5,0.1,3.6c0.3,5.9,4.9,10.7,10.7,11
					c103.3,5.9,185.4,2.1,214.6,0.2c6-0.4,9.6-7.1,6.6-12.5C813.7,3626.5,811.8,3623.9,809.8,3621.3z"/>
				
					<linearGradient id="SVGID_00000021817999104814584760000005765653609632134833_" gradientUnits="userSpaceOnUse" x1="1723.9399" y1="3585.8445" x2="1950.4939" y2="3585.8445" gradientTransform="matrix(1 0 0 1 -1140.7335 0)">
					<stop  offset="0" style="stop-color:#09005D"/>
					<stop  offset="1" style="stop-color:#1A0F91"/>
				</linearGradient>
				<path style="fill:url(#SVGID_00000021817999104814584760000005765653609632134833_);" d="M645.9,3633.1
					c54.6-2.5,124-8.3,163.9-11.8c-39.3-49.6-163.9-83-163.9-83h-35.2c-24.2,35.9-27.7,70.2-27.4,88.5
					C594.1,3631.3,613,3634.6,645.9,3633.1z"/>
				
					<linearGradient id="SVGID_00000115514085455936602380000005766021518598875312_" gradientUnits="userSpaceOnUse" x1="1745.4761" y1="3520.1565" x2="1811.1421" y2="3520.1565" gradientTransform="matrix(1 0 0 1 -1140.7335 0)">
					<stop  offset="0" style="stop-color:#FEBBBA"/>
					<stop  offset="1" style="stop-color:#FF928E"/>
				</linearGradient>
				<path style="fill:url(#SVGID_00000115514085455936602380000005766021518598875312_);" d="M604.7,3479.1l3.3,67.1
					c0.4,7.3,5.6,13.4,12.7,14.4c7,1,16.5,1.2,26.4-2.3c6.1-2.1,10.7-7.4,11.8-13.9l11.4-65.3H604.7z"/>
			</g>
			<g>
				<g>
					
						<linearGradient id="SVGID_00000159465706492330516190000014871991026512254138_" gradientUnits="userSpaceOnUse" x1="1259.2015" y1="3627.717" x2="1348.5385" y2="3627.717" gradientTransform="matrix(1 0 0 1 -1140.7335 0)">
						<stop  offset="0" style="stop-color:#4F52FF"/>
						<stop  offset="1" style="stop-color:#4042E2"/>
					</linearGradient>
					<path style="fill:url(#SVGID_00000159465706492330516190000014871991026512254138_);" d="M147.6,3632.6
						c-17.3-2.5-25.2-11.8-28.4-21.7c0,0.1,0,0.2-0.1,0.3c-2.5,10.4,3.4,21.3,15.2,26.4c14.3,6.2,29.9,7.3,42,6.8
						c13-0.6,24.9-6.1,31.5-15l0.1-0.1C194.8,3636,176.4,3636.7,147.6,3632.6z"/>
					
						<linearGradient id="SVGID_00000168100489307733359390000005246763396494363534_" gradientUnits="userSpaceOnUse" x1="1259.8516" y1="3556.8818" x2="1390.9805" y2="3556.8818" gradientTransform="matrix(1 0 0 1 -1140.7335 0)">
						<stop  offset="0" style="stop-color:#09005D"/>
						<stop  offset="1" style="stop-color:#1A0F91"/>
					</linearGradient>
					<path style="fill:url(#SVGID_00000168100489307733359390000005246763396494363534_);" d="M229.2,3478.6h-29
						c-44.2-0.9-72,95.1-81.1,132.3c3.3,9.9,11.1,19.2,28.4,21.7c28.9,4.1,47.2,3.4,60.2-3.3c23.9-32.4,35.7-79.8,41.4-107.4
						C255.7,3490.4,229.2,3478.6,229.2,3478.6z"/>
				</g>
				
					<linearGradient id="SVGID_00000181787892509876121140000014513205603343002811_" gradientUnits="userSpaceOnUse" x1="1328.0103" y1="3463.7847" x2="1406.488" y2="3463.7847" gradientTransform="matrix(1 0 0 1 -1140.7335 0)">
					<stop  offset="0" style="stop-color:#FEBBBA"/>
					<stop  offset="1" style="stop-color:#FF928E"/>
				</linearGradient>
				<path style="fill:url(#SVGID_00000181787892509876121140000014513205603343002811_);" d="M203.9,3416.3l-16.1,66
					c-2,8.1,1.8,16.5,9.1,20.3c9,4.8,21.7,9.8,33.4,8.3c5.5-0.7,10-4.7,11.9-10l23.7-69.5L203.9,3416.3z"/>
			</g>
			
				<linearGradient id="SVGID_00000003067405761548721130000000156688681981433477_" gradientUnits="userSpaceOnUse" x1="-642.4836" y1="4351.687" x2="982.3051" y2="2592.8923">
				<stop  offset="0" style="stop-color:#4F52FF"/>
				<stop  offset="1" style="stop-color:#4042E2"/>
			</linearGradient>
			<path style="fill:url(#SVGID_00000003067405761548721130000000156688681981433477_);" d="M184.7,3435.4
				c20.1,18.3,85.3,20.7,85.3,20.7c235-580.7,331.1-663.2,331.1-663.2c-33.9,219.2-5.5,704.5-5.5,704.5c38.8,17.6,88.8,0,88.8,0
				c3.1-358.9,56.7-671.8,120-918.5c-158.8-3.7-243.3-59.6-270.8-82.1C401.1,2716.5,184.7,3435.4,184.7,3435.4z"/>
			
				<linearGradient id="SVGID_00000075865567725665359390000008176219469413133225_" gradientUnits="userSpaceOnUse" x1="-1655.595" y1="4911.8628" x2="-858.749" y2="4294.4116" gradientTransform="matrix(1 0 0 1 -1140.7335 0)">
				<stop  offset="0" style="stop-color:#FF928E"/>
				<stop  offset="1" style="stop-color:#FE7062"/>
			</linearGradient>
			<path style="fill:url(#SVGID_00000075865567725665359390000008176219469413133225_);" d="M573.8,1828.9
				c-30.1,154.4-19.3,430.7-12.2,556.8c2,35.4-22,84.5-41.4,118c-3,5.3-1.2,12,4.1,14.8c32.5,17.2,142.6,70.5,270.2,77.1
				c8.5,0.4,16.1-5.5,18.3-14c94.7-364,204.6-596.5,204.6-596.5C896,1785.5,573.8,1828.9,573.8,1828.9z"/>
			
				<linearGradient id="SVGID_00000145017037077412455760000009610153433261708719_" gradientUnits="userSpaceOnUse" x1="619.7258" y1="2046.2247" x2="645.1978" y2="2458.0168">
				<stop  offset="0" style="stop-color:#4F52FF"/>
				<stop  offset="1" style="stop-color:#4042E2"/>
			</linearGradient>
			<path style="fill:url(#SVGID_00000145017037077412455760000009610153433261708719_);" d="M617.1,2779.2c-1.3,0-2.7-0.4-3.9-1.1
				c-3.5-2.2-4.7-7-2.5-10.6c1.3-2.1,31.7-52.7,93.2-83.3c3.7-1.8,8.2-0.2,10,3.6c1.8,3.9,0.2,8.5-3.5,10.3
				c-57.3,28.5-86.6,76.9-86.9,77.4C622.1,2777.8,619.6,2779.2,617.1,2779.2z"/>
			<g>
				
					<linearGradient id="SVGID_00000155147702769016551920000005296405543578704270_" gradientUnits="userSpaceOnUse" x1="1689.7955" y1="2286.5376" x2="1402.5231" y2="2540.9238" gradientTransform="matrix(1 0 0 1 -1140.7335 0)">
					<stop  offset="0" style="stop-color:#FEBBBA"/>
					<stop  offset="1" style="stop-color:#FF928E"/>
				</linearGradient>
				<path style="fill:url(#SVGID_00000155147702769016551920000005296405543578704270_);" d="M385.3,2272
					c9.7,71.9,38.2,150.4,95.2,233.7l21.7-18.2c0,0-25-104.6-10.8-223.4C456.2,2257.1,414.6,2264.4,385.3,2272z"/>
				
					<linearGradient id="SVGID_00000096740468520644383590000003735660452497146246_" gradientUnits="userSpaceOnUse" x1="-1807.6583" y1="4743.874" x2="-1006.7369" y2="4123.2646" gradientTransform="matrix(1 0 0 1 -1140.7335 0)">
					<stop  offset="0" style="stop-color:#FF928E"/>
					<stop  offset="1" style="stop-color:#FE7062"/>
				</linearGradient>
				<path style="fill:url(#SVGID_00000096740468520644383590000003735660452497146246_);" d="M607.4,2019.4l-33.6-190.5
					c0,0-224.3,176.6-188.5,443.1c29.4-7.6,70.9-14.9,106.1-7.9C501.7,2178.6,532.3,2085.8,607.4,2019.4z"/>
			</g>
			<g>
				
					<linearGradient id="SVGID_00000033353337358655983580000011865547693031138742_" gradientUnits="userSpaceOnUse" x1="-1583.7834" y1="5093.8984" x2="-777.9318" y2="4469.4688" gradientTransform="matrix(1 0 0 1 -1140.7335 0)">
					<stop  offset="0" style="stop-color:#FF928E"/>
					<stop  offset="1" style="stop-color:#FE7062"/>
				</linearGradient>
				<path style="fill:url(#SVGID_00000033353337358655983580000011865547693031138742_);" d="M1017.4,1985.1l-86.6,192
					c14,115.9,74.5,166.1,139.7,185.3c4.1-52.8,17-95.5,29.1-125.1C1016.3,2148.8,1017.4,1985.1,1017.4,1985.1z"/>
				
					<linearGradient id="SVGID_00000129907280327290950550000006469710989665034161_" gradientUnits="userSpaceOnUse" x1="2211.2585" y1="2309.9028" x2="2431.2715" y2="2309.9028" gradientTransform="matrix(1 0 0 1 -1140.7335 0)">
					<stop  offset="0" style="stop-color:#FEBBBA"/>
					<stop  offset="1" style="stop-color:#FF928E"/>
				</linearGradient>
				<path style="fill:url(#SVGID_00000129907280327290950550000006469710989665034161_);" d="M1099.6,2237.4
					c-12,29.5-25,72.2-29.1,125.1c174,69.5,220-65.3,220-65.3l-32.2-5.8C1185.8,2299.2,1135.1,2275.1,1099.6,2237.4z"/>
			</g>
			
				<linearGradient id="SVGID_00000082370270769009966760000013917485672052178309_" gradientUnits="userSpaceOnUse" x1="1997.4174" y1="1704.4417" x2="1994.9429" y2="2127.5342" gradientTransform="matrix(1 0 0 1 -1140.7335 0)">
				<stop  offset="0" style="stop-color:#FEBBBA"/>
				<stop  offset="1" style="stop-color:#FF928E"/>
			</linearGradient>
			<path style="fill:url(#SVGID_00000082370270769009966760000013917485672052178309_);" d="M937.6,1748.1l-41.8,158.2
				c-4.7,17.8-23.4,27.3-40,20.5c-17.9-7.4-40.7-17.5-60.2-28.3c-20.9-11.6-27.4-39.3-14.2-59.6l86.9-133.4L937.6,1748.1z"/>
		</g>
		
			<linearGradient id="SVGID_00000097462502210077610570000007475157392018127508_" gradientUnits="userSpaceOnUse" x1="1460.8995" y1="2251.2258" x2="234.2852" y2="2705.5266">
			<stop  offset="0" style="stop-color:#09005D"/>
			<stop  offset="1" style="stop-color:#1A0F91"/>
		</linearGradient>
		<path style="fill:url(#SVGID_00000097462502210077610570000007475157392018127508_);" d="M1370.3,2191.3L299.1,2592.7
			c-44.9,16.8-66.4,69.5-46.6,114.3l3.2,7.4c17.5,39.7,63,57,101.4,38.8l1040.1-495.5L1370.3,2191.3z"/>
		
			<linearGradient id="SVGID_00000140728760882677349040000001375359890983440526_" gradientUnits="userSpaceOnUse" x1="2474.5864" y1="1949.7908" x2="3532.1196" y2="1949.7908" gradientTransform="matrix(1 0 0 1 -1140.7335 0)">
			<stop  offset="0" style="stop-color:#B37CFF"/>
			<stop  offset="1" style="stop-color:#F895E7"/>
		</linearGradient>
		
			<ellipse style="opacity:0.23;fill:url(#SVGID_00000140728760882677349040000001375359890983440526_);" cx="1862.6" cy="1949.8" rx="528.8" ry="534.7"/>
		
			<linearGradient id="SVGID_00000083772973482847565010000001591043912608952983_" gradientUnits="userSpaceOnUse" x1="2414.9785" y1="1949.7906" x2="3591.7278" y2="1949.7906" gradientTransform="matrix(1 0 0 1 -1140.7335 0)">
			<stop  offset="0" style="stop-color:#09005D"/>
			<stop  offset="1" style="stop-color:#1A0F91"/>
		</linearGradient>
		<path style="fill:url(#SVGID_00000083772973482847565010000001591043912608952983_);" d="M1862.6,1354.8
			c-325,0-588.4,266.4-588.4,595c0,328.6,263.4,595,588.4,595c325,0,588.4-266.4,588.4-595C2451,1621.2,2187.6,1354.8,1862.6,1354.8
			z M1862.6,2457.4c-277.2,0-501.9-227.2-501.9-507.6c0-280.3,224.7-507.6,501.9-507.6c277.2,0,501.9,227.2,501.9,507.6
			C2364.6,2230.1,2139.8,2457.4,1862.6,2457.4z"/>
		<path class="st1" d="M1319,2023.5c-2,0-3.7-1.5-3.9-3.6c-1.8-14.2-3-28.5-3.7-42.7c-0.1-2.2,1.6-4.2,3.8-4.3
			c2.6-0.2,4,1.6,4.2,3.9c0.7,13.9,1.9,28.1,3.6,42c0.3,2.2-1.3,4.3-3.4,4.5C1319.3,2023.5,1319.1,2023.5,1319,2023.5z M1323,1857.1
			c-0.2,0-0.5,0-0.7-0.1c-2.1-0.4-3.6-2.5-3.2-4.7c6.7-38.3,17.3-75.9,31.7-111.9l0,0c84.8-211.9,285.7-348.8,511.7-348.8
			c105.4,0,207.9,30.2,296.3,87.2c1.9,1.2,2.4,3.7,1.2,5.6c-1.1,1.9-3.6,2.5-5.4,1.3c-87.2-56.2-188.2-86-292.1-86
			c-222.8,0-420.8,134.9-504.4,343.8c0,0,0,0,0,0c-14.2,35.4-24.7,72.5-31.3,110.2C1326.6,1855.7,1324.9,1857.1,1323,1857.1z"/>
		<g>
			
				<linearGradient id="SVGID_00000071549459141993857500000004031372681270772145_" gradientUnits="userSpaceOnUse" x1="1802.424" y1="3408.8972" x2="1595.843" y2="3682.187" gradientTransform="matrix(0.9897 -0.1428 0.1428 0.9897 -1279.7882 -1480.9402)">
				<stop  offset="0" style="stop-color:#FEBBBA"/>
				<stop  offset="1" style="stop-color:#FF928E"/>
			</linearGradient>
			<path style="fill:url(#SVGID_00000071549459141993857500000004031372681270772145_);" d="M1029.1,1627.8
				c0.4,2.7-34.9,180.6-34.9,180.6l-98.2-22.9l9.1-173.7C905.1,1611.8,1022.7,1582.3,1029.1,1627.8z"/>
			
				<linearGradient id="SVGID_00000179641528178485899690000017671542970492611768_" gradientUnits="userSpaceOnUse" x1="805.394" y1="1680.9183" x2="1506.7281" y2="1769.5929">
				<stop  offset="0" style="stop-color:#09005D"/>
				<stop  offset="1" style="stop-color:#1A0F91"/>
			</linearGradient>
			<path style="fill:url(#SVGID_00000179641528178485899690000017671542970492611768_);" d="M927.2,1650.6l-11.7,91
				c-0.2,1.2-0.1,2.3,0,3.5c1,7.1,6.1,31.4,30,24.5c21.6-6.3,41.4-11.7,55.1-7.4c6.1,1.9,9.9,8.3,8.6,14.8
				c-3.2,16.2-11.1,52.4-22.6,82.9c-2.3,6.2-8.9,9.4-15.1,7.6c-18.6-5.6-57.6-18.5-86.6-36.5c-3.9-2.4-6.3-6.8-6.1-11.5
				c0.9-23,3.6-92.9,1.4-112.4c-2.1-18.4-24-29.4-33.5-33.3c-3.1-1.3-5.6-3.8-6.8-7c-4.4-11.4-10.5-37.7,21.7-48.5
				c6.7-2.3,10.3-9.7,7.9-16.6c-4.8-13.7-6.8-34.6,18.1-46.1c25.3-11.7,44.2,2.2,54.5,13.5c4.1,4.6,10.8,5.3,15.9,1.9
				c2.9-1.9,6.7-2.5,11.2,0.4c6.1,3.9,14.2,1.2,17.4-5.4c6.1-12.8,18.4-26.6,43.2-22.2c44,7.8,49,58,37.4,87.4
				c-11.6,29.4-58.8,18.2-82.5,3.4c-18-11.3-41.4,0.5-51.6,6.9C929.8,1643.3,927.7,1646.7,927.2,1650.6z"/>
			
				<linearGradient id="SVGID_00000057864734487014508260000013677228355776559797_" gradientUnits="userSpaceOnUse" x1="1501.5605" y1="3625.853" x2="1667.4618" y2="3455.6428" gradientTransform="matrix(0.9897 -0.1428 0.1428 0.9897 -1279.7882 -1480.9402)">
				<stop  offset="0" style="stop-color:#FEBBBA"/>
				<stop  offset="1" style="stop-color:#FF928E"/>
			</linearGradient>
			<path style="fill:url(#SVGID_00000057864734487014508260000013677228355776559797_);" d="M876.2,1740.2c0,0,18.1-52.2-0.5-64.9
				c-18.6-12.8-46.1-6.1-40.1,31.6C843.2,1753.9,876.2,1740.2,876.2,1740.2z"/>
		</g>
		
			<linearGradient id="SVGID_00000083084397747598694650000008699224649458757566_" gradientUnits="userSpaceOnUse" x1="1797.6769" y1="2416.9688" x2="1518.5428" y2="2664.1482" gradientTransform="matrix(1 0 0 1 -1140.7335 0)">
			<stop  offset="0" style="stop-color:#FEBBBA"/>
			<stop  offset="1" style="stop-color:#FF928E"/>
		</linearGradient>
		<path style="fill:url(#SVGID_00000083084397747598694650000008699224649458757566_);" d="M493.3,2484.4l101.3-8.5l43.9,41.6
			c0,0-10.4,14.8-42.8,6.3c-32.4-8.5-76.9-10.6-76.9-10.6s-44.8,20.8-45.3-18.1L493.3,2484.4z"/>
		
			<linearGradient id="SVGID_00000052820031368222809810000001311889709044804263_" gradientUnits="userSpaceOnUse" x1="2407.8972" y1="2283.2944" x2="2486.6858" y2="2283.2944" gradientTransform="matrix(1 0 0 1 -1140.7335 0)">
			<stop  offset="0" style="stop-color:#FEBBBA"/>
			<stop  offset="1" style="stop-color:#FF928E"/>
		</linearGradient>
		<path style="fill:url(#SVGID_00000052820031368222809810000001311889709044804263_);" d="M1277.6,2321.8c8.8,7,38.8-7.7,57.1-17.8
			c8.9-5,13.3-15.7,10.2-25.7c-4.4-14.3-11.8-32.9-20.9-35.2C1309.1,2239.2,1241.6,2292.8,1277.6,2321.8z"/>
		<path class="st1" d="M320.3,2737.8c-0.4,0-0.9-0.1-1.3-0.2c-41.8-14.9-51.6-40.4-52.4-59.1c-1.1-27.4,15.6-52.8,41.6-63.2
			l128.6-51.6c2-0.8,4.3,0.2,5.1,2.3c0.8,2.1-0.2,4.5-2.2,5.3L311,2622.8c-22.8,9.2-37.5,31.4-36.5,55.3c1,23.6,16.8,41,47.1,51.7
			c2.1,0.7,3.2,3.1,2.4,5.2C323.4,2736.7,321.9,2737.8,320.3,2737.8z"/>
		<path class="st1" d="M477.8,2555.5c-1.6,0-3.1-1-3.7-2.6c-0.8-2.1,0.2-4.5,2.2-5.3l16.7-6.7c2-0.8,4.3,0.2,5.1,2.3
			c0.8,2.1-0.2,4.5-2.2,5.3l-16.7,6.7C478.8,2555.4,478.3,2555.5,477.8,2555.5z"/>
	</g>
	<g>
		
			<linearGradient id="SVGID_00000056389006994306696500000009979606614745678742_" gradientUnits="userSpaceOnUse" x1="-3912.5173" y1="3454.4705" x2="-4623.3555" y2="4227.6636" gradientTransform="matrix(-1 0 0 1 -1038.0688 0)">
			<stop  offset="0" style="stop-color:#4F52FF"/>
			<stop  offset="1" style="stop-color:#4042E2"/>
		</linearGradient>
		<path style="fill:url(#SVGID_00000056389006994306696500000009979606614745678742_);" d="M3098.4,3509.7c0,0,7.4,42.9,11,85.3
			c1.4,16.6-11,31-27.2,31.7c-54.9,2.4-172.3,6.9-214.4,5c-6.3-0.3-10.5-7-8.1-13c2-5.1,5.8-9.2,10.6-11.5l193.9-91.8L3098.4,3509.7
			z"/>
		
			<linearGradient id="SVGID_00000182529205734423228460000018013365595750408841_" gradientUnits="userSpaceOnUse" x1="-4142.4766" y1="3509.5447" x2="-4079.4043" y2="3509.5447" gradientTransform="matrix(-1 0 0 1 -1038.0688 0)">
			<stop  offset="0" style="stop-color:#FEBBBA"/>
			<stop  offset="1" style="stop-color:#FF928E"/>
		</linearGradient>
		<path style="fill:url(#SVGID_00000182529205734423228460000018013365595750408841_);" d="M3104.4,3484.5l-5.9,51.3
			c0,0-34,16.3-57.2-2.1l14.1-57.1L3104.4,3484.5z"/>
		
			<linearGradient id="SVGID_00000160889780277290054590000010185238495926826905_" gradientUnits="userSpaceOnUse" x1="-4292.0347" y1="3012.9148" x2="-4083.4875" y2="3012.9148" gradientTransform="matrix(-1 0 0 1 -1038.0688 0)">
			<stop  offset="0" style="stop-color:#09005D"/>
			<stop  offset="1" style="stop-color:#1A0F91"/>
		</linearGradient>
		<path style="fill:url(#SVGID_00000160889780277290054590000010185238495926826905_);" d="M3100,2520.5
			c2.6,13.4,13.7,668.2-54.3,961.7c-1.1,4.8,1.2,9.7,5.7,11.6c10.4,4.4,30.9,10.7,55.4,11.6c7.6,0.3,14.4-4.8,16.5-12.3
			c19.4-68.1,112.5-409.2,124.7-735.1c13.6-364.1,0-12.4,0-12.4l-8-225.1L3100,2520.5z"/>
		
			<linearGradient id="SVGID_00000088098507164906436050000013542947026859269259_" gradientUnits="userSpaceOnUse" x1="-4066.4673" y1="3302.5684" x2="-4789.5854" y2="4089.1191" gradientTransform="matrix(-1 0 0 1 -1038.0688 0)">
			<stop  offset="0" style="stop-color:#4F52FF"/>
			<stop  offset="1" style="stop-color:#4042E2"/>
		</linearGradient>
		<path style="fill:url(#SVGID_00000088098507164906436050000013542947026859269259_);" d="M3321.4,3532.1c0,0,11.7,21.6,23,79.2
			c2,10.4-5,20.3-15.2,21.4c-18.1,1.8-46,4.2-68.4,4c-10.3-0.1-18.3-9.3-17.1-19.8c2.5-21,10.2-55.4,34-82.3L3321.4,3532.1z"/>
		
			<linearGradient id="SVGID_00000154414069164580269950000009192492995695463869_" gradientUnits="userSpaceOnUse" x1="-4369.7866" y1="3506.2134" x2="-4315.3296" y2="3506.2134" gradientTransform="matrix(-1 0 0 1 -1038.0688 0)">
			<stop  offset="0" style="stop-color:#FEBBBA"/>
			<stop  offset="1" style="stop-color:#FF928E"/>
		</linearGradient>
		<path style="fill:url(#SVGID_00000154414069164580269950000009192492995695463869_);" d="M3331.7,3466.1l-13.8,77.5
			c0,0-13.6,10.5-40.7,2.9l6.6-83.4L3331.7,3466.1z"/>
		
			<linearGradient id="SVGID_00000032621890569487385320000009922711745919701920_" gradientUnits="userSpaceOnUse" x1="-4428.4824" y1="3005.8879" x2="-4132.4131" y2="3005.8879" gradientTransform="matrix(-1 0 0 1 -1038.0688 0)">
			<stop  offset="0" style="stop-color:#09005D"/>
			<stop  offset="1" style="stop-color:#1A0F91"/>
		</linearGradient>
		<path style="fill:url(#SVGID_00000032621890569487385320000009922711745919701920_);" d="M3369,2540.6
			c55.6,345.5-12.1,853.9-34.9,953.5c-1.4,6.1-6.2,10.8-12.2,11.8c-10.2,1.7-27,3.2-43.5-1.8c-5.7-1.7-9.7-7-9.9-13.1
			c-3.1-80.5,2.4-574.4-49.4-769.6c-2.6-9.9-8.5-18.5-16.6-24.5l-100.5-73.6l-7.7-119L3369,2540.6z"/>
		<g>
			
				<linearGradient id="SVGID_00000163754412045567275100000009716799091786740871_" gradientUnits="userSpaceOnUse" x1="2695.449" y1="2841.0037" x2="3289.0134" y2="1944.3414">
				<stop  offset="0" style="stop-color:#FF928E"/>
				<stop  offset="1" style="stop-color:#FE7062"/>
			</linearGradient>
			<path style="fill:url(#SVGID_00000163754412045567275100000009716799091786740871_);" d="M3014.8,1885.9
				c166.6-2.8,350.4,45,350.4,45c49.7,298.4,8.7,642.6,8.7,642.6c-129,34.8-274.5-21.3-274.5-21.3
				c-21.4-124.7-121.5-475.7-121.5-475.7c-81.4-10.4-148.5-34.6-203.7-66.6c42.1-50.3,62-114.3,70.6-152.1
				C2903.8,1876.7,2963.4,1886.8,3014.8,1885.9z"/>
			
				<linearGradient id="SVGID_00000178176353857508809300000016785799903070298803_" gradientUnits="userSpaceOnUse" x1="-3882.936" y1="1815.0771" x2="-3560.7131" y2="1815.0771" gradientTransform="matrix(-1 0 0 1 -1038.0688 0)">
				<stop  offset="0" style="stop-color:#FEBBBA"/>
				<stop  offset="1" style="stop-color:#FF928E"/>
			</linearGradient>
			<path style="fill:url(#SVGID_00000178176353857508809300000016785799903070298803_);" d="M2522.6,1633.2
				c16.4-20.4,37.1-10.7,37.1-10.7c24.5,106.6,153.1,193.1,285.1,235.4c-8.6,37.8-28.5,101.8-70.6,152.1
				C2555.1,1883,2522.6,1633.2,2522.6,1633.2z"/>
		</g>
		<g>
			
				<linearGradient id="SVGID_00000003784759268157736420000015001257157083691661_" gradientUnits="userSpaceOnUse" x1="14082.2598" y1="1758.5557" x2="14303.8096" y2="2262.6316" gradientTransform="matrix(1 0 0 1 -11485.8467 0)">
				<stop  offset="0" style="stop-color:#FEBBBA"/>
				<stop  offset="1" style="stop-color:#FF928E"/>
			</linearGradient>
			<path style="fill:url(#SVGID_00000003784759268157736420000015001257157083691661_);" d="M2526.6,1638.4
				c-1.7,5.6,18.1,14.1,29.8-8.8c0.4-11,6.9-58.1,0.5-67c-34-47.7-99.8-107.4-99.8-107.4c-11.1,11.3-2,22.4-2,22.4l31.9,34.3
				c-6.7,12.4-14.8,22.9-18.6,38c-2.9,11.4-1.1,23.6,4.5,33.9c5.6,10.4,13.3,23.9,20.5,34.5
				C2507.1,1638.2,2526.6,1638.4,2526.6,1638.4z"/>
			
				<linearGradient id="SVGID_00000087384299699044630110000005741090014583000720_" gradientUnits="userSpaceOnUse" x1="-3562.429" y1="1590.8906" x2="-3469.8059" y2="1448.4827" gradientTransform="matrix(-1 0 0 1 -1038.0688 0)">
				<stop  offset="0" style="stop-color:#FEBBBA"/>
				<stop  offset="1" style="stop-color:#FF928E"/>
			</linearGradient>
			<path style="fill:url(#SVGID_00000087384299699044630110000005741090014583000720_);" d="M2501.1,1534l29.1,25.4l9.1,25.3
				l-26,29.6c0,0-8.7-50.2-15.2-61.1C2491.7,1542.5,2495,1537.2,2501.1,1534z"/>
		</g>
		
			<linearGradient id="SVGID_00000112594087396235712050000001670613108736313221_" gradientUnits="userSpaceOnUse" x1="2855.7551" y1="2960.8923" x2="3455.3599" y2="2055.105">
			<stop  offset="0" style="stop-color:#FF928E"/>
			<stop  offset="1" style="stop-color:#FE7062"/>
		</linearGradient>
		<path style="fill:url(#SVGID_00000112594087396235712050000001670613108736313221_);" d="M3301.3,2097.1l63.9-166.1
			c0,0,155.6,108.9,181.2,246.9c-29.4,2.2-82.9,10.1-135.3,37.3C3399.6,2150.1,3301.3,2097.1,3301.3,2097.1z"/>
		
			<linearGradient id="SVGID_00000013876891084280416210000006271556237126616254_" gradientUnits="userSpaceOnUse" x1="-4588.0264" y1="2285.0891" x2="-4180.2505" y2="2285.0891" gradientTransform="matrix(-1 0 0 1 -1038.0688 0)">
			<stop  offset="0" style="stop-color:#FEBBBA"/>
			<stop  offset="1" style="stop-color:#FF928E"/>
		</linearGradient>
		<path style="fill:url(#SVGID_00000013876891084280416210000006271556237126616254_);" d="M3165.3,2253.4
			c0,0,174.7,101.7,233.7,14.9c12.2-18,15.2-35.9,12.2-53c52.4-27.2,105.9-35.1,135.3-37.3c7.7,41.6,3.6,85.9-20.1,130.6
			c-103.3,194.5-384.1-10.8-384.1-10.8L3165.3,2253.4z"/>
		<g>
			
				<linearGradient id="SVGID_00000122679136715728668170000014503328486377943976_" gradientUnits="userSpaceOnUse" x1="-4058.1863" y1="1987.3867" x2="-3827.8306" y2="2947.2051" gradientTransform="matrix(-1 0 0 1 -1038.0688 0)">
				<stop  offset="0" style="stop-color:#09005D"/>
				<stop  offset="1" style="stop-color:#1A0F91"/>
			</linearGradient>
			<path style="fill:url(#SVGID_00000122679136715728668170000014503328486377943976_);" d="M3186.3,2382l-95.4-342.9
				c-1.1-3.9-4.3-6.7-8.2-7.2c-17.3-2.1-67.3-7.9-125.1-12.9c-69.6-6.1-150.5-11-198.8-6.8c-6.9,0.6-11,8.1-8,14.4
				c27.5,57.2,140.5,290.1,197.1,366.4c1.9,2.5,4.8,4,7.9,4l221.2-2.1C3183.5,2394.8,3188.1,2388.4,3186.3,2382z"/>
			
				<linearGradient id="SVGID_00000098940179382002410150000009376105767447105201_" gradientUnits="userSpaceOnUse" x1="-3915.7585" y1="1836.322" x2="-3964.501" y2="2050.3643" gradientTransform="matrix(-1 0 0 1 -1038.0688 0)">
				<stop  offset="0" style="stop-color:#4F52FF"/>
				<stop  offset="1" style="stop-color:#4042E2"/>
			</linearGradient>
			<path style="fill:url(#SVGID_00000098940179382002410150000009376105767447105201_);" d="M2947.7,1989.3l-69.1-11.9
				c-3.7-0.6-6.7,3-5.5,6.6l6.8,21.4c0.6,1.9,2.2,3.2,4.1,3.5l66.5,9.2c3.4,0.5,6.3-2.7,5.5-6.2l-4.2-18.6
				C2951.3,1991.1,2949.7,1989.6,2947.7,1989.3z"/>
			
				<linearGradient id="SVGID_00000018937454208434917480000007599017070500133522_" gradientUnits="userSpaceOnUse" x1="-3941.1453" y1="1926.3635" x2="-3964.4597" y2="2066.2507" gradientTransform="matrix(-1 0 0 1 -1038.0688 0)">
				<stop  offset="0" style="stop-color:#4F52FF"/>
				<stop  offset="1" style="stop-color:#4042E2"/>
			</linearGradient>
			<path style="fill:url(#SVGID_00000018937454208434917480000007599017070500133522_);" d="M2999.5,2049.5l-5.7-30.5
				c-0.6-3.1-3-5.4-6-5.7l-139.6-14.6c-4.7-0.5-8.5,3.9-7.4,8.7l8.9,38.1c0.7,3,3.3,5.2,6.3,5.4l136.5,7.1
				C2996.8,2058.1,3000.3,2054,2999.5,2049.5z"/>
			
				<linearGradient id="SVGID_00000040571535746755120950000004739080608487333801_" gradientUnits="userSpaceOnUse" x1="-4210.5264" y1="2241.0605" x2="-4083.4875" y2="2241.0605" gradientTransform="matrix(-1 0 0 1 -1038.0688 0)">
				<stop  offset="0" style="stop-color:#FEBBBA"/>
				<stop  offset="1" style="stop-color:#FF928E"/>
			</linearGradient>
			<path style="fill:url(#SVGID_00000040571535746755120950000004739080608487333801_);" d="M3163.3,2299.2c0,0,13.3-56.2,7.9-76.2
				c-5.4-20-15.7-45.6-50.3-39.9c-34.6,5.7-75.4,20.7-75.4,20.7s2.1,26,28.4,17.6l-16.3,13c0,0,2.3,20.8,24.5,9.7l-15.2,17.2
				c0,0,9.5,17.1,25.9,6.1C3109.1,2256.5,3116.9,2306,3163.3,2299.2z"/>
		</g>
		
			<linearGradient id="SVGID_00000043444719594636760490000008364023146430402189_" gradientUnits="userSpaceOnUse" x1="3217.6965" y1="2085.3274" x2="3112.3098" y2="1705.9348">
			<stop  offset="0" style="stop-color:#FEBBBA"/>
			<stop  offset="1" style="stop-color:#FF928E"/>
		</linearGradient>
		<path style="fill:url(#SVGID_00000043444719594636760490000008364023146430402189_);" d="M3183.5,1746.6l53,157.9
			c0.9,2.6-0.2,5.5-2.5,6.9c-14.5,8.2-66.5,32-129.3-9c-6.5-4.3-11-11.2-12-19.1l-17.2-136.6H3183.5z"/>
		<g>
			
				<linearGradient id="SVGID_00000059989627380988285070000008747774638971210647_" gradientUnits="userSpaceOnUse" x1="-8550.9473" y1="-4237.5342" x2="-8611.7275" y2="-4438.002" gradientTransform="matrix(-0.746 -0.6659 -0.6659 0.746 -6164.4043 -803.1727)">
				<stop  offset="0" style="stop-color:#FEBBBA"/>
				<stop  offset="1" style="stop-color:#FF928E"/>
			</linearGradient>
			<path style="fill:url(#SVGID_00000059989627380988285070000008747774638971210647_);" d="M3068.2,1600.4
				c0,0-58.2,112.8-50.7,158.4c7.5,45.6,79.6,42.3,142.6,5.3l44-121.8L3068.2,1600.4z"/>
			
				<linearGradient id="SVGID_00000004541215155024146150000000199941992486036133_" gradientUnits="userSpaceOnUse" x1="-8604.708" y1="-4588.1875" x2="-8553.4658" y2="-4295.9131" gradientTransform="matrix(-0.746 -0.6659 -0.6659 0.746 -6164.4043 -803.1727)">
				<stop  offset="0" style="stop-color:#09005D"/>
				<stop  offset="1" style="stop-color:#1A0F91"/>
			</linearGradient>
			<path style="fill:url(#SVGID_00000004541215155024146150000000199941992486036133_);" d="M3157.2,1704.3c-2.6-1.2-3.5-4.4-2-6.8
				c4.7-7.3,13.4-22.3,16.2-35.4c0,0,10.5-6.9-26.6-16c-37.1-9.1-92.4-23.3-104.1-55.9c-11.3-31.7,18.5-111.4,66-47.9
				c1.8,2.4,5.4,2.5,7.2,0.1c7.8-10.4,28.3-32.1,56.7-19c26.6,12.3,29.6,32.4,29.2,42.5c-0.1,3,2.5,5.3,5.3,4.7
				c13.5-2.6,45.7-4.9,60.8,29.2c12.4,28.1,4.3,44-3,51.8c-2.4,2.5-1.3,6.7,1.9,7.7c8.8,2.8,20.3,10.5,19.1,31.8
				c-1.6,29.5-33.6,26.9-42.7,25.6c-1.5-0.2-3,0.3-4,1.5c-7.8,8.9-43,46.7-81.2,51.3c-3.3,0.4-5.9-3-4.8-6.2l16.5-49.4
				c0.8-2.3-0.3-4.8-2.5-5.8L3157.2,1704.3z"/>
			
				<linearGradient id="SVGID_00000130614939512310536030000017987879551068068791_" gradientUnits="userSpaceOnUse" x1="-8613.3281" y1="-4237.9985" x2="-8667.9443" y2="-4418.1328" gradientTransform="matrix(-0.746 -0.6659 -0.6659 0.746 -6164.4043 -803.1727)">
				<stop  offset="0" style="stop-color:#FEBBBA"/>
				<stop  offset="1" style="stop-color:#FF928E"/>
			</linearGradient>
			<path style="fill:url(#SVGID_00000130614939512310536030000017987879551068068791_);" d="M3150.6,1711.3c0,0,41.4-29.3,44.5-4.6
				c3,24.7-37.3,35.7-57.3,26.5L3150.6,1711.3z"/>
		</g>
	</g>
	<g>
		<path class="st1" d="M1151.9,981.9l159.3,11.2c7.6,0.7,11.7-8.9,6.2-14.2l-152.7-116.5L1151.9,981.9z"/>
		<path class="st1" d="M241.9,456.9l897.1-5.7c20.5-0.1,37.2,15.5,37.1,34.8l-3.8,465.1c-0.2,19.4-17.3,34.9-37.9,34.3l-887.3-25
			c-19.7-0.6-35.5-15.6-35.7-34.1l-5.9-434.4C205.1,472.8,221.5,457.1,241.9,456.9z"/>
		<path class="st57" d="M269.7,485.4l840-4.9c19.2-0.1,34.9,13.6,34.7,30.4l-3.5,406.4c-0.1,16.9,13.9,40.8-5.4,40.3l-861-32.2
			c-18.5-0.5-33.2-13.6-33.4-29.8L235.5,516C235.2,499.2,250.6,485.5,269.7,485.4z"/>
		<path class="st58" d="M1135.5,957.5l-887.6-25c-3.7-0.1-6.7-2.9-6.8-6.5l-5.9-434.4c0-1.8,0.7-3.4,2-4.7c1.3-1.3,3-2,4.9-2
			l897.1-5.7c1.9,0,3.7,0.7,5,1.9c1.4,1.3,2.1,2.9,2,4.7l-3.8,465.1C1142.4,954.6,1139.3,957.5,1135.5,957.5z M248.3,925.8l887.3,25
			l3.5-465l-896.9,5.8L248.3,925.8z"/>
		<path class="st58" d="M293.7,590.5c0,16.5,9.3,29.8,20.8,29.8h763c11.5,0,20.8-13.3,20.8-29.8c0-16.5-9.3-29.8-20.8-29.8h-763
			C303,560.7,293.7,574.1,293.7,590.5z"/>
		<path class="st58" d="M335.5,671.1h715.3c15.6,0,28.2,8,28.2,17.9c0,9.9-12.6,17.9-28.2,17.9H335.5c-15.6,0-28.2-8-28.2-17.9
			C307.3,679.1,319.9,671.1,335.5,671.1z"/>
		<path class="st58" d="M307.3,770.4c0,9.9,12.6,17.8,28.1,17.8h715.4c15.5,0,28.1-8,28.1-17.8v-11c0-10-13-18.1-28.8-17.8
			l-715.4,11C319.5,752.8,307.3,760.7,307.3,770.4z"/>
		<path class="st58" d="M338.3,826.6h715.3c15.6,0,28.2,8,28.2,17.9c0,9.9-12.6,17.9-28.2,17.9H338.3c-15.6,0-28.2-8-28.2-17.9
			C310.1,834.6,322.7,826.6,338.3,826.6z"/>
	</g>
</g>
</svg>
