<svg xmlns="http://www.w3.org/2000/svg" xmlns:xlink="http://www.w3.org/1999/xlink" viewBox="0 0 2811.18 2799.96"><defs><style>.cls-1{fill:none;}.cls-2{fill:url(#linear-gradient);}.cls-3{fill:url(#linear-gradient-2);}.cls-4{fill:#91b3fa;}.cls-5{fill:#bdd0fb;}.cls-6{fill:url(#linear-gradient-3);}.cls-20,.cls-23,.cls-32,.cls-36,.cls-7{fill:#fff;}.cls-8{fill:url(#linear-gradient-4);}.cls-9{fill:url(#linear-gradient-5);}.cls-10{fill:url(#linear-gradient-6);}.cls-11{fill:url(#linear-gradient-7);}.cls-12{fill:url(#linear-gradient-8);}.cls-13{fill:url(#linear-gradient-9);}.cls-14{fill:url(#linear-gradient-10);}.cls-15{fill:url(#linear-gradient-11);}.cls-16{fill:url(#linear-gradient-12);}.cls-17{clip-path:url(#clip-path);}.cls-18{fill:url(#linear-gradient-13);}.cls-19{fill:url(#linear-gradient-14);}.cls-20{opacity:0.68;}.cls-20,.cls-23,.cls-32,.cls-36{isolation:isolate;}.cls-21{fill:url(#linear-gradient-15);}.cls-22{fill:url(#linear-gradient-16);}.cls-23{opacity:0.5;}.cls-24{opacity:0.53;}.cls-25{fill:url(#linear-gradient-17);}.cls-26{fill:url(#linear-gradient-18);}.cls-27{fill:url(#linear-gradient-19);}.cls-28{fill:url(#linear-gradient-20);}.cls-29{fill:url(#linear-gradient-21);}.cls-30{fill:url(#linear-gradient-22);}.cls-31{fill:url(#linear-gradient-23);}.cls-32{opacity:0.91;}.cls-33{fill:url(#linear-gradient-24);}.cls-34{fill:url(#linear-gradient-25);}.cls-35{fill:url(#linear-gradient-26);}.cls-36{opacity:0.75;}.cls-37{fill:url(#linear-gradient-27);}.cls-38{fill:url(#linear-gradient-28);}.cls-39{fill:url(#linear-gradient-29);}.cls-40{fill:url(#linear-gradient-30);}.cls-41{fill:url(#linear-gradient-31);}.cls-42{fill:url(#linear-gradient-32);}.cls-43{fill:url(#linear-gradient-33);}.cls-44{fill:url(#linear-gradient-34);}.cls-45{fill:url(#linear-gradient-35);}.cls-46{fill:url(#linear-gradient-36);}.cls-47{fill:url(#linear-gradient-37);}.cls-48{fill:url(#linear-gradient-38);}.cls-49{fill:url(#linear-gradient-39);}.cls-50{fill:url(#linear-gradient-40);}.cls-51{fill:url(#linear-gradient-41);}.cls-52{fill:url(#linear-gradient-42);}.cls-53{fill:#f8a570;}.cls-54{fill:url(#linear-gradient-43);}</style><linearGradient id="linear-gradient" x1="3048.69" y1="-419.83" x2="1084.23" y2="1671.36" gradientTransform="matrix(1, 0, 0, -1, 0, 2799.94)" gradientUnits="userSpaceOnUse"><stop offset="0" stop-color="#dae3fe"/><stop offset="1" stop-color="#e9effd"/></linearGradient><linearGradient id="linear-gradient-2" x1="731.36" y1="48.23" x2="2245.62" y2="2312.81" gradientTransform="matrix(1, 0, 0, -1, 0, 2799.94)" gradientUnits="userSpaceOnUse"><stop offset="0" stop-color="#09005d"/><stop offset="1" stop-color="#1a0f91"/></linearGradient><linearGradient id="linear-gradient-3" x1="1546.94" y1="1802.13" x2="1395.92" y2="161.52" xlink:href="#linear-gradient-2"/><linearGradient id="linear-gradient-4" x1="1762.35" y1="2195.64" x2="575.5" y2="-846.52" gradientTransform="matrix(1, 0, 0, -1, 0, 2799.94)" gradientUnits="userSpaceOnUse"><stop offset="0" stop-color="#4f52ff"/><stop offset="1" stop-color="#4042e2"/></linearGradient><linearGradient id="linear-gradient-5" x1="1669.81" y1="2458.03" x2="1274.19" y2="357.16" gradientTransform="matrix(0.71, 0.71, 0.71, -0.71, -619.37, 1310.74)" xlink:href="#linear-gradient-4"/><linearGradient id="linear-gradient-6" x1="1062.17" y1="988.73" x2="1585.03" y2="1607.07" gradientTransform="matrix(0.71, 0.71, 0.71, -0.71, -619.37, 1310.74)" xlink:href="#linear-gradient-4"/><linearGradient id="linear-gradient-7" x1="5133.68" y1="7726.8" x2="4935.88" y2="7382.34" gradientTransform="matrix(0.84, 0.54, 0.54, -0.84, -429.91, 1324.24)" xlink:href="#linear-gradient-2"/><linearGradient id="linear-gradient-8" x1="4842.3" y1="7890.53" x2="4644.49" y2="7546.07" gradientTransform="matrix(0.98, -0.22, -0.22, -0.98, 792.24, 2957.42)" xlink:href="#linear-gradient-2"/><linearGradient id="linear-gradient-9" x1="486.58" y1="2075.26" x2="687.8" y2="1362.47" xlink:href="#linear-gradient-2"/><linearGradient id="linear-gradient-10" x1="877.7" y1="2559.41" x2="1476.77" y2="1492.46" gradientTransform="matrix(1, 0, 0, -1, 0, 2799.94)" gradientUnits="userSpaceOnUse"><stop offset="0" stop-color="#ff928e"/><stop offset="1" stop-color="#fe7062"/></linearGradient><linearGradient id="linear-gradient-11" x1="1591.74" y1="2272.21" x2="2239.73" y2="2695.11" gradientTransform="matrix(1, 0, 0, -1, 0, 2799.94)" gradientUnits="userSpaceOnUse"><stop offset="0" stop-color="#febbba"/><stop offset="1" stop-color="#ff928e"/></linearGradient><linearGradient id="linear-gradient-12" x1="906.42" y1="1467.9" x2="1725.62" y2="2490.85" gradientTransform="matrix(1, 0, 0, -1, 0, 2799.94)" gradientUnits="userSpaceOnUse"><stop offset="0" stop-color="#e1473d"/><stop offset="1" stop-color="#e9605a"/></linearGradient><clipPath id="clip-path"><path class="cls-1" d="M1502.05,1011.34c-8.32-8.46-26.42-41.07-42-125.41-15-81.5-23.27-187.21-23.27-297.66s8.27-216.16,23.27-297.66c15.53-84.34,33.63-117,42-125.41,8.31,8.45,26.42,41.07,41.94,125.41,15,81.5,133.41,187.21,133.41,297.66S1559,804.43,1544,886C1528.47,970.27,1510.36,1002.88,1502.05,1011.34Z"/></clipPath><linearGradient id="linear-gradient-13" x1="1712.92" y1="2343.05" x2="1226.1" y2="2058.75" xlink:href="#linear-gradient-2"/><linearGradient id="linear-gradient-14" x1="737.8" y1="2992.99" x2="621.84" y2="2631.48" xlink:href="#linear-gradient-2"/><linearGradient id="linear-gradient-15" x1="2555.43" y1="-50.9" x2="1789.56" y2="1498.24" gradientTransform="matrix(1, -0.01, -0.01, -1, -28.33, 2822.13)" xlink:href="#linear-gradient-2"/><linearGradient id="linear-gradient-16" x1="2379.67" y1="1039.69" x2="721.61" y2="-1081.38" gradientTransform="matrix(1, -0.01, -0.01, -1, -28.33, 2822.13)" xlink:href="#linear-gradient-10"/><linearGradient id="linear-gradient-17" x1="1856.27" y1="496.49" x2="1860.08" y2="104.3" xlink:href="#linear-gradient-12"/><linearGradient id="linear-gradient-18" x1="1911.78" y1="497.47" x2="1915.59" y2="105.49" xlink:href="#linear-gradient-12"/><linearGradient id="linear-gradient-19" x1="1969.08" y1="498.7" x2="1972.89" y2="106.38" xlink:href="#linear-gradient-12"/><linearGradient id="linear-gradient-20" x1="2023.39" y1="499.4" x2="2027.19" y2="107.91" xlink:href="#linear-gradient-12"/><linearGradient id="linear-gradient-21" x1="2080.83" y1="500.83" x2="2084.64" y2="108.54" xlink:href="#linear-gradient-12"/><linearGradient id="linear-gradient-22" x1="2136.51" y1="501.87" x2="2140.32" y2="109.65" xlink:href="#linear-gradient-12"/><linearGradient id="linear-gradient-23" x1="2192.17" y1="502.9" x2="2195.98" y2="110.78" xlink:href="#linear-gradient-12"/><linearGradient id="linear-gradient-24" x1="2477.68" y1="929.82" x2="2143.65" y2="612.82" xlink:href="#linear-gradient-12"/><linearGradient id="linear-gradient-25" x1="2455.56" y1="1218.46" x2="2159.04" y2="937.05" xlink:href="#linear-gradient-12"/><linearGradient id="linear-gradient-26" x1="2458.38" y1="603.59" x2="2161.86" y2="322.18" xlink:href="#linear-gradient-12"/><linearGradient id="linear-gradient-27" x1="1168.94" y1="656.56" x2="1405.4" y2="595.17" xlink:href="#linear-gradient-11"/><linearGradient id="linear-gradient-28" x1="1267.29" y1="30.58" x2="1389.81" y2="30.58" xlink:href="#linear-gradient-4"/><linearGradient id="linear-gradient-29" x1="1389.41" y1="235.58" x2="1361.52" y2="148.95" xlink:href="#linear-gradient-2"/><linearGradient id="linear-gradient-30" x1="1278.59" y1="88.12" x2="1313.12" y2="88.12" xlink:href="#linear-gradient-11"/><linearGradient id="linear-gradient-31" x1="1048.6" y1="9.95" x2="1095.56" y2="9.95" xlink:href="#linear-gradient-4"/><linearGradient id="linear-gradient-32" x1="1167.55" y1="307.03" x2="1139.66" y2="220.4" xlink:href="#linear-gradient-2"/><linearGradient id="linear-gradient-33" x1="1084.76" y1="106.12" x2="1126" y2="106.12" xlink:href="#linear-gradient-11"/><linearGradient id="linear-gradient-34" x1="1418.44" y1="551.24" x2="1066.26" y2="-25.67" xlink:href="#linear-gradient-4"/><linearGradient id="linear-gradient-35" x1="1325.98" y1="720.22" x2="1324.84" y2="590.62" xlink:href="#linear-gradient-4"/><linearGradient id="linear-gradient-36" x1="1652.14" y1="975" x2="1488.76" y2="762.45" xlink:href="#linear-gradient-11"/><linearGradient id="linear-gradient-37" x1="1186.42" y1="497.25" x2="1419.47" y2="939.47" xlink:href="#linear-gradient-10"/><linearGradient id="linear-gradient-38" x1="1540.57" y1="975.83" x2="1460.99" y2="896.25" xlink:href="#linear-gradient-10"/><linearGradient id="linear-gradient-39" x1="1287.97" y1="837.64" x2="1305.85" y2="931.47" xlink:href="#linear-gradient-11"/><linearGradient id="linear-gradient-40" x1="1336.32" y1="1009.81" x2="1234.35" y2="931.78" xlink:href="#linear-gradient-11"/><linearGradient id="linear-gradient-41" x1="1264.57" y1="1071.59" x2="1359.54" y2="949.31" xlink:href="#linear-gradient-2"/><linearGradient id="linear-gradient-42" x1="1323.69" y1="1026.33" x2="1221.71" y2="948.3" xlink:href="#linear-gradient-11"/><linearGradient id="linear-gradient-43" x1="1310.16" y1="612.01" x2="1472.73" y2="593.83" xlink:href="#linear-gradient-11"/></defs><title>Asset 3</title><g id="Layer_2" data-name="Layer 2"><g id="Layer_1-2" data-name="Layer 1"><g id="Illustration"><path class="cls-2" d="M2458.87,2380.78c-72.52,74.75-137.41,118.69-187.09,151.86C1787.26,2856.17,1233.4,2763,1062.16,2731.05c-276.28-51.42-509.5-87.7-709.87-268.73C-103,2051-80.87,1192.85,267,661.32c41.25-63,388.64-578,943.7-650.52,13.57-1.78,23.7-2.79,32.58-3.72C1329.18-2,1861.32-50,2295.16,313.5c62.1,52,162,145.89,254.74,289C2888.79,1125.9,2889.87,1936.53,2458.87,2380.78Z"/><path class="cls-3" d="M193.44,2435.75a44.2,44.2,0,0,0,44.09,44H2622a44.2,44.2,0,0,0,44.09-44l19.84-1370.28c0-24.23-28.54-71.53-80.86-68L274.71,937.2a111.11,111.11,0,0,0-114,108.15c-.05,1.83-.05,3.66,0,5.49Z"/><path class="cls-4" d="M237,2393.49a41.84,41.84,0,0,0,41.72,41.71h2285.8a41.83,41.83,0,0,0,41.71-41.71l18.72-1244c-2.2-74.85-67.83-101.76-107.61-100.17L283.88,989.44a78.1,78.1,0,0,0-80.12,76c0,1.3,0,2.59,0,3.89Z"/><path class="cls-5" d="M2581.5,1802.52h-.09a6.1,6.1,0,0,1-6-6.2h0l1.48-100.89a6.11,6.11,0,0,1,6.11-6h.09a6.12,6.12,0,0,1,6,6.21l-1.5,100.86A6.12,6.12,0,0,1,2581.5,1802.52Z"/><path class="cls-5" d="M2585.13,1555.31h-.06a6.12,6.12,0,0,1-6.05-6.19v0l5.67-386.38c-.11-23-7.07-41.28-20.71-54.34-25.45-24.39-65.86-23.14-67.56-23.06l-713.83-19.14a6.11,6.11,0,0,1-5.94-6.28h0a5.84,5.84,0,0,1,5.74-6,4.69,4.69,0,0,1,.53,0l713.43,19.14c4.44-.26,47.47-1,76.12,26.45,16.12,15.44,24.35,36.72,24.48,63.23l-5.68,386.51A6.12,6.12,0,0,1,2585.13,1555.31Z"/><rect class="cls-6" y="2473.16" width="2811.18" height="120.4" rx="5.65"/><circle class="cls-7" cx="1487.93" cy="1307.7" r="914.28" transform="translate(-488.88 1435.15) rotate(-45)"/><circle class="cls-8" cx="1487.93" cy="1307.7" r="780.31"/><path class="cls-7" d="M1489.52,2105.33A804.71,804.71,0,0,1,1319.13,2087c-208.15-45.09-386.29-168.53-501.6-347.6s-154-392.33-108.89-600.48,168.54-386.3,347.61-501.6,392.32-154,600.48-108.89S2043,697,2158.33,876s154,392.33,108.89,600.48l-16.67-3.61,16.67,3.61c-45.09,208.16-168.54,386.3-347.61,501.6C1789.31,2062,1640.89,2105.33,1489.52,2105.33Zm-3.11-1561.15c-144.91,0-287,41.47-411.7,121.79C903.3,776.35,785.13,946.86,742,1146.12s-6.14,403.38,104.24,574.79,280.89,289.58,480.14,332.74A764.68,764.68,0,0,0,1488.08,2071c351.43,0,668.45-244.65,745.81-601.77,43.16-199.25,6.14-403.38-104.24-574.79S1848.76,604.9,1649.51,561.74a770.36,770.36,0,0,0-163.1-17.56Z"/><circle class="cls-9" cx="1487.93" cy="1307.7" r="475.71" transform="translate(-488.88 1435.15) rotate(-45)"/><path class="cls-7" d="M1488.91,1800.63a497.24,497.24,0,0,1-105.32-11.34c-265.56-57.52-434.81-320.36-377.29-585.91s320.34-434.81,585.92-377.28S2027,1146.46,1969.5,1412h0c-27.87,128.64-104.16,238.73-214.82,310C1674.18,1773.85,1582.46,1800.63,1488.91,1800.63ZM1487.85,849c-211.19,0-401.7,147-448.18,361.62-53.54,247.17,104,491.82,351.17,545.36,119.73,25.93,242.4,3.69,345.41-62.64s174-168.79,200-288.53h0c53.53-247.17-104-491.82-351.17-545.36A459.33,459.33,0,0,0,1487.85,849Z"/><circle class="cls-10" cx="1487.93" cy="1307.7" r="184.3" transform="translate(-488.88 1435.15) rotate(-45)"/><path class="cls-7" d="M1488.33,1509.12a203.15,203.15,0,0,1-43-4.63c-108.09-23.65-176.54-130.44-152.89-238.53s130.45-176.54,238.53-152.89,176.54,130.44,152.89,238.53A200.34,200.34,0,0,1,1488.33,1509.12Zm-.73-368.73a167.29,167.29,0,1,0,163.79,202.71h0a167.26,167.26,0,0,0-128.05-198.87,169.19,169.19,0,0,0-35.75-3.84Z"/><rect class="cls-11" x="1474.47" y="657.28" width="1319.6" height="34.85" transform="translate(154.55 1719.23) rotate(-45.36)"/><path class="cls-12" d="M1675.41,1072.32c14-14.22,81.1,52,67,66.23l-246,195.86c-9.09,7.24-21-4.52-13.87-13.7Z"/><path class="cls-4" d="M2609.84,218l125.61,11.7L2564.2,403.07A266.43,266.43,0,0,1,2350,481.13h0Z"/><path class="cls-4" d="M2585.05,193.53,2571.79,68.08l-171.2,173.4a266.36,266.36,0,0,0-75.38,215.2h0Z"/><path class="cls-13" d="M354.59,763s150.61,397.22,198.2,479.86c55.23,95.92,216.56,34.79,208.53-45.48S564.81,785.32,564.81,785.32Z"/><polygon class="cls-14" points="558.05 473.67 1494.18 149.1 1484.35 1027.44 532.46 815.05 558.05 473.67"/><ellipse class="cls-15" cx="1495.07" cy="590.82" rx="91.97" ry="451.39"/><path class="cls-16" d="M1502.05,1011.34c-8.32-8.46-26.42-41.07-42-125.41-15-81.5-23.27-187.21-23.27-297.66s8.27-216.16,23.27-297.66c15.53-84.34,33.63-117,42-125.41,8.31,8.45,26.42,41.07,41.94,125.41,15,81.5,23.27,187.21,23.27,297.66S1559,804.43,1544,885.93C1528.47,970.27,1510.36,1002.88,1502.05,1011.34Z"/><g class="cls-17"><path class="cls-18" d="M1619.93,584.91c0,76.69-41.32,138.87-123.09,138.87s-148.07-62.18-148.07-138.87S1415.07,446,1496.84,446,1619.93,508.21,1619.93,584.91Z"/></g><path class="cls-19" d="M407.06,454.79c44-5.12,107.19-7,175.47,8.68-22.5,117.51-19.1,240,6.91,366.81H396.86a62.42,62.42,0,0,1-61.67-52.63c-9.6-60.79-21.33-163-8.82-245A92.35,92.35,0,0,1,407.06,454.79Z"/><path class="cls-4" d="M522.64,544.78h-150a13.68,13.68,0,0,1-11.49-21.11,3.86,3.86,0,0,1,6.6,4l-.12.19a6,6,0,0,0,5,9.21h150a6,6,0,0,0,6-6V520.42a6,6,0,0,0-6-6H371.48a3.86,3.86,0,0,1,0-7.72H522.64a13.7,13.7,0,0,1,13.68,13.68v10.68a13.69,13.69,0,0,1-13.66,13.72Z"/><path class="cls-4" d="M509.26,611.23h-150a13.68,13.68,0,0,1-11.49-21.11,3.86,3.86,0,0,1,6.48,4.19,6,6,0,0,0,5,9.21h150a6,6,0,0,0,6-6V586.85a6,6,0,0,0-6-6H358.1a3.86,3.86,0,0,1,0-7.72H509.26a13.7,13.7,0,0,1,13.68,13.69v10.67a13.69,13.69,0,0,1-13.64,13.74Z"/><path class="cls-20" d="M694.07,449.89a3.86,3.86,0,0,1-1.17-7.53l709-225.62a3.86,3.86,0,1,1,2.64,7.25l-.3.1-709,225.62A3.86,3.86,0,0,1,694.07,449.89Z"/><path class="cls-20" d="M598.19,489.09a3.86,3.86,0,0,1-1.46-7.43l36.49-14.92a3.86,3.86,0,0,1,2.92,7.15h0L599.65,488.8A3.84,3.84,0,0,1,598.19,489.09Z"/><path class="cls-4" d="M522.64,689.06h-150A13.68,13.68,0,0,1,361.11,668a3.86,3.86,0,0,1,6.48,4.19,6,6,0,0,0,5,9.21h150a6,6,0,0,0,6-6V664.7a6,6,0,0,0-6-6H371.48a3.86,3.86,0,0,1-.39-7.71H522.64a13.7,13.7,0,0,1,13.68,13.68v10.67A13.7,13.7,0,0,1,522.64,689.06Z"/><path class="cls-4" d="M536.69,775.44H386.64a13.68,13.68,0,0,1-11.48-21.12,3.85,3.85,0,1,1,6.47,4.19,6,6,0,0,0,5,9.22H536.69a6,6,0,0,0,6-6V751.05a6,6,0,0,0-6-6H385.53a3.86,3.86,0,1,1,0-7.72H536.69A13.7,13.7,0,0,1,550.37,751v10.68a13.7,13.7,0,0,1-13.65,13.75Z"/><path class="cls-4" d="M670.69,1245.1a98.31,98.31,0,0,1-20.87-2.27,96.56,96.56,0,0,1-68.14-55.18L461.81,921.33a3.86,3.86,0,1,1,6.68-3.87,3.5,3.5,0,0,1,.32.71l119.87,266.31a88.91,88.91,0,0,0,62.74,50.81,87.09,87.09,0,0,0,76.65-19.59l3.41-3a3.86,3.86,0,0,1,5.42,5.5l-.21.19c-1.19,1.09-2.36,2.14-3.54,3.16A94.43,94.43,0,0,1,670.69,1245.1Z"/><path class="cls-4" d="M447.59,884.23a3.86,3.86,0,0,1-3.52-2.27l-13.38-29.71a3.86,3.86,0,1,1,6.69-3.85,3.76,3.76,0,0,1,.31.68l13.37,29.71a3.84,3.84,0,0,1-1.92,5.09h0A3.92,3.92,0,0,1,447.59,884.23Z"/><path class="cls-4" d="M1598,580.91a3.85,3.85,0,0,1-3.84-3.58c-2.67-37.58-15.7-65.6-38.72-83.28-39.81-30.56-96.62-20.06-97.19-20a3.85,3.85,0,1,1-1.46-7.57c2.46-.48,60.82-11.25,103.35,21.4,24.85,19.08,38.88,49,41.71,88.85a3.87,3.87,0,0,1-3.57,4.12Z"/><path class="cls-21" d="M1749.74,1508.67c-1.24,200-4.63,890.1,5.6,1134.46,1.08,25.89,19.14,46.41,41.29,46.93,109.55,2.55,511.1,7.15,690.06-4.33,37.27-2.39,66.4-38.18,66.52-81.86.57-210-.08-800.51-23.65-1070.69-2.83-32.37-25-57.85-52.67-60.67-119.45-12.17-523.07-40.23-677.62-26.16C1771.4,1448.89,1749.94,1476,1749.74,1508.67Z"/><path class="cls-22" d="M1799.51,1569.29c-3.47,161.51-14,698.81-5.12,897.3,1.3,29,21.2,52.18,46,53.51,102.15,5.45,450.51,15.63,600-.64,26.91-2.93,47.68-28.74,48.66-60.35,5.11-164.79,19.38-665.16,10.78-861.42-1.37-31.31-22.5-56.58-49.22-59-110.57-9.93-480.91-32-608-21.94C1818.76,1518.64,1800.11,1541.33,1799.51,1569.29Z"/><path class="cls-23" d="M2019.93,1478h0c.09,6.14,4.26,11.14,9.5,11.38,25.88,1.2,98.8,4.59,131.39,6.31,6.43.34,11.37-6.49,10-13.86l-.23-1.25c-.9-5-4.54-8.77-8.91-9.17-22-2-88.55-7.58-132.52-5.08C2023.92,1466.62,2019.84,1471.81,2019.93,1478Z"/><g class="cls-24"><rect class="cls-7" x="1839.61" y="1877.71" width="33.54" height="591.5"/><rect class="cls-7" x="1895.64" y="1877.71" width="33.54" height="591.5"/><rect class="cls-7" x="1951.68" y="1877.71" width="33.54" height="591.5"/><rect class="cls-7" x="2007.71" y="1877.71" width="33.54" height="591.5"/><rect class="cls-7" x="2063.75" y="1877.71" width="33.54" height="591.5"/><rect class="cls-7" x="2119.78" y="1877.71" width="33.54" height="591.5"/><rect class="cls-7" x="2175.82" y="1877.71" width="33.54" height="591.5"/></g><rect class="cls-25" x="1839.61" y="2159.66" width="33.54" height="309.56"/><rect class="cls-26" x="1895.64" y="2266.05" width="33.54" height="203.17"/><rect class="cls-27" x="1951.68" y="2003.11" width="33.54" height="466.1"/><rect class="cls-28" x="2007.71" y="2357.24" width="33.54" height="111.98"/><rect class="cls-29" x="2063.75" y="2065.43" width="33.54" height="403.79"/><rect class="cls-30" x="2119.78" y="2135.34" width="33.54" height="333.87"/><rect class="cls-31" x="2175.82" y="2211.33" width="33.54" height="257.88"/><circle class="cls-32" cx="2347.15" cy="1990.76" r="95.81"/><path class="cls-33" d="M2404.14,1970.56a61.53,61.53,0,1,1-56.93-38.15c1,0,2.08,0,3.11.08v-15.6c-1,0-2.07-.07-3.11-.07a77.08,77.08,0,1,0,71.24,47.53Z"/><path class="cls-23" d="M2426,2127.2H2269.83a17.75,17.75,0,0,0,0,35.49H2426a17.75,17.75,0,0,0,0-35.49Z"/><circle class="cls-32" cx="2346.8" cy="1682.88" r="95.81"/><path class="cls-34" d="M2379.37,1738.08a61.53,61.53,0,1,1-32.79-113.6c1,0,2.07,0,3.1.08V1609c-1,0-2.06-.07-3.1-.07a77.13,77.13,0,1,0,40.52,142.76Z"/><path class="cls-23" d="M2426.37,1819.27H2270.24a17.75,17.75,0,0,0,0,35.49h156.13a17.75,17.75,0,0,0,0-35.49Z"/><circle class="cls-32" cx="2347.55" cy="2300.31" r="95.81"/><path class="cls-35" d="M2399.73,2334.91a61.54,61.54,0,1,1-50.89-96.14c1,0,2.07,0,3.1.08v-15.6c-1,0-2.06-.07-3.1-.07a77.13,77.13,0,1,0,63.52,120.88Z"/><path class="cls-23" d="M2269.49,2469.06h156.1a17.75,17.75,0,0,0,0-35.49h-156.1a17.75,17.75,0,0,0,0,35.49Z"/><rect class="cls-36" x="1839.61" y="1575" width="379.85" height="244.27" rx="10.35"/><path class="cls-37" d="M1283.83,2201.12l78.85,1-27.6-26a20.59,20.59,0,0,0-25.24-2.37,59.58,59.58,0,0,0-14,12.5s-49.19-18-73-58.2a243.33,243.33,0,0,0-23.64,44.73C1220.53,2185.33,1248.24,2195.2,1283.83,2201.12Z"/><path class="cls-38" d="M1386.37,2763.44c-21,1.81-57.42,4.76-86.15,6-17.26.76-27.2-.93-32.93-3.22a17.75,17.75,0,0,0,.06,1.82,5.94,5.94,0,0,0,5.64,5.61,1008.22,1008.22,0,0,0,112.8.11,4.23,4.23,0,0,0,4-4.43,4.29,4.29,0,0,0-.57-1.92A33.94,33.94,0,0,0,1386.37,2763.44Z"/><path class="cls-39" d="M1300.22,2769.46c28.73-1.26,65.16-4.21,86.15-6-20.64-25.33-86.15-42.39-86.15-42.39h-18.5c-12.72,18.34-14.56,35.8-14.43,45.19C1273,2768.53,1283,2770.22,1300.22,2769.46Z"/><path class="cls-40" d="M1278.59,2690.84l1.73,34.26a7.82,7.82,0,0,0,6.68,7.36,30.32,30.32,0,0,0,13.9-1.15,9.23,9.23,0,0,0,6.22-7.11l6-33.36Z"/><path class="cls-41" d="M1063.88,2792.89c-9.11-1.48-13.23-7-15-12.87a.43.43,0,0,0,0,.16,14.22,14.22,0,0,0,8,15.7c7.51,3.7,15.71,4.33,22.08,4,6.83-.33,13.1-3.62,16.55-8.89v-.07C1088.68,2794.89,1079.06,2795.35,1063.88,2792.89Z"/><path class="cls-42" d="M1106.8,2701.4h-15.21c-23.24-.55-37.84,56.52-42.61,78.62,1.72,5.88,5.84,11.39,15,12.87,15.18,2.46,24.8,2,31.66-2,12.56-19.24,18.78-47.41,21.78-63.86C1120.72,2708.38,1106.8,2701.4,1106.8,2701.4Z"/><path class="cls-43" d="M1093.5,2669.6l-8.47,33.7a9.14,9.14,0,0,0,4.76,10.36c4.74,2.43,11.41,5,17.54,4.25a7.65,7.65,0,0,0,6.23-5.1l12.44-35.45Z"/><path class="cls-44" d="M1391.59,2225.78s-75.71,473.28-74.47,475.88c0,0-20.91,9.5-43.71,1.21,0,0,6.85-253,22.89-350,0,0-129.21,226.13-170.25,338.8,0,0-21.4-2.55-39.12-14.21,0,0,139.14-407,176.25-461.24Z"/><path class="cls-45" d="M1299.28,2349.87a1.72,1.72,0,0,1-1.71-1.71,1.68,1.68,0,0,1,.26-.9l28.3-45.2a1.72,1.72,0,0,1,1.11-.76l20.82-4.19a1.7,1.7,0,0,1,.67,3.34l-20.1,4.05-27.91,44.57A1.69,1.69,0,0,1,1299.28,2349.87Z"/><path class="cls-46" d="M1739,1762.35s-51.09,11.26-82.16,25.61a28.35,28.35,0,0,0-13.9,14c-9.29,20.36-37.1,71.41-91,95.77,7.76,10.31,20.27,31.75,25.71,67.79,32.39-24.11,60.35-64.37,73.78-130.39,0,0,10.22,5.56,23-.63,6.74-3.28,14.52-7.92,20.36-11.57a26.68,26.68,0,0,0,11.82-16c2.22-8.72.91-16.39.91-24.61l26.26-8.14S1741.59,1771.28,1739,1762.35Z"/><path class="cls-47" d="M1577.59,1965.49c-5.44-36-18-57.48-25.71-67.79-33.5,15.14-77.08,20-132.56.75a59.27,59.27,0,0,0-15.86-3.13c-29.54-1.73-126.89-4.89-207.43,21.72a62.52,62.52,0,0,0-37.76,34.37c-21.79,50-57.07,163.88,40.86,221.37a243.33,243.33,0,0,1,23.64-44.73c-15.77-26.6-20.44-62.93,7.54-110.24,20.41,55.1,30,135.5,32,171.08a76.53,76.53,0,0,1-6,34.23l-.5,1.18a4,4,0,0,0,2,5.27,3.93,3.93,0,0,0,.8.26c55.13,12.38,112.48,9,129.61,7.6a7.07,7.07,0,0,0,6.3-5.4c26.81-113,26.87-190,20.3-238.72C1440,1998.91,1516.64,2010.87,1577.59,1965.49Z"/><path class="cls-48" d="M1415,1995.81a1.7,1.7,0,0,1-1.69-1.48c-6.33-47.83-19.19-68.53-19.32-68.73a1.71,1.71,0,0,1,2.88-1.83c.55.86,13.4,21.55,19.83,70.12a1.71,1.71,0,0,1-1.47,1.91Z"/><path class="cls-49" d="M1278.93,1829.52s-5.58,59-10.49,76.41a6,6,0,0,0,2.81,6.81c8.33,4.76,28.32,12.53,55.66-.87a12.4,12.4,0,0,0,6.89-11.67l-2.41-57Z"/><path class="cls-50" d="M1332.59,1754.08s17.83,41,19,62.48,5.83,35.47-19,39.8-45.82-8.06-57.17-29.48c0,0-17.79-33-13.8-46.54S1332.59,1754.08,1332.59,1754.08Z"/><path class="cls-51" d="M1283.92,1811.47l1.42-.62a3.42,3.42,0,0,0,1.76-4.51l-.09-.18c-3.51-6.78-10.35-22.3-1.51-25.93,11.38-4.66,56.46-13.86,66.19-29.86,9.35-15.37,1.07-35.22-11.38-40.86a1.73,1.73,0,0,0-2.25.73l-1,2a1.69,1.69,0,0,1-2.28.71,1.72,1.72,0,0,1-.84-1h0a1.68,1.68,0,0,0-2.1-1.11,1.64,1.64,0,0,0-.9.67c-3,4.79-11.07,12.55-32.65,16.53-30.68,5.67-51,18.08-51.47,39.28a1.7,1.7,0,0,1-1.73,1.67,1.75,1.75,0,0,1-.89-.27c-2.26-1.38-5.89-2-10.73,2-8.43,7.09-5,25.47,13.49,40.58a1.68,1.68,0,0,1,.29,2.36,1.76,1.76,0,0,1-.37.35c-3.35,2.18-8.34,7.37,4.59,14.28,13.38,7.15,23.37,6.57,27.22,5.93a1.67,1.67,0,0,0,1.38-1.92l0-.08-4.1-18.63a1.69,1.69,0,0,1,1.28-2,1.55,1.55,0,0,1,.37,0Z"/><path class="cls-52" d="M1284.7,1815.4s-6.81-26.17-18.54-18.83,6.09,29.33,15.52,30.31Z"/><path class="cls-53" d="M1665,1830.19a3.4,3.4,0,0,1-2.64-5.56c2-2.4,19.22-23.52,26-27.36,2.92-1.65,3.48-2.85,3.58-3.3a1.24,1.24,0,0,0,0-.47l-18.8,3.76-11.18,9.6a3.41,3.41,0,0,1-4.64-5l.2-.17,11.85-10.18a3.41,3.41,0,0,1,1.56-.76l22.3-4.46a3.4,3.4,0,0,1,3.49,1.43c1.81,2.68,2.42,5.31,1.83,7.82-.7,3-2.94,5.46-6.86,7.67-4.27,2.41-17,17.06-24.08,25.72A3.41,3.41,0,0,1,1665,1830.19Z"/><path class="cls-54" d="M1250.81,2169.37s6.71-11.18,22.36-11.18,33.54,29.07,33.54,29.07-24.6,11.18-33.54,20.12S1250.81,2187.26,1250.81,2169.37Z"/></g></g></g></svg>