<svg xmlns="http://www.w3.org/2000/svg" xmlns:xlink="http://www.w3.org/1999/xlink" viewBox="0 0 2784.7 2775.11"><defs><style>.cls-1{fill:url(#linear-gradient);}.cls-2{fill:#91b3fa;}.cls-3{fill:#bdd0fb;}.cls-4{fill:url(#linear-gradient-2);}.cls-5{fill:url(#linear-gradient-3);}.cls-6{fill:url(#linear-gradient-4);}.cls-7{fill:url(#linear-gradient-5);}.cls-8{fill:url(#linear-gradient-6);}.cls-9{fill:url(#linear-gradient-7);}.cls-10{fill:url(#linear-gradient-8);}.cls-11{fill:url(#linear-gradient-9);}.cls-12{fill:url(#linear-gradient-10);}.cls-13{fill:url(#linear-gradient-11);}.cls-14{fill:url(#linear-gradient-12);}.cls-15{fill:url(#linear-gradient-13);}.cls-16{fill:url(#linear-gradient-14);}.cls-17{fill:url(#linear-gradient-15);}.cls-18{fill:url(#linear-gradient-16);}.cls-19{fill:url(#linear-gradient-17);}.cls-20{fill:url(#linear-gradient-18);}.cls-21{fill:#7d97f4;}.cls-22,.cls-23{fill:#fff;}.cls-22{opacity:0.6;isolation:isolate;}.cls-24{fill:url(#linear-gradient-19);}.cls-25{fill:url(#linear-gradient-20);}.cls-26{fill:url(#linear-gradient-21);}.cls-27{fill:url(#linear-gradient-22);}.cls-28{fill:url(#linear-gradient-23);}.cls-29{fill:url(#linear-gradient-24);}.cls-30{fill:url(#linear-gradient-25);}.cls-31{fill:url(#linear-gradient-26);}.cls-32{fill:url(#linear-gradient-27);}.cls-33{fill:url(#linear-gradient-28);}</style><linearGradient id="linear-gradient" x1="16.58" y1="1387.73" x2="2766.8" y2="1387.73" gradientTransform="matrix(1, 0, 0, -1, 0, 2781.65)" gradientUnits="userSpaceOnUse"><stop offset="0" stop-color="#dae3fe"/><stop offset="1" stop-color="#e9effd"/></linearGradient><linearGradient id="linear-gradient-2" x1="1271.38" y1="-1146.68" x2="2722.24" y2="-418.17" gradientTransform="matrix(0.82, -0.57, -0.57, -0.82, -2178.32, 3389.01)" gradientUnits="userSpaceOnUse"><stop offset="0" stop-color="#e1473d"/><stop offset="1" stop-color="#e9605a"/></linearGradient><linearGradient id="linear-gradient-3" x1="545.81" y1="110.99" x2="854.47" y2="110.99" gradientTransform="matrix(1, 0, 0, -1, 646.41, 2781.65)" gradientUnits="userSpaceOnUse"><stop offset="0" stop-color="#4f52ff"/><stop offset="1" stop-color="#4042e2"/></linearGradient><linearGradient id="linear-gradient-4" x1="545.79" y1="171.49" x2="845.77" y2="171.49" gradientTransform="matrix(1, 0, 0, -1, 646.41, 2781.65)" gradientUnits="userSpaceOnUse"><stop offset="0" stop-color="#09005d"/><stop offset="1" stop-color="#1a0f91"/></linearGradient><linearGradient id="linear-gradient-5" x1="574.31" y1="255.97" x2="661.26" y2="255.97" gradientTransform="matrix(1, 0, 0, -1, 646.41, 2781.65)" gradientUnits="userSpaceOnUse"><stop offset="0" stop-color="#febbba"/><stop offset="1" stop-color="#ff928e"/></linearGradient><linearGradient id="linear-gradient-6" x1="-5.21" y1="34.45" x2="113.09" y2="34.45" xlink:href="#linear-gradient-3"/><linearGradient id="linear-gradient-7" x1="-4.35" y1="152.16" x2="169.3" y2="152.16" xlink:href="#linear-gradient-4"/><linearGradient id="linear-gradient-8" x1="85.89" y1="301.31" x2="189.82" y2="301.31" xlink:href="#linear-gradient-5"/><linearGradient id="linear-gradient-9" x1="926.5" y1="1422.8" x2="39.22" y2="-30.66" xlink:href="#linear-gradient-4"/><linearGradient id="linear-gradient-10" x1="2123.76" y1="2922.43" x2="1303.66" y2="1168.12" gradientTransform="matrix(1, 0, 0, -1, 0, 2781.65)" xlink:href="#linear-gradient-3"/><linearGradient id="linear-gradient-11" x1="1472.63" y1="3797.93" x2="1768.38" y2="4509.74" xlink:href="#linear-gradient-3"/><linearGradient id="linear-gradient-12" x1="2087.65" y1="2630.02" x2="1771.84" y2="2354.32" gradientTransform="matrix(1, 0, 0, -1, 0, 2781.65)" xlink:href="#linear-gradient-3"/><linearGradient id="linear-gradient-13" x1="597.91" y1="2144.29" x2="642.94" y2="2380.7" xlink:href="#linear-gradient-5"/><linearGradient id="linear-gradient-14" x1="719.75" y1="2578.01" x2="462.83" y2="2381.43" xlink:href="#linear-gradient-5"/><linearGradient id="linear-gradient-15" x1="538.9" y1="2733.7" x2="778.18" y2="2425.62" xlink:href="#linear-gradient-4"/><linearGradient id="linear-gradient-16" x1="687.89" y1="2619.67" x2="430.96" y2="2423.09" xlink:href="#linear-gradient-5"/><linearGradient id="linear-gradient-17" x1="789.75" y1="1887.8" x2="642.32" y2="1666.66" xlink:href="#linear-gradient-5"/><linearGradient id="linear-gradient-18" x1="-1582.87" y1="1852.1" x2="-1727.33" y2="1635.4" gradientTransform="translate(-440.81 2781.65) rotate(180)" xlink:href="#linear-gradient-5"/><linearGradient id="linear-gradient-19" x1="556.12" y1="6737.43" x2="851.88" y2="7449.25" gradientTransform="matrix(1, 0, 0, -1, 3275.85, 2781.65)" xlink:href="#linear-gradient-3"/><linearGradient id="linear-gradient-20" x1="689.86" y1="6681.86" x2="985.61" y2="7393.67" gradientTransform="matrix(1, 0, 0, -1, 3275.85, 2781.65)" xlink:href="#linear-gradient-3"/><linearGradient id="linear-gradient-21" x1="855.75" y1="6612.92" x2="1151.51" y2="7324.74" gradientTransform="matrix(1, 0, 0, -1, 3275.85, 2781.65)" xlink:href="#linear-gradient-3"/><linearGradient id="linear-gradient-22" x1="969.96" y1="6565.49" x2="1265.71" y2="7277.31" gradientTransform="matrix(1, 0, 0, -1, 3275.85, 2781.65)" xlink:href="#linear-gradient-3"/><linearGradient id="linear-gradient-23" x1="1097.95" y1="6512.31" x2="1393.7" y2="7224.13" gradientTransform="matrix(1, 0, 0, -1, 3275.85, 2781.65)" xlink:href="#linear-gradient-3"/><linearGradient id="linear-gradient-24" x1="-2581.27" y1="2184.11" x2="-2439.2" y2="2184.11" gradientTransform="translate(-440.81 2781.65) rotate(180)" xlink:href="#linear-gradient-5"/><linearGradient id="linear-gradient-25" x1="-0.06" y1="-5436.75" x2="9.96" y2="-5862.87" gradientTransform="matrix(0.83, 0.55, 0.55, -0.83, 859.12, 1788.93)" gradientUnits="userSpaceOnUse"><stop offset="0" stop-color="#fe7062"/><stop offset="1" stop-color="#ff928e"/></linearGradient><linearGradient id="linear-gradient-26" x1="821.44" y1="-2251.89" x2="831.47" y2="-2677.99" gradientTransform="matrix(0.93, 0.37, 0.37, -0.93, 479.32, 2049.39)" xlink:href="#linear-gradient-25"/><linearGradient id="linear-gradient-27" x1="6546.62" y1="8462.88" x2="6842.37" y2="9174.7" gradientTransform="matrix(0.89, -0.45, -0.45, -0.89, -169.02, 3916.06)" xlink:href="#linear-gradient-25"/><linearGradient id="linear-gradient-28" x1="2718.22" y1="2651.38" x2="3013.98" y2="3363.2" gradientTransform="matrix(1, 0, 0, -1, 0, 2781.65)" xlink:href="#linear-gradient-25"/></defs><title>Asset 4</title><g id="Layer_2" data-name="Layer 2"><g id="Layer_1-2" data-name="Layer 1"><g id="Illustration"><path class="cls-1" d="M2435.89,2385c-71.58,74.33-135.64,118-184.68,151-478.28,321.71-1025,229-1194,197.29-272.72-51.13-502.93-87.21-700.72-267.22C-93,2057.05-71.15,1203.73,272.29,675.11,313,612.43,655.92,100.38,1203.83,28.23c13.4-1.77,23.4-2.77,32.16-3.71,84.76-9,610-56.75,1038.3,304.72,61.3,51.74,160,145.07,251.45,287.41C2860.33,1137.17,2861.33,1943.27,2435.89,2385Z"/><path class="cls-2" d="M41.22,890.65a3.34,3.34,0,0,1-3.07-2q-2.64-6.18-5.1-12.45a3.34,3.34,0,1,1,6.22-2.45q2.43,6.18,5,12.28a3.35,3.35,0,0,1-1.77,4.38h0A3.5,3.5,0,0,1,41.22,890.65Z"/><path class="cls-2" d="M22.39,838a3.37,3.37,0,0,1-3.21-2.41c-2.46-8.42-4.71-17-6.69-25.52A3.34,3.34,0,1,1,19,808.57c1.95,8.4,4.18,16.87,6.6,25.17a3.34,3.34,0,0,1-2.27,4.14A3.75,3.75,0,0,1,22.39,838ZM8,770.83A3.35,3.35,0,0,1,4.65,768c-1.21-8.66-2.2-17.48-2.94-26.22a3.34,3.34,0,0,1,6.66-.56h0c.73,8.61,1.71,17.32,2.9,25.85a3.35,3.35,0,0,1-2.85,3.78A3.55,3.55,0,0,1,8,770.83ZM3.33,702.25h0A3.35,3.35,0,0,1,0,698.89c0-8.74.31-17.6.82-26.36a3.31,3.31,0,0,1,3.45-3.15h.08a3.33,3.33,0,0,1,3.14,3.52h0c-.5,8.63-.77,17.38-.8,26A3.35,3.35,0,0,1,3.33,702.25Zm5.21-68.5H8A3.35,3.35,0,0,1,5.23,630h0c1.29-8.67,2.85-17.41,4.61-26a3.34,3.34,0,1,1,6.55,1.35c-1.74,8.45-3.28,17.06-4.55,25.61a3.35,3.35,0,0,1-3.31,2.84Zm15.06-67a3.72,3.72,0,0,1-1-.14,3.36,3.36,0,0,1-2.23-4.17c2.54-8.37,5.35-16.8,8.36-25.07A3.34,3.34,0,1,1,35,539.66h0c-3,8.15-5.74,16.47-8.24,24.72a3.36,3.36,0,0,1-3.18,2.33Zm24.67-64.19a3.49,3.49,0,0,1-1.42-.31,3.34,3.34,0,0,1-1.6-4.45h0C49,489.86,53,481.92,57.14,474.22A3.35,3.35,0,0,1,63,477.4C58.93,485,55,492.81,51.3,500.64a3.35,3.35,0,0,1-3,1.88ZM82,442.64a3.35,3.35,0,0,1-3.33-3.37,3.27,3.27,0,0,1,.55-1.82c4.83-7.29,9.93-14.56,15.16-21.6a3.35,3.35,0,1,1,5.51,3.81l-.14.19c-5.17,6.94-10.2,14.1-15,21.3A3.34,3.34,0,0,1,82,442.6Zm42-54.44a3.35,3.35,0,0,1-3.33-3.37,3.3,3.3,0,0,1,.84-2.2c5.82-6.51,11.91-13,18.09-19.19a3.34,3.34,0,1,1,4.74,4.72c-6.1,6.13-12.11,12.5-17.84,18.92a3.36,3.36,0,0,1-2.55,1.08Zm49.32-47.84a3.35,3.35,0,0,1-2.15-5.91c6.73-5.64,13.67-11.15,20.66-16.38a3.34,3.34,0,0,1,4.26,5.14l-.26.2c-6.88,5.16-13.73,10.6-20.36,16.16a3.38,3.38,0,0,1-2.2.75ZM229,300.11a3.35,3.35,0,0,1-1.76-6.19c7.44-4.6,15.11-9,22.79-13.23a3.34,3.34,0,0,1,3.19,5.88h0c-7.57,4.12-15.13,8.5-22.46,13a3.38,3.38,0,0,1-1.81.5Zm60.88-31.77a3.34,3.34,0,0,1-1.33-6.41c8-3.47,16.26-6.76,24.5-9.8a3.34,3.34,0,1,1,2.31,6.27c-8.13,3-16.25,6.25-24.16,9.66a3.36,3.36,0,0,1-1.37.24Zm360.79-6.68a3.39,3.39,0,0,1-1.22-.23c-8-3.14-16.29-6.09-24.49-8.77a3.34,3.34,0,0,1,2.08-6.35c8.31,2.72,16.67,5.71,24.84,8.9a3.34,3.34,0,0,1-1.21,6.45Zm-296-16a3.34,3.34,0,0,1-.87-6.57c8.47-2.27,17.1-4.34,25.66-6.13a3.34,3.34,0,0,1,1.37,6.54c-8.43,1.77-16.94,3.8-25.29,6A3.61,3.61,0,0,1,354.66,245.69Zm230.23-4.3a3.82,3.82,0,0,1-.75-.08c-8.43-1.93-17-3.65-25.51-5.12a3.34,3.34,0,0,1,.91-6.62l.22,0c8.62,1.48,17.32,3.22,25.87,5.18a3.34,3.34,0,0,1-.74,6.6Zm-162.77-8.66a3.34,3.34,0,0,1-.38-6.66c8.68-1,17.51-1.82,26.26-2.38a3.34,3.34,0,0,1,.43,6.67h0c-8.63.55-17.35,1.34-25.91,2.35ZM517,230.94h-.27c-8.58-.69-17.32-1.15-26-1.37a3.35,3.35,0,0,1-3.26-3.42h0a3.32,3.32,0,0,1,3.36-3.27h.07c8.78.23,17.64.69,26.35,1.39a3.35,3.35,0,0,1-.27,6.68Z"/><path class="cls-2" d="M701.65,285.11a3.3,3.3,0,0,1-1.57-.4q-5.85-3.12-11.8-6.08a3.35,3.35,0,0,1,3-6q6,3,12,6.17a3.34,3.34,0,0,1-1.57,6.29Z"/><path class="cls-2" d="M933.58,568.52a3.35,3.35,0,0,1-3.2-2.39q-1.89-6.37-4-12.66a3.34,3.34,0,0,1,6.35-2.09h0c1.39,4.26,2.74,8.54,4,12.85a3.35,3.35,0,0,1-2.25,4.15A3.38,3.38,0,0,1,933.58,568.52Z"/><path class="cls-2" d="M498.14,1179a3.34,3.34,0,1,1-.15-6.68h0l3.12-.14c8-.39,16.1-1,24.07-1.77a3.34,3.34,0,0,1,.66,6.65h0c-8.08.8-16.3,1.4-24.41,1.8l-3.14.14Zm-44.57-.2h-.18c-9.19-.47-18.46-1.21-27.54-2.21a3.34,3.34,0,0,1,.73-6.64h0c9,1,18.09,1.71,27.15,2.17a3.34,3.34,0,0,1-.16,6.68Zm116-8.16a3.35,3.35,0,0,1-.64-6.63c8.89-1.73,17.84-3.74,26.58-6a3.34,3.34,0,0,1,1.65,6.48h0c-8.87,2.26-17.93,4.3-26.95,6a3.3,3.3,0,0,1-.62.15Zm-187.41-.94a3.82,3.82,0,0,1-.68-.07c-9-1.85-18-4-26.89-6.36a3.34,3.34,0,0,1,1.74-6.43c8.74,2.34,17.66,4.45,26.51,6.27a3.34,3.34,0,0,1-.67,6.62Zm256.78-18.13a3.34,3.34,0,0,1-1.13-6.49c8.52-3.06,17-6.4,25.35-9.94a3.34,3.34,0,0,1,2.62,6.15c-8.42,3.59-17.07,7-25.71,10.08a3.81,3.81,0,0,1-1.11.2Zm-326-1.72a3.32,3.32,0,0,1-1.17-.21c-8.6-3.2-17.22-6.69-25.6-10.38a3.34,3.34,0,0,1,2.48-6.21l.21.1c8.27,3.63,16.76,7.07,25.24,10.23a3.34,3.34,0,0,1-1.16,6.47Zm391.61-27.68a3.34,3.34,0,0,1-1.6-6.28c7.92-4.29,15.84-8.89,23.52-13.66a3.34,3.34,0,0,1,3.53,5.68h0c-7.8,4.84-15.83,9.5-23.86,13.86a3.51,3.51,0,0,1-1.52.4Zm60.42-39a3.34,3.34,0,0,1-2-6c7.2-5.46,14.33-11.21,21.2-17.07a3.34,3.34,0,0,1,4.34,5.08h0c-7,6-14.2,11.77-21.5,17.31a3.43,3.43,0,0,1-2,.69Zm53.87-47.67a3.34,3.34,0,0,1-2.4-5.66c6.33-6.51,12.52-13.26,18.42-20.08a3.34,3.34,0,1,1,5,4.38h0c-6,6.91-12.26,13.75-18.67,20.35a3.36,3.36,0,0,1-2.33,1ZM865,980.27a3.34,3.34,0,0,1-2.72-5.28c5.26-7.36,10.37-15,15.2-22.62a3.34,3.34,0,0,1,5.74,3.42l-.09.14c-4.89,7.76-10.08,15.48-15.41,22.94a3.36,3.36,0,0,1-2.65,1.41Zm37.29-61.54a3.43,3.43,0,0,1-1.51-.37,3.35,3.35,0,0,1-1.47-4.49c4.09-8,8-16.35,11.62-24.66a3.34,3.34,0,0,1,6.13,2.67c-3.68,8.42-7.64,16.84-11.79,25a3.35,3.35,0,0,1-2.89,1.86Zm27.55-66.49a3.74,3.74,0,0,1-1-.17,3.35,3.35,0,0,1-2.13-4.22c2.81-8.57,5.41-17.37,7.74-26.16a3.34,3.34,0,1,1,6.46,1.71c-2.36,8.91-5,17.84-7.85,26.53a3.35,3.35,0,0,1-3.15,2.32Zm17.13-69.93a5,5,0,0,1-.55,0,3.34,3.34,0,0,1-2.75-3.84c1.47-8.9,2.7-18,3.66-27a3.34,3.34,0,1,1,6.66.49,1.49,1.49,0,0,1,0,.21c-1,9.14-2.21,18.35-3.71,27.37a3.36,3.36,0,0,1-3.22,2.78Zm6.31-71.65h0a3.35,3.35,0,0,1-3.31-3.37h0v-5.84c0-7.1-.16-14.3-.48-21.41a3.34,3.34,0,1,1,6.68-.3h0c.32,7.21.48,14.52.48,21.71v5.92a3.35,3.35,0,0,1-3.27,3.31Zm-4.5-71.82a3.34,3.34,0,0,1-3.3-2.89c-1.24-9-2.76-18-4.51-26.87a3.34,3.34,0,1,1,6.56-1.29c1.77,9,3.31,18.15,4.56,27.25a3.34,3.34,0,0,1-2.85,3.77h0l-.39,0Z"/><path class="cls-2" d="M247.4,1119.57a3.52,3.52,0,0,1-1.62-.42q-5.9-3.29-11.66-6.72a3.34,3.34,0,0,1,3.22-5.86l.19.12q5.7,3.38,11.5,6.61a3.35,3.35,0,0,1-1.63,6.27Z"/><path class="cls-2" d="M254,988.83a5.73,5.73,0,0,0,6.55,1l61.87-31.41a302.15,302.15,0,0,0,91.06,36l23.68,65.18a5.7,5.7,0,0,0,5.45,3.75l83.22-1.37a5.72,5.72,0,0,0,5.33-3.93l21.52-65.91a302.41,302.41,0,0,0,89.83-39l62.87,29.36a5.7,5.7,0,0,0,6.51-1.2l57.88-59.81a5.7,5.7,0,0,0,1-6.54l-31.42-61.83a302.31,302.31,0,0,0,36-91.07l65.18-23.68a5.71,5.71,0,0,0,3.75-5.45l-1.37-83.22a5.67,5.67,0,0,0-3.93-5.32l-65.9-21.55a302,302,0,0,0-39-89.83l29.36-62.87a5.69,5.69,0,0,0-1.2-6.51l-59.81-57.88a5.68,5.68,0,0,0-6.54-1L634,436.15a301.89,301.89,0,0,0-91.06-36L519.25,335a5.7,5.7,0,0,0-5.45-3.76l-83.22,1.37a5.67,5.67,0,0,0-5.32,3.93l-21.53,65.92a301.79,301.79,0,0,0-89.83,39L251,412.08a5.7,5.7,0,0,0-6.51,1.2l-57.88,59.81a5.69,5.69,0,0,0-1,6.55l31.41,61.87a302.15,302.15,0,0,0-36,91.06l-65.17,23.68a5.68,5.68,0,0,0-3.76,5.45l1.37,83.22a5.73,5.73,0,0,0,3.93,5.33l65.91,21.52a302.27,302.27,0,0,0,39,89.83L193,924.47a5.7,5.7,0,0,0,1.2,6.51Z"/><path class="cls-3" d="M478.22,776.24a79,79,0,1,1,20.55-2.74h0A79.24,79.24,0,0,1,478.22,776.24Zm0-147.83a68.9,68.9,0,1,0,18,135.41h0a68.9,68.9,0,0,0-18-135.41Z"/><path class="cls-3" d="M479.33,901.83h0a208.24,208.24,0,0,1-40.24-3.93l2-9.83a195.53,195.53,0,0,0,41.53,3.71,199.54,199.54,0,0,0,29.29-2.64H512a195.94,195.94,0,0,0,163.16-193v-3.29c-1.84-107-89.32-192.72-195.84-192.72h-3.26c-106.88,1.76-192.62,89.27-192.6,195.77v3.24a195.62,195.62,0,0,0,29.4,100.08l-8.51,5.29A205.52,205.52,0,0,1,273.45,699.3v-3.4C273.45,584,363.56,492,475.92,490.11c113.51-1.81,207.33,89,209.19,202.43V696c0,112.34-90.14,203.9-202.47,205.74Z"/><path class="cls-2" d="M821.74,436.83l33.16-20.29a169.49,169.49,0,0,0,52.43,16l16.12,35.35a3.2,3.2,0,0,0,3.22,1.85l46.41-4.46a3.2,3.2,0,0,0,2.8-2.43L985,425.1a169.5,169.5,0,0,0,48.44-25.76l36.42,13.6a3.2,3.2,0,0,0,3.58-1l29.67-36a3.19,3.19,0,0,0,.26-3.7l-20.29-33.16a169.49,169.49,0,0,0,16.07-52.46l35.35-16.12a3.21,3.21,0,0,0,1.86-3.22l-4.46-46.41a3.21,3.21,0,0,0-2.43-2.81L1091.68,209a169.52,169.52,0,0,0-25.77-48.44l13.61-36.42a3.21,3.21,0,0,0-1-3.58l-36-29.67a3.18,3.18,0,0,0-3.7-.26l-33.16,20.29a168.6,168.6,0,0,0-52.33-16L937.21,59.53A3.2,3.2,0,0,0,934,57.68l-46.42,4.46a3.18,3.18,0,0,0-2.8,2.43l-9.09,37.77a169.08,169.08,0,0,0-48.45,25.77L790.83,114.5a3.2,3.2,0,0,0-3.59,1l-29.67,36a3.21,3.21,0,0,0-.26,3.7l20.29,33.16a169.32,169.32,0,0,0-16.07,52.46l-35.35,16.12a3.18,3.18,0,0,0-1.85,3.21l4.46,46.42a3.21,3.21,0,0,0,2.43,2.8L769,318.46a169.51,169.51,0,0,0,25.72,48.37l-13.6,36.41a3.2,3.2,0,0,0,1,3.59l36,29.67A3.22,3.22,0,0,0,821.74,436.83Z"/><path class="cls-3" d="M930.38,310.15a46.43,46.43,0,1,1,15.56-2.71h0A46.61,46.61,0,0,1,930.38,310.15Zm0-82.84a36.45,36.45,0,1,0,15.56,3.52A36.45,36.45,0,0,0,930.33,227.31Z"/><path class="cls-2" d="M738.69,427.63a3.33,3.33,0,0,1-2.56-1.2c-2.89-3.44-5.72-7-8.42-10.6a3.35,3.35,0,0,1,5.35-4c2.63,3.5,5.38,7,8.19,10.33a3.35,3.35,0,0,1-2.56,5.49Z"/><path class="cls-2" d="M708,381.33a3.36,3.36,0,0,1-3-1.82,259.17,259.17,0,0,1-10.8-24,3.34,3.34,0,1,1,6.23-2.42,251.72,251.72,0,0,0,10.51,23.42A3.31,3.31,0,0,1,709.5,381l0,0A3.33,3.33,0,0,1,708,381.33Zm-22.61-64.27a3.36,3.36,0,0,1-3.27-2.67,252.63,252.63,0,0,1-4-26.08,3.34,3.34,0,1,1,6.65-.65A244.38,244.38,0,0,0,688.61,313,3.34,3.34,0,0,1,686,317h0A4.5,4.5,0,0,1,685.38,317.06Zm-4.44-68h-.25a3.35,3.35,0,0,1-3.09-3.57,255.56,255.56,0,0,1,3.28-26.17,3.34,3.34,0,1,1,6.58,1.17A247.67,247.67,0,0,0,684.27,246a3.36,3.36,0,0,1-3.33,3.11Zm14.15-66.64A3.34,3.34,0,0,1,692,178v0a253.68,253.68,0,0,1,10.2-24.31,3.34,3.34,0,1,1,6.2,2.48,4,4,0,0,1-.2.42,251.78,251.78,0,0,0-9.94,23.67,3.34,3.34,0,0,1-3.13,2.23Zm31.54-60.36a3.34,3.34,0,0,1-2.72-5.28,254.31,254.31,0,0,1,16.35-20.66,3.34,3.34,0,0,1,5,4.41,247.67,247.67,0,0,0-15.93,20.15,3.36,3.36,0,0,1-2.7,1.4Zm46.63-49.62a3.34,3.34,0,0,1-2.1-5.94A250.9,250.9,0,0,1,792.51,51a3.35,3.35,0,0,1,3.63,5.62,244.45,244.45,0,0,0-20.78,15,3.37,3.37,0,0,1-2.1.81Zm58.35-35.11a3.35,3.35,0,0,1-1.32-6.42c4.86-2.08,9.86-4,14.84-5.82q4.93-1.77,9.89-3.31a3.34,3.34,0,0,1,2,6.38q-4.83,1.5-9.64,3.22c-4.85,1.74-9.72,3.65-14.45,5.68a3.56,3.56,0,0,1-1.32.29Zm65.66-18.17a3.35,3.35,0,0,1-.45-6.66,251.53,251.53,0,0,1,26.29-2.14,3.35,3.35,0,0,1,.19,6.69,240.52,240.52,0,0,0-25.58,2.08Z"/><path class="cls-2" d="M978.71,21.71a4.62,4.62,0,0,1-.65-.06c-4.27-.85-8.64-1.59-13-2.21a3.34,3.34,0,0,1,.94-6.62c4.48.64,9,1.4,13.35,2.27a3.34,3.34,0,0,1-.65,6.62Z"/><path class="cls-2" d="M1142.26,134.31a3.38,3.38,0,0,1-2.83-1.57c-2.34-3.74-4.79-7.44-7.29-11a3.34,3.34,0,1,1,5.47-3.85h0c2.57,3.65,5.08,7.44,7.48,11.29a3.33,3.33,0,0,1-1,4.59h0A3.36,3.36,0,0,1,1142.26,134.31Z"/><path class="cls-2" d="M930.33,517.07c-1.75,0-3.49,0-5.24-.06a3.34,3.34,0,1,1,.14-6.68h0a241.84,241.84,0,0,0,25.25-.78,3.35,3.35,0,1,1,.55,6.67C944.21,516.83,937.25,517.07,930.33,517.07Zm61.42-7.72a3.34,3.34,0,0,1-.83-6.58c7.49-1.9,15-4.2,22.35-6.82l1.79-.65a3.34,3.34,0,1,1,2.28,6.28h0l-1.82.66c-7.54,2.69-15.26,5.05-23,7a3.67,3.67,0,0,1-.74.11Zm62.17-25a3.34,3.34,0,0,1-1.65-6.25,247.45,247.45,0,0,0,21.3-13.57,3.34,3.34,0,0,1,4.06,5.3l-.19.14a250.45,250.45,0,0,1-21.87,13.94,3.39,3.39,0,0,1-1.62.44Zm53.3-40.62a3.35,3.35,0,0,1-2.37-5.71,243.86,243.86,0,0,0,16.88-18.76,3.34,3.34,0,1,1,5.19,4.21,249.23,249.23,0,0,1-17.34,19.27,3.33,3.33,0,0,1-2.33,1Zm40.52-53.35a3.35,3.35,0,0,1-2.91-5h0c4.13-7.3,7.94-14.9,11.32-22.58a3.34,3.34,0,1,1,6.2,2.47,2,2,0,0,1-.09.22,252,252,0,0,1-11.62,23.18,3.34,3.34,0,0,1-2.88,1.7Zm25-62.19a3.75,3.75,0,0,1-.82-.1,3.35,3.35,0,0,1-2.42-4.06h0a249.62,249.62,0,0,0,4.94-24.78,3.31,3.31,0,0,1,3.73-2.83h.06a3.34,3.34,0,0,1,2.82,3.8,256,256,0,0,1-5.07,25.44,3.37,3.37,0,0,1-3.22,2.52Zm7.58-66.6a3.33,3.33,0,0,1-3.34-3.27,249.31,249.31,0,0,0-1.85-25.18,3.34,3.34,0,0,1,6.63-.83h0a254.24,254.24,0,0,1,1.9,25.87,3.34,3.34,0,0,1-3.25,3.41h-.09Zm-10.48-66.19a3.34,3.34,0,0,1-3.2-2.38c-1.23-4.1-2.59-8.25-4-12.31-1.39-3.88-2.88-7.75-4.43-11.5a3.34,3.34,0,1,1,6.18-2.55c1.59,3.85,3.12,7.82,4.54,11.81,1.49,4.17,2.88,8.42,4.15,12.63a3.35,3.35,0,0,1-2.24,4.16h0a3.63,3.63,0,0,1-1,.14Z"/><path class="cls-2" d="M883.72,512.66l-.63-.06c-4.39-.84-8.84-1.81-13.22-2.89a3.34,3.34,0,0,1,1.6-6.49c4.27,1,8.6,2,12.88,2.81a3.35,3.35,0,0,1-.63,6.63Z"/><path class="cls-3" d="M930.76,380.45c-1.75,0-3.5,0-5.24-.12-2.82-.12-5.62-.35-8.41-.67l1.17-10a108.78,108.78,0,0,0,22.89.22h0l.8-.07a106.73,106.73,0,0,0,68.57-34.73c1.13-1.24,2.22-2.51,3.29-3.81a106.66,106.66,0,0,0,24.58-68.21c0-3.48-.16-7-.5-10.47a107.51,107.51,0,0,0-214.53,10.24c0,3.42.16,6.86.49,10.34a107.5,107.5,0,0,0,20.45,53.5l-8.07,5.95a117.44,117.44,0,0,1-22.36-58.49q-.54-5.69-.54-11.3A117.7,117.7,0,0,1,919.65,145.9c64.44-6.23,122,41.25,128.24,105.76q.55,5.73.55,11.45A117.55,117.55,0,0,1,942.13,379.9Q936.46,380.46,930.76,380.45Z"/><path class="cls-4" d="M519.52,2031a18.32,18.32,0,0,0,4.37,28.81c48.69,26.75,171.13,75.31,274.34-38.72,132.16-146,454.1-827.3,493.78-1002.3s189.82-444.47,272.3-476.27-174.84-13.73-246.48-12.48-123.25-34.28-80.64-50.59c0,0-217.89-85-381.3,168-98.76,152.89-416.69,859.39-680.25,936.89-9.75,2.87,45.56,40.41,49.84,49.62,25.4,54.65,118.66,216.15,363.14,300.72C588.62,1934.67,556.88,1993,519.52,2031Z"/><path class="cls-5" d="M1492.22,2655.74c-52.89,4.57-144.68,12-217,15.18-43.5,1.91-68.54-2.35-83-8.12,0,1.62.07,3.16.13,4.59a15,15,0,0,0,14.22,14.13c136.73,7.64,245.47,2.64,284.19.29a10.66,10.66,0,0,0,8.68-16A87.46,87.46,0,0,0,1492.22,2655.74Z"/><path class="cls-6" d="M1275.18,2670.92c72.36-3.19,164.15-10.61,217-15.18-52-63.8-217-106.8-217-106.8h-46.61c-32.06,46.22-36.71,90.22-36.35,113.86C1206.64,2668.57,1231.68,2672.83,1275.18,2670.92Z"/><path class="cls-7" d="M1220.72,2472.83l4.36,86.31a19.72,19.72,0,0,0,16.83,18.55,76.76,76.76,0,0,0,35-2.91,23.32,23.32,0,0,0,15.68-17.92l15.08-84Z"/><path class="cls-8" d="M679.72,2755.31c-22.94-4.13-33.31-19.53-37.66-36l-.09.44c-3.37,17.37,4.45,35.36,20.09,43.92,18.9,10.35,39.57,12.11,55.61,11.25a51.44,51.44,0,0,0,41.7-24.85l.13-.22C742.22,2760.91,718,2762.21,679.72,2755.31Z"/><path class="cls-9" d="M787.85,2499.44H749.41c-58.55-1.54-95.32,158.07-107.35,219.88,4.35,16.46,14.72,31.86,37.66,36,38.25,6.9,62.5,5.6,79.78-5.45,31.63-53.8,47.32-132.6,54.86-178.58C822.93,2519,787.85,2499.44,787.85,2499.44Z"/><path class="cls-10" d="M754.33,2419.32,733,2504.22a23,23,0,0,0,12,26.12c11.94,6.12,28.75,12.56,44.2,10.7a19.26,19.26,0,0,0,15.7-12.84l31.34-89.32Z"/><path class="cls-11" d="M1505.24,1301.17S1314.48,2493.54,1317.63,2500.1c0,0-52.69,23.94-110.12,3.05,0,0,17.25-637.41,57.67-881.81,0,0-325.56,569.72-428.94,853.6,0,0-53.92-6.43-98.55-35.81,0,0,350.53-1025.46,444-1162.05Z"/><path class="cls-12" d="M1272.79,1614.26a4.76,4.76,0,0,1-4-7.28h0l71.28-113.86a4.71,4.71,0,0,1,3.09-2.14l52.46-10.56a4.76,4.76,0,0,1,1.88,9.33L1347,1499.9,1276.83,1612A4.77,4.77,0,0,1,1272.79,1614.26Z"/><path class="cls-13" d="M1890.16,800.48c-13.73-90.79,25.91-119.83,6.35-145.8-84.4,38.13-181.44-129.75-321.24-178.19a148.07,148.07,0,0,0-40-7.88c-74.42-4.37-319.66-12.33-522.6,54.72a157.66,157.66,0,0,0-95.13,86.59c-54.89,126-143.77,412.87,103,557.72A611.19,611.19,0,0,1,1080.09,1055c-39.74-67-51.51-158.56,19-277.76,51.42,138.83,75.54,341.39,80.58,431a192.85,192.85,0,0,1-15.1,86.22l-1.27,3a10.26,10.26,0,0,0,7.17,13.94c138.9,31.2,283.36,22.72,326.52,19.15a17.83,17.83,0,0,0,15.88-13.59c67.54-284.6,67.69-478.73,51.16-601.45C1627.21,729.59,1736.53,914.83,1890.16,800.48Z"/><path class="cls-14" d="M1515,542.58s33,52.08,49.31,174.91Z"/><path class="cls-15" d="M1221.52,302.83s-14,148.57-26.42,192.52a15,15,0,0,0,7.08,17.15c21,12,71.36,31.57,140.24-2.19a31.26,31.26,0,0,0,17.35-29.41l-6.07-143.57Z"/><path class="cls-16" d="M1356.73,112.75s45,103.24,48,157.43,14.7,89.35-48,100.26-115.43-20.3-144-74.28c0,0-44.8-83.17-34.75-117.23S1356.73,112.75,1356.73,112.75Z"/><path class="cls-17" d="M1234.11,257.35l3.57-1.57a8.61,8.61,0,0,0,4.43-11.33c-.07-.16-.15-.33-.23-.48-8.83-17.07-26.06-56.19-3.81-65.32,28.68-11.76,142.27-34.92,166.77-75.23,23.56-38.73,2.69-88.74-28.68-103a4.32,4.32,0,0,0-5.65,1.84l-2.61,5a4.27,4.27,0,0,1-7.85-.81h0a4.24,4.24,0,0,0-5.24-2.93,4.29,4.29,0,0,0-2.43,1.83c-7.53,12.06-27.87,31.61-82.26,41.65-77.3,14.26-128.4,45.55-129.67,99a4.26,4.26,0,0,1-6.59,3.51c-5.71-3.48-14.84-5.11-27,5.16-21.23,17.84-12.54,64.15,34,102.23a4.23,4.23,0,0,1,.74,5.93,4.41,4.41,0,0,1-.94.89c-8.44,5.5-21,18.56,11.57,36,33.71,18,58.87,16.54,68.57,14.94a4.25,4.25,0,0,0,3.49-4.88c0-.08,0-.16,0-.24l-10.35-46.94a4.28,4.28,0,0,1,3.26-5.09,4.58,4.58,0,0,1,.9-.09Z"/><path class="cls-18" d="M1236.06,267.26s-17.15-65.95-46.73-47.43,15.35,73.9,39.12,76.36Z"/><path class="cls-19" d="M1234.79,1269.1l202.82-4.41s-176.86-50-187.84-36.38c0,0-109.61-72-169.68-173.36a611.19,611.19,0,0,0-59.55,112.69C1074.39,1199.25,1145.12,1254.17,1234.79,1269.1Z"/><path class="cls-20" d="M1229.07,1234s-4.18,80.81,101.9,69.07c57.64-6.37,150.71-60.12,150.71-60.12S1239.1,1242.28,1229.07,1234Z"/><path class="cls-21" d="M1660.39,2187.51H2650.8c31.59,0,57.19-38.27,57.19-85.47V672.75c0-47.11-25.51-85.34-57-85.46l-998.34-4c-31.76-.13-57.5,38.45-57.33,85.93l7.92,1433.28C1603.38,2149.52,1628.93,2187.51,1660.39,2187.51Z"/><path class="cls-22" d="M1708.92,692.68l885.59,8.15c32,.29,57.82,39.28,57.67,87.12L2646,1990.06c-.15,47.12-25.44,85.45-57,86.31l-860.42,23.46c-32.14.88-58.63-37.46-59.08-85.49l-19-1233.72C1650.09,732,1676.42,692.38,1708.92,692.68Z"/><path class="cls-22" d="M1791,1320.58v9.13c0,14.32,7.77,25.94,17.36,25.94h682.34c9.58,0,17.35-11.62,17.35-25.94v-9.13c0-14.33-7.77-25.94-17.35-25.94H1808.33C1798.78,1294.64,1791,1306.25,1791,1320.58Z"/><path class="cls-22" d="M1867.14,1435.36h0c.49,13.58,7.92,24.29,17,24.53l596.74,16.26c9.71.26,17.67-11.43,17.67-25.94v-2.12c0-14.17-7.6-25.72-17.08-25.94L1884.73,1408C1874.68,1407.77,1866.59,1420.34,1867.14,1435.36Z"/><path class="cls-23" d="M1760.14,2026.23c-9.76,0-19.11-4.07-27.07-11.79-12.77-12.41-20.55-33.09-20.82-55.34l-19.36-839.62v-.07c-.46-38.17,20.15-68.69,46.9-69.47l805.73-23.44c10.16-.25,19.66,3.71,27.85,11.57,12.9,12.36,20.76,33.1,21.05,55.47l20.76,848.58c.49,38-20.73,69.15-47.29,69.63l-807.12,14.48Zm-53.88-907,19.36,839.6c.22,18.84,6.49,36,16.77,46,3.78,3.68,9.92,8,17.76,8h.38l807.12-14.48c18.9-.34,34.55-26,34.17-56l-20.77-848.52c-.24-18.94-6.57-36.13-16.93-46.07-3.87-3.71-10.27-8.08-18.21-7.85l-805.72,23.43c-18.74.49-34.28,26.11-33.93,55.87Z"/><path class="cls-23" d="M2589.05,1203.61h-879a6.69,6.69,0,0,1-.52-13.37h879.52a6.69,6.69,0,0,1,0,13.37Z"/><path class="cls-24" d="M1775,748.45a31,31,0,0,1,27.84-30.76,235.38,235.38,0,0,1,23.74-1.29c23.88,0,36.27,2.89,48.21,11.57,12.84,9.09,23.2,29.33,23.2,59.07,0,23.55-7.21,45.86-25.68,57.84v.82c18.92,9.09,30.86,33.88,30.86,68.58,0,27.26-7.88,48.74-18.92,62.79-12.17,14.87-32,23.54-65.78,23.54-5.3,0-10.19-.16-14.67-.44a30.86,30.86,0,0,1-28.8-30.84Zm42.12,75.77h9c19.82,0,28.83-9.91,28.83-27.26,0-15.7-7.43-24.79-22.52-24.79-8.11,0-12.39.83-15.32,1.65Zm0,119c3.38.83,7.44.83,13.74.83,14.87,0,27.26-9.5,27.26-33.87,0-23.55-12.84-31.4-30-31.4h-11Z"/><path class="cls-25" d="M1925.94,739.74a21.09,21.09,0,0,1,18-20.84,242.22,242.22,0,0,1,35.59-2.5c25.45,0,42.34,6.61,54.06,21.9,9.68,12.8,15.77,33,15.77,61.13,0,37.18-16.45,60.73-27,66.93V868c10.13,7.85,15.76,26,20,49.16,3.13,17.21,6.26,39,8.89,55.83a21.09,21.09,0,0,1-20.81,24.31h-1.35a21,21,0,0,1-20.65-16.89c-2.15-10.77-4.76-26-7.75-46.73-4.73-33.46-10.81-40.07-25-40.07H1968v82.63A21.06,21.06,0,0,1,1947,997.31h0a21.07,21.07,0,0,1-21.07-21h0Zm42.13,98.94h12.61c16.67,0,26.58-12.39,26.58-33.46s-8.56-31.81-23-31.81c-9.46,0-14,.83-16.22,1.65Z"/><path class="cls-26" d="M2135.93,941.08l-6.6,44.75A13.49,13.49,0,0,1,2116,997.35h-17.15a13.49,13.49,0,0,1-13.49-13.5,13.65,13.65,0,0,1,.2-2.3l43.65-251.44a13.49,13.49,0,0,1,13.29-11.19H2178A13.47,13.47,0,0,1,2191.26,730l45.86,251.44a13.5,13.5,0,0,1-10.84,15.7,14.08,14.08,0,0,1-2.43.22h-19.63A13.49,13.49,0,0,1,2190.9,986l-7.26-45a13.49,13.49,0,0,0-13.32-11.35h-21A13.47,13.47,0,0,0,2135.93,941.08Zm23.42-68.53a13.49,13.49,0,0,0,13.31-15.69l-5.52-33.46c-2.12-12.33-4.52-27.47-6.77-41.2a1.69,1.69,0,0,0-3.35,0c-1.73,12-4.49,31.09-6.1,41.58L2146,857.06a13.48,13.48,0,0,0,11.38,15.31,13,13,0,0,0,2,.15Z"/><path class="cls-27" d="M2245.79,983.83l.32-251.44a13.49,13.49,0,0,1,13.49-13.48h30a13.48,13.48,0,0,1,12.89,9.49l22.06,71.06c8,25.76,15.94,56.36,22.78,86.83a1.77,1.77,0,0,0,3.49-.43c-.66-24.82-1.72-68.24-1.72-94.24V732.4a13.49,13.49,0,0,1,13.49-13.49H2375a13.49,13.49,0,0,1,13.49,13.49v0l-.31,251.44a13.5,13.5,0,0,1-13.5,13.48h-23.06a13.5,13.5,0,0,1-12.94-9.68l-24.28-82.44c-8.41-28-17.67-60-25.71-92.83a1.77,1.77,0,0,0-3.49.42c.13,25.94.37,78.49.37,109.35l-.29,61.75a13.51,13.51,0,0,1-13.49,13.43h-12.47a13.5,13.5,0,0,1-13.54-13.46Z"/><path class="cls-28" d="M2408.33,733.3a13.52,13.52,0,0,1,11-13.27,230.63,230.63,0,0,1,42.37-3.63c32,0,51.58,8.68,68.25,28.09,17.8,20.66,30.18,54.53,30.18,105.34,0,57.84-13.06,93-27.93,113.6-18.69,26-46.85,37.18-78.84,37.18a205.88,205.88,0,0,1-33.73-2.41,13.52,13.52,0,0,1-11.32-13.31Zm42.57,206.59c2.48.82,6.76.82,9.92.82,31.08.83,53.83-26,53.83-86.75,0-55.35-21.4-78.49-48.88-78.49-7.88,0-12.61,1.25-14.87,2.07Z"/><path class="cls-29" d="M2105.52,617.41c-18.31,11.06-41.36,16.54-61.61,9.44-11.83-4.15-57.47-33.8-42.56-49.49,2.5-2.63,6.06-4,9.53-5.12,33.67-11.26,66.63-6.19,101.51-5.19,9.93.29,25.25-.73,27.78,12.27C2143.49,596.41,2117.38,610.23,2105.52,617.41Z"/><path class="cls-30" d="M1780.17,154.89a9.18,9.18,0,0,0-4-.32q-36.84,4.77-73.13,11a38,38,0,0,1-15.88-.73,36.72,36.72,0,0,1-14-7.17q-27.83-23.14-57.07-45.38a9,9,0,0,0-3.6-1.68,9.24,9.24,0,0,0-7,1.29,6.54,6.54,0,0,0-3.1,5.37q-1.37,33.29-3.14,66.53c-.53,9.74-6.31,18.53-15.33,23.58q-30.8,17.2-60.59,35.45a7,7,0,0,0-3.49,7,7.17,7.17,0,0,0,5.12,6q33.24,11,65.69,23.27a29.3,29.3,0,0,1,18.54,21q7.11,32.46,13.16,65a7,7,0,0,0,5.21,5.59,7.34,7.34,0,0,0,7.48-2.24q22.65-24.9,46.18-49.29a31,31,0,0,1,27.12-9q34.28,5.34,68.37,12.12a7.56,7.56,0,0,0,7.56-2.66,6.87,6.87,0,0,0,.79-7.71q-15.52-30.15-32.5-60a28.11,28.11,0,0,1-.41-27.74q16.3-29.43,33-58.64a6.42,6.42,0,0,0,.25-6.13A8.71,8.71,0,0,0,1780.17,154.89Z"/><path class="cls-31" d="M2114.59,56.48a10.66,10.66,0,0,0-4.73-.28q-43.61,6.7-86.45,15.11a44.39,44.39,0,0,1-18.85-.49,43.81,43.81,0,0,1-16.87-8.32Q1954,35.22,1918.69,9a10.58,10.58,0,0,0-12.52-.22,7.9,7.9,0,0,0-3.5,6.57q-.54,40.3-1.59,80.55c-.31,11.81-6.88,22.57-17.39,28.91q-35.88,21.63-70.48,44.39a8.42,8.42,0,0,0-3.88,8.59,8.66,8.66,0,0,0,6.23,7.14q39.6,12.48,78.41,26.54a35.55,35.55,0,0,1,22.62,25q9.48,39.09,17.69,78.26a8.41,8.41,0,0,0,6.37,6.63,8.56,8.56,0,0,0,8.79-2.9q26.05-30.69,53.17-60.78a36.14,36.14,0,0,1,31.9-11.51q40.89,5.61,81.68,12.92a8.84,8.84,0,0,0,8.9-3.4,8.44,8.44,0,0,0,.68-9.34q-19.48-36.09-40.66-71.79a34.58,34.58,0,0,1-1.42-33.54q18.39-36,37.26-71.75a7.84,7.84,0,0,0,.08-7.42A10.56,10.56,0,0,0,2114.59,56.48Z"/><path class="cls-32" d="M2383.08,37a11.65,11.65,0,0,0-4.34,2.92q-33.54,35-65.2,70.88a48.25,48.25,0,0,1-16.8,12.16,48.88,48.88,0,0,1-20.42,4q-48.12-1.23-96.79-.48a11.58,11.58,0,0,0-11.06,8.16,8.69,8.69,0,0,0,1.46,8q27.11,35.43,53.76,71.15a38.19,38.19,0,0,1,4.64,36.74q-16.44,42.73-31,85.57a9.34,9.34,0,0,0,2.46,10,9.78,9.78,0,0,0,10.31,2.06q43-15.48,86.43-29.14a40,40,0,0,1,36.82,6.63q35,27.69,69,56.29a9.44,9.44,0,0,0,10.09,1.52,9.26,9.26,0,0,0,5.7-8.39q1.71-44.08,4.79-88.37a39.18,39.18,0,0,1,20-31.33q39.62-22.41,80.36-43.33a9.57,9.57,0,0,0,5.46-8.92,9.3,9.3,0,0,0-5.81-8.57q-41.83-18.36-84.84-35.26c-12.6-4.94-21.71-15.44-24.24-28.22q-8.54-43.47-16.53-87.2a8.74,8.74,0,0,0-5-6.5A12,12,0,0,0,2383.08,37Z"/><path class="cls-33" d="M2777.69,459.25a15.58,15.58,0,0,0-6.36-2.42q-62.53-9.6-124.54-16.34a63.5,63.5,0,0,1-25.68-8.78,65.13,65.13,0,0,1-19.93-18.79q-35.78-52.35-74-103.69a16.05,16.05,0,0,0-5.16-4.54,15.08,15.08,0,0,0-11.87-1.1,11,11,0,0,0-7.31,7.64q-16.22,55.68-33.09,111.09c-5,16.26-18.07,28.39-34.87,32.7q-57.33,14.75-113.26,31.65a11.88,11.88,0,0,0-8.61,10.21,13,13,0,0,0,5.76,12.54q49.2,34.12,96.9,70.16A53.45,53.45,0,0,1,2437,623.83q-2,58.33-5.74,116.21a12.67,12.67,0,0,0,6.18,12,12,12,0,0,0,13.17-.25q47.49-31.44,96.22-61.52c14.29-8.84,32.37-9.7,48.24-2.22q54.06,25.5,107.49,53.48a12.37,12.37,0,0,0,13.56-.85,12,12,0,0,0,4.49-12.7Q2707.53,669.3,2692,610.49c-4.55-17.26-.6-34.87,10.85-47.23q39-42,78.64-83.55a11.39,11.39,0,0,0,2.94-10.28A16.15,16.15,0,0,0,2777.69,459.25Z"/></g></g></g></svg>