<?xml version="1.0" encoding="utf-8"?>
<!-- Generator: Adobe Illustrator 26.0.1, SVG Export Plug-In . SVG Version: 6.00 Build 0)  -->
<svg version="1.1" id="Layer_1" xmlns="http://www.w3.org/2000/svg" xmlns:xlink="http://www.w3.org/1999/xlink" x="0px" y="0px"
	 viewBox="0 0 500 500" style="enable-background:new 0 0 500 500;" xml:space="preserve">
<style type="text/css">
	.st0{opacity:0.25;fill:url(#XMLID_00000151518202580950896740000017934373277793932674_);enable-background:new    ;}
	.st1{opacity:0.25;fill:url(#XMLID_00000024681242660224875740000005675025678468947336_);enable-background:new    ;}
	.st2{fill:url(#XMLID_00000047780279124288430870000001396003364795991738_);}
	.st3{opacity:0.4;fill:url(#XMLID_00000088840632769402029930000004843126927528142253_);enable-background:new    ;}
	.st4{fill:url(#XMLID_00000087383071550901203610000005637976903912020097_);}
	.st5{fill:url(#XMLID_00000043446060235372976170000003049973543827656590_);}
	.st6{fill:url(#XMLID_00000021111711174514356920000011955842958698876070_);}
	.st7{fill:#FFBE00;}
	.st8{fill:#003AA5;}
	.st9{fill:url(#XMLID_00000162333991189909217930000000913808903270901162_);}
	.st10{fill:url(#XMLID_00000016770856269421604660000003188811514331045806_);}
	.st11{opacity:0.5;fill:url(#XMLID_00000163780916118644150800000000855048302195438511_);enable-background:new    ;}
	.st12{opacity:0.4;fill:#003AA5;enable-background:new    ;}
	.st13{opacity:0.5;fill:#003AA5;enable-background:new    ;}
	.st14{fill:#259AFF;}
	.st15{opacity:0.5;fill:#259AFF;enable-background:new    ;}
	.st16{opacity:0.4;fill:#F9F9F9;enable-background:new    ;}
	.st17{opacity:0.5;}
	.st18{fill:url(#XMLID_00000042014094519001279860000011661965728702301079_);}
	.st19{fill:url(#XMLID_00000158735834797040387270000006558977893687446461_);}
	.st20{fill:url(#XMLID_00000003063687218037754400000016806003036486551734_);}
	.st21{fill:url(#XMLID_00000132808640467637174800000011217254319885281468_);}
	.st22{fill:url(#XMLID_00000036211715702679849690000014208529485975120300_);}
	.st23{fill:url(#XMLID_00000181056344676571817380000002666030189634894475_);}
	.st24{opacity:0.3;}
	.st25{fill:url(#XMLID_00000100362182146305727290000003671563072818026648_);}
	.st26{fill:url(#XMLID_00000049912681627027395070000002791006594666390966_);}
	.st27{fill:url(#XMLID_00000158735347257983445030000014338339921499960473_);}
</style>
<g id="OBJECTS">
	<g id="XMLID_1342_">
	</g>
	<g id="XMLID_7_">
		<g id="XMLID_1_">
			
				<linearGradient id="XMLID_00000156560017441521412140000003652273190137799819_" gradientUnits="userSpaceOnUse" x1="472.0623" y1="-62.9282" x2="952.781" y2="-62.9282" gradientTransform="matrix(-0.909 -0.4168 -0.4168 0.909 843.0613 623.9871)">
				<stop  offset="0" style="stop-color:#C2E1FE"/>
				<stop  offset="1" style="stop-color:#259AFF;stop-opacity:0"/>
			</linearGradient>
			
				<path id="XMLID_21_" style="opacity:0.25;fill:url(#XMLID_00000156560017441521412140000003652273190137799819_);enable-background:new    ;" d="
				M478.8,221c5.6,14.3,6.7,30.9,3.1,46.3c-12.1,51.6-58.8,154.7-169.1,198.4c-133.8,53-230.5-14.1-269-70.5
				C1.5,333.1,3.7,211,30.1,116.9C50,46.1,100.5,5.3,157.6,17C253.3,36.7,437.9,117.5,478.8,221z"/>
			
				<linearGradient id="XMLID_00000122715762505934599430000000169864446326469781_" gradientUnits="userSpaceOnUse" x1="17.3161" y1="250.0006" x2="477.6808" y2="250.0006" gradientTransform="matrix(1 0 0 -1 0 500)">
				<stop  offset="0" style="stop-color:#C2E1FE"/>
				<stop  offset="1" style="stop-color:#259AFF;stop-opacity:0"/>
			</linearGradient>
			
				<path id="XMLID_237_" style="opacity:0.25;fill:url(#XMLID_00000122715762505934599430000000169864446326469781_);enable-background:new    ;" d="
				M36.2,434.4c-9.7-9.9-16-24.4-17.6-40.4c-5.4-53.5,4-172.6,90.3-272.3c104.7-121,214.1-112.6,267-82.3
				c58.3,33.5,95.4,145.6,101.4,245.5c4.5,75.2-28.4,139.8-84,160.2C300,479.3,106.4,506.3,36.2,434.4z"/>
		</g>
		<g id="XMLID_5_">
			<g id="XMLID_96_">
				
					<linearGradient id="XMLID_00000084493547849205015260000009321602129888086416_" gradientUnits="userSpaceOnUse" x1="72.2098" y1="283.9973" x2="220.0585" y2="82.3854" gradientTransform="matrix(0.9626 0.2711 0.2711 -0.9626 -20.8012 359.7083)">
					<stop  offset="0" style="stop-color:#FDDA42"/>
					<stop  offset="1" style="stop-color:#E5A003"/>
				</linearGradient>
				<path id="XMLID_98_" style="fill:url(#XMLID_00000084493547849205015260000009321602129888086416_);" d="M233.1,282
					c0.4-14.6-4.4-29.4-13.7-37.9c-5.6-5.1-14.9-6.6-17.4-15.8c-2.2-8,0.7-16.8,0.8-25c0.1-14.5-5.4-28.8-14.3-37.3
					c-6.1-5.8-14.2-7.8-19.3-15.3c-4.7-6.9-6.3-16.4-8.5-24.9c-3.2-12.3-11.7-29.3-23.6-23.5c-10,4.9-11.8,22.1-10.8,34.1
					c0.4,4.3,1.1,8.5,2.1,12.6c1.2,4.7,3.3,9.1,4.3,13.9c1.1,5.1,1.9,11.1,1.3,16.3c-0.5,4.7-1.8,9.3-2.3,14
					c-1.9,17.5,3.3,34.9,11.2,48.8c5.2,9.3,9.1,16.9,9.3,28.8c0.2,9.2-0.9,18.6,0.6,27.7c2.9,18,14.5,30.3,27.5,35.3
					c0.4,0.1,0.7,0.1,1-0.2C205.9,339.2,231.2,315.1,233.1,282z"/>
				
					<linearGradient id="XMLID_00000127750967909625256180000017744835657611380139_" gradientUnits="userSpaceOnUse" x1="72.2098" y1="283.9973" x2="220.0585" y2="82.3854" gradientTransform="matrix(0.9626 0.2711 0.2711 -0.9626 -20.8012 359.7083)">
					<stop  offset="0" style="stop-color:#FDDA42"/>
					<stop  offset="1" style="stop-color:#E5A003"/>
				</linearGradient>
				
					<path id="XMLID_104_" style="opacity:0.4;fill:url(#XMLID_00000127750967909625256180000017744835657611380139_);enable-background:new    ;" d="
					M233.1,282c0.4-14.6-4.4-29.4-13.7-37.9c-5.6-5.1-14.9-6.6-17.4-15.8c-2.2-8,0.7-16.8,0.8-25c0.1-14.5-5.4-28.8-14.3-37.3
					c-6.1-5.8-14.2-7.8-19.3-15.3c-4.7-6.9-6.3-16.4-8.5-24.9c-3.2-12.3-11.7-29.3-23.6-23.5c-10,4.9-11.8,22.1-10.8,34.1
					c0.4,4.3,1.1,8.5,2.1,12.6c1.2,4.7,3.3,9.1,4.3,13.9c1.1,5.1,1.9,11.1,1.3,16.3c-0.5,4.7-1.8,9.3-2.3,14
					c-1.9,17.5,3.3,34.9,11.2,48.8c5.2,9.3,9.1,16.9,9.3,28.8c0.2,9.2-0.9,18.6,0.6,27.7c2.9,18,14.5,30.3,27.5,35.3
					c0.4,0.1,0.7,0.1,1-0.2C205.9,339.2,231.2,315.1,233.1,282z"/>
				
					<linearGradient id="XMLID_00000098928636335491490060000004285826641117248943_" gradientUnits="userSpaceOnUse" x1="154.2428" y1="81.4656" x2="154.2428" y2="260.0898" gradientTransform="matrix(0.9626 0.2711 0.2711 -0.9626 -20.8012 359.7083)">
					<stop  offset="0" style="stop-color:#FDDA42"/>
					<stop  offset="1" style="stop-color:#E5A003"/>
				</linearGradient>
				<path id="XMLID_97_" style="fill:url(#XMLID_00000098928636335491490060000004285826641117248943_);" d="M210.2,349.6
					c-5.4-17.4-10.9-34.8-16.3-52.2c0,0,0,0,0-0.1c4.7-15.9,7.6-32.5,8.7-49.4c0.1-2.2-2.5-2.2-2.6,0c-1,15.4-3.6,30.3-7.6,44.8
					c-4.6-14.8-9.1-29.5-13.7-44.3c0.1-0.1,0.1-0.3,0.2-0.5c4.8-16.5,7.9-33.5,9.5-51c0.2-2.2-2.5-2.2-2.6,0
					c-1.4,16-4.3,31.6-8.5,46.8c-4.3-13.8-8.5-27.7-12.8-41.5c2.9-11.8,5-23.8,6.4-36c0.2-2.2-2.3-3.1-2.6-0.9
					c-1.2,10.8-3,21.4-5.4,31.9c-4.2-13.8-8.5-27.6-12.7-41.4c0.1-0.2,0.2-0.4,0.3-0.6c2-7.6,3.8-15.4,5.3-23.2
					c0.4-2.2-2.1-3.1-2.6-0.9c-1.3,6.7-2.8,13.4-4.4,20c-2.8-9.2-5.7-18.5-8.5-27.7c-0.6-2-3.2-1.2-2.6,0.9
					c3.9,12.8,7.8,25.5,11.7,38.3c-4.4-4.6-8.9-9.1-13.5-13.3c-1.4-1.3-2.8,1.7-1.4,3c5.8,5.3,11.4,11,16.8,16.9
					c3.4,11.2,6.9,22.5,10.3,33.7c0,0.1,0.1,0.2,0.1,0.4c1.9,6.3,3.9,12.6,5.8,18.8c-10.4-6.9-20.1-15.2-29.1-24.9
					c-1.3-1.4-3.1,1.1-1.8,2.5c9.9,10.8,20.7,20,32.4,27.3c4.9,16,9.9,32,14.8,48c-8.3-5.2-16.6-10.4-24.9-15.6c-1.5-1-2.9,2-1.4,3
					c9.3,5.8,18.5,11.6,27.8,17.4c7.4,24,14.9,47.9,22.4,71.9C208.6,353.3,210.9,351.6,210.2,349.6z"/>
			</g>
			<g id="XMLID_99_">
				
					<linearGradient id="XMLID_00000005986548471198013070000004362903664758885004_" gradientUnits="userSpaceOnUse" x1="55.6156" y1="311.5106" x2="217.1061" y2="91.2961" gradientTransform="matrix(1 0 0 -1 0 500)">
					<stop  offset="0" style="stop-color:#FDDA42"/>
					<stop  offset="1" style="stop-color:#E5A003"/>
				</linearGradient>
				<path id="XMLID_101_" style="fill:url(#XMLID_00000005986548471198013070000004362903664758885004_);" d="M222.6,337.2
					c-3.1-16.4-11.9-30.9-24.3-36.5c-7.4-3.3-18.1-1.2-23.1-10.5c-4.3-8-3.3-18.9-5.1-28c-3.3-16.1-12.9-29.7-24.8-35.6
					c-8.1-4-17.6-2.9-25.1-9.1c-6.9-5.7-10.9-15.6-15.4-24.2c-6.5-12.3-20-27.7-31.8-16.4c-9.9,9.6-7.9,29.3-3.8,42.2
					c1.4,4.6,3.2,9,5.4,13.1c2.5,4.8,5.8,8.7,8.1,13.7c2.4,5.2,4.8,11.5,5.3,17.6c0.5,5.5,0.2,11.1,0.8,16.6
					c2.1,20.2,12.1,37.4,24.1,49.7c8,8.2,14.2,15.1,17.2,28.2c2.4,10.2,3.5,21,7.3,30.5c7.5,18.8,23.3,27.7,39,27.9
					c0.4,0,0.8-0.2,1.1-0.6C206,411.9,228.4,374.8,222.6,337.2z"/>
				
					<linearGradient id="XMLID_00000132068916158222762100000016802957948429288603_" gradientUnits="userSpaceOnUse" x1="145.079" y1="88.34" x2="145.079" y2="288.6661" gradientTransform="matrix(1 0 0 -1 0 500)">
					<stop  offset="0" style="stop-color:#FDDA42"/>
					<stop  offset="1" style="stop-color:#E5A003"/>
				</linearGradient>
				<path id="XMLID_146_" style="fill:url(#XMLID_00000132068916158222762100000016802957948429288603_);" d="M211.6,418.6
					c-9.6-16.1-19.2-32.2-28.8-48.3c0,0,0,0,0-0.1c1.4-19.6,0.6-39.2-2.2-58.5c-0.4-2.5-3.3-1.5-2.9,1.1c2.5,17.5,3.3,35.1,2.3,52.8
					c-8.6-14.5-17.2-29-25.8-43.6c0.1-0.2,0.1-0.4,0.1-0.6c1.4-20.2,0.8-40.4-1.7-60.5c-0.3-2.5-3.3-1.5-2.9,1.1
					c2.2,18.4,2.8,36.9,1.8,55.4c-8.1-13.6-16.1-27.3-24.1-40.9c0.3-14.3-0.2-28.5-1.6-42.6c-0.2-2.5-3.3-2.5-3.1,0
					c1.2,12.5,1.8,25,1.7,37.6c-8-13.6-16-27.2-24-40.8c0.1-0.2,0.1-0.5,0.2-0.8c0.4-9.3,0.5-18.6,0.3-27.9c-0.1-2.6-3.1-2.6-3.1,0
					c0.2,8,0.1,16-0.1,24c-5.3-9.1-10.7-18.2-16-27.4c-1.2-2-3.8,0-2.6,2c7.4,12.6,14.8,25.2,22.2,37.8c-6-3.3-12-6.5-18.1-9.3
					c-1.9-0.9-2.7,3-0.8,3.8c7.7,3.5,15.3,7.5,22.8,11.9c6.5,11.1,13,22.2,19.6,33.2c0.1,0.1,0.1,0.2,0.2,0.4
					c3.6,6.2,7.3,12.4,10.9,18.6c-13.2-3.4-26-8.7-38.2-15.8c-1.8-1-3.2,2.5-1.4,3.5c13.6,8,27.8,13.7,42.5,17.1
					c9.3,15.8,18.6,31.5,28,47.3c-10.5-2.4-21-4.8-31.4-7.2c-1.9-0.4-2.8,3.4-0.8,3.8c11.7,2.7,23.3,5.3,35,8
					c12.8,21.6,25.7,43.3,38.6,64.9L211.6,418.6L211.6,418.6z"/>
			</g>
		</g>
		<g id="XMLID_36_">
			<path id="XMLID_34_" class="st7" d="M364.5,186.3c0,13.9-8.7,25.2-19.3,25.2c10.7,0,19.3,11.3,19.3,25.2
				c0-13.9,8.7-25.2,19.3-25.2C373.2,211.5,364.5,200.2,364.5,186.3z"/>
			<path id="XMLID_32_" class="st7" d="M340.5,186.3c0,5.9-3.7,10.6-8.2,10.6c4.5,0,8.2,4.8,8.2,10.6c0-5.9,3.7-10.6,8.2-10.6
				C344.1,196.9,340.5,192.2,340.5,186.3z"/>
		</g>
		<g id="XMLID_63_">
			<g id="XMLID_15_">
				<rect id="XMLID_11_" x="220.7" y="254.1" class="st8" width="17" height="42.2"/>
				<rect id="XMLID_16_" x="267.6" y="254.1" class="st8" width="17" height="42.2"/>
			</g>
			<g id="XMLID_53_">
				
					<linearGradient id="XMLID_00000173871028372808886830000009858251652597329072_" gradientUnits="userSpaceOnUse" x1="229.2562" y1="201.7354" x2="229.2562" y2="267.6566" gradientTransform="matrix(1 0 0 -1 0 500)">
					<stop  offset="0" style="stop-color:#003AA5;stop-opacity:0"/>
					<stop  offset="0.9951" style="stop-color:#003AA5"/>
				</linearGradient>
				
					<rect id="XMLID_55_" x="220.7" y="254.1" style="fill:url(#XMLID_00000173871028372808886830000009858251652597329072_);" width="17" height="42.2"/>
				
					<linearGradient id="XMLID_00000041995614668736440950000006878850397341056662_" gradientUnits="userSpaceOnUse" x1="276.1171" y1="201.7354" x2="276.1171" y2="267.6566" gradientTransform="matrix(1 0 0 -1 0 500)">
					<stop  offset="0" style="stop-color:#003AA5;stop-opacity:0"/>
					<stop  offset="0.9951" style="stop-color:#003AA5"/>
				</linearGradient>
				
					<rect id="XMLID_54_" x="267.6" y="254.1" style="fill:url(#XMLID_00000041995614668736440950000006878850397341056662_);" width="17" height="42.2"/>
			</g>
			<path id="XMLID_13_" class="st8" d="M284.6,281.7h-63.9l-53.3,78.5c-1.5,2.2-2.3,5.1-2.3,8v40.2c0,6.7,4.2,12.1,9.3,12.1H331
				c5.1,0,9.3-5.4,9.3-12.1v-40.2c0-3-0.8-5.8-2.3-8L284.6,281.7z"/>
			
				<linearGradient id="XMLID_00000129911447872228654740000001436350846035031458_" gradientUnits="userSpaceOnUse" x1="252.6866" y1="159.7703" x2="252.6866" y2="24.1821" gradientTransform="matrix(1 0 0 -1 0 500)">
				<stop  offset="0" style="stop-color:#003AA5;stop-opacity:0"/>
				<stop  offset="0.9951" style="stop-color:#003AA5"/>
			</linearGradient>
			
				<path id="XMLID_62_" style="opacity:0.5;fill:url(#XMLID_00000129911447872228654740000001436350846035031458_);enable-background:new    ;" d="
				M284.6,281.7h-63.9l-53.3,78.5c-1.5,2.2-2.3,5.1-2.3,8v40.2c0,6.7,4.2,12.1,9.3,12.1H331c5.1,0,9.3-5.4,9.3-12.1v-40.2
				c0-3-0.8-5.8-2.3-8L284.6,281.7z"/>
			<g id="XMLID_3_">
				<path id="XMLID_30_" class="st8" d="M299.6,228.1h-94.2h-30.3c-8.2,0-14.8,8.7-14.8,19.4v13.3v19.4h45.2v-19.4h94.2v19.4h45.2
					v-19.4v-13.3c0-10.7-6.6-19.4-14.8-19.4H299.6z"/>
				<path id="XMLID_4_" class="st8" d="M208,266.2h-50.5c-0.6,0-1.2,0.7-1.2,1.5v18.8c0,0.8,0.5,1.5,1.2,1.5H208
					c0.6,0,1.2-0.7,1.2-1.5v-18.8C209.2,266.9,208.6,266.2,208,266.2z"/>
				<path id="XMLID_6_" class="st8" d="M347.9,266.2h-50.5c-0.6,0-1.2,0.7-1.2,1.5v18.8c0,0.8,0.5,1.5,1.2,1.5h50.5
					c0.6,0,1.2-0.7,1.2-1.5v-18.8C349.1,266.9,348.6,266.2,347.9,266.2z"/>
				<path id="XMLID_65_" class="st12" d="M208,266.2h-50.5c-0.6,0-1.2,0.7-1.2,1.5v18.8c0,0.8,0.5,1.5,1.2,1.5H208
					c0.6,0,1.2-0.7,1.2-1.5v-18.8C209.2,266.9,208.6,266.2,208,266.2z"/>
				<path id="XMLID_64_" class="st12" d="M347.9,266.2h-50.5c-0.6,0-1.2,0.7-1.2,1.5v18.8c0,0.8,0.5,1.5,1.2,1.5h50.5
					c0.6,0,1.2-0.7,1.2-1.5v-18.8C349.1,266.9,348.6,266.2,347.9,266.2z"/>
			</g>
			<g id="XMLID_48_">
				<path id="XMLID_49_" class="st13" d="M232,334.6c-11.8,14.9-12.1,39.4-0.7,54.8c11.4,15.4,30.2,15.8,42,0.9
					c11.8-14.9,12.1-39.4,0.7-54.8C262.6,320.1,243.8,319.7,232,334.6z M263.5,377c-6.2,7.8-16,7.6-22-0.5c-6-8.1-5.8-20.9,0.4-28.7
					c6.2-7.8,16-7.6,22,0.5C269.8,356.4,269.7,369.2,263.5,377z"/>
				<path id="XMLID_46_" class="st14" d="M232,332.2c-11.8,14.9-12.1,39.4-0.7,54.8c11.4,15.4,30.2,15.8,42,0.9
					c11.8-14.9,12.1-39.4,0.7-54.8C262.6,317.7,243.8,317.3,232,332.2z M263.5,374.6c-6.2,7.8-16,7.6-22-0.5
					c-6-8.1-5.8-20.9,0.4-28.7c6.2-7.8,16-7.6,22,0.5C269.8,353.9,269.7,366.8,263.5,374.6z"/>
				<g id="XMLID_24_">
					<path id="XMLID_19_" class="st8" d="M264.7,385.4c-1.7-2.3-1.7-6.1,0.1-8.3c1.8-2.3,4.6-2.2,6.4,0.1c1.7,2.3,1.7,6.1-0.1,8.3
						C269.3,387.8,266.5,387.8,264.7,385.4z"/>
					<path id="XMLID_25_" class="st8" d="M249,389.5c-0.1-3.2,1.8-6,4.2-6.2c2.5-0.2,4.6,2.3,4.8,5.5c0.1,3.2-1.8,6-4.2,6.2
						C251.3,395.2,249.2,392.8,249,389.5z"/>
					<path id="XMLID_31_" class="st8" d="M235.2,379.2c1.5-2.6,4.3-3.1,6.3-1.1c2,2,2.4,5.7,0.9,8.2c-1.5,2.6-4.3,3.1-6.3,1.1
						C234.1,385.5,233.7,381.8,235.2,379.2z"/>
					<path id="XMLID_37_" class="st8" d="M229.5,359.7c2.4-0.7,4.8,1.4,5.3,4.5c0.5,3.2-1,6.3-3.5,7c-2.4,0.7-4.8-1.4-5.3-4.5
						C225.5,363.5,227,360.3,229.5,359.7z"/>
					<path id="XMLID_38_" class="st8" d="M234.9,340c2.2,1.6,3,5.1,1.8,8c-1.2,2.8-3.9,3.9-6.1,2.3c-2.2-1.6-3-5.1-1.8-8
						C229.9,339.4,232.7,338.4,234.9,340z"/>
					<path id="XMLID_39_" class="st8" d="M248.8,329.6c0.9,3-0.3,6.4-2.6,7.6c-2.3,1.1-4.9-0.4-5.8-3.4c-0.9-3,0.3-6.4,2.6-7.6
						C245.3,325,247.9,326.6,248.8,329.6z"/>
					<path id="XMLID_40_" class="st8" d="M264.5,333.6c-0.9,3.1-3.4,4.6-5.8,3.5c-2.3-1.1-3.5-4.5-2.7-7.5c0.9-3.1,3.4-4.6,5.8-3.5
						C264.2,327.2,265.4,330.6,264.5,333.6z"/>
					<path id="XMLID_41_" class="st8" d="M274.2,349.7c-2.2,1.6-4.9,0.6-6.1-2.3c-1.2-2.8-0.4-6.4,1.7-8c2.2-1.6,4.9-0.6,6.1,2.3
						C277.1,344.5,276.3,348.1,274.2,349.7z"/>
					<path id="XMLID_42_" class="st8" d="M274.1,368.6c-2.4-0.6-4-3.8-3.5-6.9c0.5-3.2,2.9-5.2,5.3-4.6c2.4,0.6,4,3.8,3.5,6.9
						C278.9,367.2,276.5,369.2,274.1,368.6z"/>
				</g>
				<g id="XMLID_43_">
					<path id="XMLID_18_" class="st8" d="M278.5,379.1l-11.8-10.3l13.4,6.3C280,375.1,279.1,377.9,278.5,379.1z"/>
					<path id="XMLID_14_" class="st12" d="M278.5,379.1l-11.8-10.3l13.4,6.3C280,375.1,279.1,377.9,278.5,379.1z"/>
				</g>
			</g>
		</g>
		<g id="XMLID_85_">
			<polygon id="XMLID_69_" class="st14" points="77.6,358.1 116.1,312.3 154.5,358.1 154.5,400 77.6,400 			"/>
			<polygon id="XMLID_68_" class="st15" points="77.6,358.1 116.1,312.3 154.5,358.1 154.5,400 77.6,400 			"/>
			<g id="XMLID_74_">
				<polygon id="XMLID_71_" class="st14" points="79.1,288.4 138.9,288.4 151.5,304.8 151.5,399.3 79.1,399.3 				"/>
				<polygon id="XMLID_72_" class="st16" points="79.1,288.4 138.9,288.4 151.5,304.8 151.5,399.3 79.1,399.3 				"/>
				<polygon id="XMLID_77_" class="st14" points="138.9,304.8 151.5,304.8 138.9,288.4 				"/>
				<g id="XMLID_73_">
					<path id="XMLID_75_" class="st14" d="M131.6,338c0,8-2.8,12.5-7,12.5c-2.3,0-3.9-1.3-4.7-3.9c-1.2,2.5-3.1,3.9-5.8,3.9
						c-4.4,0-7.9-4.5-7.9-11.2c0-6.7,3.4-11.2,7.9-11.2c2.2,0,4,1,5.2,2.9v-2.6h4.6v14.4c0,2.1,0.7,2.8,1.6,2.8
						c1.6,0,2.5-2.4,2.5-7.5c0-9-5.1-15.2-12.7-15.2c-7.6,0-12.7,6.8-12.7,16c0,9.5,5,16.2,12.5,16.2c2.1,0,4.6-0.6,6.7-2l1.1,4.1
						c-2.1,1.4-5.1,2.1-7.8,2.1c-9.8,0-16.3-8.7-16.3-20.4c0-11.6,6.6-20.3,16.5-20.3C125,318.6,131.6,326.8,131.6,338z
						 M119.4,339.2c0-3.9-1.8-6-4.3-6c-2.5,0-4.2,2.3-4.2,6c0,3.8,1.7,6.1,4.2,6.1C117.6,345.4,119.4,343.1,119.4,339.2z"/>
				</g>
			</g>
			<polygon id="XMLID_70_" class="st14" points="154.5,418.1 77.6,418.1 77.6,358.1 116.1,386.9 154.5,358.1 			"/>
			<polygon id="XMLID_66_" class="st14" points="154.5,420.5 77.6,420.5 77.6,358.1 116.1,389.3 154.5,358.1 			"/>
			<g id="XMLID_80_">
				<g id="XMLID_79_">
					<g id="XMLID_81_" class="st17">
						<path id="XMLID_88_" class="st14" d="M151,417.6c0,0-1.6-1.4-4-3.8c-1.2-1.2-2.5-2.6-4-4.1c-0.7-0.8-1.5-1.5-2.2-2.4
							c-0.7-0.8-1.5-1.7-2.2-2.5c-0.7-0.8-1.5-1.7-2.2-2.5c-0.7-0.8-1.4-1.7-2.1-2.5c-1.4-1.6-2.6-3.2-3.7-4.5
							c-2.1-2.7-3.5-4.6-3.5-4.6s1.7,1.4,4,3.8c1.2,1.2,2.5,2.6,4,4.1c0.7,0.8,1.5,1.5,2.2,2.4c0.7,0.8,1.5,1.7,2.2,2.5
							c0.7,0.8,1.5,1.7,2.2,2.5c0.7,0.8,1.4,1.7,2.1,2.5c1.4,1.6,2.6,3.2,3.7,4.5C149.7,415.7,151,417.6,151,417.6z"/>
					</g>
				</g>
				<g id="XMLID_82_">
					<g id="XMLID_84_" class="st17">
						<path id="XMLID_87_" class="st14" d="M81.1,417.6c0,0,1.3-1.9,3.5-4.6c1.1-1.3,2.3-2.9,3.7-4.5c0.7-0.8,1.4-1.7,2.1-2.5
							c0.7-0.8,1.5-1.7,2.2-2.5c0.8-0.8,1.5-1.7,2.2-2.5c0.7-0.8,1.5-1.6,2.2-2.4c1.4-1.5,2.8-2.9,4-4.1c2.4-2.4,4-3.8,4-3.8
							s-1.3,1.9-3.5,4.6c-1.1,1.3-2.3,2.9-3.7,4.5c-0.7,0.8-1.4,1.7-2.1,2.5c-0.7,0.8-1.5,1.7-2.2,2.5c-0.8,0.8-1.5,1.7-2.2,2.5
							c-0.7,0.8-1.5,1.6-2.2,2.4c-1.4,1.5-2.8,2.9-4,4.1C82.8,416.1,81.1,417.6,81.1,417.6z"/>
					</g>
				</g>
			</g>
		</g>
		<g id="XMLID_95_">
			<path id="XMLID_148_" class="st14" d="M319.8,84.2c-26.5-22.8-99-25.7-111.6,26.3c-12.6,51.9,0,73.9,11.2,78.8
				c8,3.5,31.9,8.3,56.9,8.1c2.4,7.7,0.1,18.2,0.1,18.2c6.1-3.5,9.6-13.1,11.2-18.7c1.8-0.1,3.5-0.3,5.3-0.5
				c13.1-1.9,36.6-9.5,43.4-31.5C343.9,140.2,342.9,104,319.8,84.2z"/>
			<g id="XMLID_92_">
				<ellipse id="XMLID_86_" class="st14" cx="302.3" cy="137.7" rx="8.3" ry="10.8"/>
				<ellipse id="XMLID_93_" class="st14" cx="271.7" cy="137.7" rx="8.3" ry="10.8"/>
				<ellipse id="XMLID_94_" class="st14" cx="241.1" cy="137.7" rx="8.3" ry="10.8"/>
			</g>
		</g>
		<g id="XMLID_109_">
			<ellipse id="XMLID_100_" class="st14" cx="413.2" cy="256.2" rx="21.6" ry="28.2"/>
			<g id="XMLID_107_">
				<rect id="XMLID_103_" x="409.6" y="248.5" class="st14" width="7.2" height="26.1"/>
				<rect id="XMLID_106_" x="409.6" y="237.9" class="st14" width="7.2" height="8"/>
			</g>
		</g>
		<g id="XMLID_246_">
			<g id="XMLID_249_">
				
					<linearGradient id="XMLID_00000123405737098649625600000017191695105012356736_" gradientUnits="userSpaceOnUse" x1="341.636" y1="140.4559" x2="366.7084" y2="140.4559" gradientTransform="matrix(1 0 0 -1 0 500)">
					<stop  offset="0" style="stop-color:#FDDA42"/>
					<stop  offset="1" style="stop-color:#E5A003"/>
				</linearGradient>
				<path id="XMLID_67_" style="fill:url(#XMLID_00000123405737098649625600000017191695105012356736_);" d="M366.4,381.4
					c-1.9-6.6-6.4-11.2-10.9-15.3c-4.5-4-9.2-8-11.8-14.2c-1.7-4-2.4-8.8-1.8-13.4c0.1-0.6,0.2-1.3,0.5-1.8c0.2-0.4,0.6-0.6,0.9-0.8
					c3.7-2.1,8.2-0.4,11.3,3.1c3.1,3.4,5,8.3,6.5,13.2c3.2,10.1,5.1,20.9,5.6,31.8"/>
				<g id="XMLID_57_">
					
						<linearGradient id="XMLID_00000009571969341343542080000001042662978359592634_" gradientUnits="userSpaceOnUse" x1="341.5016" y1="140.7517" x2="366.8418" y2="140.7517" gradientTransform="matrix(1 0 0 -1 0 500)">
						<stop  offset="0" style="stop-color:#FDDA42"/>
						<stop  offset="1" style="stop-color:#E5A003"/>
					</linearGradient>
					<path id="XMLID_61_" style="fill:url(#XMLID_00000009571969341343542080000001042662978359592634_);" d="M367.1,381.2
						c-4.8-15.5-21.5-19.1-23.9-36c-0.4-2.7-0.5-6.8,1.8-8.3c2-1.3,6.1,0.7,7.8,2.1c3.7,3.1,5.8,8.7,7.5,13.8
						c3.3,10,4.5,20.5,5.4,31.3c0.1,1.6,2,1.6,1.9,0c-0.4-12.7-3.2-26.3-7.6-37.6c-2.9-7.3-10.1-16.4-17.1-12
						c-5.8,3.7-1.4,17.2,1.4,21.8c6.1,10,17.1,13.5,21.3,25.7C366.1,382.9,367.4,382.2,367.1,381.2L367.1,381.2z"/>
				</g>
			</g>
			<g id="XMLID_145_">
				
					<linearGradient id="XMLID_00000164509005958044228630000012001819518795589559_" gradientUnits="userSpaceOnUse" x1="375.1402" y1="140.4555" x2="405.5412" y2="140.4555" gradientTransform="matrix(1 0 0 -1 0 500)">
					<stop  offset="0" style="stop-color:#FDDA42"/>
					<stop  offset="1" style="stop-color:#E5A003"/>
				</linearGradient>
				<path id="XMLID_52_" style="fill:url(#XMLID_00000164509005958044228630000012001819518795589559_);" d="M375.1,389.9
					c1.3-16.4,5-32.6,10.8-47.3c2.8-7.1,6.9-14.6,12.9-15.8c1.5-0.3,3.1-0.2,4.4,0.9c1.7,1.4,2.4,4.2,2.3,6.8c-0.1,2.6-1,5-1.9,7.4
					c-3.2,8.1-7.6,15.5-12.8,21.6c-2.9,3.4-6,6.4-8.6,10.2c-3.6,5.2-6,11.9-6.8,18.8"/>
				<g id="XMLID_28_">
					
						<linearGradient id="XMLID_00000049932083834313641500000003261223991397790886_" gradientUnits="userSpaceOnUse" x1="375.0076" y1="140.517" x2="405.6749" y2="140.517" gradientTransform="matrix(1 0 0 -1 0 500)">
						<stop  offset="0" style="stop-color:#FDDA42"/>
						<stop  offset="1" style="stop-color:#E5A003"/>
					</linearGradient>
					<path id="XMLID_47_" style="fill:url(#XMLID_00000049932083834313641500000003261223991397790886_);" d="M375.9,389.9
						c1.3-13.6,4.3-27.3,8.5-39.8c1.6-4.7,3.3-9.6,5.6-13.8c1.9-3.4,4.4-6.6,7.6-7.9c3.9-2,6.3,0.6,7.1,7.9
						c-0.4,1.5-0.8,2.9-1.4,4.3c-4.2,11.1-10.6,19-17.7,26.9c-6,6.6-10,14.5-11.2,24.7c-0.2,1.6,1.6,2.3,1.9,0.7
						c1.6-9.1,4.9-16.2,10.1-22.5c4.3-5.2,8.6-10.2,12.2-16.3c3.2-5.5,12.8-23.2,3.6-27.9c-8-4.1-14.8,9.6-17.7,17
						c-5.9,14.7-9,30.5-10.2,46.9C374.3,391.2,375.8,391.1,375.9,389.9L375.9,389.9z"/>
				</g>
			</g>
			
				<linearGradient id="XMLID_00000156585883622597037570000015204340906529945757_" gradientUnits="userSpaceOnUse" x1="363.1962" y1="169.9791" x2="380.3831" y2="169.9791" gradientTransform="matrix(1 0 0 -1 0 500)">
				<stop  offset="0" style="stop-color:#FDDA42"/>
				<stop  offset="1" style="stop-color:#E5A003"/>
			</linearGradient>
			<path id="XMLID_291_" style="fill:url(#XMLID_00000156585883622597037570000015204340906529945757_);" d="M373.2,263.7
				c-5-0.3-7.4,9.1-8.7,14c-2.8,10.8-3.1,22.6-2.8,34c0.7,26.1,3.4,52.2,7.8,77.6c0.1,0.8,0.5,1.1,1,1.1c0,1.6,0.1,3.3,0.2,4.9
				c0.1,1.3,1.5,1.7,1.8,0.3c4.9-25.6,7.1-53.3,8.8-79.6C381.8,306.9,386.3,264.4,373.2,263.7z"/>
			
				<linearGradient id="XMLID_00000132065394846752446110000008106805595995054012_" gradientUnits="userSpaceOnUse" x1="363.1962" y1="169.9791" x2="380.3831" y2="169.9791" gradientTransform="matrix(1 0 0 -1 0 500)">
				<stop  offset="0" style="stop-color:#FDDA42"/>
				<stop  offset="1" style="stop-color:#E5A003"/>
			</linearGradient>
			<path id="XMLID_247_" style="fill:url(#XMLID_00000132065394846752446110000008106805595995054012_);" d="M373.2,263.7
				c-5-0.3-7.4,9.1-8.7,14c-2.8,10.8-3.1,22.6-2.8,34c0.7,26.1,3.4,52.2,7.8,77.6c0.1,0.8,0.5,1.1,1,1.1c0,1.6,0.1,3.3,0.2,4.9
				c0.1,1.3,1.5,1.7,1.8,0.3c4.9-25.6,7.1-53.3,8.8-79.6C381.8,306.9,386.3,264.4,373.2,263.7z"/>
			<g id="XMLID_304_" class="st24">
				
					<linearGradient id="XMLID_00000033346156435848192890000014290817715696581775_" gradientUnits="userSpaceOnUse" x1="348.0507" y1="136.5948" x2="368.0006" y2="136.5948" gradientTransform="matrix(1 0 0 -1 0 500)">
					<stop  offset="0" style="stop-color:#FDDA42"/>
					<stop  offset="1" style="stop-color:#E5A003"/>
				</linearGradient>
				<path id="XMLID_354_" style="fill:url(#XMLID_00000033346156435848192890000014290817715696581775_);" d="M368.4,384.5
					c-2.1-17-9.1-32.9-20-42.8c-0.5-0.5-1.2,0.6-0.7,1.2c10.3,11.1,17.2,24.7,19.8,42C367.6,385.6,368.5,385.3,368.4,384.5
					L368.4,384.5z"/>
			</g>
			<g id="XMLID_307_" class="st24">
				
					<linearGradient id="XMLID_00000000187972003823509690000008771612692700956092_" gradientUnits="userSpaceOnUse" x1="373.8856" y1="136.1453" x2="397.6215" y2="136.1453" gradientTransform="matrix(1 0 0 -1 0 500)">
					<stop  offset="0" style="stop-color:#FDDA42"/>
					<stop  offset="1" style="stop-color:#E5A003"/>
				</linearGradient>
				<path id="XMLID_141_" style="fill:url(#XMLID_00000000187972003823509690000008771612692700956092_);" d="M374.6,390.2
					c5.4-19.3,14.1-36,23.3-52.4c0.3-0.5-0.3-1.1-0.6-0.7c-10.8,15.2-17.9,33.7-24,52.6C373,390.7,374.3,391.2,374.6,390.2
					L374.6,390.2z"/>
			</g>
			<g id="XMLID_132_" class="st24">
				
					<linearGradient id="XMLID_00000166664335083887961750000002833846260191673020_" gradientUnits="userSpaceOnUse" x1="371.6357" y1="107.664" x2="371.6357" y2="220.9333" gradientTransform="matrix(1 0 0 -1 0 500)">
					<stop  offset="0" style="stop-color:#FDDA42"/>
					<stop  offset="1" style="stop-color:#E5A003"/>
				</linearGradient>
				<path id="XMLID_133_" style="fill:url(#XMLID_00000166664335083887961750000002833846260191673020_);" d="M372.9,389.1
					c0.1-18-0.2-36-0.3-54c-0.1-17.8,1.1-36.3,0-54c0-0.8-1-1.1-1.2-0.2c-2,17-1,35.2-0.8,52.3c0.2,18.6,0.4,37.3,0.6,55.9
					C371.2,390.4,372.8,390.4,372.9,389.1L372.9,389.1z"/>
			</g>
			<g id="XMLID_244_">
				<polygon id="XMLID_121_" class="st8" points="388.8,420.5 358.5,420.5 357,385 390.3,385 				"/>
				<rect id="XMLID_243_" x="354.2" y="379.4" class="st8" width="39" height="12.3"/>
				<rect id="XMLID_108_" x="354.2" y="379.4" class="st13" width="39" height="12.3"/>
			</g>
		</g>
	</g>
</g>
</svg>
