<svg xmlns="http://www.w3.org/2000/svg" xmlns:xlink="http://www.w3.org/1999/xlink" viewBox="0 0 2725.24 2735.88"><defs><style>.cls-1{fill:url(#linear-gradient);}.cls-2{fill:#91b3fa;}.cls-3{fill:#bdd0fb;}.cls-4{fill:url(#linear-gradient-2);}.cls-5{fill:url(#linear-gradient-3);}.cls-6{fill:url(#linear-gradient-4);}.cls-7{fill:url(#linear-gradient-5);}.cls-8{fill:url(#linear-gradient-6);}.cls-9{fill:url(#linear-gradient-7);}.cls-10{fill:url(#linear-gradient-8);}.cls-11{fill:url(#linear-gradient-9);}.cls-12{fill:url(#linear-gradient-10);}.cls-13{fill:url(#linear-gradient-11);}.cls-14{fill:url(#linear-gradient-12);}.cls-15{fill:url(#linear-gradient-13);}.cls-16{fill:url(#linear-gradient-14);}.cls-17{fill:url(#linear-gradient-15);}.cls-18{fill:url(#linear-gradient-16);}.cls-19{fill:url(#linear-gradient-17);}.cls-20{fill:url(#linear-gradient-18);}.cls-21{fill:url(#linear-gradient-19);}.cls-22{fill:url(#linear-gradient-20);}.cls-23{fill:url(#linear-gradient-21);}.cls-24{fill:url(#linear-gradient-22);}.cls-25{fill:url(#linear-gradient-23);}.cls-26{fill:url(#linear-gradient-24);}.cls-27{fill:url(#linear-gradient-25);}.cls-28{fill:url(#linear-gradient-26);}.cls-29{fill:url(#linear-gradient-27);}.cls-30{fill:url(#linear-gradient-28);}.cls-31{fill:url(#linear-gradient-29);}.cls-32{fill:url(#linear-gradient-30);}.cls-33{fill:url(#linear-gradient-31);}.cls-34{fill:url(#linear-gradient-32);}.cls-35{fill:url(#linear-gradient-33);}.cls-36{fill:url(#linear-gradient-34);}.cls-37{fill:url(#linear-gradient-35);}.cls-38{fill:url(#linear-gradient-36);}.cls-39{fill:url(#linear-gradient-37);}.cls-40{fill:url(#linear-gradient-38);}.cls-41{fill:url(#linear-gradient-39);}.cls-42{fill:url(#linear-gradient-40);}.cls-43{fill:url(#linear-gradient-41);}.cls-44{fill:url(#linear-gradient-42);}.cls-45{fill:url(#linear-gradient-43);}.cls-46{fill:url(#linear-gradient-44);}.cls-47{fill:url(#linear-gradient-45);}.cls-48{fill:url(#linear-gradient-46);}.cls-49{fill:url(#linear-gradient-47);}.cls-50{fill:url(#linear-gradient-48);}.cls-51{fill:url(#linear-gradient-49);}.cls-52{fill:#7d97f4;}.cls-53{fill:#fff;}</style><linearGradient id="linear-gradient" x1="3079.32" y1="-743.35" x2="644.91" y2="2280.04" gradientTransform="matrix(1, 0, 0, -1, 0, 2800)" gradientUnits="userSpaceOnUse"><stop offset="0" stop-color="#dae3fe"/><stop offset="1" stop-color="#e9effd"/></linearGradient><linearGradient id="linear-gradient-2" x1="8546.61" y1="1709.83" x2="8163.84" y2="1239.28" gradientTransform="matrix(0.99, -0.12, -0.12, -0.99, -6450.25, 3647.85)" gradientUnits="userSpaceOnUse"><stop offset="0" stop-color="#febbba"/><stop offset="1" stop-color="#ff928e"/></linearGradient><linearGradient id="linear-gradient-3" x1="-5937.48" y1="738.28" x2="-6188.48" y2="440.04" gradientTransform="translate(-4570.42 3208.13) rotate(163.74)" gradientUnits="userSpaceOnUse"><stop offset="0" stop-color="#09005d"/><stop offset="1" stop-color="#1a0f91"/></linearGradient><linearGradient id="linear-gradient-4" x1="1531.94" y1="1560.32" x2="843.28" y2="845.17" gradientTransform="matrix(1, 0, 0, -1, 0, 2800)" gradientUnits="userSpaceOnUse"><stop offset="0" stop-color="#fe7062"/><stop offset="1" stop-color="#ff928e"/></linearGradient><linearGradient id="linear-gradient-5" x1="-6302.12" y1="215.26" x2="-6281.67" y2="360.45" gradientTransform="translate(-4570.42 3208.13) rotate(163.74)" xlink:href="#linear-gradient-2"/><linearGradient id="linear-gradient-6" x1="-6400.17" y1="525.25" x2="-6208.97" y2="305.42" gradientTransform="translate(-4570.42 3208.13) rotate(163.74)" xlink:href="#linear-gradient-2"/><linearGradient id="linear-gradient-7" x1="-6057.7" y1="839.44" x2="-6308.7" y2="541.2" xlink:href="#linear-gradient-3"/><linearGradient id="linear-gradient-8" x1="-6352.39" y1="566.82" x2="-6161.19" y2="346.99" gradientTransform="translate(-4570.42 3208.13) rotate(163.74)" xlink:href="#linear-gradient-2"/><linearGradient id="linear-gradient-9" x1="7470.01" y1="-109.76" x2="7926.18" y2="695.47" gradientTransform="matrix(1, -0.01, -0.01, -1, -6387.5, 2867.82)" xlink:href="#linear-gradient-2"/><linearGradient id="linear-gradient-10" x1="7569.21" y1="175.54" x2="7702.57" y2="175.54" gradientTransform="matrix(1, -0.01, -0.01, -1, -6387.5, 2867.82)" xlink:href="#linear-gradient-3"/><linearGradient id="linear-gradient-11" x1="7986.63" y1="486.33" x2="7304.41" y2="268.18" gradientTransform="matrix(1, -0.01, -0.01, -1, -6387.5, 2867.82)" xlink:href="#linear-gradient-2"/><linearGradient id="linear-gradient-12" x1="7692.83" y1="151.42" x2="7851.75" y2="151.42" gradientTransform="matrix(1, -0.01, -0.01, -1, -6387.5, 2867.82)" xlink:href="#linear-gradient-3"/><linearGradient id="linear-gradient-13" x1="1619.82" y1="1240.63" x2="1010.61" y2="459.26" gradientTransform="matrix(1, 0, 0, -1, 0, 2800)" gradientUnits="userSpaceOnUse"><stop offset="0" stop-color="#4f52ff"/><stop offset="1" stop-color="#4042e2"/></linearGradient><linearGradient id="linear-gradient-14" x1="7765.56" y1="1029.99" x2="8522.29" y2="1895.58" xlink:href="#linear-gradient-2"/><linearGradient id="linear-gradient-15" x1="191.89" y1="710.08" x2="-174.85" y2="-119.91" xlink:href="#linear-gradient-4"/><linearGradient id="linear-gradient-16" x1="494.58" y1="576.33" x2="127.84" y2="-253.66" xlink:href="#linear-gradient-4"/><linearGradient id="linear-gradient-17" x1="141.74" y1="223.12" x2="206.08" y2="531.95" xlink:href="#linear-gradient-4"/><linearGradient id="linear-gradient-18" x1="520.95" y1="174.13" x2="769.77" y2="174.13" xlink:href="#linear-gradient-13"/><linearGradient id="linear-gradient-19" x1="712.61" y1="652.57" x2="644.63" y2="182.87" gradientTransform="matrix(1, 0, 0, -1, 0, 2800)" xlink:href="#linear-gradient-3"/><linearGradient id="linear-gradient-20" x1="533.33" y1="249.11" x2="600.65" y2="249.11" gradientTransform="matrix(1, 0, 0, -1, 0, 2800)" xlink:href="#linear-gradient-2"/><linearGradient id="linear-gradient-21" x1="911.16" y1="223.44" x2="1112.05" y2="223.44" xlink:href="#linear-gradient-13"/><linearGradient id="linear-gradient-22" x1="1049.34" y1="603.84" x2="981.36" y2="134.13" gradientTransform="matrix(1, 0, 0, -1, 0, 2800)" xlink:href="#linear-gradient-3"/><linearGradient id="linear-gradient-23" x1="805.3" y1="709.95" x2="-439.6" y2="206.7" gradientTransform="matrix(1, 0, 0, -1, 0, 2800)" xlink:href="#linear-gradient-3"/><linearGradient id="linear-gradient-24" x1="852.2" y1="243.44" x2="932.57" y2="243.44" gradientTransform="matrix(1, 0, 0, -1, 0, 2800)" xlink:href="#linear-gradient-2"/><linearGradient id="linear-gradient-25" x1="1455.32" y1="1754.47" x2="912.33" y2="1105.54" gradientTransform="matrix(1, 0, 0, -1, 0, 2800)" xlink:href="#linear-gradient-3"/><linearGradient id="linear-gradient-26" x1="405.76" y1="1376.03" x2="445.39" y2="1475.96" gradientTransform="matrix(1, 0, 0, -1, 0, 2800)" xlink:href="#linear-gradient-2"/><linearGradient id="linear-gradient-27" x1="1114.21" y1="2089.77" x2="-101.51" y2="237.24" xlink:href="#linear-gradient-13"/><linearGradient id="linear-gradient-28" x1="1210.41" y1="2638.66" x2="201.44" y2="794.4" gradientTransform="matrix(1, 0, 0, -1, 0, 2800)" gradientUnits="userSpaceOnUse"><stop offset="0" stop-color="#53d8ff"/><stop offset="1" stop-color="#3840f7"/></linearGradient><linearGradient id="linear-gradient-29" x1="744.28" y1="987.42" x2="929.94" y2="987.42" gradientTransform="matrix(1, 0, 0, -1, 0, 2800)" xlink:href="#linear-gradient-2"/><linearGradient id="linear-gradient-30" x1="2701.45" y1="1314.39" x2="2502.5" y2="1162.16" gradientTransform="matrix(0.99, -0.13, -0.13, -0.99, -1980.21, 2876.68)" xlink:href="#linear-gradient-2"/><linearGradient id="linear-gradient-31" x1="2561.97" y1="1434.53" x2="2742.13" y2="1202.58" gradientTransform="matrix(0.99, -0.13, -0.13, -0.99, -1980.21, 2876.68)" xlink:href="#linear-gradient-3"/><linearGradient id="linear-gradient-32" x1="2676.78" y1="1346.64" x2="2477.83" y2="1194.41" gradientTransform="matrix(0.99, -0.13, -0.13, -0.99, -1980.21, 2876.68)" xlink:href="#linear-gradient-2"/><linearGradient id="linear-gradient-33" x1="28298.71" y1="30265.13" x2="27798.9" y2="29781.91" gradientTransform="matrix(-1.39, -0.07, 0.07, -1.39, -2023.52, 2934.76)" xlink:href="#linear-gradient-3"/><linearGradient id="linear-gradient-34" x1="24823.16" y1="27406.88" x2="24323.37" y2="26923.68" gradientTransform="translate(7214.89 -3882.18) rotate(-62.15) scale(1.39)" xlink:href="#linear-gradient-3"/><linearGradient id="linear-gradient-35" x1="-6503.5" y1="-187.25" x2="-6500.19" y2="-538" gradientTransform="translate(-4394.05 2800) rotate(180)" xlink:href="#linear-gradient-3"/><linearGradient id="linear-gradient-36" x1="-6588.04" y1="204.46" x2="-6606.24" y2="346.74" gradientTransform="translate(-4394.05 2800) rotate(180)" xlink:href="#linear-gradient-2"/><linearGradient id="linear-gradient-37" x1="-6977.36" y1="-191.72" x2="-6974.05" y2="-542.47" gradientTransform="translate(-4394.05 2800) rotate(180)" xlink:href="#linear-gradient-3"/><linearGradient id="linear-gradient-38" x1="-6985.83" y1="155.69" x2="-7003.57" y2="294.34" gradientTransform="translate(-4394.05 2800) rotate(180)" xlink:href="#linear-gradient-2"/><linearGradient id="linear-gradient-39" x1="-7109.78" y1="682.55" x2="-6563.87" y2="682.55" gradientTransform="translate(-4394.05 2800) rotate(180)" xlink:href="#linear-gradient-3"/><linearGradient id="linear-gradient-40" x1="-6996.5" y1="766.29" x2="-6976.65" y2="806" gradientTransform="translate(-4394.05 2800) rotate(180)" xlink:href="#linear-gradient-28"/><linearGradient id="linear-gradient-41" x1="2585.25" y1="1717.97" x2="2201.18" y2="658.49" xlink:href="#linear-gradient-13"/><linearGradient id="linear-gradient-42" x1="2992.92" y1="2197.53" x2="1767.89" y2="932.77" xlink:href="#linear-gradient-28"/><linearGradient id="linear-gradient-43" x1="-6851.76" y1="1066.35" x2="-6603.21" y2="1066.35" gradientTransform="translate(-4394.05 2800) rotate(180)" xlink:href="#linear-gradient-2"/><linearGradient id="linear-gradient-44" x1="-6622.67" y1="1377.94" x2="-6158.53" y2="1377.94" gradientTransform="translate(-4394.05 2800) rotate(180)" xlink:href="#linear-gradient-2"/><linearGradient id="linear-gradient-45" x1="-6789.82" y1="1638.28" x2="-6628.27" y2="1804.03" gradientTransform="translate(-4394.05 2800) rotate(180)" xlink:href="#linear-gradient-2"/><linearGradient id="linear-gradient-46" x1="-6555.55" y1="1908.45" x2="-6756.95" y2="1642.01" gradientTransform="translate(-4394.05 2800) rotate(180)" xlink:href="#linear-gradient-2"/><linearGradient id="linear-gradient-47" x1="-6709.36" y1="1844.17" x2="-6468.78" y2="1844.17" gradientTransform="translate(-4394.05 2800) rotate(180)" xlink:href="#linear-gradient-3"/><linearGradient id="linear-gradient-48" x1="-6850.52" y1="1697.45" x2="-6688.97" y2="1863.19" gradientTransform="translate(-4394.05 2800) rotate(180)" xlink:href="#linear-gradient-2"/><linearGradient id="linear-gradient-49" x1="3126.22" y1="2068.41" x2="1901.19" y2="803.65" xlink:href="#linear-gradient-28"/></defs><title>Asset 1</title><g id="Layer_2" data-name="Layer 2"><g id="Layer_1-2" data-name="Layer 1"><g id="Illustration"><path class="cls-1" d="M2409.61,2351.05c-55.92,58.86-108.83,96.83-150.63,126.82-491.37,352.57-1072.83,249.8-1196.37,224.7-182.48-37.06-535.2-108.7-790.2-408.59-385.8-453.7-325.8-1168.49-26.51-1640.34C300.64,567.33,589.79,88.3,1177.48,11.48,1533.14-35,1947.73,58.76,2248,310.29,2878.19,838.29,2833.32,1904.94,2409.61,2351.05Z"/><path class="cls-2" d="M206.93,762.1a7,7,0,0,1-4.12-6.33c0-9.19.12-18.53.47-27.77a6.8,6.8,0,0,1,7.08-6.51h.16c9.35.45,6.16,9.59,6.26,34.46a6.79,6.79,0,0,1-6.8,6.79h-.2A7.41,7.41,0,0,1,206.93,762.1Z"/><path class="cls-2" d="M212.16,642c3-17.42,6.64-34.92,11-52a6.86,6.86,0,0,1,8.38-4.89l.08,0c10.19,2.73,3,8.08-5.65,59.39a6.83,6.83,0,0,1-7.93,5.53H218a7,7,0,0,1-5.81-8Zm37.45-134.16c6.51-16.49,13.8-33,21.42-48.59,4.09-8.36,16.54-1.86,12.6,6.15-7.58,15.52-14.62,31.48-21,47.62a7,7,0,0,1-13-5.18Zm64.26-123.45c9.73-14.7,20.19-29.2,31.09-43.1,5.62-7.15,16.7,1.41,11.11,8.54-10.68,13.61-20.92,27.82-30.46,42.22C320.61,399.62,308.87,391.94,313.87,384.39Zm88.84-97.77a6.81,6.81,0,0,1-.15-9.63l.09-.1c12.62-12.38,25.93-24.41,39.53-35.77,7-5.84,16.13,4.73,9.14,10.56C438,262.81,425,274.61,412.59,286.73A7.06,7.06,0,0,1,402.71,286.62Zm107.53-87.19a6.77,6.77,0,0,1,1.83-9.39l.17-.11c15-9.55,30.52-18.62,46.21-27,8.08-4.28,14.88,7.84,6.8,12.14-15.37,8.18-30.61,17.06-45.28,26.41A7.09,7.09,0,0,1,510.24,199.43Zm127.21-59.77a7,7,0,0,1-3.61-3.76,6.76,6.76,0,0,1,3.68-8.81l.19-.08c16.69-6.33,33.83-12.08,50.94-17.09a7.12,7.12,0,0,1,8.77,4.65,6.74,6.74,0,0,1-4.38,8.49l-.19.06c-16.77,4.91-33.57,10.55-49.93,16.75A7.11,7.11,0,0,1,637.45,139.66Zm134.89-36a7,7,0,0,1-4-5.12,6.75,6.75,0,0,1,5.42-7.86l.21,0c17.68-2.83,35.7-5,53.57-6.47a7.08,7.08,0,0,1,7.65,6.29,6.76,6.76,0,0,1-6.07,7.4l-.19,0c-17.5,1.44-35.16,3.57-52.48,6.35a7.17,7.17,0,0,1-4.11-.54ZM908.2,89.1a6.82,6.82,0,0,1,7-6.58h.14c17.94.8,36.1,2.31,54,4.5,9.21,1.15,7.68,14.77-1.49,13.65-17.52-2.14-35.31-3.62-52.89-4.4a7.07,7.07,0,0,1-6.8-7.15Zm436.35,180.59c-39.52-34.87-49-35-42.61-43.26a7,7,0,0,1,9.78-1.23c14.39,10.84,28.54,22.38,42,34.3,6.94,6.15-2.26,16.34-9.22,10.22ZM1047.61,108.16a6.87,6.87,0,0,1,8.3-5l.11,0c17.46,4.39,35,9.51,52.11,15.23,8.8,2.94,4.51,16-4.28,13-16.77-5.6-34-10.63-51.06-14.93A7,7,0,0,1,1047.61,108.16Zm183.63,80.36c-45.67-26.21-55-24.51-50.55-33.92,2.85-6,10.13-3.14,9.29-3.17,16.32,7.78,32.52,16.27,48.13,25.22a6.86,6.86,0,0,1-6.54,12.06Z"/><path class="cls-2" d="M1423.61,352.12c-14.81-18.25-24.34-24.75-17.22-30.81a7.07,7.07,0,0,1,9.86.79c16.08,18.25,24.26,25.66,17.18,31.19C1431.34,355,1426.07,355.1,1423.61,352.12Z"/><path class="cls-2" d="M1574.84,865.08a7,7,0,0,1-4.06-7.18c1.13-9,2.07-18.08,2.82-27a6.82,6.82,0,0,1,7.39-6.19l.14,0a7.06,7.06,0,0,1,6.39,7.53c-.76,9.16-1.73,18.44-2.87,27.6a6.82,6.82,0,0,1-7.64,5.88l-.14,0A7.62,7.62,0,0,1,1574.84,865.08Z"/><path class="cls-2" d="M593.34,1374.33c-17.43-8.61-34.7-18-51.33-28a6.9,6.9,0,0,1-2.47-9.43l0,0c5.55-9.11,8.87,0,59.86,25.24a6.92,6.92,0,0,1,3.27,9.2l0,0C599.73,1377.22,592.5,1374.29,593.34,1374.33ZM676.61,1402c3.38-10.1,8.92-1.81,63.75,11.94a7,7,0,0,1,5.18,8.37,6.84,6.84,0,0,1-8.29,5l-.11,0c-18.77-4.7-37.63-10.26-56.06-16.51A7,7,0,0,1,676.61,1402ZM464.09,1292c-15.12-12.13-29.92-25-44-38.39a6.82,6.82,0,0,1-.36-9.64l.09-.1c7.47-7.66,8.66,2,53,37.51A6.86,6.86,0,0,1,474,1291l-.05.06A7,7,0,0,1,464.09,1292Zm364.19,151.48a7,7,0,0,1-4.09-7,6.83,6.83,0,0,1,7.5-6.08l.12,0c18.9,2.11,38.07,3.45,57,4a7.06,7.06,0,0,1,6.91,7.08,6.78,6.78,0,0,1-6.89,6.68h-.17c-19.31-.54-38.88-1.9-58.17-4a7.49,7.49,0,0,1-2.21-.65Zm151,.3a7,7,0,0,1-4.07-5.49,6.77,6.77,0,0,1,5.86-7.56l.19,0c18.78-2,37.71-4.87,56.26-8.46a7.11,7.11,0,0,1,8.29,5.44,6.75,6.75,0,0,1-5.16,8l-.21,0c-18.93,3.66-38.25,6.56-57.42,8.63a7.22,7.22,0,0,1-3.72-.61Zm146.86-32.36a7.13,7.13,0,0,1-3.7-4,6.75,6.75,0,0,1,4-8.67l.2-.07c17.82-6,35.6-12.89,52.84-20.38a7.12,7.12,0,0,1,9.26,3.54,6.75,6.75,0,0,1-3.23,9l-.21.09c-17.59,7.64-35.73,14.64-53.92,20.8a7.14,7.14,0,0,1-5.22-.29Zm135.67-63.26a7.07,7.07,0,0,1-3-2.63,6.76,6.76,0,0,1,2-9.34l.18-.12c16-9.74,31.77-20.27,46.87-31.31a7.09,7.09,0,0,1,9.79,1.49,6.76,6.76,0,0,1-1.17,9.49l-.17.12c-15.41,11.27-31.5,22-47.83,32a7,7,0,0,1-6.62.3Zm115.86-92.58c-7.68-7.68,2-8.42,38.57-50.53,5.94-6.87,16.64,2.17,10.68,9-12.45,14.37-25.7,28.38-39.37,41.65a7.06,7.06,0,0,1-9.86-.12Zm95.46-113.87c-9.18-5.85.06-8.63,26.15-57.84,4.23-8,16.67-1.49,12.41,6.54-8.9,16.79-18.64,33.38-28.93,49.31a7,7,0,0,1-9.61,2Zm66.8-132.35a7,7,0,0,1-3.71-8.65c6.4-17.56,12.1-35.54,16.93-53.42a6.88,6.88,0,0,1,8.49-4.76l.06,0a7,7,0,0,1,5,8.5c-4.94,18.25-10.75,36.59-17.28,54.51a6.89,6.89,0,0,1-8.89,4h0Z"/><path class="cls-2" d="M355.61,1183.6c-15.23-19-23-26.72-15.71-31.92,7.63-5.41,11,4.06,26.61,23.5a6.78,6.78,0,0,1-.93,9.54l-.15.12A7.11,7.11,0,0,1,355.61,1183.6Z"/><path class="cls-2" d="M444.19,1015.67l100-5.26a445.08,445.08,0,0,0,101,99.33c-2.9,95.87-9.9,102.39.08,106.52l111.56,46.15a8.26,8.26,0,0,0,9.3-2.05l65.67-73.42a443.55,443.55,0,0,0,141.48,1l67.22,74.43a8.42,8.42,0,0,0,9.34,2.19L1160.51,1220a7.93,7.93,0,0,0,5-8l-7.08-98.64a422.23,422.23,0,0,0,99.08-97.81l100.07,6.71a8.06,8.06,0,0,0,8-4.93l44.91-109.13a8.11,8.11,0,0,0-2.24-9.2l-75.67-66a424.07,424.07,0,0,0-1.47-139.4c71.3-65,80.63-64.36,76.45-74.11-48.12-106.88-44.34-115.42-55.29-114.85l-100,5.26a444.71,444.71,0,0,0-101-99.34c2.9-95.81,9.9-102.38-.08-106.51-111.63-44-113.8-52-120.86-44.1l-65.67,73.42a443,443,0,0,0-141.49-1c-66.35-70.52-66.57-80.64-76.55-76.62-108.71,46-116.39,41.83-115.63,52.49l7.08,98.63A422.27,422.27,0,0,0,539,504.69c-95.66-4.45-104-11.74-108.12-1.78C388.38,611.67,380,614.1,388.2,621.24l75.67,66a424.61,424.61,0,0,0,1.47,139.4c-71.06,64.73-80.65,64.3-76.45,74.11C437,1007.7,433.24,1016.24,444.19,1015.67Z"/><path class="cls-3" d="M782.06,742.6c8.73-63,68-106.3,132-96.6s109.09,68.81,100.36,131.77-67.95,106.3-132,96.6h0C818.34,864.67,773.34,805.55,782.06,742.6ZM883.84,864.17h0Zm27.41-197.76c-52-7.88-101.15,26.84-108.42,79.33C795.66,797.45,832.63,846,885.25,854s101.26-27.62,108.42-79.33-29.9-100.28-82.42-108.22Z"/><path class="cls-3" d="M776.93,1026.93h0a310.15,310.15,0,0,1-45.21-25.6A10.37,10.37,0,0,1,728,988.49a10.35,10.35,0,0,1,15.43-4.06,291,291,0,0,0,52.61,28.43h0c139.51,57.71,298.21-3.33,359.42-136.16q2.34-5.09,4.5-10.32c57.93-140.81-12.2-302-155-361.15-142.64-59-306.07,6.07-363.92,146.48-34.39,83.6-13.7,142.79-17.65,151.37-4.27,9.27-18.28,7.16-19.91-3a290.2,290.2,0,0,1,23-167.55c107.22-232.65,448.42-223.13,550.69,15.13,31.47,73.32,32.29,153.84,2.3,226.71q-2.31,5.66-4.87,11.19c-31.08,67.47-86.14,119.74-156.21,147.94-73.88,29.74-155.6,29.14-230.1-1.67C784.44,1030.3,780.66,1028.65,776.93,1026.93Z"/><path class="cls-2" d="M1567.86,391.09a177.71,177.71,0,0,0,43.84,37.31l.82,40.76c.09,4.52,4,2.77,48.89,18.14,4.16,1.34,3.7-2.55,28.18-33.78a177.88,177.88,0,0,0,57.38-4.66l29.42,28.26c3.27,3.13,4.76-.84,47.39-21.74a3.33,3.33,0,0,0,1.79-3.46l-5.74-40.38a177.5,177.5,0,0,0,37.3-43.85c38.93-1.59,42.51,1.1,43.88-3.14,14.06-46.37,17.36-47.63,13.84-50.27l-32.6-24.48a177.35,177.35,0,0,0-4.66-57.38L1905.85,203c3.13-3.27-.84-4.76-21.74-47.4-2-3.87-4.24-.84-43.84,4a177.35,177.35,0,0,0-43.84-37.31l-.82-40.79c-.09-4.52-4-2.77-48.89-18.14-4.14-1.33-3.58,2.39-28.18,33.78a177.56,177.56,0,0,0-57.37,4.66l-29.42-28.26a3.34,3.34,0,0,0-3.85-.56l-43.56,22.31a3.36,3.36,0,0,0-1.79,3.45l5.75,40.38A177.93,177.93,0,0,0,1551,183c-38.93,1.59-42.51-1.1-43.87,3.14-14.06,46.35-17.37,47.63-13.84,50.27l32.59,24.48a177.93,177.93,0,0,0,4.67,57.38c-26.41,28.65-30.86,29.29-28.83,33.26L1524,395.08C1526,398.94,1528.46,395.86,1567.86,391.09Z"/><path class="cls-3" d="M1653.12,272a51.05,51.05,0,1,1,47.64,54.25h0A51.12,51.12,0,0,1,1653.12,272Zm48.13,46.66h0Zm-33-45.66a35.89,35.89,0,0,0,33.44,38.08h0c31.67,2,50.26-35.48,29.25-59.41S1670.37,241.14,1668.3,273Z"/><path class="cls-2" d="M1447.82,351.71c-2-6.57-3.69-13.31-5.14-20a5.08,5.08,0,0,1,3.89-6c6.9-1.48,5.91,6.22,11,23.16a5.07,5.07,0,0,1-9.72,2.9Z"/><path class="cls-2" d="M1437,264.11a271.57,271.57,0,0,1,5-41.48c1.32-6.6,11.26-4.57,10,2-7.26,36.32-1.59,45.14-10.07,44.78a5.08,5.08,0,0,1-4.93-5.22Zm29-99a5.08,5.08,0,0,1-2.34-6.78h0a269.52,269.52,0,0,1,21.18-36c3.85-5.49,12.16.31,8.32,5.82a256.51,256.51,0,0,0-20.37,34.65c-2.21,4.42-7.45,2.33-6.84,2.34Zm65.55-84.55a5.09,5.09,0,0,1-2.47-6.75,5.15,5.15,0,0,1,1.29-1.71,268.47,268.47,0,0,1,33.76-24.61,5.07,5.07,0,1,1,5.49,8.52l-.17.11a258.85,258.85,0,0,0-32.48,23.69,5.09,5.09,0,0,1-5.47.78ZM1625.16,29a5.08,5.08,0,0,1,.64-9.46,267.22,267.22,0,0,1,40.79-9.06A5.07,5.07,0,1,1,1668,20.53a255.68,255.68,0,0,0-39.23,8.71A5.12,5.12,0,0,1,1625.16,29Zm103.59-14.93a5.08,5.08,0,0,1,5.61-4.47,267.9,267.9,0,0,1,41,7.92c6.45,1.74,3.8,11.56-2.69,9.78a258.52,258.52,0,0,0-39.47-7.62,5.09,5.09,0,0,1-4.45-5.57Z"/><path class="cls-2" d="M1849.86,63.31c-15.32-10.55-22.07-11.64-18.64-17.57a5,5,0,0,1,6.81-1.92l.13.08c5.91,3.43,11.78,7.15,17.46,11.06a5.07,5.07,0,1,1-5.76,8.35Z"/><path class="cls-2" d="M1959.27,242.48c-2.37-18.52-6.06-24.22.65-25.61a5.06,5.06,0,0,1,6,3.93h0c1.39,6.7,2.54,13.56,3.41,20.4a5.07,5.07,0,0,1-10.06,1.28Z"/><path class="cls-2" d="M1616.61,522.69c2.64-8,8.64.24,44.79,6.27,6.6,1.09,5,11.12-1.68,10a267.45,267.45,0,0,1-39.89-9.87,5.07,5.07,0,0,1-3.22-6.39Zm104.25,14.43a5.07,5.07,0,0,1,4.64-5.47h0c36.83-3,43.15-10.75,45.14-2.53a5.07,5.07,0,0,1-3.73,6.12h0a264.76,264.76,0,0,1-40.57,6.52,5.08,5.08,0,0,1-5.45-4.64Zm101.51-27.63c-4-7.46,6-6,35.49-28,5.38-4,11.46,4.11,6.07,8.13a268.46,268.46,0,0,1-34.71,22,5.06,5.06,0,0,1-6.83-2.13Zm82.49-65.33c-6.58-5.33,3.23-7.93,21.7-39.67,3.37-5.8,12.15-.71,8.77,5.1A267.33,267.33,0,0,1,1912,443.41a5.08,5.08,0,0,1-7.12.75Zm46.75-98.73c10-35.53,5-44.21,13.43-43.18a5.07,5.07,0,0,1,4.44,5.64h0a269.9,269.9,0,0,1-8.09,40.29,5.08,5.08,0,0,1-9.77-2.76Z"/><path class="cls-2" d="M1559.47,500.21c-5.78-3.72-11.47-7.71-16.93-11.85a5.07,5.07,0,0,1-1-7.1h0c4.27-5.62,8.51.85,23.39,10.44a5.07,5.07,0,1,1-5.23,8.68l-.26-.16Z"/><path class="cls-3" d="M1642.18,383.68a7.61,7.61,0,0,1,7.16-13.43l.2.11a110.75,110.75,0,0,0,105.77,2.73c87.17-44.67,76.88-173.35-16.46-203.43a110.63,110.63,0,0,0-134.24,58.83c-23.21,50.37,3,76.58-13,80.3a7.6,7.6,0,0,1-9.12-5.7h0a125.7,125.7,0,0,1,161-147.91c71.07,22.91,107.34,103.26,75.47,172.43-25.7,55.79-90.35,86.86-152.62,66.77h0A126.41,126.41,0,0,1,1642.18,383.68Z"/><path class="cls-4" d="M1780.38,1018.91a5.94,5.94,0,0,0-11,1.17c-5.33,19.18-18.22,52.64-45.27,64.52-1.37.6-2.66,1.2-3.9,1.81a13.77,13.77,0,0,1,1.69-12.44c8.41-12.86-6.77-30.41-6.77-30.41s-1,15.46-12.76,25.19c-10.12,8.39-15,27-8.07,42.36,14.64,56.88,36.57,132.1-48.84,187.05s-205.69-103.71-205.69-103.71l59.7,189.25s92.15,68,199.32-27.62,36.14-234.74,36.14-234.74S1816.7,1088.36,1780.38,1018.91Z"/><path class="cls-5" d="M1424.84,916.38s24.74-111-102.4-81.61c0,0-61.72-10.08-64.86,48.17,0,0-39.78,26.21-10.65,76.62,0,0-118.23-45.66-169.74,58s-4.16,160.65,45.47,175.51c0,0-40.21,20.19-21.18,65.78s115.44,77.74,172.39,22.29c0,0,162,21.41,158.8-93,0,0,75.36-48.67-3.8-143.26S1424.84,916.38,1424.84,916.38Z"/><path class="cls-6" d="M1431.82,1173.66c-25.55-7.66-99.94-21.8-170.7,43.5a43.82,43.82,0,0,0-12.62,43.66c19,70,69.14,276.68,25.18,366.12,0,0,77.48,85.41,162,16.57,0,0,37.92-165.29,87.59-237.85,34.3-50.1-54.68-188.12-77.19-221.47A26.34,26.34,0,0,0,1431.82,1173.66Z"/><path class="cls-7" d="M1361.28,1034.65s-37.79,106.88-40.63,154c0,0,41.76,19,81.11-13.06,0,0,4.13-106.75,10.09-125.87Z"/><path class="cls-8" d="M1413.76,888.93s98.83,138.3,39.75,178.48-129.43-58.12-129.43-58.12-22.93-75.7,1-101.38S1413.76,888.93,1413.76,888.93Z"/><path class="cls-9" d="M1368,855.88s45.4,10.76,51.76,31.3-64.38,39.59-84.21,40.52l-16,82.9s-47.22-78-28.51-123S1368,855.88,1368,855.88Z"/><path class="cls-10" d="M1343.24,999.11s-38.47-44.54-53.77-15.5,34.63,50.85,51.91,36.59Z"/><path class="cls-11" d="M1534.36,1990.56c-.29,7.5,12.89,67,20.06,98.77a52.29,52.29,0,0,1-5.63,37.51l-248.32,417.92A57.48,57.48,0,0,0,1294,2561c-4.55,19.61-14,67.68-9.06,111.4l12.85,26.68-55.56-12.61-12.09-149.19,15.73-9.59a74.73,74.73,0,0,0,30.23-35.39c22.45-54.54,78.21-193.37,92.58-261C1385,2154.42,1470.36,2092,1470.36,2092l-15-35.46Z"/><path class="cls-12" d="M1180.44,2635.15s30-47.56,33.53-66.08,13.36-51.21,31.85-41.36c0,0,8.72,89.94,5.71,125.08s39.73,34,39.73,34,11.78,1.66,20.4,10.28c6,6,1.7,16.28-6.7,16.82-14,.91-36.2,1.14-59.52-3.36a18.24,18.24,0,0,1-14.69-16.8l-6.14-103.51L1186.75,2638Z"/><path class="cls-13" d="M1386,2057.13s-8.76,373.83-9.94,426.92,8.38,170.76,61.61,205.93l-23.16,17.14s-29-24.6-57.22-71.94c-31.77-53.19-41.37-62.91-41.37-62.91l10.54-21.58a47.4,47.4,0,0,0,3.84-30.44c-11.48-55.67-49.85-240.83-60.32-280.71-12.36-47.06-13.24-109.92,29.75-162.54S1386,2057.13,1386,2057.13Z"/><path class="cls-14" d="M1336.87,2724a3.27,3.27,0,0,1-3.29-2.8c-1.77-12.46-9.14-62.43-15.17-75.37-6.92-14.81-29.49-77.18,0-82.47,0,0,73.34,107.15,87.42,121.6s31.85,5.05,31.85,5.05a52.9,52.9,0,0,1,24.06,17.27,9.7,9.7,0,0,1-7.65,15.6l-49.4.47a34.78,34.78,0,0,1-32.59-21.89c-8.69-21.72-23.63-53.58-41-67.72l9,86.63a3.27,3.27,0,0,1-2.91,3.61l-.33,0Z"/><path class="cls-15" d="M1447.38,1603.21s-11.13,35.48,6,93.92l106.09,370.48a11.47,11.47,0,0,1-7.18,14c-31.73,11.39-136,43.58-278.45,33.76a16.19,16.19,0,0,1-14.75-12.59c-9.38-42.23-41.39-186.33-48-215.94-25.12-112.83-53.17-234.49,70.21-308.06C1338.15,1603.09,1391.18,1617.44,1447.38,1603.21Z"/><path class="cls-16" d="M1251,1231.12s-120.71,100.31-150.67,237.39,176.39,151.64,176.39,151.64,28-31.28,61.27-20.12,2.57-54.59-36.34-54.42-20.88,30.94-75.93,6c-53.62-24.29-86.76-99.41,50-213.27a61.92,61.92,0,0,0,18.07-24.6C1320.41,1246.84,1299.33,1203,1251,1231.12Z"/><path class="cls-17" d="M64.08,2157.52C53.45,2173.25,11.2,2529.43,4.61,2661a15.55,15.55,0,0,0,14.78,16.29l.79,0h0a15.59,15.59,0,0,0,15.43-13.2l77.28-495.26Z"/><path class="cls-18" d="M403.8,2157.52c10.63,15.73,52.89,371.91,59.5,503.46a15.54,15.54,0,0,1-14.77,16.29l-.81,0h0a15.59,15.59,0,0,1-15.4-13.18L355,2168.85Z"/><path class="cls-19" d="M.17,2129.72v3.88c-.25,27.94,23.82,50.87,54,51.38l357.23,6.07c29.71.51,54.47-21,55.91-48.47l.19-3.55c1.5-28.69-22.86-52.86-53.85-53.42L56.28,2079.2C25.61,2078.66.43,2101.36.17,2129.72Z"/><path class="cls-20" d="M621,2626.91c-61,0-88-5.23-100-10a23.15,23.15,0,0,0,22.54,17.92H759.28a10.49,10.49,0,0,0,10.49-10.49,10.31,10.31,0,0,0-.37-2.76C744.75,2623.56,692.51,2626.91,621,2626.91Z"/><path class="cls-21" d="M769.35,2621.58a9.92,9.92,0,0,0-1.77-3.67c-16.44-21-49.46-53.95-94.37-53.31-65.81.92-88.75,8.06-139.88.4l-12.07,40a23.1,23.1,0,0,0-.36,11.93c12.07,4.77,39.06,10,100,10C692.51,2626.91,744.75,2623.56,769.35,2621.58Z"/><path class="cls-22" d="M548.14,2521.91l-14.81,50.36s32.8,14.93,61.66,2.94l5.66-43.63Z"/><path class="cls-23" d="M995.39,2595.2c-47.55,38.21-71.85,51.05-84.23,54.91a23.1,23.1,0,0,0,28.74-.22l168.22-135.16a10.46,10.46,0,0,0,1.63-14.7,10.17,10.17,0,0,0-2-1.92C1089.8,2515.05,1051.17,2550.38,995.39,2595.2Z"/><path class="cls-24" d="M1107.74,2498.11a10.14,10.14,0,0,0-3.66-1.74c-25.9-6-72.19-10.87-106.81,17.75-50.71,41.93-64.15,61.84-108.79,87.92L904,2640.62a22.91,22.91,0,0,0,7.16,9.49c12.38-3.86,36.68-16.7,84.23-54.91C1051.17,2550.38,1089.8,2515.05,1107.74,2498.11Z"/><path class="cls-25" d="M231.38,1948.13s365.23,29.87,440.11,65.09-61.14,529.55-61.14,529.55-20.39,9.82-65.78-4.29c0,0,46.54-364.77,11.91-443.86l-395.41-64.68Z"/><path class="cls-26" d="M852.2,2532.61c3.39,3.09,36.28,69.43,36.28,69.43s36.62-7.92,44.09-31.09l-33-59.88Z"/><path class="cls-27" d="M11.42,1945.08S-.48,1973.72,0,2011.77c.67,52.63,43,95.33,95.54,98l431.72,19.68A20.71,20.71,0,0,1,546.39,2145c10.14,39.24,59.73,159.74,302.13,400.19a19.54,19.54,0,0,0,24.17,2.64l34.51-21.8a7.93,7.93,0,0,0,2.61-10.73L658.44,2086a97.26,97.26,0,0,0-59.11-43.84l-368-94.06Z"/><path class="cls-28" d="M436.88,1274.55s-46.25,81.77-93.4,121.39l97.46,54.37s22-86.56,72.14-111.91Z"/><path class="cls-29" d="M3.61,1948.13s116.55,28.4,227.8,0c0,0,155.66-209.26,215.88-266.21,0,0,96.07,151.58,309.88,173.06l11.93-26.64s-170.22-78.47-222.63-199-73.45-172-121.12-203.44c-29.69-19.6-47.47-33-56.66-40.29a15.25,15.25,0,0,0-17.46-1.11C300.61,1415.3,62.54,1578.35,3.61,1948.13Z"/><path class="cls-30" d="M440.94,1679a7.47,7.47,0,0,1-5.93-2.93c-37.12-48.39-57.79-101.74-58.65-104a7.5,7.5,0,0,1,14-5.36c.2.54,20.8,53.63,56.55,100.25a7.46,7.46,0,0,1-5.93,12Z"/><path class="cls-31" d="M744.28,1814.42l24.07-6.41,73.07-16.93a34,34,0,0,1,25.69,4.33l62.83,39.53-173.51-.29Z"/><path class="cls-32" d="M510.31,1151.94s44.94,74.71,52.74,116,20.32,67.1-26.68,81.82-90.67-3.91-118.08-42.46c0,0-42.81-59.32-38.54-86.48S510.31,1151.94,510.31,1151.94Z"/><path class="cls-33" d="M430.8,1275.35l6.08-.8s-31.83-48.09-11-60,105.68-41.2,120.42-74.62c14.21-32.22-7-68.62-32.67-76.22a3.27,3.27,0,0,0-3.92,2.07l-1.5,4.06a3.3,3.3,0,0,1-6.11.17h0a3.28,3.28,0,0,0-6-.12c-4.54,10-18.16,27.11-59,40.34-57.9,18.77-94,48-89.54,89.11a3.28,3.28,0,0,1-2.89,3.64,3.24,3.24,0,0,1-1.81-.3c-4.73-2.09-11.91-2.42-20.24,6.7-14.49,15.85-3.14,50.51,36.43,75a3.27,3.27,0,0,1,1.18,4.47,3.42,3.42,0,0,1-.64.78c-5.92,5.07-14.25,16.38,12.53,26.45,27.39,10.31,42.34,6.82,47.86,4.61a3.31,3.31,0,0,0,2-3.71l-7-36a3.31,3.31,0,0,1,2.62-3.87l.19,0Z"/><path class="cls-34" d="M433.29,1282.76s-19.83-48.89-40.66-31.71,19.25,55.18,37.75,54.67Z"/><path class="cls-35" d="M747.86,1858.65h.86l373.14-.37a16.67,16.67,0,1,0,0-33.34l-373.14.37a16.67,16.67,0,0,0-.82,33.32Z"/><path class="cls-36" d="M1266.36,1493.24c-.13.25-.26.5-.38.76l-157,338.5a16.67,16.67,0,0,0,30,14.64c.1-.21.2-.43.29-.64l157-338.49a16.67,16.67,0,0,0-29.87-14.79Z"/><path class="cls-37" d="M2215.85,2573.58a476.68,476.68,0,0,1,5.74,50,21.52,21.52,0,0,1-19.4,22.72c-40.12,3.89-131.45,11.07-189.76,2.66a9.79,9.79,0,0,1-5.38-16.84c24-22.4,82.13-66,177.7-75.51Z"/><path class="cls-38" d="M2235.79,2522.09l-20.28,49.72a16.55,16.55,0,0,1-17,10.28,90,90,0,0,1-16.57-3.21,21.77,21.77,0,0,1-14.48-27.07l15.31-51.21Z"/><path class="cls-39" d="M2582.61,2613.18s-40.62,34-56.45,77.58c-4.35,12,4.85,24.63,17.61,24.63h83.59a19.73,19.73,0,0,0,19.77-19.68,19.21,19.21,0,0,0-.29-3.38C2641.52,2662.23,2626.16,2613.31,2582.61,2613.18Z"/><path class="cls-40" d="M2632.93,2569s-8.2,36.31-14.51,60.32a7.68,7.68,0,0,1-9.43,5.41l-.57-.18c-12.65-4.53-22.94-6.53-30.42-5.52a5.93,5.93,0,0,1-6.49-5.3,4.17,4.17,0,0,1,0-.61l-.79-60.32Z"/><path class="cls-41" d="M2416.89,1751.74l-247.08,753.78s47.39,31,70,29.74l293.48-605.78s51.35,373.26,26.47,641.23l84,6.42s136.69-684.81,33.16-919.36Z"/><path class="cls-42" d="M2531.67,1923h.3a2.39,2.39,0,0,0,2.07-2.67l-9.59-76.11a2.39,2.39,0,1,0-4.75.46s0,.09,0,.14l9.59,76.1A2.39,2.39,0,0,0,2531.67,1923Z"/><path class="cls-43" d="M2370.61,1088.46s200.18,17.77,171.86,160.41c0,0,110.66,208.24,162.39,453.54a14.42,14.42,0,0,1-11.2,17l-.5.1-333.37,57.08a17.94,17.94,0,0,1-20.39-13.2l-79.66-307.84-31,143.13-98.63-25.7,83-420.57S2224.61,1091.09,2370.61,1088.46Z"/><path class="cls-44" d="M2258,1441.83h.53a2.5,2.5,0,0,0,1.91-3v0l-27.82-127.61a2.48,2.48,0,1,0-4.85,1.06l27.78,127.6A2.5,2.5,0,0,0,2258,1441.83Z"/><path class="cls-45" d="M2278.12,1821.52a47.58,47.58,0,0,1,34.42-4.47l23.2,5.77a8.41,8.41,0,0,0,10.19-6.12,8.16,8.16,0,0,0,.19-1.1l24-213.64c30,14.26,73.31,12.55,87.59,11.51l-55.24,251.86H2209.15Z"/><path class="cls-46" d="M1764.47,1358.12l5.85-19.42a38.4,38.4,0,0,1,22.45-24.57l105.68-42.5s1.59-13.55-22.33-22.76-18.33-36-18.33-36,32.69,14.91,80.53,38.56c27.37,13.52,42.72,37.4,50.87,55.37l239.42,291.93-28.11,19.32a75.08,75.08,0,0,1-104.38-19.37,77,77,0,0,1-4.45-7.34l-129.73-248.77C1896.85,1362.14,1830.94,1365.88,1764.47,1358.12Z"/><path class="cls-47" d="M2305.72,952.27l61.57,172.32s-54.52,42.62-94.31,28.21L2242,1054S2265.61,933.3,2305.72,952.27Z"/><path class="cls-48" d="M2122,890.38c0,2.66,59.31,167.9,59.31,167.9l93.63-35.87-33-165S2122,845.93,2122,890.38Z"/><path class="cls-49" d="M2225.53,897.63l24.14,85.49a11.77,11.77,0,0,1,.47,3.34c0,7-1.71,31-26.15,27.7-22.17-3-42.45-5.34-55.35.74a12.42,12.42,0,0,0-6.4,15.41c5.4,15,18.17,48.62,33.73,76.12a12.38,12.38,0,0,0,15.91,5.09c17.59-8,54.2-25.91,80.29-47.22a12.41,12.41,0,0,0,4.39-11.91c-4.11-21.87-16.33-88.38-16.87-107.44-.51-17.89,19.57-31.55,28.41-36.68a12.17,12.17,0,0,0,5.74-7.71c2.77-11.52,5.13-37.58-28.11-43.32a12.42,12.42,0,0,1-10.16-14.32c0-.16,0-.31.08-.46,2.81-13.77,1.91-34-24.24-41.5-26.58-7.59-43.31,8.41-51.82,20.68a12.41,12.41,0,0,1-15.38,4.11c-3.14-1.4-6.93-1.47-11,2A12.22,12.22,0,0,1,2156,826c-.24-.3-.47-.62-.69-.94-7.75-11.41-21.83-22.8-45.67-15.09-42.3,13.69-40.27,62.46-24.77,89s60.53,9.06,81.84-8.51c16.2-13.35,40.87-5.36,51.77-.77A12.3,12.3,0,0,1,2225.53,897.63Z"/><path class="cls-50" d="M2288.17,976.16s-25-47.36-8.48-62.23,44.6-12.44,43.85,24.6C2322.61,984.59,2288.17,976.16,2288.17,976.16Z"/><path class="cls-51" d="M2438.29,1616.68a237.71,237.71,0,0,0,24.46-1.16l1.78-.2,72.89-339.85a2.48,2.48,0,0,0-4.85-1l-72.14,336.32c-10.84,1-68.77,4.8-99.35-16.86l63.14-295.26L2411,1273.83a2.49,2.49,0,0,0-4.39,2.33L2419,1299.4,2355.61,1596l1.26,1C2378.92,1613.53,2414.51,1616.68,2438.29,1616.68Z"/><path class="cls-52" d="M414.88,2675.48a9.85,9.85,0,0,1-4.77-1.26c-6.14-3.38-9-12.48-6.33-20.32l253.53-754.16c2.64-7.84,9.74-11.46,15.88-8.09s9,12.47,6.33,20.32L426,2666.12C424,2672,419.61,2675.48,414.88,2675.48Z"/><path class="cls-52" d="M700.49,2675.48c-4.68,0-9.14-3.5-11.11-9.36L435.85,1912c-2.64-7.85.19-17,6.33-20.32s13.24.24,15.88,8.09L711.61,2653.9c2.64,7.84-.19,16.94-6.33,20.32A9.9,9.9,0,0,1,700.49,2675.48Z"/><path class="cls-52" d="M2135.54,2675.48a9.85,9.85,0,0,1-4.77-1.26c-6.14-3.38-9-12.48-6.33-20.32L2378,1899.74c2.64-7.84,9.74-11.46,15.88-8.09s9,12.47,6.33,20.32l-253.57,754.15C2144.68,2672,2140.22,2675.48,2135.54,2675.48Z"/><path class="cls-52" d="M2421.15,2675.48c-4.68,0-9.14-3.5-11.11-9.36L2156.51,1912c-2.64-7.85.19-17,6.33-20.32s13.24.24,15.88,8.09l253.53,754.16c2.64,7.84-.19,16.94-6.33,20.32A9.82,9.82,0,0,1,2421.15,2675.48Z"/><path class="cls-52" d="M2510.05,1856.12c1.18-4.26-.43-8.68-4.4-12s-9.88-5.3-16.12-5.3h-2113c-8.21,0-15.84,2.92-20.26,7.73s-5,10.87-1.57,16.06l22.91,34.52c5.25,7.91,16.61,13,29.11,13H2475c11.63,0,21.62-5.75,23.83-13.7Z"/><path class="cls-53" d="M1875.91,979.93s-448-221.34-301.48-384.31,419.64-97.83,433.48,73.69S1689.3,800.6,1875.91,979.93Z"/><path class="cls-2" d="M1607.81,637.71a4.53,4.53,0,0,0,4.52,4.52H1810a4.52,4.52,0,0,0,0-9h-197.7A4.53,4.53,0,0,0,1607.81,637.71Z"/><path class="cls-2" d="M1868.74,642.23h58.67a4.52,4.52,0,0,0,0-9h-58.67a4.52,4.52,0,0,0,0,9Z"/><path class="cls-2" d="M1601.15,677.73a4.53,4.53,0,0,0,4.52,4.52h74.23a4.52,4.52,0,1,0,.85-9,4,4,0,0,0-.85,0h-74.23A4.51,4.51,0,0,0,1601.15,677.73Z"/><path class="cls-2" d="M1784.32,677.73a4.52,4.52,0,0,0,4.5,4.52h131.93a4.52,4.52,0,0,0,0-9H1788.83A4.52,4.52,0,0,0,1784.32,677.73Z"/><path class="cls-2" d="M1599,722.28h197.34a4.52,4.52,0,1,0,.85-9,4,4,0,0,0-.85,0H1599a4.52,4.52,0,1,0-.84,9A3.93,3.93,0,0,0,1599,722.28Z"/><path class="cls-2" d="M1845.76,722.28h68.33a4.52,4.52,0,0,0,0-9h-68.33a4.52,4.52,0,0,0,0,9Z"/></g></g></g></svg>