<svg xmlns="http://www.w3.org/2000/svg" xmlns:xlink="http://www.w3.org/1999/xlink" viewBox="0 0 2752.36 2800"><defs><style>.cls-1{fill:url(#linear-gradient);}.cls-2{fill:#91b3fa;}.cls-3{fill:#bdd0fb;}.cls-4{fill:url(#linear-gradient-2);}.cls-5{fill:url(#linear-gradient-3);}.cls-6{fill:url(#linear-gradient-4);}.cls-7{fill:url(#linear-gradient-5);}.cls-8{fill:url(#linear-gradient-6);}.cls-9{fill:url(#linear-gradient-7);}.cls-10{fill:url(#linear-gradient-8);}.cls-11{fill:url(#linear-gradient-9);}.cls-12{fill:url(#linear-gradient-10);}.cls-13{fill:url(#linear-gradient-11);}.cls-14{fill:url(#linear-gradient-12);}.cls-15{fill:url(#linear-gradient-13);}.cls-16{fill:url(#linear-gradient-14);}.cls-17{fill:url(#linear-gradient-15);}.cls-18{fill:url(#linear-gradient-16);}.cls-19{fill:url(#linear-gradient-17);}.cls-20{fill:url(#linear-gradient-18);}.cls-21{fill:url(#linear-gradient-19);}.cls-22{fill:url(#linear-gradient-20);}.cls-23{fill:url(#linear-gradient-21);}.cls-24{fill:url(#linear-gradient-22);}.cls-25{fill:#26264f;}.cls-26{fill:url(#linear-gradient-23);}.cls-27{fill:url(#linear-gradient-24);}.cls-28{fill:url(#linear-gradient-25);}.cls-29{fill:url(#linear-gradient-26);}.cls-30{fill:url(#linear-gradient-27);}.cls-31{fill:url(#linear-gradient-28);}.cls-32{fill:url(#linear-gradient-29);}.cls-33{fill:url(#linear-gradient-30);}.cls-34{fill:url(#linear-gradient-31);}.cls-35{fill:url(#linear-gradient-32);}.cls-36{fill:url(#linear-gradient-33);}.cls-37{fill:url(#linear-gradient-34);}.cls-38{fill:url(#linear-gradient-35);}.cls-39{fill:url(#linear-gradient-36);}.cls-40{fill:url(#linear-gradient-37);}.cls-41{fill:url(#linear-gradient-38);}.cls-42{fill:url(#linear-gradient-39);}.cls-43{fill:url(#linear-gradient-40);}.cls-44{fill:url(#linear-gradient-41);}.cls-45{fill:url(#linear-gradient-42);}.cls-46{fill:url(#linear-gradient-43);}.cls-47{fill:url(#linear-gradient-44);}.cls-48{fill:url(#linear-gradient-45);}.cls-49{fill:url(#linear-gradient-46);}.cls-50{fill:url(#linear-gradient-47);}.cls-51{fill:url(#linear-gradient-48);}.cls-52{fill:url(#linear-gradient-49);}.cls-53{fill:url(#linear-gradient-50);}.cls-54{fill:url(#linear-gradient-51);}.cls-55{fill:url(#linear-gradient-52);}.cls-56{fill:url(#linear-gradient-53);}.cls-57{fill:url(#linear-gradient-54);}.cls-58{fill:url(#linear-gradient-55);}.cls-59{fill:url(#linear-gradient-56);}.cls-60{fill:url(#linear-gradient-57);}.cls-61{fill:url(#linear-gradient-58);}.cls-62{fill:url(#linear-gradient-59);}</style><linearGradient id="linear-gradient" x1="3110.25" y1="-802.15" x2="649.72" y2="2253.68" gradientTransform="matrix(1, 0, 0, -1, 0, 2800)" gradientUnits="userSpaceOnUse"><stop offset="0" stop-color="#dae3fe"/><stop offset="1" stop-color="#e9effd"/></linearGradient><linearGradient id="linear-gradient-2" x1="2663.48" y1="1653.78" x2="1705.58" y2="898.65" gradientTransform="matrix(1, 0, 0, -1, 0, 2800)" gradientUnits="userSpaceOnUse"><stop offset="0" stop-color="#ff928e"/><stop offset="1" stop-color="#fe7062"/></linearGradient><linearGradient id="linear-gradient-3" x1="1621.21" y1="1501.92" x2="878.04" y2="-95.54" xlink:href="#linear-gradient-2"/><linearGradient id="linear-gradient-4" x1="1052.16" y1="1649.94" x2="1096.39" y2="2136.54" gradientTransform="matrix(1, 0, 0, -1, 0, 2800)" gradientUnits="userSpaceOnUse"><stop offset="0" stop-color="#febbba"/><stop offset="1" stop-color="#ff928e"/></linearGradient><linearGradient id="linear-gradient-5" x1="949.96" y1="1659.23" x2="994.19" y2="2145.83" xlink:href="#linear-gradient-4"/><linearGradient id="linear-gradient-6" x1="252.23" y1="452.34" x2="944.6" y2="452.34" gradientTransform="matrix(1, 0, 0, -1, 0, 2800)" gradientUnits="userSpaceOnUse"><stop offset="0" stop-color="#4f52ff"/><stop offset="1" stop-color="#4042e2"/></linearGradient><linearGradient id="linear-gradient-7" x1="792.91" y1="889.45" x2="-365.36" y2="-417.13" xlink:href="#linear-gradient-6"/><linearGradient id="linear-gradient-8" x1="3538.73" y1="1832.5" x2="2507.93" y2="674.62" xlink:href="#linear-gradient-6"/><linearGradient id="linear-gradient-9" x1="2559.79" y1="1140.29" x2="1862.51" y2="83.8" xlink:href="#linear-gradient-6"/><linearGradient id="linear-gradient-10" x1="191.79" y1="1019.39" x2="302.95" y2="613.32" gradientTransform="matrix(1, 0, 0, -1, 0, 2800)" gradientUnits="userSpaceOnUse"><stop offset="0" stop-color="#a22b25"/><stop offset="1" stop-color="#c0423c"/></linearGradient><linearGradient id="linear-gradient-11" x1="5354.15" y1="1049.06" x2="5334.61" y2="749.5" gradientTransform="matrix(0.9, -0.44, -0.44, -0.9, -4236.12, 5315.93)" gradientUnits="userSpaceOnUse"><stop offset="0" stop-color="#09005d"/><stop offset="1" stop-color="#1a0f91"/></linearGradient><linearGradient id="linear-gradient-12" x1="85.77" y1="1102.44" x2="196.93" y2="914.16" xlink:href="#linear-gradient-10"/><linearGradient id="linear-gradient-13" x1="5775.42" y1="956.53" x2="5755.89" y2="656.99" gradientTransform="matrix(0.79, -0.61, -0.61, -0.79, -3822.1, 6372.57)" xlink:href="#linear-gradient-11"/><linearGradient id="linear-gradient-14" x1="474.04" y1="859.1" x2="369.69" y2="1160.97" gradientTransform="matrix(1, 0, 0, -1, 0, 2800)" xlink:href="#linear-gradient-11"/><linearGradient id="linear-gradient-15" x1="-2032.09" y1="1776.98" x2="-1960.14" y2="1596.48" gradientTransform="matrix(0.9, -0.44, -0.44, -0.9, 2928.59, 2065.07)" xlink:href="#linear-gradient-11"/><linearGradient id="linear-gradient-16" x1="366.54" y1="1119.52" x2="603.07" y2="1119.52" xlink:href="#linear-gradient-6"/><linearGradient id="linear-gradient-17" x1="418.13" y1="1278.2" x2="451.02" y2="1125.08" xlink:href="#linear-gradient-10"/><linearGradient id="linear-gradient-18" x1="6124.98" y1="11672.33" x2="6127.25" y2="11494.25" gradientTransform="matrix(0.72, -0.69, -0.69, -0.72, -3251.38, 6736.34)" xlink:href="#linear-gradient-10"/><linearGradient id="linear-gradient-19" x1="6420.99" y1="1422.33" x2="6233.58" y2="1227.35" gradientTransform="matrix(0.72, -0.69, -0.69, -0.72, -3251.38, 6736.34)" xlink:href="#linear-gradient-11"/><linearGradient id="linear-gradient-20" x1="6160.77" y1="11672.75" x2="6163.04" y2="11494.67" gradientTransform="matrix(0.72, -0.69, -0.69, -0.72, -3251.38, 6736.34)" xlink:href="#linear-gradient-10"/><linearGradient id="linear-gradient-21" x1="4682.22" y1="1016.76" x2="4935.73" y2="1016.76" gradientTransform="matrix(1, 0, 0, -1, -4163.88, 2800)" xlink:href="#linear-gradient-10"/><linearGradient id="linear-gradient-22" x1="2417.11" y1="3070.1" x2="1906.69" y2="2450.79" xlink:href="#linear-gradient-2"/><linearGradient id="linear-gradient-23" x1="3993.13" y1="1431.91" x2="4086.84" y2="1431.91" gradientTransform="translate(5214.02 2800) rotate(180)" xlink:href="#linear-gradient-11"/><linearGradient id="linear-gradient-24" x1="4073.22" y1="2273.64" x2="4056.21" y2="1826.18" gradientTransform="translate(5214.02 2800) rotate(180)" xlink:href="#linear-gradient-6"/><linearGradient id="linear-gradient-25" x1="3001.98" y1="1541.85" x2="2983.27" y2="1378.59" gradientTransform="matrix(1, 0, 0, -1, -1811.84, 2800)" xlink:href="#linear-gradient-4"/><linearGradient id="linear-gradient-26" x1="3246.36" y1="1662.95" x2="3229.34" y2="1215.48" gradientTransform="matrix(1, 0, 0, -1, -1811.84, 2800)" xlink:href="#linear-gradient-6"/><linearGradient id="linear-gradient-27" x1="3170.52" y1="1430.57" x2="3302.39" y2="1430.57" gradientTransform="matrix(1, 0, 0, -1, -1811.84, 2800)" xlink:href="#linear-gradient-11"/><linearGradient id="linear-gradient-28" x1="3199.05" y1="1520.96" x2="3181.55" y2="1368.24" gradientTransform="matrix(1, 0, 0, -1, -1811.84, 2800)" xlink:href="#linear-gradient-4"/><linearGradient id="linear-gradient-29" x1="1616.9" y1="2206.56" x2="951.82" y2="1331.19" gradientTransform="matrix(1, 0, 0, -1, 0, 2800)" xlink:href="#linear-gradient-11"/><linearGradient id="linear-gradient-30" x1="1548.14" y1="2854.88" x2="1289.53" y2="2412.52" xlink:href="#linear-gradient-2"/><linearGradient id="linear-gradient-31" x1="1231" y1="2439.06" x2="1265.02" y2="2648.34" xlink:href="#linear-gradient-4"/><linearGradient id="linear-gradient-32" x1="11360.74" y1="5740.91" x2="11507.7" y2="5776.67" gradientTransform="matrix(0.88, -0.48, -0.48, -0.88, 1042.81, 4267.71)" xlink:href="#linear-gradient-4"/><linearGradient id="linear-gradient-33" x1="2104.01" y1="3556.34" x2="2255.37" y2="3556.34" gradientTransform="matrix(0.88, -0.48, -0.48, -0.88, 1042.81, 4267.71)" xlink:href="#linear-gradient-11"/><linearGradient id="linear-gradient-34" x1="11355.55" y1="5762.61" x2="11502.51" y2="5798.38" gradientTransform="matrix(0.88, -0.48, -0.48, -0.88, 1042.81, 4267.71)" xlink:href="#linear-gradient-4"/><linearGradient id="linear-gradient-35" x1="1330.16" y1="2982.32" x2="1071.55" y2="2539.95" xlink:href="#linear-gradient-2"/><linearGradient id="linear-gradient-36" x1="1025.43" y1="2825.99" x2="978.06" y2="2670.34" xlink:href="#linear-gradient-4"/><linearGradient id="linear-gradient-37" x1="1752.61" y1="2735.35" x2="1493.99" y2="2292.99" xlink:href="#linear-gradient-2"/><linearGradient id="linear-gradient-38" x1="8841.44" y1="-1984.76" x2="8794.07" y2="-2140.4" gradientTransform="translate(4370.02 9111.03) rotate(-94)" xlink:href="#linear-gradient-4"/><linearGradient id="linear-gradient-39" x1="-3376.12" y1="901.37" x2="-3240.71" y2="901.37" gradientTransform="translate(-1119.52 2800) rotate(180)" gradientUnits="userSpaceOnUse"><stop offset="0" stop-color="#2b3582"/><stop offset="0.39" stop-color="#23286c"/><stop offset="1" stop-color="#150e42"/></linearGradient><linearGradient id="linear-gradient-40" x1="-3376.15" y1="927.91" x2="-3244.48" y2="927.91" gradientTransform="translate(-1119.52 2800) rotate(180)" xlink:href="#linear-gradient-11"/><linearGradient id="linear-gradient-41" x1="-3363.61" y1="964.97" x2="-3325.46" y2="964.97" gradientTransform="translate(-1119.52 2800) rotate(180)" xlink:href="#linear-gradient-4"/><linearGradient id="linear-gradient-42" x1="-3617.84" y1="867.79" x2="-3565.91" y2="867.79" xlink:href="#linear-gradient-39"/><linearGradient id="linear-gradient-43" x1="-3617.48" y1="919.44" x2="-3541.31" y2="919.44" gradientTransform="translate(-1119.52 2800) rotate(180)" xlink:href="#linear-gradient-11"/><linearGradient id="linear-gradient-44" x1="-3577.88" y1="984.87" x2="-3532.29" y2="984.87" gradientTransform="translate(-1119.52 2800) rotate(180)" xlink:href="#linear-gradient-4"/><linearGradient id="linear-gradient-45" x1="2415.49" y1="1623.76" x2="2099.05" y2="705.05" gradientTransform="matrix(1, 0, 0, -1, 0, 2800)" xlink:href="#linear-gradient-39"/><linearGradient id="linear-gradient-46" x1="2581.8" y1="2194.36" x2="2102.03" y2="1204.2" gradientTransform="matrix(1, 0, 0, -1, 0, 2800)" xlink:href="#linear-gradient-39"/><linearGradient id="linear-gradient-47" x1="-2950.77" y1="1945.26" x2="-3131.35" y2="1710.33" gradientTransform="translate(-1119.52 2800) rotate(180)" xlink:href="#linear-gradient-4"/><linearGradient id="linear-gradient-48" x1="-3164.97" y1="1890.21" x2="-3767.85" y2="1175.69" gradientTransform="translate(-1119.52 2800) rotate(180)" xlink:href="#linear-gradient-6"/><linearGradient id="linear-gradient-49" x1="3053.23" y1="2479.93" x2="2542.81" y2="2112.43" xlink:href="#linear-gradient-6"/><linearGradient id="linear-gradient-50" x1="-3353.26" y1="1793.41" x2="-3333.51" y2="1897.13" gradientTransform="translate(-1119.52 2800) rotate(180)" xlink:href="#linear-gradient-4"/><linearGradient id="linear-gradient-51" x1="-3299.81" y1="1983.7" x2="-3412.52" y2="1897.45" gradientTransform="translate(-1119.52 2800) rotate(180)" xlink:href="#linear-gradient-4"/><linearGradient id="linear-gradient-52" x1="-3379.14" y1="2052.01" x2="-3274.16" y2="1916.85" gradientTransform="translate(-1119.52 2800) rotate(180)" xlink:href="#linear-gradient-11"/><linearGradient id="linear-gradient-53" x1="-3313.79" y1="2001.96" x2="-3426.51" y2="1915.72" gradientTransform="translate(-1119.52 2800) rotate(180)" xlink:href="#linear-gradient-4"/><linearGradient id="linear-gradient-54" x1="1902.34" y1="2084.13" x2="1782.11" y2="1941.21" xlink:href="#linear-gradient-4"/><linearGradient id="linear-gradient-55" x1="-3269.08" y1="1680.88" x2="-3333.76" y2="1583.86" gradientTransform="translate(-1119.52 2800) rotate(180)" xlink:href="#linear-gradient-4"/><linearGradient id="linear-gradient-56" x1="2278.6" y1="1665.22" x2="2215.22" y2="1570.15" xlink:href="#linear-gradient-4"/><linearGradient id="linear-gradient-57" x1="3343.9" y1="1418.48" x2="3165.66" y2="1369.63" gradientTransform="matrix(1, -0.05, -0.05, -1, -1010.19, 2801.09)" xlink:href="#linear-gradient-11"/><linearGradient id="linear-gradient-58" x1="3067.17" y1="1694.56" x2="2941.45" y2="1561.68" gradientTransform="matrix(1, 0, 0, -1, -1049.15, 2800)" xlink:href="#linear-gradient-11"/><linearGradient id="linear-gradient-59" x1="1726.11" y1="121.18" x2="2134.09" y2="121.18" xlink:href="#linear-gradient"/></defs><title>Asset 2</title><g id="Layer_2" data-name="Layer 2"><g id="Layer_1-2" data-name="Layer 1"><g id="Illustration"><path class="cls-1" d="M2433.32,2397.06c-56.51,59.5-110,97.87-152.24,128.19-496.65,356.35-1084.31,252.47-1209.21,227.11-184.43-37.46-540.93-109.87-798.68-413C-116.76,1880.79-56,1158.36,246.43,681.42,301.76,594.18,594,110,1188,32.37c359.47-47,778.51,47.78,1082,302C2907,868.08,2861.61,1946.17,2433.32,2397.06Z"/><path class="cls-2" d="M188.44,730.41a3.4,3.4,0,0,1-2.27-5.93q5.09-4.58,10.34-9A3.4,3.4,0,0,1,201,720.6l-.1.08q-5.16,4.37-10.18,8.86A3.34,3.34,0,0,1,188.44,730.41Z"/><path class="cls-2" d="M912.41,1065h-.1a3.4,3.4,0,0,1-3.3-3.5h0c.11-3.88.16-7.78.16-11.68,0-5.08-.09-10.21-.27-15.24a3.4,3.4,0,0,1,3.28-3.52h0a3.47,3.47,0,0,1,3.52,3.28c.18,5.11.27,10.32.27,15.48q0,5.94-.16,11.87A3.41,3.41,0,0,1,912.41,1065Zm-3.94-71.06A3.41,3.41,0,0,1,905.1,991c-1.23-8.85-2.76-17.78-4.54-26.54a3.4,3.4,0,0,1,6.66-1.36c1.82,8.9,3.37,18,4.62,27a3.4,3.4,0,0,1-2.9,3.84h0a2.46,2.46,0,0,1-.47,0ZM892.9,924.48a3.41,3.41,0,0,1-3.25-2.39C887,913.58,884,905,880.84,896.64a3.4,3.4,0,1,1,6.36-2.42h0c3.24,8.5,6.25,17.2,9,25.85a3.4,3.4,0,0,1-2.23,4.26h0a3.54,3.54,0,0,1-1.07.14Zm-26.63-66a3.39,3.39,0,0,1-3-1.88c-4-8-8.32-16-12.81-23.68a3.4,3.4,0,0,1,5.88-3.42c4.56,7.84,8.94,15.93,13,24a3.41,3.41,0,0,1-1.52,4.57,3.5,3.5,0,0,1-1.55.4Zm-37-60.79a3.39,3.39,0,0,1-2.76-1.4c-5.24-7.2-10.79-14.35-16.5-21.24a3.4,3.4,0,1,1,5.24-4.34c5.8,7,11.44,14.26,16.76,21.58a3.4,3.4,0,0,1-.75,4.75h0a3.37,3.37,0,0,1-2,.64Zm-46.45-53.84a3.45,3.45,0,0,1-2.39-1c-6.36-6.25-13-12.38-19.78-18.24a3.41,3.41,0,0,1,4.46-5.15c6.87,6,13.63,12.19,20.09,18.54a3.4,3.4,0,0,1,0,4.81h0a3.32,3.32,0,0,1-2.37,1Zm-54.68-45.5a3.38,3.38,0,0,1-2-.62c-7.31-5.13-14.88-10.1-22.51-14.77a3.4,3.4,0,1,1,3.56-5.8c7.75,4.74,15.44,9.79,22.86,15a3.4,3.4,0,0,1-2,6.19Zm-494.33-3.5a3.4,3.4,0,0,1-1.92-6.22c7.51-5.11,15.27-10,23.08-14.68a3.41,3.41,0,0,1,3.47,5.86c-7.69,4.55-15.33,9.42-22.72,14.45a3.38,3.38,0,0,1-1.9.58Zm432.94-32.49a3.4,3.4,0,0,1-1.47-.33c-8-3.87-16.31-7.54-24.61-10.92a3.4,3.4,0,1,1,2.57-6.3h0c8.42,3.42,16.83,7.15,25,11.08a3.4,3.4,0,0,1-1.48,6.47Zm-371-2.6a3.41,3.41,0,0,1-1.43-6.5c7.54-3.49,15.3-6.82,23-9.89l2.11-.83a3.4,3.4,0,0,1,2.62,6.28l-.14,0-2.08.83c-7.64,3-15.27,6.3-22.7,9.74a3.4,3.4,0,0,1-1.4.31Zm304.61-22.92a3.36,3.36,0,0,1-1-.14c-8.59-2.52-17.36-4.8-26.06-6.77a3.4,3.4,0,1,1,1.5-6.64c8.84,2,17.75,4.32,26.47,6.88a3.4,3.4,0,0,1-.95,6.67Zm-237.82-1.69a3.4,3.4,0,0,1-.91-6.68c8.77-2.44,17.71-4.64,26.57-6.52a3.4,3.4,0,1,1,1.42,6.66h0c-8.73,1.85-17.54,4-26.16,6.41a3,3,0,0,1-.94.12Zm168.11-12.69h-.41c-8.88-1.08-17.9-1.89-26.83-2.41a3.41,3.41,0,0,1,.4-6.8c9.07.53,18.23,1.36,27.25,2.46a3.4,3.4,0,0,1-.41,6.78Zm-98.21-.72a3.4,3.4,0,0,1-.35-6.78c9-1,18.2-1.66,27.27-2.06a3.4,3.4,0,0,1,.3,6.8c-8.93.39-18,1.07-26.85,2l-.39,0Z"/><path class="cls-2" d="M907,1122.65a3.42,3.42,0,0,1-3.36-4q1.08-6.66,2-13.35a3.4,3.4,0,1,1,6.77.64l0,.23q-.89,6.81-2,13.57A3.42,3.42,0,0,1,907,1122.65Z"/><path class="cls-2" d="M729.25,1407.65a3.4,3.4,0,0,1-2-6.18q5.54-3.9,10.9-8a3.41,3.41,0,0,1,4.11,5.43q-5.47,4.13-11.08,8.09A3.42,3.42,0,0,1,729.25,1407.65Z"/><path class="cls-2" d="M478.62,1487.42q-6.71,0-13.41-.2a3.41,3.41,0,0,1-3.3-3.51,3.45,3.45,0,0,1,3.51-3.3q13.21.4,26.51,0a3.4,3.4,0,1,1,.22,6.8C487.63,1487.35,483.18,1487.42,478.62,1487.42Zm-56.56-3.72h-.45c-8.85-1.17-17.79-2.63-26.56-4.34a3.4,3.4,0,0,1,1.3-6.68c8.64,1.69,17.44,3.12,26.16,4.28a3.4,3.4,0,0,1-.45,6.77Zm113.22,0a3.41,3.41,0,0,1-.45-6.78c8.73-1.16,17.53-2.6,26.16-4.3a3.4,3.4,0,0,1,1.31,6.68c-8.77,1.72-17.71,3.19-26.57,4.37ZM353.59,1469a3.37,3.37,0,0,1-1-.15c-8.55-2.57-17.13-5.45-25.52-8.55a3.4,3.4,0,1,1,2.36-6.38h0c8.26,3,16.71,5.88,25.13,8.42a3.4,3.4,0,0,1-1,6.66Zm250.15-.09a3.4,3.4,0,0,1-1-6.66c8.41-2.55,16.86-5.39,25.12-8.45a3.4,3.4,0,0,1,2.37,6.38c-8.39,3.11-17,6-25.52,8.58a3.53,3.53,0,0,1-1,.11Zm-315.38-25.43a3.46,3.46,0,0,1-1.49-.34c-8-3.92-16.05-8.13-23.81-12.52a3.41,3.41,0,1,1,3-6.1,3.07,3.07,0,0,1,.31.17c7.64,4.33,15.53,8.48,23.44,12.33a3.4,3.4,0,0,1-1.49,6.46Zm380.6-.14a3.4,3.4,0,0,1-1.49-6.46c7.93-3.86,15.81-8,23.45-12.33a3.41,3.41,0,1,1,3.66,5.76l-.31.17c-7.76,4.38-15.77,8.6-23.82,12.52a3.49,3.49,0,0,1-1.49.3Zm-440.88-35.52a3.38,3.38,0,0,1-2-.62c-7.3-5.15-14.54-10.59-21.5-16.17a3.4,3.4,0,1,1,4.26-5.31c6.85,5.49,14,10.85,21.16,15.92a3.4,3.4,0,0,1-2,6.18ZM174.31,1363a3.35,3.35,0,0,1-2.38-1c-6.38-6.26-12.64-12.8-18.6-19.43a3.4,3.4,0,0,1,4.93-4.69l.12.14c5.87,6.53,12,13,18.32,19.12a3.4,3.4,0,0,1-2.39,5.83Zm-45.81-52.93a3.39,3.39,0,0,1-2.75-1.39c-5.28-7.21-10.4-14.68-15.23-22.2a3.4,3.4,0,0,1,5.73-3.67c4.75,7.4,9.79,14.75,15,21.85a3.39,3.39,0,0,1-.73,4.74h0A3.32,3.32,0,0,1,128.5,1310.07Zm-36.66-59.66a3.4,3.4,0,0,1-3-1.86c-4-8-7.9-16.15-11.45-24.35a3.4,3.4,0,0,1,6.24-2.71c3.5,8.08,7.29,16.14,11.28,24a3.41,3.41,0,0,1-3,5Zm-26.66-64.77a3.39,3.39,0,0,1-3.24-2.36c-2.73-8.51-5.23-17.22-7.44-25.87a3.4,3.4,0,0,1,6.59-1.68c2.18,8.52,4.64,17.09,7.33,25.47a3.38,3.38,0,0,1-2.17,4.27,3.28,3.28,0,0,1-1.07.17Zm-16-68.2a3.4,3.4,0,0,1-3.37-2.9c-1.32-8.84-2.39-17.84-3.16-26.73a3.4,3.4,0,0,1,6.78-.59c.76,8.75,1.81,17.61,3.12,26.31a3.4,3.4,0,0,1-2.85,3.87h0a2.92,2.92,0,0,1-.51,0Zm-4.73-69.88h0a3.41,3.41,0,0,1-3.36-3.45c.13-8.94.53-18,1.21-26.89a3.4,3.4,0,0,1,6.78.52c-.66,8.76-1.06,17.66-1.18,26.47a3.41,3.41,0,0,1-3.43,3.35Z"/><path class="cls-2" d="M51.18,977.63a4,4,0,0,1-.6,0,3.4,3.4,0,0,1-2.75-4q1.2-6.75,2.61-13.46a3.4,3.4,0,1,1,6.66,1.4h0q-1.38,6.6-2.57,13.25A3.4,3.4,0,0,1,51.18,977.63Z"/><path class="cls-2" d="M163.45,940.94a5.22,5.22,0,0,0,1.08,6L210,991.16a276,276,0,0,0-4.25,89.37l-49.36,39.71a5.21,5.21,0,0,0-1.64,5.82l25.75,71.55a5.19,5.19,0,0,0,5,3.44l63.34-.84A276.31,276.31,0,0,0,309,1266.36l-6.82,63a5.21,5.21,0,0,0,3,5.27L373.92,1367a5.18,5.18,0,0,0,6-1.07l44.22-45.43a276,276,0,0,0,89.37,4.26l39.71,49.36a5.19,5.19,0,0,0,5.82,1.63L630.59,1350a5.19,5.19,0,0,0,3.44-5l-.84-63.34a275.91,275.91,0,0,0,66.15-60.23l63,6.83a5.2,5.2,0,0,0,5.27-3l32.39-68.8a5.22,5.22,0,0,0-1.08-6l-45.43-44.22a276,276,0,0,0,4.26-89.37l49.36-39.71a5.21,5.21,0,0,0,1.64-5.82L783,899.79a5.22,5.22,0,0,0-5-3.44l-63.35.85A276,276,0,0,0,654.42,831l6.83-63a5.22,5.22,0,0,0-3-5.28l-68.8-32.38a5.19,5.19,0,0,0-6,1.08L539.33,777A276.26,276.26,0,0,0,450,772.74l-39.72-49.36a5.21,5.21,0,0,0-5.82-1.63L332.89,747.5a5.2,5.2,0,0,0-3.45,5l.85,63.34A276.63,276.63,0,0,0,264.18,876l-63-6.83a5.23,5.23,0,0,0-5.28,3Z"/><path class="cls-3" d="M481.86,1121.38A72.92,72.92,0,0,1,467.8,1120a72.15,72.15,0,0,1-46.32-30.71h0a72.56,72.56,0,1,1,60.38,32.08Zm-.28-135.08A62.43,62.43,0,0,0,430,1083.6h0a62.41,62.41,0,1,0,63.71-96.13,63.65,63.65,0,0,0-12.08-1.17Z"/><path class="cls-3" d="M483.1,1238a189,189,0,0,1-177.31-124.82h0a190.58,190.58,0,0,1-9-35.12l-.21-1.4c-.12-.83-.24-1.66-.35-2.48l10.12-1.36a180.25,180.25,0,0,0,9,36.9h0a178.35,178.35,0,0,0,228.21,107.44h0c72.66-26.15,118-94.88,118-168A177.75,177.75,0,0,0,651,988.92c-33.3-92.54-135.69-140.74-228.24-107.43a178.05,178.05,0,0,0-77.62,54.8l-7.9-6.46a188.43,188.43,0,0,1,82.07-58c97.84-35.21,206.09,15.75,241.3,113.59a187.79,187.79,0,0,1,11.15,63.67c0,77.31-47.91,150-124.73,177.63A188.85,188.85,0,0,1,483.1,1238Z"/><path class="cls-2" d="M682.93,651.93a3.4,3.4,0,0,1-3.29-2.55c-1.14-4.39-2.19-8.91-3.1-13.44a3.4,3.4,0,0,1,6.67-1.34c.89,4.4,1.9,8.8,3,13.07a3.41,3.41,0,0,1-2.43,4.15h0A3.4,3.4,0,0,1,682.93,651.93Z"/><path class="cls-2" d="M675.1,592a3.39,3.39,0,0,1-3.4-3.38h0V587.1A251.79,251.79,0,0,1,673,561.78l.25-2.37a3.4,3.4,0,0,1,6.76.72l-.24,2.34a244.12,244.12,0,0,0-1.24,24.63v1.48a3.39,3.39,0,0,1-3.36,3.42h0Zm11-74.69a3.08,3.08,0,0,1-1-.16,3.4,3.4,0,0,1-2.25-4.25h0a248.37,248.37,0,0,1,10.3-27.41,3.4,3.4,0,0,1,6.22,2.76,243.52,243.52,0,0,0-10,26.66,3.42,3.42,0,0,1-3.25,2.44Zm33.22-67.83a3.31,3.31,0,0,1-2-.61,3.41,3.41,0,0,1-.84-4.74,249.37,249.37,0,0,1,18.17-22.95,3.4,3.4,0,0,1,5.08,4.53h0a244.11,244.11,0,0,0-17.55,22.36,3.38,3.38,0,0,1-2.84,1.45ZM771.63,395a3.4,3.4,0,0,1-3.42-3.38,3.44,3.44,0,0,1,1.35-2.73,254.19,254.19,0,0,1,24.24-16.38,3.41,3.41,0,1,1,3.69,5.73l-.21.13a245.49,245.49,0,0,0-23.59,15.93A3.35,3.35,0,0,1,771.63,395Zm242.72-31.95a3.38,3.38,0,0,1-1.3-.25,243.48,243.48,0,0,0-26.91-9.27A3.4,3.4,0,1,1,988,347h0a250.39,250.39,0,0,1,27.68,9.52,3.4,3.4,0,0,1-1.3,6.55Zm-176.43-4.16a3.41,3.41,0,0,1-1.15-6.61A247.33,247.33,0,0,1,864.85,344a3.4,3.4,0,1,1,1.53,6.63,242.53,242.53,0,0,0-27.31,8,3.26,3.26,0,0,1-1.15.26Zm103-13.49h-.29c-6.77-.56-13.73-.73-20.36-.84q-4.07,0-8.1.14a3.4,3.4,0,1,1-.23-6.8h0c2.81-.1,5.48-.09,8.47-.14,6.88,0,13.87.29,20.79.86a3.4,3.4,0,0,1-.28,6.79Z"/><path class="cls-2" d="M1067,392.91a3.36,3.36,0,0,1-2-.67c-3.61-2.68-7.3-5.27-11-7.7a3.4,3.4,0,1,1,3.75-5.68h0c3.78,2.5,7.58,5.16,11.29,7.92a3.4,3.4,0,0,1-2,6.13Z"/><path class="cls-2" d="M1164.75,562.25a3.39,3.39,0,0,1-3.37-3c-.51-4.45-1.15-8.92-1.89-13.29a3.4,3.4,0,0,1,6.71-1.14c.77,4.49,1.42,9.09,1.94,13.66a3.4,3.4,0,0,1-3,3.76h0A2.54,2.54,0,0,1,1164.75,562.25Z"/><path class="cls-2" d="M915.5,835.75h-.07c-6.54-.15-13.16-.56-19.7-1.21-3-.31-6-.66-9-1.07a3.41,3.41,0,0,1,.92-6.75c2.91.4,5.84.73,8.77,1,6.36.65,12.8,1,19.16,1.18a3.41,3.41,0,0,1-.08,6.81Zm46-3.3a3.4,3.4,0,0,1-.56-6.76,240.56,240.56,0,0,0,27.29-6.24,3.41,3.41,0,0,1,2.25,6.44l-.35.1a247.31,247.31,0,0,1-28.07,6.41,3.79,3.79,0,0,1-.58.05ZM842.3,823a3.31,3.31,0,0,1-1.08-.18,248.73,248.73,0,0,1-26.72-10.74,3.4,3.4,0,1,1,2.9-6.16,243.22,243.22,0,0,0,26,10.45,3.4,3.4,0,0,1-1.08,6.63ZM1032,809.15a3.4,3.4,0,0,1-1.55-6.43,243.16,243.16,0,0,0,24.17-14.13,3.4,3.4,0,0,1,3.77,5.67h0a251.74,251.74,0,0,1-24.85,14.52A3.18,3.18,0,0,1,1032,809.15Zm60.35-43.3A3.4,3.4,0,0,1,1090,760a244.61,244.61,0,0,0,18.87-20.68,3.41,3.41,0,1,1,5.51,4l-.22.27a252,252,0,0,1-19.41,21.26,3.42,3.42,0,0,1-2.38,1Zm44.72-59.33a3.35,3.35,0,0,1-1.61-.41,3.4,3.4,0,0,1-1.4-4.59h0a241.87,241.87,0,0,0,11.82-25.4,3.4,3.4,0,0,1,6.32,2.5,247.52,247.52,0,0,1-12.14,26.12,3.42,3.42,0,0,1-3,1.79Zm24.83-70a3.41,3.41,0,0,1-3.35-4h0c1.34-7,2.39-14.19,3.11-21.37q.33-3.2.57-6.39a3.35,3.35,0,0,1,3.54-3.15h.1a3.4,3.4,0,0,1,3.14,3.64q-.24,3.28-.57,6.57c-.75,7.39-1.83,14.78-3.2,22a3.41,3.41,0,0,1-3.34,2.73Z"/><path class="cls-2" d="M776.18,788.8a3.41,3.41,0,0,1-2-.65c-3.71-2.7-7.38-5.54-10.91-8.43a3.4,3.4,0,0,1,4.31-5.27h0c3.44,2.81,7,5.57,10.61,8.2a3.4,3.4,0,0,1-2,6.15Z"/><path class="cls-2" d="M783.94,716.76a3,3,0,0,0,3.27,1l34-11.32A156.36,156.36,0,0,0,865,731.83L872.18,767a3,3,0,0,0,2.5,2.34L917.34,775a3,3,0,0,0,3-1.6l16.06-32.06a155.87,155.87,0,0,0,48.92-13l29.9,19.83a3,3,0,0,0,3.42-.11l34.17-26.15a2.94,2.94,0,0,0,1-3.27l-11.32-34a156.39,156.39,0,0,0,25.4-43.81l35.14-7.11a2.93,2.93,0,0,0,2.33-2.5l5.68-42.66a2.93,2.93,0,0,0-1.6-3l-32-16.06a156.48,156.48,0,0,0-13-48.92l19.83-29.9a3,3,0,0,0-.12-3.42L1057.93,453a3,3,0,0,0-3.27-1l-34,11.32a156.34,156.34,0,0,0-43.8-25.4l-7.11-35.14a2.93,2.93,0,0,0-2.5-2.33l-42.66-5.68a2.92,2.92,0,0,0-3,1.6l-16.06,32a156.76,156.76,0,0,0-48.92,13.05l-29.9-19.83a3,3,0,0,0-3.42.12l-34.18,26.14a3,3,0,0,0-1,3.27l11.32,34.05A156.06,156.06,0,0,0,774,529l-35.14,7.11a3,3,0,0,0-2.34,2.5l-5.68,42.66a3,3,0,0,0,1.6,3l32.06,16.06a155.87,155.87,0,0,0,13,48.92l-19.83,29.9a3,3,0,0,0,.11,3.42Z"/><path class="cls-3" d="M920.85,628.19a43.34,43.34,0,1,1,5-.29A44,44,0,0,1,920.85,628.19Zm.15-76.43a33.1,33.1,0,1,0,3.67,66h0a33.1,33.1,0,0,0-3.73-66Z"/><path class="cls-3" d="M921.84,693.21a110.54,110.54,0,0,1-35.91-6l-1.23-.44,3.45-9.6a99.67,99.67,0,0,0,20.43,5h0a98.07,98.07,0,0,0,68.83-16.41q2.13-1.5,4.19-3a98,98,0,0,0,37.88-65.39,98.73,98.73,0,1,0-195.74-26.06,102,102,0,0,0-.87,13.07,98.31,98.31,0,0,0,8,39l-9.37,4a109,109,0,1,1,209-43.35,111.48,111.48,0,0,1-1,14.61,109,109,0,0,1-107.76,94.58Z"/><path class="cls-4" d="M1086.18,1400.82h722.63a40.42,40.42,0,0,1,40.42,40.42v1346.7H1045.8V1441.25A40.42,40.42,0,0,1,1086.18,1400.82Z"/><path class="cls-5" d="M882.12,1400.82h722.63a40.42,40.42,0,0,1,40.42,40.42v1346.7H841.7V1441.25a40.42,40.42,0,0,1,40.41-40.43Z"/><path class="cls-6" d="M895.57,1660.18a5.11,5.11,0,0,1-5.11-5.11h0v-98.41c0-52.61,44.15-95.42,98.41-95.42h154.31a5.11,5.11,0,1,1,.45,10.21H988.88c-48.63,0-88.2,38.23-88.2,85.21v98.41a5.09,5.09,0,0,1-5.09,5.11Z"/><path class="cls-7" d="M895.57,1764.53a5.11,5.11,0,0,1-5.11-5.11h0v-40.09a5.11,5.11,0,0,1,10.21-.45,3.38,3.38,0,0,1,0,.45v40.09a5.09,5.09,0,0,1-5.09,5.11Z"/><path class="cls-8" d="M292.65,1909.32H904.18a40.42,40.42,0,0,1,40.42,40.42V2786H252.23V1949.74A40.42,40.42,0,0,1,292.65,1909.32Z"/><path class="cls-9" d="M88.55,1909.32H700a40.42,40.42,0,0,1,40.42,40.42V2786H48.13V1949.74A40.42,40.42,0,0,1,88.55,1909.32Z"/><path class="cls-2" d="M105.28,2159.8a5.11,5.11,0,0,1-5.11-5.11h0V2050.8c0-55.38,51.68-100.44,115.19-100.44H397.41a5.11,5.11,0,0,1,0,10.21h-182c-57.88,0-105,40.48-105,90.23v103.89A5.1,5.1,0,0,1,105.28,2159.8Z"/><path class="cls-2" d="M105.28,2270a5.11,5.11,0,0,1-5.11-5.11h0v-42.33a5.11,5.11,0,0,1,10.21,0v42.33a5.09,5.09,0,0,1-5.09,5.11Z"/><path class="cls-10" d="M1999.38,1895.36h611.49a40.42,40.42,0,0,1,40.42,40.42V2786H1959V1935.79a40.42,40.42,0,0,1,40.41-40.43Z"/><path class="cls-11" d="M1795.28,1895.36h611.49a40.42,40.42,0,0,1,40.42,40.42V2786H1754.85V1935.79a40.42,40.42,0,0,1,40.41-40.43Z"/><path class="cls-2" d="M1812,2149.75a5.1,5.1,0,0,1-5.1-5.1h0V2039.1c0-56.22,51.67-102,115.19-102h182a5.11,5.11,0,0,1,0,10.21h-182c-57.89,0-105,41.16-105,91.75v105.55a5.1,5.1,0,0,1-5.06,5.14Z"/><path class="cls-2" d="M1812,2261.66a5.1,5.1,0,0,1-5.1-5.1h0v-43a5.11,5.11,0,1,1,10.21-.45,3.38,3.38,0,0,1,0,.45v43a5.1,5.1,0,0,1-5.1,5.1Z"/><path class="cls-12" d="M111.3,2103.78c.3-.12,161.72-282.81,183.54-309.42a16.89,16.89,0,0,1,15.09-6.06l45.06,5.37,52.93,114.51-88.18-51.36c8.72,60.35-104.56,150-143.41,182.76a8.92,8.92,0,0,0-1.1,12.57l.39.43,15.56,16.23c-25.46,25.81-54.84,42.38-88,50.05Z"/><path class="cls-13" d="M182.18,2060.05s9.9,3.19,13.25,12a10.08,10.08,0,0,1-3.79,11.63c-16.3,11.67-70.07,49.38-94.88,56.76a2.8,2.8,0,0,1-3.47-1.91,2.77,2.77,0,0,1,0-1.4c1.27-5.76,5.39-17.27,18.66-34.12l-1.19,2.41a3.45,3.45,0,0,0,4.77,4.55C132.07,2100.61,165.87,2080.1,182.18,2060.05Z"/><path class="cls-14" d="M174.18,2173.16c.27-.17,24.49-58.53,24.76-58.7,22.21-135.2,76.39-251,92.37-281.45a16.88,16.88,0,0,1,13.55-9l45.21-3.86,75,101.43-96.75-32.45c20.76,57.33-72,168.09-103.45,208a8.92,8.92,0,0,0,1.48,12.53l.46.34,18.47,12.76c-19.71,30.43-45.13,52.61-76.06,66.82Z"/><path class="cls-15" d="M234.72,2116s10.34,1.13,15.41,9.09a10.1,10.1,0,0,1-1.36,12.15c-13.59,14.76-58.59,62.53-81.43,74.76a2.8,2.8,0,0,1-3.79-1.19,2.71,2.71,0,0,1-.32-1.34c.08-5.9,1.79-18,11.37-37.19l-.68,2.6a3.45,3.45,0,0,0,5.6,3.49C193.87,2165.85,222.83,2138.93,234.72,2116Z"/><path class="cls-16" d="M561.69,1798.79s40.9,60.83,44.25,88.58-11.31,37.34-54.11,40.88c-127.39,10.53-190.19-27.65-190.19-27.65-8.71-55.56-14.91-69.69-87.69-99.9,0,0,92.05,7.3,110.58.12S561.69,1798.79,561.69,1798.79Z"/><path class="cls-17" d="M406.18,1436.14s27-.17,37,10c8,8.17,32.7-2.46,44.54,15.55a24.56,24.56,0,0,0,28,10.24c26.42-8.37,70.57-14.31,97.69,25.34,20.71,30.27,10.21,50.81-5.09,63.68-11.25,9.46-13.6,26.1-4.63,37.73,8.6,11.16,12,27.31-3.89,49.23C564.25,1697,474,1635.28,474,1635.28l-83.58-144.4Z"/><path class="cls-18" d="M451.08,1790.73s-47.63-45.35-71.07-75.39A63.73,63.73,0,0,1,369.18,1658c10.7-36.06,29.72-73.41,31.46-79.23,2.66-8.9,56.06-8.53,56.06-8.53s105.08,68.2,146.37,183.73L556.7,1768.4s-27.43-46-54.54-75.3c0,0,46.91,62,48.56,87.34Z"/><path class="cls-19" d="M394.18,1529c.56,1.85,14.5,48.06,15.59,49s30.56,2.54,44.44-6.94l-28.32-62.65Z"/><path class="cls-20" d="M355.89,1477.07s-9.93,22.92,1.73,57.77,30.71,37.87,42.78,29.26,27.71-24,29.66-55.58S369.55,1448.07,355.89,1477.07Z"/><path class="cls-21" d="M406.51,1506.47s-21.05-47.17-52.63-17.79l-2.44,12.14s-30.07-8.57-20.19-35.82,45.82-45.74,78-28.07,43.1,38.47,41.37,63.27-20.32,16.32-20.32,16.32S426.72,1498.28,418,1495s-8.55,10.57-8.55,10.57Z"/><path class="cls-22" d="M413.75,1507s-11-24.18,4.4-25,9.11,23.31,6,32.13Z"/><path class="cls-23" d="M360.34,1808.63l35.78-38.94,41.33,11.13s48.19,7.47,75.76,0l27.58-7.46,62.32-19.4,9.79,27.66a16.64,16.64,0,0,1-6.08,19.13c-5.4,3.83-11.72,8-15.74,9.81-8.21,3.59-189.06,1.13-189.06,1.13Z"/><path class="cls-2" d="M478.8,1824h-.38l-164.61-.18a7.37,7.37,0,0,1,0-14.74l164.6.18a7.37,7.37,0,0,1,.37,14.73Z"/><path class="cls-2" d="M165.84,1674.59H302.92a26.11,26.11,0,0,1,23.63,15L389.93,1824H219.57a15.87,15.87,0,0,1-14.77-10l-49.14-124.35a11,11,0,0,1,10.18-15.06Z"/><ellipse class="cls-3" cx="252.1" cy="1746.83" rx="10.8" ry="17.56" transform="translate(-523.04 161.23) rotate(-17.84)"/><path class="cls-24" d="M1710.3,66.38c116.78-34.61,228.14-25.28,283.75-10.57,65.73,17.38,87.53,30.42,145.72,37,51.72,5.84,189.17-36,171.57-4.53-22.94,41-16.66,201.73,17.59,268.72,5,9.75-157.79,33.88-256.42,15.86-136-24.85-179.74-66.51-269-47.56-41.18,8.75-72.48,26.23-92.48,39.63C1720.11,265.84,1701.18,165.45,1710.3,66.38Z"/><path class="cls-25" d="M1711.78,1399.17a5.1,5.1,0,0,1-5.11-5.09h0V34.52a5.11,5.11,0,0,1,10.21,0V1394.07A5.1,5.1,0,0,1,1711.78,1399.17Z"/><path class="cls-26" d="M1127.18,1399.5a8.11,8.11,0,0,1,.22-2.14c10.67-42.3,54.29-64,54.29-64l21,1.65c12.06,37.28,19.84,55.48,17.9,65.66,0,.29-.14.56-.21.84C1203.07,1403.07,1167.44,1404.08,1127.18,1399.5Z"/><path class="cls-27" d="M1220.63,1401.53a9.07,9.07,0,0,1-6.66,6.72c-24.62,5.18-63.76,1-80.19-1.14a7.64,7.64,0,0,1-6.34-7.61C1167.69,1404.08,1203.32,1403.07,1220.63,1401.53Z"/><path class="cls-28" d="M1164.42,1300.72l9.19,44.23a7.24,7.24,0,0,0,6.18,6,61.11,61.11,0,0,0,14.24-.23c4.74-.7,8-5.51,7.2-10.68l-6.39-39.28Z"/><path class="cls-29" d="M1398.4,1401.16c-22.41-.63-34-3.27-40-5.72,0,2.23,0,4.5.07,6.85a4.43,4.43,0,0,0,4.23,4.5l123-.79c3.93,0,6.22-4.58,4.52-8.19C1474.18,1399.15,1433,1402.13,1398.4,1401.16Z"/><path class="cls-30" d="M1490.55,1397.81a5.36,5.36,0,0,0-.48-.92c-10.87-15.19-38.55-45.43-93.24-58.54l-26.24-.83s-11.69,20.31-11.91,57.92c6,2.45,17.59,5.09,40,5.72C1433.33,1402.13,1474.42,1399.15,1490.55,1397.81Z"/><path class="cls-31" d="M1365.72,1297.76c.29,2,3.89,31.68,5.28,43.2a5.72,5.72,0,0,0,4.82,5.16c4.47.53,11.7,1,18-.28a7.76,7.76,0,0,0,5.88-7.79v-46.66Z"/><path class="cls-32" d="M1182,719.92s-42,373.21-18.66,606.46c0,0,28,0,42-4.66,0,0,43.63-364.9,57.75-469.32a3.51,3.51,0,0,1,6.92-.22c17.41,87.85,85.81,432.34,94,464.87,0,0,23.32,9.33,42,0,0,0-37.32-499.16-65.31-587.8Z"/><path class="cls-33" d="M1098,286.06s141.15-19.06,270,.38a58.94,58.94,0,0,1,49.76,66.1L1405.88,440s-37.32,200.6-65.31,289.24c0,0-107.3,18.66-158.61-9.33,0,0-42-251.92-65.31-289.24C1116.65,430.68,1093.32,332.71,1098,286.06Z"/><path class="cls-34" d="M1221.18,158.59,1203.47,278s49.34,22.66,83.89-1l-7.44-84.28Z"/><path class="cls-35" d="M1297.18,80.82c.56,1,11.2,61.23,17.75,98.51a26.16,26.16,0,0,1-21.21,30.32,27.92,27.92,0,0,1-3,.35l-14.3.84A50.94,50.94,0,0,1,1223,167.69l-10.34-67.53S1283.67,56.33,1297.18,80.82Z"/><path class="cls-36" d="M1197.28,100.3c-5.48-6.82-10.26-17.84,1.41-29.43s25.22-8.81,33.72-4.87a9.42,9.42,0,0,0,11.09-2.2,6,6,0,0,1,5.57-2.07,8.8,8.8,0,0,0,9.93-7.5s0-.1,0-.15c1-8.47,5.52-18.44,20.49-21.33,27.46-5.31,41.16,22.18,40.67,41.49s-30.59,23.38-47.67,20.18c-12.54-2.36-23.39,8.67-28.26,14.68a9.12,9.12,0,0,0-1.8,7.79l4.34,18.66c-3,5.8-6,11.73-10.18,16.68a18.42,18.42,0,0,1-9.91,6.36c-5.12-9.53-19.44-11.15-26.1-11.36a9.12,9.12,0,0,1-6.6-3.13c-5-5.75-12.88-18.6,2.17-31.22A9.07,9.07,0,0,0,1197.28,100.3Z"/><path class="cls-37" d="M1231.65,178.57s-.59-33.7-14.23-36.86-28.35,6.69-16.69,26.87C1215.24,193.67,1231.65,178.57,1231.65,178.57Z"/><path class="cls-38" d="M1177.78,447.15s-400.56-109-201.67-389.44l13.46,19s-59.93,189.92,138.58,208C1128.18,284.73,1179.57,417.33,1177.78,447.15Z"/><path class="cls-39" d="M974.76,59.15S970.25,5,997.32.5s36.09,22.56,40.6,36.09S997.32,77.2,988.29,77.2,974.76,59.15,974.76,59.15Z"/><path class="cls-40" d="M1393.64,477.09s51.78,204.91,311.48-20.83l-19.94-12.15s-228.65,162.21-268.94-114.49C1416.27,329.62,1393.64,452.21,1393.64,477.09Z"/><path class="cls-41" d="M1703.77,457.71s54.32.89,57-26.42-24.92-34.51-38.72-38.11-37.81,43.22-37.21,52.23S1703.77,457.71,1703.77,457.71Z"/><path class="cls-42" d="M2125,1892.08c23.2,2,63.47,5.26,95.22,6.66,19.08.84,30.07-1,36.4-3.56,0,.71,0,1.39-.06,2a6.56,6.56,0,0,1-6.24,6.2,1115.22,1115.22,0,0,1-124.68.13,4.68,4.68,0,0,1-4.42-4.92,4.77,4.77,0,0,1,.61-2.08A38.38,38.38,0,0,1,2125,1892.08Z"/><path class="cls-43" d="M2220.18,1898.74c-31.75-1.4-72-4.65-95.22-6.66,22.81-28,95.22-46.85,95.22-46.85h20.45c14.06,20.27,16.1,39.58,16,50C2250.27,1897.71,2239.28,1899.58,2220.18,1898.74Z"/><path class="cls-44" d="M2244.09,1811.84l-1.91,37.87a8.66,8.66,0,0,1-7.39,8.14,33.6,33.6,0,0,1-15.36-1.28,10.22,10.22,0,0,1-6.88-7.86l-6.61-36.87Z"/><path class="cls-45" d="M2481.44,1935.76c10.06-1.81,14.61-8.56,16.52-15.79v.2a18,18,0,0,1-8.82,19.27c-8.29,4.54-17.36,5.31-24.39,4.93a22.54,22.54,0,0,1-18.3-10.9l-.06-.1C2454,1938.22,2464.66,1938.79,2481.44,1935.76Z"/><path class="cls-46" d="M2434,1823.51h16.86c25.69-.68,41.82,69.35,47.1,96.46-1.91,7.23-6.46,14-16.52,15.79-16.78,3-27.43,2.46-35-2.39-13.87-23.6-20.75-58.17-24.06-78.34C2418.61,1832.08,2434,1823.51,2434,1823.51Z"/><path class="cls-47" d="M2448.69,1788.36l9.37,37.25a10.1,10.1,0,0,1-5.26,11.45c-5.24,2.69-12.62,5.52-19.4,4.7a8.45,8.45,0,0,1-6.89-5.63l-13.74-39.19Z"/><path class="cls-48" d="M2119.27,1297.81s83.68,523.11,82.31,526c0,0,23.11,10.5,48.31,1.34,0,0-7.57-279.64-25.3-386.86,0,0,142.82,249.94,188.18,374.48,0,0,23.65-2.82,43.23-15.71,0,0-153.78-449.88-194.81-509.81Z"/><path class="cls-49" d="M2221.25,1436.44a3.36,3.36,0,0,1-2.85-1.57l-30.52-48.73-21.59-4.35a3.36,3.36,0,0,1,1.33-6.59h0l23,4.63a3.36,3.36,0,0,1,2.19,1.51l31.28,50A3.37,3.37,0,0,1,2223,1436,3.33,3.33,0,0,1,2221.25,1436.44Z"/><path class="cls-50" d="M1735.24,785.57s56.47,12.46,90.81,28.31a31.38,31.38,0,0,1,15.36,15.45c10.28,22.5,41,78.93,100.61,105.85-8.58,11.4-22.4,35.09-28.42,74.93-35.8-26.65-66.7-71.14-81.54-144.12,0,0-11.3,6.14-25.4-.7-7.44-3.62-16-8.75-22.49-12.78a29.49,29.49,0,0,1-13.08-17.57c-2.46-9.64-1-18.11-1-27.2l-29-9S1732.32,795.45,1735.24,785.57Z"/><path class="cls-51" d="M1913.6,1010.11c6-39.84,19.84-63.53,28.42-74.93,37,16.73,85.19,22.08,146.52.83a65.14,65.14,0,0,1,17.53-3.46c32.65-1.91,140.25-5.41,229.28,24a69.2,69.2,0,0,1,41.73,38c24.08,55.27,63.07,181.13-45.17,244.68a267.6,267.6,0,0,0-26.12-49.44c17.43-29.4,22.59-69.56-8.34-121.86-22.56,60.91-33.14,149.78-35.35,189.1a84.6,84.6,0,0,0,6.63,37.83l.55,1.31a4.48,4.48,0,0,1-2.39,5.87,4.69,4.69,0,0,1-.75.24c-60.94,13.69-124.32,10-143.26,8.4a7.81,7.81,0,0,1-7-6c-29.63-124.86-29.7-210-22.44-263.87C2065.76,1047.05,1981,1060.27,1913.6,1010.11Z"/><path class="cls-52" d="M2093.36,1045.1h-.45a3.36,3.36,0,0,1-2.89-3.77c7.15-54,21.52-77.14,22.13-78.09a3.36,3.36,0,0,1,5.68,3.6h0c-.14.22-14.22,23.06-21.14,75.37A3.37,3.37,0,0,1,2093.36,1045.1Z"/><path class="cls-53" d="M2243.74,859.82s6.16,65.18,11.59,84.46a6.61,6.61,0,0,1-3.1,7.53c-9.22,5.26-31.31,13.85-61.53-1a13.69,13.69,0,0,1-7.61-12.9l2.66-63Z"/><path class="cls-54" d="M2184.42,776.43s-19.72,45.3-21,69.07-6.45,39.2,21,44,50.64-8.91,63.19-32.59c0,0,19.65-36.49,15.24-51.43S2184.42,776.43,2184.42,776.43Z"/><path class="cls-55" d="M2238.18,839.87l-1.56-.69a3.76,3.76,0,0,1-1.94-5,1.47,1.47,0,0,1,.1-.22c3.87-7.49,11.43-24.65,1.67-28.66-12.58-5.16-62.42-15.32-73.17-33-10.33-17-1.18-38.93,12.58-45.17a1.89,1.89,0,0,1,2.48.81l1.15,2.17a1.87,1.87,0,0,0,3.45-.36,1.85,1.85,0,0,1,2.27-1.29,1.82,1.82,0,0,1,1.09.81c3.3,5.29,12.23,13.87,36.09,18.27,33.91,6.26,56.33,20,56.89,43.42a1.87,1.87,0,0,0,2.89,1.54c2.5-1.53,6.51-2.24,11.86,2.26,9.32,7.83,5.51,28.14-14.91,44.85a1.86,1.86,0,0,0,.09,3c3.7,2.41,9.22,8.15-5.08,15.79-14.79,7.9-25.83,7.26-30.08,6.55a1.86,1.86,0,0,1-1.53-2.14s0-.07,0-.1l4.54-20.6a1.88,1.88,0,0,0-1.43-2.23,2.58,2.58,0,0,0-.4,0Z"/><path class="cls-56" d="M2237.36,844.22s7.52-28.93,20.49-20.82-6.73,32.42-17.16,33.5Z"/><path class="cls-57" d="M1817,860.15a3.32,3.32,0,0,1-2.61-1.24c-8.11-10-21.93-25.81-26.73-28.53-4.24-2.39-6.65-5.08-7.39-8.22-.63-2.66,0-5.46,2-8.31a3.35,3.35,0,0,1,3.45-1.42l24.65,4.94a3.42,3.42,0,0,1,1.53.74l13.1,11.25a3.37,3.37,0,0,1-4.1,5.35l-.28-.24-12.44-10.68-21.29-4.27a2.05,2.05,0,0,0,0,1.1c.27,1.17,1.74,2.55,4.14,3.91,7.45,4.2,26.5,27.5,28.65,30.14a3.36,3.36,0,0,1-2.61,5.48Z"/><path class="cls-58" d="M2237.92,1283.74l-89-1.94s77.59-21.93,82.4-16c0,0,48.09-31.6,74.45-76a267.6,267.6,0,0,1,26.12,49.44C2308.29,1253.1,2277.26,1277.19,2237.92,1283.74Z"/><path class="cls-59" d="M2240.42,1268.33s1.84,35.46-44.7,30.31c-25.29-2.8-66.12-26.38-66.12-26.38S2236,1272,2240.42,1268.33Z"/><path class="cls-60" d="M2222.18,1277.84h-.51l-221.23-.23a9.8,9.8,0,1,1,0-19.6h0l221.23.24a9.79,9.79,0,0,1,.48,19.58Z"/><path class="cls-61" d="M1801.59,1079.1h184.24a35.14,35.14,0,0,1,31.76,19.93l85.17,178.7h-229a21.34,21.34,0,0,1-19.85-13.36l-66-165.36a14.58,14.58,0,0,1,13.68-19.91Z"/><path class="cls-2" d="M1931.39,1170.73c4,12.27,1,24.19-6.59,26.62s-17-5.55-21-17.82-1-24.19,6.59-26.62S1927.4,1158.45,1931.39,1170.73Z"/><path class="cls-2" d="M2080.37,2078c7.28,80.36,36.59,573.6-327.82,677.06-11,3.13-24.32-4-24.52-13.24-1.25-58.46,9.39-242.14,171.12-437.4,116.69-140.88,160.48-205.67,174.43-228C2075.06,2074,2080.12,2075.21,2080.37,2078Z"/><path class="cls-3" d="M1728,2748.59a6.8,6.8,0,0,1-5-11.42c193.34-209.68,290.28-479,293.12-496.22a6.81,6.81,0,0,1,13.27-2.42c.56,1.7,2,6.21-17.51,55.55-10.52,26.56-28.67,69.32-55.39,122.27-44.6,88.37-119.58,217.36-223.49,330.05A6.79,6.79,0,0,1,1728,2748.59Z"/><path class="cls-3" d="M2232.74,2525.5c-31.09,50.55-230.93,354.08-491.19,254.62-7.88-3-12.55-13.08-8.62-18.58,25-35,112.12-138.54,293.37-182.4,130.76-31.65,185.08-50.54,203.12-57.54C2231.33,2520.86,2233.8,2523.77,2232.74,2525.5Z"/><path class="cls-62" d="M1732.93,2768.34a6.8,6.8,0,0,1-1.24-13.49c203.93-38,379.08-152.61,390.1-162.78a6.81,6.81,0,0,1,11.95,6.18c-2.56,7.69-64.2,44.9-122.13,73.73-65.28,32.48-166.4,75.55-277.43,96.25A6.53,6.53,0,0,1,1732.93,2768.34Z"/></g></g></g></svg>