<svg xmlns="http://www.w3.org/2000/svg" xmlns:xlink="http://www.w3.org/1999/xlink" width="2000" zoomAndPan="magnify" viewBox="0 0 1500 1499.999933" height="2000" preserveAspectRatio="xMidYMid meet" version="1.0"><path fill="#4482a6" d="M 158.472656 1227.949219 C 152.617188 1227.949219 145.035156 1228.359375 133.960938 1229.492188 C 139.191406 1230.355469 148.710938 1230.597656 164.761719 1230.597656 C 173.070312 1230.597656 183.148438 1230.535156 195.277344 1230.457031 C 176.660156 1230.253906 172.445312 1227.949219 158.472656 1227.949219 " fill-opacity="1" fill-rule="nonzero"/><path fill="#4482a6" d="M 431.929688 1232.074219 L 394.640625 1235.933594 L 447.851562 1234.683594 L 431.929688 1232.074219 " fill-opacity="1" fill-rule="nonzero"/><path fill="#4482a6" d="M 468.890625 1201.367188 C 463.773438 1201.675781 462.996094 1202.105469 465.300781 1202.550781 L 468.890625 1201.367188 M 465.300781 1202.550781 L 459.128906 1204.589844 L 507.464844 1204.652344 C 487.609375 1204.488281 470.023438 1203.480469 465.300781 1202.550781 M 507.464844 1204.652344 C 509.347656 1204.664062 511.269531 1204.679688 513.191406 1204.679688 C 514.503906 1204.679688 515.839844 1204.679688 517.164062 1204.664062 L 507.464844 1204.652344 " fill-opacity="1" fill-rule="nonzero"/><path fill="#4482a6" d="M 354.527344 1196.695312 L 253.273438 1199.179688 L 376.328125 1203.328125 L 410.84375 1200.386719 C 378.046875 1199.699219 336.097656 1199.535156 354.527344 1196.695312 " fill-opacity="1" fill-rule="nonzero"/><path fill="#4482a6" d="M 191.359375 1212.789062 L 149.144531 1215.335938 C 151.535156 1215.296875 154.605469 1215.285156 158.191406 1215.285156 C 163.167969 1215.285156 169.113281 1215.308594 175.566406 1215.335938 C 181.992188 1215.359375 188.929688 1215.386719 195.863281 1215.386719 C 215.515625 1215.386719 235.203125 1215.167969 243.921875 1214.125 L 191.359375 1212.789062 M 149.144531 1215.335938 C 145.773438 1215.386719 143.761719 1215.488281 143.632812 1215.664062 L 149.144531 1215.335938 " fill-opacity="1" fill-rule="nonzero"/><path fill="#f2f2f2" d="M 914.019531 1173.921875 L 156.460938 1173.921875 C 154.605469 1173.921875 153.089844 1172.40625 153.089844 1170.546875 L 153.089844 671.667969 C 153.089844 669.8125 154.605469 668.296875 156.460938 668.296875 L 914.019531 668.296875 C 915.878906 668.296875 917.378906 669.8125 917.378906 671.667969 L 917.378906 1170.546875 C 917.378906 1172.40625 915.878906 1173.921875 914.019531 1173.921875 " fill-opacity="1" fill-rule="nonzero"/><path fill="#4d4d4d" d="M 155.214844 1168.308594 L 155.214844 673.910156 C 155.214844 672.203125 156.601562 670.816406 158.308594 670.816406 L 912.171875 670.816406 C 913.878906 670.816406 915.253906 672.203125 915.253906 673.910156 L 915.253906 1168.308594 C 915.253906 1170.011719 913.878906 1171.402344 912.171875 1171.402344 L 158.308594 1171.402344 C 156.601562 1171.402344 155.214844 1170.011719 155.214844 1168.308594 " fill-opacity="1" fill-rule="nonzero"/><path fill="#e5e5e5" d="M 186.867188 1131.539062 L 883.601562 1131.539062 L 883.601562 710.675781 L 186.867188 710.675781 Z M 186.867188 1131.539062 " fill-opacity="1" fill-rule="nonzero"/><path fill="#f2f2f2" d="M 1038.996094 1310.011719 L 31.484375 1310.011719 C 11.582031 1310.011719 0.101562 1305.796875 5.753906 1300.707031 L 147.746094 1172.585938 C 150.722656 1169.898438 164.519531 1167.757812 178.621094 1167.757812 L 891.863281 1167.757812 C 905.964844 1167.757812 919.757812 1169.898438 922.738281 1172.585938 L 1064.730469 1300.707031 C 1070.367188 1305.796875 1058.898438 1310.011719 1038.996094 1310.011719 " fill-opacity="1" fill-rule="nonzero"/><path fill="#dedede" d="M 1066.152344 1303.277344 C 1066.089844 1307.148438 1055.414062 1310.011719 1038.996094 1310.011719 L 31.484375 1310.011719 C 15.359375 1310.011719 4.761719 1307.25 4.328125 1303.480469 L 4.328125 1314.902344 L 4.339844 1319.253906 C 4.53125 1323.085938 15.15625 1325.925781 31.484375 1325.925781 L 1038.996094 1325.925781 C 1055.363281 1325.925781 1066 1323.074219 1066.140625 1319.230469 L 1066.152344 1314.863281 L 1066.152344 1303.277344 " fill-opacity="1" fill-rule="nonzero"/><path fill="#dedede" d="M 956.578125 1250.433594 L 113.890625 1250.433594 C 108.074219 1250.433594 104.449219 1249.351562 105.796875 1248.015625 L 177.027344 1177.511719 C 177.957031 1176.582031 182.601562 1175.84375 187.414062 1175.84375 L 883.054688 1175.84375 C 887.867188 1175.84375 892.523438 1176.582031 893.453125 1177.511719 L 964.683594 1248.015625 C 966.03125 1249.351562 962.40625 1250.433594 956.578125 1250.433594 " fill-opacity="1" fill-rule="nonzero"/><path fill="#dedede" d="M 661.417969 1302.246094 L 409.0625 1302.246094 C 402.53125 1302.246094 397.632812 1300.871094 398.117188 1299.191406 L 409.304688 1260.324219 C 409.710938 1258.925781 414.839844 1257.792969 420.757812 1257.792969 L 649.710938 1257.792969 C 655.640625 1257.792969 660.769531 1258.925781 661.175781 1260.324219 L 672.363281 1299.191406 C 672.847656 1300.871094 667.949219 1302.246094 661.417969 1302.246094 " fill-opacity="1" fill-rule="nonzero"/><path fill="#4d4d4d" d="M 201.3125 1215.601562 L 158.191406 1215.601562 C 155.519531 1215.601562 152.824219 1216.148438 152.171875 1216.824219 L 142.511719 1226.753906 C 141.828125 1227.464844 143.492188 1228.039062 146.253906 1228.039062 L 235.226562 1228.039062 C 237.988281 1228.039062 240.648438 1227.464844 241.160156 1226.753906 L 248.386719 1216.824219 C 248.882812 1216.148438 247.113281 1215.601562 244.441406 1215.601562 L 201.3125 1215.601562 " fill-opacity="1" fill-rule="nonzero"/><path fill="#4d4d4d" d="M 299.179688 1228.039062 L 259.6875 1228.039062 C 256.925781 1228.039062 255.03125 1227.554688 255.449219 1226.945312 L 262.589844 1216.632812 C 262.984375 1216.058594 265.480469 1215.601562 268.152344 1215.601562 L 306.421875 1215.601562 C 309.09375 1215.601562 311.003906 1216.058594 310.683594 1216.632812 L 304.792969 1226.945312 C 304.449219 1227.554688 301.941406 1228.039062 299.179688 1228.039062 " fill-opacity="1" fill-rule="nonzero"/><path fill="#4d4d4d" d="M 363.132812 1228.039062 L 323.640625 1228.039062 C 320.878906 1228.039062 318.90625 1227.554688 319.222656 1226.945312 L 324.746094 1216.632812 C 325.054688 1216.058594 327.457031 1215.601562 330.128906 1215.601562 L 368.414062 1215.601562 C 371.085938 1215.601562 373.070312 1216.058594 372.828125 1216.632812 L 368.578125 1226.945312 C 368.324219 1227.554688 365.894531 1228.039062 363.132812 1228.039062 " fill-opacity="1" fill-rule="nonzero"/><path fill="#4d4d4d" d="M 427.082031 1228.039062 L 387.589844 1228.039062 C 384.832031 1228.039062 382.78125 1227.554688 383.011719 1226.945312 L 386.890625 1216.632812 C 387.109375 1216.058594 389.449219 1215.601562 392.121094 1215.601562 L 430.40625 1215.601562 C 433.078125 1215.601562 435.125 1216.058594 434.984375 1216.632812 L 432.351562 1226.945312 C 432.199219 1227.554688 429.84375 1228.039062 427.082031 1228.039062 " fill-opacity="1" fill-rule="nonzero"/><path fill="#4d4d4d" d="M 554.984375 1228.039062 L 515.496094 1228.039062 C 512.734375 1228.039062 510.53125 1227.554688 510.570312 1226.945312 L 511.195312 1216.632812 C 511.230469 1216.058594 513.421875 1215.601562 516.09375 1215.601562 L 554.375 1215.601562 C 557.046875 1215.601562 559.25 1216.058594 559.273438 1216.632812 L 559.910156 1226.945312 C 559.949219 1227.554688 557.746094 1228.039062 554.984375 1228.039062 " fill-opacity="1" fill-rule="nonzero"/><path fill="#4d4d4d" d="M 491.035156 1228.039062 L 451.542969 1228.039062 C 448.78125 1228.039062 446.65625 1227.554688 446.785156 1226.945312 L 449.035156 1216.632812 C 449.164062 1216.058594 451.441406 1215.601562 454.113281 1215.601562 L 492.382812 1215.601562 C 495.054688 1215.601562 497.179688 1216.058594 497.128906 1216.632812 L 496.136719 1226.945312 C 496.074219 1227.554688 493.796875 1228.039062 491.035156 1228.039062 " fill-opacity="1" fill-rule="nonzero"/><path fill="#4d4d4d" d="M 618.9375 1228.039062 L 579.445312 1228.039062 C 576.683594 1228.039062 574.40625 1227.554688 574.34375 1226.945312 L 573.351562 1216.632812 C 573.289062 1216.058594 575.414062 1215.601562 578.085938 1215.601562 L 616.367188 1215.601562 C 619.039062 1215.601562 621.304688 1216.058594 621.433594 1216.632812 L 623.699219 1226.945312 C 623.824219 1227.554688 621.699219 1228.039062 618.9375 1228.039062 " fill-opacity="1" fill-rule="nonzero"/><path fill="#4d4d4d" d="M 682.890625 1228.039062 L 643.398438 1228.039062 C 640.636719 1228.039062 638.269531 1227.554688 638.117188 1226.945312 L 635.496094 1216.632812 C 635.355469 1216.058594 637.402344 1215.601562 640.078125 1215.601562 L 678.359375 1215.601562 C 681.03125 1215.601562 683.375 1216.058594 683.589844 1216.632812 L 687.472656 1226.945312 C 687.699219 1227.554688 685.636719 1228.039062 682.890625 1228.039062 " fill-opacity="1" fill-rule="nonzero"/><path fill="#4d4d4d" d="M 746.839844 1228.039062 L 707.351562 1228.039062 C 704.589844 1228.039062 702.144531 1227.554688 701.902344 1226.945312 L 697.652344 1216.632812 C 697.410156 1216.058594 699.382812 1215.601562 702.070312 1215.601562 L 740.335938 1215.601562 C 743.011719 1215.601562 745.429688 1216.058594 745.734375 1216.632812 L 751.257812 1226.945312 C 751.574219 1227.554688 749.589844 1228.039062 746.839844 1228.039062 " fill-opacity="1" fill-rule="nonzero"/><path fill="#4d4d4d" d="M 810.792969 1228.039062 L 771.300781 1228.039062 C 768.539062 1228.039062 766.019531 1227.554688 765.675781 1226.945312 L 759.796875 1216.632812 C 759.464844 1216.058594 761.375 1215.601562 764.046875 1215.601562 L 802.328125 1215.601562 C 805.003906 1215.601562 807.496094 1216.058594 807.890625 1216.632812 L 815.03125 1226.945312 C 815.449219 1227.554688 813.542969 1228.039062 810.792969 1228.039062 " fill-opacity="1" fill-rule="nonzero"/><path fill="#4d4d4d" d="M 227.71875 1245.328125 L 191.714844 1245.328125 C 188.839844 1245.328125 186.941406 1244.804688 187.488281 1244.144531 L 196.730469 1232.941406 C 197.238281 1232.328125 199.910156 1231.832031 202.699219 1231.832031 L 237.558594 1231.832031 C 240.34375 1231.832031 242.238281 1232.328125 241.792969 1232.941406 L 233.777344 1244.144531 C 233.304688 1244.804688 230.59375 1245.328125 227.71875 1245.328125 " fill-opacity="1" fill-rule="nonzero"/><path fill="#4d4d4d" d="M 166.210938 1245.328125 L 129.648438 1245.328125 C 126.769531 1245.328125 124.949219 1244.804688 125.585938 1244.144531 L 136.492188 1232.941406 C 137.09375 1232.328125 139.828125 1231.832031 142.617188 1231.832031 L 178.007812 1231.832031 C 180.796875 1231.832031 182.617188 1232.328125 182.09375 1232.941406 L 172.445312 1244.144531 C 171.875 1244.804688 169.085938 1245.328125 166.210938 1245.328125 " fill-opacity="1" fill-rule="nonzero"/><path fill="#4d4d4d" d="M 289.101562 1245.328125 L 253.222656 1245.328125 C 250.347656 1245.328125 248.375 1244.804688 248.820312 1244.144531 L 256.441406 1232.941406 C 256.863281 1232.328125 259.460938 1231.832031 262.246094 1231.832031 L 296.964844 1231.832031 C 299.753906 1231.832031 301.726562 1232.328125 301.382812 1232.941406 L 294.980469 1244.144531 C 294.609375 1244.804688 291.976562 1245.328125 289.101562 1245.328125 " fill-opacity="1" fill-rule="nonzero"/><path fill="#4d4d4d" d="M 879.441406 1245.328125 L 843.449219 1245.328125 C 840.5625 1245.328125 837.851562 1244.804688 837.378906 1244.144531 L 829.347656 1232.941406 C 828.902344 1232.328125 830.8125 1231.832031 833.585938 1231.832031 L 868.445312 1231.832031 C 871.21875 1231.832031 873.90625 1232.328125 874.414062 1232.941406 L 883.679688 1244.144531 C 884.214844 1244.804688 882.328125 1245.328125 879.441406 1245.328125 " fill-opacity="1" fill-rule="nonzero"/><path fill="#4d4d4d" d="M 817.933594 1245.328125 L 781.382812 1245.328125 C 778.492188 1245.328125 775.859375 1244.804688 775.488281 1244.144531 L 772.90625 1239.625 C 772.550781 1238.988281 774.546875 1238.464844 777.371094 1238.464844 L 813.339844 1238.464844 C 816.175781 1238.464844 818.824219 1238.988281 819.257812 1239.625 L 822.335938 1244.144531 C 822.78125 1244.804688 820.808594 1245.328125 817.933594 1245.328125 " fill-opacity="1" fill-rule="nonzero"/><path fill="#4d4d4d" d="M 940.820312 1245.328125 L 904.957031 1245.328125 C 902.082031 1245.328125 899.28125 1244.804688 898.722656 1244.144531 L 894.816406 1239.625 C 894.265625 1238.988281 896.113281 1238.464844 898.949219 1238.464844 L 934.242188 1238.464844 C 937.066406 1238.464844 939.867188 1238.988281 940.476562 1239.625 L 944.882812 1244.144531 C 945.519531 1244.804688 943.699219 1245.328125 940.820312 1245.328125 " fill-opacity="1" fill-rule="nonzero"/><path fill="#4d4d4d" d="M 355.773438 1245.328125 L 314.605469 1245.328125 C 311.726562 1245.328125 309.679688 1244.804688 310.035156 1244.144531 L 316.015625 1232.941406 C 316.347656 1232.328125 318.878906 1231.832031 321.667969 1231.832031 L 361.515625 1231.832031 C 364.300781 1231.832031 366.351562 1232.328125 366.097656 1232.941406 L 361.476562 1244.144531 C 361.210938 1244.804688 358.664062 1245.328125 355.773438 1245.328125 " fill-opacity="1" fill-rule="nonzero"/><path fill="#4d4d4d" d="M 755.878906 1245.328125 L 714.695312 1245.328125 C 711.816406 1245.328125 709.257812 1244.804688 708.992188 1244.144531 L 704.371094 1232.941406 C 704.117188 1232.328125 706.167969 1231.832031 708.953125 1231.832031 L 748.8125 1231.832031 C 751.601562 1231.832031 754.132812 1232.328125 754.453125 1232.941406 L 760.445312 1244.144531 C 760.789062 1244.804688 758.753906 1245.328125 755.878906 1245.328125 " fill-opacity="1" fill-rule="nonzero"/><path fill="#4d4d4d" d="M 869.15625 1215.601562 L 826.039062 1215.601562 C 823.367188 1215.601562 821.597656 1216.148438 822.082031 1216.824219 L 829.308594 1226.753906 C 829.832031 1227.464844 832.492188 1228.039062 835.253906 1228.039062 L 924.226562 1228.039062 C 926.988281 1228.039062 928.65625 1227.464844 927.96875 1226.753906 L 918.308594 1216.824219 C 917.644531 1216.148438 914.949219 1215.601562 912.277344 1215.601562 L 869.15625 1215.601562 " fill-opacity="1" fill-rule="nonzero"/><path fill="#4d4d4d" d="M 200.558594 1200.617188 L 172.585938 1200.617188 C 170.015625 1200.617188 167.445312 1201.125 166.835938 1201.75 L 157.914062 1210.917969 C 157.277344 1211.578125 158.90625 1212.113281 161.554688 1212.113281 L 219.191406 1212.113281 C 221.839844 1212.113281 224.421875 1211.578125 224.945312 1210.917969 L 232.273438 1201.75 C 232.785156 1201.125 231.105469 1200.617188 228.519531 1200.617188 L 200.558594 1200.617188 " fill-opacity="1" fill-rule="nonzero"/><path fill="#4d4d4d" d="M 342.070312 1212.113281 L 304.128906 1212.113281 C 301.484375 1212.113281 299.597656 1211.65625 299.941406 1211.09375 L 305.722656 1201.574219 C 306.039062 1201.050781 308.378906 1200.617188 310.953125 1200.617188 L 347.769531 1200.617188 C 350.339844 1200.617188 352.222656 1201.050781 351.96875 1201.574219 L 347.351562 1211.09375 C 347.082031 1211.65625 344.714844 1212.113281 342.070312 1212.113281 " fill-opacity="1" fill-rule="nonzero"/><path fill="#4d4d4d" d="M 280.625 1212.113281 L 242.699219 1212.113281 C 240.039062 1212.113281 238.242188 1211.65625 238.664062 1211.09375 L 245.945312 1201.574219 C 246.351562 1201.050781 248.757812 1200.617188 251.339844 1200.617188 L 288.144531 1200.617188 C 290.714844 1200.617188 292.535156 1201.050781 292.191406 1201.574219 L 286.070312 1211.09375 C 285.714844 1211.65625 283.285156 1212.113281 280.625 1212.113281 " fill-opacity="1" fill-rule="nonzero"/><path fill="#4d4d4d" d="M 403.5 1212.113281 L 365.5625 1212.113281 C 362.914062 1212.113281 360.96875 1211.65625 361.222656 1211.09375 L 365.484375 1201.574219 C 365.726562 1201.050781 368.003906 1200.617188 370.578125 1200.617188 L 407.394531 1200.617188 C 409.964844 1200.617188 411.914062 1201.050781 411.746094 1201.574219 L 408.628906 1211.09375 C 408.449219 1211.65625 406.148438 1212.113281 403.5 1212.113281 " fill-opacity="1" fill-rule="nonzero"/><path fill="#4d4d4d" d="M 464.933594 1212.113281 L 427.007812 1212.113281 C 424.347656 1212.113281 422.335938 1211.65625 422.5 1211.09375 L 425.261719 1201.574219 C 425.414062 1201.050781 427.628906 1200.617188 430.199219 1200.617188 L 467.019531 1200.617188 C 469.589844 1200.617188 471.601562 1201.050781 471.511719 1201.574219 L 469.90625 1211.09375 C 469.820312 1211.65625 467.59375 1212.113281 464.933594 1212.113281 " fill-opacity="1" fill-rule="nonzero"/><path fill="#4d4d4d" d="M 587.808594 1212.113281 L 549.871094 1212.113281 C 547.222656 1212.113281 545.058594 1211.65625 545.046875 1211.09375 L 544.804688 1201.574219 C 544.792969 1201.050781 546.867188 1200.617188 549.449219 1200.617188 L 586.253906 1200.617188 C 588.828125 1200.617188 590.976562 1201.050781 591.054688 1201.574219 L 592.464844 1211.09375 C 592.542969 1211.65625 590.46875 1212.113281 587.808594 1212.113281 " fill-opacity="1" fill-rule="nonzero"/><path fill="#4d4d4d" d="M 526.375 1212.113281 L 488.4375 1212.113281 C 485.792969 1212.113281 483.703125 1211.65625 483.765625 1211.09375 L 485.039062 1201.574219 C 485.105469 1201.050781 487.253906 1200.617188 489.824219 1200.617188 L 526.632812 1200.617188 C 529.214844 1200.617188 531.289062 1201.050781 531.289062 1201.574219 L 531.1875 1211.09375 C 531.175781 1211.65625 529.023438 1212.113281 526.375 1212.113281 " fill-opacity="1" fill-rule="nonzero"/><path fill="#4d4d4d" d="M 649.253906 1212.113281 L 611.316406 1212.113281 C 608.65625 1212.113281 606.425781 1211.65625 606.324219 1211.09375 L 604.582031 1201.574219 C 604.480469 1201.050781 606.492188 1200.617188 609.0625 1200.617188 L 645.878906 1200.617188 C 648.449219 1200.617188 650.664062 1201.050781 650.832031 1201.574219 L 653.746094 1211.09375 C 653.910156 1211.65625 651.898438 1212.113281 649.253906 1212.113281 " fill-opacity="1" fill-rule="nonzero"/><path fill="#4d4d4d" d="M 710.683594 1212.113281 L 672.746094 1212.113281 C 670.097656 1212.113281 667.796875 1211.65625 667.605469 1211.09375 L 664.347656 1201.574219 C 664.167969 1201.050781 666.117188 1200.617188 668.6875 1200.617188 L 705.503906 1200.617188 C 708.074219 1200.617188 710.355469 1201.050781 710.609375 1201.574219 L 715.023438 1211.09375 C 715.277344 1211.65625 713.332031 1212.113281 710.683594 1212.113281 " fill-opacity="1" fill-rule="nonzero"/><path fill="#4d4d4d" d="M 772.117188 1212.113281 L 734.191406 1212.113281 C 731.53125 1212.113281 729.164062 1211.65625 728.882812 1211.09375 L 724.125 1201.574219 C 723.871094 1201.050781 725.742188 1200.617188 728.3125 1200.617188 L 765.128906 1200.617188 C 767.699219 1200.617188 770.042969 1201.050781 770.371094 1201.574219 L 776.289062 1211.09375 C 776.648438 1211.65625 774.777344 1212.113281 772.117188 1212.113281 " fill-opacity="1" fill-rule="nonzero"/><path fill="#4d4d4d" d="M 833.5625 1212.113281 L 795.621094 1212.113281 C 792.976562 1212.113281 790.519531 1211.65625 790.164062 1211.09375 L 783.902344 1201.574219 C 783.558594 1201.050781 785.363281 1200.617188 787.9375 1200.617188 L 824.742188 1200.617188 C 827.324219 1200.617188 829.742188 1201.050781 830.148438 1201.574219 L 837.570312 1211.09375 C 838.003906 1211.65625 836.207031 1212.113281 833.5625 1212.113281 " fill-opacity="1" fill-rule="nonzero"/><path fill="#4d4d4d" d="M 277.351562 1183.738281 L 243.742188 1183.738281 C 241.285156 1183.738281 239.605469 1183.34375 240 1182.871094 L 242.710938 1179.5625 C 243.09375 1179.089844 245.371094 1178.707031 247.789062 1178.707031 L 280.941406 1178.707031 C 283.359375 1178.707031 285.050781 1179.089844 284.734375 1179.5625 L 282.40625 1182.871094 C 282.074219 1183.34375 279.808594 1183.738281 277.351562 1183.738281 " fill-opacity="1" fill-rule="nonzero"/><path fill="#4d4d4d" d="M 222.410156 1183.738281 L 188.800781 1183.738281 C 186.34375 1183.738281 184.726562 1183.34375 185.199219 1182.871094 L 188.40625 1179.5625 C 188.863281 1179.089844 191.191406 1178.707031 193.625 1178.707031 L 226.765625 1178.707031 C 229.183594 1178.707031 230.824219 1179.089844 230.429688 1179.5625 L 227.605469 1182.871094 C 227.195312 1183.34375 224.867188 1183.738281 222.410156 1183.738281 " fill-opacity="1" fill-rule="nonzero"/><path fill="#4d4d4d" d="M 332.28125 1183.738281 L 298.683594 1183.738281 C 296.226562 1183.738281 294.484375 1183.34375 294.800781 1182.871094 L 297.015625 1179.5625 C 297.335938 1179.089844 299.546875 1178.707031 301.964844 1178.707031 L 335.105469 1178.707031 C 337.539062 1178.707031 339.292969 1179.089844 339.039062 1179.5625 L 337.21875 1182.871094 C 336.953125 1183.34375 334.75 1183.738281 332.28125 1183.738281 " fill-opacity="1" fill-rule="nonzero"/><path fill="#4d4d4d" d="M 387.222656 1183.738281 L 353.613281 1183.738281 C 351.15625 1183.738281 349.375 1183.34375 349.617188 1182.871094 L 351.320312 1179.5625 C 351.5625 1179.089844 353.726562 1178.707031 356.144531 1178.707031 L 389.285156 1178.707031 C 391.703125 1178.707031 393.523438 1179.089844 393.332031 1179.5625 L 392.019531 1182.871094 C 391.828125 1183.34375 389.679688 1183.738281 387.222656 1183.738281 " fill-opacity="1" fill-rule="nonzero"/><path fill="#4d4d4d" d="M 497.105469 1183.738281 L 463.492188 1183.738281 C 461.039062 1183.738281 459.128906 1183.34375 459.230469 1182.871094 L 459.929688 1179.5625 C 460.019531 1179.089844 462.070312 1178.707031 464.5 1178.707031 L 497.625 1178.707031 C 500.058594 1178.707031 501.992188 1179.089844 501.941406 1179.5625 L 501.636719 1182.871094 C 501.585938 1183.34375 499.5625 1183.738281 497.105469 1183.738281 " fill-opacity="1" fill-rule="nonzero"/><path fill="#4d4d4d" d="M 442.164062 1183.738281 L 408.550781 1183.738281 C 406.097656 1183.738281 404.25 1183.34375 404.417969 1182.871094 L 405.625 1179.5625 C 405.789062 1179.089844 407.890625 1178.707031 410.320312 1178.707031 L 443.460938 1178.707031 C 445.878906 1178.707031 447.75 1179.089844 447.636719 1179.5625 L 446.820312 1182.871094 C 446.707031 1183.34375 444.621094 1183.738281 442.164062 1183.738281 " fill-opacity="1" fill-rule="nonzero"/><path fill="#4d4d4d" d="M 552.046875 1183.738281 L 518.433594 1183.738281 C 515.980469 1183.738281 514.007812 1183.34375 514.03125 1182.871094 L 514.234375 1179.5625 C 514.261719 1179.089844 516.246094 1178.707031 518.664062 1178.707031 L 551.804688 1178.707031 C 554.234375 1178.707031 556.21875 1179.089844 556.246094 1179.5625 L 556.4375 1182.871094 C 556.476562 1183.34375 554.503906 1183.738281 552.046875 1183.738281 " fill-opacity="1" fill-rule="nonzero"/><path fill="#4d4d4d" d="M 606.988281 1183.738281 L 573.375 1183.738281 C 570.921875 1183.738281 568.882812 1183.34375 568.84375 1182.871094 L 568.539062 1179.5625 C 568.488281 1179.089844 570.421875 1178.707031 572.839844 1178.707031 L 605.980469 1178.707031 C 608.398438 1178.707031 610.449219 1179.089844 610.550781 1179.5625 L 611.25 1182.871094 C 611.351562 1183.34375 609.445312 1183.738281 606.988281 1183.738281 " fill-opacity="1" fill-rule="nonzero"/><path fill="#4d4d4d" d="M 661.914062 1183.738281 L 628.316406 1183.738281 C 625.859375 1183.738281 623.761719 1183.34375 623.648438 1182.871094 L 622.832031 1179.5625 C 622.71875 1179.089844 624.601562 1178.707031 627.019531 1178.707031 L 660.160156 1178.707031 C 662.578125 1178.707031 664.691406 1179.089844 664.855469 1179.5625 L 666.050781 1182.871094 C 666.230469 1183.34375 664.371094 1183.738281 661.914062 1183.738281 " fill-opacity="1" fill-rule="nonzero"/><path fill="#4d4d4d" d="M 716.855469 1183.738281 L 683.246094 1183.738281 C 680.789062 1183.738281 678.652344 1183.34375 678.460938 1182.871094 L 677.136719 1179.5625 C 676.957031 1179.089844 678.765625 1178.707031 681.195312 1178.707031 L 714.335938 1178.707031 C 716.753906 1178.707031 718.917969 1179.089844 719.160156 1179.5625 L 720.867188 1182.871094 C 721.109375 1183.34375 719.3125 1183.738281 716.855469 1183.738281 " fill-opacity="1" fill-rule="nonzero"/><path fill="#4d4d4d" d="M 771.796875 1183.738281 L 738.1875 1183.738281 C 735.730469 1183.738281 733.527344 1183.34375 733.261719 1182.871094 L 731.441406 1179.5625 C 731.1875 1179.089844 732.945312 1178.707031 735.363281 1178.707031 L 768.503906 1178.707031 C 770.933594 1178.707031 773.148438 1179.089844 773.464844 1179.5625 L 775.667969 1182.871094 C 775.984375 1183.34375 774.253906 1183.738281 771.796875 1183.738281 " fill-opacity="1" fill-rule="nonzero"/><path fill="#4d4d4d" d="M 826.738281 1183.738281 L 793.128906 1183.738281 C 790.671875 1183.738281 788.40625 1183.34375 788.074219 1182.871094 L 785.746094 1179.5625 C 785.414062 1179.089844 787.121094 1178.707031 789.539062 1178.707031 L 822.679688 1178.707031 C 825.109375 1178.707031 827.375 1179.089844 827.757812 1179.5625 L 830.480469 1182.871094 C 830.863281 1183.34375 829.195312 1183.738281 826.738281 1183.738281 " fill-opacity="1" fill-rule="nonzero"/><path fill="#4d4d4d" d="M 881.667969 1183.738281 L 848.070312 1183.738281 C 845.613281 1183.738281 843.285156 1183.34375 842.875 1182.871094 L 840.050781 1179.5625 C 839.65625 1179.089844 841.296875 1178.707031 843.71875 1178.707031 L 876.855469 1178.707031 C 879.273438 1178.707031 881.617188 1179.089844 882.0625 1179.5625 L 885.28125 1182.871094 C 885.742188 1183.34375 884.136719 1183.738281 881.667969 1183.738281 " fill-opacity="1" fill-rule="nonzero"/><path fill="#4d4d4d" d="M 872.722656 1200.617188 L 847.558594 1200.617188 C 844.976562 1200.617188 843.308594 1201.125 843.820312 1201.75 L 851.289062 1210.917969 C 851.824219 1211.578125 854.40625 1212.113281 857.054688 1212.113281 L 908.929688 1212.113281 C 911.574219 1212.113281 913.203125 1211.578125 912.566406 1210.917969 L 903.648438 1201.75 C 903.035156 1201.125 900.464844 1200.617188 897.894531 1200.617188 L 872.722656 1200.617188 " fill-opacity="1" fill-rule="nonzero"/><path fill="#4d4d4d" d="M 212.867188 1186.726562 L 185.925781 1186.726562 C 183.441406 1186.726562 180.972656 1187.199219 180.414062 1187.785156 L 172.152344 1196.277344 C 171.554688 1196.886719 173.148438 1197.382812 175.691406 1197.382812 L 217.296875 1197.382812 C 219.839844 1197.382812 222.324219 1196.886719 222.832031 1196.277344 L 229.945312 1187.785156 C 230.429688 1187.199219 228.8125 1186.726562 226.34375 1186.726562 L 212.867188 1186.726562 " fill-opacity="1" fill-rule="nonzero"/><path fill="#4d4d4d" d="M 335.515625 1197.382812 L 299.015625 1197.382812 C 296.46875 1197.382812 294.675781 1196.964844 295.003906 1196.453125 L 300.679688 1187.621094 C 301 1187.121094 303.265625 1186.726562 305.734375 1186.726562 L 341.203125 1186.726562 C 343.671875 1186.726562 345.480469 1187.121094 345.222656 1187.621094 L 340.617188 1196.453125 C 340.351562 1196.964844 338.070312 1197.382812 335.515625 1197.382812 " fill-opacity="1" fill-rule="nonzero"/><path fill="#4d4d4d" d="M 276.410156 1197.382812 L 239.910156 1197.382812 C 237.351562 1197.382812 235.621094 1196.964844 236.03125 1196.453125 L 243.105469 1187.621094 C 243.5 1187.121094 245.828125 1186.726562 248.3125 1186.726562 L 283.765625 1186.726562 C 286.25 1186.726562 287.992188 1187.121094 287.648438 1187.621094 L 281.65625 1196.453125 C 281.3125 1196.964844 278.957031 1197.382812 276.410156 1197.382812 " fill-opacity="1" fill-rule="nonzero"/><path fill="#4d4d4d" d="M 394.628906 1197.382812 L 358.128906 1197.382812 C 355.585938 1197.382812 353.714844 1196.964844 353.96875 1196.453125 L 358.257812 1187.621094 C 358.484375 1187.121094 360.6875 1186.726562 363.167969 1186.726562 L 398.625 1186.726562 C 401.109375 1186.726562 402.976562 1187.121094 402.800781 1187.621094 L 399.59375 1196.453125 C 399.402344 1196.964844 397.175781 1197.382812 394.628906 1197.382812 " fill-opacity="1" fill-rule="nonzero"/><path fill="#4d4d4d" d="M 453.746094 1197.382812 L 417.246094 1197.382812 C 414.6875 1197.382812 412.765625 1196.964844 412.929688 1196.453125 L 415.820312 1187.621094 C 415.984375 1187.121094 418.125 1186.726562 420.605469 1186.726562 L 456.0625 1186.726562 C 458.542969 1186.726562 460.464844 1187.121094 460.363281 1187.621094 L 458.554688 1196.453125 C 458.441406 1196.964844 456.289062 1197.382812 453.746094 1197.382812 " fill-opacity="1" fill-rule="nonzero"/><path fill="#4d4d4d" d="M 571.964844 1197.382812 L 535.464844 1197.382812 C 532.917969 1197.382812 530.855469 1196.964844 530.855469 1196.453125 L 530.957031 1187.621094 C 530.972656 1187.121094 532.980469 1186.726562 535.464844 1186.726562 L 570.921875 1186.726562 C 573.402344 1186.726562 575.449219 1187.121094 575.5 1187.621094 L 576.480469 1196.453125 C 576.546875 1196.964844 574.523438 1197.382812 571.964844 1197.382812 " fill-opacity="1" fill-rule="nonzero"/><path fill="#4d4d4d" d="M 512.847656 1197.382812 L 476.359375 1197.382812 C 473.800781 1197.382812 471.804688 1196.964844 471.894531 1196.453125 L 473.394531 1187.621094 C 473.472656 1187.121094 475.546875 1186.726562 478.027344 1186.726562 L 513.484375 1186.726562 C 515.964844 1186.726562 517.964844 1187.121094 517.9375 1187.621094 L 517.519531 1196.453125 C 517.492188 1196.964844 515.40625 1197.382812 512.847656 1197.382812 " fill-opacity="1" fill-rule="nonzero"/><path fill="#4d4d4d" d="M 631.078125 1197.382812 L 594.578125 1197.382812 C 592.019531 1197.382812 589.894531 1196.964844 589.820312 1196.453125 L 588.535156 1187.621094 C 588.457031 1187.121094 590.417969 1186.726562 592.886719 1186.726562 L 628.34375 1186.726562 C 630.824219 1186.726562 632.9375 1187.121094 633.078125 1187.621094 L 635.445312 1196.453125 C 635.585938 1196.964844 633.625 1197.382812 631.078125 1197.382812 " fill-opacity="1" fill-rule="nonzero"/><path fill="#4d4d4d" d="M 690.195312 1197.382812 L 653.695312 1197.382812 C 651.136719 1197.382812 648.949219 1196.964844 648.78125 1196.453125 L 646.097656 1187.621094 C 645.957031 1187.121094 647.839844 1186.726562 650.320312 1186.726562 L 685.777344 1186.726562 C 688.261719 1186.726562 690.4375 1187.121094 690.640625 1187.621094 L 694.40625 1196.453125 C 694.625 1196.964844 692.738281 1197.382812 690.195312 1197.382812 " fill-opacity="1" fill-rule="nonzero"/><path fill="#4d4d4d" d="M 749.296875 1197.382812 L 712.796875 1197.382812 C 710.25 1197.382812 707.988281 1196.964844 707.746094 1196.453125 L 703.671875 1187.621094 C 703.441406 1187.121094 705.277344 1186.726562 707.746094 1186.726562 L 743.214844 1186.726562 C 745.695312 1186.726562 747.921875 1187.121094 748.214844 1187.621094 L 753.371094 1196.453125 C 753.675781 1196.964844 751.855469 1197.382812 749.296875 1197.382812 " fill-opacity="1" fill-rule="nonzero"/><path fill="#4d4d4d" d="M 808.414062 1197.382812 L 771.914062 1197.382812 C 769.355469 1197.382812 767.039062 1196.964844 766.707031 1196.453125 L 761.234375 1187.621094 C 760.941406 1187.121094 762.699219 1186.726562 765.179688 1186.726562 L 800.636719 1186.726562 C 803.117188 1186.726562 805.421875 1187.121094 805.777344 1187.621094 L 812.332031 1196.453125 C 812.714844 1196.964844 810.957031 1197.382812 808.414062 1197.382812 " fill-opacity="1" fill-rule="nonzero"/><path fill="#4d4d4d" d="M 846.847656 1186.726562 L 822.601562 1186.726562 C 820.132812 1186.726562 818.492188 1187.199219 818.9375 1187.785156 L 825.542969 1196.277344 C 826.015625 1196.886719 828.46875 1197.382812 831.027344 1197.382812 L 894.789062 1197.382812 C 897.335938 1197.382812 898.925781 1196.886719 898.328125 1196.277344 L 890.066406 1187.785156 C 889.496094 1187.199219 887.039062 1186.726562 884.558594 1186.726562 L 846.847656 1186.726562 " fill-opacity="1" fill-rule="nonzero"/><path fill="#4d4d4d" d="M 689.1875 1245.328125 L 381.292969 1245.328125 C 378.414062 1245.328125 376.277344 1244.804688 376.519531 1244.144531 L 380.746094 1232.941406 C 380.972656 1232.328125 383.429688 1231.832031 386.203125 1231.832031 L 684.265625 1231.832031 C 687.050781 1231.832031 689.496094 1232.328125 689.722656 1232.941406 L 693.949219 1244.144531 C 694.203125 1244.804688 692.066406 1245.328125 689.1875 1245.328125 " fill-opacity="1" fill-rule="nonzero"/><path fill="#efc933" d="M 1421.304688 571.363281 L 1331.097656 636.609375 L 1413.949219 716.683594 L 1413.503906 725.242188 L 1320.613281 644.210938 L 1290.09375 666.273438 L 1262.003906 640.632812 L 1161.488281 709.886719 L 1161.921875 701.34375 L 1252.347656 631.824219 L 1169.292969 556.023438 L 1169.722656 547.480469 L 1291.402344 640.632812 L 1421.738281 562.820312 Z M 1161.144531 538.390625 L 1152.046875 717.894531 L 1422.082031 734.332031 L 1431.167969 554.828125 L 1161.144531 538.390625 " fill-opacity="1" fill-rule="nonzero"/><path fill="#ffffff" d="M 1421.304688 571.363281 L 1331.097656 636.609375 L 1413.949219 716.683594 L 1413.503906 725.242188 L 1320.613281 644.210938 L 1290.09375 666.273438 L 1262.003906 640.632812 L 1161.488281 709.886719 L 1161.921875 701.34375 L 1252.347656 631.824219 L 1169.292969 556.023438 L 1169.722656 547.480469 L 1291.402344 640.632812 L 1421.738281 562.820312 L 1421.304688 571.363281 " fill-opacity="1" fill-rule="nonzero"/><path fill="#ed5f2f" d="M 1440.433594 547.367188 L 1376.085938 544.109375 L 1381.828125 606.757812 L 1378.378906 610.242188 L 1368.605469 543.726562 L 1346.839844 542.617188 L 1344.308594 522.019531 L 1273.929688 516.914062 L 1277.367188 513.425781 L 1343.445312 514.941406 L 1335.984375 454.039062 L 1339.433594 450.539062 L 1357.175781 532.140625 L 1443.882812 543.867188 Z M 1339.140625 443.714844 L 1266.738281 517.082031 L 1378.660156 617.066406 L 1451.0625 543.714844 L 1339.140625 443.714844 " fill-opacity="1" fill-rule="nonzero"/><path fill="#ffffff" d="M 1440.433594 547.367188 L 1376.085938 544.109375 L 1381.828125 606.757812 L 1378.378906 610.242188 L 1368.605469 543.726562 L 1346.839844 542.617188 L 1344.308594 522.019531 L 1273.929688 516.914062 L 1277.367188 513.425781 L 1343.445312 514.941406 L 1335.984375 454.039062 L 1339.433594 450.539062 L 1357.175781 532.140625 L 1443.882812 543.867188 L 1440.433594 547.367188 " fill-opacity="1" fill-rule="nonzero"/><path fill="#ed5f2f" d="M 973.082031 274.355469 L 925.433594 349.40625 L 1012.664062 387.191406 L 1014.992188 393.820312 L 919.898438 358.125 L 903.773438 383.511719 L 874.667969 371.847656 L 820.503906 452.839844 L 818.175781 446.210938 L 864.652344 367.851562 L 778.59375 333.375 L 776.265625 326.742188 L 896.789062 363.597656 L 970.753906 267.710938 Z M 766.988281 322.210938 L 815.882812 461.585938 L 1024.269531 398.355469 L 975.375 258.980469 L 766.988281 322.210938 " fill-opacity="1" fill-rule="nonzero"/><path fill="#ffffff" d="M 973.082031 274.355469 L 925.433594 349.40625 L 1012.664062 387.191406 L 1014.992188 393.820312 L 919.898438 358.125 L 903.773438 383.511719 L 874.667969 371.847656 L 820.503906 452.839844 L 818.175781 446.210938 L 864.652344 367.851562 L 778.59375 333.375 L 776.265625 326.742188 L 896.789062 363.597656 L 970.753906 267.710938 L 973.082031 274.355469 " fill-opacity="1" fill-rule="nonzero"/><path fill="#148b89" d="M 905.59375 649.351562 L 864.894531 673.285156 L 896.367188 710.027344 L 895.820312 713.59375 L 860.160156 676.074219 L 846.390625 684.171875 L 835.648438 672.34375 L 790.429688 697.5625 L 790.976562 694 L 831.957031 668.269531 L 800.203125 633.324219 L 800.75 629.746094 L 848.019531 673.453125 L 906.128906 645.789062 Z M 797.519531 625.609375 L 786.128906 700.554688 L 899.039062 717.742188 L 910.441406 642.785156 L 797.519531 625.609375 " fill-opacity="1" fill-rule="nonzero"/><path fill="#ffffff" d="M 905.59375 649.351562 L 864.894531 673.285156 L 896.367188 710.027344 L 895.820312 713.59375 L 860.160156 676.074219 L 846.390625 684.171875 L 835.648438 672.34375 L 790.429688 697.5625 L 790.976562 694 L 831.957031 668.269531 L 800.203125 633.324219 L 800.75 629.746094 L 848.019531 673.453125 L 906.128906 645.789062 L 905.59375 649.351562 " fill-opacity="1" fill-rule="nonzero"/><path fill="#148b89" d="M 1250.375 764.171875 L 1134.523438 733.300781 L 1118.078125 848.855469 L 1110.289062 853.847656 L 1121.058594 729.707031 L 1081.871094 719.269531 L 1086.121094 681.027344 L 960.0625 644.476562 L 967.839844 639.5 L 1087.585938 667.875 L 1100.148438 554.800781 L 1107.921875 549.824219 L 1105.226562 704.324219 L 1258.160156 759.179688 Z M 1110.339844 537.359375 L 946.917969 641.980469 L 1107.886719 866.296875 L 1271.308594 761.6875 L 1110.339844 537.359375 " fill-opacity="1" fill-rule="nonzero"/><path fill="#ffffff" d="M 1250.375 764.171875 L 1134.523438 733.300781 L 1118.078125 848.855469 L 1110.289062 853.847656 L 1121.058594 729.707031 L 1081.871094 719.269531 L 1086.121094 681.027344 L 960.0625 644.476562 L 967.839844 639.5 L 1087.585938 667.875 L 1100.148438 554.800781 L 1107.921875 549.824219 L 1105.226562 704.324219 L 1258.160156 759.179688 L 1250.375 764.171875 " fill-opacity="1" fill-rule="nonzero"/><path fill="#148b89" d="M 1300.261719 284.476562 L 1236.691406 364.25 L 1331.277344 416.914062 L 1333.097656 424.707031 L 1229.296875 373.53125 L 1207.800781 400.503906 L 1176.113281 384.007812 L 1104.386719 469.800781 L 1102.566406 462.007812 L 1165.21875 378.339844 L 1071.550781 329.558594 L 1069.71875 321.765625 L 1202.316406 377.132812 L 1298.429688 276.675781 Z M 1059.726562 315.59375 L 1098.035156 479.195312 L 1343.085938 430.882812 L 1304.78125 267.277344 L 1059.726562 315.59375 " fill-opacity="1" fill-rule="nonzero"/><path fill="#ffffff" d="M 1300.261719 284.476562 L 1236.691406 364.25 L 1331.277344 416.914062 L 1333.097656 424.707031 L 1229.296875 373.53125 L 1207.800781 400.503906 L 1176.113281 384.007812 L 1104.386719 469.800781 L 1102.566406 462.007812 L 1165.21875 378.339844 L 1071.550781 329.558594 L 1069.71875 321.765625 L 1202.316406 377.132812 L 1298.429688 276.675781 L 1300.261719 284.476562 " fill-opacity="1" fill-rule="nonzero"/><path fill="#efc933" d="M 965.308594 544.769531 L 927.433594 532.078125 L 919.273438 570.15625 L 916.566406 571.644531 L 923.03125 530.601562 L 910.214844 526.324219 L 912.515625 513.695312 L 871.359375 498.914062 L 874.070312 497.410156 L 913.304688 509.351562 L 920.101562 472.027344 L 922.8125 470.539062 L 918.332031 521.84375 L 968.019531 543.269531 Z M 923.90625 466.4375 L 867.042969 497.804688 L 915.46875 575.742188 L 972.332031 544.375 L 923.90625 466.4375 " fill-opacity="1" fill-rule="nonzero"/><path fill="#ffffff" d="M 965.308594 544.769531 L 927.433594 532.078125 L 919.273438 570.15625 L 916.566406 571.644531 L 923.03125 530.601562 L 910.214844 526.324219 L 912.515625 513.695312 L 871.359375 498.914062 L 874.070312 497.410156 L 913.304688 509.351562 L 920.101562 472.027344 L 922.8125 470.539062 L 918.332031 521.84375 L 968.019531 543.269531 L 965.308594 544.769531 " fill-opacity="1" fill-rule="nonzero"/><path fill="#efc933" d="M 1160.421875 228.015625 L 1111.640625 216.089844 L 1105.863281 264.617188 L 1102.65625 266.769531 L 1105.976562 214.703125 L 1089.46875 210.664062 L 1090.882812 194.613281 L 1037.785156 180.390625 L 1040.992188 178.242188 L 1091.378906 189.085938 L 1095.554688 141.640625 L 1098.761719 139.488281 L 1099.105469 204.210938 L 1163.628906 225.867188 Z M 1099.652344 134.242188 L 1032.261719 179.460938 L 1101.761719 272.015625 L 1169.152344 226.796875 L 1099.652344 134.242188 " fill-opacity="1" fill-rule="nonzero"/><path fill="#ffffff" d="M 1160.421875 228.015625 L 1111.640625 216.089844 L 1105.863281 264.617188 L 1102.65625 266.769531 L 1105.976562 214.703125 L 1089.46875 210.664062 L 1090.882812 194.613281 L 1037.785156 180.390625 L 1040.992188 178.242188 L 1091.378906 189.085938 L 1095.554688 141.640625 L 1098.761719 139.488281 L 1099.105469 204.210938 L 1163.628906 225.867188 L 1160.421875 228.015625 " fill-opacity="1" fill-rule="nonzero"/><path fill="#efc933" d="M 1354.65625 889.058594 L 1283.871094 871.746094 L 1275.46875 942.183594 L 1270.8125 945.316406 L 1275.636719 869.734375 L 1251.683594 863.878906 L 1253.734375 840.582031 L 1176.671875 819.945312 L 1181.332031 816.824219 L 1254.445312 832.574219 L 1260.503906 763.6875 L 1265.160156 760.566406 L 1265.65625 854.507812 L 1359.3125 885.941406 Z M 1266.460938 752.96875 L 1168.640625 818.59375 L 1269.527344 952.917969 L 1367.332031 887.289062 L 1266.460938 752.96875 " fill-opacity="1" fill-rule="nonzero"/><path fill="#ffffff" d="M 1354.65625 889.058594 L 1283.871094 871.746094 L 1275.46875 942.183594 L 1270.8125 945.316406 L 1275.636719 869.734375 L 1251.683594 863.878906 L 1253.734375 840.582031 L 1176.671875 819.945312 L 1181.332031 816.824219 L 1254.445312 832.574219 L 1260.503906 763.6875 L 1265.160156 760.566406 L 1265.65625 854.507812 L 1359.3125 885.941406 L 1354.65625 889.058594 " fill-opacity="1" fill-rule="nonzero"/><path fill="#d52839" d="M 1200.980469 510.066406 L 1131.316406 551.035156 L 1185.199219 613.910156 L 1184.269531 620.019531 L 1123.207031 555.792969 L 1099.652344 569.644531 L 1081.261719 549.417969 L 1003.871094 592.585938 L 1004.796875 586.476562 L 1074.9375 542.453125 L 1020.59375 482.617188 L 1021.523438 476.507812 L 1102.425781 551.328125 L 1201.910156 503.957031 Z M 1016.011719 469.417969 L 996.5 597.703125 L 1189.78125 627.113281 L 1209.292969 498.824219 L 1016.011719 469.417969 " fill-opacity="1" fill-rule="nonzero"/><path fill="#ffffff" d="M 1200.980469 510.066406 L 1131.316406 551.035156 L 1185.199219 613.910156 L 1184.269531 620.019531 L 1123.207031 555.792969 L 1099.652344 569.644531 L 1081.261719 549.417969 L 1003.871094 592.585938 L 1004.796875 586.476562 L 1074.9375 542.453125 L 1020.59375 482.617188 L 1021.523438 476.507812 L 1102.425781 551.328125 L 1201.910156 503.957031 L 1200.980469 510.066406 " fill-opacity="1" fill-rule="nonzero"/><path fill="#d52839" d="M 1162.992188 956.722656 L 1098.8125 975.742188 L 1128.402344 1035.742188 L 1126.363281 1040.390625 L 1091.351562 977.957031 L 1069.652344 984.386719 L 1059.292969 964.871094 L 988.507812 984.15625 L 990.542969 979.511719 L 1055.730469 958.175781 L 1025.136719 900.492188 L 1027.171875 895.84375 L 1075.75 970.445312 L 1165.027344 952.074219 Z M 1024.285156 889.1875 L 981.558594 986.804688 L 1129.253906 1047.046875 L 1171.988281 949.441406 L 1024.285156 889.1875 " fill-opacity="1" fill-rule="nonzero"/><path fill="#ffffff" d="M 1162.992188 956.722656 L 1098.8125 975.742188 L 1128.402344 1035.742188 L 1126.363281 1040.390625 L 1091.351562 977.957031 L 1069.652344 984.386719 L 1059.292969 964.871094 L 988.507812 984.15625 L 990.542969 979.511719 L 1055.730469 958.175781 L 1025.136719 900.492188 L 1027.171875 895.84375 L 1075.75 970.445312 L 1165.027344 952.074219 L 1162.992188 956.722656 " fill-opacity="1" fill-rule="nonzero"/><path fill="#d52839" d="M 1492.117188 415.503906 L 1450.5625 398.863281 L 1438.691406 440.925781 L 1435.546875 442.429688 L 1445.726562 396.929688 L 1431.679688 391.300781 L 1435.152344 377.324219 L 1390.085938 358.113281 L 1393.242188 356.625 L 1436.359375 372.511719 L 1446.65625 331.199219 L 1449.800781 329.699219 L 1441.109375 386.808594 L 1495.261719 414.011719 Z M 1451.316406 325.191406 L 1385.328125 356.597656 L 1434.03125 446.933594 L 1500.019531 415.527344 L 1451.316406 325.191406 " fill-opacity="1" fill-rule="nonzero"/><path fill="#ffffff" d="M 1492.117188 415.503906 L 1450.5625 398.863281 L 1438.691406 440.925781 L 1435.546875 442.429688 L 1445.726562 396.929688 L 1431.679688 391.300781 L 1435.152344 377.324219 L 1390.085938 358.113281 L 1393.242188 356.625 L 1436.359375 372.511719 L 1446.65625 331.199219 L 1449.800781 329.699219 L 1441.109375 386.808594 L 1495.261719 414.011719 L 1492.117188 415.503906 " fill-opacity="1" fill-rule="nonzero"/><path fill="#d52839" d="M 1388.839844 823.992188 L 1372.96875 799.726562 L 1349.257812 817.792969 L 1346.929688 817.4375 L 1371.125 796.914062 L 1365.753906 788.703125 L 1373.375 782.542969 L 1356.628906 755.617188 L 1358.957031 755.972656 L 1376 780.414062 L 1398.539062 762.171875 L 1400.867188 762.527344 L 1372.742188 789.796875 L 1391.167969 824.347656 Z M 1403.550781 760.695312 L 1354.644531 753.03125 L 1344.257812 819.28125 L 1393.152344 826.921875 L 1403.550781 760.695312 " fill-opacity="1" fill-rule="nonzero"/><path fill="#ffffff" d="M 1388.839844 823.992188 L 1372.96875 799.726562 L 1349.257812 817.792969 L 1346.929688 817.4375 L 1371.125 796.914062 L 1365.753906 788.703125 L 1373.375 782.542969 L 1356.628906 755.617188 L 1358.957031 755.972656 L 1376 780.414062 L 1398.539062 762.171875 L 1400.867188 762.527344 L 1372.742188 789.796875 L 1391.167969 824.347656 L 1388.839844 823.992188 " fill-opacity="1" fill-rule="nonzero"/><path fill="#148b89" d="M 986.410156 451.847656 C 985.46875 458.074219 979.371094 462.300781 972.816406 461.308594 C 966.25 460.316406 961.695312 454.457031 962.648438 448.234375 C 963.589844 442.007812 969.6875 437.78125 976.238281 438.773438 C 982.792969 439.765625 987.351562 445.625 986.410156 451.847656 " fill-opacity="1" fill-rule="nonzero"/><path fill="#ed5f2f" d="M 958.246094 611.644531 C 957.875 614.113281 955.457031 615.792969 952.859375 615.398438 C 950.253906 615.003906 948.445312 612.6875 948.828125 610.21875 C 949.195312 607.75 951.613281 606.070312 954.210938 606.464844 C 956.820312 606.859375 958.625 609.1875 958.246094 611.644531 " fill-opacity="1" fill-rule="nonzero"/><path fill="#ed5f2f" d="M 1462.972656 497.082031 C 1462.605469 499.550781 1460.1875 501.230469 1457.578125 500.835938 C 1454.980469 500.441406 1453.171875 498.113281 1453.542969 495.65625 C 1453.925781 493.183594 1456.328125 491.503906 1458.9375 491.898438 C 1461.546875 492.292969 1463.355469 494.609375 1462.972656 497.082031 " fill-opacity="1" fill-rule="nonzero"/><path fill="#ed5f2f" d="M 1391.488281 316.089844 C 1391.105469 318.558594 1388.699219 320.238281 1386.089844 319.84375 C 1383.496094 319.449219 1381.6875 317.121094 1382.054688 314.664062 C 1382.4375 312.191406 1384.84375 310.511719 1387.453125 310.90625 C 1390.046875 311.300781 1391.867188 313.617188 1391.488281 316.089844 " fill-opacity="1" fill-rule="nonzero"/><path fill="#ed5f2f" d="M 1002.839844 473.667969 C 1002.46875 476.140625 1000.050781 477.820312 997.457031 477.425781 C 994.847656 477.015625 993.039062 474.699219 993.410156 472.230469 C 993.789062 469.761719 996.207031 468.082031 998.804688 468.476562 C 1001.414062 468.882812 1003.21875 471.199219 1002.839844 473.667969 " fill-opacity="1" fill-rule="nonzero"/><path fill="#d52839" d="M 943.902344 222.746094 C 943.53125 225.203125 941.113281 226.882812 938.519531 226.488281 C 935.910156 226.09375 934.101562 223.777344 934.484375 221.308594 C 934.851562 218.839844 937.269531 217.160156 939.867188 217.554688 C 942.476562 217.949219 944.285156 220.277344 943.902344 222.746094 " fill-opacity="1" fill-rule="nonzero"/><path fill="#efc933" d="M 974.164062 194.496094 C 973.796875 196.953125 971.378906 198.648438 968.78125 198.242188 C 966.171875 197.847656 964.367188 195.527344 964.746094 193.058594 C 965.117188 190.589844 967.535156 188.910156 970.132812 189.304688 C 972.738281 189.699219 974.546875 192.027344 974.164062 194.496094 " fill-opacity="1" fill-rule="nonzero"/><path fill="#148b89" d="M 717.136719 941.636719 L 676.425781 965.570312 L 707.910156 1002.3125 L 707.363281 1005.875 L 671.691406 968.359375 L 657.933594 976.457031 L 647.191406 964.628906 L 601.972656 989.847656 L 602.519531 986.269531 L 643.488281 960.554688 L 611.746094 925.609375 L 612.292969 922.03125 L 659.546875 965.734375 L 717.671875 938.074219 Z M 609.0625 917.894531 L 597.671875 992.839844 L 710.582031 1010.027344 L 721.984375 935.066406 L 609.0625 917.894531 " fill-opacity="1" fill-rule="nonzero"/><path fill="#ffffff" d="M 717.136719 941.636719 L 676.425781 965.570312 L 707.910156 1002.3125 L 707.363281 1005.875 L 671.691406 968.359375 L 657.933594 976.457031 L 647.191406 964.628906 L 601.972656 989.847656 L 602.519531 986.269531 L 643.488281 960.554688 L 611.746094 925.609375 L 612.292969 922.03125 L 659.546875 965.734375 L 717.671875 938.074219 L 717.136719 941.636719 " fill-opacity="1" fill-rule="nonzero"/><path fill="#efc933" d="M 627.324219 960.390625 L 574.292969 977.332031 L 600.050781 1026.78125 L 598.449219 1030.675781 L 568.132812 979.308594 L 550.199219 985.035156 L 541.214844 968.96875 L 482.699219 986.246094 L 484.300781 982.351562 L 538.125 963.457031 L 511.574219 915.960938 L 513.179688 912.0625 L 555.011719 973.324219 L 628.914062 956.492188 Z M 510.644531 906.578125 L 476.957031 988.5625 L 600.980469 1036.175781 L 634.65625 954.175781 L 510.644531 906.578125 " fill-opacity="1" fill-rule="nonzero"/><path fill="#ffffff" d="M 627.324219 960.390625 L 574.292969 977.332031 L 600.050781 1026.78125 L 598.449219 1030.675781 L 568.132812 979.308594 L 550.199219 985.035156 L 541.214844 968.96875 L 482.699219 986.246094 L 484.300781 982.351562 L 538.125 963.457031 L 511.574219 915.960938 L 513.179688 912.0625 L 555.011719 973.324219 L 628.914062 956.492188 L 627.324219 960.390625 " fill-opacity="1" fill-rule="nonzero"/><path fill="#d52839" d="M 768.070312 829.898438 L 743.035156 881.484375 L 801.898438 899.996094 L 803.882812 904.121094 L 740.132812 887.480469 L 731.65625 904.933594 L 712.085938 899.371094 L 683.308594 955.21875 L 681.3125 951.097656 L 705.351562 897.460938 L 647.496094 881.011719 L 645.511719 876.886719 L 725.6875 892.558594 L 766.082031 825.789062 Z M 639.210938 874.597656 L 680.992188 961.164062 L 810.167969 906.410156 L 768.398438 819.828125 L 639.210938 874.597656 " fill-opacity="1" fill-rule="nonzero"/><path fill="#ffffff" d="M 768.070312 829.898438 L 743.035156 881.484375 L 801.898438 899.996094 L 803.882812 904.121094 L 740.132812 887.480469 L 731.65625 904.933594 L 712.085938 899.371094 L 683.308594 955.21875 L 681.3125 951.097656 L 705.351562 897.460938 L 647.496094 881.011719 L 645.511719 876.886719 L 725.6875 892.558594 L 766.082031 825.789062 L 768.070312 829.898438 " fill-opacity="1" fill-rule="nonzero"/><path fill="#efc933" d="M 933.503906 917.269531 L 878.003906 924.933594 L 894.179688 977.804688 L 891.863281 981.371094 L 871.550781 925.839844 L 852.777344 928.421875 L 846.910156 911.148438 L 785.9375 918.210938 L 788.253906 914.660156 L 844.902344 905.203125 L 827.566406 854.125 L 829.882812 850.5625 L 859.726562 917.742188 L 935.808594 913.71875 Z M 828.40625 844.757812 L 779.839844 919.523438 L 893.339844 987.175781 L 941.902344 912.40625 L 828.40625 844.757812 " fill-opacity="1" fill-rule="nonzero"/><path fill="#ffffff" d="M 933.503906 917.269531 L 878.003906 924.933594 L 894.179688 977.804688 L 891.863281 981.371094 L 871.550781 925.839844 L 852.777344 928.421875 L 846.910156 911.148438 L 785.9375 918.210938 L 788.253906 914.660156 L 844.902344 905.203125 L 827.566406 854.125 L 829.882812 850.5625 L 859.726562 917.742188 L 935.808594 913.71875 L 933.503906 917.269531 " fill-opacity="1" fill-rule="nonzero"/><path fill="#ed5f2f" d="M 988.851562 755.757812 L 969.789062 806.84375 L 1027.261719 819.625 L 1029.515625 823.382812 L 967.574219 812.789062 L 961.132812 830.066406 L 942.070312 826.386719 L 919.835938 881.839844 L 917.582031 878.085938 L 935.515625 825.113281 L 879.171875 814.214844 L 876.90625 810.460938 L 954.351562 818.796875 L 986.585938 752 Z M 870.734375 808.792969 L 918.179688 887.683594 L 1035.699219 825.050781 L 988.253906 746.144531 L 870.734375 808.792969 " fill-opacity="1" fill-rule="nonzero"/><path fill="#ffffff" d="M 988.851562 755.757812 L 969.789062 806.84375 L 1027.261719 819.625 L 1029.515625 823.382812 L 967.574219 812.789062 L 961.132812 830.066406 L 942.070312 826.386719 L 919.835938 881.839844 L 917.582031 878.085938 L 935.515625 825.113281 L 879.171875 814.214844 L 876.90625 810.460938 L 954.351562 818.796875 L 986.585938 752 L 988.851562 755.757812 " fill-opacity="1" fill-rule="nonzero"/></svg>