<?xml version="1.0" encoding="utf-8"?>
<!-- Generator: Adobe Illustrator 26.0.1, SVG Export Plug-In . SVG Version: 6.00 Build 0)  -->
<svg version="1.1" id="Illustration" xmlns="http://www.w3.org/2000/svg" xmlns:xlink="http://www.w3.org/1999/xlink" x="0px"
	 y="0px" viewBox="0 0 2475 1650" style="enable-background:new 0 0 2475 1650;" xml:space="preserve">
<style type="text/css">
	.st0{fill:url(#SVGID_1_);}
	.st1{opacity:0.81;}
	.st2{fill:#BDD0FB;}
	.st3{fill:#DCE5FE;}
	.st4{opacity:0.88;}
	.st5{fill:url(#SVGID_00000078741821802031513420000005810531895856853160_);}
	.st6{fill:url(#SVGID_00000013885879930752921170000003658114307773933210_);}
	.st7{fill:url(#SVGID_00000018232326383501744470000007249790570052660136_);}
	.st8{fill:url(#SVGID_00000012436146714713772550000016419349926843022525_);}
	.st9{fill:url(#SVGID_00000088849744101470921500000002661082823364201651_);}
	.st10{opacity:0.8;}
	.st11{fill:#91B3FA;}
	.st12{fill:#FFFFFF;}
	.st13{fill:url(#SVGID_00000115494818379454893390000017879794891083008407_);}
	.st14{fill:url(#SVGID_00000073687844670648659400000015727591431042358919_);}
	.st15{fill:url(#SVGID_00000072248379612423627280000009743332929717521031_);}
	.st16{fill:url(#SVGID_00000147937266620318111040000015334697618022523526_);}
	.st17{fill:url(#SVGID_00000000224884326264245250000015839706161511807393_);}
	.st18{fill:url(#SVGID_00000143582244052845335280000005204032936608289722_);}
	.st19{fill:url(#SVGID_00000002362833095279137430000016265677522915428510_);}
	.st20{fill:url(#SVGID_00000140693036199508319270000012549208433713126039_);}
	.st21{fill:url(#SVGID_00000083805862092509409670000015803022760112011953_);}
	.st22{fill:url(#SVGID_00000163751424684042882770000001214680341945754777_);}
	.st23{fill:url(#SVGID_00000006707667672577846020000013050268986123264932_);}
	.st24{fill:url(#SVGID_00000085944558506417384930000009198727718514854839_);}
	.st25{fill:url(#SVGID_00000168092481581111597660000009841167679135352210_);}
	.st26{fill:url(#SVGID_00000055680073578674262460000004422625353950854553_);}
	.st27{fill:url(#SVGID_00000146499737761268085110000013827570574749723015_);}
	.st28{fill:url(#SVGID_00000084504253500339328260000001529600525008456331_);}
	.st29{fill:url(#SVGID_00000159457838243221594540000001310734441514589594_);}
	.st30{fill:url(#SVGID_00000007425786080747504890000005583594587545443754_);}
	.st31{fill:url(#SVGID_00000005231558539976028590000016008184805896433802_);}
	.st32{fill:#7D97F4;}
	.st33{fill:url(#SVGID_00000027592912492962049570000011164792175423400884_);}
	.st34{fill:url(#SVGID_00000121957695248035762630000012565639388436334472_);}
	.st35{fill:url(#SVGID_00000116196589149272883980000012141096187664220087_);}
	.st36{fill:url(#SVGID_00000161603985509386607410000003819664721898907268_);}
	.st37{fill:url(#SVGID_00000072994213519162533320000004143240989966931874_);}
	.st38{fill:url(#SVGID_00000054956977653548741130000012142623202619469463_);}
	.st39{fill:url(#SVGID_00000156576679600001488260000002808998390955221930_);}
	.st40{fill:url(#SVGID_00000070111231735680519150000007998295482122560691_);}
	.st41{fill:url(#SVGID_00000016755636291744047220000009765607680330296463_);}
	.st42{fill:url(#SVGID_00000141422299349602775820000005026246634171877003_);}
	.st43{fill:url(#SVGID_00000183243438960150666320000018373251686611194257_);}
	.st44{fill:url(#SVGID_00000049179684726549169570000009053044710964148642_);}
	.st45{fill:url(#SVGID_00000150806154393096089420000008571445094001612979_);}
	.st46{fill:url(#SVGID_00000163790015041471625440000004006927649046270099_);}
	.st47{fill:url(#SVGID_00000172426486647363833240000011269889863355591817_);}
	.st48{fill:url(#SVGID_00000016047697999113282280000003167185218768069034_);}
	.st49{fill:url(#SVGID_00000157300013737692159630000012168950457592517307_);}
	.st50{fill:url(#SVGID_00000011720405545671904330000015699171045239402896_);}
	.st51{fill:url(#SVGID_00000139265698675646951900000013594293323546188674_);}
	.st52{fill:url(#SVGID_00000005954621303562751440000005632969443121136575_);}
	.st53{fill:url(#SVGID_00000067947866467815557050000012396358857054143647_);}
	.st54{fill:url(#SVGID_00000145764746389245078030000010078423627540502665_);}
	.st55{fill:url(#SVGID_00000165223892658288183270000004519214594345222313_);}
	.st56{fill:url(#SVGID_00000017475459968838958310000017905998550773699969_);}
	.st57{fill:url(#SVGID_00000067233699254897015240000015324836935230236844_);}
	.st58{fill:url(#SVGID_00000055685249842051791590000008528717768389968553_);}
	.st59{fill:url(#SVGID_00000097485452009116455900000018431772326570036634_);}
	.st60{fill:url(#SVGID_00000062893698238327330970000000514572270619884976_);}
	.st61{fill:url(#SVGID_00000169515612288276876290000015907010461039112623_);}
	.st62{fill:url(#SVGID_00000181063495917331960890000009533502204867373994_);}
	.st63{fill:url(#SVGID_00000033363703573997629590000006704163697795747969_);}
	.st64{fill:url(#SVGID_00000146473831382305220350000004378958662221036982_);}
	.st65{fill:url(#SVGID_00000114758186286203065730000006622675238000550043_);}
	.st66{fill:url(#SVGID_00000050641414436134945560000017788388092405902501_);}
	.st67{fill:url(#SVGID_00000059308049988916409170000002310673752166663076_);}
	.st68{fill:url(#SVGID_00000022558585214443046070000011811025632984758460_);}
	.st69{fill:url(#SVGID_00000155856786958141579340000017750629665571084421_);}
	.st70{fill:url(#SVGID_00000137827386034341131950000001821202184541792932_);}
	.st71{fill:url(#SVGID_00000019667975458112143530000005008504802201819530_);}
	.st72{fill:url(#SVGID_00000131339486704627978880000013949912966340264837_);}
	.st73{fill:url(#SVGID_00000087382608991775251820000005592884728870708868_);}
	.st74{fill:url(#SVGID_00000081611846437792669910000011191964782882971798_);}
	.st75{fill:url(#SVGID_00000080917171569703065810000016356226787111374482_);}
	.st76{fill:url(#SVGID_00000114072256449833756400000002980846584441479072_);}
	.st77{opacity:0.6;fill:#FFFFFF;}
	.st78{opacity:0.78;fill:#FFFFFF;}
	.st79{fill:url(#SVGID_00000123414140388534737680000011943821717526862257_);}
	.st80{fill:url(#SVGID_00000044857271670665390940000005244177359237696400_);}
	.st81{fill:url(#SVGID_00000060737998490280053130000016933024943243885965_);}
	.st82{fill:url(#SVGID_00000163766846224689322140000004022070772136963466_);}
	.st83{fill:url(#SVGID_00000134209096424635857380000010287389392254864041_);}
	.st84{fill:url(#SVGID_00000140701418459942017120000015558220385451250851_);}
	.st85{fill:url(#SVGID_00000116233653009304300400000001552836544949174196_);}
	.st86{fill:url(#SVGID_00000139295847430977795830000002718757966579274385_);}
	.st87{fill:url(#SVGID_00000015322078854188398810000016928817678546707120_);}
	.st88{fill:url(#SVGID_00000021816788376812340150000000631545686340094359_);}
	.st89{fill:url(#SVGID_00000177448681403284870440000014160620999258627249_);}
	.st90{fill:url(#SVGID_00000103242330926432828230000005903258056710154940_);}
	.st91{fill:url(#SVGID_00000062892860235072486110000005379757642081317290_);}
	.st92{fill:url(#SVGID_00000095332743706233039140000002615497494084075926_);}
	.st93{fill:url(#SVGID_00000068676248133192389560000010093161697059434656_);}
	.st94{fill:url(#SVGID_00000004523596883852165950000006157134086995590539_);}
	.st95{fill:url(#SVGID_00000095330278765387397370000005499841827200617392_);}
</style>
<g>
	<linearGradient id="SVGID_1_" gradientUnits="userSpaceOnUse" x1="229.7825" y1="777.6794" x2="2333.0393" y2="777.6794">
		<stop  offset="0" style="stop-color:#DAE3FE"/>
		<stop  offset="1" style="stop-color:#E9EFFD"/>
	</linearGradient>
	<path class="st0" d="M658.6,179.9C538,256.1,452.7,197.2,379.9,278c-227.4,251.9,60.8,347.3-73.1,386
		c-145.4,42-54.9,227.1,26.9,280.6c81.8,53.5,142.6,85.7,26.4,140.4c-116.2,54.7-136.5,115.2-87.8,213.6
		c48.7,98.4,141,129.4,524.7,135.3c383.6,5.8,1126.6-6.5,1329.3-62.5c202.7-56,54.9-200.1,140.1-307.7
		c85.2-107.6,102-170.8-28.5-275.3c-130.5-104.4-56.2-212.5-17-288.7c39.2-76.2,69.3-214.4-87.9-253.8
		c-157.3-39.4-340.1,117.9-419.2,38c-79.1-79.9-44.3-185.9-217-159.2c-172.7,26.7-230.8,233.2-381.5,221.8
		C964.6,335,914.2,18.3,658.6,179.9z"/>
	<g class="st1">
		<path class="st2" d="M794.7,1515.7c0,0-20-230.4-323.7-310.9c-202.6-53.7-259.8-114.8-275.3-140.1c-1.8-2.9-6.3-1.7-6.4,1.7
			c-0.5,42.8,13.1,177.5,187.6,283.6C587.3,1477.9,711.9,1425.1,794.7,1515.7z"/>
	</g>
	<g class="st1">
		<path class="st2" d="M1643.3,1471.1c0,0-506.6-524.3,272.3-1225.8c0,0,46.3,301.4-142.2,602.4
			C1584.9,1148.6,1564.2,1328.3,1643.3,1471.1z"/>
		<path class="st3" d="M1786.4,533c-26.1,29.2-49.4,61.1-70.5,94c-10.6,16.5-20.8,33.2-30.3,50.4c-9.6,17.1-18.6,34.5-27.1,52.1
			c-33.9,70.5-58.9,145.3-73,222.2c-3.6,19.2-6.5,38.5-8.6,58c-2.2,19.4-3.8,38.9-4.5,58.4c-0.6,9.8-0.6,19.5-0.8,29.3
			c0.1,9.8,0,19.6,0.4,29.3c0.5,19.5,1.8,39.1,3.6,58.6c7.5,77.9,25.7,154.8,51.9,228.9c0.2,0.6-0.1,1.3-0.7,1.5
			c-0.6,0.2-1.2-0.1-1.4-0.6c-14.9-36.5-27.2-74.1-37.3-112.2c-10.1-38.2-17.2-77.2-21.8-116.5c-9-78.6-6.4-158.7,8-236.6
			c3.5-19.5,7.8-38.9,12.8-58c5-19.2,10.7-38.2,17-56.9c6.3-18.8,13.4-37.3,21-55.5c7.7-18.3,15.8-36.3,24.8-53.9
			c8.9-17.7,18.4-35.1,28.4-52.1c10.1-17,20.7-33.7,31.9-50c11.2-16.3,23.1-32.1,35.4-47.5c12.4-15.4,25.3-30.3,39.4-44.2
			c0.5-0.4,1.2-0.4,1.6,0C1786.8,531.8,1786.9,532.5,1786.4,533L1786.4,533z"/>
	</g>
	<g class="st4">
		<path class="st2" d="M674.2,358.3c-9.7-15.5-33.7-6.7-31.3,11.4c12.5,93.3,27.4,256.2-1.9,362.6
			c-43.2,156.5-120.7,616.9,316.8,733.5C957.7,1465.8,916.1,742,674.2,358.3z"/>
		<path class="st3" d="M713,550.8c4.9,9.1,8.6,18.6,12,28.2c3.4,9.7,6.1,19.5,8.6,29.4c4.8,19.9,8.1,40.1,10.4,60.4l1.4,15.3
			c0.5,5.1,0.6,10.2,1,15.3c0.7,10.2,0.8,20.4,1,30.7c0,2.6,0.1,5.1,0.1,7.7l-0.2,7.7l-0.4,15.3c0,5.1-0.5,10.2-0.8,15.3l-0.9,15.3
			c-1.4,20.5-4.3,40.7-7.2,60.8l-8.8,60c-5.7,39.8-9.7,79.7-9.8,119.5c-0.2,39.8,4.5,79.4,13.9,118c2.7,9.5,5,19.2,8.3,28.6
			c1.6,4.7,3,9.5,4.7,14.1l5.4,13.9c0.9,2.3,1.8,4.6,2.7,6.9l3,6.8l6,13.6c2.2,4.5,4.5,8.9,6.7,13.3c2.3,4.4,4.4,9,7,13.2l7.5,13
			c1.3,2.2,2.5,4.3,3.8,6.5l4.1,6.3l8.1,12.6l2,3.2l2.2,3.1l4.4,6.1l8.7,12.2c2.9,4.1,6.2,7.9,9.2,11.9l9.3,11.8
			c3.2,3.9,6.5,7.7,9.7,11.5c26.1,30.6,54.8,59.1,84.8,86.3c0.5,0.4,0.5,1.1,0.1,1.6c-0.4,0.4-1.1,0.5-1.6,0.2
			c-32.3-24.6-62.9-51.5-91-81.1c-3.5-3.7-7.1-7.3-10.5-11.1l-10-11.6c-3.3-3.9-6.7-7.7-9.9-11.7l-9.4-12.1l-4.7-6.1l-2.4-3
			l-2.2-3.1l-8.8-12.6l-4.4-6.3c-1.4-2.1-2.7-4.4-4.1-6.5l-8.1-13.1c-21.3-35.2-37.3-73.7-48.4-113.5
			c-10.8-39.9-15.7-81.4-15.8-122.5c-0.4-41.2,4.4-82.1,10.4-122.4c6-40.3,14.2-79.9,18.4-119.6l1.5-15c0.4-5,1.1-10,1.3-15l0.9-15
			l0.5-7.5c0.1-2.5,0.1-5,0.2-7.5c0.2-10,0.7-20,0.5-30.1c-0.1-5,0-10-0.2-15l-0.7-15c-1.1-20-3-40-6.4-59.8
			c-1.7-9.9-3.6-19.8-6.2-29.5c-2.4-9.7-5.3-19.5-9.1-28.7l0-0.1c-0.2-0.6,0-1.3,0.6-1.5C712.1,550.1,712.7,550.3,713,550.8z"/>
	</g>
	
		<linearGradient id="SVGID_00000009557104795410384980000003589994942167501748_" gradientUnits="userSpaceOnUse" x1="919.2108" y1="515.3722" x2="657.3641" y2="1610.3688">
		<stop  offset="0" style="stop-color:#FE7062"/>
		<stop  offset="1" style="stop-color:#FF928E"/>
	</linearGradient>
	<path style="fill:url(#SVGID_00000009557104795410384980000003589994942167501748_);" d="M842.8,900.6c0-9.7-7.9-17.6-17.6-17.6
		H686.1c-9.7,0-17.6,7.9-17.6,17.6v597.8c0,9.7,7.9,17.6,17.6,17.6h139.1c9.7,0,17.6-7.9,17.6-17.6V900.6z"/>
	
		<linearGradient id="SVGID_00000120522310675018847950000009383302382514217354_" gradientUnits="userSpaceOnUse" x1="1332.265" y1="615.1935" x2="1070.6647" y2="1709.16">
		<stop  offset="0" style="stop-color:#FE7062"/>
		<stop  offset="1" style="stop-color:#FF928E"/>
	</linearGradient>
	<path style="fill:url(#SVGID_00000120522310675018847950000009383302382514217354_);" d="M1270,807.3h-138.8
		c-9.7,0-17.8,9.4-17.8,20.3v667.6c0,10.9,8.1,20.9,17.8,20.9H1270c9.7,0,20.1-10,20.1-20.9V827.6
		C1290,816.7,1279.7,807.3,1270,807.3z"/>
	
		<linearGradient id="SVGID_00000005267551272157928690000007365443253807463309_" gradientUnits="userSpaceOnUse" x1="1102.9985" y1="559.3882" x2="841.2486" y2="1653.9801">
		<stop  offset="0" style="stop-color:#FE7062"/>
		<stop  offset="1" style="stop-color:#FF928E"/>
	</linearGradient>
	<path style="fill:url(#SVGID_00000005267551272157928690000007365443253807463309_);" d="M1060.7,703.4c0-9.7-7.9-17.6-17.6-17.6
		H903.9c-9.7,0-17.6,7.9-17.6,17.6v795.1c0,9.7,7.9,17.6,17.6,17.6H1043c9.7,0,17.6-7.9,17.6-17.6V703.4z"/>
	
		<linearGradient id="SVGID_00000062151291874166067790000002222702551634289298_" gradientUnits="userSpaceOnUse" x1="1784.6068" y1="723.63" x2="1523.0957" y2="1817.223">
		<stop  offset="0" style="stop-color:#FE7062"/>
		<stop  offset="1" style="stop-color:#FF928E"/>
	</linearGradient>
	<path style="fill:url(#SVGID_00000062151291874166067790000002222702551634289298_);" d="M1815.3,421.3c0-9.7-7.9-17.6-17.6-17.6
		h-139.1c-9.7,0-17.6,7.9-17.6,17.6v1077.2c0,9.7,7.9,17.6,17.6,17.6h139.1c9.7,0,17.6-7.9,17.6-17.6V421.3z"/>
	
		<linearGradient id="SVGID_00000097500474579815357100000006094773424861456277_" gradientUnits="userSpaceOnUse" x1="1503.7922" y1="890.9231" x2="1242.0565" y2="1985.4556">
		<stop  offset="0" style="stop-color:#FE7062"/>
		<stop  offset="1" style="stop-color:#FF928E"/>
	</linearGradient>
	<path style="fill:url(#SVGID_00000097500474579815357100000006094773424861456277_);" d="M1556.1,574.9c0-9.7-7.9-17.6-17.6-17.6
		h-139.1c-9.7,0-17.6,7.9-17.6,17.6v923.5c0,9.7,7.9,17.6,17.6,17.6h139.1c9.7,0,17.6-7.9,17.6-17.6V574.9z"/>
	<g class="st10">
		<path class="st11" d="M825.2,1505.5c0,0-196.5,68-343.3-146.9c-137.9-201.9-55-454.4,5.8-598.6c3.2-7.5,14.2-6.1,15.4,1.9
			c18.3,121.4,103.1,596.3,332.5,743.2L825.2,1505.5z"/>
		<path class="st12" d="M804.3,1510.3c-25-3.5-49.1-11.3-72.5-20.7c-23.3-9.6-45.7-21.7-66.7-35.9c-21-14.2-40.5-30.6-58.2-48.8
			c-17.7-18.2-33.5-38.2-47.5-59.4c-13.6-21.5-25.2-44.1-35.3-67.4l-6.8-17.8l-3.3-8.9l-2.8-9.1l-5.6-18.1
			c-1.6-6.1-3.1-12.3-4.5-18.4c-11.6-49.2-15.9-100-13.5-150.1c0-0.6,0.6-1.1,1.2-1.1c0.6,0,1,0.5,1.1,1l0,0
			c1.3,12.5,2.5,24.9,3.5,37.3l2.4,18.5c0.8,6.2,1.4,12.4,2.4,18.5c1.1,6.1,2.1,12.2,3.1,18.4c1,6.1,1.9,12.3,3.4,18.3
			c2.8,12.1,4.8,24.3,8.4,36.2l4.8,17.9l5.7,17.6l2.8,8.8l3.3,8.6l6.6,17.3c9.6,22.7,20.8,44.7,33.9,65.6
			c13.3,20.7,28.3,40.4,45.2,58.3c16.8,18.1,35.4,34.4,55.4,48.9c20,14.5,41.5,27,63.8,37.7c22.5,10.4,46,19.1,70.3,24.3l0.1,0
			c0.6,0.1,1,0.7,0.9,1.4C805.5,1510,804.9,1510.4,804.3,1510.3z"/>
	</g>
	<g>
		
			<linearGradient id="SVGID_00000075859024730412335790000015225743127479277232_" gradientUnits="userSpaceOnUse" x1="1819.8005" y1="854.6612" x2="1831.4479" y2="1444.791">
			<stop  offset="0" style="stop-color:#4042E2"/>
			<stop  offset="1" style="stop-color:#4F52FF"/>
		</linearGradient>
		<path style="fill:url(#SVGID_00000075859024730412335790000015225743127479277232_);" d="M1505.9,1395.4l320.8-614.5H1761
			c-12.1,0-18.8-14.1-11.1-23.5l341.9-416.7c14.8-18.1,44.1-6.6,42.7,16.7l-24,407.5c-1.4,23.3-22.1,40.7-45.3,38.1l-45.8-5.2
			L1701.1,1487c-8.3,17.9-26.2,29.4-46,29.4h-110.3L1505.9,1395.4z"/>
		
			<linearGradient id="SVGID_00000138531213353287352290000017046114984235859885_" gradientUnits="userSpaceOnUse" x1="1459.3151" y1="995.673" x2="1494.2574" y2="1690.6318">
			<stop  offset="0" style="stop-color:#4042E2"/>
			<stop  offset="1" style="stop-color:#4F52FF"/>
		</linearGradient>
		<path style="fill:url(#SVGID_00000138531213353287352290000017046114984235859885_);" d="M1240.7,964.4l226.5,503.1
			c13.4,29.8,43.1,49,75.7,49h116.7c15.5,0,29.8-8.4,37.3-21.9l4.2-7.5l0,0c-12.5,0-24-7-29.7-18.2l-301.7-591.2L1240.7,964.4z"/>
		
			<linearGradient id="SVGID_00000174576944037105142740000002088841020505282466_" gradientUnits="userSpaceOnUse" x1="1026.4087" y1="1571.2434" x2="1135.1171" y2="938.4064">
			<stop  offset="0" style="stop-color:#4042E2"/>
			<stop  offset="1" style="stop-color:#4F52FF"/>
		</linearGradient>
		<path style="fill:url(#SVGID_00000174576944037105142740000002088841020505282466_);" d="M1400.1,937.3L1400.1,937.3
			c-22.7-17.9-55.9-12.7-71.9,11.4l-333,500.2c-26.7,40.1-71.6,64.1-119.7,64.1h-46.9l-38.1-109.8c0,0,309.5-474.6,389.3-546.4
			c0,0,79.5-71.6,157.8-17.5c20.7,14.3,36.4,34.7,46,58L1400.1,937.3z"/>
		
			<linearGradient id="SVGID_00000125561664823746360630000008524841337680697751_" gradientUnits="userSpaceOnUse" x1="734.7303" y1="1443.7943" x2="783.2537" y2="1793.1611">
			<stop  offset="0" style="stop-color:#4042E2"/>
			<stop  offset="1" style="stop-color:#4F52FF"/>
		</linearGradient>
		<path style="fill:url(#SVGID_00000125561664823746360630000008524841337680697751_);" d="M428.3,1107.9c0,0,55.7-69.7,163.7-80.5
			c0,0,51.3,17.5,153.5,200.6c102.2,183.1,170,266.6,249.6,221l-6.6,10.9c-21.7,36.1-60.7,58.1-102.8,58.1h-44
			c-48.5,0-94-23.3-122.3-62.7C639.9,1344.8,477.2,1125.1,428.3,1107.9z"/>
		<path class="st11" d="M2095.9,486.6c-0.1,0-0.3,0-0.4,0c-1.9-0.2-3.2-1.9-3-3.8l2.3-19.9c0.2-1.9,1.9-3.3,3.8-3
			c1.9,0.2,3.2,1.9,3,3.8l-2.3,19.9C2099.1,485.3,2097.6,486.6,2095.9,486.6z"/>
		<path class="st11" d="M1810.5,737.7c-0.7,0-1.5-0.2-2.1-0.7c-1.5-1.2-1.8-3.3-0.6-4.8l282.3-366.8c3.4-4.4,9-5.9,14.1-3.8
			c5.1,2.1,8.1,7.1,7.5,12.6l-5,44c-0.2,1.9-1.9,3.2-3.8,3c-1.9-0.2-3.2-1.9-3-3.8l5-44c0.3-2.9-1.5-4.7-3.2-5.4
			c-1.8-0.7-4.3-0.7-6.1,1.7l-282.3,366.8C1812.5,737.3,1811.5,737.7,1810.5,737.7z"/>
		<path class="st11" d="M1170,1122.3c-0.7,0-1.3-0.2-1.9-0.6c-1.6-1.1-2-3.2-0.9-4.8l146-216.4c5.3-7.8,14.1-12.1,23.5-11.4
			c9.4,0.7,17.5,6.2,21.5,14.8c0.8,1.7,0.1,3.8-1.6,4.6c-1.7,0.8-3.8,0.1-4.6-1.6c-3-6.3-8.9-10.4-15.8-10.9
			c-6.9-0.5-13.4,2.6-17.3,8.4l-146,216.4C1172.2,1121.8,1171.1,1122.3,1170,1122.3z"/>
		<path class="st11" d="M1132.1,1178.5c-0.7,0-1.3-0.2-1.9-0.6c-1.6-1.1-2-3.2-0.9-4.8l9.4-13.9c1.1-1.6,3.2-2,4.8-0.9
			c1.6,1.1,2,3.2,0.9,4.8l-9.4,13.9C1134.3,1178,1133.2,1178.5,1132.1,1178.5z"/>
	</g>
	<g class="st1">
		<path class="st11" d="M2287.9,727.4c-127.4,56.5-465.9,252-612,778.9c0,0,197.1,3.3,345-312.8
			c126.5-270.3,199.2-379.6,276.7-451.5C2304.9,735.2,2297,723.3,2287.9,727.4z"/>
		<path class="st3" d="M1700.4,1476.8c5.6-15.8,11.7-31.4,18.1-46.9c6.4-15.5,13-30.8,20-46.1c6.9-15.3,14-30.4,21.4-45.4
			c3.7-7.5,7.4-15,11.2-22.5c3.8-7.5,7.6-14.9,11.6-22.3c15.5-29.7,32-58.9,49.2-87.7c17.3-28.7,35.5-56.9,54.2-84.7
			c37.8-55.4,78.9-108.6,124.1-158.2l17.2-18.4c5.8-6.1,11.8-12,17.6-17.9l8.8-8.9l9.1-8.7c6.1-5.7,12.2-11.5,18.4-17.1
			c24.9-22.4,50.9-43.6,78.1-63.2c0.5-0.4,1.2-0.3,1.6,0.3c0.4,0.5,0.3,1.2-0.2,1.6l0,0c-25.9,21-51.1,42.9-75,66.1
			c-23.6,23.5-46.8,47.4-68.6,72.7c-43.8,50.2-83.8,103.5-121,158.8c-18.6,27.6-36.4,55.8-53.7,84.3c-17.2,28.5-33.8,57.5-49.9,86.6
			c-32.1,58.4-62.4,117.9-90.1,178.7l0,0c-0.3,0.6-0.9,0.8-1.5,0.6C1700.4,1477.9,1700.2,1477.3,1700.4,1476.8z"/>
	</g>
	<g class="st1">
		<path class="st2" d="M1675.9,1511.1c0,0,56.3-220.6,364-250.3c205.4-19.8,270.6-70,289.8-92.1c2.2-2.6,6.4-0.7,5.9,2.7
			c-6.4,41.6-41,170.3-227.5,245.5C1883.4,1507.5,1770.8,1436.3,1675.9,1511.1z"/>
		<path class="st3" d="M1692.1,1468.5c19-18.7,40-35,61.9-50.1c11-7.5,22.2-14.8,33.7-21.4c11.5-6.7,23.2-13.2,35.2-19
			c12-5.9,24.3-11.2,36.6-16.4c12.5-4.9,25.1-9.4,38-13.2c3.2-0.9,6.4-2,9.7-2.9l9.7-2.6c6.5-1.8,13.1-3,19.7-4.5
			c6.6-1.3,13.2-2.4,19.9-3.5l10-1.3l5-0.7l5-0.5l10.1-0.9c3.4-0.3,6.7-0.3,10.1-0.5l10.1-0.4l10.1,0.1c6.7-0.1,13.5,0.5,20.2,0.9
			l9.9,0.7l9.7,0.7c6.5,0.3,13,0.6,19.4,0.8c6.5,0,13,0.2,19.4,0c13-0.2,25.9-1.2,38.7-2.9c25.6-3.2,50.9-9.9,74.2-20.9
			c5.8-2.9,11.5-5.8,16.9-9.3c5.5-3.4,10.8-7.1,15.8-11.2c5-4.1,9.8-8.5,14.2-13.2c4.4-4.7,8.5-9.9,11.6-15.5l0-0.1
			c0.3-0.6,1-0.7,1.6-0.4c0.5,0.3,0.7,0.9,0.5,1.5c-2.8,6.3-6.5,11.8-10.5,17.2c-4.1,5.4-8.7,10.3-13.5,14.9
			c-9.7,9.4-20.9,17.1-32.6,23.8c-11.8,6.6-24.3,11.9-37.1,16.1c-12.8,4.3-25.9,7.5-39.2,9.7c-13.3,2.2-26.6,3.8-40.1,4.5
			c-13.4,0.9-26.8,0.7-40.2,0.3l-10-0.5l-9.9-0.5c-6.4-0.2-12.9-0.7-19.3-0.5l-9.7,0l-9.7,0.5c-3.2,0.2-6.4,0.2-9.6,0.6l-9.6,0.9
			c-25.7,2.6-51,8.2-75.9,15.3c-24.9,7.3-49.3,16.4-73,27c-5.9,2.6-11.8,5.4-17.8,8.2c-5.9,2.9-11.7,5.7-17.5,8.7
			c-11.6,6-23.1,12.2-34.4,18.9c-11.3,6.7-22.5,13.4-33.5,20.6c-11,7.1-21.9,14.6-32.5,22.4l0,0c-0.5,0.4-1.2,0.3-1.6-0.2
			C1691.6,1469.5,1691.7,1468.9,1692.1,1468.5z"/>
	</g>
	<g>
		<g>
			<g>
				
					<linearGradient id="SVGID_00000049202013586595040100000015728341569367748518_" gradientUnits="userSpaceOnUse" x1="626.4009" y1="1631.4509" x2="627.4451" y2="1742.1333">
					<stop  offset="0" style="stop-color:#09005D"/>
					<stop  offset="1" style="stop-color:#1A0F91"/>
				</linearGradient>
				<path style="fill:url(#SVGID_00000049202013586595040100000015728341569367748518_);" d="M592.8,1500.9c0,0-1.3,7.2-1.8,15.8
					c-0.2,3.6,2.5,6.8,6.1,7.2c12.7,1.2,41.5,3.5,59.9,0.8c2.6-0.4,3.6-3.5,1.7-5.3c-7.6-7.1-25.9-20.8-56.1-23.8L592.8,1500.9z"/>
				
					<linearGradient id="SVGID_00000012459713004890203710000010357307756470507176_" gradientUnits="userSpaceOnUse" x1="599.7211" y1="1507.8467" x2="593.9781" y2="1462.9476">
					<stop  offset="0" style="stop-color:#FF928E"/>
					<stop  offset="1" style="stop-color:#FEB3B1"/>
				</linearGradient>
				<path style="fill:url(#SVGID_00000012459713004890203710000010357307756470507176_);" d="M586.5,1484.7l6.4,15.7
					c0.9,2.2,3.1,3.5,5.4,3.2c1.6-0.2,3.4-0.5,5.2-1c3.6-1.1,5.7-4.9,4.6-8.5l-4.8-16.2L586.5,1484.7z"/>
				
					<linearGradient id="SVGID_00000172410442673484288010000007568419156921000598_" gradientUnits="userSpaceOnUse" x1="476.8621" y1="1632.8616" x2="477.9062" y2="1743.5438">
					<stop  offset="0" style="stop-color:#09005D"/>
					<stop  offset="1" style="stop-color:#1A0F91"/>
				</linearGradient>
				<path style="fill:url(#SVGID_00000172410442673484288010000007568419156921000598_);" d="M477.1,1513.4c0,0,12.8,10.7,17.8,24.5
					c1.4,3.8-1.5,7.8-5.6,7.8H463c-3.9,0-6.8-3.5-6.1-7.3C458.5,1528.9,463.3,1513.5,477.1,1513.4z"/>
				
					<linearGradient id="SVGID_00000149367180943429651350000003935160796359397760_" gradientUnits="userSpaceOnUse" x1="474.2013" y1="1523.235" x2="468.6049" y2="1479.4821">
					<stop  offset="0" style="stop-color:#FF928E"/>
					<stop  offset="1" style="stop-color:#FEB3B1"/>
				</linearGradient>
				<path style="fill:url(#SVGID_00000149367180943429651350000003935160796359397760_);" d="M461.2,1499.5c0,0,2.6,11.5,4.6,19
					c0.4,1.4,1.8,2.1,3.2,1.7c4-1.4,7.2-2.1,9.6-1.7c1.1,0.1,2-0.8,2.1-1.9l0.2-19L461.2,1499.5z"/>
				
					<linearGradient id="SVGID_00000011001529657423847170000000437572833889192607_" gradientUnits="userSpaceOnUse" x1="435.0922" y1="1356.9806" x2="607.3471" y2="1356.9806">
					<stop  offset="0" style="stop-color:#4042E2"/>
					<stop  offset="1" style="stop-color:#4F52FF"/>
				</linearGradient>
				<path style="fill:url(#SVGID_00000011001529657423847170000000437572833889192607_);" d="M529.4,1241.6l78,237.9
					c0,0-15,9.8-22.1,9.4l-92.6-191.2c0,0-16.2,117.8-8.4,202.3l-26.5,2c0,0-43.1-216.1-10.5-290.1L529.4,1241.6z"/>
				
					<linearGradient id="SVGID_00000065066466513204964360000017100218062656418492_" gradientUnits="userSpaceOnUse" x1="470.8217" y1="1330.5525" x2="477.0867" y2="1318.0225">
					<stop  offset="0" style="stop-color:#4042E2"/>
					<stop  offset="1" style="stop-color:#4F52FF"/>
				</linearGradient>
				<path style="fill:url(#SVGID_00000065066466513204964360000017100218062656418492_);" d="M493.2,1295.6
					C493.1,1295.6,493.1,1295.6,493.2,1295.6c-0.5-0.1-0.8-0.4-0.7-0.8l3-24c0.1-0.4,0.4-0.7,0.8-0.7c0.4,0.1,0.7,0.4,0.7,0.8l-3,24
					C493.9,1295.3,493.5,1295.6,493.2,1295.6z"/>
			</g>
			
				<linearGradient id="SVGID_00000105391202199861691060000018167493598969861264_" gradientUnits="userSpaceOnUse" x1="573.9183" y1="1067.3575" x2="466.369" y2="1386.8727">
				<stop  offset="0" style="stop-color:#09005D"/>
				<stop  offset="1" style="stop-color:#1A0F91"/>
			</linearGradient>
			<path style="fill:url(#SVGID_00000105391202199861691060000018167493598969861264_);" d="M544,1032.3c0,0-63.2,5.6-54.2,50.6
				c0,0-34.9,65.7-51.2,143.1c-0.5,2.5,1.2,5,3.7,5.4l105.2,18c2.9,0.5,5.7-1.3,6.4-4.2l25.1-97.1l9.8,45.2l31.1-8.1l-26.2-132.7
				C593.7,1052.5,590,1033.1,544,1032.3z"/>
			
				<linearGradient id="SVGID_00000013191257122839241830000007297839244678019998_" gradientUnits="userSpaceOnUse" x1="578.7351" y1="1122.8712" x2="589.071" y2="1122.8712">
				<stop  offset="0" style="stop-color:#4042E2"/>
				<stop  offset="1" style="stop-color:#4F52FF"/>
			</linearGradient>
			<path style="fill:url(#SVGID_00000013191257122839241830000007297839244678019998_);" d="M579.5,1143.8c-0.1,0-0.1,0-0.2,0
				c-0.4-0.1-0.7-0.5-0.6-0.9l8.8-40.3c0.1-0.4,0.5-0.7,0.9-0.6c0.4,0.1,0.7,0.5,0.6,0.9l-8.8,40.3
				C580.2,1143.5,579.9,1143.8,579.5,1143.8z"/>
			
				<linearGradient id="SVGID_00000049190508970282388950000003441768502304845245_" gradientUnits="userSpaceOnUse" x1="516.4987" y1="1235.8704" x2="594.9342" y2="1235.8704">
				<stop  offset="0" style="stop-color:#FF928E"/>
				<stop  offset="1" style="stop-color:#FEB3B1"/>
			</linearGradient>
			<path style="fill:url(#SVGID_00000049190508970282388950000003441768502304845245_);" d="M573.2,1263.6
				c-3.3-1.8-7.2-2.3-10.9-1.4l-7.3,1.8c-1.6,0.4-3.1-0.7-3.3-2.3l-7.6-67.4c-9.5,4.5-23.1,4-27.6,3.6l17.4,79.5h61L573.2,1263.6z"
				/>
			
				<linearGradient id="SVGID_00000046304723791264156380000014071803927664918932_" gradientUnits="userSpaceOnUse" x1="588.7789" y1="1137.5469" x2="735.2539" y2="1137.5469">
				<stop  offset="0" style="stop-color:#FF928E"/>
				<stop  offset="1" style="stop-color:#FEB3B1"/>
			</linearGradient>
			<path style="fill:url(#SVGID_00000046304723791264156380000014071803927664918932_);" d="M735.3,1117.4l-1.8-6.1
				c-1.1-3.5-3.7-6.4-7.1-7.8l-33.3-13.4c0,0-0.5-4.3,7-7.2c7.5-2.9,5.8-11.4,5.8-11.4s-10.3,4.7-25.4,12.2
				c-8.6,4.3-13.5,11.8-16,17.5l-75.6,92.1l8.9,6.1c11.7,8,27.7,4.1,34.3-8.4l40.9-78.5C693.5,1118.6,714.3,1119.8,735.3,1117.4z"/>
			<g>
				
					<linearGradient id="SVGID_00000147185565736429881590000017089443404407515024_" gradientUnits="userSpaceOnUse" x1="571.4444" y1="1005.6461" x2="555.0535" y2="1072.0724">
					<stop  offset="0" style="stop-color:#FF928E"/>
					<stop  offset="1" style="stop-color:#FEB3B1"/>
				</linearGradient>
				<path style="fill:url(#SVGID_00000147185565736429881590000017089443404407515024_);" d="M564.5,989.3l-19.4,54.4
					c0,0,17.2,13.5,29.8,8.9l9.8-31.2C584.6,1021.4,577.1,983.3,564.5,989.3z"/>
				<g>
					
						<linearGradient id="SVGID_00000100383195123422785530000013785615985328677020_" gradientUnits="userSpaceOnUse" x1="632.895" y1="990.3757" x2="571.6451" y2="991.2383">
						<stop  offset="0" style="stop-color:#FF928E"/>
						<stop  offset="1" style="stop-color:#FEB3B1"/>
					</linearGradient>
					<path style="fill:url(#SVGID_00000100383195123422785530000013785615985328677020_);" d="M622.4,969.8c0,0.8-18.7,53-18.7,53
						l-29.5-11.3l10.4-52.1C584.6,959.4,622.4,955.7,622.4,969.8z"/>
					
						<linearGradient id="SVGID_00000165925399603106250180000013363346775379366024_" gradientUnits="userSpaceOnUse" x1="561.4365" y1="990.4229" x2="637.3542" y2="990.4229">
						<stop  offset="0" style="stop-color:#09005D"/>
						<stop  offset="1" style="stop-color:#1A0F91"/>
					</linearGradient>
					<path style="fill:url(#SVGID_00000165925399603106250180000013363346775379366024_);" d="M589.8,972.1l-7.6,27
						c-0.1,0.3-0.1,0.7-0.1,1.1c0,2.2,0.5,9.8,8.3,8.7c7-0.9,13.4-1.7,17.5,0.2c1.8,0.9,2.7,3,2,4.9c-1.7,4.7-5.7,15.3-10.6,24
						c-1,1.8-3.2,2.4-5,1.6c-5.5-2.5-17.1-8.2-25.3-14.9c-1.1-0.9-1.7-2.3-1.4-3.8c1.3-6.9,5.2-27.9,5.3-33.9c0.2-5.6-6.2-10-9-11.6
						c-0.9-0.5-1.6-1.4-1.8-2.4c-0.9-3.6-1.6-11.9,8.9-13.7c2.2-0.4,3.6-2.5,3.2-4.7c-0.9-4.3-0.6-10.7,7.6-13.1
						c8.4-2.4,13.7,2.7,16.4,6.5c1.1,1.6,3.1,2.1,4.9,1.3c1-0.4,2.2-0.5,3.5,0.6c1.7,1.5,4.4,1,5.6-0.9c2.4-3.6,6.9-7.2,14.4-4.8
						c13.3,4.3,12.7,19.7,7.8,28.1c-4.9,8.4-19.1,2.9-25.8-2.7c-5.1-4.2-12.9-1.7-16.3-0.2C590.9,970,590.1,970.9,589.8,972.1z"/>
					
						<linearGradient id="SVGID_00000173153097709361764840000008186680821124708764_" gradientUnits="userSpaceOnUse" x1="561.7252" y1="1003.2478" x2="545.3344" y2="1069.6738">
						<stop  offset="0" style="stop-color:#FF928E"/>
						<stop  offset="1" style="stop-color:#FEB3B1"/>
					</linearGradient>
					<path style="fill:url(#SVGID_00000173153097709361764840000008186680821124708764_);" d="M570,996.8c0,0,7.9-14.9,2.7-19.6
						c-5.2-4.7-14.1-3.9-13.8,7.8C559.1,999.5,570,996.8,570,996.8z"/>
				</g>
			</g>
			
				<linearGradient id="SVGID_00000014634377964345751950000007272411654111760285_" gradientUnits="userSpaceOnUse" x1="491.328" y1="1144.6508" x2="548.7343" y2="1144.6508">
				<stop  offset="0" style="stop-color:#4042E2"/>
				<stop  offset="1" style="stop-color:#4F52FF"/>
			</linearGradient>
			<path style="fill:url(#SVGID_00000014634377964345751950000007272411654111760285_);" d="M522.6,1199c-4.3,0-7.4-0.3-7.7-0.4
				l-0.6-0.1l-23-107.2c-0.1-0.4,0.2-0.8,0.6-0.9c0.4-0.1,0.8,0.2,0.9,0.6l22.8,106.1c3.4,0.3,21.7,1.5,31.4-5.3l-19.9-93.2l4.2-7.8
				c0.2-0.4,0.7-0.5,1.1-0.3c0.4,0.2,0.5,0.7,0.3,1.1l-3.9,7.3l20,93.6l-0.4,0.3C541.4,1198,530.1,1199,522.6,1199z"/>
		</g>
		<g>
			<path class="st32" d="M552.4,1554.8c-0.6,0-1.2-0.1-1.8-0.4c-2.3-1.1-3.4-4-2.4-6.5l95-241c1-2.5,3.7-3.7,6-2.6
				c2.3,1.1,3.4,4,2.4,6.5l-95,241C555.8,1553.7,554.1,1554.8,552.4,1554.8z"/>
			<path class="st32" d="M659.4,1554.8c-1.8,0-3.4-1.1-4.2-3l-95-241c-1-2.5,0.1-5.4,2.4-6.5c2.3-1.1,5,0.1,6,2.6l95,241
				c1,2.5-0.1,5.4-2.4,6.5C660.6,1554.7,660,1554.8,659.4,1554.8z"/>
			<path class="st32" d="M956.8,1554.8c-0.6,0-1.2-0.1-1.8-0.4c-2.3-1.1-3.4-4-2.4-6.5l95-241c1-2.5,3.7-3.7,6-2.6
				c2.3,1.1,3.4,4,2.4,6.5l-95,241C960.2,1553.7,958.5,1554.8,956.8,1554.8z"/>
			<path class="st32" d="M1063.8,1554.8c-1.8,0-3.4-1.1-4.2-3l-95-241c-1-2.5,0.1-5.4,2.4-6.5c2.3-1.1,5,0.1,6,2.6l95,241
				c1,2.5-0.1,5.4-2.4,6.5C1065,1554.7,1064.4,1554.8,1063.8,1554.8z"/>
		</g>
		<g>
			
				<linearGradient id="SVGID_00000147923066758569096610000014378604353266886841_" gradientUnits="userSpaceOnUse" x1="889.9111" y1="1508.3043" x2="914.1881" y2="1355.5947">
				<stop  offset="0" style="stop-color:#09005D"/>
				<stop  offset="1" style="stop-color:#1A0F91"/>
			</linearGradient>
			
				<rect x="893.1" y="1392.4" style="fill:url(#SVGID_00000147923066758569096610000014378604353266886841_);" width="11.2" height="121.5"/>
			
				<linearGradient id="SVGID_00000041996356610357846920000010413208675348231328_" gradientUnits="userSpaceOnUse" x1="899.6086" y1="1509.8458" x2="923.8857" y2="1357.1355">
				<stop  offset="0" style="stop-color:#09005D"/>
				<stop  offset="1" style="stop-color:#1A0F91"/>
			</linearGradient>
			<path style="fill:url(#SVGID_00000041996356610357846920000010413208675348231328_);" d="M947.9,1516.2h-98.4v-0.5
				c0-3.7,3-6.8,6.8-6.8h84.3C944.6,1508.9,947.9,1512.2,947.9,1516.2L947.9,1516.2z"/>
			
				<linearGradient id="SVGID_00000015318128777275534690000014467416840385420718_" gradientUnits="userSpaceOnUse" x1="880.889" y1="1506.8702" x2="905.166" y2="1354.1603">
				<stop  offset="0" style="stop-color:#09005D"/>
				<stop  offset="1" style="stop-color:#1A0F91"/>
			</linearGradient>
			<path style="fill:url(#SVGID_00000015318128777275534690000014467416840385420718_);" d="M962.5,1388.2c0,6.6-5.4,12.1-12.1,12.1
				h-99.5c-6.6,0-12.1-5.4-12.1-12.1v-10.9c0-6.6,5.4-12.1,12.1-12.1h99.5c6.6,0,12.1,5.4,12.1,12.1V1388.2z"/>
		</g>
		<g>
			
				<linearGradient id="SVGID_00000025429768440563712550000012521923765145792921_" gradientUnits="userSpaceOnUse" x1="810.7755" y1="1404.7979" x2="796.9727" y2="1544.5516">
				<stop  offset="0" style="stop-color:#FF928E"/>
				<stop  offset="0.4766" style="stop-color:#FFA29F"/>
				<stop  offset="1" style="stop-color:#FEB3B1"/>
			</linearGradient>
			<path style="fill:url(#SVGID_00000025429768440563712550000012521923765145792921_);" d="M815.8,1311.4c0,0-16.7,2.6-35.5,15.1
				c-3,2-4.6,5.4-4.1,8.9c2.2,17.8,11.5,75.4,42,131.7c1.6,3,2.1,6.4,1.4,9.7l-5.3,24.6l-9.8,9.2h25.3l16.8-45.6l-7.2-2.3
				c-5.6-1.8-9.4-6.9-9.5-12.8l-0.8-48.9c0.7-21.8-13.3-36.8-13.3-36.8l40.4-2L815.8,1311.4z"/>
			
				<linearGradient id="SVGID_00000010276086651472163240000004746819124966347429_" gradientUnits="userSpaceOnUse" x1="824.9664" y1="1463.114" x2="813.2195" y2="1643.2329">
				<stop  offset="0" style="stop-color:#09005D"/>
				<stop  offset="1" style="stop-color:#1A0F91"/>
			</linearGradient>
			<path style="fill:url(#SVGID_00000010276086651472163240000004746819124966347429_);" d="M794.5,1515.2c-2.3,3,24.8,7,38.5,0.4
				c0,0,19-33,19-50c0,0-1.5-3.5-12.6-2.7c0,0-6.4,39.1-13.1,43.5c-6.7,4.4-18.8,0.4-18.8,0.4S797.9,1510.7,794.5,1515.2z"/>
			
				<linearGradient id="SVGID_00000042702217437376627520000006916692131908153987_" gradientUnits="userSpaceOnUse" x1="682.3249" y1="1416.5293" x2="850.8566" y2="1416.5293">
				<stop  offset="0" style="stop-color:#FF928E"/>
				<stop  offset="1" style="stop-color:#FEB3B1"/>
			</linearGradient>
			<path style="fill:url(#SVGID_00000042702217437376627520000006916692131908153987_);" d="M850.9,1365.2
				c-0.2-0.4-43.5-5.2-43.5-5.2s1.4,13.2-3,31.3c-4.4,18.1-67.9,96.5-67.9,96.5l6.7,21.1c-20.6,7.2-40.8,8.3-60.8,3.7l41.3-24.8
				c0,0,38.6-131.6,62.3-155.1l43.4-15L850.9,1365.2z"/>
			
				<linearGradient id="SVGID_00000060016778830895970120000000409391485327350660_" gradientUnits="userSpaceOnUse" x1="786.3148" y1="1328.6123" x2="975.1185" y2="1328.6123">
				<stop  offset="0" style="stop-color:#E1473D"/>
				<stop  offset="1" style="stop-color:#E9605A"/>
			</linearGradient>
			<path style="fill:url(#SVGID_00000060016778830895970120000000409391485327350660_);" d="M947.9,1288.6c0,0,24.9,37.1,27,54
				c2,16.9-6.8,23.8-33,24.9c-26.2,1.1-96,1.1-96,1.1l-59.6-50.9c0,0,43.4-15.5,54.7-19.9C852.3,1293.4,947.9,1288.6,947.9,1288.6z"
				/>
			
				<linearGradient id="SVGID_00000057860802758852712890000007373463533747478970_" gradientUnits="userSpaceOnUse" x1="711.6102" y1="1455.7208" x2="699.8632" y2="1635.8412">
				<stop  offset="0" style="stop-color:#09005D"/>
				<stop  offset="1" style="stop-color:#1A0F91"/>
			</linearGradient>
			<path style="fill:url(#SVGID_00000057860802758852712890000007373463533747478970_);" d="M740.6,1501.8c0,0,7.2,6.9,2.3,14.7
				c0,0-56.8,10.1-72.2,5.5c0,0,3.2-7.3,20.6-15.6l-1.3,1c-1.6,1.2-0.7,3.8,1.4,3.7C702.8,1510.4,726.5,1508.3,740.6,1501.8z"/>
		</g>
		<g>
			
				<linearGradient id="SVGID_00000124148423029738859410000014750316520653186479_" gradientUnits="userSpaceOnUse" x1="977.2816" y1="1095.7833" x2="912.7438" y2="1158.9181">
				<stop  offset="0" style="stop-color:#09005D"/>
				<stop  offset="1" style="stop-color:#1A0F91"/>
			</linearGradient>
			<path style="fill:url(#SVGID_00000124148423029738859410000014750316520653186479_);" d="M897.5,1080.4c3.8,1.2,17.3,6,15.6,14.8
				c-0.2,1.2,0.9,2.1,2,1.8c5.8-1.6,18.8-3.6,26.8,6.5c7.1,8.9,1.8,17.2-2.5,21.8c-1,1.1-0.2,2.9,1.3,2.7
				c10.8-1.4,34.1-1.7,37.9,20.2c3.6,20.4-10.6,26.2-19.1,27.8c-1.4,0.3-1.8,2.1-0.5,2.9c4.2,2.7,9.1,8.2,7.1,19.1
				c-3.1,17-36.5,15.7-40.4,15.4c-0.2,0-0.5-0.1-0.7-0.2l-53.5-30.5c-0.4-0.2-0.7-0.7-0.8-1.1l-10.8-62.4c-0.1-0.5,0.1-1,0.4-1.4
				l35.5-36.9C896.3,1080.3,896.9,1080.2,897.5,1080.4z"/>
			<path class="st32" d="M880.5,1283.7c0,0-29-27.6-43.3-45.9c-7.7-9.9-10.1-22.9-6.6-35c6.5-22,18.1-44.7,19.2-48.3
				c1.6-5.4,34.2-5.2,34.2-5.2s64,41.6,89.2,112l-28.3,8.8c0,0-16.7-28.1-33.2-45.9c0,0,28.6,37.8,29.6,53.2L880.5,1283.7z"/>
			
				<linearGradient id="SVGID_00000016033255163881761130000012120798114163131066_" gradientUnits="userSpaceOnUse" x1="864.1077" y1="1148.0179" x2="864.1077" y2="1184.2504">
				<stop  offset="0" style="stop-color:#FF928E"/>
				<stop  offset="1" style="stop-color:#FEB3B1"/>
			</linearGradient>
			<path style="fill:url(#SVGID_00000016033255163881761130000012120798114163131066_);" d="M845.8,1124.2
				c0.3,1.1,8.8,29.3,9.5,29.9c0.7,0.6,18.6,1.6,27.1-4.2l-14.3-30L845.8,1124.2z"/>
			<g>
				
					<linearGradient id="SVGID_00000122714758965301394260000005170174985704914079_" gradientUnits="userSpaceOnUse" x1="891.4771" y1="1103.8488" x2="846.6179" y2="1094.3594">
					<stop  offset="0" style="stop-color:#FF928E"/>
					<stop  offset="1" style="stop-color:#FEB3B1"/>
				</linearGradient>
				<path style="fill:url(#SVGID_00000122714758965301394260000005170174985704914079_);" d="M859.8,1065c0,0-15.3,6.5-25.8,28.6
					c-10.4,22.2-2.6,32.4,7.1,33.8c9.8,1.4,24.4,1.2,39.9-13.1S879.7,1057.4,859.8,1065z"/>
				
					<linearGradient id="SVGID_00000013154982945068742370000015730658909620188560_" gradientUnits="userSpaceOnUse" x1="920.5131" y1="1037.6927" x2="855.8861" y2="1100.9148">
					<stop  offset="0" style="stop-color:#09005D"/>
					<stop  offset="1" style="stop-color:#1A0F91"/>
				</linearGradient>
				<path style="fill:url(#SVGID_00000013154982945068742370000015730658909620188560_);" d="M870.6,1102.5c0,0,11.6-32.4-17.2-32.8
					l-6.8,4.7c0,0-10.5-18,6.8-26.6c17.3-8.6,37.6-1.5,44.9,21.8c7.4,23.3,8.6,38.9-3.6,50.1c-12.3,11.2-17.3-1.5-17.3-1.5
					s6.7-10.4,4-16c-2.7-5.6-9,1.2-9,1.2L870.6,1102.5z"/>
				
					<linearGradient id="SVGID_00000013162266715047541990000004668542043546026685_" gradientUnits="userSpaceOnUse" x1="890.8647" y1="1106.7439" x2="846.0053" y2="1097.2544">
					<stop  offset="0" style="stop-color:#FF928E"/>
					<stop  offset="1" style="stop-color:#FEB3B1"/>
				</linearGradient>
				<path style="fill:url(#SVGID_00000013162266715047541990000004668542043546026685_);" d="M873.8,1106.1c0,0,5.8-16.7,13.7-10
					c7.8,6.7-6.3,15.4-11.9,18.3L873.8,1106.1z"/>
			</g>
			
				<linearGradient id="SVGID_00000035526599975495541900000012636283239329023919_" gradientUnits="userSpaceOnUse" x1="578.0159" y1="1278.8812" x2="736.3311" y2="1278.8812">
				<stop  offset="0" style="stop-color:#FF928E"/>
				<stop  offset="1" style="stop-color:#FEB3B1"/>
			</linearGradient>
			<path style="fill:url(#SVGID_00000035526599975495541900000012636283239329023919_);" d="M821.3,1285.8l21.3-20.6l29.5,12.5
				c0,0,29.4,4.5,46.2,0c16.8-4.5,16.8-4.5,16.8-4.5l38-11.8l6,16.9c1.5,4.3,0,9-3.7,11.7c-3.3,2.3-7.1,4.9-9.6,6
				c-5,2.2-123.3-1.5-123.3-1.5L821.3,1285.8z"/>
		</g>
		<g>
			
				<linearGradient id="SVGID_00000065777381365220960990000014593504727411310483_" gradientUnits="userSpaceOnUse" x1="846.5592" y1="1392.8671" x2="746.8987" y2="1420.1814" gradientTransform="matrix(0.9988 -4.940000e-02 4.940000e-02 0.9988 8.6714 -86.798)">
				<stop  offset="0" style="stop-color:#09005D"/>
				<stop  offset="1" style="stop-color:#1A0F91"/>
			</linearGradient>
			<path style="fill:url(#SVGID_00000065777381365220960990000014593504727411310483_);" d="M902,1295.4c-0.1,0-0.2,0-0.3,0
				l-123.7-0.1c-3.1,0-5.5-2.5-5.5-5.5c0-3.1,2.5-5.6,5.5-5.5l123.7,0.1c3.1,0,5.5,2.5,5.5,5.5C907.3,1292.9,905,1295.3,902,1295.4z
				"/>
			
				<linearGradient id="SVGID_00000182516293337005523720000006628978169032500414_" gradientUnits="userSpaceOnUse" x1="788.1366" y1="1198.1959" x2="717.4229" y2="1272.9359">
				<stop  offset="0" style="stop-color:#09005D"/>
				<stop  offset="1" style="stop-color:#1A0F91"/>
			</linearGradient>
			<path style="fill:url(#SVGID_00000182516293337005523720000006628978169032500414_);" d="M666.9,1183.1h103
				c7.6,0,14.5,4.4,17.8,11.3l47.6,101h-128c-4.9,0-9.3-3-11.1-7.5l-36.9-93.4C657.1,1189,661.1,1183.1,666.9,1183.1z"/>
			
				<linearGradient id="SVGID_00000161621967116448194170000008243935082035798406_" gradientUnits="userSpaceOnUse" x1="745.3869" y1="1216.8057" x2="713.3015" y2="1265.1227">
				<stop  offset="0" style="stop-color:#4042E2"/>
				<stop  offset="1" style="stop-color:#4F52FF"/>
			</linearGradient>
			<path style="fill:url(#SVGID_00000161621967116448194170000008243935082035798406_);" d="M739.4,1234.9c2.2,6.9,0.6,13.7-3.7,15
				c-4.3,1.4-9.5-3.1-11.8-10.1c-2.2-6.9-0.6-13.7,3.7-15C731.9,1223.5,737.2,1228,739.4,1234.9z"/>
		</g>
		<g>
			
				<linearGradient id="SVGID_00000046327405712895441490000017395172938658601113_" gradientUnits="userSpaceOnUse" x1="532.2158" y1="1285.2114" x2="653.9516" y2="1285.2114">
				<stop  offset="0" style="stop-color:#FE7062"/>
				<stop  offset="1" style="stop-color:#FF928E"/>
			</linearGradient>
			<path style="fill:url(#SVGID_00000046327405712895441490000017395172938658601113_);" d="M654,1291.5l-121.7,0v-12.6H654
				C651.3,1278.9,651.3,1291.5,654,1291.5z"/>
			
				<linearGradient id="SVGID_00000083798237081393959170000004419260154759661986_" gradientUnits="userSpaceOnUse" x1="590.0135" y1="1354.5081" x2="589.4918" y2="1323.2083">
				<stop  offset="0" style="stop-color:#A22B25"/>
				<stop  offset="1" style="stop-color:#C0423C"/>
			</linearGradient>
			<path style="fill:url(#SVGID_00000083798237081393959170000004419260154759661986_);" d="M533.2,1291.5c-0.6,0-1-0.4-1-1v-10.6
				c0-0.6,0.4-1,1-1h123.4c0.6,0,1-0.5,1-1v-0.8c0-0.6-0.4-1-1-1H525.2c-2.9,0-5.3,2.4-5.3,5.3v8c0,2.7,2.2,5,5,5h131.7
				c0.6,0,1-0.4,1-1v-0.8c0-0.6-0.4-1-1-1H533.2z"/>
		</g>
		<path class="st11" d="M1074.9,1300c0.3-1.4-0.1-2.9-1.2-4c-1-1.1-2.6-1.7-4.2-1.7H512.4c-2.2,0-4.2,1-5.3,2.5
			c-1.2,1.6-1.3,3.6-0.4,5.3l6,11.3c1.4,2.6,4.4,4.3,7.7,4.3h545.3c3.1,0,5.7-1.9,6.3-4.5L1074.9,1300z"/>
	</g>
	<g>
		
			<linearGradient id="SVGID_00000026867568892759983460000010356576617524600732_" gradientUnits="userSpaceOnUse" x1="1476.7882" y1="198.5331" x2="869.7518" y2="792.3731">
			<stop  offset="0" style="stop-color:#09005D"/>
			<stop  offset="1" style="stop-color:#1A0F91"/>
		</linearGradient>
		<polygon style="fill:url(#SVGID_00000026867568892759983460000010356576617524600732_);" points="749.6,669.5 746.3,663.5 
			978.3,536.7 1193.9,631.5 1379.1,449.9 1379.5,449.7 1596.9,321.3 1600.4,327.3 1383.3,455.4 1195.4,639.7 978.6,544.4 		"/>
		
			<linearGradient id="SVGID_00000038375696015488825020000002394409705380848771_" gradientUnits="userSpaceOnUse" x1="787.7219" y1="627.5715" x2="728.4725" y2="685.5328">
			<stop  offset="0" style="stop-color:#09005D"/>
			<stop  offset="1" style="stop-color:#1A0F91"/>
		</linearGradient>
		<path style="fill:url(#SVGID_00000038375696015488825020000002394409705380848771_);" d="M772.9,666.5c0,13.8-11.2,25-25,25
			c-13.8,0-25-11.2-25-25c0-13.8,11.2-25,25-25C761.7,641.6,772.9,652.7,772.9,666.5z"/>
		
			<linearGradient id="SVGID_00000014629236457423909080000000681432384166072240_" gradientUnits="userSpaceOnUse" x1="1018.2326" y1="501.6224" x2="958.9831" y2="559.5839">
			<stop  offset="0" style="stop-color:#09005D"/>
			<stop  offset="1" style="stop-color:#1A0F91"/>
		</linearGradient>
		<circle style="fill:url(#SVGID_00000014629236457423909080000000681432384166072240_);" cx="978.4" cy="540.6" r="25"/>
		
			<linearGradient id="SVGID_00000129203935386412994200000013701585135691328641_" gradientUnits="userSpaceOnUse" x1="1234.4849" y1="591.9255" x2="1175.2352" y2="649.887">
			<stop  offset="0" style="stop-color:#09005D"/>
			<stop  offset="1" style="stop-color:#1A0F91"/>
		</linearGradient>
		<circle style="fill:url(#SVGID_00000129203935386412994200000013701585135691328641_);" cx="1194.7" cy="630.9" r="25"/>
		
			<linearGradient id="SVGID_00000182511690191232764250000012184528093047982721_" gradientUnits="userSpaceOnUse" x1="1415.0909" y1="413.6957" x2="1355.8416" y2="471.6571">
			<stop  offset="0" style="stop-color:#09005D"/>
			<stop  offset="1" style="stop-color:#1A0F91"/>
		</linearGradient>
		<circle style="fill:url(#SVGID_00000182511690191232764250000012184528093047982721_);" cx="1375.3" cy="452.6" r="25"/>
		
			<linearGradient id="SVGID_00000085217214755172254270000004683145727850510994_" gradientUnits="userSpaceOnUse" x1="1638.4724" y1="285.3702" x2="1579.2229" y2="343.3316">
			<stop  offset="0" style="stop-color:#09005D"/>
			<stop  offset="1" style="stop-color:#1A0F91"/>
		</linearGradient>
		<circle style="fill:url(#SVGID_00000085217214755172254270000004683145727850510994_);" cx="1598.7" cy="324.3" r="25"/>
	</g>
	<g>
		<g>
			<g>
				<path class="st32" d="M1384.6,1391.9c-3.3,4.9-16.3,114.7-18.3,155.3c-0.1,2.7,2.1,5,4.8,5l0,0c2.4,0,4.4-1.7,4.8-4.1
					l23.8-152.7L1384.6,1391.9z"/>
				<path class="st32" d="M1489.4,1391.9c3.3,4.9,16.3,114.7,18.3,155.3c0.1,2.7-2.1,5-4.8,5l0,0c-2.4,0-4.4-1.7-4.8-4.1
					l-23.8-152.7L1489.4,1391.9z"/>
				
					<linearGradient id="SVGID_00000155106553771029708640000012423416501582346880_" gradientUnits="userSpaceOnUse" x1="1074.7061" y1="1521.2046" x2="1094.5487" y2="1425.9597" gradientTransform="matrix(1 0 0 1 333.8425 0)">
					<stop  offset="0" style="stop-color:#E1473D"/>
					<stop  offset="1" style="stop-color:#E9605A"/>
				</linearGradient>
				<path style="fill:url(#SVGID_00000155106553771029708640000012423416501582346880_);" d="M1364.9,1383.3l0,1.2
					c-0.1,8.6,7.3,15.7,16.6,15.8l110.2,1.9c9.2,0.2,16.8-6.5,17.2-14.9l0.1-1.1c0.5-8.8-7.1-16.3-16.6-16.5l-110.2-2
					C1372.7,1367.6,1365,1374.6,1364.9,1383.3z"/>
			</g>
			<g>
				<g>
					
						<linearGradient id="SVGID_00000059302169770994664320000015632675968661527723_" gradientUnits="userSpaceOnUse" x1="1213.2579" y1="1542.8188" x2="1293.1437" y2="1542.8188" gradientTransform="matrix(1 0 0 1 333.8425 0)">
						<stop  offset="0" style="stop-color:#4042E2"/>
						<stop  offset="1" style="stop-color:#4F52FF"/>
					</linearGradient>
					<path style="fill:url(#SVGID_00000059302169770994664320000015632675968661527723_);" d="M1579.2,1543.2
						c-19.6,0-28.2-1.7-32.1-3.2c0.8,3.2,3.6,5.8,7.2,5.8h69.3c2.3,0,3.8-2.2,3.2-4.3C1619,1542.1,1602.2,1543.2,1579.2,1543.2z"/>
					
						<linearGradient id="SVGID_00000178185964940067639930000015403693518293634239_" gradientUnits="userSpaceOnUse" x1="1274.8066" y1="1389.2075" x2="1252.9796" y2="1540.0125" gradientTransform="matrix(1 0 0 1 333.8425 0)">
						<stop  offset="0" style="stop-color:#09005D"/>
						<stop  offset="1" style="stop-color:#1A0F91"/>
					</linearGradient>
					<path style="fill:url(#SVGID_00000178185964940067639930000015403693518293634239_);" d="M1626.9,1541.4
						c-0.1-0.4-0.3-0.8-0.6-1.2c-5.3-6.7-15.9-17.3-30.3-17.1c-21.1,0.3-28.5,2.6-44.9,0.1l-3.9,12.8c-0.4,1.3-0.4,2.6-0.1,3.8
						c3.9,1.5,12.5,3.2,32.1,3.2C1602.2,1543.2,1619,1542.1,1626.9,1541.4z"/>
				</g>
				
					<linearGradient id="SVGID_00000111162961704758621740000015134967783553398932_" gradientUnits="userSpaceOnUse" x1="1217.2485" y1="1518.7451" x2="1238.8628" y2="1518.7451" gradientTransform="matrix(1 0 0 1 333.8425 0)">
					<stop  offset="0" style="stop-color:#FF928E"/>
					<stop  offset="1" style="stop-color:#FEB3B1"/>
				</linearGradient>
				<path style="fill:url(#SVGID_00000111162961704758621740000015134967783553398932_);" d="M1555.8,1509.4l-4.8,16.2
					c0,0,10.5,4.8,19.8,0.9l1.8-14L1555.8,1509.4z"/>
				<g>
					
						<linearGradient id="SVGID_00000063595449595825800870000010395672530024449979_" gradientUnits="userSpaceOnUse" x1="1338.5546" y1="1526.9875" x2="1403.0531" y2="1526.9875" gradientTransform="matrix(1 0 0 1 333.8425 0)">
						<stop  offset="0" style="stop-color:#4042E2"/>
						<stop  offset="1" style="stop-color:#4F52FF"/>
					</linearGradient>
					<path style="fill:url(#SVGID_00000063595449595825800870000010395672530024449979_);" d="M1699.4,1533
						c-15.3,12.3-23.1,16.4-27,17.6c2.6,2,6.4,2.2,9.2-0.1l54-43.4c1.8-1.5,1.6-4.1-0.1-5.3
						C1729.8,1507.2,1717.3,1518.6,1699.4,1533z"/>
					
						<linearGradient id="SVGID_00000028321499613995160480000013418765521646193538_" gradientUnits="userSpaceOnUse" x1="1382.9194" y1="1404.856" x2="1361.0927" y2="1555.66" gradientTransform="matrix(1 0 0 1 333.8425 0)">
						<stop  offset="0" style="stop-color:#09005D"/>
						<stop  offset="1" style="stop-color:#1A0F91"/>
					</linearGradient>
					<path style="fill:url(#SVGID_00000028321499613995160480000013418765521646193538_);" d="M1735.5,1501.8
						c-0.3-0.2-0.7-0.5-1.2-0.6c-8.3-1.9-23.2-3.5-34.3,5.7c-16.3,13.5-20.6,19.9-34.9,28.2l5,12.4c0.5,1.3,1.3,2.3,2.3,3
						c4-1.2,11.8-5.4,27-17.6C1717.3,1518.6,1729.8,1507.2,1735.5,1501.8z"/>
				</g>
				
					<linearGradient id="SVGID_00000181075257823721366910000015830954095248803726_" gradientUnits="userSpaceOnUse" x1="1516.1742" y1="1379.5406" x2="1499.999" y2="1455.2406">
					<stop  offset="0" style="stop-color:#09005D"/>
					<stop  offset="1" style="stop-color:#1A0F91"/>
				</linearGradient>
				<path style="fill:url(#SVGID_00000181075257823721366910000015830954095248803726_);" d="M1454.1,1325.2
					c0,0,117.2,9.6,141.3,20.9c24.1,11.3-19.6,170-19.6,170s-6.5,3.2-21.1-1.4c0,0,14.9-117.1,3.8-142.5l-127-20.8L1454.1,1325.2z"
					/>
				
					<linearGradient id="SVGID_00000100385207986498613680000015992983234432532636_" gradientUnits="userSpaceOnUse" x1="1319.6254" y1="1520.5642" x2="1345.4303" y2="1520.5642" gradientTransform="matrix(1 0 0 1 333.8425 0)">
					<stop  offset="0" style="stop-color:#FF928E"/>
					<stop  offset="1" style="stop-color:#FEB3B1"/>
				</linearGradient>
				<path style="fill:url(#SVGID_00000100385207986498613680000015992983234432532636_);" d="M1653.5,1512.9
					c1.1,1,11.6,22.3,11.6,22.3s11.8-2.5,14.2-10l-10.6-19.2L1653.5,1512.9z"/>
				
					<linearGradient id="SVGID_00000098943177366284110330000014522687915614566030_" gradientUnits="userSpaceOnUse" x1="1551.7213" y1="1261.801" x2="1536.8401" y2="1356.264">
					<stop  offset="0" style="stop-color:#09005D"/>
					<stop  offset="1" style="stop-color:#1A0F91"/>
				</linearGradient>
				<path style="fill:url(#SVGID_00000098943177366284110330000014522687915614566030_);" d="M1383.5,1324.2c0,0-3.8,9.2-3.7,21.4
					c0.2,16.9,13.8,30.6,30.7,31.5l138.6,6.3c2.9,0.1,5.4,2.2,6.1,5c3.3,12.6,19.2,51.3,97,128.5c2.1,2.1,5.3,2.4,7.8,0.8l11.1-7
					c1.2-0.7,1.5-2.3,0.8-3.4l-80.7-137.8c-4.2-7-11.1-12-19-14.1l-118.1-30.2L1383.5,1324.2z"/>
				
					<linearGradient id="SVGID_00000038399928111622745660000006439220701735488692_" gradientUnits="userSpaceOnUse" x1="1531.8588" y1="1139.3268" x2="1571.3262" y2="1115.3876">
					<stop  offset="0" style="stop-color:#FF928E"/>
					<stop  offset="1" style="stop-color:#FEB3B1"/>
				</linearGradient>
				<path style="fill:url(#SVGID_00000038399928111622745660000006439220701735488692_);" d="M1544.3,1112.1
					c0,0-39.1,23.2-54.2,35.9l31.3,17.5c0,0,16.9-19.5,33-27.7L1544.3,1112.1z"/>
				
					<linearGradient id="SVGID_00000022528870582424439750000001717380457583750330_" gradientUnits="userSpaceOnUse" x1="1518.6975" y1="1258.9504" x2="1436.2019" y2="1464.4393">
					<stop  offset="0" style="stop-color:#09005D"/>
					<stop  offset="1" style="stop-color:#1A0F91"/>
				</linearGradient>
				<path style="fill:url(#SVGID_00000022528870582424439750000001717380457583750330_);" d="M1381,1325.2c0,0,37.4,9.1,73.1,0
					c0,0,50-67.2,69.3-85.5c0,0,30.8,48.7,99.5,55.6l3.8-8.6c0,0-54.7-25.2-71.5-63.9c-16.8-38.7-23.6-55.2-38.9-65.3
					c-9.5-6.3-15.2-10.6-18.2-12.9c-1.6-1.3-3.8-1.4-5.6-0.4C1476.4,1154.1,1399.9,1206.5,1381,1325.2z"/>
				<g>
					
						<linearGradient id="SVGID_00000137821434328733715160000015266379968424944523_" gradientUnits="userSpaceOnUse" x1="1530.8055" y1="1199.7405" x2="1433.3231" y2="1305.8495">
						<stop  offset="0" style="stop-color:#4042E2"/>
						<stop  offset="1" style="stop-color:#4F52FF"/>
					</linearGradient>
					<path style="fill:url(#SVGID_00000137821434328733715160000015266379968424944523_);" d="M1521.4,1237.2c0.2,0,0.3-0.1,0.5-0.2
						c0.4-0.3,0.4-0.8,0.2-1.1c-11.6-15.2-18.3-32.4-18.4-32.6c-0.2-0.4-0.6-0.6-1.1-0.5c-0.4,0.2-0.6,0.6-0.5,1.1
						c0.1,0.2,6.8,17.6,18.6,33C1520.9,1237.1,1521.2,1237.2,1521.4,1237.2z"/>
				</g>
				
					<linearGradient id="SVGID_00000181082025212973201190000000795959720142102436_" gradientUnits="userSpaceOnUse" x1="1284.9781" y1="1281.701" x2="1344.5844" y2="1281.701" gradientTransform="matrix(1 0 0 1 333.8425 0)">
					<stop  offset="0" style="stop-color:#F9B776"/>
					<stop  offset="1" style="stop-color:#F47960"/>
				</linearGradient>
				<path style="fill:url(#SVGID_00000181082025212973201190000000795959720142102436_);" d="M1618.8,1282.3l7.7-2.1l23.5-5.4
					c2.8-0.7,5.8-0.2,8.2,1.4l20.2,12.7l-55.7-0.1L1618.8,1282.3z"/>
			</g>
			<g>
				<g>
					<path class="st2" d="M1597.3,1299.8c0.1,0,0.2,0,0.3,0l119-0.1c2.9,0,5.3-2.4,5.3-5.3c0-2.9-2.4-5.4-5.3-5.3l-119,0.1
						c-2.9,0-5.3,2.4-5.3,5.3C1592.2,1297.3,1594.5,1299.7,1597.3,1299.8z"/>
				</g>
				<g>
					<path class="st2" d="M1762.7,1183.3c0,0.1-0.1,0.2-0.1,0.2l-50.1,108c-1.2,2.7-0.1,5.8,2.6,7.1c2.7,1.2,5.9,0.1,7.1-2.6
						l50.1-108c1.2-2.7,0.1-5.8-2.6-7.1C1767,1179.7,1764,1180.8,1762.7,1183.3z"/>
				</g>
			</g>
			<g>
				<path class="st11" d="M1650.3,1305.8c-0.5,2.2-50.2,188.4-62.8,235.6c-1.5,5.4,2.6,10.8,8.2,10.8l0,0c3.9,0,7.3-2.7,8.2-6.5
					l55.1-223.5L1650.3,1305.8z"/>
				<path class="st11" d="M1677.5,1305.8c0.5,2.2,50.2,188.4,62.8,235.6c1.5,5.4-2.6,10.8-8.2,10.8l0,0c-3.9,0-7.3-2.7-8.2-6.5
					l-55.1-223.5L1677.5,1305.8z"/>
				<path class="st11" d="M1679.6,1299.7h-30.9v24.8c0,3.6,2.9,6.5,6.4,6.5h4.2v55.8c0,2.7,2.2,4.9,4.8,4.9l0,0
					c2.7,0,4.8-2.2,4.8-4.9V1331h2.2c4.7,0,8.5-3.8,8.5-8.6V1299.7z"/>
				
					<linearGradient id="SVGID_00000090276144211803363770000008387301105224255900_" gradientUnits="userSpaceOnUse" x1="1669.4885" y1="1049.9373" x2="1663.0183" y2="1210.396">
					<stop  offset="0" style="stop-color:#09005D"/>
					<stop  offset="1" style="stop-color:#1A0F91"/>
				</linearGradient>
				<path style="fill:url(#SVGID_00000090276144211803363770000008387301105224255900_);" d="M1572.6,1293.7h172.7
					c2.4,0,4.5,1.7,5.1,4l2.4,9.5c0.9,3.4-1.7,6.7-5.2,6.7l-177.2-1c-3.4,0-5.9-3.3-5.1-6.7l2.1-8.4
					C1568,1295.4,1570.2,1293.7,1572.6,1293.7z"/>
			</g>
		</g>
		<g>
			
				<linearGradient id="SVGID_00000127026554782819364350000004536575956929801120_" gradientUnits="userSpaceOnUse" x1="1572.3302" y1="1109.943" x2="1525.7456" y2="1140.9995">
				<stop  offset="0" style="stop-color:#FF928E"/>
				<stop  offset="1" style="stop-color:#FEB3B1"/>
			</linearGradient>
			<path style="fill:url(#SVGID_00000127026554782819364350000004536575956929801120_);" d="M1571,1102.9c0,0,0.4,27.7-4.1,40.3
				c-4.5,12.6-5.2,21.7-20.4,18.2c-15.3-3.5-24.3-15.6-25.6-30.6c0,0-2.2-23.1,3.3-29.9C1529.7,1094.1,1571,1102.9,1571,1102.9z"/>
			
				<linearGradient id="SVGID_00000143617368220929795510000007570294255398503869_" gradientUnits="userSpaceOnUse" x1="1758.4133" y1="-601.2422" x2="1815.6909" y2="-527.4975" gradientTransform="matrix(0.922 0.3871 -0.3871 0.922 -315.6554 945.6825)">
				<stop  offset="0" style="stop-color:#09005D"/>
				<stop  offset="1" style="stop-color:#1A0F91"/>
			</linearGradient>
			<path style="fill:url(#SVGID_00000143617368220929795510000007570294255398503869_);" d="M1529.4,1124.1l1.8,0.8
				c0,0-1-18.3,6.6-18.2c7.6,0.1,35.6,5.6,45-1.2c9.1-6.6,9.1-20,3.2-26.2c-0.4-0.4-1-0.4-1.4-0.1l-1.1,0.9c-0.7,0.6-1.8,0-1.7-0.9
				l0,0c0.1-0.9-0.9-1.5-1.6-1c-2.9,2-9.3,4.5-22.7,1.6c-18.9-4.1-33.5-1.9-38.9,10.1c-0.3,0.8-1.3,0.8-1.8,0.2
				c-1-1.3-2.9-2.6-6.6-1.4c-6.5,2-9,13.4-2,26.4c0.3,0.6,0,1.4-0.7,1.5c-2.4,0.4-6.5,2.2-0.8,9.3c5.9,7.2,10.5,8.7,12.4,8.9
				c0.5,0.1,1-0.2,1.2-0.7l3.8-11c0.2-0.6,0.8-0.9,1.4-0.6L1529.4,1124.1z"/>
			
				<linearGradient id="SVGID_00000118370531198310163910000010347990167475211138_" gradientUnits="userSpaceOnUse" x1="1562.6876" y1="1095.4794" x2="1516.103" y2="1126.5358">
				<stop  offset="0" style="stop-color:#FF928E"/>
				<stop  offset="1" style="stop-color:#FEB3B1"/>
			</linearGradient>
			<path style="fill:url(#SVGID_00000118370531198310163910000010347990167475211138_);" d="M1528.9,1126.5c0,0,2.4-16.6-6.1-15.2
				c-8.5,1.4-3.6,18.2,1.6,21.1L1528.9,1126.5z"/>
		</g>
	</g>
	<g>
		<g>
			
				<linearGradient id="SVGID_00000125589575877802481000000002283223215891902860_" gradientUnits="userSpaceOnUse" x1="1670.8112" y1="995.6827" x2="1765.9716" y2="885.2288">
				<stop  offset="0" style="stop-color:#E1473D"/>
				<stop  offset="1" style="stop-color:#E9605A"/>
			</linearGradient>
			<circle style="fill:url(#SVGID_00000125589575877802481000000002283223215891902860_);" cx="1767.9" cy="883" r="70.9"/>
			
				<linearGradient id="SVGID_00000011000125897245732820000005035923989828457363_" gradientUnits="userSpaceOnUse" x1="1819.7434" y1="804.6677" x2="1538.3516" y2="1229.7705">
				<stop  offset="0" style="stop-color:#FF928E"/>
				<stop  offset="1" style="stop-color:#FEB3B1"/>
			</linearGradient>
			<circle style="fill:url(#SVGID_00000011000125897245732820000005035923989828457363_);" cx="1767.9" cy="883" r="68.6"/>
			<path class="st77" d="M1711.3,856.8c-0.3,0-0.7-0.1-1-0.2c-1.1-0.6-1.6-2-1-3.1c11.2-22.3,33.7-36.1,58.6-36.1
				c4,0,8,0.4,11.8,1.1c1.2,0.2,2.1,1.4,1.8,2.7c-0.2,1.2-1.4,2.1-2.7,1.8c-3.6-0.7-7.3-1-11-1c-23.2,0-44.1,12.9-54.5,33.6
				C1713,856.3,1712.2,856.8,1711.3,856.8z"/>
			<circle class="st78" cx="1769.4" cy="884.5" r="58.1"/>
			<g>
				
					<linearGradient id="SVGID_00000176021370964398911940000008042036781452349056_" gradientUnits="userSpaceOnUse" x1="1811.3491" y1="816.8484" x2="1661.5143" y2="1068.3964">
					<stop  offset="0" style="stop-color:#E1473D"/>
					<stop  offset="1" style="stop-color:#E9605A"/>
				</linearGradient>
				<path style="fill:url(#SVGID_00000176021370964398911940000008042036781452349056_);" d="M1763.7,927.6v-6.3
					c-6.6-0.3-13.1-1.8-17.7-3.8c-1.7-0.7-2.5-2.6-2-4.3l1.6-5.9c0.6-2.2,2.9-3.3,5-2.4c4.6,1.9,10.3,3.4,16.4,3.4
					c6.3,0,11.1-2.1,11.1-6.6c0-4-3.7-6.3-12.5-8.7c-12.6-3.4-21.6-8.9-21.6-20c0-10,7.3-17.6,20-19.7v-6.3c0-2,1.6-3.7,3.7-3.7h3.7
					c2,0,3.7,1.6,3.7,3.7v5.7c6.1,0.2,10.5,1.3,14,2.5c1.8,0.6,2.8,2.6,2.3,4.4l-1.5,5.4c-0.6,2.1-2.8,3.2-4.8,2.5
					c-3.2-1.2-7.8-2.5-13.8-2.5c-7.5,0-9.7,3.1-9.7,5.9c0,3.4,4.5,5.8,14.3,8.8c14,4.2,19.8,10,19.8,20.4c0,9.6-7.1,18.2-20.9,20.3
					v7.1c0,2-1.6,3.7-3.7,3.7h-3.7C1765.3,931.3,1763.7,929.7,1763.7,927.6z"/>
			</g>
		</g>
		<g>
			
				<linearGradient id="SVGID_00000105395719298636389820000017956498446500381315_" gradientUnits="userSpaceOnUse" x1="1800.8379" y1="995.0296" x2="1966.4956" y2="802.7485">
				<stop  offset="0" style="stop-color:#E1473D"/>
				<stop  offset="1" style="stop-color:#E9605A"/>
			</linearGradient>
			<circle style="fill:url(#SVGID_00000105395719298636389820000017956498446500381315_);" cx="1969.8" cy="798.9" r="123.5"/>
			
				<linearGradient id="SVGID_00000077299107043686947200000010539366293601961115_" gradientUnits="userSpaceOnUse" x1="2060.103" y1="662.5056" x2="1570.2484" y2="1402.5364">
				<stop  offset="0" style="stop-color:#FF928E"/>
				<stop  offset="1" style="stop-color:#FEB3B1"/>
			</linearGradient>
			<circle style="fill:url(#SVGID_00000077299107043686947200000010539366293601961115_);" cx="1969.8" cy="798.9" r="119.4"/>
			<path class="st77" d="M1871.4,751.6c-0.3,0-0.7-0.1-1-0.2c-1.1-0.6-1.6-2-1-3.1c19.3-38.2,57.8-61.9,100.5-61.9
				c6.8,0,13.6,0.6,20.3,1.8c1.2,0.2,2.1,1.4,1.8,2.7c-0.2,1.2-1.4,2.1-2.7,1.8c-6.4-1.2-12.9-1.8-19.5-1.8
				c-41,0-77.9,22.7-96.4,59.4C1873,751.1,1872.2,751.6,1871.4,751.6z"/>
			<circle class="st78" cx="1972.4" cy="801.5" r="101.1"/>
			<g>
				
					<linearGradient id="SVGID_00000160905140092619789500000009596363272689509290_" gradientUnits="userSpaceOnUse" x1="2045.4904" y1="683.7097" x2="1784.6527" y2="1121.6128">
					<stop  offset="0" style="stop-color:#E1473D"/>
					<stop  offset="1" style="stop-color:#E9605A"/>
				</linearGradient>
				<path style="fill:url(#SVGID_00000160905140092619789500000009596363272689509290_);" d="M1962.5,876.6v-11
					c-11.5-0.5-22.8-3.2-30.8-6.7c-2.9-1.3-4.3-4.5-3.5-7.5l2.8-10.2c1-3.8,5.1-5.7,8.7-4.2c8,3.3,17.8,6,28.5,6
					c11,0,19.3-3.7,19.3-11.4c0-6.9-6.4-11-21.7-15.2c-21.9-6-37.6-15.5-37.6-34.8c0-17.4,12.7-30.7,34.8-34.2v-11
					c0-3.5,2.9-6.4,6.4-6.4h6.5c3.5,0,6.4,2.9,6.4,6.4v9.9c10.6,0.4,18.3,2.2,24.5,4.4c3.1,1.1,4.9,4.5,4,7.7l-2.6,9.5
					c-1,3.7-4.9,5.7-8.4,4.3c-5.6-2.1-13.6-4.4-24-4.4c-13.1,0-16.8,5.4-16.8,10.3c0,6,7.9,10.1,24.9,15.3
					c24.3,7.3,34.4,17.4,34.4,35.5c0,16.7-12.3,31.6-36.3,35.4v12.3c0,3.5-2.9,6.4-6.4,6.4h-6.5
					C1965.4,883,1962.5,880.1,1962.5,876.6z"/>
			</g>
		</g>
		<g>
			
				<linearGradient id="SVGID_00000130623821397771402420000012059125611994387130_" gradientUnits="userSpaceOnUse" x1="1881.115" y1="1276.569" x2="2051.5747" y2="1078.714">
				<stop  offset="0" style="stop-color:#E1473D"/>
				<stop  offset="1" style="stop-color:#E9605A"/>
			</linearGradient>
			<circle style="fill:url(#SVGID_00000130623821397771402420000012059125611994387130_);" cx="2055" cy="1074.7" r="127.1"/>
			
				<linearGradient id="SVGID_00000064355661449641610650000013731475771872215219_" gradientUnits="userSpaceOnUse" x1="2147.8958" y1="934.4056" x2="1643.8414" y2="1695.8879">
				<stop  offset="0" style="stop-color:#FF928E"/>
				<stop  offset="1" style="stop-color:#FEB3B1"/>
			</linearGradient>
			<circle style="fill:url(#SVGID_00000064355661449641610650000013731475771872215219_);" cx="2055" cy="1074.7" r="122.9"/>
			<path class="st77" d="M1953.7,1026c-0.3,0-0.7-0.1-1-0.2c-1.1-0.6-1.6-2-1-3.1c19.8-39.3,59.4-63.6,103.4-63.6
				c7,0,14,0.6,20.9,1.9c1.2,0.2,2.1,1.4,1.8,2.7c-0.2,1.2-1.4,2.1-2.7,1.8c-6.6-1.2-13.3-1.8-20-1.8c-42.2,0-80.2,23.4-99.3,61.1
				C1955.4,1025.5,1954.5,1026,1953.7,1026z"/>
			
				<ellipse transform="matrix(0.2323 -0.9726 0.9726 0.2323 531.7056 2828.4639)" class="st78" cx="2057.7" cy="1077.4" rx="104" ry="104"/>
			<g>
				
					<linearGradient id="SVGID_00000035500485547182702660000000435781581905271973_" gradientUnits="userSpaceOnUse" x1="2132.8591" y1="956.2245" x2="1864.4606" y2="1406.8213">
					<stop  offset="0" style="stop-color:#E1473D"/>
					<stop  offset="1" style="stop-color:#E9605A"/>
				</linearGradient>
				<path style="fill:url(#SVGID_00000035500485547182702660000000435781581905271973_);" d="M2047.5,1154.7v-11.3
					c-11.8-0.5-23.5-3.3-31.7-6.9c-3-1.3-4.5-4.6-3.6-7.7l2.9-10.5c1.1-3.9,5.3-5.9,9-4.3c8.2,3.4,18.4,6.2,29.3,6.2
					c11.4,0,19.8-3.9,19.8-11.7c0-7.1-6.5-11.4-22.3-15.6c-22.5-6.2-38.7-16-38.7-35.8c0-17.9,13.1-31.6,35.8-35.2v-11.3
					c0-3.6,3-6.6,6.6-6.6h6.6c3.6,0,6.6,3,6.6,6.6v10.2c10.9,0.4,18.9,2.3,25.2,4.5c3.2,1.1,5,4.6,4.1,7.9l-2.6,9.7
					c-1,3.8-5,5.8-8.7,4.4c-5.8-2.2-14-4.5-24.7-4.5c-13.5,0-17.3,5.6-17.3,10.6c0,6.2,8.1,10.4,25.6,15.8
					c25,7.5,35.4,17.9,35.4,36.6c0,17.1-12.7,32.5-37.3,36.4v12.7c0,3.6-3,6.6-6.6,6.6h-6.6
					C2050.4,1161.3,2047.5,1158.3,2047.5,1154.7z"/>
			</g>
		</g>
		<g>
			
				<linearGradient id="SVGID_00000022534452529922156200000003234555092817939635_" gradientUnits="userSpaceOnUse" x1="2090.6323" y1="1049.499" x2="2215.5271" y2="904.5321">
				<stop  offset="0" style="stop-color:#E1473D"/>
				<stop  offset="1" style="stop-color:#E9605A"/>
			</linearGradient>
			<circle style="fill:url(#SVGID_00000022534452529922156200000003234555092817939635_);" cx="2218" cy="901.6" r="93.1"/>
			
				<linearGradient id="SVGID_00000173132374200427373670000012444169706966007195_" gradientUnits="userSpaceOnUse" x1="2286.1006" y1="798.7986" x2="1916.7839" y2="1356.7308">
				<stop  offset="0" style="stop-color:#FF928E"/>
				<stop  offset="1" style="stop-color:#FEB3B1"/>
			</linearGradient>
			<circle style="fill:url(#SVGID_00000173132374200427373670000012444169706966007195_);" cx="2218" cy="901.6" r="90"/>
			<path class="st77" d="M2143.8,866.5c-0.3,0-0.7-0.1-1-0.2c-1.1-0.6-1.6-2-1-3.1c14.6-29,43.8-47,76.3-47c5.2,0,10.3,0.5,15.4,1.4
				c1.2,0.2,2.1,1.4,1.8,2.7c-0.2,1.2-1.4,2.1-2.7,1.8c-4.8-0.9-9.7-1.3-14.6-1.3c-30.7,0-58.3,17-72.2,44.4
				C2145.5,866,2144.7,866.5,2143.8,866.5z"/>
			
				<ellipse transform="matrix(0.8858 -0.4641 0.4641 0.8858 -165.781 1133.5131)" class="st78" cx="2220" cy="903.6" rx="76.2" ry="76.2"/>
			<g>
				
					<linearGradient id="SVGID_00000043453944071406984860000016237844214731265965_" gradientUnits="userSpaceOnUse" x1="2275.0837" y1="814.785" x2="2078.4302" y2="1144.934">
					<stop  offset="0" style="stop-color:#E1473D"/>
					<stop  offset="1" style="stop-color:#E9605A"/>
				</linearGradient>
				<path style="fill:url(#SVGID_00000043453944071406984860000016237844214731265965_);" d="M2212.5,960.2v-8.3
					c-8.6-0.3-17.2-2.4-23.3-5c-2.2-0.9-3.3-3.4-2.6-5.7l2.1-7.7c0.8-2.8,3.9-4.3,6.6-3.2c6,2.5,13.5,4.5,21.5,4.5
					c8.3,0,14.5-2.8,14.5-8.6c0-5.2-4.8-8.3-16.4-11.4c-16.5-4.5-28.4-11.7-28.4-26.2c0-13.1,9.6-23.1,26.2-25.8v-8.3
					c0-2.7,2.2-4.8,4.8-4.8h4.9c2.7,0,4.8,2.2,4.8,4.8v7.4c8,0.3,13.8,1.7,18.4,3.3c2.4,0.8,3.7,3.4,3,5.8l-1.9,7.1
					c-0.7,2.8-3.7,4.3-6.4,3.3c-4.3-1.6-10.3-3.3-18.1-3.3c-9.9,0-12.7,4.1-12.7,7.8c0,4.5,5.9,7.6,18.8,11.6
					c18.3,5.5,26,13.1,26,26.8c0,12.6-9.3,23.8-27.4,26.7v9.3c0,2.7-2.2,4.8-4.8,4.8h-4.9C2214.7,965,2212.5,962.9,2212.5,960.2z"/>
			</g>
		</g>
	</g>
	<g>
		<g>
			<path class="st32" d="M1261.2,243.8c0,0,0.5-0.8,1.4-2.2c0.5-0.8,1.6-1,2.4-0.5c0.4,0.2,0.6,0.6,0.7,0.9c0.7-0.2,1.6-0.4,2.5-0.6
				c0.9-0.2,1.8,0.3,2.1,1.3c0.2,0.9-0.3,1.9-1.3,2.1c-2.6,0.6-4.4,1.2-5.3,1.5c-0.3,0.1-0.4,0.1-0.5,0.2l-4.1,1.1L1261.2,243.8z
				 M1267.5,234.4c1.6-2.3,3.4-4.7,5.1-7c0.6-0.8,1.7-0.9,2.4-0.3c0.7,0.6,0.9,1.7,0.3,2.4c-1.7,2.3-3.4,4.6-5.1,6.9
				c-0.5,0.8-1.6,1-2.4,0.4c-0.1-0.1-0.3-0.2-0.3-0.3C1267.1,235.9,1267,235.1,1267.5,234.4z M1275.3,241.7
				c-0.1-0.9,0.5-1.8,1.5-1.9c3-0.4,5.9-0.7,8.7-0.8c0.9,0,1.8,0.7,1.8,1.6c0,0.9-0.7,1.8-1.6,1.8c-2.7,0.1-5.5,0.4-8.4,0.8
				c-0.6,0.1-1.2-0.2-1.6-0.6C1275.5,242.3,1275.4,242,1275.3,241.7z M1292.5,240.6c0.1-0.9,0.9-1.7,1.9-1.6c3,0.2,6,0.7,8.7,1.4
				c0.9,0.2,1.5,1.1,1.3,2.1c-0.2,0.9-1.2,1.5-2.1,1.3c-2.6-0.6-5.4-1.1-8.2-1.3c-0.5,0-0.9-0.3-1.2-0.6
				C1292.6,241.5,1292.4,241.1,1292.5,240.6z M1278,220.7c1.8-2.2,3.7-4.5,5.6-6.6c0.6-0.7,1.7-0.8,2.4-0.1c0.7,0.6,0.8,1.7,0.1,2.4
				c-1.9,2.1-3.7,4.3-5.5,6.5c-0.6,0.7-1.7,0.8-2.4,0.2c-0.1-0.1-0.2-0.2-0.3-0.3C1277.5,222.2,1277.5,221.3,1278,220.7z
				 M1309.2,244.1c0.4-0.9,1.4-1.2,2.3-0.9c2,0.9,3.8,1.9,5.6,3.1c0.7,0.5,1.4,0.9,2,1.3c0.8,0.5,1.1,1.5,0.6,2.4
				c-0.5,0.8-1.5,1.1-2.4,0.6c-0.7-0.4-1.4-0.9-2.1-1.4c-1.6-1.1-3.3-2-5.1-2.8c-0.3-0.1-0.5-0.3-0.6-0.5
				C1309,245.4,1308.9,244.7,1309.2,244.1z M1332.6,268.5c0.5-0.5,1.2-0.6,1.8-0.4c1.5-0.5,3.2-0.6,5.2-0.3c0.9,0.1,1.6,1,1.5,1.9
				c-0.1,0.9-1,1.6-1.9,1.5c-2.4-0.3-4.1,0.1-5.5,1.1l-2.2-2.6L1332.6,268.5z M1324.3,252.4c0.4-0.9,1.4-1.3,2.2-1
				c2.7,1.1,5.4,1.8,7.8,2.1c0.9,0.1,1.6,1,1.5,1.9c-0.1,0.9-1,1.6-1.9,1.5c-2.8-0.3-5.7-1.1-8.7-2.3c-0.3-0.1-0.5-0.3-0.7-0.5
				C1324.2,253.6,1324,252.9,1324.3,252.4z M1289.5,207.7c2-2.1,4.1-4.2,6.1-6.1c0.7-0.7,1.8-0.6,2.4,0.1c0.7,0.7,0.6,1.8-0.1,2.4
				c-2,1.9-4.1,4-6,6c-0.7,0.7-1.7,0.7-2.4,0.1c-0.1-0.1-0.1-0.1-0.2-0.2C1288.9,209.3,1288.9,208.4,1289.5,207.7z M1338.6,262.3
				c2.3-2.4,4.3-4.5,5.9-6.2c0.6-0.7,1.7-0.7,2.4-0.1c0.7,0.6,0.7,1.7,0.1,2.4c-1.6,1.8-3.6,3.9-5.9,6.3c-0.7,0.7-1.7,0.7-2.4,0
				c-0.1-0.1-0.1-0.1-0.1-0.2C1338,263.9,1338,263,1338.6,262.3z M1346.1,270.8c0.2-0.9,1.2-1.5,2.1-1.3c2.4,0.6,5.1,1.2,8.3,1.7
				c0.9,0.1,1.6,1,1.4,2c-0.1,0.9-1,1.6-2,1.4c-3.3-0.5-6-1.1-8.6-1.7c-0.4-0.1-0.7-0.3-0.9-0.6
				C1346.1,271.9,1346,271.4,1346.1,270.8z M1341,255.1c-0.3-0.9,0.3-1.9,1.2-2.1c2.7-0.8,4.6-1.9,5.8-2.7c0.5-0.3,1-0.6,1.3-0.8
				c0.2-0.1,0.3-0.2,0.5-0.2c0.9-0.3,1.8,0.2,2.1,1.1c0.3,0.9-0.2,1.9-1.1,2.2c-0.3,0.1-0.6,0.3-1,0.6c-1.3,0.8-3.6,2.3-6.7,3.1
				c-0.7,0.2-1.4-0.1-1.8-0.6C1341.2,255.5,1341.1,255.3,1341,255.1z M1302,195.7c1.9-1.7,3.9-3.4,5.9-4.9l0.8-0.6
				c0.7-0.6,1.8-0.5,2.4,0.3l0,0c0.6,0.7,0.5,1.8-0.3,2.4l-0.8,0.6c-1.9,1.5-3.9,3.2-5.8,4.8c-0.7,0.6-1.8,0.6-2.4-0.2
				c0,0,0,0,0-0.1C1301.2,197.4,1301.3,196.3,1302,195.7z M1363,273.7c0-0.9,0.8-1.7,1.8-1.6c2.7,0.1,5.6,0.1,8.4-0.1
				c0.9-0.1,1.8,0.7,1.8,1.6c0.1,0.9-0.7,1.8-1.6,1.8c-3,0.2-5.9,0.2-8.8,0.1c-0.5,0-1-0.3-1.3-0.6
				C1363.2,274.5,1363,274.1,1363,273.7z M1380.2,273.1c-0.1-0.9,0.5-1.8,1.4-2c0.6-0.1,1.2-0.2,1.8-0.3c2.2-0.4,4.3-0.8,6.4-1.4
				c0.9-0.3,1.9,0.3,2.1,1.2c0.3,0.9-0.3,1.9-1.2,2.1c-2.2,0.6-4.5,1.1-6.8,1.5c-0.6,0.1-1.2,0.2-1.9,0.3c-0.6,0.1-1.2-0.2-1.6-0.6
				C1380.3,273.7,1380.2,273.4,1380.2,273.1z M1315.2,187.4c-0.5-0.8-0.4-1.8,0.4-2.4c2.4-1.7,4.8-3.3,7.3-4.8
				c0.8-0.5,1.9-0.2,2.4,0.6c0.5,0.8,0.2,1.9-0.6,2.4c-2.4,1.4-4.7,3-7.1,4.7C1316.9,188.3,1315.9,188.2,1315.2,187.4
				C1315.3,187.4,1315.2,187.4,1315.2,187.4z M1396.8,268.8c-0.4-0.9,0-1.9,0.8-2.3c2.5-1.1,5-2.5,7.3-4c0.8-0.5,1.9-0.3,2.4,0.5
				c0.5,0.8,0.3,1.9-0.5,2.4c-2.5,1.6-5.1,3.1-7.7,4.3c-0.7,0.3-1.6,0.1-2.1-0.5C1396.9,269,1396.8,268.9,1396.8,268.8z
				 M1329.7,178.2c-0.4-0.8-0.1-1.9,0.7-2.3c2.6-1.4,5.3-2.6,7.9-3.7c0.9-0.4,1.9,0,2.3,0.9c0.4,0.9,0,1.9-0.9,2.3
				c-2.5,1.1-5.1,2.3-7.6,3.6c-0.7,0.4-1.6,0.2-2.1-0.4C1329.9,178.4,1329.8,178.3,1329.7,178.2z M1411.5,257.4c2.1-1.8,4-3.8,5.8-6
				c0.6-0.7,1.7-0.8,2.4-0.2c0.7,0.6,0.8,1.7,0.2,2.4c-1.9,2.3-4,4.4-6.2,6.3c-0.7,0.6-1.8,0.6-2.4-0.1c0,0,0,0-0.1-0.1
				C1410.7,259.1,1410.8,258,1411.5,257.4z M1345.4,171.2c-0.3-0.9,0.2-1.9,1.1-2.2c2.8-0.9,5.6-1.7,8.4-2.3
				c0.9-0.2,1.8,0.4,2.1,1.3c0.2,0.9-0.4,1.8-1.3,2.1c-2.7,0.6-5.4,1.4-8.1,2.3c-0.7,0.2-1.4,0-1.9-0.6
				C1345.6,171.6,1345.5,171.4,1345.4,171.2z M1422.3,244.7c2.3-3.5,3.4-6.2,3.6-6.9l0.5-3.8c0.1-0.9,1-1.6,1.9-1.5
				c0.9,0.1,1.6,1,1.5,1.9l-0.5,3.7l0,0c-0.4,2.5-4,8.3-4.1,8.3c-0.5,0.8-1.6,1-2.4,0.5c-0.2-0.1-0.3-0.2-0.4-0.4
				C1422,246.2,1421.9,245.4,1422.3,244.7z M1362.1,167.1c-0.1-0.9,0.6-1.8,1.5-1.9c2.9-0.3,5.9-0.5,8.7-0.6c0.9,0,1.7,0.8,1.7,1.7
				c0,0.9-0.8,1.7-1.7,1.7c-2.8,0-5.6,0.2-8.4,0.6c-0.6,0.1-1.2-0.2-1.5-0.6C1362.3,167.8,1362.1,167.5,1362.1,167.1z M1379.2,166.6
				c0.1-0.9,0.9-1.6,1.9-1.5c2.9,0.3,5.8,0.7,8.7,1.3c0.9,0.2,1.5,1.1,1.3,2c-0.2,0.9-1.1,1.5-2,1.3c-2.7-0.6-5.5-1-8.3-1.3
				c-0.5,0-0.9-0.3-1.2-0.6C1379.3,167.5,1379.2,167,1379.2,166.6z M1427.7,225.6l1.2-8.5c0.1-0.9,1-1.6,1.9-1.5
				c0.9,0.1,1.6,1,1.5,1.9l-1.2,8.5c-0.1,0.9-1,1.6-1.9,1.5c-0.4-0.1-0.8-0.3-1.1-0.6C1427.8,226.6,1427.6,226.1,1427.7,225.6z
				 M1396.1,169.7c0.3-0.9,1.3-1.4,2.2-1.1c2.7,0.9,5.5,1.9,8.2,3.1c0.9,0.4,1.3,1.4,0.9,2.3c-0.4,0.9-1.4,1.3-2.3,0.9
				c-2.6-1.1-5.3-2.1-7.9-3c-0.3-0.1-0.6-0.3-0.8-0.6C1396,170.9,1395.9,170.3,1396.1,169.7z M1430.2,208.6l1.2-8.5
				c0.1-0.9,1-1.6,1.9-1.5c0.9,0.1,1.6,1,1.5,1.9l-1.2,8.5c-0.1,0.9-1,1.6-1.9,1.5c-0.4-0.1-0.8-0.3-1.1-0.6
				C1430.2,209.5,1430.1,209.1,1430.2,208.6z M1411.9,176.2c0.5-0.8,1.5-1.1,2.3-0.7c2.5,1.4,5,2.8,7.5,4.5c0.8,0.5,1,1.6,0.5,2.4
				c-0.5,0.8-1.6,1-2.4,0.5c-2.4-1.6-4.8-3-7.3-4.3c-0.2-0.1-0.4-0.3-0.5-0.4C1411.7,177.6,1411.6,176.9,1411.9,176.2z
				 M1426.5,185.3c0.6-0.8,1.6-0.9,2.4-0.3c2.2,1.7,4.4,3.4,6.6,5.3l0.7,0.6l-0.2,1.1c-0.1,0.9-1,1.6-1.9,1.5
				c-0.6-0.1-1.1-0.5-1.3-1c-2-1.7-4-3.3-6-4.8c-0.1-0.1-0.2-0.2-0.3-0.3C1426,186.8,1426,186,1426.5,185.3z"/>
		</g>
		
			<linearGradient id="SVGID_00000158719638657985014740000010888193635988492707_" gradientUnits="userSpaceOnUse" x1="-2985.355" y1="2947.8228" x2="-3054.0032" y2="3040.0369" gradientTransform="matrix(0.7384 -0.6743 -0.6743 -0.7384 5647.8579 393.1943)">
			<stop  offset="0" style="stop-color:#E1473D"/>
			<stop  offset="1" style="stop-color:#E9605A"/>
		</linearGradient>
		<path style="fill:url(#SVGID_00000158719638657985014740000010888193635988492707_);" d="M1428.3,219c0,0-17.6,33.8-43.8,23.6
			c-26.2-10.2-50.1-27-62.2-21.8c0,0,46.3-58.3,106.4-15.2L1428.3,219z"/>
		
			<linearGradient id="SVGID_00000052814137236149405520000016177471015485317537_" gradientUnits="userSpaceOnUse" x1="-1762.4087" y1="2595.6545" x2="-1721.0692" y2="2511.4158" gradientTransform="matrix(1.300000e-02 -0.9999 -0.9999 -1.300000e-02 3992.9146 -1411.0511)">
			<stop  offset="0" style="stop-color:#4042E2"/>
			<stop  offset="1" style="stop-color:#4F52FF"/>
		</linearGradient>
		<path style="fill:url(#SVGID_00000052814137236149405520000016177471015485317537_);" d="M1497.3,259.8c0,0-4.5,37.1-16.4,41.7
			c-11.2,4.4-95.5-3.2-103.7-3.9c-0.4,0-0.6-0.3-0.6-0.7l0,0c0-3.1,1.5-5.9,4-7.7c12.1-8.6,48.3-33.9,61.7-38
			C1458.5,246.1,1497.3,259.8,1497.3,259.8z"/>
		<path class="st2" d="M1407.5,295.2c0.1,0.2,0.4,0.3,0.6,0.3c0.5,0,46.7,3.4,66.7,4.1c3.6,0.1,6.8-1.9,8.4-5.1
			c2.4-5,6.9-15,9.4-25.5c0.1-0.5-0.2-0.9-0.6-1c-0.5-0.1-0.9,0.2-1,0.6c-2.5,10.3-6.8,20.2-9.2,25.1c-1.2,2.6-3.9,4.2-6.8,4.1
			c-19.9-0.7-66.1-4-66.6-4.1c-0.5,0-0.9,0.3-0.9,0.8C1407.3,294.8,1407.4,295,1407.5,295.2z"/>
		
			<linearGradient id="SVGID_00000009574041621314280060000017596752890536860606_" gradientUnits="userSpaceOnUse" x1="-1546.4469" y1="2599.595" x2="-1610.7944" y2="2490.7891" gradientTransform="matrix(1.300000e-02 -0.9999 -0.9999 -1.300000e-02 3992.9146 -1411.0511)">
			<stop  offset="0" style="stop-color:#4042E2"/>
			<stop  offset="1" style="stop-color:#4F52FF"/>
		</linearGradient>
		<path style="fill:url(#SVGID_00000009574041621314280060000017596752890536860606_);" d="M1498.4,172.9c0,0-3.6-37.2-15.3-42.1
			c-11.1-4.7-95.6,0.7-103.8,1.3c-0.4,0-0.6,0.3-0.7,0.7l0,0c0,3.1,1.4,6,3.8,7.8c11.8,8.9,47.4,35.1,60.7,39.6
			C1459.3,185.5,1498.4,172.9,1498.4,172.9z"/>
		<path class="st2" d="M1409.6,136.3c0.2,0.2,0.4,0.3,0.7,0.3c0.5,0,46.7-2.2,66.7-2.3c2.9,0,5.5,1.7,6.7,4.3c2.3,5,6.4,15,8.6,25.4
			c0.1,0.5,0.6,0.8,1,0.7c0.5-0.1,0.8-0.6,0.7-1c-2.1-10-5.9-19.5-8.7-25.7c-1.5-3.2-4.7-5.3-8.3-5.3c-20,0.2-66.3,2.3-66.7,2.3
			c-0.5,0-0.8,0.4-0.8,0.9C1409.4,136,1409.5,136.2,1409.6,136.3z"/>
		
			<linearGradient id="SVGID_00000177467254898939881190000007023901374640967853_" gradientUnits="userSpaceOnUse" x1="1491.5867" y1="230.6948" x2="1611.5865" y2="192.6947">
			<stop  offset="0" style="stop-color:#4042E2"/>
			<stop  offset="1" style="stop-color:#4F52FF"/>
		</linearGradient>
		<path style="fill:url(#SVGID_00000177467254898939881190000007023901374640967853_);" d="M1622.9,260.9c-17.4,5.4-37.4,9-59.6,8.8
			c-69.1-0.7-119.8-13.2-134.2-17.1c-2.6-0.7-4.6-2.8-5.2-5.4c-4.9-20.6-4.8-41.2,0.3-61.7c1-3.9,4-6.9,7.9-7.8
			c16.8-4,66.3-14.2,132.5-13.1c22.1,0.4,41.9,4.4,59,10.2C1632.7,209.3,1627.1,242.4,1622.9,260.9z"/>
		
			<linearGradient id="SVGID_00000031194592952086037760000013797884001125284538_" gradientUnits="userSpaceOnUse" x1="-1627.4456" y1="2294.3284" x2="-1714.8043" y2="2420.6863" gradientTransform="matrix(1.300000e-02 -0.9999 -0.9999 -1.300000e-02 3992.9146 -1411.0511)">
			<stop  offset="0" style="stop-color:#09005D"/>
			<stop  offset="1" style="stop-color:#1A0F91"/>
		</linearGradient>
		<path style="fill:url(#SVGID_00000031194592952086037760000013797884001125284538_);" d="M1623.6,174.9
			c37.8,12.8,62.6,33.9,70.5,41.3c1.6,1.5,1.5,3.9-0.1,5.3c-8.1,7.2-33.3,27.5-71.2,39.4C1627.1,242.4,1632.7,209.3,1623.6,174.9z"
			/>
		<g>
			
				<ellipse transform="matrix(1.294626e-02 -0.9999 0.9999 1.294626e-02 1330.8413 1782.8285)" class="st11" cx="1568.5" cy="217.3" rx="34.8" ry="32.4"/>
			
				<linearGradient id="SVGID_00000000212694281316749500000002942176699628984462_" gradientUnits="userSpaceOnUse" x1="-1686.5405" y1="2402.2195" x2="-1631.0724" y2="2402.2195" gradientTransform="matrix(1.300000e-02 -0.9999 -0.9999 -1.300000e-02 3992.9146 -1411.0511)">
				<stop  offset="0" style="stop-color:#09005D"/>
				<stop  offset="1" style="stop-color:#1A0F91"/>
			</linearGradient>
			<path style="fill:url(#SVGID_00000000212694281316749500000002942176699628984462_);" d="M1569.7,188.6
				c-14.3-0.2-26,12.1-26.2,27.4c-0.2,15.3,11.2,27.9,25.5,28.1c14.3,0.2,26-12.1,26.2-27.4C1595.4,201.4,1584,188.8,1569.7,188.6z"
				/>
			<path class="st2" d="M1573.9,235.8c0.2,0.3,0.6,0.4,0.9,0.3c8.8-2.6,15.1-11.1,15.2-20.6c0-2.4-0.3-4.8-1-7.1
				c-0.1-0.5-0.6-0.7-1.1-0.6c-0.5,0.1-0.7,0.6-0.6,1.1c0.7,2.1,1,4.3,0.9,6.5c-0.1,8.8-5.8,16.6-13.9,19c-0.5,0.1-0.7,0.6-0.6,1.1
				C1573.8,235.7,1573.9,235.8,1573.9,235.8z"/>
		</g>
		<g>
			<path class="st11" d="M1503.6,193.5c-11.8-0.2-21.6,10-21.7,22.7c-0.2,12.7,9.3,23.1,21.1,23.3c11.8,0.2,21.6-10,21.7-22.7
				C1524.9,204.1,1515.4,193.6,1503.6,193.5z"/>
			
				<linearGradient id="SVGID_00000152235670676009604270000009653356153744271764_" gradientUnits="userSpaceOnUse" x1="-1677.4628" y1="2467.7019" x2="-1640.8187" y2="2467.7019" gradientTransform="matrix(1.300000e-02 -0.9999 -0.9999 -1.300000e-02 3992.9146 -1411.0511)">
				<stop  offset="0" style="stop-color:#09005D"/>
				<stop  offset="1" style="stop-color:#1A0F91"/>
			</linearGradient>
			<path style="fill:url(#SVGID_00000152235670676009604270000009653356153744271764_);" d="M1504.1,197.5
				c-9.4-0.1-17.2,8-17.3,18.1c-0.1,10.1,7.4,18.4,16.8,18.5c9.4,0.1,17.2-8,17.3-18.1C1521.1,205.9,1513.6,197.6,1504.1,197.5z"/>
			<path class="st2" d="M1506.7,228.9c0.2,0.3,0.6,0.4,0.9,0.3c5.9-1.7,10.2-7.4,10.2-13.9c0-1.6-0.2-3.2-0.7-4.8
				c-0.1-0.5-0.6-0.7-1.1-0.6c-0.5,0.1-0.7,0.6-0.6,1.1c0.4,1.4,0.6,2.8,0.6,4.2c-0.1,5.7-3.8,10.7-9,12.3c-0.5,0.1-0.7,0.6-0.6,1.1
				C1506.5,228.7,1506.6,228.8,1506.7,228.9z"/>
		</g>
	</g>
	<g>
		<path class="st32" d="M1238.1,242.5l-11.3,2.8c-1.1,0.3-2.1-0.4-2.4-1.4c-0.3-1.1,0.4-2.1,1.4-2.4l0.1,0l11-2.7l0.1,0
			c1.1-0.3,2.1,0.4,2.4,1.4C1239.8,241.2,1239.2,242.2,1238.1,242.5L1238.1,242.5z"/>
		<path class="st32" d="M1215.4,247.3l-11.5,1.2c-1.1,0.1-2-0.6-2.1-1.7c-0.1-1.1,0.6-2,1.7-2.1l0.1,0l11.3-1.3l0.1,0
			c1.1-0.1,2,0.6,2.1,1.7C1217.3,246.2,1216.5,247.1,1215.4,247.3L1215.4,247.3z"/>
		<path class="st32" d="M1192.3,249.1l-11.6-0.1c-1,0-1.9-0.9-1.9-1.9c0-1,0.9-1.9,1.9-1.9l0.1,0l11.4,0l0.1,0
			c1.1,0,1.9,0.9,1.9,1.9C1194.3,248.2,1193.4,249.1,1192.3,249.1L1192.3,249.1z"/>
		<path class="st32" d="M1169.3,248.3l-11.5-1.2c-1-0.1-1.7-1-1.6-2c0.1-1,1-1.7,2-1.6l0.1,0l11.3,1.2l0.1,0c1,0.1,1.8,1,1.7,2
			C1171.2,247.7,1170.3,248.4,1169.3,248.3L1169.3,248.3z"/>
		<path class="st32" d="M1146.3,245.4l-11.3-2.2c-1-0.2-1.6-1.1-1.4-2.1c0.2-1,1.1-1.6,2.1-1.4l0.1,0l11.2,2.1l0.1,0
			c1,0.2,1.6,1.1,1.5,2.1C1148.3,244.9,1147.3,245.6,1146.3,245.4L1146.3,245.4z"/>
		<path class="st32" d="M1123.8,240.7l-11.1-2.9c-0.9-0.2-1.5-1.2-1.3-2.1c0.2-0.9,1.2-1.5,2.1-1.3l0,0l11,2.9l0.1,0
			c1,0.2,1.5,1.2,1.3,2.2S1124.7,240.9,1123.8,240.7L1123.8,240.7z"/>
		<path class="st32" d="M1101.6,234.5l-10.9-3.6c-0.9-0.3-1.4-1.3-1.1-2.2c0.3-0.9,1.3-1.4,2.2-1.1l0,0l10.9,3.5l0,0
			c0.9,0.3,1.4,1.3,1.1,2.2C1103.5,234.3,1102.5,234.8,1101.6,234.5L1101.6,234.5z"/>
		<path class="st32" d="M1079.8,227l-10.7-4.1c-0.9-0.3-1.3-1.3-1-2.2c0.3-0.9,1.3-1.3,2.2-1l0,0l10.7,4.1l0,0
			c0.9,0.3,1.3,1.3,1,2.2C1081.7,226.9,1080.7,227.4,1079.8,227L1079.8,227z"/>
		<path class="st32" d="M1058.4,218.5l-10.5-4.6c-0.8-0.4-1.2-1.3-0.8-2.1c0.4-0.8,1.3-1.2,2.1-0.8l0,0l10.5,4.5l0,0
			c0.8,0.4,1.2,1.3,0.9,2.2C1060.2,218.5,1059.3,218.9,1058.4,218.5L1058.4,218.5z"/>
		<path class="st32" d="M1037.4,209.1l-10.4-5c-0.8-0.4-1.1-1.3-0.7-2.1c0.4-0.8,1.3-1.1,2.1-0.7l0,0l10.3,4.9l0,0
			c0.8,0.4,1.1,1.3,0.8,2.1C1039.2,209.1,1038.2,209.5,1037.4,209.1L1037.4,209.1z"/>
		<path class="st32" d="M1016.8,198.9l-10.2-5.4c-0.8-0.4-1-1.3-0.6-2.1c0.4-0.8,1.3-1,2.1-0.6l0,0l10.1,5.3l0,0
			c0.8,0.4,1.1,1.3,0.7,2.1C1018.5,199,1017.6,199.3,1016.8,198.9L1016.8,198.9z"/>
		<path class="st32" d="M996.6,188l-10-5.7c-0.7-0.4-1-1.3-0.6-2.1c0.4-0.7,1.3-1,2.1-0.6l0,0l10,5.6l0,0c0.7,0.4,1,1.3,0.6,2.1
			C998.2,188.2,997.3,188.4,996.6,188L996.6,188z"/>
		<path class="st32" d="M976.6,176.5l-9.8-5.9c-0.7-0.4-0.9-1.3-0.5-2c0.4-0.7,1.3-0.9,2-0.5l0,0l9.8,5.9l0,0c0.7,0.4,0.9,1.3,0.5,2
			C978.3,176.7,977.4,177,976.6,176.5L976.6,176.5z"/>
		<path class="st32" d="M957,164.5l-9.7-6.2c-0.7-0.4-0.9-1.3-0.4-2c0.4-0.7,1.3-0.9,2-0.4l0,0l9.7,6.2l0,0c0.7,0.4,0.9,1.4,0.5,2
			C958.6,164.8,957.7,165,957,164.5L957,164.5z"/>
		<path class="st32" d="M937.8,152l-9.5-6.4c-0.7-0.5-0.8-1.4-0.4-2c0.5-0.7,1.4-0.8,2-0.4l0,0l9.5,6.4l0,0c0.7,0.5,0.8,1.4,0.4,2
			C939.3,152.3,938.4,152.5,937.8,152L937.8,152z"/>
		<path class="st32" d="M918.8,139l-9.4-6.6c-0.7-0.5-0.8-1.4-0.3-2c0.5-0.7,1.4-0.8,2-0.3l0,0l9.3,6.6l0,0c0.7,0.5,0.8,1.4,0.3,2
			S919.4,139.5,918.8,139L918.8,139z"/>
		<path class="st32" d="M900,126l-9.8-5.8l-0.1,0c-0.7-0.4-0.9-1.3-0.5-2c0.4-0.7,1.3-0.9,2-0.5l9.9,5.9c0.7,0.4,0.9,1.3,0.5,2
			C901.6,126.2,900.8,126.4,900,126L900,126L900,126z"/>
		<path class="st32" d="M880.1,115l-10.4-4.5l-0.1,0c-0.7-0.3-1.1-1.2-0.7-1.9c0.3-0.7,1.2-1.1,1.9-0.7l10.6,4.6
			c0.7,0.3,1.1,1.2,0.7,1.9C881.7,115,880.9,115.4,880.1,115L880.1,115L880.1,115z"/>
		<path class="st32" d="M858.9,106.6l-10.9-3.2l-0.1,0c-0.8-0.2-1.2-1-1-1.8c0.2-0.8,1-1.2,1.7-1l11.1,3.2c0.8,0.2,1.2,1,1,1.8
			C860.6,106.5,859.8,106.9,858.9,106.6L858.9,106.6L858.9,106.6z"/>
		<path class="st32" d="M836.9,101l-11.2-1.7l-0.1,0c-0.8-0.1-1.3-0.8-1.2-1.6c0.1-0.8,0.8-1.3,1.6-1.2l11.4,1.8
			c0.8,0.1,1.3,0.8,1.2,1.6C838.5,100.6,837.7,101.2,836.9,101L836.9,101L836.9,101z"/>
		<path class="st32" d="M814.3,98.2l-11.4-0.3l-0.1,0c-0.8,0-1.4-0.7-1.4-1.4c0-0.8,0.7-1.4,1.4-1.4l11.6,0.3c0.8,0,1.4,0.7,1.4,1.4
			C815.8,97.7,815.2,98.3,814.3,98.2L814.3,98.2L814.3,98.2z"/>
		<path class="st32" d="M791.6,98.3l-11.3,1.1l-0.1,0c-0.8,0.1-1.4-0.5-1.5-1.2c-0.1-0.8,0.5-1.4,1.2-1.5l11.5-1.2
			c0.8-0.1,1.4,0.5,1.5,1.2C793,97.6,792.4,98.3,791.6,98.3L791.6,98.3L791.6,98.3z"/>
		<path class="st32" d="M769,101.3l-11.1,2.6l-0.1,0c-0.7,0.2-1.5-0.3-1.6-1c-0.2-0.7,0.3-1.5,1-1.6l11.3-2.6c0.7-0.2,1.5,0.3,1.6,1
			C770.3,100.4,769.8,101.1,769,101.3L769,101.3L769,101.3z"/>
		<path class="st32" d="M747,107.1l-10.7,3.9l-0.1,0c-0.7,0.3-1.5-0.1-1.7-0.8c-0.3-0.7,0.1-1.5,0.8-1.7l10.8-4
			c0.7-0.3,1.5,0.1,1.8,0.8C748.2,106.1,747.8,106.9,747,107.1L747,107.1L747,107.1z"/>
		<path class="st32" d="M726,115.7l-10,5.4l-0.1,0c-0.7,0.4-1.5,0.1-1.8-0.6c-0.4-0.7-0.1-1.5,0.5-1.8l10.2-5.5
			c0.7-0.4,1.5-0.1,1.8,0.6C727,114.5,726.7,115.3,726,115.7L726,115.7L726,115.7z"/>
		<path class="st32" d="M706.3,127.2l-9.2,6.7l-0.1,0c-0.6,0.4-1.4,0.3-1.9-0.3s-0.3-1.4,0.3-1.9l9.3-6.8c0.6-0.4,1.4-0.3,1.9,0.3
			C707.1,125.8,707,126.7,706.3,127.2L706.3,127.2L706.3,127.2z"/>
		<path class="st32" d="M688.3,141.1l-8.3,7.8l-0.1,0.1c-0.5,0.5-1.4,0.5-1.9-0.1c-0.5-0.5-0.5-1.4,0.1-1.9l8.4-7.9
			c0.5-0.5,1.4-0.5,1.9,0.1C689,139.7,688.9,140.5,688.3,141.1L688.3,141.1L688.3,141.1z"/>
		<path class="st32" d="M672.1,157.1l-7.4,8.7l0,0.1c-0.5,0.6-1.3,0.6-1.8,0.1c-0.6-0.5-0.6-1.3-0.1-1.8l7.5-8.8
			c0.5-0.6,1.3-0.6,1.9-0.1C672.6,155.6,672.6,156.5,672.1,157.1L672.1,157.1L672.1,157.1z"/>
		<path class="st32" d="M657.8,174.8l-6.3,9.5l0,0.1c-0.4,0.6-1.2,0.8-1.8,0.4c-0.6-0.4-0.8-1.2-0.4-1.8l6.4-9.6
			c0.4-0.6,1.2-0.8,1.8-0.4C658.1,173.3,658.3,174.1,657.8,174.8L657.8,174.8L657.8,174.8z"/>
		<path class="st32" d="M645.7,194.1l-5.1,10.2l0,0.1c-0.3,0.6-1.1,0.9-1.7,0.6c-0.6-0.3-0.9-1.1-0.6-1.7l5.2-10.3
			c0.3-0.6,1.1-0.9,1.7-0.6C645.8,192.6,646.1,193.4,645.7,194.1L645.7,194.1L645.7,194.1z"/>
		<path class="st32" d="M636.1,214.7l-3.7,10.7l0,0.1c-0.2,0.7-1,1-1.6,0.8c-0.7-0.2-1-1-0.8-1.6l3.8-10.9c0.2-0.7,1-1,1.6-0.8
			C636,213.2,636.4,214,636.1,214.7L636.1,214.7L636.1,214.7z"/>
		<path class="st32" d="M629.4,236.5l-2,11.2l0,0.1c-0.1,0.7-0.8,1.1-1.5,1c-0.7-0.1-1.1-0.8-1-1.5l2.1-11.4c0.1-0.7,0.8-1.1,1.5-1
			c0.7,0.1,1.1,0.8,1,1.5l0,0L629.4,236.5z"/>
		<path class="st32" d="M626.3,258.9l-0.1,11.3l0,0.1c0,0.7-0.6,1.2-1.3,1.2c-0.7,0-1.3-0.6-1.2-1.3l0.1-11.6c0-0.7,0.6-1.3,1.3-1.3
			c0.7,0,1.3,0.6,1.3,1.3l0,0L626.3,258.9z"/>
		<path class="st32" d="M627.2,281.6l2.1,11.1l0,0.1c0.1,0.7-0.3,1.3-1,1.5c-0.7,0.1-1.3-0.3-1.5-1l-2.2-11.4
			c-0.1-0.7,0.3-1.3,1-1.5c0.7-0.1,1.3,0.3,1.5,1l0,0L627.2,281.6z"/>
		<path class="st32" d="M632.6,303.6l4.3,10.5l0,0.1c0.3,0.6,0,1.3-0.7,1.6c-0.6,0.3-1.3,0-1.6-0.7l-4.4-10.7
			c-0.3-0.6,0-1.4,0.7-1.6c0.6-0.3,1.4,0,1.6,0.7l0,0L632.6,303.6z"/>
		<path class="st32" d="M642.5,323.9c2.1,3.1,4.5,6,7.1,8.7c0.5,0.5,0.5,1.2,0,1.7c-0.5,0.5-1.2,0.5-1.7,0c-2.8-2.8-5.3-5.8-7.5-9
			c-0.4-0.6-0.2-1.3,0.3-1.7C641.3,323.2,642.1,323.3,642.5,323.9L642.5,323.9z"/>
		<path class="st32" d="M658.4,339.5c3.2,2,6.6,3.6,10.1,4.8c0.6,0.2,1,0.9,0.8,1.5c-0.2,0.6-0.9,1-1.5,0.8c-3.7-1.3-7.3-3-10.6-5
			c-0.6-0.4-0.7-1.1-0.4-1.7C657,339.3,657.8,339.1,658.4,339.5L658.4,339.5z"/>
		<path class="st32" d="M679.4,346.7c3.7,0.4,7.5,0.4,11.2-0.1c0.7-0.1,1.2,0.4,1.3,1.1c0.1,0.7-0.4,1.2-1.1,1.3
			c-3.9,0.4-7.8,0.5-11.7,0.1c-0.7-0.1-1.1-0.7-1.1-1.3C678.1,347.1,678.7,346.6,679.4,346.7L679.4,346.7z"/>
		<path class="st32" d="M701.5,344.3c3.6-1.1,7.1-2.6,10.4-4.3c0.6-0.3,1.3-0.1,1.6,0.5c0.3,0.6,0.1,1.3-0.5,1.6
			c-3.4,1.8-7,3.3-10.8,4.5c-0.6,0.2-1.3-0.2-1.5-0.8C700.6,345.2,700.9,344.5,701.5,344.3L701.5,344.3z"/>
		<path class="st32" d="M721.4,333.9c3-2.3,5.8-4.8,8.3-7.6c0.4-0.5,1.2-0.5,1.7-0.1c0.5,0.4,0.5,1.2,0.1,1.7
			c-2.6,2.9-5.5,5.5-8.6,7.9c-0.5,0.4-1.3,0.3-1.7-0.2C720.8,335.1,720.9,334.3,721.4,333.9L721.4,333.9z"/>
		<path class="st32" d="M736.7,317.5l2.9-4.9c1-1.6,1.8-3.3,2.6-5l0-0.1c0.3-0.6,1-0.8,1.6-0.5c0.6,0.3,0.8,1,0.5,1.6
			c-0.9,1.7-1.6,3.5-2.7,5.2l-3,5c-0.3,0.6-1,0.7-1.6,0.4c-0.6-0.3-0.7-1-0.4-1.6l0,0L736.7,317.5z"/>
		<path class="st32" d="M746.1,297c1-3.6,1.8-7.3,2.1-11.1c0.1-0.6,0.6-1.1,1.3-1c0.6,0.1,1.1,0.6,1,1.3c-0.4,3.9-1.1,7.7-2.2,11.5
			c-0.2,0.6-0.8,1-1.4,0.8C746.2,298.3,745.9,297.6,746.1,297L746.1,297z"/>
		<path class="st32" d="M748.3,274.7c-0.3-3.7-1-7.4-2.1-11c-0.2-0.6,0.2-1.2,0.8-1.4c0.6-0.2,1.2,0.2,1.4,0.8
			c1.1,3.7,1.8,7.6,2.2,11.5c0.1,0.6-0.4,1.2-1,1.2S748.3,275.4,748.3,274.7L748.3,274.7z"/>
		<path class="st32" d="M742,253.3c-1.7-3.3-3.7-6.5-6-9.6c-0.4-0.5-0.3-1.2,0.2-1.6c0.5-0.4,1.2-0.3,1.6,0.2
			c2.3,3.1,4.4,6.4,6.2,9.9c0.3,0.6,0.1,1.2-0.5,1.5C743,254,742.3,253.8,742,253.3L742,253.3z"/>
		<path class="st32" d="M728.6,235.2c-2.7-2.6-5.6-5.1-8.6-7.3c-0.5-0.4-0.6-1.1-0.2-1.6c0.4-0.5,1.1-0.6,1.6-0.2
			c3.1,2.3,6.1,4.8,8.9,7.5c0.4,0.4,0.5,1.1,0,1.6C729.8,235.6,729.1,235.7,728.6,235.2L728.6,235.2z"/>
		<path class="st32" d="M710.5,221.8c-3.3-1.8-6.7-3.5-10.2-4.9c-0.6-0.2-0.8-0.9-0.6-1.4c0.2-0.6,0.9-0.8,1.4-0.6
			c3.6,1.5,7.1,3.1,10.4,5c0.5,0.3,0.7,1,0.4,1.5S711,222.1,710.5,221.8L710.5,221.8z"/>
		<path class="st32" d="M689.6,213.2c-3.6-1.1-7.4-1.7-11.1-2.6l-0.1,0c-0.6-0.1-1-0.8-0.8-1.4c0.1-0.6,0.8-1,1.4-0.8l0,0
			c3.7,0.9,7.5,1.7,11.2,2.7c0.6,0.2,0.9,0.8,0.8,1.4S690.2,213.3,689.6,213.2L689.6,213.2z"/>
		<path class="st32" d="M667.3,208.7l-11.3-1.1l-0.1,0c-0.7-0.1-1.1-0.6-1.1-1.3c0.1-0.7,0.6-1.1,1.3-1.1l0,0l11.5,1.2
			c0.6,0.1,1.1,0.6,1,1.3C668.5,208.3,668,208.8,667.3,208.7L667.3,208.7z"/>
		<path class="st32" d="M644.5,207.2l-11.4,0.3l-0.1,0c-0.7,0-1.3-0.5-1.3-1.2c0-0.7,0.5-1.3,1.2-1.3h0l11.5-0.2
			c0.7,0,1.2,0.5,1.2,1.2C645.8,206.6,645.3,207.2,644.5,207.2L644.5,207.2z"/>
		<path class="st32" d="M621.8,208.4l-11.3,1.5l-0.1,0c-0.7,0.1-1.4-0.4-1.5-1.1c-0.1-0.7,0.4-1.4,1.1-1.5l0,0l11.4-1.5
			c0.7-0.1,1.3,0.4,1.4,1.1C623,207.7,622.6,208.3,621.8,208.4L621.8,208.4z"/>
		<path class="st32" d="M599.3,212.1l-11.1,2.7l-0.1,0c-0.7,0.2-1.5-0.3-1.7-1c-0.2-0.7,0.3-1.5,1-1.7l0,0l11.2-2.7
			c0.7-0.2,1.4,0.3,1.6,1C600.5,211.2,600.1,211.9,599.3,212.1L599.3,212.1z"/>
		<path class="st32" d="M577.3,218.1l-10.7,3.9l-0.1,0c-0.7,0.3-1.6-0.1-1.8-0.9c-0.3-0.7,0.1-1.6,0.9-1.8l0,0l10.9-3.9
			c0.7-0.3,1.5,0.1,1.8,0.9C578.5,217,578.1,217.8,577.3,218.1L577.3,218.1z"/>
		<path class="st32" d="M556.2,226.5l-10.2,5.1l-0.1,0c-0.7,0.4-1.6,0.1-2-0.7c-0.4-0.7-0.1-1.6,0.7-2l0,0l10.4-5.1
			c0.7-0.4,1.6-0.1,2,0.7C557.3,225.2,557,226.1,556.2,226.5L556.2,226.5z"/>
		<path class="st32" d="M536.1,237.2l-9.5,6.3l-0.1,0.1c-0.7,0.5-1.7,0.3-2.2-0.4s-0.3-1.7,0.4-2.2l0,0l9.7-6.3
			c0.7-0.5,1.7-0.3,2.1,0.4C537.1,235.8,536.9,236.7,536.1,237.2L536.1,237.2z"/>
		<path class="st32" d="M517.5,250.3l-8.8,7.3l-0.1,0c-0.7,0.6-1.7,0.5-2.3-0.2c-0.6-0.7-0.5-1.7,0.2-2.3l0,0l8.9-7.3
			c0.7-0.6,1.7-0.5,2.3,0.2C518.3,248.7,518.2,249.7,517.5,250.3L517.5,250.3z"/>
		<path class="st32" d="M500.3,265.2l-8.1,8l0,0c-0.7,0.7-1.7,0.6-2.4,0c-0.7-0.7-0.6-1.7,0-2.4l0,0l8.3-8c0.7-0.6,1.7-0.6,2.4,0
			C501,263.5,501,264.5,500.3,265.2L500.3,265.2z"/>
		<path class="st32" d="M484.3,281.5l-7.6,8.5l0,0c-0.6,0.7-1.8,0.8-2.5,0.2c-0.7-0.6-0.8-1.8-0.2-2.5l0,0l7.7-8.6
			c0.6-0.7,1.7-0.8,2.4-0.1C484.9,279.6,485,280.7,484.3,281.5L484.3,281.5z"/>
		<path class="st32" d="M469.4,298.8l-7,9l0,0c-0.6,0.8-1.8,0.9-2.5,0.3c-0.8-0.6-0.9-1.8-0.3-2.5l0,0l7.1-9
			c0.6-0.8,1.7-0.9,2.5-0.3C469.9,296.9,470.1,298,469.4,298.8L469.4,298.8z"/>
		<path class="st32" d="M455.7,317l-6.5,9.4l0,0c-0.6,0.9-1.8,1.1-2.6,0.5c-0.9-0.6-1.1-1.8-0.5-2.6l0,0l6.6-9.4
			c0.6-0.8,1.7-1,2.6-0.4C456.1,315,456.3,316.1,455.7,317L455.7,317z"/>
		<path class="st32" d="M442.9,335.9l-6,9.7l0,0c-0.6,0.9-1.8,1.2-2.7,0.6c-0.9-0.6-1.2-1.8-0.6-2.7l0,0l6.1-9.8
			c0.6-0.9,1.7-1.2,2.6-0.6C443.2,333.8,443.5,335,442.9,335.9L442.9,335.9z"/>
		<path class="st32" d="M431.1,355.5l-5.5,10l0,0c-0.5,1-1.7,1.3-2.7,0.8c-1-0.5-1.3-1.7-0.8-2.7l0,0l5.6-10
			c0.5-0.9,1.7-1.3,2.7-0.8C431.3,353.3,431.6,354.5,431.1,355.5L431.1,355.5z"/>
		<path class="st32" d="M420.3,375.6l-5,10.3l0,0c-0.5,1-1.7,1.4-2.8,0.9c-1-0.5-1.4-1.7-0.9-2.8l0,0l5.1-10.3
			c0.5-1,1.7-1.4,2.7-0.9C420.4,373.3,420.8,374.6,420.3,375.6L420.3,375.6z"/>
		<path class="st32" d="M410.5,396.2l-4.5,10.5l0,0.1c-0.5,1.1-1.7,1.6-2.8,1.1c-1.1-0.5-1.6-1.7-1.1-2.8l0,0l4.6-10.6
			c0.5-1.1,1.7-1.5,2.7-1.1C410.5,393.9,410.9,395.1,410.5,396.2L410.5,396.2z"/>
		<path class="st32" d="M401.8,417.3l-3.9,10.7l0,0.1c-0.4,1.1-1.7,1.7-2.8,1.3c-1.1-0.4-1.7-1.7-1.3-2.8l0,0l4-10.8
			c0.4-1.1,1.6-1.7,2.8-1.3C401.6,415,402.2,416.2,401.8,417.3L401.8,417.3z"/>
		<path class="st32" d="M394.3,438.9l-3.2,10.9l0,0.1c-0.3,1.2-1.6,1.9-2.8,1.5c-1.2-0.3-1.9-1.6-1.5-2.8l0,0l3.3-11.1
			c0.3-1.2,1.6-1.8,2.7-1.5C394,436.5,394.7,437.7,394.3,438.9L394.3,438.9z"/>
		<path class="st32" d="M388.4,460.9L386,472l0,0.1c-0.3,1.2-1.5,2-2.7,1.8c-1.2-0.3-2-1.5-1.8-2.7c0.8-3.8,1.6-7.5,2.4-11.3
			c0.3-1.2,1.5-2,2.7-1.7C387.9,458.4,388.6,459.6,388.4,460.9L388.4,460.9z"/>
		<path class="st32" d="M384.2,483.2l-1.3,11.3l0,0.1c-0.1,1.2-1.3,2.1-2.5,2c-1.2-0.1-2.1-1.3-2-2.5l1.3-11.5
			c0.1-1.3,1.3-2.1,2.5-2c1.3,0.1,2.1,1.3,2,2.5l0,0L384.2,483.2z"/>
		<path class="st32" d="M382.1,505.8l-0.2,11.4l0,0.1c0,1.2-1,2.2-2.3,2.2c-1.2,0-2.2-1-2.2-2.3l0.2-11.6c0-1.2,1-2.2,2.3-2.2
			c1.2,0,2.2,1,2.2,2.3l0,0L382.1,505.8z"/>
		<path class="st32" d="M382.3,528.5l1,11.3l0,0.1c0.1,1.2-0.8,2.3-2,2.4c-1.2,0.1-2.3-0.8-2.4-2l-1.1-11.5c-0.1-1.2,0.8-2.3,2-2.4
			s2.3,0.8,2.4,2l0,0L382.3,528.5z"/>
		<path class="st32" d="M385,551.1l2.3,11.1l0,0.1c0.2,1.2-0.5,2.4-1.7,2.6c-1.2,0.2-2.4-0.5-2.6-1.7l-2.4-11.3
			c-0.3-1.2,0.5-2.4,1.7-2.6c1.2-0.3,2.4,0.5,2.6,1.7l0,0L385,551.1z"/>
		<path class="st32" d="M390.3,573.1l3.6,10.8l0,0.1c0.4,1.1-0.2,2.4-1.4,2.8c-1.1,0.4-2.4-0.2-2.8-1.4l-3.7-11
			c-0.4-1.1,0.2-2.4,1.4-2.8c1.1-0.4,2.4,0.2,2.8,1.4l0,0L390.3,573.1z"/>
		<path class="st32" d="M398.1,594.4l4.8,10.3l0,0.1c0.5,1.1,0,2.4-1.1,2.9c-1.1,0.5-2.4,0-2.9-1.1l-4.9-10.5
			c-0.5-1.1,0-2.4,1.1-2.9c1.1-0.5,2.4,0,2.9,1.1l0,0L398.1,594.4z"/>
		<path class="st32" d="M408.1,614.8l5.8,9.8l0.1,0.1c0.6,1,0.3,2.3-0.7,2.9s-2.3,0.3-2.9-0.7l-5.9-9.9c-0.6-1-0.3-2.3,0.7-2.9
			C406.1,613.3,407.4,613.6,408.1,614.8L408.1,614.8L408.1,614.8z"/>
		<path class="st32" d="M420.2,634l6.7,9.2l0.1,0.1c0.7,0.9,0.5,2.3-0.5,2.9c-0.9,0.7-2.3,0.5-2.9-0.5l-6.8-9.3
			c-0.7-0.9-0.5-2.3,0.5-3C418.1,632.8,419.4,633,420.2,634L420.2,634L420.2,634z"/>
		<path class="st32" d="M434,652.1l7.5,8.6l0.1,0.1c0.8,0.9,0.7,2.2-0.2,2.9c-0.9,0.8-2.2,0.7-2.9-0.2l-7.6-8.7
			c-0.8-0.9-0.7-2.2,0.2-3C431.8,651,433.2,651.1,434,652.1L434,652.1L434,652.1z"/>
		<path class="st32" d="M449.2,669l8.1,8l0.1,0c0.8,0.8,0.8,2.1,0,2.9c-0.8,0.8-2.1,0.8-2.9,0l-8.2-8.1c-0.8-0.8-0.8-2.1,0-2.9
			C447,668.1,448.4,668.1,449.2,669L449.2,669L449.2,669z"/>
		<path class="st32" d="M465.7,684.8l8.6,7.5l0,0c0.9,0.7,0.9,2,0.2,2.9c-0.7,0.9-2,0.9-2.9,0.2l-8.7-7.6c-0.9-0.7-0.9-2-0.2-2.9
			C463.5,684.1,464.8,684,465.7,684.8L465.7,684.8L465.7,684.8z"/>
		<path class="st32" d="M483.1,699.5l9,7l0,0c0.9,0.7,1,2,0.4,2.8c-0.7,0.9-2,1-2.8,0.4l-9.1-7c-0.9-0.7-1.1-2-0.4-2.9
			C480.9,698.9,482.1,698.8,483.1,699.5L483.1,699.5L483.1,699.5z"/>
		<path class="st32" d="M501.3,713.3l9.4,6.5l0,0c0.9,0.6,1.1,1.9,0.5,2.8c-0.6,0.9-1.9,1.1-2.8,0.5l-9.5-6.6
			c-0.9-0.6-1.1-1.9-0.5-2.8C499.1,712.8,500.3,712.6,501.3,713.3L501.3,713.3L501.3,713.3z"/>
		<path class="st32" d="M520.2,726.2l9.6,6.3c0.9,0.6,1.2,1.8,0.6,2.7c-0.6,0.9-1.8,1.2-2.7,0.6l-9.6-6.3c-0.9-0.6-1.2-1.8-0.6-2.8
			C518,725.8,519.2,725.6,520.2,726.2L520.2,726.2z"/>
		<path class="st32" d="M539.3,738.8l9.6,6.3c0.9,0.6,1.2,1.8,0.6,2.7c-0.6,0.9-1.8,1.2-2.7,0.6l-9.6-6.3c-0.9-0.6-1.2-1.8-0.6-2.7
			C537.2,738.5,538.4,738.2,539.3,738.8L539.3,738.8z"/>
		<path class="st32" d="M558.5,751.3l9.6,6.3c0.9,0.6,1.1,1.8,0.6,2.7c-0.6,0.9-1.8,1.1-2.7,0.6l-9.6-6.3c-0.9-0.6-1.2-1.8-0.6-2.7
			S557.6,750.8,558.5,751.3L558.5,751.3z"/>
		<path class="st32" d="M577.7,763.9l9.6,6.3c0.9,0.6,1.1,1.8,0.5,2.6c-0.6,0.9-1.8,1.1-2.6,0.5l-9.6-6.3c-0.9-0.6-1.1-1.8-0.6-2.7
			C575.6,763.6,576.8,763.3,577.7,763.9L577.7,763.9z"/>
		<path class="st32" d="M596.8,776.6l9.5,6.4c0.9,0.6,1.1,1.8,0.5,2.6c-0.6,0.9-1.8,1.1-2.6,0.5l0,0l-9.5-6.4l0,0
			c-0.9-0.6-1.1-1.8-0.5-2.6C594.8,776.3,595.9,776,596.8,776.6L596.8,776.6z"/>
		<path class="st32" d="M615.7,789.6l9.4,6.6c0.8,0.6,1,1.8,0.4,2.6c-0.6,0.8-1.8,1-2.6,0.5l0,0l-9.4-6.6l0,0
			c-0.8-0.6-1.1-1.8-0.5-2.6C613.7,789.2,614.9,789,615.7,789.6L615.7,789.6z"/>
		<path class="st32" d="M634.4,802.9l9.2,6.8c0.8,0.6,1,1.8,0.4,2.6c-0.6,0.8-1.8,1-2.6,0.4l0,0l-9.2-6.8l0,0
			c-0.8-0.6-1-1.8-0.4-2.6C632.5,802.5,633.6,802.3,634.4,802.9L634.4,802.9z"/>
		<path class="st32" d="M652.8,816.7l9.1,7.1c0.8,0.6,0.9,1.8,0.3,2.6c-0.6,0.8-1.8,0.9-2.5,0.3l0,0l-9-7l0,0
			c-0.8-0.6-0.9-1.8-0.3-2.6C650.9,816.2,652,816.1,652.8,816.7L652.8,816.7z"/>
		<path class="st32" d="M670.8,831l8.9,7.3c0.8,0.6,0.9,1.8,0.2,2.5c-0.6,0.8-1.8,0.9-2.5,0.2l0,0l-8.8-7.2l0,0
			c-0.8-0.6-0.9-1.8-0.3-2.5C668.9,830.5,670.1,830.4,670.8,831L670.8,831z"/>
		<path class="st32" d="M688.5,845.7l8.7,7.6c0.7,0.6,0.8,1.8,0.2,2.5c-0.6,0.7-1.8,0.8-2.5,0.2l0,0l-8.6-7.5l0,0
			c-0.7-0.6-0.8-1.8-0.2-2.5C686.6,845.1,687.7,845.1,688.5,845.7L688.5,845.7z"/>
		<path class="st32" d="M705.7,861l8.4,7.9c0.7,0.7,0.7,1.8,0.1,2.5c-0.7,0.7-1.8,0.7-2.5,0.1l0,0l-8.3-7.8l0,0
			c-0.7-0.7-0.7-1.8-0.1-2.5C703.9,860.3,705,860.3,705.7,861L705.7,861z"/>
		<path class="st32" d="M722.2,877l8,8.3c0.7,0.7,0.6,1.8,0,2.4c-0.7,0.7-1.8,0.6-2.4,0l0,0l-7.9-8.2l0,0c-0.7-0.7-0.6-1.8,0-2.5
			C720.5,876.2,721.6,876.3,722.2,877L722.2,877z"/>
		<path class="st32" d="M738,893.8l7.5,8.8c0.6,0.7,0.5,1.8-0.2,2.4c-0.7,0.6-1.8,0.5-2.4-0.2l0,0l-7.4-8.7l0,0
			c-0.6-0.7-0.5-1.8,0.2-2.4C736.3,893,737.3,893.1,738,893.8L738,893.8z"/>
		<path class="st32" d="M752.6,911.6l6.8,9.3c0.5,0.8,0.4,1.8-0.4,2.3c-0.8,0.5-1.8,0.4-2.3-0.4l0-0.1l-6.7-9.2l0-0.1
			c-0.6-0.8-0.4-1.8,0.4-2.4C750.9,910.7,752,910.9,752.6,911.6L752.6,911.6z"/>
		<path class="st32" d="M765.7,930.6l5.9,9.9c0.5,0.8,0.2,1.8-0.6,2.3c-0.8,0.5-1.8,0.2-2.3-0.6l0-0.1l-5.9-9.8l0-0.1
			c-0.5-0.8-0.2-1.8,0.6-2.3C764.2,929.5,765.2,929.8,765.7,930.6L765.7,930.6z"/>
		<path class="st32" d="M777.1,950.7l4.8,10.5c0.4,0.8,0,1.8-0.8,2.1c-0.8,0.4-1.8,0-2.1-0.8l0-0.1l-4.8-10.3l0-0.1
			c-0.4-0.8,0-1.8,0.8-2.2C775.7,949.5,776.7,949.9,777.1,950.7L777.1,950.7z"/>
		<path class="st32" d="M786.1,971.9l3.6,11c0.3,0.8-0.2,1.7-1,2c-0.8,0.3-1.7-0.2-2-1l0-0.1l-3.6-10.8l0-0.1c-0.3-0.8,0.2-1.7,1-2
			C785,970.6,785.9,971.1,786.1,971.9L786.1,971.9z"/>
		<path class="st32" d="M792.6,994.1l2.2,11.4c0.2,0.8-0.4,1.6-1.2,1.7c-0.8,0.2-1.6-0.4-1.7-1.2l0-0.1l-2.2-11.2l0-0.1
			c-0.2-0.8,0.4-1.6,1.2-1.8C791.7,992.7,792.5,993.3,792.6,994.1L792.6,994.1z"/>
		<path class="st32" d="M796.3,1016.9l0.7,11.5c0,0.8-0.5,1.5-1.3,1.5c-0.8,0-1.5-0.5-1.5-1.3l0-0.1l-0.8-11.4l0-0.1
			c-0.1-0.8,0.6-1.5,1.4-1.6C795.5,1015.5,796.2,1016.1,796.3,1016.9L796.3,1016.9z"/>
		<path class="st32" d="M796.9,1040l-0.8,11.5c-0.1,0.8-0.7,1.3-1.5,1.3c-0.7-0.1-1.3-0.7-1.3-1.4l0-0.1l0.8-11.4l0-0.1
			c0.1-0.8,0.7-1.3,1.5-1.3C796.4,1038.6,796.9,1039.3,796.9,1040L796.9,1040z"/>
		<path class="st32" d="M794.7,1063l-1.9,11.4c-0.1,0.7-0.8,1.2-1.5,1.1c-0.7-0.1-1.2-0.8-1.1-1.5l0-0.1l1.8-11.3l0-0.1
			c0.1-0.7,0.8-1.2,1.5-1.1C794.3,1061.6,794.8,1062.2,794.7,1063L794.7,1063z"/>
		<path class="st32" d="M790.4,1085.6l-2.9,11.2c-0.2,0.7-0.8,1.1-1.5,0.9c-0.7-0.2-1.1-0.8-0.9-1.5l0-0.1l2.8-11l0-0.1
			c0.2-0.7,0.9-1.1,1.5-0.9C790.2,1084.3,790.6,1084.9,790.4,1085.6L790.4,1085.6z"/>
		<path class="st32" d="M783.9,1107.8l-4.3,10.7c-0.2,0.6-0.9,0.9-1.5,0.6c-0.6-0.2-0.9-0.9-0.6-1.5l0-0.1l4.2-10.6l0-0.1
			c0.2-0.6,0.9-0.9,1.6-0.7C783.9,1106.4,784.2,1107.1,783.9,1107.8L783.9,1107.8z"/>
		<path class="st32" d="M774.3,1128.8c-2,3.3-4.2,6.6-6.6,9.6c-0.4,0.5-1.1,0.5-1.6,0.2c-0.5-0.4-0.5-1.1-0.2-1.6
			c2.4-2.9,4.5-6.1,6.4-9.3c0.3-0.5,1-0.7,1.6-0.4C774.4,1127.5,774.6,1128.2,774.3,1128.8L774.3,1128.8z"/>
		<path class="st32" d="M759.3,1146.6c-3.1,2.4-6.5,4.4-10.2,5.8c-0.5,0.2-1.1-0.1-1.3-0.6c-0.2-0.5,0.1-1.1,0.6-1.3
			c3.5-1.3,6.7-3.2,9.6-5.5c0.5-0.4,1.1-0.3,1.5,0.2C759.9,1145.5,759.8,1146.2,759.3,1146.6L759.3,1146.6z"/>
	</g>
</g>
</svg>
