<svg xmlns="http://www.w3.org/2000/svg" xmlns:xlink="http://www.w3.org/1999/xlink" viewBox="0 0 2144.91 1417.52"><defs><style>.cls-1{fill:url(#linear-gradient);}.cls-2{fill:#7d97f4;}.cls-17,.cls-3{fill:#91b3fa;}.cls-4{fill:url(#linear-gradient-2);}.cls-5{fill:url(#linear-gradient-3);}.cls-6{fill:url(#linear-gradient-4);}.cls-7{fill:url(#linear-gradient-5);}.cls-8{fill:#bdd0fb;}.cls-9{fill:url(#linear-gradient-6);}.cls-10{fill:url(#linear-gradient-7);}.cls-11{fill:url(#linear-gradient-8);}.cls-12{fill:url(#linear-gradient-9);}.cls-13{fill:url(#linear-gradient-10);}.cls-14{fill:url(#linear-gradient-11);}.cls-15,.cls-25,.cls-28{fill:#fff;}.cls-15{opacity:0.16;}.cls-15,.cls-17,.cls-25,.cls-63{isolation:isolate;}.cls-16{fill:url(#linear-gradient-12);}.cls-17{opacity:0.52;}.cls-18{fill:url(#linear-gradient-13);}.cls-19{fill:url(#linear-gradient-14);}.cls-20{fill:url(#linear-gradient-15);}.cls-21{fill:url(#linear-gradient-16);}.cls-22{fill:url(#linear-gradient-17);}.cls-23{fill:url(#linear-gradient-18);}.cls-24{fill:url(#linear-gradient-19);}.cls-25{opacity:0.7;}.cls-26{fill:url(#linear-gradient-20);}.cls-27{fill:url(#linear-gradient-21);}.cls-29{fill:url(#linear-gradient-22);}.cls-30{fill:url(#linear-gradient-23);}.cls-31{fill:url(#linear-gradient-24);}.cls-32{fill:url(#linear-gradient-25);}.cls-33{fill:url(#linear-gradient-26);}.cls-34{fill:url(#linear-gradient-27);}.cls-35{fill:url(#linear-gradient-28);}.cls-36{fill:url(#linear-gradient-29);}.cls-37{fill:url(#linear-gradient-30);}.cls-38{fill:url(#linear-gradient-31);}.cls-39{fill:url(#linear-gradient-32);}.cls-40{fill:url(#linear-gradient-33);}.cls-41{fill:url(#linear-gradient-34);}.cls-42{fill:url(#linear-gradient-35);}.cls-43{fill:url(#linear-gradient-36);}.cls-44{fill:url(#linear-gradient-37);}.cls-45{fill:url(#linear-gradient-38);}.cls-46{fill:url(#linear-gradient-39);}.cls-47{fill:url(#linear-gradient-40);}.cls-48{fill:url(#linear-gradient-41);}.cls-49{fill:url(#linear-gradient-42);}.cls-50{fill:url(#linear-gradient-43);}.cls-51{fill:url(#linear-gradient-44);}.cls-52{fill:url(#linear-gradient-45);}.cls-53{fill:url(#linear-gradient-46);}.cls-54{fill:url(#linear-gradient-47);}.cls-55{fill:url(#linear-gradient-48);}.cls-56{fill:url(#linear-gradient-49);}.cls-57{fill:url(#linear-gradient-50);}.cls-58{fill:url(#linear-gradient-51);}.cls-59{fill:url(#linear-gradient-52);}.cls-60{fill:url(#linear-gradient-53);}.cls-61{fill:url(#linear-gradient-54);}.cls-62{fill:url(#linear-gradient-55);}.cls-63{opacity:0.2;fill:url(#linear-gradient-56);}.cls-64{fill:url(#linear-gradient-57);}.cls-65{fill:url(#linear-gradient-58);}.cls-66{fill:url(#linear-gradient-59);}.cls-67{fill:url(#linear-gradient-60);}.cls-68{fill:url(#linear-gradient-61);}.cls-69{fill:url(#linear-gradient-62);}.cls-70{fill:url(#linear-gradient-63);}.cls-71{fill:url(#linear-gradient-64);}.cls-72{fill:url(#linear-gradient-65);}.cls-73{fill:url(#linear-gradient-66);}.cls-74{fill:url(#linear-gradient-67);}.cls-75{fill:url(#linear-gradient-68);}.cls-76{fill:url(#linear-gradient-69);}.cls-77{fill:url(#linear-gradient-70);}.cls-78{fill:url(#linear-gradient-71);}.cls-79{fill:url(#linear-gradient-72);}.cls-80{fill:url(#linear-gradient-73);}.cls-81{fill:url(#linear-gradient-74);}.cls-82{fill:url(#linear-gradient-75);}.cls-83{fill:url(#linear-gradient-76);}.cls-84{fill:url(#linear-gradient-77);}.cls-85{fill:url(#linear-gradient-78);}.cls-86{fill:url(#linear-gradient-79);}.cls-87{fill:url(#linear-gradient-80);}.cls-88{fill:url(#linear-gradient-81);}.cls-89{fill:url(#linear-gradient-82);}.cls-90{fill:url(#linear-gradient-83);}.cls-91{fill:url(#linear-gradient-84);}.cls-92{fill:url(#linear-gradient-85);}.cls-93{fill:url(#linear-gradient-86);}.cls-94{fill:url(#linear-gradient-87);}.cls-95{fill:url(#linear-gradient-88);}.cls-96{fill:url(#linear-gradient-89);}.cls-97{fill:url(#linear-gradient-90);}.cls-98{fill:url(#linear-gradient-91);}.cls-99{fill:url(#linear-gradient-92);}.cls-100{fill:url(#linear-gradient-93);}.cls-101{fill:url(#linear-gradient-94);}.cls-102{fill:url(#linear-gradient-95);}.cls-103{fill:url(#linear-gradient-96);}.cls-104{fill:url(#linear-gradient-97);}.cls-105{fill:url(#linear-gradient-98);}</style><linearGradient id="linear-gradient" y1="711.03" x2="2144.91" y2="711.03" gradientTransform="matrix(1, 0, 0, -1, 0, 1382)" gradientUnits="userSpaceOnUse"><stop offset="0" stop-color="#dae3fe"/><stop offset="1" stop-color="#e9effd"/></linearGradient><linearGradient id="linear-gradient-2" x1="181.84" y1="734.88" x2="525.86" y2="734.88" xlink:href="#linear-gradient"/><linearGradient id="linear-gradient-3" x1="186.39" y1="697.35" x2="489.34" y2="697.35" xlink:href="#linear-gradient"/><linearGradient id="linear-gradient-4" x1="107.6" y1="378.05" x2="551.62" y2="378.05" xlink:href="#linear-gradient"/><linearGradient id="linear-gradient-5" x1="116.93" y1="610.28" x2="546.55" y2="610.28" xlink:href="#linear-gradient"/><linearGradient id="linear-gradient-6" x1="256.18" y1="837.27" x2="408.8" y2="837.27" xlink:href="#linear-gradient"/><linearGradient id="linear-gradient-7" x1="1820.71" y1="763.57" x2="2050.94" y2="763.57" xlink:href="#linear-gradient"/><linearGradient id="linear-gradient-8" x1="190.92" y1="358.93" x2="665.72" y2="358.93" xlink:href="#linear-gradient"/><linearGradient id="linear-gradient-9" x1="1261.01" y1="323.53" x2="946.73" y2="-479.65" gradientTransform="matrix(1, 0, 0, -1, 0, 1382)" gradientUnits="userSpaceOnUse"><stop offset="0" stop-color="#09005d"/><stop offset="1" stop-color="#1a0f91"/></linearGradient><linearGradient id="linear-gradient-10" x1="1137.96" y1="1226.48" x2="1167.06" y2="324.36" xlink:href="#linear-gradient-9"/><linearGradient id="linear-gradient-11" x1="1663.59" y1="1095.39" x2="-321.52" y2="-276.06" gradientTransform="matrix(1, 0, 0, -1, 0, 1382)" gradientUnits="userSpaceOnUse"><stop offset="0" stop-color="#4042e2"/><stop offset="1" stop-color="#4f52ff"/></linearGradient><linearGradient id="linear-gradient-12" x1="1197.25" y1="576.91" x2="1191.43" y2="-16.74" xlink:href="#linear-gradient-9"/><linearGradient id="linear-gradient-13" x1="302.11" y1="369.87" x2="646.13" y2="369.87" xlink:href="#linear-gradient"/><linearGradient id="linear-gradient-14" x1="338.63" y1="342.14" x2="641.58" y2="342.14" xlink:href="#linear-gradient"/><linearGradient id="linear-gradient-15" x1="276.46" y1="199.66" x2="720.46" y2="199.66" xlink:href="#linear-gradient"/><linearGradient id="linear-gradient-16" x1="281.22" y1="277.81" x2="710.84" y2="277.81" xlink:href="#linear-gradient"/><linearGradient id="linear-gradient-17" x1="599.4" y1="139.57" x2="957.29" y2="139.57" xlink:href="#linear-gradient"/><linearGradient id="linear-gradient-18" x1="610.5" y1="107.55" x2="952.22" y2="107.55" xlink:href="#linear-gradient"/><linearGradient id="linear-gradient-19" x1="1419.07" y1="388.73" x2="2016.66" y2="388.73" gradientTransform="matrix(1, 0, 0, -1, 0, 1382)" gradientUnits="userSpaceOnUse"><stop offset="0" stop-color="#fe7062"/><stop offset="1" stop-color="#ff928e"/></linearGradient><linearGradient id="linear-gradient-20" x1="1528.48" y1="684.05" x2="1927.66" y2="684.05" xlink:href="#linear-gradient"/><linearGradient id="linear-gradient-21" x1="1528.23" y1="658.16" x2="1927.42" y2="658.16" xlink:href="#linear-gradient"/><linearGradient id="linear-gradient-22" x1="1533.82" y1="465.22" x2="1598.79" y2="465.22" xlink:href="#linear-gradient"/><linearGradient id="linear-gradient-23" x1="1637.74" y1="464.11" x2="1914.02" y2="464.11" xlink:href="#linear-gradient"/><linearGradient id="linear-gradient-24" x1="379.72" y1="-4948.69" x2="114.58" y2="-5401.23" gradientTransform="matrix(1, -0.02, -0.02, -1, 1191.37, -4256.56)" xlink:href="#linear-gradient-19"/><linearGradient id="linear-gradient-25" x1="1535.85" y1="581.83" x2="1600.8" y2="581.83" xlink:href="#linear-gradient"/><linearGradient id="linear-gradient-26" x1="1639.75" y1="580.73" x2="1916.03" y2="580.73" xlink:href="#linear-gradient"/><linearGradient id="linear-gradient-27" x1="384.54" y1="-4832.17" x2="119.4" y2="-5284.71" gradientTransform="matrix(1, -0.02, -0.02, -1, 1191.37, -4256.56)" xlink:href="#linear-gradient-19"/><linearGradient id="linear-gradient-28" x1="1536.51" y1="353.96" x2="1601.47" y2="353.96" xlink:href="#linear-gradient"/><linearGradient id="linear-gradient-29" x1="1640.39" y1="352.85" x2="1916.67" y2="352.85" xlink:href="#linear-gradient"/><linearGradient id="linear-gradient-30" x1="428.3" y1="-4977.16" x2="163.16" y2="-5429.7" gradientTransform="matrix(1, -0.02, -0.02, -1, 1191.37, -4256.56)" xlink:href="#linear-gradient-19"/><linearGradient id="linear-gradient-31" x1="1534.23" y1="247" x2="1599.19" y2="247" xlink:href="#linear-gradient"/><linearGradient id="linear-gradient-32" x1="1638.14" y1="245.89" x2="1914.42" y2="245.89" xlink:href="#linear-gradient"/><linearGradient id="linear-gradient-33" x1="464.24" y1="-5084.33" x2="115.37" y2="-5570.76" gradientTransform="matrix(1, -0.02, -0.02, -1, 1191.37, -4256.56)" xlink:href="#linear-gradient-19"/><linearGradient id="linear-gradient-34" x1="1530.99" y1="136.68" x2="1595.95" y2="136.68" xlink:href="#linear-gradient"/><linearGradient id="linear-gradient-35" x1="1634.9" y1="135.57" x2="1911.18" y2="135.57" xlink:href="#linear-gradient"/><linearGradient id="linear-gradient-36" x1="514.6" y1="-5028.51" x2="249.46" y2="-5481.05" gradientTransform="matrix(1, -0.02, -0.02, -1, 1191.37, -4256.56)" xlink:href="#linear-gradient-19"/><linearGradient id="linear-gradient-37" x1="2361.7" y1="-1307.7" x2="2156.1" y2="-1578.15" gradientTransform="matrix(0.88, 0.48, 0.48, -0.88, 379.06, -1774.74)" xlink:href="#linear-gradient-9"/><linearGradient id="linear-gradient-38" x1="679.03" y1="-4633.28" x2="466.79" y2="-4912.48" gradientTransform="matrix(1, 0.01, 0.01, -1, 1174.31, -4165.4)" xlink:href="#linear-gradient-9"/><linearGradient id="linear-gradient-39" x1="652.34" y1="-4650.3" x2="505.79" y2="-4919.39" gradientTransform="matrix(1, 0.01, 0.01, -1, 1174.31, -4165.4)" xlink:href="#linear-gradient-9"/><linearGradient id="linear-gradient-40" x1="1508.2" y1="1079.78" x2="1096.47" y2="495.17" xlink:href="#linear-gradient-19"/><linearGradient id="linear-gradient-41" x1="11594.46" y1="-24.2" x2="11660.85" y2="-24.2" gradientTransform="translate(12494.83 1382) rotate(180)" xlink:href="#linear-gradient-11"/><linearGradient id="linear-gradient-42" x1="11594.49" y1="-11.17" x2="11659.01" y2="-11.17" gradientTransform="translate(12494.83 1382) rotate(180)" xlink:href="#linear-gradient-9"/><linearGradient id="linear-gradient-43" x1="11600.59" y1="6.98" x2="11619.31" y2="6.98" gradientTransform="translate(12494.83 1382) rotate(180)" gradientUnits="userSpaceOnUse"><stop offset="0" stop-color="#ff928e"/><stop offset="1" stop-color="#feb3b1"/></linearGradient><linearGradient id="linear-gradient-44" x1="11462.03" y1="-22.78" x2="11487.51" y2="-22.78" gradientTransform="translate(12494.83 1382) rotate(180)" xlink:href="#linear-gradient-11"/><linearGradient id="linear-gradient-45" x1="11462.22" y1="-3.17" x2="11499.6" y2="-3.17" gradientTransform="translate(12494.83 1382) rotate(180)" xlink:href="#linear-gradient-9"/><linearGradient id="linear-gradient-46" x1="11481.64" y1="22.59" x2="11503.99" y2="22.59" xlink:href="#linear-gradient-43"/><linearGradient id="linear-gradient-47" x1="1055.02" y1="660.26" x2="937.83" y2="197.08" xlink:href="#linear-gradient-11"/><linearGradient id="linear-gradient-48" x1="864.38" y1="386.73" x2="681.98" y2="82.08" xlink:href="#linear-gradient-19"/><linearGradient id="linear-gradient-49" x1="838.23" y1="704.59" x2="871.7" y2="300.07" xlink:href="#linear-gradient-9"/><linearGradient id="linear-gradient-50" x1="11584.09" y1="348.53" x2="11504.49" y2="278.04" xlink:href="#linear-gradient-43"/><linearGradient id="linear-gradient-51" x1="900.73" y1="364.96" x2="718.33" y2="60.32" xlink:href="#linear-gradient-19"/><linearGradient id="linear-gradient-52" x1="803.66" y1="423.09" x2="621.26" y2="118.44" xlink:href="#linear-gradient-19"/><linearGradient id="linear-gradient-53" x1="11733.31" y1="341.87" x2="11796.01" y2="341.87" xlink:href="#linear-gradient-43"/><linearGradient id="linear-gradient-54" x1="810.06" y1="524.07" x2="841.11" y2="417.35" gradientTransform="matrix(1, 0, 0, -1, 0, 1382)" gradientUnits="userSpaceOnUse"><stop offset="0" stop-color="#ff928e"/><stop offset="0.11" stop-color="#ff9592"/><stop offset="1" stop-color="#feb3b1"/></linearGradient><linearGradient id="linear-gradient-55" x1="11498.13" y1="295.96" x2="11826.37" y2="295.96" gradientTransform="translate(12494.83 1382) rotate(180)" xlink:href="#linear-gradient-9"/><linearGradient id="linear-gradient-56" x1="11808.34" y1="441.51" x2="12109.68" y2="441.51" gradientTransform="translate(12494.83 1382) rotate(180)" gradientUnits="userSpaceOnUse"><stop offset="0" stop-color="#b37cff"/><stop offset="1" stop-color="#f895e7"/></linearGradient><linearGradient id="linear-gradient-57" x1="11791.37" y1="441.51" x2="12126.67" y2="441.51" gradientTransform="translate(12494.83 1382) rotate(180)" xlink:href="#linear-gradient-9"/><linearGradient id="linear-gradient-58" x1="11615.52" y1="313.04" x2="11535.92" y2="242.55" xlink:href="#linear-gradient-43"/><linearGradient id="linear-gradient-59" x1="11789.34" y1="349.22" x2="11811.79" y2="349.22" xlink:href="#linear-gradient-43"/><linearGradient id="linear-gradient-60" x1="7080.77" y1="-3698.96" x2="7120.55" y2="-3625.23" gradientTransform="translate(10161.83 1382) rotate(180)" xlink:href="#linear-gradient-43"/><linearGradient id="linear-gradient-61" x1="9327.51" y1="554.43" x2="9378.55" y2="488.73" gradientTransform="translate(10161.83 1382) rotate(180)" xlink:href="#linear-gradient-9"/><linearGradient id="linear-gradient-62" x1="7066.4" y1="-3691.2" x2="7106.17" y2="-3617.47" gradientTransform="translate(10161.83 1382) rotate(180)" xlink:href="#linear-gradient-43"/><linearGradient id="linear-gradient-63" x1="667.29" y1="760.8" x2="464.45" y2="253.68" xlink:href="#linear-gradient-19"/><linearGradient id="linear-gradient-64" x1="1761.23" y1="1276.37" x2="1635.11" y2="1101.73" xlink:href="#linear-gradient-9"/><linearGradient id="linear-gradient-65" x1="1709.59" y1="-2688.06" x2="2074.39" y2="-2468.79" gradientTransform="translate(10425.82 1390.85) rotate(176)" xlink:href="#linear-gradient-19"/><linearGradient id="linear-gradient-66" x1="1687.25" y1="-2650.88" x2="2052.05" y2="-2431.61" gradientTransform="translate(10425.82 1390.85) rotate(176)" xlink:href="#linear-gradient-19"/><linearGradient id="linear-gradient-67" x1="1663.57" y1="-2611.5" x2="2028.37" y2="-2392.23" gradientTransform="translate(10425.82 1390.85) rotate(176)" xlink:href="#linear-gradient-19"/><linearGradient id="linear-gradient-68" x1="1640.92" y1="-2573.82" x2="2005.72" y2="-2354.55" gradientTransform="translate(10425.82 1390.85) rotate(176)" xlink:href="#linear-gradient-19"/><linearGradient id="linear-gradient-69" x1="1750.21" y1="228.7" x2="1860.44" y2="228.7" xlink:href="#linear-gradient-11"/><linearGradient id="linear-gradient-70" x1="1964.67" y1="225.33" x2="2092.41" y2="225.33" xlink:href="#linear-gradient-11"/><linearGradient id="linear-gradient-71" x1="1824.77" y1="364.17" x2="2004.33" y2="364.17" xlink:href="#linear-gradient-11"/><linearGradient id="linear-gradient-72" x1="1827.98" y1="364.17" x2="2001.1" y2="364.17" xlink:href="#linear-gradient-11"/><linearGradient id="linear-gradient-73" x1="1824.77" y1="270.61" x2="2004.33" y2="270.61" xlink:href="#linear-gradient-11"/><linearGradient id="linear-gradient-74" x1="1809.61" y1="270.61" x2="2024.6" y2="270.61" xlink:href="#linear-gradient-11"/><linearGradient id="linear-gradient-75" x1="1824.77" y1="177.13" x2="2004.33" y2="177.13" xlink:href="#linear-gradient-11"/><linearGradient id="linear-gradient-76" x1="1790.27" y1="177.13" x2="2045.14" y2="177.13" xlink:href="#linear-gradient-11"/><linearGradient id="linear-gradient-77" x1="1824.77" y1="83.61" x2="2064.62" y2="83.61" xlink:href="#linear-gradient-11"/><linearGradient id="linear-gradient-78" x1="1774.63" y1="83.61" x2="2064.62" y2="83.61" xlink:href="#linear-gradient-11"/><linearGradient id="linear-gradient-79" x1="836.11" y1="1440.45" x2="611.17" y2="906.23" xlink:href="#linear-gradient-9"/><linearGradient id="linear-gradient-80" x1="887.85" y1="1418.67" x2="662.91" y2="884.45" xlink:href="#linear-gradient-9"/><linearGradient id="linear-gradient-81" x1="959.19" y1="1388.63" x2="734.26" y2="854.41" xlink:href="#linear-gradient-9"/><linearGradient id="linear-gradient-82" x1="1047.32" y1="1351.52" x2="822.38" y2="817.3" xlink:href="#linear-gradient-9"/><linearGradient id="linear-gradient-83" x1="1124.26" y1="1319.12" x2="899.33" y2="784.9" xlink:href="#linear-gradient-9"/><linearGradient id="linear-gradient-84" x1="1193.7" y1="1289.89" x2="968.76" y2="755.67" xlink:href="#linear-gradient-9"/><linearGradient id="linear-gradient-85" x1="1277.09" y1="1254.78" x2="1052.15" y2="720.55" xlink:href="#linear-gradient-9"/><linearGradient id="linear-gradient-86" x1="1342.8" y1="1227.1" x2="1117.87" y2="692.88" xlink:href="#linear-gradient-9"/><linearGradient id="linear-gradient-87" x1="1555.1" y1="846.46" x2="1919.9" y2="1065.73" xlink:href="#linear-gradient-19"/><linearGradient id="linear-gradient-88" x1="1832.41" y1="1022.14" x2="1910.03" y2="800.93" gradientTransform="matrix(1, 0, 0, -1, 0, 1382)" xlink:href="#linear-gradient-43"/><linearGradient id="linear-gradient-89" x1="6375.65" y1="-620.91" x2="6447.45" y2="-327.91" gradientTransform="matrix(1, 0, 0, -1, -4693.69, 1382)" xlink:href="#linear-gradient-43"/><linearGradient id="linear-gradient-90" x1="6725.57" y1="690.03" x2="6679.02" y2="387.39" gradientTransform="matrix(1, 0, 0, -1, -4693.69, 1382)" xlink:href="#linear-gradient-9"/><linearGradient id="linear-gradient-91" x1="6627.07" y1="705.19" x2="6580.51" y2="402.55" gradientTransform="matrix(1, 0, 0, -1, -4693.69, 1382)" xlink:href="#linear-gradient-9"/><linearGradient id="linear-gradient-92" x1="6301.47" y1="-602.73" x2="6373.27" y2="-309.73" gradientTransform="matrix(1, 0, 0, -1, -4693.69, 1382)" xlink:href="#linear-gradient-43"/><linearGradient id="linear-gradient-93" x1="-2207.9" y1="584.97" x2="-2146.06" y2="691.32" gradientTransform="translate(-229.08 1382) rotate(180)" xlink:href="#linear-gradient-11"/><linearGradient id="linear-gradient-94" x1="6339.85" y1="2285.34" x2="6372.33" y2="2059.51" gradientTransform="matrix(1, 0, 0, -1, -4693.69, 1382)" xlink:href="#linear-gradient-11"/><linearGradient id="linear-gradient-95" x1="6555.81" y1="828.93" x2="6589.13" y2="828.93" gradientTransform="matrix(1, 0, 0, -1, -4693.69, 1382)" gradientUnits="userSpaceOnUse"><stop offset="0" stop-color="#f9b776"/><stop offset="1" stop-color="#f47960"/></linearGradient><linearGradient id="linear-gradient-96" x1="6562.92" y1="875.12" x2="6805.42" y2="858.63" gradientTransform="matrix(1, 0, 0, -1, -4693.69, 1382)" xlink:href="#linear-gradient-43"/><linearGradient id="linear-gradient-97" x1="6624.56" y1="838.47" x2="6539.2" y2="667.75" gradientTransform="matrix(1, 0, 0, -1, -4693.69, 1382)" xlink:href="#linear-gradient-9"/><linearGradient id="linear-gradient-98" x1="5938.44" y1="2413.79" x2="6016.05" y2="2192.58" gradientTransform="matrix(1, 0, 0, -1, -4693.69, 1382)" xlink:href="#linear-gradient-43"/></defs><title>Asset 3</title><g id="Layer_2" data-name="Layer 2"><g id="Layer_1-2" data-name="Layer 1"><g id="Illustration"><path class="cls-1" d="M549.07,1341.12s-190.4-25.34-280.81-5.55S-46.1,1248,28.12,1079.57s158.26-272.84,61.17-365S-38.35,447.06,61.77,348.47,192,351.32,271.77,315,250.25,89.31,475.58,35.78s393.58,80.62,496,62.35S1238.37-4.52,1348.93.19s96.85,169.55,243.55,159.94,261.9-26.21,357,114.11,72.18,318.3-18.43,388.63-72.93,164.92,94.13,170.35,148.25,201.6,11.92,346.42-253.27,146.43-389.44,155.93S549.07,1341.12,549.07,1341.12Z"/><path class="cls-2" d="M566.46,1342.59H91.25a27.46,27.46,0,0,1-27.44-27.44V603.46A27.44,27.44,0,0,1,91.18,576l479-1.29a27.43,27.43,0,0,1,27.51,27.37v.22l-3.8,713A27.44,27.44,0,0,1,566.46,1342.59Z"/><path class="cls-3" d="M543.13,609.86l-424.87,2.62a27.84,27.84,0,0,0-27.67,28l3,638.77a27.85,27.85,0,0,0,27.33,27.7l412.81,7.53a27.84,27.84,0,0,0,28.32-27.35V1287l9.09-648.91a27.84,27.84,0,0,0-27.44-28.23Z"/><rect class="cls-4" x="181.84" y="637.32" width="344.02" height="19.59" rx="8.33"/><path class="cls-5" d="M489.33,682.49h0a8.32,8.32,0,0,1-8.16,7.88l-286.3,5.21a8.32,8.32,0,0,1-8.48-8.16v-.84a8.33,8.33,0,0,1,8.2-8.33l286.29-4.54a8.33,8.33,0,0,1,8.46,8.22A5.28,5.28,0,0,1,489.33,682.49Z"/><path class="cls-6" d="M518.26,1292.62,131,1288a23.73,23.73,0,0,1-23.44-24v-.17l10-525.3a23.73,23.73,0,0,1,24.17-23.28h0l386.55,7.53a23.77,23.77,0,0,1,23.27,24.15h0l-9.3,522.43a23.77,23.77,0,0,1-23.72,23.31ZM130.31,727.53a15.78,15.78,0,0,0-4.85,11.11l-10,525.3A15.85,15.85,0,0,0,131,1280.08h.1l387.23,4.64a15.79,15.79,0,0,0,16-15.55l9.29-522.43h0a15.86,15.86,0,0,0-15.52-16.11l-386.56-7.52h-.31A15.73,15.73,0,0,0,130.31,727.53Z"/><path class="cls-7" d="M120.88,775.67H542.6a4,4,0,1,0,1.26-7.9,3.81,3.81,0,0,0-1.26,0H120.88a4,4,0,0,0-1.26,7.9A3.81,3.81,0,0,0,120.88,775.67Z"/><path class="cls-8" d="M227.84,113.56c-29.1,87.09-177.72,600.81,279.29,826.87,0,0,184.91-313-266.08-829.54a7.78,7.78,0,0,0-13.21,2.67Z"/><path class="cls-9" d="M256.18,201.26c2.28,29.27,5.16,58.45,8.3,87.62s6.64,58.3,10.46,87.39c7.66,58.17,16.61,116.19,27.35,173.9S325.53,665.29,341.13,722q11.55,42.54,26.25,84.2c9.84,27.72,20.81,55.12,33.94,81.59a3.94,3.94,0,0,0,7.07-3.5h0c-13.11-26-24.15-53.07-34.1-80.52s-18.83-55.44-26.66-83.62c-15.88-56.32-28.69-113.52-39.82-171s-20.35-115.43-28.42-173.48q-6-43.55-11-87.22c-3.32-29.11-6.39-58.27-8.86-87.45h0a1.67,1.67,0,0,0-3.33.27Z"/><path class="cls-8" d="M2057.46,136.67c-2.23-7.44-13-6.95-14.48.67C2028.46,211,1984.19,403,1901.29,509.6c-135,173.52-212.6,444.14-107.27,572.86C1794,1082.46,2300.13,947.57,2057.46,136.67Z"/><path class="cls-10" d="M2050.84,240.7c0,2.27-.21,4.26-.33,6.36l-.5,6.21-1.13,12.4c-.81,8.27-1.7,16.52-2.61,24.77q-2.79,24.75-6.18,49.42c-4.51,32.9-9.88,65.68-15.75,98.36s-12.54,65.23-19.9,97.62L2001.7,548l-2.9,12.12c-2,8.07-3.79,16.17-5.89,24.21l-6.15,24.14-6.5,24c-17.69,64-38.74,127.22-64.19,188.64-1.54,3.86-3.2,7.67-4.89,11.46l-5,11.41-5,11.41c-1.72,3.79-3.54,7.52-5.31,11.29-3.59,7.49-7,15.06-10.75,22.48l-11.35,22.2a877.91,877.91,0,0,1-51.54,85.28.85.85,0,0,1-1.41-.94h0a946.91,946.91,0,0,0,49.84-85.94l11.07-22.24c3.65-7.43,7-15,10.49-22.52,1.72-3.76,3.49-7.51,5.16-11.29l4.88-11.43,4.88-11.42c1.65-3.8,3.26-7.61,4.76-11.47l9.21-23.07c3-7.71,5.84-15.5,8.77-23.25,1.44-3.88,2.93-7.75,4.33-11.65l4.1-11.72,4.1-11.73c1.38-3.9,2.73-7.82,4-11.77,10.59-31.39,19.93-63.2,29-95.08,17.81-63.85,32.34-128.59,44.83-193.7q9.29-48.85,16.67-98.06,3.73-24.58,7-49.25c1-8.22,2.07-16.45,3-24.69l1.33-12.36.59-6.18c.17-2,.38-4.17.44-6.06v-.18a.84.84,0,0,1,.93-.74.83.83,0,0,1,.74.74Z"/><path class="cls-8" d="M696.4,1315s-5.24-110.77-119.8-220C470.32,993.64,209.46,759.53,147.28,627.73a6,6,0,0,0-11.37,2.6c1.12,69.23,17.54,242.42,141.69,411.74C437.69,1260.43,696.4,1315,696.4,1315Z"/><path class="cls-11" d="M190.92,750.58c2.36,15.14,6.6,29.94,11.64,44.4.62,1.82,1.2,3.64,1.85,5.45l2.05,5.36,4.12,10.75,4.56,10.56c1.55,3.5,3,7.08,4.73,10.49A541.77,541.77,0,0,0,266.24,917c4.18,6.46,9,12.44,13.6,18.59S289,948,294,953.73l14.79,17.66c2.41,3,5.11,5.73,7.71,8.56l7.84,8.43,7.85,8.43,3.94,4.2,4.12,4,16.5,16.07c2.77,2.65,5.46,5.41,8.3,8l8.49,7.72,17,15.45,17.16,15.25c5.73,5.07,11.42,10.19,17.23,15.17q17.31,15.07,34.86,29.87c11.66,9.92,23.46,19.64,35.22,29.43l35.56,29c23.73,19.29,47.47,38.53,70.53,58.51,5.84,4.92,11.42,10.11,17.09,15.21,2.86,2.52,5.55,5.22,8.3,7.85s5.51,5.26,8.17,8c5.2,5.55,10.61,10.93,15.41,16.83l3.71,4.34c.61.73,1.26,1.43,1.83,2.19l1.7,2.28,6.82,9.16h0a.87.87,0,0,0,1.22.17h0a.87.87,0,0,0,.21-1.17,270.34,270.34,0,0,0-28.71-36c-2.61-2.81-5.36-5.49-8-8.24s-5.35-5.5-8.17-8.1c-5.57-5.26-11.06-10.62-16.8-15.69-22.73-20.56-46.35-40-69.77-59.68s-46.9-39.21-70.12-59.06-46.18-40-68.95-60.35l-16.93-15.42-8.47-7.72c-2.83-2.56-5.51-5.26-8.27-7.88l-16.45-15.84-4.11-4-3.92-4.14L329.06,984a673.43,673.43,0,0,1-58.39-70.11A537.77,537.77,0,0,1,223,836.09c-1.83-3.35-3.29-6.87-5-10.29l-4.88-10.34-4.45-10.53-2.19-5.28c-.71-1.77-1.35-3.56-2-5.35-1.31-3.57-2.73-7.12-4-10.73l-3.57-10.87a222.37,222.37,0,0,1-5.77-22.15.1.1,0,0,0-.12-.09A.13.13,0,0,0,190.92,750.58Z"/><polygon class="cls-12" points="1059.49 1055.61 1030.77 1313.19 1363.98 1313.19 1320.58 1055.61 1059.49 1055.61"/><path class="cls-13" d="M360.54,293.35v708.58a107.5,107.5,0,0,0,104.72,107.46c258.81,6.67,1164,22.85,1410.36,19.22a79.09,79.09,0,0,0,77.87-76.84c4.75-164.61,12.46-560.45-16.09-744.22a81.39,81.39,0,0,0-77.82-68.89c-216.85-6.94-1176.4-29-1422.66-23.44A78.15,78.15,0,0,0,360.54,293.35Z"/><path class="cls-14" d="M405,289.9V963.1a62.28,62.28,0,0,0,61.35,62.27l1373.82,17a60.62,60.62,0,0,0,61.52-59.69V982l2.3-667.18a44.33,44.33,0,0,0-43.25-44.48L454.2,241.88A48,48,0,0,0,405,288.66C405,289.08,405,289.49,405,289.9Z"/><path class="cls-15" d="M444,311.26V943.12c0,31.94,26,58,58.41,58.44l1308.07,15.94c32.13.47,58.46-25,58.58-56.68l2.18-626.2c.09-22.65-18.21-41.2-41.18-41.75L490.82,266.2C465.13,265.58,444,285.94,444,311.26Z"/><path class="cls-2" d="M1912,1070.13h0L405,1044.45a2.11,2.11,0,0,1,.07-4.21l1507,25.68a2.11,2.11,0,0,1,0,4.21Z"/><path class="cls-2" d="M1173.39,1101.49a17.79,17.79,0,1,1,17.78-17.8v0A17.81,17.81,0,0,1,1173.39,1101.49Zm0-31.36a13.58,13.58,0,1,0,13.57,13.59h0A13.58,13.58,0,0,0,1173.39,1070.13Z"/><path class="cls-16" d="M1435.75,1365.89H948.08c-13.25,0-23.2-9.43-20.64-19.56l6.26-24.75c1.88-7.44,10.07-12.91,19.8-13.21l470.13-14.67c10.16-.32,19.16,5.08,21.37,12.81l11.28,39.42C1459.21,1356.17,1449.21,1365.89,1435.75,1365.89Z"/><path class="cls-2" d="M1210.6,1315.59a2.11,2.11,0,0,1,0-4.21l20.15-.3a2.19,2.19,0,0,1,2.14,2.08,2.12,2.12,0,0,1-2.08,2.14l-20.15.29Z"/><path class="cls-2" d="M945.46,1352.76h-.33a2.12,2.12,0,0,1-1.75-2.42l2.87-18A20.6,20.6,0,0,1,966.36,1315l213.68-3.13a2.1,2.1,0,0,1,2.14,2.06v0a2.12,2.12,0,0,1-2.08,2.14l-213.64,3.07a16.4,16.4,0,0,0-16,13.83l-2.87,18A2.11,2.11,0,0,1,945.46,1352.76Z"/><path class="cls-17" d="M994.53,794.8l-502.13,6c-19.34.23-34.59,12.75-33.64,27.63l8.36,131.49C468,973.92,483,985,501.28,985H995.06c18.89,0,34.21-11.8,34.21-26.35V821.13C1029.27,806.43,1013.63,794.57,994.53,794.8Z"/><path class="cls-17" d="M1614.52,758.22l-502.14,7.3c-19.34.29-34.58,15.61-33.63,33.81l8.36,160.9c.89,17.17,15.92,30.65,34.16,30.65h493.78c18.89,0,34.2-14.43,34.2-32.23V790.44C1649.25,772.45,1633.62,757.94,1614.52,758.22Z"/><path class="cls-17" d="M1265.65,412.28H490.27c-12,0-21.81,9.18-21.81,20.49V632c0,11.32,9.76,20.49,21.81,20.49h775.38c12,0,21.81-9.17,21.81-20.49V432.77C1287.46,421.46,1277.7,412.28,1265.65,412.28Z"/><path class="cls-17" d="M1844,423.49H1533.81a10.74,10.74,0,0,0-2.71.25c-25.93,6.8-34.66-14.94-44.74,18.08-.4,1.32.53,2.72.53,4.11V643.19c0,11.32,20.4,20.49,45.57,20.49H1844c25.16,0,45.57-9.17,45.57-20.49V444C1889.56,432.66,1869.15,423.49,1844,423.49Z"/><path class="cls-2" d="M261.55,1339.1H736.72c15.15,0,27.43-9.08,27.43-20.27V979.88c0-11.17-12.24-20.24-27.36-20.27l-479-1c-15.24,0-27.59,9.12-27.51,20.38l3.8,339.9C234.2,1330.09,246.46,1339.1,261.55,1339.1Z"/><path class="cls-3" d="M284.84,984.61l424.87,1.93c15.36.07,27.74,9.31,27.67,20.66l-3,285.07c-.07,11.18-12.2,20.27-27.33,20.47l-412.79,5.56c-15.41.21-28.12-8.88-28.34-20.27l-9.09-292.57C256.61,993.94,269.24,984.54,284.84,984.61Z"/><path class="cls-18" d="M302.11,1011.05v2.16c0,3.4,3.73,6.15,8.33,6.15H637.8c4.6,0,8.33-2.75,8.33-6.15v-2.16c0-3.4-3.73-6.16-8.33-6.16H310.46C305.84,1004.89,302.11,1007.65,302.11,1011.05Z"/><path class="cls-19" d="M338.64,1038.26h0c.23,3.22,3.8,5.76,8.16,5.82l286.3,3.86c4.65.06,8.48-2.71,8.48-6.15v-.51c0-3.36-3.65-6.1-8.2-6.15l-286.29-3.35C342.26,1031.72,338.38,1034.7,338.64,1038.26Z"/><path class="cls-20" d="M285.7,1285.09,276.46,1086v-.09a16.15,16.15,0,0,1,4.75-11.55c4.4-4.57,11.16-7.26,18.54-7.36l386.55-5.56h.44c12.87,0,23.46,8.08,23.72,18.08l10,201.35a16.12,16.12,0,0,1-4.77,11.6c-4.45,4.6-11.25,7.27-18.68,7.34l-387.23,3.43h-.29C296.33,1303.21,285.94,1295.26,285.7,1285.09ZM686.35,1069.3l-386.55,5.56c-5.21.08-10,1.92-13,4.94a8.4,8.4,0,0,0-2.55,5.85l9.3,199.17c.13,5.72,7.36,10.5,15.83,10.5h.2l387.23-3.44c5.24,0,10.13-1.88,13.07-4.92a8.34,8.34,0,0,0,2.56-5.82l-10-201.35c-.15-5.73-7.36-10.49-15.83-10.49Z"/><path class="cls-21" d="M285.37,1108.13H707.09a3.95,3.95,0,0,0,0-7.89H285.37a3.95,3.95,0,1,0-.39,7.89Z"/><path class="cls-2" d="M1024.46,1213.81l-3.7,132c-.29,10.26-14.24,18.48-31.34,18.48H557.2c-17.31,0-31.35-8.41-31.35-18.79V1222c0-10.14,13.43-18.45,30.34-18.78l435.9-8.46C1010,1194.36,1024.75,1203.07,1024.46,1213.81Z"/><path class="cls-8" d="M988.67,1226.67l-9.38,121.39c-.36,4.66-6.84,8.31-14.62,8.23l-393.57-4.16c-7.84-.08-14.13-3.92-14.13-8.62V1238.23c0-4.6,6-8.39,13.68-8.61l402.94-12C982.07,1217.41,989.06,1221.59,988.67,1226.67Z"/><path class="cls-22" d="M957.29,1238.05v8.75c0,3.08-4.22,5.57-9.36,5.52L608.46,1249c-5,0-9.06-2.51-9.06-5.52h0c0-3,4-5.44,9-5.52l339.46-5.42C953,1232.46,957.29,1235,957.29,1238.05Z"/><path class="cls-23" d="M952.22,1271.08v8c0,3.12-4.32,5.62-9.53,5.51l-323.31-6.75c-5-.1-8.88-2.54-8.88-5.52v-2.5c0-3.06,4.16-5.53,9.26-5.51l323.31,1.23C948.13,1265.59,952.22,1268.05,952.22,1271.08Z"/><path class="cls-24" d="M1479.33,612.87l461.4,3.81a47.81,47.81,0,0,1,47.37,45.76l28.53,669.23a35.25,35.25,0,0,1-33.71,36.72c-.39,0-.77,0-1.16,0l-528.9,5.24a33.45,33.45,0,0,1-33.79-33.11v-.62l5.56-673.26a54.25,54.25,0,0,1,54.7-53.8Z"/><path class="cls-25" d="M1530.23,1363.17h0l-59.17-1.25a36.74,36.74,0,0,1-35.82-36.89l.74-89.34a1.51,1.51,0,0,1,3-.35,1,1,0,0,1,0,.35l-.73,89.34a33.72,33.72,0,0,0,32.87,33.86l59.16,1.25a1.51,1.51,0,1,1,.35,3h-.35Z"/><path class="cls-25" d="M1437.68,1209.53a1.5,1.5,0,0,1-1.48-1.52h0l.12-14.46a1.52,1.52,0,0,1,1.52-1.5h0a1.5,1.5,0,0,1,1.48,1.52h0l-.12,14.47a1.49,1.49,0,0,1-1.49,1.49Z"/><path class="cls-2" d="M1480.8,607.45c62.93,9.07,279.39,37.29,458.64,25A14.58,14.58,0,0,1,1955,646c0,.12,0,.23,0,.35l30.16,672.22a16.75,16.75,0,0,1-15.9,17.51c-75.38,3.83-385.81,18.51-496.39,6a13.3,13.3,0,0,1-11.78-13.25L1462.79,623a15.77,15.77,0,0,1,18-15.55Z"/><path class="cls-8" d="M1487.4,624.94c60.57,8.72,268.87,35.88,441.37,24.07a14,14,0,0,1,15,13c0,.13,0,.27,0,.4l29,646.91a16.14,16.14,0,0,1-15.3,16.85c-72.54,3.69-371.28,17.81-477.69,5.77a12.78,12.78,0,0,1-11.34-12.74l1.61-679.22a15.19,15.19,0,0,1,15.22-15.15A17,17,0,0,1,1487.4,624.94Z"/><path class="cls-26" d="M1923.88,705.78a3.69,3.69,0,0,0,3.78-3.62,2.44,2.44,0,0,0,0-.38l-.07-1.32a4.38,4.38,0,0,0-4.23-4l-392.64-6.34c-2.2,0-2.89,1.35-1.54,3.08l4.89,6.25a9.43,9.43,0,0,0,6.46,3.18Z"/><path class="cls-27" d="M1530.46,716c-2.2,0-2.89,1.36-1.53,3.09l4.89,6.24a9.43,9.43,0,0,0,6.46,3.18l383.36,3.17a3.71,3.71,0,0,0,3.78-3.64c0-.12,0-.24,0-.36l-.08-1.32a4.38,4.38,0,0,0-4.23-4.06Z"/><path class="cls-28" d="M1596.59,951.39h-.13l-51.93.76c-7.48.1-13.78-4.9-14.65-11.64l-5.62-43.45a9.62,9.62,0,0,1,2.09-7.26,11.54,11.54,0,0,1,7.94-4.16h0c4.37-.4,10.39-1.06,17-1.79,14.42-1.58,30.76-3.37,40.38-3.72h.22c6.88-.16,12.9,3.89,14.69,9.92,3,10,3.17,28.89,3.14,49.07C1609.71,945.73,1603.83,951.21,1596.59,951.39Zm-61.92-61.53a7.34,7.34,0,0,0-5,2.58,5.46,5.46,0,0,0-1.19,4.08l5.61,43.45c.59,4.6,5.06,8,10.39,7.94l51.93-.75h.1c5-.12,9-3.71,9-8,0-19.86-.17-38.46-3-47.87-1.24-4.16-5.83-7.17-10.69-6.88-9.47.35-26.44,2.21-40.08,3.7-6.65.73-12.69,1.39-17.08,1.8Z"/><path class="cls-29" d="M1540.35,894.1c10.89-1,34.53-4,45.77-4.4,4.76-.18,9,2.6,10.23,6.7,2.36,8,2.46,24,2.44,38.74,0,4.42-4,8-8.94,8.12l-41.49.6c-5.11.08-9.43-3.3-10-7.82l-4.49-34.72C1533.4,897.73,1536.32,894.47,1540.35,894.1Z"/><path class="cls-30" d="M1640.81,905.09a2.85,2.85,0,0,0-3.06,2.62,3,3,0,0,0,.17,1.22l5.24,18.1a5.5,5.5,0,0,0,5.11,3.74l261.92-6.32a3.93,3.93,0,0,0,3.83-4,.28.28,0,0,1,0-.09l-.55-11.36a4.26,4.26,0,0,0-4.19-4Z"/><path class="cls-31" d="M1542.73,900.87h0a8,8,0,0,1,11,2.63l.06.1,10.68,18.11a2.56,2.56,0,0,0,4.56-.31l24-57.16a2.84,2.84,0,0,1,5.45,1.1c.16,17.3-3.64,50.29-30.61,78.47,0,0-15.37-5.55-28.28-32.19A8.35,8.35,0,0,1,1542.73,900.87Z"/><path class="cls-28" d="M1598.6,834.78h-.14l-51.93.75c-7.48.11-13.78-4.89-14.65-11.63l-5.61-43.45a9.59,9.59,0,0,1,2.09-7.27,11.57,11.57,0,0,1,7.93-4.15h0c4.37-.41,10.39-1.07,17-1.79,14.42-1.58,30.76-3.37,40.38-3.72h.21c6.88-.17,12.9,3.89,14.69,9.91,3,10,3.17,28.9,3.14,49.08C1611.72,829.12,1605.85,834.6,1598.6,834.78Zm-61.92-61.53a7.24,7.24,0,0,0-5,2.58,5.38,5.38,0,0,0-1.2,4.08l5.61,43.45c.6,4.6,5.07,8,10.39,7.94l51.93-.76h.1c5-.12,9-3.71,9-8,0-19.86-.18-38.47-3-47.87-1.24-4.17-5.82-7.17-10.69-6.88-9.46.35-26.43,2.21-40.07,3.7-6.65.73-12.7,1.39-17.09,1.8Z"/><path class="cls-32" d="M1542.37,777.48c10.88-1,34.53-4,45.77-4.39,4.76-.18,9,2.6,10.22,6.7,2.37,8,2.46,24,2.44,38.74,0,4.42-4,8.05-8.94,8.12l-41.49.6c-5.1.08-9.42-3.3-10-7.82l-4.48-34.72C1535.46,781.12,1538.33,777.86,1542.37,777.48Z"/><path class="cls-33" d="M1642.82,788.48a2.85,2.85,0,0,0-3.06,2.62,3,3,0,0,0,.17,1.22l5.25,18.09a5.49,5.49,0,0,0,5.11,3.75l261.92-6.32a3.91,3.91,0,0,0,3.82-4s0-.08,0-.11l-.52-11.37a4.24,4.24,0,0,0-4.18-4Z"/><path class="cls-34" d="M1544.74,784.26h0a8,8,0,0,1,11,2.63l.06.1,10.69,18.1a2.56,2.56,0,0,0,3.49.93,2.52,2.52,0,0,0,1.07-1.23l24-57.16a2.84,2.84,0,0,1,5.45,1.1c.16,17.3-3.64,50.28-30.61,78.47,0,0-15.37-5.55-28.28-32.19A8.37,8.37,0,0,1,1544.74,784.26Z"/><path class="cls-28" d="M1599.27,1062.65h-.14l-51.93.75c-7.48.11-13.78-4.89-14.65-11.63l-5.61-43.45a9.59,9.59,0,0,1,2.09-7.27,11.54,11.54,0,0,1,7.93-4.16h0c4.37-.4,10.39-1.06,17-1.79,14.42-1.57,30.76-3.37,40.38-3.72h.21c6.88-.17,12.9,3.88,14.69,9.91,3,10,3.17,28.89,3.14,49.08C1612.39,1057,1606.52,1062.48,1599.27,1062.65Zm-61.92-61.53a7.24,7.24,0,0,0-5,2.59,5.36,5.36,0,0,0-1.2,4.07l5.61,43.45c.6,4.61,5.07,8,10.39,7.94l51.93-.75h.1c5-.12,9-3.71,9-8.05,0-19.86-.18-38.46-3-47.86-1.24-4.17-5.82-7.12-10.69-6.88-9.46.34-26.44,2.2-40.07,3.7-6.65.72-12.7,1.39-17.09,1.79Z"/><path class="cls-35" d="M1543,1005.36c10.89-1,34.54-4,45.78-4.4,4.76-.17,9,2.61,10.22,6.71,2.37,8,2.46,24,2.44,38.73,0,4.43-4,8-8.94,8.13l-41.49.6c-5.1.07-9.42-3.3-10-7.82l-4.48-34.72C1536.08,1009,1539,1005.73,1543,1005.36Z"/><path class="cls-36" d="M1643.46,1016.35a2.85,2.85,0,0,0-3.06,2.62,2.71,2.71,0,0,0,.17,1.23l5.25,18.09a5.51,5.51,0,0,0,5.11,3.75l261.92-6.32a3.9,3.9,0,0,0,3.81-4v-.09l-.52-11.37a4.22,4.22,0,0,0-4.18-4Z"/><path class="cls-37" d="M1545.46,1012.14h0a8,8,0,0,1,11,2.63l0,.09L1567.2,1033a2.57,2.57,0,0,0,4.57-.31l24-57.15a2.84,2.84,0,0,1,5.45,1.09c.16,17.3-3.64,50.29-30.61,78.47,0,0-15.37-5.55-28.28-32.18A8.37,8.37,0,0,1,1545.46,1012.14Z"/><path class="cls-28" d="M1597,1169.61h-.14l-51.93.76c-7.48.11-13.78-4.9-14.65-11.64l-5.61-43.44a9.59,9.59,0,0,1,2.09-7.27,11.54,11.54,0,0,1,7.93-4.16h0c4.37-.4,10.38-1.06,17-1.79,13.71-1.5,30.78-3.37,40.4-3.72,6.83-.2,13.09,3.82,14.9,9.91,3,10,3.17,28.89,3.14,49.07C1610.11,1164,1604.23,1169.44,1597,1169.61Zm-61.92-61.53a7.3,7.3,0,0,0-5,2.59,5.36,5.36,0,0,0-1.19,4.07l5.61,43.45c.6,4.6,5.06,8,10.39,7.94l51.93-.75c4.89-.21,9.09-3.69,9.1-8.05,0-19.86-.18-38.46-3-47.87-1.24-4.16-5.82-7.06-10.69-6.87-9.47.34-26.45,2.2-40.09,3.69-6.64.73-12.68,1.39-17.07,1.8Z"/><path class="cls-38" d="M1540.75,1112.32c10.89-1,34.54-4,45.78-4.4,4.76-.17,9,2.6,10.22,6.71,2.36,8,2.46,24,2.44,38.73,0,4.42-4,8.05-8.94,8.12l-41.49.6c-5.1.08-9.42-3.3-10-7.82l-4.48-34.72C1533.8,1116,1536.72,1112.69,1540.75,1112.32Z"/><path class="cls-39" d="M1641.21,1123.31a2.85,2.85,0,0,0-3.06,2.62,3,3,0,0,0,.17,1.22l5.24,18.1a5.52,5.52,0,0,0,5.12,3.74l261.92-6.31a3.92,3.92,0,0,0,3.82-4,.38.38,0,0,1,0-.1l-.52-11.36a4.25,4.25,0,0,0-4.19-4Z"/><path class="cls-40" d="M1543.13,1119.09h0a8,8,0,0,1,11,2.63l.06.1,10.68,18.11a2.57,2.57,0,0,0,4.57-.31l24-57.15a2.84,2.84,0,0,1,5.45,1.09c.16,17.3-3.64,50.29-30.61,78.47,0,0-15.37-5.55-28.28-32.19A8.37,8.37,0,0,1,1543.13,1119.09Z"/><path class="cls-28" d="M1593.75,1279.93h-.14l-51.93.76c-7.48.11-13.78-4.9-14.65-11.64l-5.61-43.44a9.59,9.59,0,0,1,2.09-7.27,11.54,11.54,0,0,1,7.93-4.16h0c4.37-.4,10.39-1.06,17-1.79,14.41-1.58,30.76-3.37,40.38-3.72,7-.08,13.1,3.82,14.9,9.91,3,10,3.17,28.89,3.14,49.08C1606.87,1274.28,1601,1279.76,1593.75,1279.93Zm-61.92-61.53a7.24,7.24,0,0,0-5,2.59,5.36,5.36,0,0,0-1.2,4.07l5.61,43.45c.6,4.6,5.07,8,10.39,7.94l51.93-.75h.1c5-.11,9-3.71,9-8,0-19.86-.18-38.46-3-47.87-1.24-4.16-5.82-7-10.69-6.87-9.46.34-26.44,2.2-40.07,3.69-6.65.73-12.7,1.4-17.09,1.8Z"/><path class="cls-41" d="M1537.51,1222.64c10.89-1,34.54-4,45.78-4.4,4.76-.17,9,2.6,10.22,6.71,2.37,8,2.46,24,2.44,38.73,0,4.43-4,8-8.94,8.12l-41.49.61c-5.1.07-9.42-3.31-10-7.83l-4.48-34.72C1530.56,1226.27,1533.46,1223,1537.51,1222.64Z"/><path class="cls-42" d="M1638,1233.63a2.85,2.85,0,0,0-3.06,2.62,3,3,0,0,0,.17,1.22l5.25,18.1a5.47,5.47,0,0,0,5.11,3.74l261.92-6.31a3.92,3.92,0,0,0,3.82-4,.38.38,0,0,1,0-.1l-.52-11.36a4.22,4.22,0,0,0-4.18-4Z"/><path class="cls-43" d="M1539.89,1229.42h0a8,8,0,0,1,11,2.63l0,.09,10.68,18.11a2.57,2.57,0,0,0,4.57-.31l24-57.15a2.84,2.84,0,0,1,5.45,1.09c.16,17.3-3.64,50.29-30.61,78.47,0,0-15.37-5.55-28.28-32.18A8.37,8.37,0,0,1,1539.89,1229.42Z"/><path class="cls-44" d="M1739.4,523.8c-16.57-11.73-31.06-11.62-41.29-8.7a20.36,20.36,0,0,0-14.65,21.28l4,48,52.31,5.08S1771.9,546.81,1739.4,523.8Zm-23.34,38.55a13.06,13.06,0,1,1,13.16-13,13.07,13.07,0,0,1-13.16,13Z"/><path class="cls-8" d="M1692,565.44a2.59,2.59,0,0,1-1.67-2.21l-.64-7.66a2.59,2.59,0,1,1,5.17-.42l.64,7.65a2.58,2.58,0,0,1-2.36,2.8h0A2.72,2.72,0,0,1,1692,565.44Zm-1.25-15a2.62,2.62,0,0,1-1.67-2.21l-.48-5.81a20.75,20.75,0,0,1,14.9-21.65,40.4,40.4,0,0,1,19.78-.66,2.61,2.61,0,0,1,2,3.08,2.58,2.58,0,0,1-3.07,2h0a35.24,35.24,0,0,0-17.28.56A15.58,15.58,0,0,0,1693.74,542l.49,5.81a2.58,2.58,0,0,1-2.36,2.8h0A2.73,2.73,0,0,1,1690.73,550.44Z"/><path class="cls-45" d="M1615.78,614.88l.2-24.15a14.72,14.72,0,0,1,14.86-14.6h.5l166.4,7.07a14.34,14.34,0,0,1,13.72,13.58l1.2,23.21Z"/><path class="cls-8" d="M1670.92,585.8a1.51,1.51,0,0,1,0-3l7.16.06a1.51,1.51,0,1,1,.35,3h-.35Z"/><path class="cls-8" d="M1624,608.53a2.59,2.59,0,0,1-1.68-2.45l.08-9.76a15,15,0,0,1,15.11-14.89h0l26.32.21a2.6,2.6,0,0,1,0,5.19l-26.31-.22a9.84,9.84,0,0,0-9.91,9.75l-.09,9.77a2.59,2.59,0,0,1-2.61,2.57h0A2.58,2.58,0,0,1,1624,608.53Z"/><path class="cls-46" d="M1563.7,605.61l291.07,2.4a21.51,21.51,0,0,1,21.06,18l.23,1.43a18.45,18.45,0,0,1-18.38,21.48l-298.63-2.47a12,12,0,0,1-11.92-12.08c0-.2,0-.41,0-.61l.76-13.36A15.69,15.69,0,0,1,1563.7,605.61Z"/><path class="cls-47" d="M1124.46,653.88a863.51,863.51,0,0,1,97.24,113.49c41.72-95.12,86.19-183.5,134.33-262.88l118-39.34c-81.33,106-168,264-242.13,422.52-53.49-75.52-107.08-150.89-145.7-177.67Z"/><path class="cls-48" d="M835.82,1403c11.38,1,31.13,2.58,46.7,3.27,9.36.41,14.75-.51,17.85-1.75v1a3.22,3.22,0,0,1-3.06,3,547.11,547.11,0,0,1-61.15.06,2.3,2.3,0,0,1-2.17-2.42,2.23,2.23,0,0,1,.3-1A18.81,18.81,0,0,1,835.82,1403Z"/><path class="cls-49" d="M882.52,1406.26c-15.57-.69-35.32-2.29-46.7-3.27,11.19-13.73,46.7-23,46.7-23h10a42.11,42.11,0,0,1,7.82,24.5C897.27,1405.75,891.88,1406.67,882.52,1406.26Z"/><path class="cls-50" d="M894.24,1363.64l-.94,18.57a4.25,4.25,0,0,1-3.62,4,16.47,16.47,0,0,1-7.54-.62,5,5,0,0,1-3.37-3.86l-3.25-18.08Z"/><path class="cls-51" d="M1024.51,1406.12c4.93-.69,7.16-3.26,8.1-6v.08c.72,2.89-1,5.88-4.32,7.31a28.07,28.07,0,0,1-12,1.87,12,12,0,0,1-9-4.13h0C1011.06,1407.05,1016.28,1407.26,1024.51,1406.12Z"/><path class="cls-52" d="M1001.24,1363.52h8.27c12.6-.26,20.51,26.31,23.1,36.6-.94,2.74-3.17,5.31-8.1,6-8.23,1.14-13.45.93-17.17-.91-6.81-9-10.18-22.08-11.8-29.73A10.43,10.43,0,0,1,1001.24,1363.52Z"/><path class="cls-53" d="M1008.46,1346.28l4.59,18.27a5,5,0,0,1-2.58,5.62c-2.57,1.31-6.19,2.7-9.51,2.3a4.17,4.17,0,0,1-3.38-2.76l-6.74-19.22Z"/><path class="cls-54" d="M1013.93,1351.56c-5.72,5.07-24.31,5.74-24.31,5.74-67-160.69-94.33-183.52-94.33-183.52,9.66,60.65,1.55,194.93,1.55,194.93-11,4.87-25.29,0-25.29,0a1034.15,1034.15,0,0,0-34.19-254.16c45.25-1,69.32-16.5,77.18-22.72C952.26,1152.64,1013.93,1351.56,1013.93,1351.56Z"/><path class="cls-55" d="M903,907c8.57,42.72,5.5,119.19,3.48,154.06-.56,9.81,6.28,23.4,11.81,32.67a2.91,2.91,0,0,1-1,4l-.18.1c-9.26,4.76-40.64,19.51-77,21.34a5.16,5.16,0,0,1-5.21-3.87c-27-100.71-58.3-165.06-58.3-165.06C811.23,895,903,907,903,907Z"/><path class="cls-56" d="M890.72,1170a2.16,2.16,0,0,0,2.13-2.19,2.1,2.1,0,0,0-.3-1.07,67.32,67.32,0,0,0-26.55-23,2.14,2.14,0,0,0-1.86,3.86A64.18,64.18,0,0,1,888.89,1169,2.14,2.14,0,0,0,890.72,1170Z"/><path class="cls-57" d="M956.77,1029.65c-2.75,19.9-10.88,41.61-27.14,64.67l-6.18-5a191,191,0,0,0,3.08-61.8C936.56,1025.52,948.4,1027.54,956.77,1029.65Z"/><path class="cls-58" d="M893.46,959.75,903,907s63.92,48.86,53.73,122.61c-8.37-2.11-20.21-4.13-30.24-2.17C923.6,1003.81,914.87,978.11,893.46,959.75Z"/><path class="cls-59" d="M776.65,950.27l24.67,53.14c-4,32.08-21.22,45.95-39.8,51.27a112.64,112.64,0,0,0-8.29-34.61C777,995.56,776.65,950.27,776.65,950.27Z"/><path class="cls-60" d="M753.23,1020.07a112.64,112.64,0,0,1,8.29,34.61c-49.58,19.23-62.7-18.07-62.7-18.07L708,1035C728.68,1037.17,743.13,1030.5,753.23,1020.07Z"/><path class="cls-61" d="M799.38,884.67l11.91,43.79a8.52,8.52,0,0,0,10.46,6,7.24,7.24,0,0,0,.93-.31,171.44,171.44,0,0,0,17.17-7.85,11.48,11.48,0,0,0,4.57-15.57c-.18-.31-.37-.62-.57-.92l-24.77-36.93Z"/><path class="cls-62" d="M676.1,1007.31l305.21,111.08a23.39,23.39,0,0,1,14,30c-.21.56-.44,1.12-.69,1.67l-.93,2a21.74,21.74,0,0,1-28.77,10.79l-.13-.06L668.46,1025.69Z"/><ellipse class="cls-63" cx="535.82" cy="940.49" rx="150.67" ry="147.95"/><path class="cls-64" d="M368.16,940.49c0,90.92,75.06,164.62,167.66,164.62s167.64-73.7,167.64-164.62-75-164.63-167.64-164.63S368.16,849.57,368.16,940.49Zm24.63,0c0-77.57,64-140.45,143-140.45s143,62.88,143,140.45-64,140.44-143,140.44S392.79,1018.05,392.79,940.49Z"/><path class="cls-3" d="M690.72,960.24h-.06a.48.48,0,0,1-.42-.53h0c.49-3.85.84-7.78,1-11.68a.47.47,0,0,1,.46-.46h0a.49.49,0,0,1,.46.51c-.19,3.92-.54,7.88-1,11.76A.49.49,0,0,1,690.72,960.24Zm-1.15-46a.5.5,0,0,1-.48-.4,150,150,0,0,0-9-30.63,153.2,153.2,0,0,0-56.32-68.76,158.14,158.14,0,0,0-171.59-2.87.49.49,0,0,1-.51-.83,159.09,159.09,0,0,1,172.64,2.9A154.21,154.21,0,0,1,681,882.84a150.49,150.49,0,0,1,9,30.83.48.48,0,0,1-.38.56h0Z"/><path class="cls-65" d="M926,1088.4l-28.85-2.35-12.49,11.52s3,4.09,12.19,1.74,21.91-2.93,21.91-2.93,12.76,5.76,12.91-5Z"/><path class="cls-66" d="M702.46,1043.43c-2.5,2-11-2.12-16.28-4.93a6,6,0,0,1-2.91-7.11c1.26-4,3.36-9.1,6-9.74C693.54,1020.57,712.78,1035.4,702.46,1043.43Z"/><path class="cls-3" d="M975.29,1157.88a.47.47,0,0,1-.45-.33.49.49,0,0,1,.29-.62h0c8.88-3.07,13.54-8.08,13.83-14.9a16.54,16.54,0,0,0-10.81-15.92l-36.65-14.29a.51.51,0,0,1-.28-.63.48.48,0,0,1,.62-.27h0l36.65,14.29a17.51,17.51,0,0,1,11.43,16.87c-.31,7.25-5.19,12.55-14.49,15.77A.41.41,0,0,1,975.29,1157.88Z"/><path class="cls-3" d="M930.39,1107.45h-.17l-4.75-1.85a.49.49,0,1,1,.35-.91l4.75,1.85a.48.48,0,0,1,.26.64.5.5,0,0,1-.44.3Z"/><path class="cls-67" d="M796.8,841.68s-9.85,22.65-10.52,34.54-3.22,19.6,10.52,22,25.33-4.45,31.6-16.29c0,0,9.83-18.25,7.62-25.72S796.8,841.68,796.8,841.68Z"/><path class="cls-68" d="M823.7,873.41H822s7.16-14.69.86-17.27-31.2-7.66-36.58-16.5c-5.18-8.52-.56-19.53,6.36-22.62a.92.92,0,0,1,1.17.44l.58,1.08a.93.93,0,0,0,1.72-.17h0a.92.92,0,0,1,1.12-.66.9.9,0,0,1,.55.4c1.65,2.64,6.1,6.94,18,9.15,17,3.13,28.17,10,28.45,21.71a.94.94,0,0,0,1,.92.91.91,0,0,0,.49-.15c1.25-.77,3.25-1.12,5.93,1.13,4.65,3.91,2.75,14.07-7.46,22.43a.91.91,0,0,0-.2,1.28.8.8,0,0,0,.2.21c1.85,1.21,4.6,4.07-2.54,7.89-7.32,3.91-11.64,3.49-13.28,3.07a.93.93,0,0,1-.7-1l.64-10.38a.93.93,0,0,0-.86-1h-.07Z"/><path class="cls-69" d="M823.28,875.58s3.76-14.47,10.24-10.41-3.36,16.21-8.58,16.75Z"/><polygon class="cls-70" points="463.71 915.04 520.76 959.44 630.28 869.67 658.54 901.93 520.76 1046.09 432.48 949.39 463.71 915.04"/><path class="cls-71" d="M1848.8,311.41c-76.18-2-453-14.05-530.36-16.52-7.63-.24-13.89,10.95-13.89,24.85V384c0,13.73,6.11,24.85,13.65,24.85h530.39c7.54,0,13.65-11.12,13.65-24.85V336.26C1862.24,322.68,1856.26,311.61,1848.8,311.41Z"/><path class="cls-72" d="M1344.46,393.31,1364.15,383a5.28,5.28,0,0,1,4.89,0l19.65,10.38a5.25,5.25,0,0,0,7.1-2.22,5.2,5.2,0,0,0,.53-3.31l-3.72-21.91a5.27,5.27,0,0,1,1.51-4.64l15.94-15.49a5.25,5.25,0,0,0-2.89-9l-22-3.23a5.27,5.27,0,0,1-4-2.88l-9.7-19.9a5.25,5.25,0,0,0-9.42,0l-9.87,19.91a5.23,5.23,0,0,1-4,2.87l-22,3.16a5.26,5.26,0,0,0-2.92,8.95l15.89,15.53a5.28,5.28,0,0,1,1.5,4.65l-3.79,21.9a5.25,5.25,0,0,0,7.61,5.54Z"/><path class="cls-73" d="M1446,396.21l19.68-10.31a5.22,5.22,0,0,1,4.89,0l19.66,10.37a5.25,5.25,0,0,0,7.62-5.52l-3.72-21.91a5.24,5.24,0,0,1,1.52-4.64l15.93-15.49a5.25,5.25,0,0,0-2.89-9l-22-3.23a5.27,5.27,0,0,1-4-2.88l-9.8-19.94a5.25,5.25,0,0,0-9.42,0l-9.87,19.91a5.2,5.2,0,0,1-4,2.86l-22,3.17a5.26,5.26,0,0,0-2.92,8.95l15.89,15.53a5.28,5.28,0,0,1,1.5,4.65l-3.79,21.9a5.25,5.25,0,0,0,4.16,6.15A5.19,5.19,0,0,0,1446,396.21Z"/><path class="cls-74" d="M1548.46,396.78l19.68-10.31a5.22,5.22,0,0,1,4.89,0l19.65,10.37a5.25,5.25,0,0,0,7.63-5.52l-3.72-21.91a5.23,5.23,0,0,1,1.51-4.64L1614,349.28a5.25,5.25,0,0,0-2.9-9l-22-3.23a5.27,5.27,0,0,1-4-2.88l-9.68-19.9a5.24,5.24,0,0,0-9.41,0l-9.87,19.91a5.2,5.2,0,0,1-4,2.86l-22,3.17a5.26,5.26,0,0,0-2.92,9l15.88,15.53a5.26,5.26,0,0,1,1.51,4.65l-3.79,21.9a5.25,5.25,0,0,0,7.6,5.54Z"/><path class="cls-75" d="M1648,397.94l19.69-10.31a5.2,5.2,0,0,1,4.88,0L1692.18,398a5.23,5.23,0,0,0,7.62-5.52l-3.72-21.91a5.29,5.29,0,0,1,1.52-4.65l15.94-15.48a5.25,5.25,0,0,0-2.9-9l-22-3.23a5.28,5.28,0,0,1-4-2.88l-9.8-19.94a5.25,5.25,0,0,0-9.42,0l-9.86,19.91a5.23,5.23,0,0,1-4,2.87l-22,3.16a5.26,5.26,0,0,0-2.92,8.95l15.89,15.54a5.23,5.23,0,0,1,1.5,4.65l-3.79,21.9a5.25,5.25,0,0,0,7.71,5.57Z"/><path class="cls-76" d="M1756.46,1417.51a6.1,6.1,0,0,0,6.18-4.67l97.71-517.21a5.69,5.69,0,0,0-5.15-6.47c-3.42-.47-6.66,1.54-7.24,4.6L1750.3,1411a5.7,5.7,0,0,0,5.14,6.46A7,7,0,0,0,1756.46,1417.51Z"/><path class="cls-77" d="M2086.12,1417.52a6.54,6.54,0,0,0,1.25-.12c3.4-.61,5.6-3.57,4.91-6.61L1977.11,900.31c-.69-3-4-5-7.4-4.39s-5.6,3.57-4.92,6.61L2080,1413A6.16,6.16,0,0,0,2086.12,1417.52Z"/><path class="cls-78" d="M1831.05,1023.44h167c3.47,0,6.28-2.51,6.28-5.61s-2.81-5.61-6.28-5.61h-167c-3.47,0-6.28,2.51-6.28,5.61S1827.58,1023.44,1831.05,1023.44Z"/><path class="cls-79" d="M1834.08,1023.44H1995a5.63,5.63,0,1,0,1-11.22,5,5,0,0,0-1,0H1834.08a5.63,5.63,0,0,0-.95,11.22A5,5,0,0,0,1834.08,1023.44Z"/><path class="cls-80" d="M1831.05,1117h167c3.47,0,6.28-2.51,6.28-5.61s-2.81-5.61-6.28-5.61h-167c-3.47,0-6.28,2.51-6.28,5.61S1827.58,1117,1831.05,1117Z"/><path class="cls-81" d="M1815.89,1117h202.42c3.47,0,6.29-2.51,6.29-5.61s-2.82-5.61-6.29-5.61H1815.89c-3.47,0-6.28,2.51-6.28,5.61S1812.46,1117,1815.89,1117Z"/><path class="cls-82" d="M1831.05,1210.48h167c3.47,0,6.28-2.51,6.28-5.61s-2.81-5.61-6.28-5.61h-167c-3.47,0-6.28,2.51-6.28,5.61S1827.58,1210.48,1831.05,1210.48Z"/><path class="cls-83" d="M1796.55,1210.48h242.31c3.47,0,6.28-2.51,6.28-5.61s-2.81-5.61-6.28-5.61H1796.55c-3.46,0-6.28,2.51-6.28,5.61S1793.09,1210.48,1796.55,1210.48Z"/><path class="cls-84" d="M1831.05,1304h227.29c3.46,0,6.28-2.51,6.28-5.61s-2.82-5.61-6.28-5.61H1831.05c-3.47,0-6.28,2.51-6.28,5.61S1827.58,1304,1831.05,1304Z"/><path class="cls-85" d="M1780.91,1304h277.43c3.46,0,6.28-2.51,6.28-5.61s-2.82-5.61-6.28-5.61H1780.91c-3.46,0-6.28,2.51-6.28,5.61S1777.46,1304,1780.91,1304Z"/><path class="cls-86" d="M595.29,595.27l-7.2-31.59H555.46l-7.2,31.59H525l31-125.7h31.6l31.08,125.7ZM583.73,543l-6.68-29.11q-.6-2.65-2.7-13.32t-2.53-14.26q-1.11,7.37-2.82,16.23T560.09,543Z"/><path class="cls-87" d="M698,508.62q0,19.95-10.07,30.61t-29.07,10.66H653v45.38H629.71V470.08h31.75Q698,470.08,698,508.62Zm-45,21.06h4.5q8.58,0,12.76-4.71t4.2-15.41q0-9.85-3.86-14.6t-11.9-4.75H653Z"/><path class="cls-88" d="M782,508.62q0,19.95-10.06,30.61t-29.07,10.66H737v45.38H713.71V470.08h31.75Q782,470.08,782,508.62Zm-45,21.06h4.5c5.7,0,10-1.57,12.75-4.71s4.2-8.28,4.2-15.41q0-9.85-3.85-14.6t-11.91-4.75H737Z"/><path class="cls-89" d="M821,546.55v48.72H797.72V470.08H828.2q19.35,0,28.56,9.16t9.2,28q0,23.71-16,33.13L874,595.26H849.1l-19.78-48.72Zm0-20h6q8.22,0,11.82-4.66T842.42,508q0-9.59-3.81-13.66t-11.77-4.06H821Z"/><path class="cls-90" d="M971.54,532.51q0,31.08-11.64,47.78T926.59,597q-21.75,0-33.4-16.66t-11.64-48q0-31.1,11.64-47.66t33.57-16.57q21.66,0,33.22,16.66T971.54,532.51Zm-66.19,0q0,21.4,5.4,32.62t15.84,11.22q21.06,0,21.06-43.84t-20.89-43.85q-10.62,0-16,11.18t-5.41,32.67Z"/><path class="cls-91" d="M1043.64,470.08h23.47l-29.46,125.19H1008L978.74,470.08h23.46l16.35,76.47a278.52,278.52,0,0,1,4.37,28q1.8-15.49,4.54-28Z"/><path class="cls-92" d="M1134.58,595.27h-56.43V470.08h56.43v20.13h-33.12V520h30.74v20.2h-30.74v34.68h33.13Z"/><path class="cls-93" d="M1232.46,531.48q0,31-12.63,47.4t-36.37,16.39H1152.8V470.08h33.49q21.84,0,34,16.14T1232.46,531.48Zm-23.89.68q0-42-23.12-41.95h-9.33v84.68h7.53q12.76,0,18.84-10.66T1208.57,532.16Z"/><path class="cls-8" d="M954,846.75a5.73,5.73,0,0,1-5.46-2.59l-6.75-10.54a68.77,68.77,0,0,1-17.33-2.72l-9.65,8a5.69,5.69,0,0,1-6.59.46L892.88,830a5.7,5.7,0,0,1-2.6-6.09L893,811.69a69.6,69.6,0,0,1-10.37-14.21l-12.46-1.18a5.71,5.71,0,0,1-5-4.32l-4.22-17.42a5.7,5.7,0,0,1,2.47-6.13l10.53-6.75a69.55,69.55,0,0,1,2.73-17.38l-8-9.65a5.71,5.71,0,0,1-.47-6.59l9.33-15.3a5.7,5.7,0,0,1,6.08-2.59l12.23,2.68A69.27,69.27,0,0,1,910,702.47L911.2,690a5.69,5.69,0,0,1,4.32-5l17.42-4.22a5.66,5.66,0,0,1,6.12,2.45l6.76,10.55a69.54,69.54,0,0,1,17.38,2.72l9.65-8a5.71,5.71,0,0,1,6.58-.48l15.31,9.34a5.69,5.69,0,0,1,2.59,6.07l-2.68,12.24A69,69,0,0,1,1005,730l12.46,1.18a5.69,5.69,0,0,1,5,4.32l4.22,17.41a5.72,5.72,0,0,1-2.46,6.14l-10.54,6.75a69.68,69.68,0,0,1-2.72,17.38l8,9.65a5.71,5.71,0,0,1,.47,6.59l-9.33,15.29a5.69,5.69,0,0,1-6.07,2.6l-12.24-2.68A69.42,69.42,0,0,1,977.59,825l-1.13,12.41a5.7,5.7,0,0,1-4.32,5l-17.42,4.22Zm-31.54-25.83,2.34.77a60.59,60.59,0,0,0,19.4,3h2.46l8.14,12.7,12.93-3.13,1.42-15,2.19-1.11a60.46,60.46,0,0,0,15.86-11.58l1.73-1.75,14.74,3.23,6.93-11.36L1001,785.06l.77-2.34a60.27,60.27,0,0,0,3-19.4v-2.46l12.7-8.14-3.13-12.92-15-1.43-1.11-2.19a60.46,60.46,0,0,0-11.58-15.86l-1.75-1.73,3.23-14.74-11.36-6.93-11.63,9.62-2.34-.77a60.55,60.55,0,0,0-19.4-3h-2.46l-8.13-12.7-12.93,3.13-1.42,15-2.2,1.11a60.82,60.82,0,0,0-15.86,11.57l-1.73,1.76-14.74-3.23L877,730.77l9.62,11.63-.77,2.34a60.55,60.55,0,0,0-3,19.4v2.46l-12.7,8.13,3.13,12.93,15,1.42,1.11,2.2A60.46,60.46,0,0,0,901,807.14l1.75,1.73-3.24,14.74,11.36,6.93Zm26.48-10a47.63,47.63,0,1,1,42.22-48.55,4.46,4.46,0,0,1-8.92.23h0a38.79,38.79,0,1,0-11.59,28.59,4.46,4.46,0,1,1,6.26,6.36,47.79,47.79,0,0,1-28,13.37Z"/><path class="cls-8" d="M946.18,784a20.38,20.38,0,1,1,15.65-29.74h0A20.38,20.38,0,0,1,946.18,784Zm-3.7-31.62a11.45,11.45,0,1,0,11.46,6h0a11.51,11.51,0,0,0-11.46-6Z"/><path class="cls-8" d="M813.46,746.64a3.74,3.74,0,0,1-1.45-.1l-8.34-2.16a4,4,0,0,1-2.94-3.49l-.43-5.39a35.48,35.48,0,0,1-6-4.5L789,732.07a4,4,0,0,1-4.17-1.85l-4.38-7.44a3.93,3.93,0,0,1,.4-4.55l3.5-4.1a33.81,33.81,0,0,1-1-7.43l-4.5-3a4,4,0,0,1-1.64-4.28l2.16-8.34a4,4,0,0,1,3.5-2.94l5.38-.42a34.25,34.25,0,0,1,4.51-6l-1.08-5.28a4,4,0,0,1,1.87-4.18l7.42-4.37a3.92,3.92,0,0,1,4.56.4l4.09,3.49a35.23,35.23,0,0,1,7.43-1l3-4.5a3.94,3.94,0,0,1,4.27-1.63l8.34,2.15a4,4,0,0,1,2.94,3.49l.42,5.39a34.25,34.25,0,0,1,6,4.51l5.28-1.07a3.94,3.94,0,0,1,4.14,1.88l4.36,7.4a3.9,3.9,0,0,1-.38,4.54l-3.51,4.12a34.42,34.42,0,0,1,1,7.42l4.5,3a4,4,0,0,1,1.64,4.28l-2.16,8.33a4,4,0,0,1-3.45,2.91l-5.39.43a35.14,35.14,0,0,1-4.51,6l1.07,5.28a3.91,3.91,0,0,1-1.85,4.17l-7.43,4.38a3.92,3.92,0,0,1-4.57-.41l-4.09-3.49a34.42,34.42,0,0,1-7.42,1l-3,4.49A3.89,3.89,0,0,1,813.46,746.64Zm-6.21-8.24,4.53,1.17,3.91-5.89h1.84a27.72,27.72,0,0,0,9-1.26l1.76-.55,5.37,4.59,4-2.38-1.4-6.92,1.33-1.28a27.9,27.9,0,0,0,5.45-7.23l.86-1.64,7-.56,1.17-4.53-5.89-3.9v-1.85a28,28,0,0,0-1.26-9l-.55-1.76L849,690l-2.38-4-6.92,1.4-1.27-1.33a27.78,27.78,0,0,0-7.24-5.45l-1.63-.86-.56-7-4.54-1.17-3.9,5.89h-1.85a28,28,0,0,0-9,1.25l-1.77.55-5.37-4.58-4,2.38,1.41,6.92-1.34,1.27a28.14,28.14,0,0,0-5.44,7.24l-.86,1.63-7,.56-1.18,4.54,5.89,3.9V705a28,28,0,0,0,1.26,9l.55,1.77-4.58,5.37,2.37,4,6.92-1.41,1.28,1.34a28.09,28.09,0,0,0,7.23,5.44l1.64.86Zm13.52-8.87a24.15,24.15,0,1,1,18-36.24,23.18,23.18,0,0,1,2.12,4.68,3.34,3.34,0,0,1-6.35,2.1h0a17.48,17.48,0,1,0-1.26,13.83,3.35,3.35,0,1,1,6,3c0,.08-.08.16-.13.24a24.21,24.21,0,0,1-18.37,12.43Z"/><path class="cls-94" d="M1776,455.25l37.85-23.64a10.58,10.58,0,0,1,9.79-.72l40.93,17.78A10.55,10.55,0,0,0,1879,436.45l-10.79-43.31a10.56,10.56,0,0,1,2.34-9.53l29.56-33.43a10.55,10.55,0,0,0-7.17-17.51l-44.49-3.12a10.59,10.59,0,0,1-8.35-5.17l-22.65-38.44a10.55,10.55,0,0,0-18.86,1.4l-16.73,41.37a10.56,10.56,0,0,1-7.49,6.35l-43.57,9.67a10.54,10.54,0,0,0-4.49,18.37l34.14,28.7a10.53,10.53,0,0,1,3.72,9.08l-4.26,44.42a10.54,10.54,0,0,0,16.08,9.95Z"/><path class="cls-95" d="M1868.66,426.32s-62.07,79.48,8.75,160.31l26.63-2.48c-1.54.14-7.87-14.31-8.51-15.57a277.35,277.35,0,0,1-16.42-40.29c-5.43-17.18-9.1-35.1-9.34-53.16a121.81,121.81,0,0,1,2.68-27.72c1.14-5.2,3.08-9.2,8.23-11.33,5.59-2.31,10.71-6.2,13.51-11.56a20.38,20.38,0,0,0-8.59-27.5l-1-.5c-1.67-.8-14.49-3.76-14.49-1.57,0,5.08,3.16,9.52,5.23,14.15C1879.16,417.76,1875.77,422,1868.66,426.32Z"/><path class="cls-96" d="M1902.66,815.43s50.29,109.61,76.68,155c0,0,5.24,28.56,0,37.55l-4.47,2,20.85-.62s1.85-38.42.4-40.57a5.3,5.3,0,0,0-4.34-2S1982.85,896,1957,880.87l-25.08-86.4Z"/><path class="cls-97" d="M1966,1015.36c0,.51,16.28.28,25.14.12a7,7,0,0,0,6.75-5.56l6.69-35.15a6.31,6.31,0,0,0-4.8-7.34l-3.73-.85s-5.33,7.31-3.65,14.18,3.17,24.71-1.07,26.78-16.43,2.44-16.43,2.44S1966.25,1010.84,1966,1015.36Z"/><path class="cls-98" d="M1855,1016a1.84,1.84,0,0,0,.93,3.44c14.82-.15,48-.62,51-1.84,3.81-1.59-1.39-15.28-6.87-19.92l-30.21,9.86Z"/><path class="cls-99" d="M1845.61,808.44s32.5,157.22,41.7,187.89L1865.56,1010s10.9-1.85,19-2.44,15.51-9.86,15.51-9.86l-2.6-4.15s-8.15-156.37-6.17-174.13Z"/><path class="cls-100" d="M1832.32,559.16c12.46,3.45,54.66,14.56,81,14.1l-16.18,91.29,1.29,14.89-52.74-.24s-14.85-34.48-26.56-51.67c-3.39-5-.87-10.89,1-16.58l-2.64-1.76a7.16,7.16,0,0,1-2.84-8.19l12.84-39.3A3.93,3.93,0,0,1,1832.32,559.16Z"/><path class="cls-101" d="M1841.46,671.41l1,9s-14.91,44.64,7.45,148.9c0,0,48.42,13.71,88.22-19.11,0,0-11.23-98.4-14.29-103-15.27-22.83-25.45-27.79-25.45-27.79l-.46-9.85S1855.46,677.28,1841.46,671.41Z"/><path class="cls-102" d="M1862.12,566.52c-.19-.25,11-33.81,11-33.81l16,1.46,6.26,38.07S1870.3,577.31,1862.12,566.52Z"/><path class="cls-103" d="M1885.33,479.79c-1.07.67-34.27,14.39-27.14,48.86a6.51,6.51,0,0,0,3.68,4.61,56.32,56.32,0,0,0,27.91,4.62c17.39-1.77,28.79-32.12,28.3-41S1895.93,473.19,1885.33,479.79Z"/><path class="cls-104" d="M1895.46,466.39c-.87.12-19.18,6.49-10.1,19.76s12.49,21.09,8.19,26.91c-3.91,5.31-12.58,2.29-11.83,13.33a6.16,6.16,0,0,1-2.64,5.6c-8.17,5.53-28.1,22.55-8.35,46.83a6.17,6.17,0,0,1,.7,6.92c-5.79,10.37-17.93,40.76,26,57.62,43.46,16.65,59.15-11.76,63.54-23.11a6,6,0,0,1,6-3.84c4.78.23,11.55-.57,11.23-6.95-.18-3.87-2.6-7.35-5.46-10.13a6.06,6.06,0,0,1,1.16-9.54,11.81,11.81,0,0,0,5.86-7.36c2.64-9.76-2.62-38.95-30.6-43.89a6.62,6.62,0,0,1-5.11-4.95v-.1a6.05,6.05,0,0,1,2.25-6c4.46-3.28,10.19-9.87,5.54-20.45-4.13-9.38-12-12.55-17.92-13.56a6.1,6.1,0,0,1-5.06-7l.06-.31C1930.9,476.92,1929.17,462,1895.46,466.39Z"/><path class="cls-105" d="M1764.93,441.71s-4.48,81.78,70,123.58L1817,606.18s-67.42-40.78-64.93-152a12.92,12.92,0,0,0-3.16-8.7l-14.33-16.63a25.7,25.7,0,0,1-5.47-23l1.89-7.54a3.91,3.91,0,0,1,4.73-2.85,3.79,3.79,0,0,1,1,.42l1.5.87a26.3,26.3,0,0,1,10.8,12l7.2,11.36c2.62,5.87,3.24,8.34,9.65,7.78l11.92.14Z"/></g></g></g></svg>