<?xml version="1.0" encoding="utf-8"?>
<!-- Generator: Adobe Illustrator 26.0.1, SVG Export Plug-In . SVG Version: 6.00 Build 0)  -->
<svg version="1.1" id="Illustration" xmlns="http://www.w3.org/2000/svg" xmlns:xlink="http://www.w3.org/1999/xlink" x="0px"
	 y="0px" viewBox="0 0 3710 3710" style="enable-background:new 0 0 3710 3710;" xml:space="preserve">
<style type="text/css">
	.st0{fill:url(#SVGID_1_);}
	.st1{fill:url(#SVGID_00000021097160164685394070000018040505517984889788_);}
	.st2{fill:#7D97F4;}
	.st3{fill:url(#SVGID_00000138548750713564504470000003357978381982351245_);}
	.st4{fill:#91B3FA;}
	.st5{fill:url(#SVGID_00000132796362643193338900000018297280693963412399_);}
	.st6{fill:#FFFFFF;}
	.st7{opacity:0.7;fill:url(#SVGID_00000080919443117782602920000010054476263986395272_);}
	.st8{opacity:0.7;fill:url(#SVGID_00000083803809305547532720000015986736366169674117_);}
	.st9{opacity:0.7;fill:url(#SVGID_00000182528870999102031610000001918404373866797752_);}
	.st10{opacity:0.7;fill:url(#SVGID_00000116956057236573775250000013479124332478415037_);}
	.st11{opacity:0.64;}
	.st12{fill:url(#SVGID_00000037684452229968914250000015849341045349864358_);}
	.st13{fill:url(#SVGID_00000137097337645025939930000008035504505819369617_);}
	.st14{fill:url(#SVGID_00000036930299820439201800000005968702020608813451_);}
	.st15{fill:url(#SVGID_00000176759923756453714740000015739067490220039049_);}
	.st16{fill:url(#SVGID_00000097472214103188253490000012156354294543718810_);}
	.st17{fill:url(#SVGID_00000160909463867640500630000010676843223628446879_);}
	.st18{fill:url(#SVGID_00000169543533422853088160000010933445226586314638_);}
	.st19{fill:url(#SVGID_00000139980963547991526820000007555658535555828126_);}
	.st20{fill:url(#SVGID_00000101085140907608906830000006480549760366173321_);}
	.st21{fill:url(#SVGID_00000103233346025731341640000013462827880856791969_);}
	.st22{fill:url(#SVGID_00000004543876279414145360000004436761021409002156_);}
	.st23{fill:url(#SVGID_00000072238123521037837010000017105781882566395266_);}
	.st24{fill:url(#SVGID_00000179636054341289104470000005532282213773439401_);}
	.st25{fill:url(#SVGID_00000174564341294626832000000008960202799211465403_);}
	.st26{fill:url(#SVGID_00000085934342282554706750000001125754073166910094_);}
	.st27{fill:url(#SVGID_00000052084121756279278490000011583691701517898880_);}
	.st28{fill:url(#SVGID_00000149377553987537728590000002126234451295264401_);}
	.st29{fill:url(#SVGID_00000000215508471534415810000003559677146743985804_);}
	.st30{fill:url(#SVGID_00000150082382855245144330000010689381529079708329_);}
	.st31{fill:url(#SVGID_00000018204551960128519390000014438224106296996277_);}
	.st32{fill:url(#SVGID_00000090296551179556278400000015831443768253084041_);}
	.st33{fill:url(#SVGID_00000150814319701556058150000003194638016906114450_);}
	.st34{fill:url(#SVGID_00000142884212712121138240000016431166508760933311_);}
	.st35{fill:url(#SVGID_00000041993695491092779380000004302894523997275011_);}
	.st36{fill:url(#SVGID_00000129921763871315328460000018130115691446224261_);}
	.st37{fill:url(#SVGID_00000075142933631868459950000013036743203833346965_);}
	.st38{fill:url(#SVGID_00000038409237203539886500000014196167691983582624_);}
	.st39{fill:url(#SVGID_00000108286018010395556620000003172233858934276495_);}
	.st40{fill:url(#SVGID_00000076577857033737173630000011666438540980664494_);}
	.st41{fill:url(#SVGID_00000144297914315888519130000011578323555656023460_);}
	.st42{fill:url(#SVGID_00000173154299208834991010000004717954798873320374_);}
	.st43{fill:url(#SVGID_00000104681213076206302400000007266749687212269231_);}
	.st44{fill:url(#SVGID_00000116950840933268905800000007236853980497126075_);}
	.st45{fill:url(#SVGID_00000151503061030098977780000012670333021918960298_);}
	.st46{fill:url(#SVGID_00000158016218074371611160000015273245852419177652_);}
	.st47{fill:url(#SVGID_00000174594676124250444470000007175575707633341335_);}
	.st48{fill:url(#SVGID_00000114060105732642613000000010955044395491789456_);}
	.st49{fill:url(#SVGID_00000001648562518308396280000018335393843843143853_);}
	.st50{fill:url(#SVGID_00000094588533097840841980000015685582279207363218_);}
	.st51{fill:url(#SVGID_00000023247723440330505570000007433653800289660338_);}
	.st52{fill:url(#SVGID_00000106115975755400869830000012038013317800056474_);}
	.st53{fill:url(#SVGID_00000127760339942572498770000009109981160346376096_);}
	.st54{fill:url(#SVGID_00000132079829940175088770000011943696443631086496_);}
	.st55{fill:url(#SVGID_00000114784638187516323730000015799831988965337731_);}
	.st56{fill:url(#SVGID_00000099638776009281058400000015253149856779123134_);}
	.st57{fill:url(#SVGID_00000181045886171846677850000015427887504391133056_);}
	.st58{fill:url(#SVGID_00000035510299334886416480000001134779880702763145_);}
	.st59{fill:url(#SVGID_00000109740418497435734590000013711512725493242297_);}
	.st60{fill:url(#SVGID_00000097463531443330092300000010130387169043889599_);}
	.st61{fill:url(#SVGID_00000064350518733324672400000004875533854172068265_);}
	.st62{fill:url(#SVGID_00000135688881902570091110000013988681900323413436_);}
	.st63{fill:url(#SVGID_00000109742802827710604290000010480295433816953775_);}
	.st64{fill:url(#SVGID_00000137826111254255297710000017499390486074929308_);}
	.st65{fill:url(#SVGID_00000028320239547855475180000014622645668171712154_);}
	.st66{fill:url(#SVGID_00000157995409701973496160000011190311538279377058_);}
	.st67{fill:url(#SVGID_00000173872814413398502810000000427062172766284453_);}
	.st68{fill:url(#SVGID_00000058558906201342405990000008418806622485022901_);}
	.st69{fill:url(#SVGID_00000081648707275867915530000008884718190361281431_);}
	.st70{fill:url(#SVGID_00000161611635268484311900000004829551317960068759_);}
	.st71{fill:url(#SVGID_00000165230151844073971160000010552275903911196863_);}
	.st72{fill:url(#SVGID_00000031180628827912088320000001413875026834035338_);}
	.st73{fill:url(#SVGID_00000004503851167881578340000005797465755711008686_);}
	.st74{fill:url(#SVGID_00000135666008155469647700000004927310679554843058_);}
	.st75{fill:url(#SVGID_00000097484919376200685670000005942980233739219081_);}
	.st76{fill:url(#SVGID_00000046307186031189487840000005955833864692499351_);}
	.st77{fill:url(#SVGID_00000102512560346172073230000011735864435856679825_);}
	.st78{fill:url(#SVGID_00000036247684741081435750000007422298689838663856_);}
	.st79{fill:url(#SVGID_00000093137318318378528230000004531887236451215766_);}
	.st80{fill:#BDD0FB;}
	.st81{fill:url(#SVGID_00000168820355157433608890000014905376281661877395_);}
	.st82{opacity:0.3;}
	.st83{fill:url(#SVGID_00000108300171870883707930000018025787022039246777_);}
	.st84{fill:url(#SVGID_00000080200600085668946430000000128291871763296162_);}
	.st85{fill:url(#SVGID_00000054261436632961398300000005505967566300888217_);}
	.st86{fill:url(#SVGID_00000164494745996604347320000014993334626539772054_);}
</style>
<g>
	<linearGradient id="SVGID_1_" gradientUnits="userSpaceOnUse" x1="3418.9158" y1="3091.8523" x2="1369.4768" y2="1298.5946">
		<stop  offset="0" style="stop-color:#DAE3FE"/>
		<stop  offset="1" style="stop-color:#E9EFFD"/>
	</linearGradient>
	<path class="st0" d="M3070.6,2160.5c-264.9,623.7-970.4,973-1582.3,878.8c-99.6-15.3-372.5-61-614.2-276.5
		C409,2347.9,309.5,1526.4,684.7,947.5c273.1-421.4,762.7-660.2,1228-648.3c100.2,2.6,484.3,18.4,821.8,296.7
		c49.6,40.9,158.9,138,257.5,292.1C3223.3,1249.9,3243.2,1754.1,3070.6,2160.5z"/>
	<g>
		
			<linearGradient id="SVGID_00000098200999969163176180000006531742887600984236_" gradientUnits="userSpaceOnUse" x1="672.9862" y1="1599.5433" x2="1183.1134" y2="1707.5704">
			<stop  offset="0" style="stop-color:#4F52FF"/>
			<stop  offset="1" style="stop-color:#4042E2"/>
		</linearGradient>
		<path style="fill:url(#SVGID_00000098200999969163176180000006531742887600984236_);" d="M623.7,1184.2l185.9,203.4
			c-116.3,87.7-189.3,259.9,5.4,464.6l-261.7,126.9C369.9,1657.9,395.8,1404,623.7,1184.2z"/>
		<path class="st2" d="M514.3,1905.3l180.3,2.9l32.4-177.6c99,203.4,333.1,288.4,600.9,201.7l135.2,251.4
			C1076.6,2359.9,685.3,2269.4,514.3,1905.3z"/>
		
			<linearGradient id="SVGID_00000116228452826151241870000003352389540182627496_" gradientUnits="userSpaceOnUse" x1="2497.4241" y1="844.8304" x2="2461.5803" y2="1481.0594">
			<stop  offset="0" style="stop-color:#4F52FF"/>
			<stop  offset="1" style="stop-color:#4042E2"/>
		</linearGradient>
		<path style="fill:url(#SVGID_00000116228452826151241870000003352389540182627496_);" d="M2026.5,1636.6
			c146.2-288.9,532-395.5,809.4-237.3l281.2-93.1c-328.4-438.1-925.2-355-1296,82.8L2026.5,1636.6z"/>
		<path class="st4" d="M2675.2,1942.4l119.3,278.7c435.3-181.3,567.1-795.3,174-1065.8l2.9,180.6l-185,38.5
			C3058.9,1503.6,2937.5,1869.8,2675.2,1942.4z"/>
		<path class="st2" d="M1898.1,2021.3c412.4,296.6,773.3,335.3,1061.1,99.6l-202.5-72l56.4-180.4
			c-252.5,175.3-487.2,118.2-712.5-61.2L1898.1,2021.3z"/>
		<path class="st2" d="M623.7,1184.2l0,195.4l185.9,8c120.5-78.2,295-71.9,514.7-1.6l127.7-283
			C1118.2,960.1,844.5,994.2,623.7,1184.2z"/>
		
			<linearGradient id="SVGID_00000023253759971792212290000012705253764331143054_" gradientUnits="userSpaceOnUse" x1="1480.1388" y1="1102.7938" x2="2386.3633" y2="2693.1865">
			<stop  offset="0" style="stop-color:#4F52FF"/>
			<stop  offset="1" style="stop-color:#4042E2"/>
		</linearGradient>
		<path style="fill:url(#SVGID_00000023253759971792212290000012705253764331143054_);" d="M1324.3,1386.1l-104.4-217.5l232.1-65.5
			c150.8,78.6,272.2,174.9,369.1,286c106.7,235,253.2,435.7,436.4,521.3l-240.4,2.5l37,209.7c-94.2-56.4-185.1-119.7-265.1-188.8
			l-180.5-321C1545.5,1517.2,1457.7,1439.3,1324.3,1386.1z"/>
		<path class="st4" d="M1821.1,1389c-70.6,75.5-116.8,186.8-183.2,265.9c-105.8,126.2-237.8,289.2-476,310.4l194.4,100.6
			l-115.8,189.8c388.4-77.2,660.2-330.6,785.9-619.2v-277.8L1821.1,1389z"/>
	</g>
	<g>
		<path class="st2" d="M1887.1,581.1l945.4-4.1c9-0.1,16.4,7.3,16.3,16.3l-2,330.9c-0.1,9.1-7.6,16.4-16.7,16.1
			c-83.4-2.5-937.8-13.5-954.2-12.8c-16.1,0.7-7.4-260.7-5-330.8C1871.3,588.1,1878.4,581.2,1887.1,581.1z"/>
		<path class="st6" d="M2830.6,927.5l-0.1,0c-53.3-1.6-563.9-8-809.3-11c-71.7-0.9-122.7-1.5-136.3-1.7l-1.3,0l-0.2-1.2
			c-5.8-32.7-5.7-142.1,0.3-316.3c0.1-1.8,1.5-3.3,3.4-3.3l945.4-4.1c0.9,0,1.8,0.4,2.4,1c0.6,0.6,1,1.5,1,2.4l-2,330.9
			C2834,926,2832.5,927.5,2830.6,927.5z M1886.3,911.7c15.3,0.2,65.3,0.8,135,1.7c245.4,3.1,756,9.4,809.3,11l0.1,0
			c0.1,0,0.2-0.2,0.2-0.3l2-330.9l-0.3-1.9l0,1.5l-945.4,4.1c-0.2,0-0.3,0.1-0.3,0.3C1881,769.1,1880.8,877.7,1886.3,911.7z"/>
		
			<linearGradient id="SVGID_00000068656280722538530710000005099523557342642578_" gradientUnits="userSpaceOnUse" x1="1927.5034" y1="666.5549" x2="2302.991" y2="666.5549">
			<stop  offset="0" style="stop-color:#DAE3FE"/>
			<stop  offset="1" style="stop-color:#E9EFFD"/>
		</linearGradient>
		<path style="opacity:0.7;fill:url(#SVGID_00000068656280722538530710000005099523557342642578_);" d="M1927.5,666.6L1927.5,666.6
			c0,8.9,3,16.2,6.7,16.2h362.1c3.7,0,6.7-7.3,6.7-16.2l0,0c0-8.9-3-16.2-6.7-16.2h-362.1C1930.5,650.4,1927.5,657.6,1927.5,666.6z"
			/>
		
			<linearGradient id="SVGID_00000038381550708865232130000009406398838869726613_" gradientUnits="userSpaceOnUse" x1="1927.5034" y1="721.7939" x2="2302.991" y2="721.7939">
			<stop  offset="0" style="stop-color:#DAE3FE"/>
			<stop  offset="1" style="stop-color:#E9EFFD"/>
		</linearGradient>
		<path style="opacity:0.7;fill:url(#SVGID_00000038381550708865232130000009406398838869726613_);" d="M1927.5,721.8L1927.5,721.8
			c0,8.9,3,16.2,6.7,16.2h362.1c3.7,0,6.7-7.3,6.7-16.2l0,0c0-8.9-3-16.2-6.7-16.2h-362.1C1930.5,705.6,1927.5,712.8,1927.5,721.8z"
			/>
		
			<linearGradient id="SVGID_00000116954623105347691120000010954975329925218728_" gradientUnits="userSpaceOnUse" x1="1927.5034" y1="777.0331" x2="2302.991" y2="777.0331">
			<stop  offset="0" style="stop-color:#DAE3FE"/>
			<stop  offset="1" style="stop-color:#E9EFFD"/>
		</linearGradient>
		<path style="opacity:0.7;fill:url(#SVGID_00000116954623105347691120000010954975329925218728_);" d="M1927.5,777L1927.5,777
			c0,8.9,3,16.2,6.7,16.2h362.1c3.7,0,6.7-7.3,6.7-16.2l0,0c0-8.9-3-16.2-6.7-16.2h-362.1C1930.5,760.8,1927.5,768.1,1927.5,777z"/>
		
			<linearGradient id="SVGID_00000061458974976658729480000002497602554390469293_" gradientUnits="userSpaceOnUse" x1="1927.5034" y1="832.272" x2="2302.991" y2="832.272">
			<stop  offset="0" style="stop-color:#DAE3FE"/>
			<stop  offset="1" style="stop-color:#E9EFFD"/>
		</linearGradient>
		<path style="opacity:0.7;fill:url(#SVGID_00000061458974976658729480000002497602554390469293_);" d="M1927.5,832.3L1927.5,832.3
			c0,8.9,3,16.2,6.7,16.2h362.1c3.7,0,6.7-7.3,6.7-16.2l0,0c0-8.9-3-16.2-6.7-16.2h-362.1C1930.5,816.1,1927.5,823.3,1927.5,832.3z"
			/>
		<g>
			<circle class="st6" cx="2394.7" cy="678" r="63"/>
			<circle class="st6" cx="2551.3" cy="678" r="63"/>
			<circle class="st6" cx="2707.9" cy="680" r="63"/>
			<g>
				<path class="st2" d="M2432.2,664.7c1.9,4.7,3,9.9,3,15.4c0,22.3-18.1,40.5-40.5,40.5c-22.3,0-40.5-18.1-40.5-40.5
					s18.1-40.5,40.5-40.5c0.7,0,1.4,0,2,0.1v-10.3c-0.7,0-1.4,0-2,0c-28,0-50.7,22.7-50.7,50.7c0,28,22.7,50.7,50.7,50.7
					c28,0,50.7-22.7,50.7-50.7c0-6.9-1.4-13.5-3.9-19.5L2432.2,664.7z"/>
				<path class="st2" d="M2572.2,714.3c-6.2,3.9-13.6,6.2-21.6,6.2c-22.3,0-40.5-18.1-40.5-40.5s18.1-40.5,40.5-40.5
					c0.7,0,1.4,0,2,0.1v-10.3c-0.7,0-1.4,0-2,0c-28,0-50.7,22.7-50.7,50.7c0,28,22.7,50.7,50.7,50.7c9.8,0,18.9-2.8,26.6-7.6
					L2572.2,714.3z"/>
				<path class="st2" d="M2741.6,702.8c-7.3,10.7-19.6,17.7-33.5,17.7c-22.3,0-40.5-18.1-40.5-40.5s18.1-40.5,40.5-40.5
					c0.7,0,1.4,0,2,0.1v-10.3c-0.7,0-1.4,0-2,0c-28,0-50.7,22.7-50.7,50.7c0,28,22.7,50.7,50.7,50.7c17.3,0,32.6-8.7,41.8-22
					L2741.6,702.8z"/>
			</g>
			<g class="st11">
				
					<linearGradient id="SVGID_00000096048022096383675410000005916534496424830626_" gradientUnits="userSpaceOnUse" x1="2331.7485" y1="779.3193" x2="2457.7417" y2="779.3193">
					<stop  offset="0" style="stop-color:#DAE3FE"/>
					<stop  offset="1" style="stop-color:#E9EFFD"/>
				</linearGradient>
				<path style="fill:url(#SVGID_00000096048022096383675410000005916534496424830626_);" d="M2446.1,767.7h-102.7
					c-6.4,0-11.7,5.2-11.7,11.7s5.2,11.7,11.7,11.7h102.7c6.4,0,11.7-5.2,11.7-11.7S2452.5,767.7,2446.1,767.7z"/>
				
					<linearGradient id="SVGID_00000116926324268669596990000006963517721370336190_" gradientUnits="userSpaceOnUse" x1="2488.3132" y1="779.3193" x2="2614.3057" y2="779.3193">
					<stop  offset="0" style="stop-color:#DAE3FE"/>
					<stop  offset="1" style="stop-color:#E9EFFD"/>
				</linearGradient>
				<path style="fill:url(#SVGID_00000116926324268669596990000006963517721370336190_);" d="M2602.6,767.7H2500
					c-6.4,0-11.7,5.2-11.7,11.7s5.2,11.7,11.7,11.7h102.7c6.4,0,11.7-5.2,11.7-11.7S2609.1,767.7,2602.6,767.7z"/>
				
					<linearGradient id="SVGID_00000145739863265541351930000012630874313384384937_" gradientUnits="userSpaceOnUse" x1="2644.8774" y1="779.3193" x2="2770.8701" y2="779.3193">
					<stop  offset="0" style="stop-color:#DAE3FE"/>
					<stop  offset="1" style="stop-color:#E9EFFD"/>
				</linearGradient>
				<path style="fill:url(#SVGID_00000145739863265541351930000012630874313384384937_);" d="M2656.5,791h102.7
					c6.4,0,11.7-5.2,11.7-11.7s-5.2-11.7-11.7-11.7h-102.7c-6.4,0-11.7,5.2-11.7,11.7S2650.1,791,2656.5,791z"/>
				
					<linearGradient id="SVGID_00000037673681944954027440000011675691897135260309_" gradientUnits="userSpaceOnUse" x1="2331.7485" y1="849.9705" x2="2457.7417" y2="849.9705">
					<stop  offset="0" style="stop-color:#DAE3FE"/>
					<stop  offset="1" style="stop-color:#E9EFFD"/>
				</linearGradient>
				<path style="fill:url(#SVGID_00000037673681944954027440000011675691897135260309_);" d="M2446.1,804h-102.7
					c-6.4,0-11.7,5.2-11.7,11.7v68.7c0,6.4,5.2,11.7,11.7,11.7h102.7c6.4,0,11.7-5.2,11.7-11.7v-68.7
					C2457.7,809.2,2452.5,804,2446.1,804z"/>
				
					<linearGradient id="SVGID_00000036242413436073246510000009981025978381540242_" gradientUnits="userSpaceOnUse" x1="2488.3132" y1="849.9705" x2="2614.3057" y2="849.9705">
					<stop  offset="0" style="stop-color:#DAE3FE"/>
					<stop  offset="1" style="stop-color:#E9EFFD"/>
				</linearGradient>
				<path style="fill:url(#SVGID_00000036242413436073246510000009981025978381540242_);" d="M2602.6,804H2500
					c-6.4,0-11.7,5.2-11.7,11.7v68.7c0,6.4,5.2,11.7,11.7,11.7h102.7c6.4,0,11.7-5.2,11.7-11.7v-68.7
					C2614.3,809.2,2609.1,804,2602.6,804z"/>
				
					<linearGradient id="SVGID_00000064316104236064528620000014064351796774694803_" gradientUnits="userSpaceOnUse" x1="2644.8774" y1="849.9705" x2="2770.8701" y2="849.9705">
					<stop  offset="0" style="stop-color:#DAE3FE"/>
					<stop  offset="1" style="stop-color:#E9EFFD"/>
				</linearGradient>
				<path style="fill:url(#SVGID_00000064316104236064528620000014064351796774694803_);" d="M2759.2,804h-102.7
					c-6.4,0-11.7,5.2-11.7,11.7v68.7c0,6.4,5.2,11.7,11.7,11.7h102.7c6.4,0,11.7-5.2,11.7-11.7v-68.7
					C2770.9,809.2,2765.6,804,2759.2,804z"/>
			</g>
		</g>
	</g>
	<g>
		<g>
			
				<linearGradient id="SVGID_00000049926961148638488230000003587397103153401252_" gradientUnits="userSpaceOnUse" x1="6629.4399" y1="2877.2791" x2="6157.4199" y2="3390.7048" gradientTransform="matrix(1 9.500000e-03 -9.500000e-03 1 -4973.9507 -63.4747)">
				<stop  offset="0" style="stop-color:#09005D"/>
				<stop  offset="1" style="stop-color:#1A0F91"/>
			</linearGradient>
			<path style="fill:url(#SVGID_00000049926961148638488230000003587397103153401252_);" d="M1478.6,2913.6c0,0-5.2,27.6-7.8,55
				c-1,10.7,7.1,20.1,17.9,20.6c36.5,1.9,114.5,5.6,142.5,4.6c4.2-0.1,7-4.4,5.5-8.4l0,0c-1.3-3.3-3.8-6-7-7.5l-128.3-60.5
				L1478.6,2913.6z"/>
			
				<linearGradient id="SVGID_00000090254758263948062990000012511398525056038334_" gradientUnits="userSpaceOnUse" x1="6476.2295" y1="2915.4072" x2="6518.1567" y2="2915.4072" gradientTransform="matrix(1 9.500000e-03 -9.500000e-03 1 -4973.9507 -63.4747)">
				<stop  offset="0" style="stop-color:#FEBBBA"/>
				<stop  offset="1" style="stop-color:#FF928E"/>
			</linearGradient>
			<path style="fill:url(#SVGID_00000090254758263948062990000012511398525056038334_);" d="M1474.7,2897.3l3.6,33.1
				c0,0,22.5,10.7,38-1l-9-37L1474.7,2897.3z"/>
			
				<linearGradient id="SVGID_00000168095950326822554890000007738551087307634347_" gradientUnits="userSpaceOnUse" x1="6666.6323" y1="2296.6106" x2="6264.9609" y2="2841.0239" gradientTransform="matrix(1 9.500000e-03 -9.500000e-03 1 -4973.9507 -63.4747)">
				<stop  offset="0" style="stop-color:#09005D"/>
				<stop  offset="1" style="stop-color:#1A0F91"/>
			</linearGradient>
			<path style="fill:url(#SVGID_00000168095950326822554890000007738551087307634347_);" d="M1483.6,2275
				c-1.8,8.6-13.2,431.3,30.2,621.2c0.7,3.1-0.9,6.3-3.8,7.4c-7,2.8-20.6,6.7-36.9,7.1c-5,0.1-9.5-3.2-10.9-8.1
				c-12.5-44.1-72.3-264.9-78.4-475.3c-6.8-235.2,0.1-8,0.1-8l6.7-145.3L1483.6,2275z"/>
			
				<linearGradient id="SVGID_00000109744076174600084340000012074813342346880905_" gradientUnits="userSpaceOnUse" x1="6523.5498" y1="2779.9119" x2="6051.5103" y2="3293.3589" gradientTransform="matrix(1 9.500000e-03 -9.500000e-03 1 -4973.9507 -63.4747)">
				<stop  offset="0" style="stop-color:#09005D"/>
				<stop  offset="1" style="stop-color:#1A0F91"/>
			</linearGradient>
			<path style="fill:url(#SVGID_00000109744076174600084340000012074813342346880905_);" d="M1330.2,2926.6c0,0-7.9,13.9-15.8,51
				c-1.4,6.7,3.2,13.2,10,13.9c12,1.3,30.6,3,45.4,3c6.8,0,12.2-5.9,11.5-12.7c-1.5-13.6-6.4-35.8-22.1-53.3L1330.2,2926.6z"/>
			
				<linearGradient id="SVGID_00000014598026137429847170000007982023042087674496_" gradientUnits="userSpaceOnUse" x1="6325.1191" y1="2913.251" x2="6361.3184" y2="2913.251" gradientTransform="matrix(1 9.500000e-03 -9.500000e-03 1 -4973.9507 -63.4747)">
				<stop  offset="0" style="stop-color:#FEBBBA"/>
				<stop  offset="1" style="stop-color:#FF928E"/>
			</linearGradient>
			<path style="fill:url(#SVGID_00000014598026137429847170000007982023042087674496_);" d="M1323.7,2884l8.7,50.1c0,0,9,6.8,27,2.1
				l-3.9-53.9L1323.7,2884z"/>
			
				<linearGradient id="SVGID_00000113325031700338279020000018076419652517034157_" gradientUnits="userSpaceOnUse" x1="6595.0435" y1="2243.7932" x2="6193.377" y2="2788.2004" gradientTransform="matrix(1 9.500000e-03 -9.500000e-03 1 -4973.9507 -63.4747)">
				<stop  offset="0" style="stop-color:#09005D"/>
				<stop  offset="1" style="stop-color:#1A0F91"/>
			</linearGradient>
			<path style="fill:url(#SVGID_00000113325031700338279020000018076419652517034157_);" d="M1304.6,2286.3
				c-39.1,222.7,2.8,551.3,17.3,615.7c0.9,3.9,4,7,8,7.7c6.8,1.2,17.9,2.2,28.9-0.9c3.8-1.1,6.5-4.5,6.7-8.4
				c2.5-51.9,1.9-370.8,37.5-496.5c1.8-6.4,5.8-11.9,11.2-15.7l67.3-46.9l5.9-76.8L1304.6,2286.3z"/>
			<g>
				
					<linearGradient id="SVGID_00000011710564047368335140000008886973986099086254_" gradientUnits="userSpaceOnUse" x1="5750.7417" y1="3653.2771" x2="5824.3008" y2="3298.8557" gradientTransform="matrix(-1 0 0 1 7569.6606 0)">
					<stop  offset="0" style="stop-color:#FF928E"/>
					<stop  offset="1" style="stop-color:#FE7062"/>
				</linearGradient>
				<path style="fill:url(#SVGID_00000011710564047368335140000008886973986099086254_);" d="M1544.2,1865.9
					c-110.7-2.9-233.2,26.9-233.2,26.9c-34.9,192.3-9.7,414.8-9.7,414.8c85.5,23.3,182.6-12,182.6-12c15-80.4,83.7-306.3,83.7-306.3
					c54.2-6.2,98.9-21.4,135.8-41.7c-27.7-32.7-40.5-74.2-46-98.6C1618,1860.7,1578.3,1866.8,1544.2,1865.9z"/>
				
					<linearGradient id="SVGID_00000031196735922155131790000002275666829069090968_" gradientUnits="userSpaceOnUse" x1="6648.8086" y1="1821.5482" x2="6863.0205" y2="1821.5482" gradientTransform="matrix(1 9.500000e-03 -9.500000e-03 1 -4973.9507 -63.4747)">
					<stop  offset="0" style="stop-color:#FEBBBA"/>
					<stop  offset="1" style="stop-color:#FF928E"/>
				</linearGradient>
				<path style="fill:url(#SVGID_00000031196735922155131790000002275666829069090968_);" d="M1872.9,1705.9
					c-10.8-13.2-24.6-7.2-24.6-7.2c-17,68.7-102.9,123.7-191,150.1c5.5,24.5,18.3,65.9,46,98.6
					C1849.8,1866.9,1872.9,1705.9,1872.9,1705.9z"/>
			</g>
			<g>
				
					<linearGradient id="SVGID_00000095324159199794218020000002004485453136291517_" gradientUnits="userSpaceOnUse" x1="1862.937" y1="1779.1473" x2="1887.4565" y2="1616.4257">
					<stop  offset="0" style="stop-color:#FEBBBA"/>
					<stop  offset="1" style="stop-color:#FF928E"/>
				</linearGradient>
				<path style="fill:url(#SVGID_00000095324159199794218020000002004485453136291517_);" d="M1870.2,1709.2
					c1.1,3.6-12.1,9-19.8-5.9c-0.2-7.1-4.2-37.5,0.1-43.3c22.9-30.6,67-68.7,67-68.7c7.3,7.4,1.2,14.5,1.2,14.5l-21.4,21.9
					c4.4,8.1,9.7,14.9,12.2,24.6c1.9,7.4,0.6,15.2-3.2,21.9c-3.8,6.7-9,15.4-13.8,22.1C1883.2,1709.2,1870.2,1709.2,1870.2,1709.2z"
					/>
				
					<linearGradient id="SVGID_00000179616218366539927150000011472715520631902130_" gradientUnits="userSpaceOnUse" x1="6861.9937" y1="1676.7314" x2="6921.9707" y2="1584.5167" gradientTransform="matrix(1 9.500000e-03 -9.500000e-03 1 -4973.9507 -63.4747)">
					<stop  offset="0" style="stop-color:#FEBBBA"/>
					<stop  offset="1" style="stop-color:#FF928E"/>
				</linearGradient>
				<path style="fill:url(#SVGID_00000179616218366539927150000011472715520631902130_);" d="M1887.8,1642l-19.5,16.2l-6.2,16.3
					l17.1,19.3c0,0,6.1-32.4,10.5-39.3C1894,1647.5,1891.8,1644.1,1887.8,1642z"/>
			</g>
			
				<linearGradient id="SVGID_00000066511417594435397960000003678811621036536710_" gradientUnits="userSpaceOnUse" x1="5952.5" y1="3695.1494" x2="6026.0591" y2="3340.7283" gradientTransform="matrix(-1 0 0 1 7569.6606 0)">
				<stop  offset="0" style="stop-color:#FF928E"/>
				<stop  offset="1" style="stop-color:#FE7062"/>
			</linearGradient>
			<path style="fill:url(#SVGID_00000066511417594435397960000003678811621036536710_);" d="M1352.4,2000.4l-41.5-107.6
				c0,0-104.1,69.3-122,158.3c19.5,1.6,55.1,7,89.7,25C1286.7,2034,1352.4,2000.4,1352.4,2000.4z"/>
			
				<linearGradient id="SVGID_00000083081511597304786750000003909105122942895260_" gradientUnits="userSpaceOnUse" x1="6180.0703" y1="2124.9443" x2="6451.1489" y2="2124.9443" gradientTransform="matrix(1 9.500000e-03 -9.500000e-03 1 -4973.9507 -63.4747)">
				<stop  offset="0" style="stop-color:#FEBBBA"/>
				<stop  offset="1" style="stop-color:#FF928E"/>
			</linearGradient>
			<path style="fill:url(#SVGID_00000083081511597304786750000003909105122942895260_);" d="M1441.8,2102.2
				c0,0-116.8,64.5-155.4,8.1c-8-11.7-9.9-23.3-7.8-34.3c-34.6-17.9-70.2-23.3-89.7-25c-5.4,26.8-2.9,55.4,12.6,84.4
				c67.5,126.2,255.4-4.5,255.4-4.5L1441.8,2102.2z"/>
			
				<linearGradient id="SVGID_00000019650788112509224560000011949030176602650791_" gradientUnits="userSpaceOnUse" x1="6388.2305" y1="1835.1504" x2="6495.4106" y2="1835.1504" gradientTransform="matrix(1 9.500000e-03 -9.500000e-03 1 -4973.9507 -63.4747)">
				<stop  offset="0" style="stop-color:#FEBBBA"/>
				<stop  offset="1" style="stop-color:#FF928E"/>
			</linearGradient>
			<path style="fill:url(#SVGID_00000019650788112509224560000011949030176602650791_);" d="M1432.8,1774.9l-36.2,101.6
				c-0.6,1.7,0.1,3.6,1.6,4.4c9.6,5.4,44,21.1,86-5c4.4-2.7,7.4-7.2,8.1-12.3l12.3-88.1L1432.8,1774.9z"/>
			<g>
				
					<linearGradient id="SVGID_00000002376620703949739840000014937206828652112288_" gradientUnits="userSpaceOnUse" x1="-670.9062" y1="2846.7461" x2="-710.9577" y2="2714.6467" gradientTransform="matrix(0.7523 -0.6588 0.6588 0.7523 159.4521 -818.1582)">
					<stop  offset="0" style="stop-color:#FEBBBA"/>
					<stop  offset="1" style="stop-color:#FF928E"/>
				</linearGradient>
				<path style="fill:url(#SVGID_00000002376620703949739840000014937206828652112288_);" d="M1510.4,1681.3c0,0,38,73.2,32.8,102.6
					c-5.2,29.4-53.2,26.8-94.8,2.5l-28.5-78.9L1510.4,1681.3z"/>
				
					<linearGradient id="SVGID_00000110462213862556392590000002759214078911004068_" gradientUnits="userSpaceOnUse" x1="-707.0378" y1="2616.582" x2="-673.5354" y2="2807.6702" gradientTransform="matrix(0.7523 -0.6588 0.6588 0.7523 159.4521 -818.1582)">
					<stop  offset="0" style="stop-color:#09005D"/>
					<stop  offset="1" style="stop-color:#1A0F91"/>
				</linearGradient>
				<path style="fill:url(#SVGID_00000110462213862556392590000002759214078911004068_);" d="M1450.6,1747.7
					c1.7-0.7,2.4-2.8,1.4-4.4c-3.1-4.8-8.8-14.5-10.5-23c0,0-6.9-4.5,17.8-10.2c24.7-5.7,61.6-14.5,69.5-35.4
					c7.7-20.4-11.6-72.1-43.6-31.3c-1.2,1.5-3.6,1.6-4.8,0c-5.1-6.8-18.6-20.9-37.6-12.6c-17.8,7.8-19.9,20.7-19.7,27.3
					c0.1,1.9-1.7,3.4-3.6,3c-8.9-1.8-30.4-3.5-40.6,18.5c-8.4,18.1-3.2,28.4,1.7,33.4c1.6,1.6,0.8,4.3-1.3,5
					c-5.9,1.7-13.5,6.7-12.9,20.4c0.9,19.1,22.2,17.6,28.2,16.8c1-0.1,2,0.2,2.7,1c5.1,5.8,28.3,30.4,53.6,33.6
					c2.2,0.3,3.9-1.9,3.2-4l-10.7-32c-0.5-1.5,0.2-3.1,1.7-3.7L1450.6,1747.7z"/>
				
					<linearGradient id="SVGID_00000177442336660027572560000013578181733463708323_" gradientUnits="userSpaceOnUse" x1="-711.8479" y1="2846.1294" x2="-747.8829" y2="2727.2771" gradientTransform="matrix(0.7523 -0.6588 0.6588 0.7523 159.4521 -818.1582)">
					<stop  offset="0" style="stop-color:#FEBBBA"/>
					<stop  offset="1" style="stop-color:#FF928E"/>
				</linearGradient>
				<path style="fill:url(#SVGID_00000177442336660027572560000013578181733463708323_);" d="M1454.9,1752.3c0,0-27.4-19.2-29.5-3.3
					c-2.2,15.9,24.6,23.3,37.9,17.5L1454.9,1752.3z"/>
			</g>
			<g>
				<g>
					
						<linearGradient id="SVGID_00000022532647925805286190000018086408611297164199_" gradientUnits="userSpaceOnUse" x1="6235.3613" y1="1947.9366" x2="6384.9419" y2="2571.1907" gradientTransform="matrix(1 0 0 1 -4705.6621 0)">
						<stop  offset="0" style="stop-color:#09005D"/>
						<stop  offset="1" style="stop-color:#1A0F91"/>
					</linearGradient>
					<path style="fill:url(#SVGID_00000022532647925805286190000018086408611297164199_);" d="M1418,2204.2l63.6-222.2
						c0.7-2.5,2.9-4.4,5.5-4.7c11.5-1.3,44.9-5.1,83.5-8.4c46.4-3.9,100.4-7.1,132.6-4.4c4.6,0.4,7.4,5.2,5.3,9.4
						c-18.3,37.1-93.7,187.9-131.5,237.3c-1.3,1.6-3.2,2.6-5.2,2.6l-147.6-1.4C1419.9,2212.4,1416.8,2208.3,1418,2204.2z"/>
					
						<linearGradient id="SVGID_00000111885733445279108490000001013177310756821633_" gradientUnits="userSpaceOnUse" x1="6132.8643" y1="2112.8203" x2="6217.6133" y2="2112.8203" gradientTransform="matrix(1 0 0 1 -4705.6621 0)">
						<stop  offset="0" style="stop-color:#FEBBBA"/>
						<stop  offset="1" style="stop-color:#FF928E"/>
					</linearGradient>
					<path style="fill:url(#SVGID_00000111885733445279108490000001013177310756821633_);" d="M1433.3,2150.5c0,0-8.9-36.4-5.3-49.4
						c3.6-12.9,10.5-29.5,33.6-25.9c23.1,3.7,50.3,13.4,50.3,13.4s-1.4,16.8-18.9,11.4l10.9,8.4c0,0-1.6,13.5-16.4,6.3l10.1,11.2
						c0,0-6.4,11.1-17.3,4C1469.5,2122.8,1464.3,2154.9,1433.3,2150.5z"/>
				</g>
				<path class="st4" d="M1566.3,2035.3c0,10.3,8.4,18.7,18.7,18.7c10.3,0,18.7-8.4,18.7-18.7c0-10.3-8.4-18.7-18.7-18.7
					C1574.7,2016.6,1566.3,2025,1566.3,2035.3z"/>
				
					<linearGradient id="SVGID_00000124861902341366954040000010280004773873962932_" gradientUnits="userSpaceOnUse" x1="1484.0195" y1="2012.7089" x2="1665.8729" y2="2012.7089">
					<stop  offset="0" style="stop-color:#DAE3FE"/>
					<stop  offset="1" style="stop-color:#E9EFFD"/>
				</linearGradient>
				<path style="fill:url(#SVGID_00000124861902341366954040000010280004773873962932_);" d="M1488.8,2047.6l-4.8-1.4l13-43.9
					c2.1-7.2,7.9-12.5,15.1-14c41.1-8.6,149.2-10.3,153.8-10.4l0.1,5c-1.1,0-112.2,1.8-152.8,10.3c-5.4,1.1-9.7,5.2-11.3,10.6
					L1488.8,2047.6z"/>
			</g>
		</g>
		<g>
			<path class="st2" d="M735.9,2669.3c-6.8,10-33.7,237.2-37.9,321.1c-0.3,5.7,4.3,10.4,9.9,10.4l0,0c4.9,0,9.1-3.6,9.8-8.4
				l49.3-315.9L735.9,2669.3z"/>
			<path class="st2" d="M952.6,2669.3c6.8,10,33.7,237.2,37.9,321.1c0.3,5.7-4.3,10.4-9.9,10.4l0,0c-4.9,0-9.1-3.6-9.8-8.4
				l-49.3-315.9L952.6,2669.3z"/>
			<path class="st2" d="M695.2,2651.6l0,2.5c-0.2,17.8,15.2,32.4,34.4,32.8l227.8,3.9c18.9,0.3,34.7-13.4,35.7-30.9l0.1-2.3
				c1-18.3-14.6-33.7-34.3-34.1l-227.9-4.1C711.4,2619,695.3,2633.5,695.2,2651.6z"/>
		</g>
		<g>
			<g>
				<path class="st2" d="M1175.1,2982.2c-40.5,0-58.4-3.5-66.4-6.6c1.6,6.7,7.5,11.9,15,11.9H1267c4.8,0,7.9-4.6,6.7-8.8
					C1257.3,2979.9,1222.6,2982.2,1175.1,2982.2z"/>
				
					<linearGradient id="SVGID_00000147934891590335187490000001309440829239651487_" gradientUnits="userSpaceOnUse" x1="1235.9934" y1="2663.7732" x2="1190.8517" y2="2975.6619">
					<stop  offset="0" style="stop-color:#4F52FF"/>
					<stop  offset="1" style="stop-color:#4042E2"/>
				</linearGradient>
				<path style="fill:url(#SVGID_00000147934891590335187490000001309440829239651487_);" d="M1273.7,2978.6
					c-0.2-0.8-0.6-1.7-1.2-2.4c-10.9-13.9-32.8-35.8-62.7-35.4c-43.7,0.6-58.9,5.4-92.9,0.3l-8,26.6c-0.8,2.7-0.8,5.4-0.2,7.9
					c8,3.2,25.9,6.6,66.4,6.6C1222.6,2982.2,1257.3,2979.9,1273.7,2978.6z"/>
			</g>
			
				<linearGradient id="SVGID_00000081628530853781361680000013147657355702385543_" gradientUnits="userSpaceOnUse" x1="1116.9525" y1="2931.6772" x2="1161.6555" y2="2931.6772">
				<stop  offset="0" style="stop-color:#FEBBBA"/>
				<stop  offset="1" style="stop-color:#FF928E"/>
			</linearGradient>
			<path style="fill:url(#SVGID_00000081628530853781361680000013147657355702385543_);" d="M1126.8,2912.4l-9.8,33.4
				c0,0,21.8,9.9,40.9,2l3.8-29L1126.8,2912.4z"/>
			<g>
				<path class="st2" d="M1423.8,2961.1c-31.6,25.4-47.7,33.9-55.9,36.5c5.4,4.2,13.3,4.5,19.1-0.1l111.7-89.7c3.8-3,3.3-8.5-0.2-11
					C1486.5,2907.9,1460.8,2931.3,1423.8,2961.1z"/>
				
					<linearGradient id="SVGID_00000070084848967829795410000009521019285206152338_" gradientUnits="userSpaceOnUse" x1="1459.5913" y1="2696.1333" x2="1414.4493" y2="3008.0244">
					<stop  offset="0" style="stop-color:#4F52FF"/>
					<stop  offset="1" style="stop-color:#4042E2"/>
				</linearGradient>
				<path style="fill:url(#SVGID_00000070084848967829795410000009521019285206152338_);" d="M1498.4,2896.6
					c-0.7-0.5-1.5-0.9-2.4-1.2c-17.2-4-47.9-7.2-70.9,11.8c-33.7,27.8-42.6,41.1-72.2,58.4l10.3,25.6c1.1,2.6,2.7,4.7,4.7,6.3
					c8.2-2.6,24.4-11.1,55.9-36.5C1460.8,2931.3,1486.5,2907.9,1498.4,2896.6z"/>
			</g>
			
				<linearGradient id="SVGID_00000121243398307945729420000006690720668980892347_" gradientUnits="userSpaceOnUse" x1="1626.3749" y1="2296.6277" x2="1124.8593" y2="2667.7488">
				<stop  offset="0" style="stop-color:#09005D"/>
				<stop  offset="1" style="stop-color:#1A0F91"/>
			</linearGradient>
			<path style="fill:url(#SVGID_00000121243398307945729420000006690720668980892347_);" d="M916.5,2531.4
				c0,0,242.5,19.8,292.2,43.2c49.7,23.4-40.6,351.6-40.6,351.6s-13.5,6.5-43.7-2.9c0,0,30.9-242.2,7.9-294.7l-262.6-42.9
				L916.5,2531.4z"/>
			
				<linearGradient id="SVGID_00000181081329892356188470000006857214633408731562_" gradientUnits="userSpaceOnUse" x1="1328.6871" y1="2935.4395" x2="1382.0562" y2="2935.4395">
				<stop  offset="0" style="stop-color:#FEBBBA"/>
				<stop  offset="1" style="stop-color:#FF928E"/>
			</linearGradient>
			<path style="fill:url(#SVGID_00000181081329892356188470000006857214633408731562_);" d="M1328.7,2919.5
				c2.3,2.1,24.1,46.1,24.1,46.1s24.3-5.3,29.3-20.6l-21.9-39.8L1328.7,2919.5z"/>
			
				<linearGradient id="SVGID_00000057840350838978619850000005527572261489438388_" gradientUnits="userSpaceOnUse" x1="1129.1619" y1="2679.9812" x2="1764.447" y2="2241.9697">
				<stop  offset="0" style="stop-color:#09005D"/>
				<stop  offset="1" style="stop-color:#1A0F91"/>
			</linearGradient>
			<path style="fill:url(#SVGID_00000057840350838978619850000005527572261489438388_);" d="M770.4,2529.4c0,0-7.9,19-7.6,44.3
				c0.4,34.9,28.5,63.3,63.4,65l286.7,13.1c6.1,0.3,11.2,4.5,12.7,10.3c6.7,26.1,39.7,106.1,200.6,265.7c4.3,4.2,11,5,16.1,1.7
				l22.9-14.5c2.4-1.5,3.2-4.7,1.7-7.1L1200,2623c-8.8-14.5-22.9-24.9-39.2-29.1l-244.3-62.5L770.4,2529.4z"/>
			
				<linearGradient id="SVGID_00000052801668105148522490000011962578675715883425_" gradientUnits="userSpaceOnUse" x1="1032.2404" y1="2183.3838" x2="1058.552" y2="2117.0325">
				<stop  offset="0" style="stop-color:#FEBBBA"/>
				<stop  offset="1" style="stop-color:#FF928E"/>
			</linearGradient>
			<path style="fill:url(#SVGID_00000052801668105148522490000011962578675715883425_);" d="M1052.9,2084.2c0,0-30.7,54.3-62,80.6
				l64.7,36.1c0,0,14.6-57.5,47.9-74.3L1052.9,2084.2z"/>
			
				<linearGradient id="SVGID_00000061443668997024750700000018202197747648577687_" gradientUnits="userSpaceOnUse" x1="1209.4218" y1="1985.2461" x2="1125.8317" y2="2199.2363">
				<stop  offset="0" style="stop-color:#FF928E"/>
				<stop  offset="1" style="stop-color:#FE7062"/>
			</linearGradient>
			<path style="fill:url(#SVGID_00000061443668997024750700000018202197747648577687_);" d="M765.2,2531.4c0,0,77.4,18.9,151.3,0
				c0,0,103.4-139,143.4-176.8c0,0,63.8,100.7,205.8,114.9l7.9-17.7c0,0-113-52.1-147.8-132.2c-34.8-80.1-48.8-114.2-80.4-135.1
				c-19.7-13-31.5-21.9-37.6-26.7c-3.3-2.7-7.9-3-11.6-0.7C962.4,2177.6,804.3,2285.9,765.2,2531.4z"/>
			
				<linearGradient id="SVGID_00000032617780380198511020000002552595889739018916_" gradientUnits="userSpaceOnUse" x1="1055.5752" y1="1691.3896" x2="1030.4993" y2="2508.8569">
				<stop  offset="0" style="stop-color:#E1473D"/>
				<stop  offset="1" style="stop-color:#E9605A"/>
			</linearGradient>
			<path style="fill:url(#SVGID_00000032617780380198511020000002552595889739018916_);" d="M1055.6,2352.7c-1.5,0-3-0.7-3.9-1.9
				c-24.6-32.1-38.4-67.6-38.9-69c-1-2.6,0.3-5.4,2.9-6.4c2.6-1,5.4,0.3,6.4,2.9c0.1,0.4,13.8,35.6,37.6,66.6c1.7,2.2,1.3,5.3-0.9,7
				C1057.7,2352.4,1056.7,2352.7,1055.6,2352.7z"/>
			
				<linearGradient id="SVGID_00000119076818000976976660000015384146557596964269_" gradientUnits="userSpaceOnUse" x1="1257.0308" y1="2441.427" x2="1380.3069" y2="2441.427">
				<stop  offset="0" style="stop-color:#FEBBBA"/>
				<stop  offset="1" style="stop-color:#FF928E"/>
			</linearGradient>
			<path style="fill:url(#SVGID_00000119076818000976976660000015384146557596964269_);" d="M1257,2442.7l16-4.3l48.5-11.2
				c5.8-1.4,12-0.3,17.1,2.9l41.7,26.2l-115.2-0.2L1257,2442.7z"/>
			<g>
				
					<linearGradient id="SVGID_00000086677136573641543120000017564861871163110581_" gradientUnits="userSpaceOnUse" x1="3007.759" y1="2524.3501" x2="2875.6509" y2="2625.4329" gradientTransform="matrix(0.9914 -0.1306 0.1306 0.9914 -2198.9988 -61.3823)">
					<stop  offset="0" style="stop-color:#FEBBBA"/>
					<stop  offset="1" style="stop-color:#FF928E"/>
				</linearGradient>
				<path style="fill:url(#SVGID_00000086677136573641543120000017564861871163110581_);" d="M1101.7,2002.8c0,0,29.8,49.6,35,77
					c5.2,27.4,13.5,44.6-17.7,54.3c-31.2,9.8-60.2-2.6-78.4-28.2c0,0-28.4-39.4-25.6-57.4
					C1017.8,2030.5,1101.7,2002.8,1101.7,2002.8z"/>
				
					<linearGradient id="SVGID_00000027571455872679391930000004248125281550596281_" gradientUnits="userSpaceOnUse" x1="2914.947" y1="2444.5552" x2="3034.575" y2="2598.5759" gradientTransform="matrix(0.9914 -0.1306 0.1306 0.9914 -2198.9988 -61.3823)">
					<stop  offset="0" style="stop-color:#09005D"/>
					<stop  offset="1" style="stop-color:#1A0F91"/>
				</linearGradient>
				<path style="fill:url(#SVGID_00000027571455872679391930000004248125281550596281_);" d="M1048.9,2084.7l4-0.5
					c0,0-21.1-31.9-7.3-39.9c13.8-7.9,70.2-27.4,80-49.6c9.4-21.4-4.7-45.6-21.7-50.6c-1.1-0.3-2.2,0.3-2.6,1.4l-1,2.7
					c-0.7,1.8-3.3,1.9-4.1,0.1l0,0c-0.7-1.7-3.2-1.8-4-0.1c-3,6.6-12.1,18-39.2,26.8c-38.5,12.5-62.4,31.8-59.5,59.2
					c0.2,1.7-1.5,2.9-3.1,2.2c-3.1-1.4-7.9-1.6-13.4,4.4c-9.6,10.5-2.1,33.5,24.2,49.8c1.2,0.8,1.5,2.5,0.4,3.5
					c-3.9,3.4-9.5,10.9,8.3,17.6c18.2,6.8,28.1,4.5,31.8,3.1c1-0.4,1.6-1.4,1.3-2.5l-4.7-23.9c-0.2-1.2,0.6-2.4,1.9-2.6
					L1048.9,2084.7z"/>
				
					<linearGradient id="SVGID_00000150788671903449525620000003193628606213318044_" gradientUnits="userSpaceOnUse" x1="2991.3718" y1="2502.9353" x2="2859.2649" y2="2604.0173" gradientTransform="matrix(0.9914 -0.1306 0.1306 0.9914 -2198.9988 -61.3823)">
					<stop  offset="0" style="stop-color:#FEBBBA"/>
					<stop  offset="1" style="stop-color:#FF928E"/>
				</linearGradient>
				<path style="fill:url(#SVGID_00000150788671903449525620000003193628606213318044_);" d="M1050.5,2089.6c0,0-13.2-32.5-27-21.1
					c-13.8,11.4,12.8,36.6,25.1,36.3L1050.5,2089.6z"/>
			</g>
		</g>
		<g>
			<g>
				
					<linearGradient id="SVGID_00000035507973617512277570000009625897251122747292_" gradientUnits="userSpaceOnUse" x1="15607.2949" y1="-17407.7871" x2="15277.6016" y2="-17089.0371" gradientTransform="matrix(-1.388 -6.860000e-02 -6.850000e-02 1.3855 -4690.1738 -570.6171)">
					<stop  offset="0" style="stop-color:#09005D"/>
					<stop  offset="1" style="stop-color:#1A0F91"/>
				</linearGradient>
				<path style="fill:url(#SVGID_00000035507973617512277570000009625897251122747292_);" d="M1212.5,2478.9c0.2,0,0.4,0,0.6,0
					l246.1-0.2c6.1,0,11-4.9,11-11c0-6.1-5-11.1-11-11l-246.1,0.2c-6.1,0-11,4.9-11,11C1202.1,2473.8,1206.7,2478.6,1212.5,2478.9z"
					/>
			</g>
			<g>
				
					<linearGradient id="SVGID_00000138544533467601365580000018201717864159575694_" gradientUnits="userSpaceOnUse" x1="12622.5615" y1="-17371.2285" x2="12292.8828" y2="-17052.4922" gradientTransform="matrix(0.6475 -1.2297 -1.2274 -0.6463 8775.9707 -5472.2012)">
					<stop  offset="0" style="stop-color:#09005D"/>
					<stop  offset="1" style="stop-color:#1A0F91"/>
				</linearGradient>
				<path style="fill:url(#SVGID_00000138544533467601365580000018201717864159575694_);" d="M1554.5,2237.8
					c-0.1,0.2-0.2,0.3-0.3,0.5l-103.6,223.3c-2.6,5.5-0.2,12.1,5.3,14.6c5.5,2.6,12.2,0.2,14.6-5.4l103.6-223.3
					c2.6-5.5,0.2-12.1-5.3-14.6C1563.6,2230.5,1557.3,2232.7,1554.5,2237.8z"/>
			</g>
		</g>
		<g>
			<g>
				<rect x="2173.1" y="2703.3" class="st2" width="26" height="280.9"/>
				<path class="st2" d="M2299.8,2989.6h-227.5l0,0c0-9.3,7.6-16.9,16.9-16.9h193.7C2292.3,2972.7,2299.8,2980.3,2299.8,2989.6
					L2299.8,2989.6z"/>
				<path class="st2" d="M2333.6,2693.5c0,15.4-12.6,27.9-27.9,27.9h-230.2c-15.4,0-27.9-12.6-27.9-27.9v-25.3
					c0-15.4,12.6-27.9,27.9-27.9h230.2c15.4,0,27.9,12.6,27.9,27.9V2693.5z"/>
			</g>
			<g>
				
					<linearGradient id="SVGID_00000048461187888501566630000016482666993970143889_" gradientUnits="userSpaceOnUse" x1="1902.5681" y1="2746.4333" x2="2087.28" y2="2746.4333">
					<stop  offset="0" style="stop-color:#FEBBBA"/>
					<stop  offset="1" style="stop-color:#FF928E"/>
				</linearGradient>
				<path style="fill:url(#SVGID_00000048461187888501566630000016482666993970143889_);" d="M1994.3,2516c0,0-38.6,6-82,35
					c-6.8,4.6-10.6,12.5-9.5,20.7c5.2,41.2,26.6,174.4,97,304.5c3.7,6.9,4.8,14.9,3.1,22.5l-12.2,57l-22.7,21.3h58.5l38.9-105.4
					l-16.6-5.3c-12.9-4.1-21.8-16-22-29.5l-2-113c1.7-50.4-30.9-85.1-30.9-85.1l93.4-4.5L1994.3,2516z"/>
				
					<linearGradient id="SVGID_00000061464692819425182750000001128338427009115823_" gradientUnits="userSpaceOnUse" x1="2015.5862" y1="2866.7917" x2="1988.4181" y2="3283.3699">
					<stop  offset="0" style="stop-color:#4F52FF"/>
					<stop  offset="1" style="stop-color:#4042E2"/>
				</linearGradient>
				<path style="fill:url(#SVGID_00000061464692819425182750000001128338427009115823_);" d="M1945.1,2987.2
					c-5.3,7,57.3,16.2,89,0.9c0,0,43.9-76.3,43.9-115.6c0,0-3.5-8-29.2-6.2c0,0-14.7,90.4-30.3,100.5c-15.6,10.1-43.5,1-43.5,1
					S1953,2976.9,1945.1,2987.2z"/>
				
					<linearGradient id="SVGID_00000167376087478123811080000006028631518705329582_" gradientUnits="userSpaceOnUse" x1="1685.6857" y1="2759.051" x2="2075.4648" y2="2759.051">
					<stop  offset="0" style="stop-color:#FEBBBA"/>
					<stop  offset="1" style="stop-color:#FF928E"/>
				</linearGradient>
				<path style="fill:url(#SVGID_00000167376087478123811080000006028631518705329582_);" d="M2075.5,2640.3
					c-0.5-0.9-100.5-12-100.5-12s3.3,30.4-7,72.3s-157.1,223.3-157.1,223.3l15.4,48.8c-47.6,16.6-94.5,19.2-140.6,8.5l95.5-57.3
					c0,0,89.3-304.4,144-358.7l100.3-34.7L2075.5,2640.3z"/>
				
					<linearGradient id="SVGID_00000089571502369342810320000008195439991904268938_" gradientUnits="userSpaceOnUse" x1="1926.1927" y1="2555.717" x2="2362.8572" y2="2555.717">
					<stop  offset="0" style="stop-color:#09005D"/>
					<stop  offset="1" style="stop-color:#1A0F91"/>
				</linearGradient>
				<path style="fill:url(#SVGID_00000089571502369342810320000008195439991904268938_);" d="M2299.8,2463.2
					c0,0,57.6,85.7,62.4,124.8c4.7,39.1-15.8,55-76.3,57.6c-60.5,2.6-221.9,2.6-221.9,2.6l-137.8-117.8c0,0,100.4-35.8,126.5-46
					C2078.8,2474.4,2299.8,2463.2,2299.8,2463.2z"/>
				
					<linearGradient id="SVGID_00000131365503416597908930000011150778864386761372_" gradientUnits="userSpaceOnUse" x1="1753.4164" y1="2849.6938" x2="1726.2482" y2="3266.2722">
					<stop  offset="0" style="stop-color:#4F52FF"/>
					<stop  offset="1" style="stop-color:#4042E2"/>
				</linearGradient>
				<path style="fill:url(#SVGID_00000131365503416597908930000011150778864386761372_);" d="M1820.4,2956.3c0,0,16.6,16.1,5.4,33.9
					c0,0-131.4,23.3-167,12.7c0,0,7.4-16.9,47.6-36.1l-3,2.3c-3.7,2.9-1.6,8.9,3.2,8.6C1733,2976.2,1787.8,2971.3,1820.4,2956.3z"/>
			</g>
			<g>
				
					<linearGradient id="SVGID_00000145778226732457695550000017038858208169807764_" gradientUnits="userSpaceOnUse" x1="2233.7773" y1="1826.3867" x2="2169.4792" y2="2164.1794">
					<stop  offset="0" style="stop-color:#09005D"/>
					<stop  offset="1" style="stop-color:#1A0F91"/>
				</linearGradient>
				<path style="fill:url(#SVGID_00000145778226732457695550000017038858208169807764_);" d="M2050.2,1919.5
					c117.8-20,173.3,76.1,169.2,96.3c-0.5,2.7,2,4.9,4.6,4.2c13.5-3.6,43.4-8.2,61.9,15c16.4,20.5,4.1,39.8-5.8,50.4
					c-2.4,2.6-0.4,6.7,3.1,6.3c24.9-3.1,78.9-3.9,87.8,46.7c8.2,47.2-24.6,60.5-44.1,64.3c-3.3,0.6-4.1,5-1.2,6.8
					c9.7,6.2,21,18.9,16.4,44.1c-7.1,39.4-84.4,36.2-93.5,35.7c-0.6,0-1.1-0.2-1.6-0.5l-123.8-70.6c-1-0.6-1.6-1.5-1.8-2.6
					l-25-144.3c-0.2-1.2,0.2-2.4,1-3.2l-80.7-113.9C1987.4,1949.8,2048.8,1919.7,2050.2,1919.5z"/>
				
					<linearGradient id="SVGID_00000028290470614735685620000012243167728477576832_" gradientUnits="userSpaceOnUse" x1="2663.3574" y1="1185.8257" x2="2415.9316" y2="1787.6726">
					<stop  offset="0" style="stop-color:#FF928E"/>
					<stop  offset="1" style="stop-color:#FE7062"/>
				</linearGradient>
				<path style="fill:url(#SVGID_00000028290470614735685620000012243167728477576832_);" d="M2143.9,2451.8
					c0,0-67.1-63.9-100.2-106.2c-17.9-22.9-23.5-53-15.2-80.8c15.1-50.8,41.9-103.5,44.3-111.7c3.7-12.6,79-12,79-12
					s148.1,96.1,206.3,258.9l-65.4,20.3c0,0-38.7-64.9-76.9-106.1c0,0,66.1,87.3,68.4,123.1L2143.9,2451.8z"/>
				
					<linearGradient id="SVGID_00000120542029742232883810000000183860149632572085_" gradientUnits="userSpaceOnUse" x1="2127.3726" y1="2249.0054" x2="2101.0615" y2="2080.1763">
					<stop  offset="0" style="stop-color:#FEBBBA"/>
					<stop  offset="1" style="stop-color:#FF928E"/>
				</linearGradient>
				<path style="fill:url(#SVGID_00000120542029742232883810000000183860149632572085_);" d="M2063.8,2082.9
					c0.8,2.6,20.4,67.7,22,69.1c1.5,1.4,43.1,3.6,62.6-9.8l-48.5-94.9L2063.8,2082.9z"/>
				<g>
					
						<linearGradient id="SVGID_00000003090507095361855930000016373752686856186552_" gradientUnits="userSpaceOnUse" x1="-366.9142" y1="5877.7832" x2="-194.6957" y2="5994.7617" gradientTransform="matrix(0.6042 -0.7968 0.7968 0.6042 -2477.407 -1773.6736)">
						<stop  offset="0" style="stop-color:#FEBBBA"/>
						<stop  offset="1" style="stop-color:#FF928E"/>
					</linearGradient>
					<path style="fill:url(#SVGID_00000003090507095361855930000016373752686856186552_);" d="M1985.1,1999.3
						c0,0-9.5,37.3,16.8,87.5c26.3,50.2,56,50.1,72.3,34.1c16.3-16.1,36.3-43.3,31.5-91.8S1998.8,1951.8,1985.1,1999.3z"/>
					
						<linearGradient id="SVGID_00000127722273137575766670000003882881476539087527_" gradientUnits="userSpaceOnUse" x1="-252.0322" y1="5737.8643" x2="-316.3309" y2="6075.6606" gradientTransform="matrix(0.6042 -0.7968 0.7968 0.6042 -2477.407 -1773.6736)">
						<stop  offset="0" style="stop-color:#09005D"/>
						<stop  offset="1" style="stop-color:#1A0F91"/>
					</linearGradient>
					<path style="fill:url(#SVGID_00000127722273137575766670000003882881476539087527_);" d="M2069.3,2031.6
						c0,0-43.6-66.6-84.4-14.2l-0.7,19.1c0,0-47.9-5.7-39.5-49.6c8.4-43.9,49.7-71.3,103-52.3c53.3,19,83.8,38.5,87.2,76.7
						c3.4,38.2-26.9,29.8-26.9,29.8s-9.9-26.9-24-29.7c-14.1-2.8-10.4,18.2-10.4,18.2L2069.3,2031.6z"/>
					
						<linearGradient id="SVGID_00000099650550734033024800000008574219586212266404_" gradientUnits="userSpaceOnUse" x1="-356.5906" y1="5862.5845" x2="-184.3731" y2="5979.5625" gradientTransform="matrix(0.6042 -0.7968 0.7968 0.6042 -2477.407 -1773.6736)">
						<stop  offset="0" style="stop-color:#FEBBBA"/>
						<stop  offset="1" style="stop-color:#FF928E"/>
					</linearGradient>
					<path style="fill:url(#SVGID_00000099650550734033024800000008574219586212266404_);" d="M2080.4,2030.7
						c0,0-22.6-34.1,0.6-39.2c23.2-5.1,19.6,33.2,17.1,47.4L2080.4,2030.7z"/>
				</g>
				
					<linearGradient id="SVGID_00000173876693886319436350000017573846919448631183_" gradientUnits="userSpaceOnUse" x1="2235.4153" y1="2440.6992" x2="2601.5657" y2="2440.6992">
					<stop  offset="0" style="stop-color:#FEBBBA"/>
					<stop  offset="1" style="stop-color:#FF928E"/>
				</linearGradient>
				<path style="fill:url(#SVGID_00000173876693886319436350000017573846919448631183_);" d="M2007.2,2456.6l49.3-47.5l68.2,28.8
					c0,0,67.9,10.5,106.8,0c38.9-10.5,38.9-10.5,38.9-10.5l87.8-27.3l13.8,39c3.5,9.9,0,20.9-8.6,27c-7.6,5.4-16.5,11.3-22.2,13.8
					c-11.6,5.1-285.1-3.5-285.1-3.5L2007.2,2456.6z"/>
			</g>
			<g>
				
					<linearGradient id="SVGID_00000036951070984737594290000017788464836414847365_" gradientUnits="userSpaceOnUse" x1="2159.5811" y1="2567.7896" x2="1929.0867" y2="2630.9622" gradientTransform="matrix(0.9988 -4.940000e-02 4.940000e-02 0.9988 -41.469 -55.0328)">
					<stop  offset="0" style="stop-color:#09005D"/>
					<stop  offset="1" style="stop-color:#1A0F91"/>
				</linearGradient>
				<path style="fill:url(#SVGID_00000036951070984737594290000017788464836414847365_);" d="M2193.8,2479c-0.2,0-0.4,0-0.7,0
					l-286.1-0.3c-7.1,0-12.8-5.7-12.8-12.8c0-7.1,5.8-12.9,12.8-12.8l286.1,0.3c7.1,0,12.8,5.7,12.8,12.8
					C2206,2473.1,2200.6,2478.7,2193.8,2479z"/>
				
					<linearGradient id="SVGID_00000109723428532677463390000018048474817132259499_" gradientUnits="userSpaceOnUse" x1="1930.4062" y1="2254.0906" x2="1766.8599" y2="2426.949">
					<stop  offset="0" style="stop-color:#09005D"/>
					<stop  offset="1" style="stop-color:#1A0F91"/>
				</linearGradient>
				<path style="fill:url(#SVGID_00000109723428532677463390000018048474817132259499_);" d="M1649.9,2219.3h238.2
					c17.6,0,33.6,10.1,41.1,26l110.1,233.5h-296.1c-11.3,0-21.5-6.9-25.7-17.5l-85.4-216.1
					C1627.3,2232.8,1636.5,2219.3,1649.9,2219.3z"/>
				<path class="st4" d="M1817.8,2339c5.2,16,1.3,31.6-8.5,34.8c-9.9,3.2-22.1-7.3-27.2-23.3c-5.2-16-1.3-31.6,8.5-34.8
					C1800.4,2312.5,1812.6,2323,1817.8,2339z"/>
			</g>
		</g>
		<g>
			<g>
				
					<linearGradient id="SVGID_00000060714672588031265620000001960376611937090211_" gradientUnits="userSpaceOnUse" x1="-9161.5986" y1="3256.1199" x2="-9159.1836" y2="3512.105" gradientTransform="matrix(-1 0 0 1 -6719.2798 0)">
					<stop  offset="0" style="stop-color:#09005D"/>
					<stop  offset="1" style="stop-color:#1A0F91"/>
				</linearGradient>
				<path style="fill:url(#SVGID_00000060714672588031265620000001960376611937090211_);" d="M2520,2954.2c0,0,3,16.7,4.2,36.5
					c0.5,8.4-5.7,15.8-14.2,16.6c-29.3,2.8-95.9,8.1-138.5,1.9c-6-0.9-8.3-8.2-3.9-12.3c17.5-16.3,59.9-48.2,129.7-55.1L2520,2954.2
					z"/>
				
					<linearGradient id="SVGID_00000165915578242110151780000003895745091341774009_" gradientUnits="userSpaceOnUse" x1="-9223.3037" y1="2970.2493" x2="-9236.5859" y2="2866.4065" gradientTransform="matrix(-1 0 0 1 -6719.2798 0)">
					<stop  offset="0" style="stop-color:#FEBBBA"/>
					<stop  offset="1" style="stop-color:#FF928E"/>
				</linearGradient>
				<path style="fill:url(#SVGID_00000165915578242110151780000003895745091341774009_);" d="M2534.5,2916.6l-14.8,36.3
					c-2,5-7.1,8.1-12.4,7.5c-3.6-0.4-7.9-1.1-12.1-2.3c-8.4-2.5-13.1-11.4-10.6-19.8l11.2-37.4L2534.5,2916.6z"/>
				
					<linearGradient id="SVGID_00000168808450700706046300000005354725545074444962_" gradientUnits="userSpaceOnUse" x1="-9507.4512" y1="3259.3813" x2="-9505.0361" y2="3515.3647" gradientTransform="matrix(-1 0 0 1 -6719.2798 0)">
					<stop  offset="0" style="stop-color:#09005D"/>
					<stop  offset="1" style="stop-color:#1A0F91"/>
				</linearGradient>
				<path style="fill:url(#SVGID_00000168808450700706046300000005354725545074444962_);" d="M2787.7,2983.1
					c0,0-29.6,24.8-41.2,56.6c-3.2,8.8,3.5,18,12.8,18h61c8.9,0,15.8-8,14.2-16.8C2830.6,3018.9,2819.4,2983.2,2787.7,2983.1z"/>
				
					<linearGradient id="SVGID_00000123423734585465194320000006616413891231612848_" gradientUnits="userSpaceOnUse" x1="-9513.6045" y1="3005.8394" x2="-9526.5479" y2="2904.6472" gradientTransform="matrix(-1 0 0 1 -6719.2798 0)">
					<stop  offset="0" style="stop-color:#FEBBBA"/>
					<stop  offset="1" style="stop-color:#FF928E"/>
				</linearGradient>
				<path style="fill:url(#SVGID_00000123423734585465194320000006616413891231612848_);" d="M2824.4,2950.8c0,0-6,26.5-10.6,44
					c-0.8,3.2-4.2,4.9-7.3,3.8c-9.2-3.3-16.7-4.8-22.2-4c-2.5,0.3-4.7-1.8-4.8-4.3l-0.6-44L2824.4,2950.8z"/>
				
					<linearGradient id="SVGID_00000029728515720888169530000009276629565579467148_" gradientUnits="userSpaceOnUse" x1="-9604.0557" y1="2621.3267" x2="-9205.667" y2="2621.3267" gradientTransform="matrix(-1 0 0 1 -6719.2798 0)">
					<stop  offset="0" style="stop-color:#09005D"/>
					<stop  offset="1" style="stop-color:#1A0F91"/>
				</linearGradient>
				<path style="fill:url(#SVGID_00000029728515720888169530000009276629565579467148_);" d="M2666.7,2354.4l-180.3,550.1
					c0,0,34.6,22.7,51.1,21.7l214.2-442.1c0,0,37.5,272.4,19.3,468l61.3,4.7c0,0,99.8-499.8,24.2-671L2666.7,2354.4z"/>
				<path class="st4" d="M2750.5,2479.4c0.1,0,0.1,0,0.2,0c1-0.1,1.6-1,1.5-2l-7-55.5c-0.1-1-1-1.6-2-1.5c-1,0.1-1.6,1-1.5,2l7,55.5
					C2748.9,2478.7,2749.6,2479.4,2750.5,2479.4z"/>
			</g>
			
				<linearGradient id="SVGID_00000049220838876082683880000007853527562065093296_" gradientUnits="userSpaceOnUse" x1="3043.012" y1="1642.3279" x2="2946.0476" y2="1776.0718">
				<stop  offset="0" style="stop-color:#FF928E"/>
				<stop  offset="1" style="stop-color:#FE7062"/>
			</linearGradient>
			<path style="fill:url(#SVGID_00000049220838876082683880000007853527562065093296_);" d="M2632.9,1870.4
				c0,0,146.1,13,125.4,117.1c0,0,80.8,152,118.5,331c1.2,5.8-2.7,11.5-8.5,12.5l-243.3,41.7c-6.7,1.1-13.2-3-14.9-9.6l-58.1-224.7
				l-22.7,104.5l-72-18.8l60.6-306.9C2517.9,1917.1,2526.4,1872.3,2632.9,1870.4z"/>
			
				<linearGradient id="SVGID_00000170998537698043222320000009764232901522461622_" gradientUnits="userSpaceOnUse" x1="3049.5591" y1="1464.7655" x2="2504.5518" y2="2123.4563">
				<stop  offset="0" style="stop-color:#E1473D"/>
				<stop  offset="1" style="stop-color:#E9605A"/>
			</linearGradient>
			<path style="fill:url(#SVGID_00000170998537698043222320000009764232901522461622_);" d="M2550.7,2128.3c0.1,0,0.3,0,0.4,0
				c1-0.2,1.6-1.2,1.4-2.2l-20.3-93.1c-0.2-1-1.2-1.6-2.2-1.4c-1,0.2-1.6,1.2-1.4,2.2l20.3,93.1
				C2549.2,2127.7,2549.9,2128.3,2550.7,2128.3z"/>
			
				<linearGradient id="SVGID_00000098200292209639811100000007372624118163506318_" gradientUnits="userSpaceOnUse" x1="2816.5698" y1="2157.3599" x2="2520.6763" y2="2473.3142">
				<stop  offset="0" style="stop-color:#FEBBBA"/>
				<stop  offset="1" style="stop-color:#FF928E"/>
			</linearGradient>
			<path style="fill:url(#SVGID_00000098200292209639811100000007372624118163506318_);" d="M2565.4,2405.4
				c7.7-4.2,16.6-5.4,25.1-3.3l16.9,4.2c3.6,0.9,7.2-1.6,7.6-5.3l17.5-155.9c21.9,10.4,53.5,9.2,63.9,8.4l-40.3,183.8h-141.1
				L2565.4,2405.4z"/>
			
				<linearGradient id="SVGID_00000120550784750725838040000009858087270681834686_" gradientUnits="userSpaceOnUse" x1="-9248.6104" y1="2113.822" x2="-8909.8447" y2="2113.822" gradientTransform="matrix(-1 0 0 1 -6719.2798 0)">
				<stop  offset="0" style="stop-color:#FEBBBA"/>
				<stop  offset="1" style="stop-color:#FF928E"/>
			</linearGradient>
			<path style="fill:url(#SVGID_00000120550784750725838040000009858087270681834686_);" d="M2190.6,2067.2l4.3-14.2
				c2.5-8.2,8.5-14.8,16.4-17.9l77.1-31c0,0,1.2-9.9-16.3-16.6s-13.4-26.3-13.4-26.3s23.9,10.9,58.8,28.1
				c20,9.9,31.2,27.3,37.1,40.4l174.8,213.1l-20.5,14.1c-27,18.5-64.1,9.4-79.4-19.5l-94.7-181.6
				C2287.2,2070.1,2239.1,2072.8,2190.6,2067.2z"/>
			<g>
				
					<linearGradient id="SVGID_00000075132303638701746230000012604349606478829723_" gradientUnits="userSpaceOnUse" x1="-9370.5713" y1="1923.8199" x2="-9252.6729" y2="1802.8591" gradientTransform="matrix(-1 0 0 1 -6719.2798 0)">
					<stop  offset="0" style="stop-color:#FEBBBA"/>
					<stop  offset="1" style="stop-color:#FF928E"/>
				</linearGradient>
				<path style="fill:url(#SVGID_00000075132303638701746230000012604349606478829723_);" d="M2585.6,1771l44.9,125.8
					c0,0-39.8,31.1-68.8,20.6l-22.6-72.1C2539,1845.2,2556.3,1757.1,2585.6,1771z"/>
				<g>
					
						<linearGradient id="SVGID_00000172435596077464296110000016339605665005470621_" gradientUnits="userSpaceOnUse" x1="-9199.5889" y1="1726.6471" x2="-9346.5791" y2="1921.1028" gradientTransform="matrix(-1 0 0 1 -6719.2798 0)">
						<stop  offset="0" style="stop-color:#FEBBBA"/>
						<stop  offset="1" style="stop-color:#FF928E"/>
					</linearGradient>
					<path style="fill:url(#SVGID_00000172435596077464296110000016339605665005470621_);" d="M2451.5,1725.8
						c0,1.9,43.3,122.5,43.3,122.5l68.3-26.2l-24-120.4C2539,1701.8,2451.5,1693.4,2451.5,1725.8z"/>
					
						<linearGradient id="SVGID_00000103241248701163170440000013214148467239564945_" gradientUnits="userSpaceOnUse" x1="-9311.8477" y1="1773.5546" x2="-9136.2656" y2="1773.5546" gradientTransform="matrix(-1 0 0 1 -6719.2798 0)">
						<stop  offset="0" style="stop-color:#09005D"/>
						<stop  offset="1" style="stop-color:#1A0F91"/>
					</linearGradient>
					<path style="fill:url(#SVGID_00000103241248701163170440000013214148467239564945_);" d="M2527.1,1731.1l17.6,62.4
						c0.2,0.8,0.3,1.6,0.3,2.4c0,5.1-1.3,22.6-19.1,20.2c-16.2-2.2-31-3.9-40.4,0.5c-4.2,2-6.2,6.9-4.7,11.2
						c3.9,11,13.3,35.5,24.6,55.6c2.3,4.1,7.4,5.7,11.6,3.7c12.8-5.8,39.6-18.9,58.6-34.5c2.6-2.1,3.8-5.4,3.2-8.7
						c-3-16-11.9-64.5-12.3-78.4c-0.4-13.1,14.3-23,20.7-26.8c2.1-1.2,3.6-3.3,4.2-5.6c2-8.4,3.7-27.4-20.5-31.6
						c-5.1-0.9-8.4-5.7-7.4-10.8c2.1-10.1,1.4-24.8-17.7-30.3c-19.4-5.5-31.6,6.1-37.8,15.1c-2.5,3.6-7.2,4.8-11.2,3
						c-2.3-1-5.1-1.1-8,1.4c-4,3.4-10.1,2.3-13-2c-5.7-8.3-15.9-16.6-33.3-11c-30.9,10-29.4,45.6-18.1,64.9
						c11.3,19.3,44.2,6.6,59.7-6.2c11.8-9.7,29.8-3.9,37.8-0.6C2524.4,1726.3,2526.3,1728.5,2527.1,1731.1z"/>
					
						<linearGradient id="SVGID_00000093866868108544646920000015748797280041213606_" gradientUnits="userSpaceOnUse" x1="-9414.8721" y1="1880.6406" x2="-9296.9736" y2="1759.6807" gradientTransform="matrix(-1 0 0 1 -6719.2798 0)">
						<stop  offset="0" style="stop-color:#FEBBBA"/>
						<stop  offset="1" style="stop-color:#FF928E"/>
					</linearGradient>
					<path style="fill:url(#SVGID_00000093866868108544646920000015748797280041213606_);" d="M2572.8,1788.4
						c0,0-18.3-34.6-6.2-45.4c12.1-10.9,32.6-9.1,32,18C2597.9,1794.6,2572.8,1788.4,2572.8,1788.4z"/>
				</g>
			</g>
			
				<linearGradient id="SVGID_00000021829552810666758100000004384365314708248749_" gradientUnits="userSpaceOnUse" x1="3157.2351" y1="1553.8615" x2="2612.2295" y2="2212.55">
				<stop  offset="0" style="stop-color:#E1473D"/>
				<stop  offset="1" style="stop-color:#E9605A"/>
			</linearGradient>
			<path style="fill:url(#SVGID_00000021829552810666758100000004384365314708248749_);" d="M2682.3,2255.9c10,0,17.1-0.8,17.9-0.8
				l1.3-0.1l53.2-248c0.2-1-0.4-1.9-1.4-2.2c-1-0.2-1.9,0.4-2.2,1.4l-52.6,245.5c-7.9,0.7-50.2,3.5-72.5-12.3l46.1-215.5l-9.6-18.1
				c-0.5-0.9-1.6-1.2-2.4-0.8c-0.9,0.5-1.2,1.6-0.8,2.4l9,17l-46.3,216.5l0.9,0.7C2639,2253.6,2665,2255.9,2682.3,2255.9z"/>
		</g>
		<g>
			<path class="st4" d="M1087.5,3012.1c-1.2,0-2.5-0.3-3.7-0.8c-4.7-2.2-6.9-8.2-4.9-13.3l194.4-493.2c2-5.1,7.5-7.5,12.2-5.3
				c4.7,2.2,6.9,8.2,4.9,13.3L1096,3005.9C1094.5,3009.8,1091.1,3012.1,1087.5,3012.1z"/>
			<path class="st4" d="M1306.5,3012.1c-3.6,0-7-2.3-8.5-6.1l-194.4-493.2c-2-5.1,0.1-11.1,4.9-13.3c4.7-2.2,10.2,0.2,12.2,5.3
				l194.4,493.2c2,5.1-0.1,11.1-4.9,13.3C1309,3011.8,1307.7,3012.1,1306.5,3012.1z"/>
			<path class="st4" d="M2406.8,3012.1c-1.2,0-2.5-0.3-3.7-0.8c-4.7-2.2-6.9-8.2-4.9-13.3l194.4-493.2c2-5.1,7.5-7.5,12.2-5.3
				c4.7,2.2,6.9,8.2,4.9,13.3l-194.4,493.2C2413.8,3009.8,2410.4,3012.1,2406.8,3012.1z"/>
			<path class="st4" d="M2625.8,3012.1c-3.6,0-7-2.3-8.5-6.1l-194.4-493.2c-2-5.1,0.1-11.1,4.9-13.3c4.7-2.2,10.2,0.2,12.2,5.3
				l194.4,493.2c2,5.1-0.1,11.1-4.9,13.3C2628.3,3011.8,2627,3012.1,2625.8,3012.1z"/>
		</g>
		<g>
			<path class="st80" d="M2378.6,2469.9l281.5,0v-29.1h-281.5C2384.6,2440.8,2384.6,2469.9,2378.6,2469.9z"/>
			
				<linearGradient id="SVGID_00000051352835645381606480000005542414759027552692_" gradientUnits="userSpaceOnUse" x1="-2556.4529" y1="-13819.0742" x2="-2802.2717" y2="-13221.1367" gradientTransform="matrix(-1 0 0 1 -6719.2798 0)">
				<stop  offset="0" style="stop-color:#4F52FF"/>
				<stop  offset="1" style="stop-color:#4042E2"/>
			</linearGradient>
			<path style="fill:url(#SVGID_00000051352835645381606480000005542414759027552692_);" d="M2656.8,2469.9c1.8,0,3.3-1.5,3.3-3.3
				v-22.4c0-1.8-1.5-3.3-3.3-3.3h-283.4c-1.8,0-3.3-1.5-3.3-3.3s1.5-3.3,3.3-3.3h302.9c6.7,0,12.2,5.4,12.2,12.2v18.6
				c0,6.3-5.1,11.5-11.5,11.5h-303.6c-1.8,0-3.3-1.5-3.3-3.3c0-1.8,1.5-3.3,3.3-3.3H2656.8z"/>
		</g>
		<path class="st4" d="M2701,2489.5c0.9-3.2-0.3-6.6-3.5-9.1c-3.2-2.5-7.9-4-12.9-4h-1687c-6.5,0-12.6,2.2-16.2,5.9
			c-3.5,3.7-4,8.3-1.3,12.2l18.3,26.2c4.2,6,13.3,9.9,23.2,9.9H2673c9.3,0,17.3-4.4,19-10.4L2701,2489.5z"/>
	</g>
	<g>
		<g>
			<g class="st82">
				<path class="st80" d="M1780.2,768.2c-5.3-1.1-8.8-6.3-7.7-11.7c2.2-10.4,3.9-21,5.2-31.6c0.6-5.4,5.5-9.2,10.8-8.6
					c0.1,0,0.1,0,0.2,0c5.4,0.7,9.3,5.6,8.6,11c-1.3,11.1-3.2,22.3-5.4,33.2c-1,5-5.7,8.3-10.7,7.8
					C1780.9,768.3,1780.6,768.3,1780.2,768.2z M1780.4,673.1c-0.2-10.6-0.8-21.4-1.9-31.9c-0.6-5.4,3.4-10.3,8.8-10.8
					c5.4-0.5,10.3,3.4,10.8,8.8c1.1,11.1,1.8,22.4,2,33.6c0.1,5.5-4.3,9.9-9.7,10c-0.4,0-0.8,0-1.2,0
					C1784.4,682.2,1780.5,678.1,1780.4,673.1z M1769.7,590c-2.5-10.3-5.6-20.6-9-30.7c-1.8-5.2,1-10.8,6.2-12.5
					c5.2-1.7,10.8,1,12.5,6.2c3.6,10.6,6.8,21.5,9.4,32.3c1.3,5.3-1.9,10.6-7.2,12c-1.1,0.3-2.3,0.3-3.4,0.2
					C1774.2,597,1770.7,594.1,1769.7,590z M1740.6,511.3c-4.8-9.5-10-18.9-15.6-27.9c-2.9-4.6-1.4-10.7,3.2-13.6
					c4.6-2.9,10.7-1.4,13.6,3.2c5.9,9.5,11.4,19.4,16.4,29.4c2.5,4.9,0.5,10.8-4.4,13.3c-1.7,0.9-3.6,1.2-5.4,1
					C1745.2,516.4,1742.2,514.5,1740.6,511.3z M1694.7,441.2c-6.8-8.2-14-16.2-21.4-23.8c-3.8-3.9-3.8-10.2,0.1-14
					c3.9-3.8,10.2-3.8,14,0.1c7.8,8,15.4,16.4,22.5,25c3.5,4.2,2.9,10.4-1.3,13.9c-2.1,1.8-4.7,2.5-7.3,2.2
					C1698.9,444.4,1696.5,443.3,1694.7,441.2z M1634.5,382.9c-8.4-6.5-17.2-12.7-26.1-18.4c-4.6-3-5.9-9.1-3-13.6
					c3-4.6,9.1-5.9,13.7-3c9.4,6.1,18.7,12.6,27.5,19.4c4.3,3.3,5.1,9.5,1.8,13.9c-2.2,2.8-5.5,4.1-8.8,3.8
					C1637.7,384.7,1636,384.1,1634.5,382.9z M1273.5,318.4c-1.7-5.2,1-10.8,6.2-12.5c10.6-3.6,21.5-6.7,32.4-9.4
					c5.3-1.3,10.6,2,11.9,7.3c1.3,5.3-2,10.6-7.3,11.9c-10.3,2.5-20.7,5.5-30.7,8.9c-1.4,0.5-2.8,0.6-4.1,0.5
					C1278.1,324.7,1274.8,322.2,1273.5,318.4z M1562.9,339.4c-9.6-4.5-19.6-8.5-29.6-12.2c-5.1-1.9-7.8-7.5-5.9-12.6
					c1.9-5.1,7.5-7.8,12.6-5.9c10.5,3.8,21,8.1,31.1,12.8c5,2.3,7.1,8.2,4.8,13.1c-1.8,3.9-5.9,6.1-10,5.7
					C1564.9,340.2,1563.9,339.9,1562.9,339.4z M1357.1,298.1c-0.5-5.4,3.4-10.3,8.8-10.8c11.1-1.1,22.4-1.8,33.6-1.9
					c5.5-0.1,9.9,4.3,10,9.7c0.1,5.5-4.3,9.9-9.7,10c-10.6,0.2-21.4,0.8-31.9,1.8c-0.7,0.1-1.3,0.1-2,0
					C1361.4,306.4,1357.6,302.8,1357.1,298.1z M1483.3,313.1c-10.4-2.2-21-3.9-31.6-5.2c-5.4-0.7-9.3-5.6-8.6-11
					c0.7-5.3,5.5-9.2,10.8-8.6c0.1,0,0.1,0,0.2,0c11.1,1.4,22.3,3.2,33.2,5.5c5.3,1.1,8.8,6.4,7.6,11.7c-1,5-5.7,8.3-10.6,7.8
					C1484,313.2,1483.7,313.2,1483.3,313.1z"/>
				<path class="st80" d="M1218.4,353.1c1.9,0.2,3.9-0.2,5.8-1.2c4.5-2.5,9-4.9,13.6-7.2c4.9-2.4,6.8-8.4,4.4-13.3
					c-2.4-4.9-8.4-6.8-13.3-4.4c-4.8,2.4-9.6,5-14.3,7.6c-4.8,2.6-6.5,8.7-3.8,13.4C1212.4,351,1215.3,352.8,1218.4,353.1z"/>
			</g>
			<g class="st82">
				<path class="st80" d="M1033.1,590.4c4.7,0.5,9.3-2.5,10.5-7.3c1.3-4.9,2.7-9.9,4.3-14.8c1.6-5.2-1.3-10.7-6.5-12.4
					c-5.2-1.6-10.7,1.3-12.4,6.5c-1.6,5.1-3.1,10.4-4.5,15.6c-1.4,5.3,1.7,10.7,7,12.1C1032.1,590.3,1032.6,590.4,1033.1,590.4z"/>
				<path class="st80" d="M1346.4,1069.7c-5.4-0.8-9.1-5.8-8.3-11.2c0.8-5.4,5.8-9.1,11.2-8.3c10.3,1.6,20.8,2.7,31.3,3.4
					c5.4,0.3,9.6,5.1,9.2,10.5c-0.4,5.4-5.1,9.6-10.5,9.2c-4.6-0.3-9.1-0.7-13.6-1.1C1359.2,1071.5,1352.7,1070.6,1346.4,1069.7z
					 M1422.6,1064.1c-0.4-5.4,3.7-10.2,9.2-10.5c10.4-0.7,21-1.9,31.3-3.5c5.4-0.8,10.4,2.9,11.3,8.3c0.8,5.4-2.9,10.4-8.3,11.3
					c-10.9,1.7-21.9,2.9-32.9,3.6c-0.6,0-1.1,0-1.7,0C1426.8,1072.7,1422.9,1068.9,1422.6,1064.1z M1293.9,1058
					c-10.5-3.1-21.1-6.7-31.4-10.7c-5.1-2-7.6-7.7-5.6-12.8c2-5.1,7.7-7.6,12.8-5.6c9.8,3.8,19.8,7.2,29.8,10.2
					c5.2,1.5,8.2,7,6.7,12.3c-1.4,4.6-5.8,7.5-10.5,7C1295.1,1058.3,1294.5,1058.2,1293.9,1058z M1506.3,1051.1
					c-1.6-5.2,1.4-10.7,6.6-12.3c10-3,20-6.4,29.8-10.3c5.1-2,10.8,0.5,12.8,5.6c2,5.1-0.5,10.8-5.6,12.8
					c-10.2,4-20.8,7.7-31.3,10.8c-1.3,0.4-2.6,0.5-3.8,0.4C1510.9,1057.8,1507.5,1055.1,1506.3,1051.1z M1213.9,1024.4
					c-9.6-5.3-19.1-11.2-28.2-17.3c-4.5-3-5.7-9.2-2.7-13.7c3-4.5,9.2-5.7,13.7-2.7c8.7,5.8,17.7,11.4,26.8,16.5
					c4.8,2.7,6.5,8.7,3.8,13.4c-2,3.5-5.8,5.4-9.6,5C1216.4,1025.5,1215.1,1025.1,1213.9,1024.4z M1143.2,974
					c-8.2-7.3-16.2-15.1-23.8-23.1c-3.7-4-3.6-10.2,0.4-14c4-3.8,10.2-3.6,14,0.4c7.2,7.6,14.8,15,22.6,21.9
					c4.1,3.6,4.4,9.9,0.8,13.9c-2.2,2.4-5.3,3.6-8.4,3.2C1146.7,976.3,1144.8,975.5,1143.2,974z M1085.1,909.4
					c-6.4-9-12.5-18.3-18.2-27.7c-2.8-4.7-1.3-10.7,3.4-13.5c4.7-2.8,10.7-1.3,13.5,3.4c5.4,9,11.2,17.8,17.3,26.3
					c3.2,4.4,2.2,10.6-2.3,13.8c-2,1.5-4.4,2-6.7,1.8C1089.5,913.2,1086.9,911.8,1085.1,909.4z M1042.6,833.8
					c-4.3-10.1-8.2-20.6-11.7-31c-1.7-5.2,1.1-10.8,6.3-12.5c5.2-1.7,10.8,1.1,12.5,6.3c3.3,9.9,7,19.8,11.1,29.5
					c2.1,5-0.2,10.8-5.2,12.9c-1.6,0.7-3.2,0.9-4.8,0.7C1047.2,839.4,1044,837.2,1042.6,833.8z M1017.7,750.5
					c-2-10.8-3.5-21.8-4.5-32.8c-0.5-5.4,3.5-10.3,8.9-10.8c5.4-0.5,10.3,3.5,10.8,8.9c1,10.4,2.4,20.9,4.3,31.2
					c1,5.4-2.6,10.5-8,11.5c-0.9,0.2-1.9,0.2-2.8,0.1C1022.1,758.1,1018.5,754.9,1017.7,750.5z M1011.7,663.9
					c0.3-8.1,0.9-16.3,1.7-24.3c0.3-2.9,0.6-5.8,1-8.7c0.7-5.4,5.5-9.4,11-8.6c5.4,0.7,9.3,5.6,8.6,11c-0.3,2.7-0.7,5.5-0.9,8.3
					c-0.8,7.6-1.3,15.4-1.6,23.1c-0.2,5.4-4.8,9.7-10.3,9.5c-0.2,0-0.4,0-0.6,0C1015.4,673.6,1011.5,669.2,1011.7,663.9z"/>
				<path class="st80" d="M1593,1025c2,0.2,4-0.2,5.8-1.2c4.7-2.6,9.4-5.4,14-8.2c4.6-2.9,6.1-8.9,3.2-13.6
					c-2.9-4.6-8.9-6.1-13.6-3.2c-4.4,2.7-8.8,5.3-13.3,7.8c-4.8,2.7-6.4,8.7-3.8,13.4C1587,1022.9,1589.9,1024.7,1593,1025z"/>
			</g>
			<g>
				<path class="st80" d="M1638.9,862c1.4-1.4,1.7-3.5,0.9-5.3l-24.6-50.5c13.8-22.3,24.2-47,30.4-73.2l53.1-18.3
					c1.9-0.6,3.1-2.4,3.1-4.4l0-67.4c0-2-1.2-3.7-3.1-4.4l-53.1-18.3c-6.2-26.3-16.5-50.9-30.4-73.2l24.6-50.5
					c0.9-1.8,0.5-3.9-0.9-5.3l-47.7-47.6c-1.4-1.4-3.5-1.7-5.3-0.9l-50.5,24.6c-22.3-13.8-47-24.2-73.2-30.4l-18.3-53.1
					c-0.6-1.9-2.4-3.1-4.4-3.1l-67.4,0c-2,0-3.7,1.3-4.4,3.1l-18.3,53.1c-26.3,6.2-50.9,16.5-73.2,30.4l-50.5-24.6
					c-1.8-0.9-3.9-0.5-5.3,0.9l-47.6,47.7c-1.4,1.4-1.7,3.5-0.9,5.3l24.6,50.5c-13.8,22.3-24.2,47-30.4,73.2l-53.1,18.3
					c-1.9,0.6-3.1,2.4-3.1,4.4l0,67.4c0,2,1.2,3.7,3.1,4.4l53.1,18.3c6.2,26.3,16.5,50.9,30.4,73.2l-24.6,50.5
					c-0.9,1.8-0.5,3.9,0.9,5.3l47.7,47.6c1.4,1.4,3.5,1.7,5.3,0.9l50.5-24.6c22.3,13.8,47,24.2,73.2,30.4l18.3,53.1
					c0.6,1.9,2.4,3.1,4.4,3.1l67.4,0c2,0,3.7-1.2,4.4-3.1l18.3-53.1c26.3-6.2,50.9-16.5,73.2-30.4l50.5,24.6
					c1.8,0.9,3.9,0.5,5.3-0.9L1638.9,862z"/>
				
					<linearGradient id="SVGID_00000140004940802966184520000018196951176928555963_" gradientUnits="userSpaceOnUse" x1="1338.0985" y1="676.656" x2="1473.5771" y2="676.656">
					<stop  offset="0" style="stop-color:#DAE3FE"/>
					<stop  offset="1" style="stop-color:#E9EFFD"/>
				</linearGradient>
				<path style="fill:url(#SVGID_00000140004940802966184520000018196951176928555963_);" d="M1389.3,742.3
					c-36.2-9.1-58.2-46-49.1-82.2c4.4-17.5,15.4-32.3,31-41.6c15.5-9.3,33.7-11.9,51.3-7.5c36.2,9.1,58.2,46,49.1,82.2
					c-8.3,32.9-39.6,54.1-72.4,50.8C1395.8,743.7,1392.5,743.2,1389.3,742.3z M1379.2,632.1c-11.9,7.1-20.3,18.4-23.7,31.9
					c-7,27.8,9.9,56.1,37.6,63.1c27.8,7,56.1-9.9,63.1-37.6c7-27.8-9.9-56.1-37.6-63.1c-2.5-0.6-5-1.1-7.6-1.3
					C1399.9,623.9,1388.9,626.3,1379.2,632.1z"/>
				
					<linearGradient id="SVGID_00000077308672070975181420000004876742060778085774_" gradientUnits="userSpaceOnUse" x1="1238.3673" y1="675.5731" x2="1571.4553" y2="675.5731">
					<stop  offset="0" style="stop-color:#DAE3FE"/>
					<stop  offset="1" style="stop-color:#E9EFFD"/>
				</linearGradient>
				<path style="fill:url(#SVGID_00000077308672070975181420000004876742060778085774_);" d="M1387.8,841.3
					c5.6,0.6,11.3,0.9,17.1,0.9l0,0c1.8,0,3.6,0,5.4-0.1c8.9-0.3,17.8-1.3,26.5-3c0.1,0,0.2,0,0.4-0.1c0.3-0.1,0.7-0.1,1-0.2
					c0.7-0.1,1.3-0.3,2-0.4c1.7-0.4,2.9-1.8,3.1-3.5c0-0.4,0-0.8-0.1-1.2c-0.5-2.1-2.6-3.5-4.7-3c-11,2.4-22.3,3.6-33.6,3.6
					c-56.2,0-105.7-29.4-133.9-73.6c-15.7-24.6-24.8-53.8-24.8-85c0-5.5,0.3-10.9,0.8-16.3c3.7-36.2,19.5-69.8,45.6-95.9
					c30-30,69.8-46.5,112.2-46.5c87.5,0,158.7,71.2,158.7,158.6c0,5.4-0.3,10.8-0.8,16.1c-2.3,23.1-9.7,45.4-21.7,65.4
					c-0.3,0.5-0.5,1.1-0.5,1.6c-0.1,1.5,0.5,3,1.9,3.8c1.9,1.1,4.3,0.5,5.4-1.4c12.5-20.9,20.3-44.4,22.7-68.6
					c0.6-5.6,0.9-11.2,0.9-16.9c0-91.8-74.8-166.5-166.6-166.5c-44.5,0-86.3,17.3-117.8,48.8c-27.4,27.4-44.1,62.6-47.9,100.6
					c-0.6,5.6-0.9,11.4-0.9,17.1c0,44.5,17.3,86.3,48.8,117.8C1314.5,820.7,1349.8,837.4,1387.8,841.3z"/>
			</g>
		</g>
		<g>
			<g class="st82">
				<path class="st80" d="M2090.3,1061.2c2.6,0.3,5.2-1.2,6.3-3.8c2-4.8,3.8-9.7,5.4-14.6c1.1-3.2-0.6-6.6-3.8-7.7
					c-3.2-1.1-6.7,0.6-7.7,3.8c-1.6,4.7-3.3,9.4-5.2,13.9c-1.3,3.1,0.2,6.7,3.4,7.9C2089.2,1061.1,2089.8,1061.2,2090.3,1061.2z"/>
				<path class="st80" d="M2103.3,1016.3c-3.3-0.7-5.4-3.9-4.7-7.2c1.7-8.3,3-16.8,3.9-25.3c0.2-1.8,0.3-3.6,0.5-5.4
					c0.3-3.4,3.2-5.9,6.6-5.6c3.2,0.4,5.9,3.2,5.6,6.6c-0.2,1.9-0.3,3.8-0.5,5.6c-0.9,8.9-2.3,17.8-4.1,26.5
					c-0.6,3.1-3.5,5.2-6.6,4.8C2103.8,1016.3,2103.6,1016.3,2103.3,1016.3z M2103.5,947.4c-0.4-10.3-1.5-20.7-3.2-30.8
					c-0.6-3.3,1.7-6.5,5-7c3.3-0.5,6.5,1.7,7,5c1.8,10.6,2.9,21.5,3.4,32.3c0.1,3.4-2.5,6.2-5.8,6.4c-0.3,0-0.6,0-0.9,0
					C2106,952.9,2103.7,950.5,2103.5,947.4z M2093.4,886.4c-2.9-9.9-6.5-19.6-10.7-29.1c-1.4-3.1,0.1-6.7,3.1-8c3.1-1.4,6.7,0,8,3.1
					c4.3,9.9,8.1,20.2,11.2,30.5c1,3.2-0.9,6.6-4.1,7.6c-0.8,0.2-1.6,0.3-2.4,0.2C2096.2,890.5,2094.1,888.9,2093.4,886.4z
					 M2068.5,829.8c-5.3-8.9-11.2-17.5-17.5-25.6c-2.1-2.7-1.6-6.5,1.1-8.6c2.7-2.1,6.5-1.6,8.6,1.1c6.6,8.5,12.8,17.5,18.3,26.8
					c1.7,2.9,0.8,6.6-2.1,8.4c-1.2,0.7-2.5,1-3.7,0.8C2071.3,832.6,2069.5,831.5,2068.5,829.8z M2030.6,781
					c-7.3-7.3-15.1-14.2-23.1-20.6c-2.6-2.1-3.1-5.9-1-8.6c2.1-2.7,5.9-3.1,8.6-1c8.5,6.7,16.6,13.9,24.3,21.6
					c2.4,2.4,2.4,6.3,0,8.6c-1.3,1.3-3.2,1.9-4.9,1.7C2032.9,782.6,2031.6,782,2030.6,781z M1981.9,742.8
					c-8.8-5.3-18-10.1-27.4-14.3c-3.1-1.4-4.5-5-3.1-8c1.4-3.1,5-4.5,8.1-3.1c9.8,4.4,19.5,9.4,28.8,15c2.9,1.7,3.8,5.5,2.1,8.4
					c-1.3,2.1-3.6,3.2-5.8,2.9C1983.6,743.6,1982.7,743.3,1981.9,742.8z M1925.5,717.7c-9.8-3-20-5.4-30.1-7.1c-3.3-0.6-5.5-3.7-5-7
					c0.6-3.3,3.7-5.5,7-5c10.7,1.8,21.3,4.4,31.6,7.5c3.2,1,5,4.4,4.1,7.6c-0.9,2.8-3.6,4.6-6.4,4.3
					C1926.3,717.9,1925.9,717.8,1925.5,717.7z M1827,702c-0.3-3.4,2.3-6.3,5.6-6.5c9.3-0.7,18.8-0.9,28.2-0.6c1.4,0,2.9,0.1,4.3,0.2
					c3.4,0.1,6,3,5.8,6.4c-0.2,3.4-3,6-6.4,5.8c-1.3-0.1-2.7-0.1-4-0.2c-9-0.3-18.1-0.1-26.9,0.6c-0.4,0-0.7,0-1.1,0
					C1829.6,707.4,1827.3,705,1827,702z"/>
			</g>
			<g class="st82">
				<path class="st80" d="M1822.3,1219.9c-10.6-1.2-21.1-3.1-31.4-5.5c-3.3-0.8-5.3-4.1-4.5-7.4c0.8-3.3,4.1-5.3,7.4-4.5
					c9.8,2.4,19.9,4.1,30,5.3c3.3,0.4,5.7,3.4,5.4,6.8C1828.7,1217.9,1825.7,1220.3,1822.3,1219.9
					C1822.4,1219.9,1822.4,1219.9,1822.3,1219.9z M1848.1,1215.6c0-3.4,2.7-6.1,6.1-6.1c10.1-0.1,20.4-0.7,30.4-2
					c3.3-0.4,6.4,1.9,6.8,5.3c0.4,3.3-1.9,6.4-5.3,6.8c-10.5,1.3-21.3,2-31.9,2.1c-0.2,0-0.4,0-0.7,0
					C1850.5,1221.3,1848.1,1218.7,1848.1,1215.6z M1760.3,1205c-10-3.7-19.8-8.1-29.2-13c-3-1.6-4.2-5.2-2.6-8.2
					c1.6-3,5.2-4.1,8.2-2.6c9,4.7,18.3,8.8,27.8,12.4c3.2,1.2,4.8,4.7,3.6,7.8c-1,2.7-3.6,4.2-6.3,3.9
					C1761.4,1205.4,1760.8,1205.2,1760.3,1205z M1910.1,1209.1c-0.8-3.3,1.1-6.6,4.4-7.4c9.8-2.5,19.6-5.6,29-9.3
					c3.1-1.2,6.7,0.3,7.9,3.5c1.2,3.1-0.3,6.7-3.5,7.9c-9.9,3.9-20.1,7.1-30.4,9.7c-0.7,0.2-1.4,0.2-2.1,0.2
					C1912.9,1213.5,1910.8,1211.7,1910.1,1209.1z M1703.8,1175.7c-8.8-6-17.2-12.6-25.2-19.6c-2.5-2.2-2.8-6.1-0.5-8.6
					c2.2-2.5,6.1-2.8,8.6-0.5c7.6,6.7,15.7,13,24,18.7c2.8,1.9,3.5,5.7,1.6,8.5c-1.3,1.9-3.5,2.8-5.7,2.6
					C1705.6,1176.6,1704.7,1176.2,1703.8,1175.7z M1655.9,1133.5c-7.1-7.9-13.7-16.4-19.8-25.1c-1.9-2.8-1.2-6.6,1.5-8.5
					c2.8-1.9,6.6-1.2,8.5,1.5c5.8,8.3,12.1,16.3,18.9,23.9c2.2,2.5,2,6.4-0.5,8.6c-1.3,1.2-3,1.7-4.7,1.5
					C1658.4,1135.4,1657,1134.7,1655.9,1133.5z M1619.5,1081.2c-5-9.4-9.4-19.2-13.2-29.1c-1.2-3.2,0.4-6.7,3.5-7.9
					c3.1-1.2,6.7,0.4,7.9,3.5c3.6,9.4,7.8,18.8,12.6,27.7c1.6,3,0.4,6.7-2.5,8.2c-1.1,0.6-2.3,0.8-3.5,0.7
					C1622.3,1084.2,1620.5,1083,1619.5,1081.2z"/>
				<path class="st80" d="M1973.7,1191c1.2,0.1,2.4-0.1,3.5-0.7c4.6-2.5,9.1-5.1,13.5-7.8c2.9-1.8,3.8-5.5,2-8.4
					c-1.8-2.9-5.5-3.8-8.4-2c-4.2,2.6-8.5,5.1-12.9,7.4c-3,1.6-4.1,5.3-2.5,8.3C1970,1189.7,1971.8,1190.8,1973.7,1191z"/>
			</g>
			<g>
				<path class="st80" d="M2008.5,1080.2c0.9-0.9,1.2-2.4,0.6-3.5l-16.5-33.8c9.3-14.9,16.2-31.4,20.3-49l35.5-12.2
					c1.2-0.4,2.1-1.6,2.1-2.9l0-45.1c0-1.3-0.8-2.5-2.1-2.9l-35.5-12.2c-4.1-17.6-11.1-34.1-20.3-49l16.5-33.8
					c0.6-1.2,0.3-2.6-0.6-3.5l-31.9-31.9c-0.9-0.9-2.4-1.2-3.5-0.6l-33.8,16.5c-14.9-9.3-31.4-16.2-49-20.3l-12.2-35.5
					c-0.4-1.2-1.6-2.1-2.9-2.1l-45.1,0c-1.3,0-2.5,0.8-2.9,2.1l-12.2,35.5c-17.6,4.1-34.1,11.1-49,20.3l-33.8-16.5
					c-1.2-0.6-2.6-0.3-3.5,0.6l-31.9,31.9c-0.9,0.9-1.2,2.4-0.6,3.5l16.5,33.8c-9.3,14.9-16.2,31.4-20.3,49l-35.5,12.2
					c-1.2,0.4-2.1,1.6-2.1,2.9l0,45.1c0,1.3,0.8,2.5,2.1,2.9l35.5,12.2c4.1,17.6,11.1,34.1,20.3,49l-16.5,33.8
					c-0.6,1.2-0.3,2.6,0.6,3.5l31.9,31.9c0.9,0.9,2.4,1.2,3.5,0.6l33.8-16.5c14.9,9.3,31.4,16.2,49,20.3l12.2,35.5
					c0.4,1.2,1.6,2.1,2.9,2.1l45.1,0c1.3,0,2.5-0.8,2.9-2.1l12.2-35.5c17.6-4.1,34.1-11.1,49-20.3l33.8,16.5
					c1.2,0.6,2.6,0.3,3.5-0.6L2008.5,1080.2z"/>
				
					<linearGradient id="SVGID_00000021078356752683239340000014853899896757126846_" gradientUnits="userSpaceOnUse" x1="1806.4001" y1="956.1732" x2="1898.6985" y2="956.1732">
					<stop  offset="0" style="stop-color:#DAE3FE"/>
					<stop  offset="1" style="stop-color:#E9EFFD"/>
				</linearGradient>
				<path style="fill:url(#SVGID_00000021078356752683239340000014853899896757126846_);" d="M1841.3,1000.9
					c-12-3-22-10.5-28.3-21.1c-6.3-10.6-8.1-23-5.1-34.9c6.2-24.7,31.3-39.6,56-33.4c24.7,6.2,39.7,31.4,33.4,56
					c-3,11.9-10.5,22-21.1,28.3c-8.6,5.1-18.4,7.3-28.2,6.3C1845.8,1001.9,1843.5,1001.5,1841.3,1000.9z M1819.7,947.9
					c-2.2,8.8-0.9,17.9,3.8,25.7c4.6,7.8,12,13.3,20.8,15.5l0,0c8.8,2.2,17.9,0.9,25.7-3.8c7.8-4.6,13.3-12,15.5-20.8
					c4.6-18.1-6.5-36.6-24.6-41.2c-1.6-0.4-3.3-0.7-4.9-0.9C1839.5,920.7,1823.8,931.4,1819.7,947.9z"/>
				
					<linearGradient id="SVGID_00000003089585719580487330000011930315088860208275_" gradientUnits="userSpaceOnUse" x1="1737.0364" y1="955.4312" x2="1966.8387" y2="955.4312">
					<stop  offset="0" style="stop-color:#DAE3FE"/>
					<stop  offset="1" style="stop-color:#E9EFFD"/>
				</linearGradient>
				<path style="fill:url(#SVGID_00000003089585719580487330000011930315088860208275_);" d="M1840.3,1069.7
					c3.8,0.4,7.7,0.6,11.7,0.6c7.8,0,15.7-0.8,23.3-2.4c0.3-0.1,0.7-0.1,1-0.2c2.7-0.6,4.5-2.8,4.8-5.3c0.1-0.6,0-1.3-0.1-1.9
					c-0.7-3.3-4-5.4-7.2-4.7c-7.1,1.5-14.4,2.3-21.7,2.3l0,0c-0.4,0-0.8,0-1.2,0c-17.3-0.2-33.9-4.6-48.6-12.8
					c-8-4.4-15.4-10-22.1-16.6c-0.1-0.1-0.1-0.1-0.2-0.2c-0.2-0.2-0.3-0.3-0.5-0.5c-19.4-19.4-30.1-45.2-30.1-72.6
					c0-3.6,0.2-7.1,0.5-10.6c2.4-23.4,12.7-45.2,29.5-62.1c19.4-19.4,45.2-30.1,72.6-30.1c27.4,0,53.2,10.7,72.6,30.1
					c19.4,19.4,30.1,45.2,30.1,72.6c0,3.5-0.2,7-0.5,10.4c-1.5,15-6.3,29.4-14,42.3c-0.5,0.8-0.8,1.7-0.8,2.5
					c-0.2,2.3,0.8,4.6,2.9,5.8c2.9,1.7,6.6,0.8,8.4-2.1c8.7-14.4,14-30.6,15.7-47.3c0.4-3.9,0.6-7.8,0.6-11.7
					c0-30.7-12-59.5-33.7-81.2c-21.7-21.7-50.5-33.7-81.2-33.6c-30.7,0-59.5,12-81.2,33.7c-18.9,18.9-30.4,43.2-33.1,69.4
					c-0.4,3.9-0.6,7.8-0.6,11.8C1737,1014.9,1782.4,1063.9,1840.3,1069.7z"/>
			</g>
		</g>
	</g>
</g>
</svg>
