<svg id="Illustration" xmlns="http://www.w3.org/2000/svg" xmlns:xlink="http://www.w3.org/1999/xlink" viewBox="0 0 2417.98 1609.35"><defs><style>.cls-1{fill:none;}.cls-2{fill:url(#linear-gradient);}.cls-3,.cls-4,.cls-5{fill:#91b3fa;}.cls-3{opacity:0.6;}.cls-4{opacity:0.53;}.cls-6{fill:#dce5fe;}.cls-7{fill:url(#linear-gradient-2);}.cls-8{fill:url(#linear-gradient-3);}.cls-9{fill:url(#linear-gradient-4);}.cls-10{fill:#bdd0fb;}.cls-11{fill:url(#linear-gradient-5);}.cls-12{fill:url(#linear-gradient-6);}.cls-13{fill:url(#linear-gradient-7);}.cls-129,.cls-14,.cls-68{fill:#fff;}.cls-14{opacity:0.65;}.cls-15{fill:url(#linear-gradient-8);}.cls-16{fill:url(#linear-gradient-9);}.cls-17{fill:url(#linear-gradient-10);}.cls-18{fill:url(#linear-gradient-11);}.cls-19{fill:url(#linear-gradient-12);}.cls-20{fill:url(#linear-gradient-13);}.cls-21{fill:url(#linear-gradient-14);}.cls-22{fill:url(#linear-gradient-15);}.cls-23{fill:url(#linear-gradient-16);}.cls-24{fill:url(#linear-gradient-17);}.cls-25{fill:#7d97f4;}.cls-26{fill:url(#linear-gradient-18);}.cls-27{fill:url(#linear-gradient-19);}.cls-28{fill:url(#linear-gradient-20);}.cls-29{fill:url(#linear-gradient-21);}.cls-30{fill:url(#linear-gradient-22);}.cls-31{fill:url(#linear-gradient-23);}.cls-32{fill:url(#linear-gradient-24);}.cls-33{fill:url(#linear-gradient-25);}.cls-34{fill:url(#linear-gradient-26);}.cls-35{fill:url(#linear-gradient-27);}.cls-36{fill:url(#linear-gradient-28);}.cls-37{fill:url(#linear-gradient-29);}.cls-38{fill:url(#linear-gradient-30);}.cls-39{fill:url(#linear-gradient-31);}.cls-40{fill:url(#linear-gradient-32);}.cls-41{fill:url(#linear-gradient-33);}.cls-42{fill:url(#linear-gradient-34);}.cls-43{fill:url(#linear-gradient-35);}.cls-44{fill:url(#linear-gradient-36);}.cls-45{fill:url(#linear-gradient-37);}.cls-46{fill:url(#linear-gradient-38);}.cls-47{fill:url(#linear-gradient-39);}.cls-48{fill:url(#linear-gradient-40);}.cls-49{fill:url(#linear-gradient-41);}.cls-50{fill:url(#linear-gradient-42);}.cls-51{fill:url(#linear-gradient-43);}.cls-52{fill:url(#linear-gradient-44);}.cls-53{fill:url(#linear-gradient-45);}.cls-54{fill:url(#linear-gradient-46);}.cls-55{fill:url(#linear-gradient-47);}.cls-56{fill:url(#linear-gradient-48);}.cls-57{fill:url(#linear-gradient-49);}.cls-58{fill:url(#linear-gradient-50);}.cls-59{fill:url(#linear-gradient-51);}.cls-60{fill:url(#linear-gradient-52);}.cls-61{fill:url(#linear-gradient-53);}.cls-62{fill:url(#linear-gradient-54);}.cls-63{fill:url(#linear-gradient-55);}.cls-64{fill:url(#linear-gradient-56);}.cls-65{fill:url(#linear-gradient-57);}.cls-66{fill:url(#linear-gradient-58);}.cls-129,.cls-67{opacity:0.66;}.cls-69{fill:url(#linear-gradient-59);}.cls-70{fill:url(#linear-gradient-60);}.cls-71{fill:url(#linear-gradient-61);}.cls-72{fill:url(#linear-gradient-62);}.cls-73{fill:url(#linear-gradient-63);}.cls-74{fill:url(#linear-gradient-64);}.cls-75{fill:url(#linear-gradient-65);}.cls-76{fill:url(#linear-gradient-66);}.cls-77{fill:url(#linear-gradient-67);}.cls-78{fill:url(#linear-gradient-68);}.cls-79{fill:url(#linear-gradient-69);}.cls-80{fill:url(#linear-gradient-70);}.cls-81{fill:url(#linear-gradient-71);}.cls-82{fill:url(#linear-gradient-72);}.cls-83{fill:url(#linear-gradient-73);}.cls-84{fill:url(#linear-gradient-74);}.cls-85{fill:url(#linear-gradient-75);}.cls-86{fill:url(#linear-gradient-76);}.cls-87{fill:url(#linear-gradient-77);}.cls-88{fill:url(#linear-gradient-78);}.cls-89{fill:url(#linear-gradient-79);}.cls-90{fill:url(#linear-gradient-80);}.cls-91{fill:url(#linear-gradient-81);}.cls-92{fill:url(#linear-gradient-82);}.cls-93{fill:url(#linear-gradient-83);}.cls-94{fill:url(#linear-gradient-84);}.cls-95{fill:url(#linear-gradient-85);}.cls-96{fill:url(#linear-gradient-86);}.cls-97{fill:url(#linear-gradient-87);}.cls-98{fill:url(#linear-gradient-88);}.cls-99{fill:url(#linear-gradient-89);}.cls-100{fill:url(#linear-gradient-90);}.cls-101{fill:url(#linear-gradient-91);}.cls-102{fill:url(#linear-gradient-92);}.cls-103{fill:url(#linear-gradient-93);}.cls-104{fill:url(#linear-gradient-94);}.cls-105{fill:url(#linear-gradient-95);}.cls-106{fill:url(#linear-gradient-96);}.cls-107{fill:url(#linear-gradient-97);}.cls-108{fill:url(#linear-gradient-98);}.cls-109{fill:url(#linear-gradient-99);}.cls-110{fill:url(#linear-gradient-100);}.cls-111{fill:url(#linear-gradient-101);}.cls-112{fill:url(#linear-gradient-102);}.cls-113{fill:url(#linear-gradient-103);}.cls-114{fill:url(#linear-gradient-104);}.cls-115{fill:url(#linear-gradient-105);}.cls-116{fill:url(#linear-gradient-106);}.cls-117{fill:url(#linear-gradient-107);}.cls-118{fill:url(#linear-gradient-108);}.cls-119{fill:url(#linear-gradient-109);}.cls-120{fill:url(#linear-gradient-110);}.cls-121{fill:url(#linear-gradient-111);}.cls-122{fill:url(#linear-gradient-112);}.cls-123{fill:url(#linear-gradient-113);}.cls-124{clip-path:url(#clip-path);}.cls-125{fill:url(#linear-gradient-114);}.cls-126{fill:url(#linear-gradient-115);}.cls-127{fill:url(#linear-gradient-116);}.cls-128{fill:url(#linear-gradient-117);}.cls-130{fill:url(#linear-gradient-118);}.cls-131{fill:url(#linear-gradient-119);}.cls-132{fill:url(#linear-gradient-120);}.cls-133{fill:url(#linear-gradient-121);}.cls-134{fill:url(#linear-gradient-122);}.cls-135{fill:url(#linear-gradient-123);}.cls-136{fill:url(#linear-gradient-124);}.cls-137{fill:url(#linear-gradient-125);}.cls-138{fill:url(#linear-gradient-126);}</style><linearGradient id="linear-gradient" x1="32" y1="815.9" x2="2449.98" y2="815.9" gradientUnits="userSpaceOnUse"><stop offset="0" stop-color="#dae3fe"/><stop offset="1" stop-color="#e9effd"/></linearGradient><linearGradient id="linear-gradient-2" x1="1308.94" y1="1243.77" x2="1182.8" y2="1741.54" gradientUnits="userSpaceOnUse"><stop offset="0" stop-color="#09005d"/><stop offset="1" stop-color="#1a0f91"/></linearGradient><linearGradient id="linear-gradient-3" x1="1282.71" y1="344.6" x2="1224.75" y2="1220.81" xlink:href="#linear-gradient-2"/><linearGradient id="linear-gradient-4" x1="630.51" y1="282.72" x2="2300.61" y2="1786.42" gradientUnits="userSpaceOnUse"><stop offset="0" stop-color="#4042e2"/><stop offset="1" stop-color="#4f52ff"/></linearGradient><linearGradient id="linear-gradient-5" x1="1282.81" y1="1064.19" x2="1282.81" y2="1551.73" xlink:href="#linear-gradient-2"/><linearGradient id="linear-gradient-6" x1="1198.51" y1="1446.53" x2="1338.11" y2="1284.49" gradientTransform="translate(2405.19 -237.66) rotate(81.32)" gradientUnits="userSpaceOnUse"><stop offset="0" stop-color="#e1473d"/><stop offset="1" stop-color="#e9605a"/></linearGradient><linearGradient id="linear-gradient-7" x1="1417" y1="1166.3" x2="1004.18" y2="1789.95" gradientTransform="translate(2279.79 -318.21) rotate(76.72)" gradientUnits="userSpaceOnUse"><stop offset="0" stop-color="#fe7062"/><stop offset="1" stop-color="#ff928e"/></linearGradient><linearGradient id="linear-gradient-8" x1="1404.68" y1="1184.17" x2="1184.87" y2="1553.2" gradientTransform="matrix(1, 0, 0, 1, 0, 0)" xlink:href="#linear-gradient-7"/><linearGradient id="linear-gradient-9" x1="1467.16" y1="1270.21" x2="1585.49" y2="1132.86" gradientTransform="translate(2449.02 -618.31) rotate(80.78)" xlink:href="#linear-gradient-6"/><linearGradient id="linear-gradient-10" x1="1652.36" y1="1032.68" x2="1302.45" y2="1561.29" gradientTransform="translate(2024.29 -769.39) rotate(67.5)" xlink:href="#linear-gradient-7"/><linearGradient id="linear-gradient-11" x1="1641.92" y1="1047.83" x2="1455.6" y2="1360.63" gradientTransform="matrix(1, 0, 0, 1, 0, 0)" xlink:href="#linear-gradient-7"/><linearGradient id="linear-gradient-12" x1="1091.17" y1="1279.92" x2="1175.05" y2="1182.55" gradientTransform="translate(2256.26 -89.53) rotate(85.27)" xlink:href="#linear-gradient-6"/><linearGradient id="linear-gradient-13" x1="1222.45" y1="1111.54" x2="974.41" y2="1486.26" gradientTransform="translate(2153.6 -170.08) rotate(80.78)" xlink:href="#linear-gradient-7"/><linearGradient id="linear-gradient-14" x1="1215.05" y1="1122.28" x2="1082.98" y2="1344.01" gradientTransform="matrix(1, 0, 0, 1, 0, 0)" xlink:href="#linear-gradient-7"/><linearGradient id="linear-gradient-15" x1="1478.74" y1="1429.84" x2="1554.92" y2="1341.4" gradientTransform="translate(2824.17 -275.95) rotate(87.4)" xlink:href="#linear-gradient-6"/><linearGradient id="linear-gradient-16" x1="1597.97" y1="1276.91" x2="1372.69" y2="1617.25" gradientTransform="translate(2695.87 -368.86) rotate(82.98)" xlink:href="#linear-gradient-7"/><linearGradient id="linear-gradient-17" x1="1591.25" y1="1286.66" x2="1471.29" y2="1488.05" gradientTransform="matrix(1, 0, 0, 1, 0, 0)" xlink:href="#linear-gradient-7"/><linearGradient id="linear-gradient-18" x1="-657.42" y1="1310.44" x2="-664.37" y2="1361.74" gradientTransform="matrix(-1, 0, 0, 1, 1550.75, 0)" xlink:href="#linear-gradient-2"/><linearGradient id="linear-gradient-19" x1="-660.04" y1="1349.16" x2="-676.13" y2="1451.33" gradientTransform="matrix(-1, 0, 0, 1, 1550.75, 0)" gradientUnits="userSpaceOnUse"><stop offset="0" stop-color="#020039"/><stop offset="1" stop-color="#090056"/></linearGradient><linearGradient id="linear-gradient-20" x1="-688.01" y1="1320.09" x2="-667.36" y2="1320.09" gradientTransform="matrix(-1, 0, 0, 1, 1550.75, 0)" gradientUnits="userSpaceOnUse"><stop offset="0" stop-color="#ff928e"/><stop offset="1" stop-color="#feb3b1"/></linearGradient><linearGradient id="linear-gradient-21" x1="-599.52" y1="1247.46" x2="-647.26" y2="1287.39" xlink:href="#linear-gradient-19"/><linearGradient id="linear-gradient-22" x1="-615.43" y1="1237.4" x2="-561.62" y2="1237.4" gradientTransform="matrix(-1, 0, 0, 1, 1550.75, 0)" xlink:href="#linear-gradient-2"/><linearGradient id="linear-gradient-23" x1="-601.69" y1="1205.16" x2="-572.67" y2="1205.16" xlink:href="#linear-gradient-20"/><linearGradient id="linear-gradient-24" x1="-539.1" y1="1073.11" x2="-750.85" y2="1260.95" gradientTransform="matrix(-1, 0, 0, 1, 1550.75, 0)" xlink:href="#linear-gradient-4"/><linearGradient id="linear-gradient-25" x1="-664.45" y1="1173.99" x2="-625.61" y2="1091.09" gradientTransform="matrix(-1, 0, 0, 1, 1550.75, 0)" xlink:href="#linear-gradient-2"/><linearGradient id="linear-gradient-26" x1="-495.18" y1="1048.63" x2="-452.8" y2="1048.63" xlink:href="#linear-gradient-20"/><linearGradient id="linear-gradient-27" x1="-407.57" y1="1137.62" x2="-602.36" y2="859.35" gradientTransform="matrix(-1, 0, 0, 1, 1550.75, 0)" xlink:href="#linear-gradient-7"/><linearGradient id="linear-gradient-28" x1="2089.99" y1="793.02" x2="2116.51" y2="894.54" gradientTransform="matrix(1, 0, 0, 1, 0, 0)" xlink:href="#linear-gradient-20"/><linearGradient id="linear-gradient-29" x1="2109.98" y1="779.84" x2="2066.8" y2="838.18" gradientTransform="matrix(1, 0, 0, 1, 0, 0)" xlink:href="#linear-gradient-20"/><linearGradient id="linear-gradient-30" x1="-565.35" y1="765.74" x2="-508.29" y2="839.2" gradientTransform="matrix(-1, 0, 0, 1, 1550.75, 0)" xlink:href="#linear-gradient-2"/><linearGradient id="linear-gradient-31" x1="2127.55" y1="792.85" x2="2084.37" y2="851.18" gradientTransform="matrix(1, 0, 0, 1, 0, 0)" xlink:href="#linear-gradient-20"/><linearGradient id="linear-gradient-32" x1="-578.32" y1="832" x2="-265.7" y2="1347.16" gradientTransform="matrix(-1, 0, 0, 1, 1550.75, 0)" xlink:href="#linear-gradient-7"/><linearGradient id="linear-gradient-33" x1="-536.67" y1="909.48" x2="-541.02" y2="980.58" gradientTransform="matrix(-1, 0, 0, 1, 1550.75, 0)" gradientUnits="userSpaceOnUse"><stop offset="0" stop-color="#cb236d"/><stop offset="1" stop-color="#4c246d"/></linearGradient><linearGradient id="linear-gradient-34" x1="1530.87" y1="-3776.28" x2="1437.34" y2="-3669.4" gradientTransform="translate(4015.75 306.54) rotate(-2.09)" xlink:href="#linear-gradient-20"/><linearGradient id="linear-gradient-35" x1="1315.57" y1="94.99" x2="1112.33" y2="485.73" gradientTransform="translate(521.81 -819.87) rotate(45)" xlink:href="#linear-gradient-4"/><linearGradient id="linear-gradient-36" x1="1347.41" y1="73.66" x2="821.89" y2="867.57" gradientTransform="translate(521.81 -819.87) rotate(45)" xlink:href="#linear-gradient-4"/><linearGradient id="linear-gradient-37" x1="1253.05" y1="198.3" x2="1284.68" y2="451.34" xlink:href="#linear-gradient-4"/><linearGradient id="linear-gradient-38" x1="1243.18" y1="199.54" x2="1274.81" y2="452.57" xlink:href="#linear-gradient-4"/><linearGradient id="linear-gradient-39" x1="1613.72" y1="236.03" x2="1484.05" y2="485.33" gradientTransform="translate(1563.68 -1287.87) rotate(78.34)" xlink:href="#linear-gradient-4"/><linearGradient id="linear-gradient-40" x1="1634.04" y1="222.42" x2="1298.74" y2="728.95" gradientTransform="translate(683.77 -1019.27) rotate(45)" xlink:href="#linear-gradient-4"/><linearGradient id="linear-gradient-41" x1="1573.84" y1="301.94" x2="1594.02" y2="463.39" xlink:href="#linear-gradient-4"/><linearGradient id="linear-gradient-42" x1="1567.54" y1="302.73" x2="1587.72" y2="464.17" xlink:href="#linear-gradient-4"/><linearGradient id="linear-gradient-43" x1="970.36" y1="225.33" x2="840.69" y2="474.63" gradientTransform="translate(487.77 -567.48) rotate(45)" xlink:href="#linear-gradient-4"/><linearGradient id="linear-gradient-44" x1="990.68" y1="211.72" x2="655.38" y2="718.25" gradientTransform="translate(487.77 -567.48) rotate(45)" xlink:href="#linear-gradient-4"/><linearGradient id="linear-gradient-45" x1="930.48" y1="291.24" x2="950.66" y2="452.68" xlink:href="#linear-gradient-4"/><linearGradient id="linear-gradient-46" x1="924.18" y1="292.03" x2="944.36" y2="453.47" xlink:href="#linear-gradient-4"/><linearGradient id="linear-gradient-47" x1="1032.37" y1="22.81" x2="902.71" y2="272.11" gradientTransform="translate(937.05 -892.21) rotate(80.99)" xlink:href="#linear-gradient-4"/><linearGradient id="linear-gradient-48" x1="1052.69" y1="9.2" x2="717.39" y2="515.74" gradientTransform="translate(362.73 -670.64) rotate(45)" xlink:href="#linear-gradient-4"/><linearGradient id="linear-gradient-49" x1="992.49" y1="88.73" x2="1012.67" y2="250.17" xlink:href="#linear-gradient-4"/><linearGradient id="linear-gradient-50" x1="986.19" y1="89.51" x2="1006.37" y2="250.96" xlink:href="#linear-gradient-4"/><linearGradient id="linear-gradient-51" x1="1551.71" y1="31.55" x2="1422.04" y2="280.86" gradientTransform="translate(1383.72 -1397.77) rotate(80.99)" xlink:href="#linear-gradient-4"/><linearGradient id="linear-gradient-52" x1="1572.03" y1="17.94" x2="1236.73" y2="524.48" gradientTransform="translate(521.03 -1035.31) rotate(45)" xlink:href="#linear-gradient-4"/><linearGradient id="linear-gradient-53" x1="1511.83" y1="97.47" x2="1532.01" y2="258.91" xlink:href="#linear-gradient-4"/><linearGradient id="linear-gradient-54" x1="1505.53" y1="98.25" x2="1525.71" y2="259.7" xlink:href="#linear-gradient-4"/><linearGradient id="linear-gradient-55" x1="1018.31" y1="1006.12" x2="1141.18" y2="312.64" gradientTransform="matrix(1, 0, 0, 1, 0, 0)" xlink:href="#linear-gradient-7"/><linearGradient id="linear-gradient-56" x1="1152.08" y1="61.85" x2="1114.37" y2="418.64" gradientTransform="matrix(1, 0, 0, 1, 0, 0)" xlink:href="#linear-gradient-6"/><linearGradient id="linear-gradient-57" x1="1121.56" y1="914.68" x2="979.45" y2="1432.95" gradientTransform="matrix(1, 0, 0, 1, 0, 0)" xlink:href="#linear-gradient-7"/><linearGradient id="linear-gradient-58" x1="1918.84" y1="876.61" x2="1853.02" y2="1334.45" gradientTransform="matrix(1, 0, 0, 1, 0, 0)" xlink:href="#linear-gradient-6"/><linearGradient id="linear-gradient-59" x1="1839.89" y1="68.83" x2="1686.08" y2="364.55" gradientTransform="translate(640.03 -1218.36) rotate(45)" xlink:href="#linear-gradient-4"/><linearGradient id="linear-gradient-60" x1="1831.99" y1="34.69" x2="1434.27" y2="635.54" xlink:href="#linear-gradient-4"/><linearGradient id="linear-gradient-61" x1="1792.58" y1="147.02" x2="1816.52" y2="338.52" xlink:href="#linear-gradient-4"/><linearGradient id="linear-gradient-62" x1="1785.11" y1="147.95" x2="1809.05" y2="339.46" xlink:href="#linear-gradient-4"/><linearGradient id="linear-gradient-63" x1="759.63" y1="81.05" x2="605.82" y2="376.77" gradientTransform="translate(827.72 -546.75) rotate(85.34)" xlink:href="#linear-gradient-4"/><linearGradient id="linear-gradient-64" x1="783.73" y1="64.9" x2="386" y2="665.75" gradientTransform="translate(332.26 -450.92) rotate(45)" xlink:href="#linear-gradient-4"/><linearGradient id="linear-gradient-65" x1="712.32" y1="159.23" x2="736.26" y2="350.74" xlink:href="#linear-gradient-4"/><linearGradient id="linear-gradient-66" x1="704.85" y1="160.17" x2="728.79" y2="351.67" xlink:href="#linear-gradient-4"/><linearGradient id="linear-gradient-67" x1="-736.5" y1="899.76" x2="-783.59" y2="1044.1" gradientTransform="translate(2215.07 -61.51) rotate(-21.59)" xlink:href="#linear-gradient-20"/><linearGradient id="linear-gradient-68" x1="2709.21" y1="1169.8" x2="2879.96" y2="971.6" gradientTransform="translate(2438.5 -2003.92) rotate(83.76)" xlink:href="#linear-gradient-6"/><linearGradient id="linear-gradient-69" x1="2976.44" y1="827.05" x2="2471.53" y2="1589.83" gradientTransform="translate(435.46 -1755.47) rotate(45)" xlink:href="#linear-gradient-7"/><linearGradient id="linear-gradient-70" x1="2961.38" y1="848.91" x2="2692.52" y2="1300.27" gradientTransform="translate(-1093.27)" xlink:href="#linear-gradient-7"/><linearGradient id="linear-gradient-71" x1="1168.01" y1="1514.97" x2="1258.14" y2="1514.97" gradientTransform="translate(738.16)" xlink:href="#linear-gradient-20"/><linearGradient id="linear-gradient-72" x1="1291.9" y1="1313.41" x2="1247.26" y2="1603.54" gradientTransform="translate(738.16)" xlink:href="#linear-gradient-4"/><linearGradient id="linear-gradient-73" x1="1197.45" y1="1298.88" x2="1152.82" y2="1589.01" gradientTransform="translate(738.16)" xlink:href="#linear-gradient-4"/><linearGradient id="linear-gradient-74" x1="1113.32" y1="1521.67" x2="1165.51" y2="1521.67" gradientTransform="translate(738.16)" xlink:href="#linear-gradient-20"/><linearGradient id="linear-gradient-75" x1="1902.61" y1="1290.67" x2="1771.55" y2="1108.1" gradientTransform="matrix(1, 0, 0, 1, 0, 0)" xlink:href="#linear-gradient-20"/><linearGradient id="linear-gradient-76" x1="-1375.04" y1="1086.57" x2="-1293.3" y2="1603.51" gradientTransform="matrix(-1, 0, 0, 1, 514.94, 0)" xlink:href="#linear-gradient-7"/><linearGradient id="linear-gradient-77" x1="1891.75" y1="1304.11" x2="1892.5" y2="1522.28" gradientTransform="matrix(1, 0, 0, 1, 0, 0)" xlink:href="#linear-gradient-19"/><linearGradient id="linear-gradient-78" x1="1129.14" y1="1180.25" x2="1161.08" y2="1180.25" gradientTransform="translate(738.16)" xlink:href="#linear-gradient-20"/><linearGradient id="linear-gradient-79" x1="1179.9" y1="1138.97" x2="1412.38" y2="1154.78" gradientTransform="translate(738.16)" xlink:href="#linear-gradient-20"/><linearGradient id="linear-gradient-80" x1="-3815.67" y1="1006.99" x2="-3778.67" y2="1099.8" gradientTransform="matrix(-1, 0, 0, 1, -3075.51, 0)" xlink:href="#linear-gradient-19"/><linearGradient id="linear-gradient-81" x1="-3892.01" y1="1060.61" x2="-3823.65" y2="1216.14" gradientTransform="matrix(-1, 0, 0, 1, -3075.51, 0)" xlink:href="#linear-gradient-20"/><linearGradient id="linear-gradient-82" x1="573.54" y1="1601.18" x2="604.91" y2="1601.18" xlink:href="#linear-gradient-4"/><linearGradient id="linear-gradient-83" x1="-3812.99" y1="1724.9" x2="-3767.84" y2="1197.22" gradientTransform="matrix(-1, 0, 0, 1, -3075.51, 0)" xlink:href="#linear-gradient-20"/><linearGradient id="linear-gradient-84" x1="699.91" y1="1595.45" x2="750.67" y2="1595.45" xlink:href="#linear-gradient-4"/><linearGradient id="linear-gradient-85" x1="-3722.17" y1="1732.75" x2="-3677.01" y2="1204.93" gradientTransform="matrix(-1, 0, 0, 1, -3075.51, 0)" xlink:href="#linear-gradient-20"/><linearGradient id="linear-gradient-86" x1="-3811.88" y1="1192.77" x2="-3789.3" y2="1402.22" gradientTransform="matrix(-1, 0, 0, 1, -3075.51, 0)" xlink:href="#linear-gradient-7"/><linearGradient id="linear-gradient-87" x1="-3687.52" y1="1203.05" x2="-3800.4" y2="1383.66" gradientTransform="matrix(-1, 0, 0, 1, -3075.51, 0)" xlink:href="#linear-gradient-4"/><linearGradient id="linear-gradient-88" x1="738.33" y1="1098.47" x2="717.87" y2="1210.58" gradientTransform="matrix(1, 0, 0, 1, 0, 0)" xlink:href="#linear-gradient-20"/><linearGradient id="linear-gradient-89" x1="-3782.99" y1="1235" x2="-3726.65" y2="1235" gradientTransform="matrix(-1, 0, 0, 1, -3075.51, 0)" xlink:href="#linear-gradient-20"/><linearGradient id="linear-gradient-90" x1="724.93" y1="1048.81" x2="752.2" y2="1109.41" gradientTransform="matrix(1, 0, 0, 1, 0, 0)" xlink:href="#linear-gradient-20"/><linearGradient id="linear-gradient-91" x1="-3823.44" y1="1010.09" x2="-3786.44" y2="1102.9" gradientTransform="matrix(-1, 0, 0, 1, -3075.51, 0)" xlink:href="#linear-gradient-19"/><linearGradient id="linear-gradient-92" x1="707.88" y1="1056.48" x2="735.15" y2="1117.09" gradientTransform="matrix(1, 0, 0, 1, 0, 0)" xlink:href="#linear-gradient-20"/><linearGradient id="linear-gradient-93" x1="-3905.51" y1="1066.55" x2="-3837.16" y2="1222.07" gradientTransform="matrix(-1, 0, 0, 1, -3075.51, 0)" xlink:href="#linear-gradient-20"/><linearGradient id="linear-gradient-94" x1="888.27" y1="1202.06" x2="861" y2="1043.73" gradientTransform="matrix(1, 0, 0, 1, 0, 0)" xlink:href="#linear-gradient-20"/><linearGradient id="linear-gradient-95" x1="-713.06" y1="4113.18" x2="-783.6" y2="4267.97" gradientTransform="translate(2372.04 -2541.55) rotate(18.61)" xlink:href="#linear-gradient-4"/><linearGradient id="linear-gradient-96" x1="249.52" y1="1589.62" x2="294.51" y2="1589.62" xlink:href="#linear-gradient-4"/><linearGradient id="linear-gradient-97" x1="262.03" y1="1538.39" x2="253.44" y2="1613.41" gradientTransform="matrix(1, 0, 0, 1, 0, 0)" xlink:href="#linear-gradient-20"/><linearGradient id="linear-gradient-98" x1="318.04" y1="1590.82" x2="382.81" y2="1590.82" xlink:href="#linear-gradient-4"/><linearGradient id="linear-gradient-99" x1="332.04" y1="1546.42" x2="323.45" y2="1621.43" gradientTransform="matrix(1, 0, 0, 1, 0, 0)" xlink:href="#linear-gradient-20"/><linearGradient id="linear-gradient-100" x1="434.17" y1="1203.4" x2="159.27" y2="1629.97" xlink:href="#linear-gradient-2"/><linearGradient id="linear-gradient-101" x1="334.79" y1="1033.52" x2="92.57" y2="1565.05" xlink:href="#linear-gradient-4"/><linearGradient id="linear-gradient-102" x1="275.92" y1="1069.26" x2="275.92" y2="1181.75" gradientTransform="matrix(1, 0, 0, 1, 0, 0)" xlink:href="#linear-gradient-20"/><linearGradient id="linear-gradient-103" x1="314.01" y1="1016.15" x2="262.88" y2="1076.38" gradientTransform="matrix(1, 0, 0, 1, 0, 0)" xlink:href="#linear-gradient-20"/><linearGradient id="linear-gradient-104" x1="-3856.5" y1="-454.22" x2="-3786.95" y2="-454.22" gradientTransform="matrix(0.64, -0.77, 0.77, 0.64, 3088.85, -1585.07)" xlink:href="#linear-gradient-2"/><linearGradient id="linear-gradient-105" x1="307.04" y1="1011.59" x2="262.73" y2="1069.55" gradientTransform="matrix(1, 0, 0, 1, 0, 0)" xlink:href="#linear-gradient-20"/><linearGradient id="linear-gradient-106" x1="253.38" y1="1085.59" x2="185.45" y2="1210.4" xlink:href="#linear-gradient-2"/><linearGradient id="linear-gradient-107" x1="280" y1="1317.94" x2="256.95" y2="1358.97" xlink:href="#linear-gradient-4"/><linearGradient id="linear-gradient-108" x1="189.18" y1="1281.21" x2="262.58" y2="1281.21" gradientTransform="matrix(1, 0, 0, 1, 0, 0)" xlink:href="#linear-gradient-20"/><linearGradient id="linear-gradient-109" x1="354.22" y1="4153.52" x2="400.82" y2="4153.52" gradientTransform="translate(3914.95 -1064.07) rotate(62.79)" xlink:href="#linear-gradient-20"/><linearGradient id="linear-gradient-110" x1="-1111.66" y1="1554.77" x2="-1051.62" y2="1474.23" gradientTransform="translate(734.75 -688.88) rotate(-25.35)" xlink:href="#linear-gradient-2"/><linearGradient id="linear-gradient-111" x1="488.58" y1="955.33" x2="351.08" y2="1141.69" gradientTransform="matrix(1, 0, 0, 1, 0, 0)" xlink:href="#linear-gradient-7"/><linearGradient id="linear-gradient-112" x1="-804.35" y1="1384.92" x2="-915.65" y2="1431.29" gradientTransform="translate(1430.7 -441.61)" xlink:href="#linear-gradient-6"/><linearGradient id="linear-gradient-113" x1="-916.49" y1="1425.26" x2="-872.33" y2="1421.24" gradientTransform="translate(734.75 -688.88) rotate(-25.35)" xlink:href="#linear-gradient-7"/><clipPath id="clip-path" transform="translate(-32 -18)"><path class="cls-1" d="M566.85,1051.09c-2-.74-7.56-4.7-16.71-17.39-8.83-12.27-18.45-29.05-27.07-47.25s-15.52-36.28-19.41-50.89c-4-15.11-3.59-21.9-2.88-23.95,2,.75,7.57,4.71,16.71,17.4,8.84,12.26,36.61,20.45,45.23,38.65s-2.64,44.88,1.25,59.49C568,1042.26,567.56,1049.05,566.85,1051.09Z"/></clipPath><linearGradient id="linear-gradient-114" x1="-860.77" y1="1420.73" x2="-979.87" y2="1427.56" gradientTransform="translate(734.75 -688.88) rotate(-25.35)" xlink:href="#linear-gradient-2"/><linearGradient id="linear-gradient-115" x1="-1086.37" y1="1463.03" x2="-1090.76" y2="1352.48" gradientTransform="translate(734.75 -688.88) rotate(-25.35)" xlink:href="#linear-gradient-2"/><linearGradient id="linear-gradient-116" x1="340.26" y1="1053.38" x2="370.81" y2="1053.38" xlink:href="#linear-gradient"/><linearGradient id="linear-gradient-117" x1="343.25" y1="1065.38" x2="373.79" y2="1065.38" xlink:href="#linear-gradient"/><linearGradient id="linear-gradient-118" x1="351.53" y1="1077.16" x2="382.07" y2="1077.16" xlink:href="#linear-gradient"/><linearGradient id="linear-gradient-119" x1="360.59" y1="1090.3" x2="391.13" y2="1090.3" xlink:href="#linear-gradient"/><linearGradient id="linear-gradient-120" x1="387.69" y1="1136.25" x2="457.31" y2="1136.25" xlink:href="#linear-gradient"/><linearGradient id="linear-gradient-121" x1="377.17" y1="1109.91" x2="383.92" y2="1109.91" xlink:href="#linear-gradient"/><linearGradient id="linear-gradient-122" x1="516.16" y1="966.29" x2="549.87" y2="966.29" xlink:href="#linear-gradient"/><linearGradient id="linear-gradient-123" x1="417.11" y1="1123.17" x2="445.38" y2="1123.17" gradientTransform="matrix(1, 0, 0, 1, 0, 0)" xlink:href="#linear-gradient-20"/><linearGradient id="linear-gradient-124" x1="547.78" y1="923.08" x2="630.83" y2="923.08" xlink:href="#linear-gradient"/><linearGradient id="linear-gradient-125" x1="556.4" y1="988.45" x2="626.05" y2="988.45" xlink:href="#linear-gradient"/><linearGradient id="linear-gradient-126" x1="515.98" y1="870.76" x2="562.22" y2="870.76" xlink:href="#linear-gradient"/></defs><title>20943902 [Converted]</title><path class="cls-2" d="M2381.57,896.26c-41.92-45.44-91.5-89.76-104.43-151.47C2254.77,638,2350.43,547,2381.74,442.7c21.66-72.11,10.48-154.2-29.54-217.12s-108.09-105.36-180-112.27c-123.74-11.88-244.85,75.38-366.74,50.11-97.6-20.23-174.73-109.5-273.81-119.06C1415.05,33.1,1318.32,133.83,1207,171.75c-133.17,45.36-277.55-2.05-408.48-54.07S529.83,7.62,391.82,32.52C238.2,60.23,109.39,200.33,88.85,362.05,68.48,522.32,239.26,651,93.89,843.41,48.46,903.55,18.24,987.28,38.33,1061c19.51,71.64,102.55,116.94,103.15,191.43C142,1311.23,89,1358,84.71,1416.64c-3.66,50.33,30.93,96.86,73.43,120.71S250,1567,297.91,1572.44h0a10.68,10.68,0,0,0-1.93,11.12,10.86,10.86,0,0,0,9.16,6.71c234.48,20.46,470.33,15.56,705.62,10.64l1147-24c39.3-.82,79.55-1.83,116.16-16.78s69.45-47,75-87.68c9.5-69.29-59.71-129.43-53.32-199.1,8.17-89,127.89-123.3,150.67-209.45C2462.37,1003,2423.49,941.71,2381.57,896.26Z" transform="translate(-32 -18)"/><path class="cls-3" d="M2140,533.26h128.51a16,16,0,0,0,16-16h0a16,16,0,0,0-16-16H2140a16,16,0,0,0-16,16h0A16,16,0,0,0,2140,533.26Z" transform="translate(-32 -18)"/><path class="cls-3" d="M1874.38,592.43h413.07a16,16,0,0,0,16-16h0a16,16,0,0,0-16-16H1874.38a16,16,0,0,0-16,16h0A16,16,0,0,0,1874.38,592.43Z" transform="translate(-32 -18)"/><path class="cls-4" d="M1824.75,655h413.07a16,16,0,0,0,16-16h0a16,16,0,0,0-16-16H1824.75a16,16,0,0,0-16,16h0A16,16,0,0,0,1824.75,655Z" transform="translate(-32 -18)"/><path class="cls-4" d="M1942.21,780.26h295.61a16,16,0,0,0,16-16h0a16,16,0,0,0-16-16H1942.21a16,16,0,0,0-16,16h0A16,16,0,0,0,1942.21,780.26Z" transform="translate(-32 -18)"/><path class="cls-3" d="M1778.42,717.65h413.07a16,16,0,0,0,16-16h0a16,16,0,0,0-16-16H1778.42a16,16,0,0,0-16,16h0A16,16,0,0,0,1778.42,717.65Z" transform="translate(-32 -18)"/><path class="cls-5" d="M256,463.9H129.66a15.71,15.71,0,0,1-15.72-15.71h0a15.72,15.72,0,0,1,15.72-15.72H256a15.72,15.72,0,0,1,15.72,15.72h0A15.71,15.71,0,0,1,256,463.9Z" transform="translate(-32 -18)"/><path class="cls-5" d="M568.14,546.71H162A15.71,15.71,0,0,1,146.26,531h0A15.72,15.72,0,0,1,162,515.28H568.14A15.72,15.72,0,0,1,583.86,531h0A15.71,15.71,0,0,1,568.14,546.71Z" transform="translate(-32 -18)"/><path class="cls-5" d="M616.94,608.28H210.78a15.72,15.72,0,0,1-15.72-15.72h0a15.71,15.71,0,0,1,15.72-15.71H616.94a15.71,15.71,0,0,1,15.72,15.71h0A15.72,15.72,0,0,1,616.94,608.28Z" transform="translate(-32 -18)"/><path class="cls-5" d="M501.44,731.41H210.78a15.72,15.72,0,0,1-15.72-15.72h0A15.72,15.72,0,0,1,210.78,700H501.44a15.72,15.72,0,0,1,15.72,15.72h0A15.72,15.72,0,0,1,501.44,731.41Z" transform="translate(-32 -18)"/><path class="cls-5" d="M662.49,669.84H256.33a15.71,15.71,0,0,1-15.72-15.71h0a15.72,15.72,0,0,1,15.72-15.72H662.49a15.72,15.72,0,0,1,15.72,15.72h0A15.71,15.71,0,0,1,662.49,669.84Z" transform="translate(-32 -18)"/><path class="cls-5" d="M1736.49,1611s53.54-60.08,44.83-116.87-52.15-50-71.48-16.43-36.71,29-25.22-2.6,25.88-52.12,2.08-83.55-26.27-44.79-12.9-72.83,30.17-67.78-23-82-106.22,29.38-93.81,86.39,19.86,63.23,2.77,84.34-10,29.8-7.55,43.54-23.68,17-23.13-2.39,33.77-65.06,11.1-86.38-67.1-21.55-78.48,27.74,25.08,71.45,23.26,89.28-21.39-9.21-38.45,9,5.91,32.45,22.81,42.3,42.38,27.5,18.13,40.32-47.2.55-32.35,40.13Z" transform="translate(-32 -18)"/><path class="cls-6" d="M1626.42,1277.83a28.57,28.57,0,0,0-4.77,3,36.3,36.3,0,0,0-4.14,3.67,41.27,41.27,0,0,0-6.53,8.7,50,50,0,0,0-6.09,20.25c-.11.88-.15,1.76-.19,2.63s-.1,1.76-.08,2.64l0,2.63.14,2.62.08,1.31.15,1.31.29,2.61c.29,1.72.5,3.46.87,5.17s.7,3.43,1.16,5.12l.66,2.54.68,2.46,2.73,9.82c3.62,13.08,7.11,26.16,9.85,39.3s4.51,26.42,4.1,39.54a83.59,83.59,0,0,1-.82,9.76,65.59,65.59,0,0,1-2,9.53,57.22,57.22,0,0,1-3.46,9.07,63.85,63.85,0,0,0-3.8,10.13,146.76,146.76,0,0,0-3.74,20.42c-.8,6.79-1.42,13.56-1.91,20.31-1,13.5-1.93,27-4.11,40.23-.28,1.66-.57,3.31-.92,5s-.71,3.28-1.09,4.92-.85,3.25-1.27,4.88c-.24.81-.51,1.6-.76,2.41s-.5,1.61-.82,2.39l-.9,2.37c-.3.79-.68,1.55-1,2.32-.65,1.57-1.5,3.05-2.28,4.57a41.47,41.47,0,0,1-6.26,8.25l.6.54a43.89,43.89,0,0,0,7.16-8,60.38,60.38,0,0,0,5-9.26,106.78,106.78,0,0,0,6.26-19.72c3.08-13.38,4.54-26.93,6.2-40.36.84-6.71,1.59-13.42,2.62-20a142.4,142.4,0,0,1,4.22-19.49,62.36,62.36,0,0,1,3.6-9,62.51,62.51,0,0,0,4.06-10,71.54,71.54,0,0,0,2.4-10.36,92.57,92.57,0,0,0,1.09-10.45c.65-13.94-1.29-27.67-3.9-41.13a398.51,398.51,0,0,0-10.28-39.8c-1-3.27-2-6.54-3.1-9.79l-.79-2.44-.73-2.38c-.52-1.58-.91-3.18-1.33-4.77s-.74-3.21-1.11-4.81l-.42-2.42c-.15-.81-.28-1.62-.37-2.43a67.74,67.74,0,0,1-.66-9.74,50,50,0,0,1,.91-9.7,47.82,47.82,0,0,1,2.81-9.42,44.4,44.4,0,0,1,2.24-4.47,36,36,0,0,1,2.77-4.25,34.29,34.29,0,0,1,7.37-7.36Z" transform="translate(-32 -18)"/><path class="cls-6" d="M1740.4,1481.32a290.19,290.19,0,0,1-6.64,31.57c-1.4,5.2-2.93,10.37-4.63,15.48-.4,1.29-.88,2.55-1.32,3.82s-.91,2.54-1.38,3.81c-.91,2.54-1.93,5-2.93,7.55s-2.11,5-3.28,7.42-2.32,4.9-3.52,7.33c-2.52,4.82-5.18,9.57-8.13,14.18a133.39,133.39,0,0,1-21.12,25.71l.58.56a99.67,99.67,0,0,0,13.06-11.33,126,126,0,0,0,10.81-13.15,144.71,144.71,0,0,0,8.74-14.33c1.26-2.47,2.56-4.93,3.69-7.45s2.22-5.06,3.29-7.6,2-5.12,2.9-7.72c.47-1.28.9-2.58,1.31-3.89s.86-2.6,1.23-3.91c1.62-5.22,3-10.51,4.09-15.82a176,176,0,0,0,4.1-32.18Z" transform="translate(-32 -18)"/><path class="cls-5" d="M834.72,1611s-63.79-71.57-53.42-139.23,62.13-59.59,85.16-19.58,43.74,34.52,30-3.1-30.83-62.1-2.48-99.54,31.3-53.35,15.37-86.76-35.94-80.76,27.45-97.65,126.54,35,111.76,102.93-23.66,75.32-3.3,100.48,11.88,35.49,9,51.87,28.22,20.21,27.56-2.86-40.23-77.5-13.22-102.9,79.94-25.68,93.49,33.05-29.87,85.12-27.71,106.36,25.49-11,45.81,10.69-7,38.66-27.17,50.39-50.49,32.77-21.61,48,56.24.65,38.54,47.81Z" transform="translate(-32 -18)"/><path class="cls-6" d="M965.84,1214.08a34.25,34.25,0,0,1,5.69,3.55,42,42,0,0,1,4.93,4.38,49,49,0,0,1,7.78,10.36,59.79,59.79,0,0,1,7.26,24.13c.13,1,.17,2.09.23,3.13s.11,2.09.08,3.14l0,3.13-.17,3.13-.09,1.56-.17,1.55-.35,3.11c-.35,2.06-.6,4.13-1,6.17s-.83,4.09-1.39,6.1l-.77,3-.81,2.93-3.26,11.69c-4.31,15.59-8.47,31.17-11.74,46.82s-5.37,31.48-4.88,47.11a102.46,102.46,0,0,0,1,11.63,78.13,78.13,0,0,0,2.39,11.35,68,68,0,0,0,4.13,10.81,75.71,75.71,0,0,1,4.52,12.06,173.75,173.75,0,0,1,4.45,24.33c1,8.09,1.7,16.15,2.29,24.2,1.23,16.08,2.29,32.12,4.89,47.93.33,2,.68,3.94,1.09,5.9s.85,3.92,1.3,5.87,1,3.87,1.52,5.81c.28,1,.6,1.91.91,2.87s.59,1.92,1,2.85l1.07,2.82c.35,1,.81,1.85,1.21,2.77.77,1.87,1.79,3.63,2.72,5.44a49.79,49.79,0,0,0,7.46,9.83l-.72.64a52.24,52.24,0,0,1-8.53-9.58,71.51,71.51,0,0,1-6-11,127.46,127.46,0,0,1-7.47-23.49c-3.66-15.95-5.4-32.09-7.38-48.09-1-8-1.89-16-3.12-23.89a167.79,167.79,0,0,0-5-23.22,73.56,73.56,0,0,0-4.29-10.76,76.6,76.6,0,0,1-4.84-12,86.41,86.41,0,0,1-2.86-12.34,107,107,0,0,1-1.28-12.45c-.78-16.61,1.53-33,4.63-49A478,478,0,0,1,974.37,1303c1.21-3.89,2.43-7.79,3.68-11.66l1-2.91.87-2.83c.62-1.88,1.08-3.79,1.59-5.69s.87-3.82,1.32-5.73l.5-2.88c.17-1,.33-1.93.44-2.89a80.79,80.79,0,0,0,.78-11.61,59,59,0,0,0-1.08-11.56,57.08,57.08,0,0,0-3.35-11.22,51.75,51.75,0,0,0-2.66-5.32,44.38,44.38,0,0,0-3.31-5.06,40.57,40.57,0,0,0-8.78-8.77Z" transform="translate(-32 -18)"/><path class="cls-6" d="M830.06,1456.52a343.29,343.29,0,0,0,7.91,37.61q2.49,9.28,5.51,18.44c.48,1.53,1,3,1.57,4.55s1.09,3,1.65,4.53c1.08,3,2.3,6,3.48,9s2.52,5.93,3.91,8.85,2.77,5.83,4.2,8.73c3,5.73,6.17,11.39,9.69,16.89a159.48,159.48,0,0,0,25.16,30.63l-.69.67a119.7,119.7,0,0,1-15.56-13.5A148.54,148.54,0,0,1,864,1567.24a172.11,172.11,0,0,1-10.42-17.06c-1.49-3-3-5.88-4.39-8.88s-2.64-6-3.92-9.06-2.39-6.1-3.45-9.19c-.57-1.53-1.08-3.08-1.57-4.63s-1-3.1-1.46-4.67c-1.93-6.22-3.51-12.52-4.88-18.84a210.64,210.64,0,0,1-4.88-38.34Z" transform="translate(-32 -18)"/><polygon class="cls-7" points="1093.41 1227.13 1059.28 1533.29 1455.32 1533.29 1403.73 1227.13 1093.41 1227.13"/><path class="cls-8" d="M460.13,490.84V1192a106.35,106.35,0,0,0,103.63,106.33c256.1,6.61,1151.81,22.62,1395.6,19a78.28,78.28,0,0,0,77.06-76c4.7-162.89,12.33-554.59-15.92-736.44a80.55,80.55,0,0,0-77-68.17c-214.58-6.86-1164.1-28.66-1407.78-23.19A77.32,77.32,0,0,0,460.13,490.84Z" transform="translate(-32 -18)"/><path class="cls-9" d="M504.13,487.43v666.16a61.63,61.63,0,0,0,60.7,61.62L1924.29,1232a60,60,0,0,0,60.87-59.75l2.28-660.2a43.87,43.87,0,0,0-42.8-44L552.81,439.92A47.52,47.52,0,0,0,504.13,487.43Z" transform="translate(-32 -18)"/><path class="cls-10" d="M1995.4,1259.5h0L504.09,1234.1a2.09,2.09,0,0,1,0-4.18h0l1491.27,25.41a2.09,2.09,0,0,1,0,4.17Z" transform="translate(-32 -18)"/><path class="cls-11" d="M1572.63,1613.92H993c-15.75,0-27.57-11.21-24.53-23.25l7.44-29.41c2.24-8.85,12-15.34,23.53-15.7l558.79-17.44c12.08-.38,22.77,6,25.4,15.23L1597,1590.2C1600.51,1602.37,1588.63,1613.92,1572.63,1613.92Z" transform="translate(-32 -18)"/><path class="cls-10" d="M1305,1553.72a2.09,2.09,0,0,1,0-4.17l24-.35a2.1,2.1,0,0,1,2.11,2.06,2.07,2.07,0,0,1-2,2.11l-24,.35Z" transform="translate(-32 -18)"/><path class="cls-10" d="M989.92,1597.91l-.33,0a2.08,2.08,0,0,1-1.73-2.39l3.42-21.39a24.06,24.06,0,0,1,23.45-20.31l254-3.71a2.13,2.13,0,0,1,2.12,2.06,2.09,2.09,0,0,1-2.06,2.11l-254,3.72a19.89,19.89,0,0,0-19.39,16.78l-3.42,21.4A2.09,2.09,0,0,1,989.92,1597.91Z" transform="translate(-32 -18)"/><path class="cls-5" d="M996.83,725.29a28,28,0,1,0-19.38-9.14A27.84,27.84,0,0,0,996.83,725.29Z" transform="translate(-32 -18)"/><path class="cls-5" d="M1151.08,684.15l-6.88-34a2.39,2.39,0,0,0-2-1.89l-28.68-3.82a125.8,125.8,0,0,0-22.82-33.91l7.28-28a2.38,2.38,0,0,0-1-2.58L1068,560.68a2.39,2.39,0,0,0-2.76.09l-23,17.59a126.23,126.23,0,0,0-40.1-7.87l-14.66-24.94a2.37,2.37,0,0,0-2.52-1.13l-34,6.88a2.38,2.38,0,0,0-1.89,2L945.23,582a125.91,125.91,0,0,0-33.9,22.82l-28-7.28a2.38,2.38,0,0,0-2.58,1l-19.21,28.93a2.39,2.39,0,0,0,.09,2.76l17.59,23a126,126,0,0,0-7.87,40.1L846.39,708a2.37,2.37,0,0,0-1.13,2.52l6.88,34a2.39,2.39,0,0,0,2,1.89l28.68,3.83a126.11,126.11,0,0,0,22.81,33.9l-7.27,28a2.37,2.37,0,0,0,1,2.58L928.3,834a2.39,2.39,0,0,0,2.76-.09l23-17.59a126.29,126.29,0,0,0,40.1,7.87l14.66,24.94a2.39,2.39,0,0,0,2.53,1.13l34-6.88a2.37,2.37,0,0,0,1.88-2l3.83-28.68a126.11,126.11,0,0,0,33.9-22.81l28,7.27a2.37,2.37,0,0,0,2.58-1l19.21-28.93a2.37,2.37,0,0,0-.1-2.76l-17.58-23a126,126,0,0,0,7.86-40.1l25-14.67A2.38,2.38,0,0,0,1151.08,684.15Zm-80.26,60.52a86.71,86.71,0,0,1-101.08,33.79l1.9-5.37a81,81,0,1,0-52.37-60.31c.33,1.62.71,3.23,1.13,4.82a80.69,80.69,0,0,0,2.71,8.36l.07.18c.14.37.29.73.44,1.1.27.67.54,1.33.83,2l-5.22,2.27a86.75,86.75,0,0,1,37.61-110.67c2.54-1.39,5.16-2.67,7.86-3.82a86.65,86.65,0,0,1,106.12,127.66Zm-106.3-48.95A33.7,33.7,0,1,1,973.24,720,33.72,33.72,0,0,1,964.52,695.72Z" transform="translate(-32 -18)"/><path class="cls-5" d="M763.22,879.12a17,17,0,1,0-9.33-9.1A16.91,16.91,0,0,0,763.22,879.12Z" transform="translate(-32 -18)"/><path class="cls-5" d="M871.74,863.67,854.36,855a84.32,84.32,0,0,0-7.06-26.52l10.76-16.2a1.61,1.61,0,0,0-.06-1.86l-14.17-18.53a1.6,1.6,0,0,0-1.77-.55l-18.46,6.13a84.63,84.63,0,0,0-23.74-13.78l-3.85-19a1.57,1.57,0,0,0-1.35-1.26l-23.12-3.09a1.58,1.58,0,0,0-1.64.86l-8.72,17.38a84.93,84.93,0,0,0-26.52,7.06l-16.2-10.76a1.59,1.59,0,0,0-1.85.06L698.07,789a1.59,1.59,0,0,0-.54,1.77l6.12,18.46A84.74,84.74,0,0,0,689.88,833l-19,3.85a1.58,1.58,0,0,0-1.27,1.35l-3.09,23.12a1.59,1.59,0,0,0,.87,1.64l17.37,8.72a84.86,84.86,0,0,0,7.06,26.52L681,914.38a1.59,1.59,0,0,0,.07,1.85l14.16,18.54a1.6,1.6,0,0,0,1.78.54l18.45-6.12A84.5,84.5,0,0,0,739.21,943L743.06,962a1.59,1.59,0,0,0,1.35,1.26l23.13,3.09a1.61,1.61,0,0,0,1.64-.87l8.71-17.37a84.86,84.86,0,0,0,26.52-7.06l16.2,10.76a1.61,1.61,0,0,0,1.86-.07L841,937.6a1.61,1.61,0,0,0,.55-1.77l-6.13-18.46a84.77,84.77,0,0,0,13.78-23.74l19-3.85a1.59,1.59,0,0,0,1.27-1.35l3.08-23.12A1.58,1.58,0,0,0,871.74,863.67ZM829.4,871a60,60,0,0,1-96.79,39l4.59-5.77a52.61,52.61,0,1,0-19.39-48.14,53.85,53.85,0,0,0-.35,10.61c0,.2,0,.4,0,.59l-7.35.58a60.48,60.48,0,0,1,.35-12.75c0-.34.09-.68.14-1a60,60,0,0,1,55.14-50.89h0a60,60,0,0,1,63.23,49.63A59.83,59.83,0,0,1,829.4,871Zm-82.52-16.73a24.26,24.26,0,0,1,13-13.37,24.67,24.67,0,0,1,5.49-1.63,24.4,24.4,0,1,1-18.53,15Z" transform="translate(-32 -18)"/><path class="cls-5" d="M1836.06,735.3l-4.82-23.85a1.66,1.66,0,0,0-1.41-1.32l-20.1-2.69a88.17,88.17,0,0,0-16-23.75l5.1-19.63a1.67,1.67,0,0,0-.7-1.81l-20.27-13.46a1.67,1.67,0,0,0-1.93.07l-16.12,12.32a88.42,88.42,0,0,0-28.09-5.51l-10.27-17.48a1.68,1.68,0,0,0-1.77-.79l-23.85,4.82a1.66,1.66,0,0,0-1.32,1.41l-2.69,20.1a88.4,88.4,0,0,0-23.75,16l-19.63-5.09a1.65,1.65,0,0,0-1.81.69l-13.46,20.27a1.67,1.67,0,0,0,.07,1.93l12.32,16.12a88.42,88.42,0,0,0-5.51,28.09L1622.59,752a1.67,1.67,0,0,0-.79,1.76l4.82,23.85a1.68,1.68,0,0,0,1.41,1.33l20.1,2.68a88.4,88.4,0,0,0,16,23.75L1659,825a1.67,1.67,0,0,0,.69,1.81L1680,840.27a1.65,1.65,0,0,0,1.93-.07L1698,827.88a87.87,87.87,0,0,0,28.09,5.51l10.28,17.48a1.67,1.67,0,0,0,1.76.79l23.85-4.82a1.68,1.68,0,0,0,1.33-1.41l2.68-20.1a88.17,88.17,0,0,0,23.75-16l19.63,5.1a1.67,1.67,0,0,0,1.81-.7l13.46-20.27a1.67,1.67,0,0,0-.06-1.93l-12.33-16.12a88.15,88.15,0,0,0,5.52-28.09l17.47-10.28A1.65,1.65,0,0,0,1836.06,735.3Zm-54.69,43.42a62.58,62.58,0,0,1-73,24.39l2.56-7.24a54.73,54.73,0,1,0-32.23-30.3c.08.19.16.38.25.57l-7,3.07a63.23,63.23,0,0,1-4-12.69c-.08-.35-.14-.7-.21-1a62.68,62.68,0,0,1,31.35-66.15,60.41,60.41,0,0,1,5.72-2.78s0,0,0,0A62.64,62.64,0,0,1,1784.06,714a62.58,62.58,0,0,1-2.69,64.76Zm-77.86-35.41a25.29,25.29,0,0,1,8.31-17.61,25.63,25.63,0,0,1,4.86-3.49,25.45,25.45,0,1,1-13.17,21.1Z" transform="translate(-32 -18)"/><path class="cls-5" d="M1728.08,762.28a17.76,17.76,0,1,0-12.3-5.8A17.7,17.7,0,0,0,1728.08,762.28Z" transform="translate(-32 -18)"/><path class="cls-5" d="M1440.17,957a36.55,36.55,0,0,0,17.48,4.32h0a36.17,36.17,0,1,0-17.48-4.32Z" transform="translate(-32 -18)"/><path class="cls-5" d="M1650.74,948.84l-30.87-20.39a161,161,0,0,0-7.35-51.72l24-28.19a3,3,0,0,0,.3-3.52l-22.58-38.22a3,3,0,0,0-3.23-1.44l-36.27,7.41A161,161,0,0,0,1533,781.38l-3-36.88a3.06,3.06,0,0,0-2.28-2.7l-43-11.06a3,3,0,0,0-3.29,1.27l-20.39,30.87a161,161,0,0,0-51.72,7.35l-28.19-24a3,3,0,0,0-3.52-.3l-38.22,22.58a3,3,0,0,0-1.44,3.23l7.41,36.27A161,161,0,0,0,1314,849.77l-36.88,3a3.06,3.06,0,0,0-2.7,2.28l-11.06,43a3,3,0,0,0,1.27,3.29l30.87,20.39a161,161,0,0,0,7.35,51.72l-24,28.19a3,3,0,0,0-.3,3.52l22.58,38.22a3,3,0,0,0,3.23,1.44l36.27-7.42a160.86,160.86,0,0,0,41.75,31.4l3,36.88a3.06,3.06,0,0,0,2.28,2.7l43,11.06a3,3,0,0,0,3.29-1.27l20.39-30.87a161,161,0,0,0,51.72-7.35l28.19,24a3,3,0,0,0,3.52.3l38.22-22.58a3,3,0,0,0,1.44-3.23l-7.41-36.27a161,161,0,0,0,31.39-41.75l36.88-3a3.06,3.06,0,0,0,2.7-2.28l11.06-43A3,3,0,0,0,1650.74,948.84Zm-230.17-44a42.27,42.27,0,0,1,77.66,8.29,39.15,39.15,0,0,1-3.43,31c-7.42,13.6-21.65,20.88-37.15,20.88h0c-7,0-14-.61-20.2-4-9.91-5.41-17.13-13.76-20.32-24.59A40.53,40.53,0,0,1,1420.57,904.84Zm144,46.79h0s.84.91.83.94.85.76.85.78v.11s-.87,0-.87.06l-.44,0s-.22-1-.22-.94-.17-1-.17-1h0s0,1,0,1,0,.51,0,.51,0,.39,0,.46,0,.22,0,.26V954c0,.13-.07.29-.11.43v0c0,.09-.23.18-.25.26s-.21.07-.21.1h.18s1.14,0,1.13,0,1.13,0,1.13.06h0c-12.17,47.75-58.56,79.43-108.11,79.43h0c-9.21,0-18.45,0-27.46-3.65h0c-48.63-11-82.6-55.41-82.6-105.57a107,107,0,0,1,3.49-27,109.09,109.09,0,0,1,29.17-50.59,2.84,2.84,0,0,1,4,.13,2.94,2.94,0,0,1,.82,2,2.85,2.85,0,0,1-.85,2.05,104.3,104.3,0,0,0-27.65,48.2,100.49,100.49,0,0,0-3.31,25.53c0,47.55,32.21,89.43,78.33,100.38h0l1.18.55c8.53,2.19,17.4,4,27.13,4v-.12c48.67,0,87.62-32,99.66-77.83,0,0-.55-.07-.54-.1s-.27-.06-.27-.08-.14-.29-.13-.3-.13-.33-.12-.33h0l.57.22s.58.09.58.08V952h-.56l.27,0s.29-.05.29-.08h0c2.44-8.56,2.77-17.32,2.77-26.06a104.47,104.47,0,0,0-78.61-100.92,101.61,101.61,0,0,0-21.58-3.23c-1.53-.06-2.34-1.33-2.34-2.85v-.11c1.22-1.57.85-2.78,2.43-2.73a108.14,108.14,0,0,1,22.9,3.41c48.63,12.51,82.47,55.43,82.47,105.58A101,101,0,0,1,1564.6,951.63Z" transform="translate(-32 -18)"/><circle class="cls-12" cx="1340.93" cy="1281.21" r="104.08" transform="translate(-159.92 2395.51) rotate(-81.32)"/><circle class="cls-13" cx="1340.93" cy="1281.21" r="100.62" transform="translate(-246.09 2273.91) rotate(-76.72)"/><path class="cls-14" d="M1258,1240.52a1,1,0,0,1-.5-.12,1.11,1.11,0,0,1-.49-1.48,93.61,93.61,0,0,1,84-51.7,95.1,95.1,0,0,1,17,1.53,1.11,1.11,0,0,1-.4,2.18,92.39,92.39,0,0,0-16.56-1.49,91.4,91.4,0,0,0-82,50.47A1.09,1.09,0,0,1,1258,1240.52Z" transform="translate(-32 -18)"/><circle class="cls-14" cx="1343.13" cy="1283.41" r="85.16" transform="translate(-420.9 593.69) rotate(-22.5)"/><path class="cls-15" d="M1334.77,1346.72v-9.27a75.45,75.45,0,0,1-26-5.63,5.36,5.36,0,0,1-3-6.34l2.35-8.63a5.41,5.41,0,0,1,7.34-3.53,62.75,62.75,0,0,0,24,5c9.3,0,16.24-3.15,16.24-9.62,0-5.83-5.36-9.3-18.29-12.77-18.45-5-31.69-13.08-31.69-29.33,0-14.66,10.72-25.86,29.32-28.85v-9.27a5.4,5.4,0,0,1,5.4-5.4h5.45a5.39,5.39,0,0,1,5.39,5.4v8.32a69.09,69.09,0,0,1,20.61,3.7,5.38,5.38,0,0,1,3.36,6.49l-2.17,8a5.38,5.38,0,0,1-7.1,3.64,56.21,56.21,0,0,0-20.21-3.67c-11,0-14.2,4.57-14.2,8.67,0,5,6.63,8.51,21,12.93,20.49,6.15,29,14.66,29,30,0,14-10.41,26.64-30.59,29.8v10.37a5.4,5.4,0,0,1-5.4,5.4h-5.44A5.4,5.4,0,0,1,1334.77,1346.72Z" transform="translate(-32 -18)"/><circle class="cls-16" cx="1587.88" cy="1130.08" r="88.22" transform="translate(186.04 2498.44) rotate(-80.78)"/><circle class="cls-17" cx="1587.88" cy="1130.08" r="85.29" transform="translate(-95.84 2146.63) rotate(-67.5)"/><path class="cls-14" d="M1517.55,1095.59a.93.93,0,0,1-.83-1.36,79.82,79.82,0,0,1,85.53-42.52.94.94,0,1,1-.33,1.85,78.33,78.33,0,0,0-14-1.27,77.47,77.47,0,0,0-69.49,42.79A.92.92,0,0,1,1517.55,1095.59Z" transform="translate(-32 -18)"/><circle class="cls-14" cx="1589.74" cy="1131.94" r="72.18" transform="translate(-217.37 303.06) rotate(-10.9)"/><path class="cls-18" d="M1582.66,1185.61v-7.86a64,64,0,0,1-22-4.77,4.55,4.55,0,0,1-2.51-5.37l2-7.32a4.58,4.58,0,0,1,6.22-3,53.23,53.23,0,0,0,20.35,4.28c7.88,0,13.76-2.67,13.76-8.15,0-5-4.54-7.89-15.5-10.83-15.64-4.27-26.87-11.09-26.87-24.86,0-12.43,9.09-21.92,24.86-24.45v-7.86a4.57,4.57,0,0,1,4.58-4.57h4.61a4.57,4.57,0,0,1,4.58,4.57v7a58.55,58.55,0,0,1,17.47,3.14,4.56,4.56,0,0,1,2.84,5.5l-1.83,6.76a4.57,4.57,0,0,1-6,3.08,47.7,47.7,0,0,0-17.13-3.11c-9.35,0-12,3.88-12,7.35,0,4.28,5.62,7.22,17.78,11,17.37,5.22,24.59,12.43,24.59,25.4,0,11.89-8.82,22.58-25.93,25.26v8.79a4.58,4.58,0,0,1-4.57,4.57h-4.62A4.57,4.57,0,0,1,1582.66,1185.61Z" transform="translate(-32 -18)"/><circle class="cls-19" cx="1176.75" cy="1180.59" r="62.54" transform="translate(-128.87 2237.95) rotate(-85.27)"/><circle class="cls-20" cx="1176.75" cy="1180.59" r="60.46" transform="translate(-209.09 2135.03) rotate(-80.78)"/><path class="cls-14" d="M1126.9,1156.14a.78.78,0,0,1-.3-.07.68.68,0,0,1-.3-.9,56.24,56.24,0,0,1,50.45-31.06,56.88,56.88,0,0,1,10.19.92.65.65,0,0,1,.53.77.66.66,0,0,1-.77.54,55.2,55.2,0,0,0-59.21,29.43A.67.67,0,0,1,1126.9,1156.14Z" transform="translate(-32 -18)"/><circle class="cls-14" cx="1146.07" cy="1163.9" r="51.17"/><path class="cls-21" d="M1173.05,1219.94v-5.56a45.72,45.72,0,0,1-15.63-3.39,3.23,3.23,0,0,1-1.78-3.8l1.42-5.19a3.24,3.24,0,0,1,4.41-2.12,37.74,37.74,0,0,0,14.42,3c5.59,0,9.76-1.89,9.76-5.78,0-3.5-3.23-5.59-11-7.67-11.09-3-19.05-7.86-19.05-17.62,0-8.81,6.45-15.54,17.62-17.34v-5.57a3.25,3.25,0,0,1,3.25-3.24h3.27a3.24,3.24,0,0,1,3.24,3.24v5a41.51,41.51,0,0,1,12.38,2.23,3.22,3.22,0,0,1,2,3.89l-1.3,4.8a3.23,3.23,0,0,1-4.27,2.18,33.78,33.78,0,0,0-12.14-2.2c-6.63,0-8.53,2.74-8.53,5.21,0,3,4,5.11,12.6,7.77,12.32,3.69,17.43,8.81,17.43,18,0,8.43-6.25,16-18.38,17.9v6.23a3.24,3.24,0,0,1-3.24,3.25h-3.27A3.24,3.24,0,0,1,1173.05,1219.94Z" transform="translate(-32 -18)"/><circle class="cls-22" cx="1556.46" cy="1339.62" r="56.8" transform="translate(115.69 2815.78) rotate(-87.4)"/><circle class="cls-23" cx="1556.46" cy="1339.62" r="54.91" transform="translate(4.71 2702.74) rotate(-82.98)"/><path class="cls-14" d="M1511.18,1317.41a.66.66,0,0,1-.27-.06.6.6,0,0,1-.27-.81,51.07,51.07,0,0,1,45.82-28.21,51.91,51.91,0,0,1,9.25.83.6.6,0,0,1-.21,1.19,50.49,50.49,0,0,0-9-.82,49.89,49.89,0,0,0-44.74,27.55A.6.6,0,0,1,1511.18,1317.41Z" transform="translate(-32 -18)"/><circle class="cls-14" cx="1557.66" cy="1340.82" r="46.48" transform="translate(-137.17 2530.75) rotate(-76.72)"/><path class="cls-24" d="M1553.1,1375.37v-5.06a41.23,41.23,0,0,1-14.19-3.08,2.92,2.92,0,0,1-1.62-3.45l1.29-4.71a3,3,0,0,1,4-1.93,34.22,34.22,0,0,0,13.1,2.76c5.08,0,8.86-1.72,8.86-5.25,0-3.19-2.92-5.08-10-7-10.07-2.76-17.3-7.14-17.3-16,0-8,5.86-14.11,16-15.74v-5.06a3,3,0,0,1,3-2.95h3a3,3,0,0,1,2.94,2.95v4.54a37.46,37.46,0,0,1,11.25,2,2.93,2.93,0,0,1,1.83,3.54l-1.18,4.35a3,3,0,0,1-3.88,2,30.68,30.68,0,0,0-11-2c-6,0-7.74,2.49-7.74,4.73,0,2.75,3.61,4.64,11.44,7,11.19,3.36,15.83,8,15.83,16.35,0,7.66-5.68,14.55-16.69,16.27v5.66a3,3,0,0,1-3,2.94h-3A2.94,2.94,0,0,1,1553.1,1375.37Z" transform="translate(-32 -18)"/><path class="cls-25" d="M2377.42,1616.22,2063,1009.72a7,7,0,1,1,12.35-6.4l314.46,606.5a7,7,0,1,1-12.35,6.4Z" transform="translate(-32 -18)"/><path class="cls-25" d="M2228,1620.86l-268.78-617.57a7,7,0,1,1,12.75-5.55l268.78,617.56a6.95,6.95,0,0,1-3.6,9.16,6.78,6.78,0,0,1-2.77.58A7,7,0,0,1,2228,1620.86Z" transform="translate(-32 -18)"/><path class="cls-25" d="M2016.42,1120.85h109a4.35,4.35,0,0,0,0-8.7h-109a4.35,4.35,0,0,0,0,8.7Z" transform="translate(-32 -18)"/><path class="cls-25" d="M2045.55,1188.39h109a4.35,4.35,0,0,0,0-8.7h-109a4.35,4.35,0,0,0,0,8.7Z" transform="translate(-32 -18)"/><path class="cls-25" d="M2084,1269.26h116a4.35,4.35,0,0,0,0-8.7H2084a4.35,4.35,0,1,0,0,8.7Z" transform="translate(-32 -18)"/><path class="cls-25" d="M1987.45,1055.34h104a4.35,4.35,0,0,0,0-8.7h-104a4.35,4.35,0,0,0,0,8.7Z" transform="translate(-32 -18)"/><path class="cls-25" d="M2122.24,1362.3h126a4.35,4.35,0,1,0,0-8.69h-126a4.35,4.35,0,1,0,0,8.69Z" transform="translate(-32 -18)"/><path class="cls-25" d="M2151.84,1434.48H2287a4.35,4.35,0,1,0,0-8.7H2151.84a4.35,4.35,0,0,0,0,8.7Z" transform="translate(-32 -18)"/><path class="cls-26" d="M2178.42,1346.73c13.92-12.11,43.82-21.82,43.82-21.82l18,.39c4.57,5.14,6.63,15.1,7.52,21.34-3.39,2-9.74,3.8-21.38,4.36A174.74,174.74,0,0,1,2178.42,1346.73Z" transform="translate(-32 -18)"/><path class="cls-27" d="M2178.42,1346.73a174.74,174.74,0,0,0,47.95,4.27c11.64-.56,18-2.33,21.38-4.36.07.5.13,1,.19,1.43a5.3,5.3,0,0,1-3.73,5.72c-16.44,5-52.58,3.42-66.68,2.55a3.71,3.71,0,0,1-2.65-6A32.05,32.05,0,0,1,2178.42,1346.73Z" transform="translate(-32 -18)"/><path class="cls-28" d="M2238.76,1309.77v14.31a5.84,5.84,0,0,1-4.61,5.71,22.82,22.82,0,0,1-10.08.1,5.61,5.61,0,0,1-4.16-4.78l-1.8-15.34Z" transform="translate(-32 -18)"/><path class="cls-29" d="M2147.79,1236.47c5.58-12.43,4-18,15-16.78a15,15,0,0,1,3.36.74,10,10,0,0,1,0,6.47,123.15,123.15,0,0,1-19.35,35.29,12.13,12.13,0,0,1-9.32,4.55l-12.18.21C2136.88,1257.71,2143.15,1246.78,2147.79,1236.47Z" transform="translate(-32 -18)"/><path class="cls-30" d="M2124.56,1248.52c9.35-6.58,12.84-33.47,12.84-33.47l14.41-7.33,10.87,7.87a10,10,0,0,1,3.5,4.84,15,15,0,0,0-3.36-.74c-11.05-1.23-9.45,4.35-15,16.78-4.64,10.31-10.91,21.24-22.46,30.48l-8.37.14a4.5,4.5,0,0,1-3.66-7.23A54.38,54.38,0,0,1,2124.56,1248.52Z" transform="translate(-32 -18)"/><path class="cls-31" d="M2143.11,1194.18l8.7,13.54a3.94,3.94,0,0,1-.87,5.23c-2.79,2.19-7.62,4.64-13.54,2.1l-14-9.58Z" transform="translate(-32 -18)"/><path class="cls-32" d="M2208.42,1051.33s4.57,12.9,11.21,58.21,11,78.27,14.63,96.24c3.31,16.43,8.53,75.61,8.22,101.5a6.21,6.21,0,0,1-6.39,6.14l-17.12-.54a5.55,5.55,0,0,1-5.31-4.61c-4.53-26.65-35.85-164.15-54.74-203.71,0,0-50.24,14.21-62.77,19.92,0,0,16.2,6.49,49.39,68.71,0,0-14.34,11.39-24.49,13.76,0,0-72.63-60.24-80.3-66.54s-14.67-17.17,4.91-37,79.68-51,79.68-51Z" transform="translate(-32 -18)"/><path class="cls-33" d="M2161.7,1106a1,1,0,0,0,.37-.08L2180,1099a22.49,22.49,0,0,0,12.75-20.09.86.86,0,0,0-.86-.87.82.82,0,0,0-.87.86,20.76,20.76,0,0,1-11.76,18.53l-17.92,6.91a.87.87,0,0,0,.37,1.65Z" transform="translate(-32 -18)"/><path class="cls-34" d="M2045.93,1047.51s-18.87-14.28-27.46-11.6-14.92,10.73-14.92,10.73h19s4.52,8.7,0,8.7h-6.7S2033.54,1073.9,2045.93,1047.51Z" transform="translate(-32 -18)"/><path class="cls-35" d="M2077.89,912.79s-22.15,87.58-52.15,122.79c0,0,8.13,9.26,20.19,11.93,0,0,46-40.36,60.08-68.4S2077.89,912.79,2077.89,912.79Z" transform="translate(-32 -18)"/><path class="cls-36" d="M2107.49,829.43l22,40.25h-34.72s-2.79-18.4-11.92-29.47Z" transform="translate(-32 -18)"/><path class="cls-37" d="M2074.14,781.51s-11,25.32-11.76,38.61-3.6,21.92,11.76,24.59,28.32-5,35.33-18.21c0,0,11-20.4,8.53-28.76S2074.14,781.51,2074.14,781.51Z" transform="translate(-32 -18)"/><path class="cls-38" d="M2104.22,817h-1.94s8-16.42,1-19.31-34.89-8.56-40.91-18.45c-5.79-9.53-.62-21.84,7.11-25.28a1,1,0,0,1,1.32.48l.64,1.21a1,1,0,0,0,1.92-.19h0a1,1,0,0,1,1.87-.29c1.84,3,6.83,7.76,20.19,10.23,19,3.5,31.5,11.17,31.8,24.28a1,1,0,0,0,1.62.85c1.4-.85,3.64-1.25,6.63,1.27,5.21,4.38,3.08,15.73-8.33,25.07a1,1,0,0,0,0,1.68c2.07,1.34,5.15,4.55-2.84,8.82-8.18,4.37-13,3.9-14.84,3.43a1.05,1.05,0,0,1-.79-1.08l.71-11.62a1,1,0,0,0-1-1.1Z" transform="translate(-32 -18)"/><path class="cls-39" d="M2103.74,819.41s4.21-16.18,11.46-11.64-3.76,18.12-9.59,18.73Z" transform="translate(-32 -18)"/><path class="cls-40" d="M2134.37,866.53s-9.81-16.12-74-12.17c-33.35,2-108.37-27-125.07-41.64,0,0-10.89-.06-20.92,10.44,0,0,69.28,73.12,150.06,82.46,0,0,61.3,126.34,60.87,146.84,0,0,36.39,24.42,85.76,7,0,0,1.51-35.12-17.76-83.63C2168.33,912.79,2134.37,866.53,2134.37,866.53Z" transform="translate(-32 -18)"/><path class="cls-41" d="M2105.28,910.12a.87.87,0,0,0,.07-1.74c-.31,0-31.11-2.53-35.91-3.07a.87.87,0,0,0-.2,1.73c4.83.54,35.66,3.05,36,3.07Z" transform="translate(-32 -18)"/><path class="cls-42" d="M1915.68,819.61c-.57,2,6.92,4.86,11-3.58,0-4,1.8-21-.68-24.19-13.26-16.75-38.52-37.43-38.52-37.43a5.82,5.82,0,0,0-.43,8.11l12.32,11.94c-2.32,4.58-5.21,8.48-6.43,14A16.68,16.68,0,0,0,1895,800.6c2.22,3.68,5.24,8.45,8.07,12.18A16.44,16.44,0,0,0,1915.68,819.61Z" transform="translate(-32 -18)"/><circle class="cls-43" cx="1250.58" cy="219.95" r="132.5" transform="translate(178.76 930.71) rotate(-45)"/><circle class="cls-44" cx="1250.58" cy="219.95" r="128.09" transform="translate(178.76 930.71) rotate(-45)"/><path class="cls-10" d="M1132.5,215h-.07a1.35,1.35,0,0,1-1.28-1.42,119.9,119.9,0,0,1,1.73-15,1.36,1.36,0,0,1,2.67.48,118,118,0,0,0-1.7,14.68A1.36,1.36,0,0,1,1132.5,215Z" transform="translate(-32 -18)"/><path class="cls-10" d="M1145,168.09a1.5,1.5,0,0,1-.61-.14,1.36,1.36,0,0,1-.59-1.82,119.1,119.1,0,0,1,106.83-65.78,120.5,120.5,0,0,1,21.57,1.94,1.37,1.37,0,0,1,1.09,1.58,1.35,1.35,0,0,1-1.58,1.08,118.72,118.72,0,0,0-21.08-1.89,116.4,116.4,0,0,0-104.42,64.29A1.35,1.35,0,0,1,1145,168.09Z" transform="translate(-32 -18)"/><circle class="cls-5" cx="1253.37" cy="222.74" r="108.41" transform="translate(177.6 933.5) rotate(-45)"/><path class="cls-45" d="M1285.15,179.87c0,19-15.4,39.5-34.39,39.5s-34.39-20.51-34.39-39.5,15.4-32.46,34.39-32.46S1285.15,160.88,1285.15,179.87Z" transform="translate(-32 -18)"/><path class="cls-46" d="M1208.08,292.48h84a20.32,20.32,0,0,0,19.35-14.12l4.52-14.12A20.31,20.31,0,0,0,1303.63,239c-34.16-12.49-69.48-10.89-105.67,1.16a20.21,20.21,0,0,0-13,24.52l3.47,12.82A20.32,20.32,0,0,0,1208.08,292.48Z" transform="translate(-32 -18)"/><circle class="cls-47" cx="1572.26" cy="315.75" r="84.54" transform="translate(913.22 1773.73) rotate(-78.34)"/><circle class="cls-48" cx="1572.26" cy="315.75" r="81.73" transform="translate(205.23 1186.23) rotate(-45)"/><path class="cls-10" d="M1496.92,312.61h-.05a.86.86,0,0,1-.81-.91,74.93,74.93,0,0,1,1.11-9.58.86.86,0,1,1,1.69.31,75.12,75.12,0,0,0-1.08,9.36A.86.86,0,0,1,1496.92,312.61Z" transform="translate(-32 -18)"/><path class="cls-10" d="M1504.87,282.67a.76.76,0,0,1-.39-.1.85.85,0,0,1-.38-1.16A76.42,76.42,0,0,1,1586,240.69a.86.86,0,0,1-.31,1.69,75.6,75.6,0,0,0-13.45-1.21,74.26,74.26,0,0,0-66.62,41A.88.88,0,0,1,1504.87,282.67Z" transform="translate(-32 -18)"/><circle class="cls-5" cx="1574.04" cy="317.53" r="69.17" transform="translate(204.49 1188.01) rotate(-45)"/><path class="cls-49" d="M1594.31,290.18c0,12.12-9.82,25.2-21.94,25.2s-21.94-13.08-21.94-25.2,9.83-20.71,21.94-20.71S1594.31,278.07,1594.31,290.18Z" transform="translate(-32 -18)"/><path class="cls-50" d="M1545.15,362h53.55a13,13,0,0,0,12.35-9l2.88-9a13,13,0,0,0-7.82-16.11c-21.8-8-44.34-6.95-67.42.73a12.92,12.92,0,0,0-8.28,15.65l2.22,8.18A13,13,0,0,0,1545.15,362Z" transform="translate(-32 -18)"/><circle class="cls-51" cx="928.9" cy="305.05" r="84.54" transform="translate(24.36 728.18) rotate(-45)"/><circle class="cls-52" cx="928.9" cy="305.05" r="81.73" transform="translate(24.36 728.18) rotate(-45)"/><path class="cls-10" d="M853.56,301.91h0a.86.86,0,0,1-.81-.91,74.93,74.93,0,0,1,1.11-9.58.86.86,0,1,1,1.69.31,77.06,77.06,0,0,0-1.08,9.36A.86.86,0,0,1,853.56,301.91Z" transform="translate(-32 -18)"/><path class="cls-10" d="M861.51,272a.76.76,0,0,1-.39-.1.85.85,0,0,1-.38-1.16A76.42,76.42,0,0,1,942.66,230a.86.86,0,1,1-.31,1.69,75.6,75.6,0,0,0-13.45-1.21,74.26,74.26,0,0,0-66.62,41A.88.88,0,0,1,861.51,272Z" transform="translate(-32 -18)"/><circle class="cls-5" cx="898.68" cy="288.83" r="69.17"/><path class="cls-53" d="M951,279.48c0,12.12-9.82,25.2-21.94,25.2s-21.94-13.08-21.94-25.2,9.83-20.71,21.94-20.71S951,267.37,951,279.48Z" transform="translate(-32 -18)"/><path class="cls-54" d="M901.79,351.33h53.55a13,13,0,0,0,12.35-9l2.88-9a13,13,0,0,0-7.82-16.11c-21.8-8-44.34-6.95-67.42.73a12.92,12.92,0,0,0-8.28,15.65l2.22,8.18A13,13,0,0,0,901.79,351.33Z" transform="translate(-32 -18)"/><circle class="cls-55" cx="990.91" cy="102.54" r="84.54" transform="translate(702.51 1047.17) rotate(-80.99)"/><circle class="cls-56" cx="990.91" cy="102.54" r="81.72" transform="translate(185.73 712.71) rotate(-45)"/><path class="cls-10" d="M915.57,99.4h-.05a.85.85,0,0,1-.81-.9,76.93,76.93,0,0,1,1.11-9.59.85.85,0,0,1,1-.69.86.86,0,0,1,.7,1,75.3,75.3,0,0,0-1.09,9.37A.86.86,0,0,1,915.57,99.4Z" transform="translate(-32 -18)"/><path class="cls-10" d="M923.52,69.45a.89.89,0,0,1-.39-.09.86.86,0,0,1-.38-1.16,76,76,0,0,1,68.16-42,77.13,77.13,0,0,1,13.76,1.24.86.86,0,1,1-.31,1.7A74.7,74.7,0,0,0,924.29,69,.86.86,0,0,1,923.52,69.45Z" transform="translate(-32 -18)"/><circle class="cls-5" cx="992.69" cy="104.32" r="69.17" transform="translate(701.62 1050.26) rotate(-80.96)"/><path class="cls-57" d="M1013,77c0,12.11-9.82,25.2-21.94,25.2S969.08,89.08,969.08,77,978.91,56.26,991,56.26,1013,64.85,1013,77Z" transform="translate(-32 -18)"/><path class="cls-58" d="M963.8,148.82h53.55a13,13,0,0,0,12.35-9l2.88-9a13,13,0,0,0-7.82-16.12c-21.8-8-44.33-7-67.42.74a12.9,12.9,0,0,0-8.27,15.65l2.21,8.18A13,13,0,0,0,963.8,148.82Z" transform="translate(-32 -18)"/><circle class="cls-59" cx="1510.24" cy="111.28" r="84.54" transform="translate(1131.91 1567.48) rotate(-80.99)"/><circle class="cls-60" cx="1510.24" cy="111.28" r="81.72" transform="translate(331.66 1082.5) rotate(-45)"/><path class="cls-10" d="M1434.91,108.14h-.05a.88.88,0,0,1-.82-.91,78.86,78.86,0,0,1,1.11-9.59.87.87,0,0,1,1-.69.85.85,0,0,1,.69,1,75.28,75.28,0,0,0-1.08,9.37A.87.87,0,0,1,1434.91,108.14Z" transform="translate(-32 -18)"/><path class="cls-10" d="M1442.85,78.19a.85.85,0,0,1-.38-.09.87.87,0,0,1-.39-1.16,76,76,0,0,1,68.16-42A77.16,77.16,0,0,1,1524,36.21a.86.86,0,0,1,.69,1,.85.85,0,0,1-1,.69,75.62,75.62,0,0,0-13.46-1.21,74.26,74.26,0,0,0-66.61,41A.88.88,0,0,1,1442.85,78.19Z" transform="translate(-32 -18)"/><circle class="cls-5" cx="1512.02" cy="113.06" r="69.17" transform="translate(330.92 1084.28) rotate(-45)"/><path class="cls-61" d="M1532.3,85.71c0,12.12-9.82,25.2-21.94,25.2s-21.94-13.08-21.94-25.2S1498.24,65,1510.36,65,1532.3,73.59,1532.3,85.71Z" transform="translate(-32 -18)"/><path class="cls-62" d="M1483.13,157.56h53.56a13,13,0,0,0,12.35-9l2.88-9a13,13,0,0,0-7.82-16.12c-21.8-8-44.34-6.94-67.43.74a12.92,12.92,0,0,0-8.27,15.65l2.22,8.18A13,13,0,0,0,1483.13,157.56Z" transform="translate(-32 -18)"/><path class="cls-63" d="M1300.75,952.05H905.59c-77.36-141-154.72-283.9-232.08-424.9h859.32C1455.47,668.15,1378.11,811.05,1300.75,952.05Z" transform="translate(-32 -18)"/><path class="cls-64" d="M1560,533.47c0,4.93-4.47,8.92-10,8.92H656c-5.51,0-10-4-10-8.92V518.92c0-4.93,4.47-8.92,10-8.92h894c5.51,0,10,4,10,8.92Z" transform="translate(-32 -18)"/><path class="cls-65" d="M1272.66,1119h-339c-9.82-54.39-19.65-110.7-29.48-167h397.94C1292.32,1008.3,1282.49,1064.61,1272.66,1119Z" transform="translate(-32 -18)"/><path class="cls-66" d="M2057.71,1168c0,6.12-4.46,11.19-9.44,11.19H1705.48c-5,0-8.25-5.07-8.25-11.19v-6.83c0-6.12,3.27-11.51,8.25-11.51h342.79c5,0,9.44,5.39,9.44,11.51Z" transform="translate(-32 -18)"/><g class="cls-67"><path class="cls-68" d="M1658.9,929.37a2.84,2.84,0,0,1-2.58-1.51L1505.67,619.65a2.42,2.42,0,0,1,1.45-3.31,3,3,0,0,1,3.7,1.3l150.65,308.21a2.41,2.41,0,0,1-1.45,3.31A3.09,3.09,0,0,1,1658.9,929.37Z" transform="translate(-32 -18)"/></g><path class="cls-68" d="M1714.81,1129.46a2.72,2.72,0,0,1-2.78-2.2l-14.24-102.43a2.59,2.59,0,0,1,2.44-2.8,2.77,2.77,0,0,1,3.14,2.19l14.24,102.42a2.59,2.59,0,0,1-2.45,2.8Z" transform="translate(-32 -18)"/><path class="cls-68" d="M944.23,200.12,937,199.8a2.41,2.41,0,1,1,.21-4.82h0l7.21.34a2.4,2.4,0,1,1-.22,4.8Z" transform="translate(-32 -18)"/><path class="cls-68" d="M920.19,199l-7.2-.32a2.44,2.44,0,1,1,.22-4.88h0l7.21.34a2.43,2.43,0,0,1-.23,4.86Z" transform="translate(-32 -18)"/><path class="cls-68" d="M896.17,198l-7.21-.31a2.47,2.47,0,1,1,.21-4.93h0l7.21.32a2.46,2.46,0,0,1-.22,4.92Z" transform="translate(-32 -18)"/><path class="cls-68" d="M872.15,197l-7.21-.27a2.5,2.5,0,0,1,.18-5h0l7.21.29a2.49,2.49,0,1,1-.19,5Z" transform="translate(-32 -18)"/><path class="cls-68" d="M848.13,196.16l-7.21-.21a2.53,2.53,0,0,1,.15-5h0l7.21.23a2.52,2.52,0,0,1-.15,5Z" transform="translate(-32 -18)"/><path class="cls-68" d="M824.11,195.54l-7.22-.14a2.55,2.55,0,0,1,.1-5.1h0l7.21.16a2.54,2.54,0,1,1-.1,5.08Z" transform="translate(-32 -18)"/><path class="cls-68" d="M800.09,195.19l-7.22-.05a2.58,2.58,0,0,1,0-5.16h0l7.22.07a2.57,2.57,0,0,1,0,5.14Z" transform="translate(-32 -18)"/><path class="cls-68" d="M776.07,195.15l-7.21.06a2.61,2.61,0,1,1-.05-5.21h0l7.22,0a2.6,2.6,0,1,1,0,5.19Z" transform="translate(-32 -18)"/><path class="cls-68" d="M752.07,195.5l-7.22.18a2.64,2.64,0,1,1-.13-5.27h0l7.22-.16a2.63,2.63,0,0,1,.13,5.25Z" transform="translate(-32 -18)"/><path class="cls-68" d="M728.08,196.27l-7.21.33a2.66,2.66,0,1,1-.24-5.32h0l7.21-.31a2.65,2.65,0,0,1,.24,5.3Z" transform="translate(-32 -18)"/><path class="cls-68" d="M704.11,197.54l-7.2.49a2.69,2.69,0,0,1-.36-5.37h0l7.2-.47a2.68,2.68,0,0,1,.35,5.35Z" transform="translate(-32 -18)"/><path class="cls-68" d="M680.19,199.36,673,200a2.72,2.72,0,1,1-.5-5.41h0l7.19-.65a2.71,2.71,0,1,1,.49,5.39Z" transform="translate(-32 -18)"/><path class="cls-68" d="M656.34,201.81l-7.16.86a2.74,2.74,0,1,1-.66-5.44h0l7.17-.86a2.74,2.74,0,0,1,.65,5.44Z" transform="translate(-32 -18)"/><path class="cls-68" d="M632.58,204.94,625.44,206a2.77,2.77,0,1,1-.84-5.47h0l7.14-1.07a2.76,2.76,0,0,1,.83,5.46Z" transform="translate(-32 -18)"/><path class="cls-68" d="M608.94,208.85l-7.09,1.34a2.8,2.8,0,1,1-1-5.5h0l7.1-1.33a2.79,2.79,0,0,1,1,5.49Z" transform="translate(-32 -18)"/><path class="cls-68" d="M585.47,213.6l-7,1.62a2.83,2.83,0,0,1-1.26-5.51h0l7-1.59a2.82,2.82,0,1,1,1.26,5.49Z" transform="translate(-32 -18)"/><path class="cls-68" d="M562.22,219.29l-7,1.91a2.85,2.85,0,1,1-1.51-5.5h0l7-1.9a2.85,2.85,0,0,1,1.5,5.49Z" transform="translate(-32 -18)"/><path class="cls-68" d="M539.26,226l-6.86,2.24a2.88,2.88,0,1,1-1.79-5.48h0l6.86-2.23a2.88,2.88,0,0,1,1.78,5.47Z" transform="translate(-32 -18)"/><path class="cls-68" d="M516.67,233.81l-6.74,2.59a2.91,2.91,0,1,1-2.09-5.43h0l6.74-2.58a2.9,2.9,0,0,1,2.08,5.42Z" transform="translate(-32 -18)"/><path class="cls-68" d="M494.54,242.82l-6.58,3a2.93,2.93,0,1,1-2.41-5.35h0l6.58-2.95a2.93,2.93,0,0,1,2.4,5.35Z" transform="translate(-32 -18)"/><path class="cls-68" d="M473,253.08l-6.38,3.36a3,3,0,1,1-2.77-5.24h0l6.39-3.35a3,3,0,0,1,2.75,5.23Z" transform="translate(-32 -18)"/><path class="cls-68" d="M452.14,264.67,446,268.45a3,3,0,0,1-3.13-5.1h0l6.16-3.77a3,3,0,0,1,3.11,5.09Z" transform="translate(-32 -18)"/><path class="cls-68" d="M432.13,277.63l-5.88,4.19a3,3,0,1,1-3.5-4.91h0l5.88-4.18a3,3,0,0,1,3.5,4.91Z" transform="translate(-32 -18)"/><path class="cls-68" d="M413.08,292l-5.56,4.6a3,3,0,1,1-3.86-4.66h0l5.56-4.59a3,3,0,0,1,3.86,4.66Z" transform="translate(-32 -18)"/><path class="cls-68" d="M395.1,307.63l-5.17,5a3,3,0,1,1-4.23-4.36h0l5.23-5a3,3,0,1,1,4.2,4.38Z" transform="translate(-32 -18)"/><path class="cls-68" d="M378.36,324.56l-4.83,5.35a3,3,0,0,1-4.53-4.08h0l4.83-5.35a3,3,0,0,1,4.52,4.08Z" transform="translate(-32 -18)"/><path class="cls-68" d="M362.82,342.63l-4.46,5.68a3.06,3.06,0,0,1-4.81-3.78h0l4.47-5.67a3.05,3.05,0,0,1,4.8,3.77Z" transform="translate(-32 -18)"/><path class="cls-68" d="M348.52,361.72l-4.08,5.95a3.06,3.06,0,1,1-5.06-3.46h0l4.08-5.94a3.06,3.06,0,0,1,5.06,3.46Z" transform="translate(-32 -18)"/><path class="cls-68" d="M335.47,381.7l-3.69,6.19a3.08,3.08,0,0,1-5.29-3.15h0l3.7-6.19a3.07,3.07,0,1,1,5.28,3.15Z" transform="translate(-32 -18)"/><path class="cls-68" d="M323.68,402.45l-3.31,6.4a3.08,3.08,0,1,1-5.48-2.83h0l3.32-6.41a3.08,3.08,0,1,1,5.47,2.84Z" transform="translate(-32 -18)"/><path class="cls-68" d="M313.14,423.87l-2.94,6.59a3.1,3.1,0,0,1-5.66-2.53h0l2.95-6.59a3.1,3.1,0,0,1,5.65,2.53Z" transform="translate(-32 -18)"/><path class="cls-68" d="M303.83,445.86l-2.58,6.74a3.11,3.11,0,0,1-5.8-2.22h0l2.58-6.74a3.11,3.11,0,1,1,5.8,2.22Z" transform="translate(-32 -18)"/><path class="cls-68" d="M295.72,468.33l-2.21,6.87a3.12,3.12,0,0,1-5.93-1.91h0l2.22-6.87a3.11,3.11,0,1,1,5.92,1.91Z" transform="translate(-32 -18)"/><path class="cls-68" d="M288.81,491.2l-1.85,7a3.13,3.13,0,0,1-6-1.61h0l1.86-7a3.12,3.12,0,0,1,6,1.61Z" transform="translate(-32 -18)"/><path class="cls-68" d="M283.08,514.4l-1.51,7.06a3.13,3.13,0,0,1-6.13-1.31h0l1.51-7.06a3.13,3.13,0,0,1,6.13,1.31Z" transform="translate(-32 -18)"/><path class="cls-68" d="M278.5,537.86,277.34,545a3.14,3.14,0,1,1-6.2-1h0l1.16-7.12a3.14,3.14,0,1,1,6.2,1Z" transform="translate(-32 -18)"/><path class="cls-68" d="M275.07,561.51l-.82,7.17A3.15,3.15,0,1,1,268,568h0l.82-7.17a3.15,3.15,0,0,1,6.26.71Z" transform="translate(-32 -18)"/><path class="cls-68" d="M272.77,585.31l-.47,7.2a3.17,3.17,0,0,1-6.32-.42h0l.48-7.2a3.16,3.16,0,0,1,6.31.42Z" transform="translate(-32 -18)"/><path class="cls-68" d="M271.6,609.18l-.13,7.22a3.17,3.17,0,0,1-6.34-.12h0l.13-7.21a3.17,3.17,0,0,1,6.34.11Z" transform="translate(-32 -18)"/><path class="cls-68" d="M271.56,633.09l.22,7.21a3.19,3.19,0,0,1-6.37.19h0l-.2-7.21a3.18,3.18,0,1,1,6.35-.18Z" transform="translate(-32 -18)"/><path class="cls-68" d="M272.66,657l.56,7.2a3.19,3.19,0,0,1-6.37.49h0l-.55-7.2a3.19,3.19,0,0,1,6.36-.49Z" transform="translate(-32 -18)"/><path class="cls-68" d="M274.9,680.76l.91,7.16a3.21,3.21,0,0,1-6.36.8h0l-.9-7.16a3.2,3.2,0,1,1,6.35-.8Z" transform="translate(-32 -18)"/><path class="cls-68" d="M278.3,704.41l1.26,7.11a3.21,3.21,0,0,1-6.33,1.12h0l-1.25-7.1a3.21,3.21,0,1,1,6.32-1.12Z" transform="translate(-32 -18)"/><path class="cls-68" d="M282.88,727.86l1.61,7a3.22,3.22,0,1,1-6.28,1.45h0l-1.61-7a3.22,3.22,0,0,1,6.28-1.44Z" transform="translate(-32 -18)"/><path class="cls-68" d="M288.65,751l2,6.93a3.23,3.23,0,1,1-6.21,1.78h0l-2-6.94a3.23,3.23,0,1,1,6.21-1.77Z" transform="translate(-32 -18)"/><path class="cls-68" d="M295.66,773.86l2.36,6.82a3.24,3.24,0,1,1-6.12,2.12h0L289.54,776a3.24,3.24,0,0,1,6.12-2.12Z" transform="translate(-32 -18)"/><path class="cls-68" d="M303.92,796.25l2.75,6.67a3.25,3.25,0,1,1-6,2.48h0l-2.74-6.67a3.25,3.25,0,0,1,6-2.48Z" transform="translate(-32 -18)"/><path class="cls-68" d="M313.47,818.11l3.15,6.5a3.26,3.26,0,1,1-5.86,2.84h0l-3.14-6.5a3.26,3.26,0,0,1,5.86-2.84Z" transform="translate(-32 -18)"/><path class="cls-68" d="M324.31,839.39l3.49,6.32a3.27,3.27,0,0,1-5.73,3.16h0l-3.48-6.32a3.27,3.27,0,0,1,5.72-3.16Z" transform="translate(-32 -18)"/><path class="cls-68" d="M336.21,860.11l3.79,6.15a3.28,3.28,0,1,1-5.58,3.44h0l-3.79-6.15a3.28,3.28,0,0,1,5.58-3.44Z" transform="translate(-32 -18)"/><path class="cls-68" d="M349.1,880.24l4.08,6a3.29,3.29,0,0,1-5.43,3.71h0l-4.07-6a3.28,3.28,0,0,1,5.42-3.71Z" transform="translate(-32 -18)"/><path class="cls-68" d="M362.93,899.73l4.35,5.76a3.3,3.3,0,1,1-5.26,4h0l-4.35-5.76a3.3,3.3,0,0,1,5.26-4Z" transform="translate(-32 -18)"/><path class="cls-68" d="M377.66,918.55l4.62,5.54a3.31,3.31,0,1,1-5.08,4.24h0l-4.62-5.55a3.31,3.31,0,1,1,5.08-4.23Z" transform="translate(-32 -18)"/><path class="cls-68" d="M393.26,936.66l4.88,5.32a3.32,3.32,0,0,1-4.9,4.48h0l-4.87-5.33a3.31,3.31,0,0,1,4.89-4.47Z" transform="translate(-32 -18)"/><path class="cls-68" d="M409.69,954l5.12,5.09a3.33,3.33,0,0,1-4.7,4.72h0L405,958.73a3.33,3.33,0,0,1,4.69-4.72Z" transform="translate(-32 -18)"/><path class="cls-68" d="M426.91,970.59l5.35,4.84a3.34,3.34,0,0,1-4.48,5h0l-5.35-4.84a3.33,3.33,0,0,1,4.48-4.94Z" transform="translate(-32 -18)"/><path class="cls-68" d="M444.88,986.33l5.57,4.59a3.35,3.35,0,1,1-4.25,5.17h0l-5.57-4.59a3.34,3.34,0,0,1,4.25-5.16Z" transform="translate(-32 -18)"/><path class="cls-68" d="M463.58,1001.21l5.78,4.32a3.36,3.36,0,1,1-4,5.38h0l-5.78-4.32a3.35,3.35,0,1,1,4-5.37Z" transform="translate(-32 -18)"/><path class="cls-68" d="M483,1015.18l6,4a3.36,3.36,0,1,1-3.76,5.58h0l-6-4a3.36,3.36,0,0,1,3.76-5.57Z" transform="translate(-32 -18)"/><path class="cls-68" d="M503,1028.2l6.17,3.73a3.37,3.37,0,0,1-3.49,5.77h0l-6.17-3.74a3.37,3.37,0,1,1,3.49-5.76Z" transform="translate(-32 -18)"/><path class="cls-68" d="M523.64,1040.21l6.36,3.42a3.38,3.38,0,0,1-3.21,6h0l-6.35-3.43a3.38,3.38,0,0,1,3.21-6Z" transform="translate(-32 -18)"/><path class="cls-68" d="M544.86,1051.17l6.52,3.1a3.39,3.39,0,1,1-2.91,6.12h0l-6.51-3.1a3.39,3.39,0,0,1,2.91-6.12Z" transform="translate(-32 -18)"/><path class="cls-68" d="M566.61,1061l6.67,2.76a3.4,3.4,0,0,1-2.6,6.28h0l-6.67-2.76a3.4,3.4,0,1,1,2.6-6.28Z" transform="translate(-32 -18)"/><path class="cls-68" d="M588.83,1069.74l6.81,2.4a3.41,3.41,0,0,1-2.27,6.44h0l-6.8-2.4a3.41,3.41,0,0,1,2.26-6.43Z" transform="translate(-32 -18)"/><path class="cls-68" d="M611.49,1077.25l6.92,2a3.42,3.42,0,1,1-1.92,6.57h0l-6.92-2a3.42,3.42,0,1,1,1.92-6.56Z" transform="translate(-32 -18)"/><path class="cls-68" d="M634.52,1083.51l7,1.64a3.43,3.43,0,0,1-1.55,6.68h0l-7-1.64a3.43,3.43,0,0,1,1.56-6.68Z" transform="translate(-32 -18)"/><path class="cls-68" d="M657.85,1088.48l7.11,1.24a3.44,3.44,0,1,1-1.18,6.77h0l-7.11-1.24a3.44,3.44,0,0,1,1.18-6.77Z" transform="translate(-32 -18)"/><path class="cls-68" d="M681.43,1092.1l7.17.83a3.45,3.45,0,0,1-.79,6.85h0l-7.17-.83a3.45,3.45,0,1,1,.79-6.85Z" transform="translate(-32 -18)"/><path class="cls-68" d="M705.17,1094.35l7.21.41a3.46,3.46,0,1,1-.39,6.9h0l-7.21-.41a3.46,3.46,0,0,1,.39-6.9Z" transform="translate(-32 -18)"/><path class="cls-68" d="M729,1095.2l7.19,0h0a3.47,3.47,0,0,1,0,6.94H729a3.46,3.46,0,1,1,0-6.92Z" transform="translate(-32 -18)"/><path class="cls-68" d="M752.87,1094.67l7.21-.4a3.48,3.48,0,0,1,.38,7h0l-7.21.39a3.48,3.48,0,0,1-.38-6.94Z" transform="translate(-32 -18)"/><path class="cls-68" d="M776.69,1092.93l7.17-.76a3.49,3.49,0,0,1,.74,6.94h0l-7.17.75a3.48,3.48,0,0,1-.73-6.93Z" transform="translate(-32 -18)"/><path class="cls-68" d="M800.4,1090l7.13-1.1a3.5,3.5,0,0,1,1.06,6.91h0l-7.13,1.09a3.49,3.49,0,1,1-1.06-6.9Z" transform="translate(-32 -18)"/><path class="cls-68" d="M824,1086l7.07-1.43a3.5,3.5,0,1,1,1.38,6.87h0l-7.07,1.42A3.5,3.5,0,1,1,824,1086Z" transform="translate(-32 -18)"/><path class="cls-68" d="M847.3,1080.92l7-1.73A3.51,3.51,0,0,1,856,1086h0l-7,1.73a3.51,3.51,0,1,1-1.68-6.82Z" transform="translate(-32 -18)"/><path class="cls-68" d="M870.43,1074.86l6.93-2a3.52,3.52,0,0,1,2,6.77h0l-6.93,2a3.52,3.52,0,0,1-2-6.76Z" transform="translate(-32 -18)"/><path class="cls-68" d="M893.31,1067.88l6.85-2.28a3.53,3.53,0,0,1,2.22,6.71h0l-6.85,2.27a3.53,3.53,0,1,1-2.22-6.7Z" transform="translate(-32 -18)"/><path class="cls-68" d="M915.92,1060.05l6.77-2.51a3.54,3.54,0,1,1,2.46,6.64h0l-6.77,2.51a3.54,3.54,0,0,1-2.46-6.64Z" transform="translate(-32 -18)"/><path class="cls-68" d="M938.26,1051.45l6.68-2.73a3.55,3.55,0,0,1,2.69,6.57h0L941,1058a3.55,3.55,0,1,1-2.69-6.57Z" transform="translate(-32 -18)"/><path class="cls-68" d="M960.32,1042.14l6.59-2.94a3.56,3.56,0,0,1,2.9,6.51h0l-6.6,2.93a3.56,3.56,0,0,1-2.89-6.5Z" transform="translate(-32 -18)"/><path class="cls-68" d="M982.11,1032.18l6.51-3.12a3.57,3.57,0,1,1,3.08,6.44h0l-6.51,3.12a3.57,3.57,0,0,1-3.08-6.44Z" transform="translate(-32 -18)"/><path class="cls-68" d="M1003.63,1021.64l6.43-3.28a3.58,3.58,0,1,1,3.25,6.37h0l-6.43,3.28a3.58,3.58,0,0,1-3.25-6.37Z" transform="translate(-32 -18)"/><path class="cls-68" d="M1024.89,1010.56l6.35-3.42a3.59,3.59,0,1,1,3.41,6.31h0l-6.36,3.42a3.58,3.58,0,0,1-3.4-6.31Z" transform="translate(-32 -18)"/><path class="cls-68" d="M1045.91,999l6.27-3.57a3.6,3.6,0,1,1,3.55,6.26h0l-6.28,3.56a3.59,3.59,0,1,1-3.54-6.25Z" transform="translate(-32 -18)"/><path class="cls-68" d="M1066.69,987l6.21-3.68a3.61,3.61,0,0,1,3.68,6.21h0l-6.21,3.67a3.6,3.6,0,0,1-3.67-6.2Z" transform="translate(-32 -18)"/><path class="cls-68" d="M1087.26,974.69l6.15-3.79a3.62,3.62,0,0,1,3.79,6.16h0l-6.15,3.78a3.61,3.61,0,0,1-3.78-6.15Z" transform="translate(-32 -18)"/><path class="cls-68" d="M1107.63,962l6.09-3.88a3.63,3.63,0,1,1,3.89,6.12h0l-6.09,3.87a3.62,3.62,0,0,1-3.89-6.11Z" transform="translate(-32 -18)"/><path class="cls-68" d="M1127.83,949l6-3.94a3.62,3.62,0,0,1,4,6l-6,4a3.63,3.63,0,0,1-4-6.07Z" transform="translate(-32 -18)"/><path class="cls-68" d="M1147.89,935.81l6-4a3.6,3.6,0,0,1,4,6l-6,4a3.61,3.61,0,0,1-4-6Z" transform="translate(-32 -18)"/><path class="cls-68" d="M1167.81,922.38l6-4.07a3.58,3.58,0,1,1,4,5.91l-6,4.08a3.59,3.59,0,0,1-4-5.92Z" transform="translate(-32 -18)"/><path class="cls-68" d="M1187.63,908.78l5.93-4.1a3.56,3.56,0,0,1,4.06,5.86l-5.93,4.11a3.57,3.57,0,1,1-4.07-5.86Z" transform="translate(-32 -18)"/><path class="cls-68" d="M1207.39,895.09l5.93-4.12a3.55,3.55,0,0,1,4,5.82l-5.92,4.13a3.55,3.55,0,0,1-4.06-5.82Z" transform="translate(-32 -18)"/><path class="cls-68" d="M1227.13,881.35l5.93-4.12a3.52,3.52,0,1,1,4,5.78l-5.91,4.14a3.53,3.53,0,1,1-4-5.79Z" transform="translate(-32 -18)"/><path class="cls-68" d="M1246.88,867.61l5.93-4.12a3.51,3.51,0,0,1,4,5.76l-5.93,4.13a3.51,3.51,0,0,1-4-5.77Z" transform="translate(-32 -18)"/><path class="cls-68" d="M1266.67,853.9l5.94-4.09a3.49,3.49,0,1,1,4,5.74l-5.93,4.11a3.5,3.5,0,1,1-4-5.76Z" transform="translate(-32 -18)"/><path class="cls-68" d="M1286.52,840.28l6-4.06a3.47,3.47,0,0,1,3.91,5.73l-6,4.07a3.48,3.48,0,0,1-3.92-5.74Z" transform="translate(-32 -18)"/><path class="cls-68" d="M1306.46,826.78l6-4a3.45,3.45,0,1,1,3.84,5.73l-6,4a3.46,3.46,0,0,1-3.85-5.75Z" transform="translate(-32 -18)"/><path class="cls-68" d="M1326.53,813.45l6-4a3.44,3.44,0,0,1,3.76,5.75l-6,4a3.44,3.44,0,0,1-3.78-5.76Z" transform="translate(-32 -18)"/><path class="cls-68" d="M1346.75,800.34l6.09-3.87a3.41,3.41,0,0,1,3.67,5.76l-6.08,3.88a3.42,3.42,0,0,1-3.69-5.77Z" transform="translate(-32 -18)"/><path class="cls-68" d="M1367.15,787.5l6.14-3.79a3.4,3.4,0,1,1,3.57,5.79l-6.14,3.79a3.4,3.4,0,0,1-3.58-5.79Z" transform="translate(-32 -18)"/><path class="cls-68" d="M1387.75,775l6.21-3.68a3.38,3.38,0,0,1,3.45,5.81l-6.2,3.69a3.39,3.39,0,0,1-3.46-5.82Z" transform="translate(-32 -18)"/><path class="cls-68" d="M1408.58,762.81l6.28-3.56a3.36,3.36,0,0,1,3.32,5.85l-6.27,3.56a3.37,3.37,0,1,1-3.33-5.85Z" transform="translate(-32 -18)"/><path class="cls-68" d="M1429.66,751.07l6.36-3.42a3.34,3.34,0,1,1,3.17,5.88l-6.35,3.43a3.35,3.35,0,1,1-3.18-5.89Z" transform="translate(-32 -18)"/><path class="cls-68" d="M1451,739.81l6.44-3.27a3.33,3.33,0,0,1,3,5.93l-6.43,3.28a3.33,3.33,0,1,1-3-5.94Z" transform="translate(-32 -18)"/><path class="cls-68" d="M1472.64,729.09l6.53-3.1a3.31,3.31,0,0,1,2.83,6l-6.51,3.1a3.31,3.31,0,1,1-2.85-6Z" transform="translate(-32 -18)"/><path class="cls-68" d="M1494.57,719l6.61-2.9a3.29,3.29,0,0,1,2.65,6l-6.61,2.91a3.29,3.29,0,1,1-2.65-6Z" transform="translate(-32 -18)"/><path class="cls-68" d="M1516.8,709.5l6.7-2.69a3.27,3.27,0,0,1,2.44,6.07l-6.69,2.7a3.28,3.28,0,1,1-2.45-6.08Z" transform="translate(-32 -18)"/><path class="cls-68" d="M1539.33,700.76l6.78-2.46a3.25,3.25,0,0,1,2.23,6.11l-6.79,2.47a3.26,3.26,0,0,1-2.23-6.12Z" transform="translate(-32 -18)"/><path class="cls-68" d="M1562.15,692.8l6.87-2.21a3.23,3.23,0,0,1,2,6.15l-6.86,2.22a3.24,3.24,0,1,1-2-6.16Z" transform="translate(-32 -18)"/><path class="cls-68" d="M1585.25,685.69l7-2a3.21,3.21,0,0,1,1.74,6.19h0l-6.93,2h0a3.22,3.22,0,1,1-1.75-6.2Z" transform="translate(-32 -18)"/><path class="cls-68" d="M1608.68,679.53l7-1.6a3.2,3.2,0,0,1,1.43,6.23l-7,1.61a3.2,3.2,0,0,1-1.44-6.24Z" transform="translate(-32 -18)"/><path class="cls-68" d="M1632.41,674.6l7.11-1.2a3.18,3.18,0,1,1,1.06,6.27l-7.11,1.21a3.19,3.19,0,0,1-1.07-6.28Z" transform="translate(-32 -18)"/><path class="cls-68" d="M1656.41,671.11l7.18-.74a3.16,3.16,0,0,1,.65,6.29l-7.18.74a3.16,3.16,0,0,1-.65-6.29Z" transform="translate(-32 -18)"/><path class="cls-68" d="M1680.64,669.27l7.21-.18a3.14,3.14,0,1,1,.16,6.28l-7.21.19a3.15,3.15,0,1,1-.17-6.29Z" transform="translate(-32 -18)"/><path class="cls-68" d="M1705,669.38l7.2.45a3.12,3.12,0,1,1-.38,6.23l-7.21-.44a3.13,3.13,0,1,1,.39-6.24Z" transform="translate(-32 -18)"/><path class="cls-68" d="M1729.21,671.74l7.12,1.19a3.1,3.1,0,0,1-1,6.12l-7.12-1.17a3.11,3.11,0,0,1,1-6.14Z" transform="translate(-32 -18)"/><path class="cls-68" d="M1753.11,676.7l6.93,2a3.09,3.09,0,1,1-1.71,5.93l-6.93-2a3.09,3.09,0,1,1,1.7-5.94Z" transform="translate(-32 -18)"/><path class="cls-68" d="M1776.26,684.52l6.62,2.88a3.06,3.06,0,1,1-2.44,5.62l-6.63-2.86a3.07,3.07,0,1,1,2.45-5.64Z" transform="translate(-32 -18)"/><path class="cls-68" d="M1798.2,695.35l6.15,3.77a3,3,0,0,1-3.18,5.2l-6.16-3.76a3.06,3.06,0,1,1,3.18-5.22Z" transform="translate(-32 -18)"/><path class="cls-68" d="M1818.4,709.14l5.57,4.59a3,3,0,0,1-3.85,4.69l-5.58-4.58a3,3,0,0,1,3.85-4.7Z" transform="translate(-32 -18)"/><path class="cls-68" d="M1836.51,725.55l4.92,5.28a3,3,0,0,1-4.4,4.1l-4.93-5.26a3,3,0,1,1,4.4-4.13Z" transform="translate(-32 -18)"/><path class="cls-68" d="M1852.33,744.13l4.23,5.85a2.95,2.95,0,0,1-4.77,3.47l-4.26-5.83a3,3,0,0,1,4.8-3.5Z" transform="translate(-32 -18)"/><path class="cls-68" d="M1865.79,764.47l3.52,6.3a2.9,2.9,0,0,1-5.06,2.83l-3.54-6.28a2.91,2.91,0,1,1,5.07-2.86Z" transform="translate(-32 -18)"/><path class="cls-68" d="M1876.8,786.2l2.79,6.66a2.85,2.85,0,0,1-5.25,2.21l-2.81-6.65a2.86,2.86,0,0,1,5.27-2.23Z" transform="translate(-32 -18)"/><path class="cls-68" d="M1885.31,809l2,6.93a2.79,2.79,0,0,1-5.35,1.58l-2.06-6.92a2.81,2.81,0,0,1,5.39-1.6Z" transform="translate(-32 -18)"/><path class="cls-68" d="M1891.22,832.65l1.25,7.11a2.74,2.74,0,0,1-5.39,1l-1.29-7.1a2.75,2.75,0,0,1,5.42-1Z" transform="translate(-32 -18)"/><path class="cls-68" d="M1894.6,856.73l.53,7.2a2.68,2.68,0,1,1-5.35.41l-.57-7.19a2.7,2.7,0,1,1,5.38-.43Z" transform="translate(-32 -18)"/><path class="cls-68" d="M1895.59,881l-.14,7.22a2.63,2.63,0,0,1-5.26-.09l.11-7.22a2.65,2.65,0,1,1,5.29.08Z" transform="translate(-32 -18)"/><path class="cls-68" d="M1894.35,905.26l-.77,7.17a2.58,2.58,0,0,1-5.13-.54l.74-7.18a2.6,2.6,0,0,1,5.17.54Z" transform="translate(-32 -18)"/><path class="cls-68" d="M1891,929.29l-1.36,7.09a2.53,2.53,0,0,1-5-1l1.34-7.09a2.54,2.54,0,1,1,5,.94Z" transform="translate(-32 -18)"/><path class="cls-68" d="M1885.8,953l-1.91,7a2.47,2.47,0,0,1-4.77-1.3l1.88-7a2.49,2.49,0,1,1,4.8,1.29Z" transform="translate(-32 -18)"/><path class="cls-68" d="M1878.77,976.15l-2.42,6.8a2.42,2.42,0,0,1-4.56-1.61l2.39-6.81a2.44,2.44,0,0,1,4.6,1.61Z" transform="translate(-32 -18)"/><circle class="cls-69" cx="1790.71" cy="163.4" r="100.28" transform="translate(376.94 1296.08) rotate(-45)"/><circle class="cls-70" cx="1758.71" cy="145.4" r="96.94"/><path class="cls-10" d="M1701.34,159.68h0a1,1,0,0,1-1-1.07,90,90,0,0,1,1.32-11.37,1,1,0,0,1,1.18-.83,1,1,0,0,1,.83,1.19,89.76,89.76,0,0,0-1.29,11.11A1,1,0,0,1,1701.34,159.68Z" transform="translate(-32 -18)"/><path class="cls-10" d="M1710.77,124.15a1,1,0,0,1-.46-.11,1,1,0,0,1-.45-1.37A90.65,90.65,0,0,1,1807,74.36a1,1,0,0,1,.83,1.19,1,1,0,0,1-1.19.82,89.54,89.54,0,0,0-16-1.43,88.1,88.1,0,0,0-79,48.65A1,1,0,0,1,1710.77,124.15Z" transform="translate(-32 -18)"/><circle class="cls-5" cx="1792.82" cy="165.51" r="82.05" transform="translate(376.07 1298.19) rotate(-45)"/><path class="cls-71" d="M1816.87,133.07c0,14.37-11.65,29.89-26,29.89s-26-15.52-26-29.89,11.65-24.57,26-24.57S1816.87,118.7,1816.87,133.07Z" transform="translate(-32 -18)"/><path class="cls-72" d="M1758.55,218.3h63.53a15.38,15.38,0,0,0,14.65-10.69l3.41-10.69a15.35,15.35,0,0,0-9.28-19.11c-25.85-9.46-52.59-8.24-80,.87a15.32,15.32,0,0,0-9.82,18.56l2.64,9.71A15.37,15.37,0,0,0,1758.55,218.3Z" transform="translate(-32 -18)"/><circle class="cls-73" cx="710.44" cy="175.61" r="100.28" transform="translate(445.65 851.43) rotate(-85.34)"/><circle class="cls-74" cx="710.44" cy="175.61" r="96.94" transform="translate(51.91 535.8) rotate(-45)"/><path class="cls-10" d="M621.08,171.89H621a1,1,0,0,1-1-1.08,92,92,0,0,1,1.31-11.37,1,1,0,0,1,2,.37,89.76,89.76,0,0,0-1.29,11.11A1,1,0,0,1,621.08,171.89Z" transform="translate(-32 -18)"/><path class="cls-10" d="M630.51,136.37a1,1,0,0,1-.92-1.49A90.14,90.14,0,0,1,710.44,85.1a91.75,91.75,0,0,1,16.33,1.47,1,1,0,1,1-.37,2,88.58,88.58,0,0,0-95,47.22A1,1,0,0,1,630.51,136.37Z" transform="translate(-32 -18)"/><circle class="cls-5" cx="712.56" cy="177.73" r="82.05" transform="translate(51.03 537.91) rotate(-45)"/><path class="cls-75" d="M736.61,145.29c0,14.37-11.65,29.89-26,29.89s-26-15.52-26-29.89,11.65-24.57,26-24.57S736.61,130.91,736.61,145.29Z" transform="translate(-32 -18)"/><path class="cls-76" d="M678.29,230.51h63.53a15.38,15.38,0,0,0,14.64-10.69l3.42-10.68A15.36,15.36,0,0,0,750.6,190c-25.85-9.45-52.59-8.24-80,.87a15.33,15.33,0,0,0-9.81,18.57l2.63,9.7A15.38,15.38,0,0,0,678.29,230.51Z" transform="translate(-32 -18)"/><path class="cls-77" d="M1827.26,1087.13s-27.3,92.74,64.35,139.82l22.86-11.61s-71.06-52.57-77.18-116.88a6,6,0,0,1,4.17-6.35l20.4-11.06c3.32-1,5.19-7.53,6.91-10.55l4.13-23.09Z" transform="translate(-32 -18)"/><circle class="cls-78" cx="1790.14" cy="967.6" r="127.3" transform="translate(601.64 2623.92) rotate(-83.76)"/><circle class="cls-79" cx="1790.14" cy="967.6" r="123.07" transform="translate(-191.88 1531.22) rotate(-45)"/><path class="cls-14" d="M1688.65,917.83a1.42,1.42,0,0,1-.6-.14,1.35,1.35,0,0,1-.6-1.82,114.47,114.47,0,0,1,102.69-63.23,115.74,115.74,0,0,1,20.73,1.87,1.35,1.35,0,1,1-.48,2.66,113.22,113.22,0,0,0-20.25-1.82,111.81,111.81,0,0,0-100.28,61.74A1.34,1.34,0,0,1,1688.65,917.83Z" transform="translate(-32 -18)"/><circle class="cls-14" cx="1792.82" cy="970.28" r="104.16" transform="translate(-192.99 1533.9) rotate(-45)"/><path class="cls-80" d="M1782.6,1047.72v-11.34a92.4,92.4,0,0,1-31.8-6.89,6.55,6.55,0,0,1-3.63-7.74l2.88-10.56a6.61,6.61,0,0,1,9-4.32,76.79,76.79,0,0,0,29.36,6.18c11.38,0,19.87-3.86,19.87-11.77,0-7.13-6.56-11.37-22.38-15.62-22.56-6.17-38.76-16-38.76-35.87,0-17.93,13.11-31.63,35.87-35.29V903.17a6.61,6.61,0,0,1,6.6-6.61h6.66a6.61,6.61,0,0,1,6.61,6.61v10.17a84.3,84.3,0,0,1,25.2,4.53,6.56,6.56,0,0,1,4.1,7.93l-2.64,9.76a6.59,6.59,0,0,1-8.7,4.45,68.66,68.66,0,0,0-24.71-4.49c-13.5,0-17.36,5.59-17.36,10.61,0,6.17,8.1,10.41,25.65,15.81,25.07,7.52,35.48,17.94,35.48,36.64,0,17.17-12.72,32.6-37.41,36.45v12.69a6.61,6.61,0,0,1-6.6,6.6h-6.66A6.6,6.6,0,0,1,1782.6,1047.72Z" transform="translate(-32 -18)"/><path class="cls-81" d="M1906.17,1431.77s48.22,105.08,73.51,148.61c0,0,5,27.39,0,36l-4.28,1.9,20-.59s1.77-36.84.38-38.9a5.06,5.06,0,0,0-4.15-1.92s-8.57-67.89-33.39-82.38l-24-82.83Z" transform="translate(-32 -18)"/><path class="cls-82" d="M1966.87,1623.44c0,.48,15.6.26,24.1.11a6.75,6.75,0,0,0,6.47-5.33l6.42-33.69a6.07,6.07,0,0,0-4.61-7l-3.57-.82s-5.11,7-3.5,13.6,3,23.68-1,25.67-15.75,2.34-15.75,2.34S1967.14,1619.1,1966.87,1623.44Z" transform="translate(-32 -18)"/><path class="cls-83" d="M1860.47,1624.05a1.77,1.77,0,0,0,.89,3.3c14.22-.14,46.06-.59,48.89-1.77,3.66-1.52-1.33-14.65-6.58-19.09l-29,9.45Z" transform="translate(-32 -18)"/><path class="cls-84" d="M1851.48,1425.07s31.16,150.73,40,180.13l-20.85,13.08s10.45-1.77,18.2-2.34,14.87-9.45,14.87-9.45l-2.49-4s-7.82-149.91-5.91-166.94Z" transform="translate(-32 -18)"/><path class="cls-85" d="M1774.14,1073.49s-4.3,78.4,67.08,118.47l-17.18,39.2s-64.55-39-62.25-145.5a12.63,12.63,0,0,0-3-8.56L1745,1061.16a24.65,24.65,0,0,1-5.25-22.08l1.81-7.23a3.75,3.75,0,0,1,5.52-2.33l1.44.83a25.29,25.29,0,0,1,10.35,11.51l6.9,10.89c1.9,4.25,11.85,7.8,16.61,9.29a1.57,1.57,0,0,1,.64,2.62Z" transform="translate(-32 -18)"/><path class="cls-86" d="M1838.74,1186.09c11.94,3.31,52.4,14,77.66,13.52l-15.51,87.51,1.24,14.28-50.57-.23s-14.23-33.06-25.46-49.54c-3.24-4.76-.83-10.44,1-15.89l-2.53-1.69a6.87,6.87,0,0,1-2.72-7.86l12.31-37.67A3.75,3.75,0,0,1,1838.74,1186.09Z" transform="translate(-32 -18)"/><path class="cls-87" d="M1847.51,1293.7l1,8.65s-14.29,42.79,7.14,142.74c0,0,46.42,13.15,84.58-18.32,0,0-10.77-94.33-13.71-98.73-14.64-21.89-24.39-26.64-24.39-26.64l-.44-9.45S1860.88,1299.33,1847.51,1293.7Z" transform="translate(-32 -18)"/><path class="cls-88" d="M1867.31,1193.14c-.18-.24,10.55-32.41,10.55-32.41l15.38,1.4,6,36.49S1875.15,1203.49,1867.31,1193.14Z" transform="translate(-32 -18)"/><path class="cls-89" d="M1889.56,1110c-1,.63-32.86,13.79-26,46.83a6.18,6.18,0,0,0,3.53,4.42,53.87,53.87,0,0,0,26.75,4.43c16.68-1.69,27.6-30.79,27.14-39.26S1899.72,1103.67,1889.56,1110Z" transform="translate(-32 -18)"/><path class="cls-5" d="M1899.34,1093.29c-1.06.14-23.21,7.85-12.23,23.9s15.11,25.5,9.91,32.55c-4.73,6.42-15.21,2.76-14.3,16.12a7.49,7.49,0,0,1-3.19,6.77c-9.88,6.69-34,27.28-10.11,56.63a7.48,7.48,0,0,1,.85,8.37c-7,12.55-21.69,49.3,31.5,69.69,52.57,20.15,71.55-14.21,76.85-28a7.32,7.32,0,0,1,7.25-4.63c5.78.27,14-.69,13.59-8.41-.23-4.69-3.15-8.89-6.61-12.26a7.32,7.32,0,0,1,1.41-11.53,14.38,14.38,0,0,0,7.08-8.91c3.19-11.81-3.17-47.1-37-53.08-2.83-.5-5.78-3.15-6.19-6,0,0,0-.09,0-.13a7.3,7.3,0,0,1,2.71-7.19c5.41-4,12.33-11.94,6.71-24.74-5-11.35-14.56-15.17-21.67-16.39a7.37,7.37,0,0,1-6-8.81C1942.23,1106,1940.14,1087.94,1899.34,1093.29Z" transform="translate(-32 -18)"/><path class="cls-90" d="M718.23,1056.92s-12.48,6.06-14.77,13c-1.84,5.6-15.63,6.32-17,17.32a12.64,12.64,0,0,1-10.57,11.09c-14.08,2.16-35.79,9.47-39.26,33.93-2.65,18.67,6.86,25.75,16.85,28.2a14.15,14.15,0,0,1,10.73,16.34c-1.43,7.1.7,15.31,13,21.8,27.58,14.56,55.12-34.47,55.12-34.47l5.64-85.6Z" transform="translate(-32 -18)"/><path class="cls-91" d="M848,1011.77s-35.49,96.74-95.95,127c0,0,20.13,32.84,30.63,34.83,0,0,64.59-82.67,71.17-150.4Z" transform="translate(-32 -18)"/><path class="cls-92" d="M604.88,1593.66l-1.79,14.67a6.06,6.06,0,0,1-5.31,5.3,93.7,93.7,0,0,1-19.64.31,5.21,5.21,0,0,1-4.36-6.74c1.8-5.66,5.1-14.16,9.85-19.16H599.9A5,5,0,0,1,604.88,1593.66Z" transform="translate(-32 -18)"/><path class="cls-93" d="M732.34,1421.8l2.74,16.16s-9.19,93.17-10.83,130.44a29.22,29.22,0,0,0,4.32,16.6l16,26-40.65-24-.81-5,6.65-9.15-8.71-104.38a32,32,0,0,1,3.64-17.71l8.41-15.8Z" transform="translate(-32 -18)"/><path class="cls-94" d="M747.24,1614.74h-13a7.82,7.82,0,0,1-6.2-3c-4-5.26-12.42-15.51-16.43-15.78-5.39-.36-4.7,18.82-4.7,18.82h-3l-3.83-23.83a14.09,14.09,0,0,1,7.4-14.74h0s1.23,9.12,7.92,13.15,27.2,18.47,27.2,18.47a18.89,18.89,0,0,1,5.27.14C752,1608.67,751.4,1614.74,747.24,1614.74Z" transform="translate(-32 -18)"/><path class="cls-95" d="M676.66,1429.48S622.77,1531.7,614.21,1555s-11.57,42.81-11.68,44.66c-.18,2.88-3.77,5.64-13.64,5.64-5.1,0-7.6-2-8.82-4a5.77,5.77,0,0,1-.22-5.58c3.12-6.31,13-26.47,16.68-35.61,4.37-10.92,13.78-60.39,18.94-77.59s11-35.86,33.46-53C648.93,1429.48,664.36,1414.37,676.66,1429.48Z" transform="translate(-32 -18)"/><path class="cls-96" d="M710.7,1262c13.9-58.9-21.31-92.22-21.31-92.22,22.22-21.32,62.7-31,62.7-31s38.63,28.24,34,50.35c-2.69,13-27.15,77.6-27.15,77.6S736.36,1277.4,710.7,1262Z" transform="translate(-32 -18)"/><path class="cls-97" d="M679.88,1291.15c5.66-17,30.82-29.16,30.82-29.16,25.66,15.41,48.29,4.7,48.29,4.7s5.07,19.4,1.57,37.42S735.08,1438,735.08,1438c-34.61,7-87.86-7.06-87.86-7.06C669.27,1391.76,674.23,1308.19,679.88,1291.15Z" transform="translate(-32 -18)"/><path class="cls-98" d="M726.84,1099.82l-11.3,50.76c-1.09,4.47,3,3.74,7.51,2.89,7.4-1.4,17-4.27,20.14-10a5.54,5.54,0,0,0,.57-1.92l4.86-35.2a6.33,6.33,0,0,0-3.7-6.64l-9.37-4.16A6.32,6.32,0,0,0,726.84,1099.82Z" transform="translate(-32 -18)"/><path class="cls-99" d="M689.39,1169.77s-78.88,56.44-10.09,115.74a17.83,17.83,0,0,0,7.78,4.51c2.61.77,10.32,6.6,14.22,9.64a2.68,2.68,0,0,0,3.92-.7h0a3.63,3.63,0,0,0,.2-3.5l-9.76-20.65a7.54,7.54,0,0,0-9.78-.43h0a3.72,3.72,0,0,1-5.64-1.27c-5.32-10.83-15.36-42.69,25.74-78.68a4.44,4.44,0,0,0,1-5.41C704.08,1183.47,697.48,1172.45,689.39,1169.77Z" transform="translate(-32 -18)"/><path class="cls-100" d="M740.1,1051.48s13.38,5.66,22.48,25,2.31,28.27-6.23,29.49-21.3,1-34.81-11.45S722.7,1044.78,740.1,1051.48Z" transform="translate(-32 -18)"/><path class="cls-101" d="M730.62,1084.19s-10.1-28.29,15-28.63l5.9,4.13s9.21-15.69-5.9-23.18-32.79-1.3-39.22,19-7.53,34,3.17,43.72,15.1-1.3,15.1-1.3-5.82-9.11-3.45-14,7.84,1,7.84,1Z" transform="translate(-32 -18)"/><path class="cls-102" d="M727.81,1087.35s-5.11-14.58-11.92-8.78,5.54,13.47,10.37,16Z" transform="translate(-32 -18)"/><path class="cls-103" d="M851.44,1029.38c.55,1.72-5.72,4.34-9.42-2.7-.12-3.37-2.18-17.82-.16-20.57,10.74-14.64,31.55-33,31.55-33A5,5,0,0,1,874,980l-10.1,10.52c2.12,3.82,4.69,7,5.9,11.66a14.19,14.19,0,0,1-1.41,10.41,123.24,123.24,0,0,1-6.48,10.6A14,14,0,0,1,851.44,1029.38Z" transform="translate(-32 -18)"/><path class="cls-104" d="M856.83,1022.23l-2.4-.42c.29-1.61,2.86-15.74,5-19.17a4.1,4.1,0,0,0,.88-2.93,1.66,1.66,0,0,0-.65-.86l-8.29,7-2.77,7.47-2.28-.85,3-8.06,10.06-8.53.72.37a4.54,4.54,0,0,1,2.55,2.79c.39,1.38,0,3-1.15,4.85C859.89,1006.48,857.58,1018,856.83,1022.23Z" transform="translate(-32 -18)"/><path class="cls-105" d="M309.51,1172.83s67.12,45.91,81.62,23.84-58.92-88.47-58.92-88.47Z" transform="translate(-32 -18)"/><path class="cls-106" d="M294.51,1605.64a3.5,3.5,0,0,0-.1-1c-5.07-20.1-30.22-32.61-30.22-32.61l-10,.78c-5.73,17.71-5,28.57-4.07,33.41a2.79,2.79,0,0,0,.1.39A235.64,235.64,0,0,0,294.51,1605.64Z" transform="translate(-32 -18)"/><path class="cls-107" d="M250.21,1558l4.23,20.33a3.31,3.31,0,0,0,2.84,2.73,28.48,28.48,0,0,0,6.54-.1,4.18,4.18,0,0,0,3.3-4.91l-2.93-18Z" transform="translate(-32 -18)"/><path class="cls-108" d="M382.81,1604.76a4,4,0,0,0-.24-.46c-5.34-7.46-18.94-22.31-45.8-28.75l-12.89-.41s-5.74,10-5.84,28.45c2.94,1.21,8.63,2.5,19.64,2.81C354.7,1606.88,374.88,1605.41,382.81,1604.76Z" transform="translate(-32 -18)"/><path class="cls-109" d="M321.49,1555.61c.15,1,1.91,15.56,2.6,21.22a2.8,2.8,0,0,0,2.36,2.54,29.48,29.48,0,0,0,8.85-.14,3.8,3.8,0,0,0,2.89-3.83v-22.91Z" transform="translate(-32 -18)"/><path class="cls-110" d="M311.15,1289.16s31.09,118.13,30.52,266.79a5.76,5.76,0,0,1-4.56,5.61,66.83,66.83,0,0,1-14.41,1.66,5.34,5.34,0,0,1-5.09-4.45c-4.36-25.56-29.37-169.55-43.62-192.93,0,0-9.38,128.24-6.38,194.78a3.15,3.15,0,0,1-2.78,3.28,53.49,53.49,0,0,1-11.57,0,4.24,4.24,0,0,1-3.76-3.59c-3.1-21.63-21-150.39-20.21-243.14,0-5.23,13.83-28,13.83-28Z" transform="translate(-32 -18)"/><path class="cls-111" d="M332.56,1108.11c-42.78-6.19-89.77-.51-112.57,2.36a30.09,30.09,0,0,0-19,10.2c-19.29,22.34-61.64,83.48-11.8,145.09,6.38-3.54,15.44-9.22,21.6-15.79-5.51-15.54-6-35.41,5.59-59.77a56.48,56.48,0,0,0,1.48,5.72c15.93,50.47,16.78,92.46,16.74,102.14a3.19,3.19,0,0,0,2,3c21,8.41,61.32,3.41,74.87,1.39a4.56,4.56,0,0,0,3.81-5.17c-4.76-34.53,11.41-85,24.28-118.15C344.63,1166,335.22,1111.78,332.56,1108.11Z" transform="translate(-32 -18)"/><path class="cls-112" d="M262.26,1059.44l-5.91,48.82a4.56,4.56,0,0,0,3.24,4.94c6.41,1.87,20.13,4.71,32.67-.45a5.34,5.34,0,0,0,3.15-6.07l-7.47-34.36Z" transform="translate(-32 -18)"/><path class="cls-113" d="M283.46,1022.12c.58.49,26.15,44.33,26.15,44.33l-25.34,14.06-30.4-38S273.61,1013.86,283.46,1022.12Z" transform="translate(-32 -18)"/><path class="cls-114" d="M265.46,1043a4.16,4.16,0,0,0,.52,3.64l14.23,20.92a4.4,4.4,0,0,0,.76.85c1.63,1.35,7.17,5.23,10.93-.7,3.21-5.06,6.23-9.67,9.64-11.69a4.16,4.16,0,0,1,5.71,1.53,156.12,156.12,0,0,1,10.1,20.59,4.14,4.14,0,0,1-2.12,5.21c-5.16,2.44-15.36,6.9-24.54,8.7a4.16,4.16,0,0,1-4-1.44c-4.29-5.23-16.38-19.83-20.43-23.43-3.76-3.34-10.25-1.63-13.16-.61a4.17,4.17,0,0,1-3.35-.25c-3.1-1.63-8.6-5.84-4.24-13.74a4.16,4.16,0,0,0-1.61-5.57c-3.48-2-7.35-6-4.27-12.85s9.35-8,13.65-7.67a4.32,4.32,0,0,0,4.38-2.78,2.77,2.77,0,0,1,2.05-1.81,4,4,0,0,0,3-4.92c-1-3.8-.69-8.82,5.25-12.54,10.89-6.82,21.31,2.69,24.3,11S283,1030.57,275.14,1032C269.37,1033.09,266.55,1039.62,265.46,1043Z" transform="translate(-32 -18)"/><path class="cls-115" d="M271.56,1074.86s-5.83-14.34-12.2-13.44-11,7.56-2.7,14.28C267,1084.05,271.56,1074.86,271.56,1074.86Z" transform="translate(-32 -18)"/><path class="cls-116" d="M214.26,1186.43c-8.45-23.13-5.39-51-5.35-51.33l2.32.27c0,.27-3,27.66,5.23,50.25Z" transform="translate(-32 -18)"/><path class="cls-117" d="M272.85,1362.83a1.16,1.16,0,0,1-1.13-.88c-2.58-9.94-21.88-20.87-22.08-21a1.18,1.18,0,0,1,1.15-2c.83.47,20.37,11.53,23.19,22.43a1.16,1.16,0,0,1-.84,1.43A1,1,0,0,1,272.85,1362.83Z" transform="translate(-32 -18)"/><path class="cls-118" d="M210.78,1250c-6.16,6.57-15.22,12.25-21.6,15.79,9.53,11.77,22.42,23.57,39.48,35.11l2.06,4.63a11.51,11.51,0,0,0,10,6.8c23.84,1.14,30.44-3.92,8.49-19.23C249.19,1293.07,221.11,1279.1,210.78,1250Z" transform="translate(-32 -18)"/><path class="cls-119" d="M410.23,1136s-33.75,27.29-42.06,37.69-3.2,31.86,13.06,29.07,41.27-54.36,41.27-54.36Z" transform="translate(-32 -18)"/><path class="cls-120" d="M358.3,1099.76s55.84,53.72,70.14,63.62c16.59,11.5,38.41-11.17,30.82-23.77S394.7,1087,394.7,1087Z" transform="translate(-32 -18)"/><polygon class="cls-121" points="337.25 1018.17 466.23 891.57 533.19 1037.13 359.69 1076.44 337.25 1018.17"/><ellipse class="cls-122" cx="532.86" cy="982.32" rx="16.78" ry="82.33" transform="translate(-401.2 304.65) rotate(-25.34)"/><path class="cls-123" d="M566.85,1051.09c-2-.74-7.56-4.7-16.71-17.39-8.83-12.27-18.45-29.05-27.07-47.25s-15.52-36.28-19.41-50.89c-4-15.11-3.59-21.9-2.88-23.95,2,.75,7.57,4.71,16.71,17.4,8.84,12.26,18.45,29,27.08,47.25s15.51,36.28,19.4,50.89C568,1042.26,567.56,1049.05,566.85,1051.09Z" transform="translate(-32 -18)"/><g class="cls-124"><path class="cls-125" d="M553,971.6c6,12.64,4,26.11-9.45,32.5s-29.26,1.31-35.25-11.33.08-28.07,13.56-34.46S547,959,553,971.6Z" transform="translate(-32 -18)"/></g><path class="cls-126" d="M342.89,1044.85a95.42,95.42,0,0,1,29.6-12.27c5.47,21.12,15.59,41.05,29.78,59.92l-31.74,15a11.39,11.39,0,0,1-14.28-3.86c-6.33-9.27-16.24-25.2-20.58-39.7A16.85,16.85,0,0,1,342.89,1044.85Z" transform="translate(-32 -18)"/><path class="cls-127" d="M369.14,1051l-24.73,11.71a2.91,2.91,0,0,1-4.12-3,1.11,1.11,0,0,1,2.2.3.69.69,0,0,0,.28.64.66.66,0,0,0,.69.06L368.19,1049a.69.69,0,0,0,.33-.91l-.84-1.76a.67.67,0,0,0-.9-.32l-24.92,11.8a1.12,1.12,0,0,1-1.48-.53,1.11,1.11,0,0,1,.53-1.48l24.92-11.8a2.89,2.89,0,0,1,3.86,1.38l.84,1.76A2.92,2.92,0,0,1,369.14,1051Z" transform="translate(-32 -18)"/><path class="cls-128" d="M372.13,1063l-24.74,11.72a2.91,2.91,0,0,1-4.12-3,1.12,1.12,0,0,1,2.21.3.67.67,0,0,0,.27.64.66.66,0,0,0,.69.06L371.18,1061a.67.67,0,0,0,.32-.9l-.83-1.76a.67.67,0,0,0-.91-.32l-24.92,11.8a1.11,1.11,0,1,1-.95-2l24.92-11.8a2.9,2.9,0,0,1,3.87,1.38l.83,1.76A2.91,2.91,0,0,1,372.13,1063Z" transform="translate(-32 -18)"/><path class="cls-129" d="M390,1022a1.12,1.12,0,0,1-1.29-.25,1.11,1.11,0,0,1,.05-1.57L488,927.63a1.11,1.11,0,1,1,1.52,1.62l-99.26,92.56A1.26,1.26,0,0,1,390,1022Z" transform="translate(-32 -18)"/><path class="cls-129" d="M377.25,1035.94a1.09,1.09,0,0,1-1.22-.18,1.11,1.11,0,0,1-.08-1.57l4.86-5.31a1.11,1.11,0,1,1,1.64,1.5l-4.85,5.31A.94.94,0,0,1,377.25,1035.94Z" transform="translate(-32 -18)"/><path class="cls-130" d="M380.41,1074.81l-24.73,11.71a2.9,2.9,0,0,1-4.13-3,1.11,1.11,0,1,1,2.21.29.67.67,0,0,0,1,.7l24.74-11.71a.68.68,0,0,0,.32-.91l-.83-1.76a.68.68,0,0,0-.91-.32l-24.92,11.8a1.11,1.11,0,0,1-.95-2l24.92-11.8a2.9,2.9,0,0,1,3.87,1.38l.83,1.76A2.9,2.9,0,0,1,380.41,1074.81Z" transform="translate(-32 -18)"/><path class="cls-131" d="M389.47,1088l-24.73,11.72a2.91,2.91,0,0,1-4.13-3,1.11,1.11,0,1,1,2.21.29.66.66,0,0,0,.27.64.68.68,0,0,0,.69.07l24.74-11.72a.67.67,0,0,0,.32-.9l-.83-1.76a.69.69,0,0,0-.91-.33l-24.92,11.8a1.11,1.11,0,1,1-.95-2l24.92-11.81a2.92,2.92,0,0,1,3.87,1.38l.83,1.76A2.9,2.9,0,0,1,389.47,1088Z" transform="translate(-32 -18)"/><path class="cls-132" d="M448.23,1154.91a18.28,18.28,0,0,1-19.6-2.58l-40.55-34.54a1.11,1.11,0,1,1,1.44-1.69l40.56,34.54A15.82,15.82,0,0,0,444,1154a15.5,15.5,0,0,0,10.82-9c.11-.25.22-.51.32-.76a1.11,1.11,0,1,1,2.06.84c-.11.27-.22.54-.34.8A17.6,17.6,0,0,1,448.23,1154.91Z" transform="translate(-32 -18)"/><path class="cls-133" d="M383.28,1112.84a1.13,1.13,0,0,1-1.2-.16l-4.52-3.85a1.11,1.11,0,1,1,1.44-1.69l4.52,3.85a1.11,1.11,0,0,1,.13,1.57A1.25,1.25,0,0,1,383.28,1112.84Z" transform="translate(-32 -18)"/><path class="cls-134" d="M549.23,973a1.12,1.12,0,0,1-1.44-.46c-3.31-5.88-7.55-9.41-12.6-10.51-8.75-1.89-17.18,4.17-17.27,4.23a1.11,1.11,0,0,1-1.31-1.79c.38-.28,9.3-6.71,19-4.61,5.7,1.23,10.44,5.13,14.08,11.59a1.11,1.11,0,0,1-.42,1.51Z" transform="translate(-32 -18)"/><path class="cls-135" d="M423,1114.48s8.58-7.28,15.28,0,8,20,6.66,20.6S402.11,1125.41,423,1114.48Z" transform="translate(-32 -18)"/><polygon class="cls-136" points="630.83 905.18 576.42 902.07 584.08 919.37 547.78 928.37 607.75 944.08 599.37 919.85 630.83 905.18"/><polygon class="cls-137" points="626.05 986.97 585.97 967.82 586.39 983.19 556.4 978.74 596.72 1009.09 597.88 988.28 626.05 986.97"/><polygon class="cls-138" points="557.36 842.45 520.99 867.94 534.59 875.13 515.98 899.07 562.22 878.87 544.66 867.63 557.36 842.45"/></svg>