<svg xmlns="http://www.w3.org/2000/svg" xmlns:xlink="http://www.w3.org/1999/xlink" viewBox="0 0 2814.69 2799.97"><defs><style>.cls-1{fill:url(#linear-gradient);}.cls-2{fill:url(#linear-gradient-2);}.cls-3{fill:#91b3fa;}.cls-4{fill:#bdd0fb;}.cls-5{fill:url(#linear-gradient-3);}.cls-6{fill:url(#linear-gradient-4);}.cls-16,.cls-7{fill:#fff;}.cls-8{fill:url(#linear-gradient-5);}.cls-9{fill:url(#linear-gradient-6);}.cls-10{fill:url(#linear-gradient-7);}.cls-11{fill:url(#linear-gradient-8);}.cls-12{fill:url(#linear-gradient-9);}.cls-13{fill:url(#linear-gradient-10);}.cls-14{fill:url(#linear-gradient-11);}.cls-15{fill:url(#linear-gradient-12);}.cls-16{opacity:0.78;isolation:isolate;}.cls-17{fill:url(#linear-gradient-13);}.cls-18{fill:url(#linear-gradient-14);}.cls-19{fill:url(#linear-gradient-15);}.cls-20{fill:url(#linear-gradient-16);}.cls-21{fill:url(#linear-gradient-17);}.cls-22{fill:url(#linear-gradient-18);}.cls-23{fill:url(#linear-gradient-19);}.cls-24{fill:url(#linear-gradient-20);}.cls-25{fill:url(#linear-gradient-21);}.cls-26{fill:url(#linear-gradient-22);}.cls-27{opacity:0.54;}.cls-28{fill:url(#linear-gradient-23);}.cls-29{fill:url(#linear-gradient-24);}.cls-30{fill:url(#linear-gradient-25);}.cls-31{fill:url(#linear-gradient-26);}.cls-32{fill:url(#linear-gradient-27);}.cls-33{fill:url(#linear-gradient-28);}.cls-34{fill:url(#linear-gradient-29);}.cls-35{fill:url(#linear-gradient-30);}.cls-36{fill:url(#linear-gradient-31);}.cls-37{fill:url(#linear-gradient-32);}.cls-38{fill:url(#linear-gradient-33);}.cls-39{fill:url(#linear-gradient-34);}.cls-40{fill:url(#linear-gradient-35);}.cls-41{fill:url(#linear-gradient-36);}.cls-42{fill:url(#linear-gradient-37);}.cls-43{fill:url(#linear-gradient-38);}.cls-44{fill:url(#linear-gradient-39);}.cls-45{fill:url(#linear-gradient-40);}.cls-46{fill:url(#linear-gradient-41);}.cls-47{fill:url(#linear-gradient-42);}.cls-48{fill:url(#linear-gradient-43);}.cls-49{fill:url(#linear-gradient-44);}.cls-50{fill:url(#linear-gradient-45);}.cls-51{fill:url(#linear-gradient-46);}.cls-52{fill:url(#linear-gradient-47);}.cls-53{fill:url(#linear-gradient-48);}.cls-54{fill:url(#linear-gradient-49);}.cls-55{fill:url(#linear-gradient-50);}.cls-56{fill:url(#linear-gradient-51);}.cls-57{fill:url(#linear-gradient-52);}.cls-58{fill:url(#linear-gradient-53);}.cls-59{fill:url(#linear-gradient-54);}.cls-60{fill:url(#linear-gradient-55);}.cls-61{fill:url(#linear-gradient-56);}.cls-62{fill:url(#linear-gradient-57);}.cls-63{fill:url(#linear-gradient-58);}.cls-64{fill:url(#linear-gradient-59);}.cls-65{fill:url(#linear-gradient-60);}.cls-66{fill:url(#linear-gradient-61);}.cls-67{fill:url(#linear-gradient-62);}.cls-68{fill:url(#linear-gradient-63);}.cls-69{fill:url(#linear-gradient-64);}.cls-70{fill:url(#linear-gradient-65);}.cls-71{fill:url(#linear-gradient-66);}.cls-72{fill:url(#linear-gradient-67);}</style><linearGradient id="linear-gradient" x1="3149.74" y1="-803.42" x2="674.08" y2="2271.19" gradientTransform="matrix(1, 0, 0, -1, 0, 2799.95)" gradientUnits="userSpaceOnUse"><stop offset="0" stop-color="#dae3fe"/><stop offset="1" stop-color="#e9effd"/></linearGradient><linearGradient id="linear-gradient-2" x1="1920.86" y1="416.05" x2="2484.72" y2="2107.64" gradientTransform="translate(3570.48 2799.95) rotate(180)" gradientUnits="userSpaceOnUse"><stop offset="0" stop-color="#09005d"/><stop offset="1" stop-color="#1a0f91"/></linearGradient><linearGradient id="linear-gradient-3" x1="1460.93" y1="1426.81" x2="1420.25" y2="538.69" gradientTransform="matrix(1, 0, 0, -1, 0, 2799.95)" xlink:href="#linear-gradient-2"/><linearGradient id="linear-gradient-4" x1="2708.57" y1="2866.12" x2="1604.75" y2="1434.9" gradientTransform="matrix(1, 0, 0, -1, 0, 2799.95)" gradientUnits="userSpaceOnUse"><stop offset="0" stop-color="#4f52ff"/><stop offset="1" stop-color="#4042e2"/></linearGradient><linearGradient id="linear-gradient-5" x1="2708.57" y1="2866.12" x2="1604.75" y2="1434.9" gradientTransform="matrix(1, 0, 0, -1, 0.01, 2799.95)" xlink:href="#linear-gradient-4"/><linearGradient id="linear-gradient-6" x1="2176.8" y1="2358.6" x2="1914.88" y2="1736.54" gradientTransform="matrix(0.71, 0.71, 0.71, -0.71, -796.4, 806.6)" xlink:href="#linear-gradient-4"/><linearGradient id="linear-gradient-7" x1="3462.79" y1="-3264.87" x2="3305.73" y2="-3902.95" gradientTransform="matrix(0, -1, -1, 0, -1474.32, 3804.4)" xlink:href="#linear-gradient-2"/><linearGradient id="linear-gradient-8" x1="21965.2" y1="29783.74" x2="21594.12" y2="29122.55" gradientTransform="matrix(-0.71, -0.71, -0.71, 0.71, 2000.17, 5555.52)" gradientUnits="userSpaceOnUse"><stop offset="0" stop-color="#ff928e"/><stop offset="1" stop-color="#fe7062"/></linearGradient><linearGradient id="linear-gradient-9" x1="22242.35" y1="29628.2" x2="21871.27" y2="28967.02" xlink:href="#linear-gradient-8"/><linearGradient id="linear-gradient-10" x1="19473.93" y1="30998.32" x2="19102.85" y2="30337.11" gradientTransform="translate(-196 3350.09) rotate(45)" xlink:href="#linear-gradient-8"/><linearGradient id="linear-gradient-11" x1="1044.63" y1="2373.67" x2="1224.22" y2="2582.12" gradientTransform="matrix(1, 0, 0, -1, 0, 2799.95)" gradientUnits="userSpaceOnUse"><stop offset="0" stop-color="#e1473d"/><stop offset="1" stop-color="#e9605a"/></linearGradient><linearGradient id="linear-gradient-12" x1="1325.7" y1="2734.15" x2="794.65" y2="1931.88" gradientTransform="matrix(1, 0, 0, -1, 0, 2799.95)" xlink:href="#linear-gradient-8"/><linearGradient id="linear-gradient-13" x1="1286.73" y1="2882.44" x2="1222.64" y2="2531.6" gradientTransform="matrix(1, 0, 0, -1, 0, 2799.95)" xlink:href="#linear-gradient-8"/><linearGradient id="linear-gradient-14" x1="920.78" y1="1671.36" x2="1100.37" y2="1879.81" gradientTransform="matrix(1, 0, 0, -1, 0, 2799.94)" xlink:href="#linear-gradient-11"/><linearGradient id="linear-gradient-15" x1="1201.84" y1="2031.85" x2="670.79" y2="1229.58" gradientTransform="matrix(0.71, 0.71, 0.71, -0.71, -1008.86, 1467.5)" xlink:href="#linear-gradient-8"/><linearGradient id="linear-gradient-16" x1="1195.77" y1="2167.09" x2="1077.7" y2="1779.15" gradientTransform="matrix(1, 0, 0, -1, 0, 2799.95)" xlink:href="#linear-gradient-8"/><linearGradient id="linear-gradient-17" x1="615.53" y1="1935.86" x2="896.1" y2="2261.52" gradientTransform="matrix(1, 0, 0, -1, 0, 2799.94)" xlink:href="#linear-gradient-11"/><linearGradient id="linear-gradient-18" x1="1054.65" y1="2499.05" x2="224.99" y2="1245.67" gradientTransform="matrix(1, 0, 0, -1, 0, 2799.94)" xlink:href="#linear-gradient-8"/><linearGradient id="linear-gradient-19" x1="1057.08" y1="2712.56" x2="878.29" y2="2169.44" gradientTransform="matrix(1, 0, 0, -1, 0, 2799.95)" xlink:href="#linear-gradient-8"/><linearGradient id="linear-gradient-20" x1="1133.07" y1="1919.64" x2="1345.79" y2="2166.55" gradientTransform="matrix(1, 0, 0, -1, 0, 2799.94)" xlink:href="#linear-gradient-11"/><linearGradient id="linear-gradient-21" x1="1466" y1="2346.64" x2="836.97" y2="1396.36" gradientTransform="matrix(0.71, 0.71, 0.71, -0.71, -1140.07, 1209.25)" xlink:href="#linear-gradient-8"/><linearGradient id="linear-gradient-22" x1="1456.62" y1="2461.12" x2="1308.19" y2="2029.32" gradientTransform="matrix(1, 0, 0, -1, 0, 2799.95)" xlink:href="#linear-gradient-8"/><linearGradient id="linear-gradient-23" x1="1372.36" y1="1494.29" x2="1025.88" y2="1407.24" gradientTransform="matrix(1, 0, 0, -1, 0, 2799.95)" gradientUnits="userSpaceOnUse"><stop offset="0" stop-color="#febbba"/><stop offset="1" stop-color="#ff928e"/></linearGradient><linearGradient id="linear-gradient-24" x1="1853.4" y1="2136.06" x2="1364.25" y2="1498.48" gradientTransform="matrix(1, 0, 0, -1, 0, 2799.95)" xlink:href="#linear-gradient-8"/><linearGradient id="linear-gradient-25" x1="2106.06" y1="1942.21" x2="1616.91" y2="1304.64" gradientTransform="matrix(1, 0, 0, -1, 0, 2799.95)" xlink:href="#linear-gradient-8"/><linearGradient id="linear-gradient-26" x1="331.05" y1="1812.18" x2="280.92" y2="1962.56" gradientTransform="matrix(1, 0, 0, -1, 1290.1, 2799.95)" xlink:href="#linear-gradient-23"/><linearGradient id="linear-gradient-27" x1="1523.63" y1="1938.03" x2="1703.79" y2="1859.7" xlink:href="#linear-gradient-23"/><linearGradient id="linear-gradient-28" x1="8727.6" y1="-4098.63" x2="8942.82" y2="-4098.63" gradientTransform="matrix(-0.69, -0.73, 0.73, -0.69, 10659.81, 4504.11)" xlink:href="#linear-gradient-2"/><linearGradient id="linear-gradient-29" x1="1512.4" y1="1912.2" x2="1692.57" y2="1833.87" xlink:href="#linear-gradient-23"/><linearGradient id="linear-gradient-30" x1="5302.7" y1="10.82" x2="5526.57" y2="10.82" gradientTransform="translate(7168.46 2799.95) rotate(180)" xlink:href="#linear-gradient-2"/><linearGradient id="linear-gradient-31" x1="2406.21" y1="220.29" x2="1595.46" y2="-10.8" xlink:href="#linear-gradient-4"/><linearGradient id="linear-gradient-32" x1="5323.37" y1="115.95" x2="5386.44" y2="115.95" gradientTransform="translate(7168.46 2799.95) rotate(180)" xlink:href="#linear-gradient-23"/><linearGradient id="linear-gradient-33" x1="4856.32" y1="15.64" x2="4942.12" y2="15.64" gradientTransform="translate(7168.46 2799.95) rotate(180)" xlink:href="#linear-gradient-2"/><linearGradient id="linear-gradient-34" x1="1954.23" y1="267.27" x2="2459.48" y2="-61.74" xlink:href="#linear-gradient-4"/><linearGradient id="linear-gradient-35" x1="4922.42" y1="168.54" x2="4997.78" y2="168.54" gradientTransform="translate(7168.46 2799.95) rotate(180)" xlink:href="#linear-gradient-23"/><linearGradient id="linear-gradient-36" x1="2578.79" y1="57.84" x2="3728.96" y2="1648" gradientTransform="translate(4835.46 2799.95) rotate(180)" xlink:href="#linear-gradient-2"/><linearGradient id="linear-gradient-37" x1="-245.95" y1="-301.38" x2="-252.94" y2="344.46" gradientTransform="matrix(0.99, -0.13, -0.13, -0.99, 2203.09, 2330.79)" xlink:href="#linear-gradient-4"/><linearGradient id="linear-gradient-38" x1="-360.97" y1="604.64" x2="-364.08" y2="680.03" gradientTransform="matrix(0.99, -0.13, -0.13, -0.99, 2203.09, 2330.79)" xlink:href="#linear-gradient-4"/><linearGradient id="linear-gradient-39" x1="-364.85" y1="717.82" x2="-349.31" y2="501.79" gradientTransform="matrix(0.99, -0.13, -0.13, -0.99, 2203.09, 2330.79)" xlink:href="#linear-gradient-4"/><linearGradient id="linear-gradient-40" x1="-150.97" y1="613.29" x2="-154.08" y2="688.67" gradientTransform="matrix(0.99, -0.13, -0.13, -0.99, 2203.09, 2330.79)" xlink:href="#linear-gradient-4"/><linearGradient id="linear-gradient-41" x1="-155.47" y1="732.87" x2="-139.93" y2="516.84" gradientTransform="matrix(0.99, -0.13, -0.13, -0.99, 2203.09, 2330.79)" xlink:href="#linear-gradient-4"/><linearGradient id="linear-gradient-42" x1="-241.66" y1="838.09" x2="-262.64" y2="684.25" gradientTransform="matrix(0.99, -0.13, -0.13, -0.99, 2203.09, 2330.79)" xlink:href="#linear-gradient-4"/><linearGradient id="linear-gradient-43" x1="1875.95" y1="855.73" x2="1887.76" y2="1108.74" xlink:href="#linear-gradient-4"/><linearGradient id="linear-gradient-44" x1="1836.59" y1="875.44" x2="1954.2" y2="875.44" gradientTransform="matrix(1, 0, 0, -1, 0, 2799.95)" xlink:href="#linear-gradient-2"/><linearGradient id="linear-gradient-45" x1="1851.42" y1="875.36" x2="1940.94" y2="875.36" xlink:href="#linear-gradient-4"/><linearGradient id="linear-gradient-46" x1="1949.68" y1="1316.7" x2="1778.99" y2="988.45" xlink:href="#linear-gradient-23"/><linearGradient id="linear-gradient-47" x1="2196.06" y1="1873.17" x2="1706.91" y2="1235.59" gradientTransform="matrix(1, 0, 0, -1, 0, 2799.95)" xlink:href="#linear-gradient-8"/><linearGradient id="linear-gradient-48" x1="2130.98" y1="1937.11" x2="1559.21" y2="1092.1" xlink:href="#linear-gradient-11"/><linearGradient id="linear-gradient-49" x1="-940.95" y1="69.7" x2="-794.06" y2="69.7" gradientTransform="matrix(1, 0, 0, -1, 1290.1, 2799.95)" xlink:href="#linear-gradient-2"/><linearGradient id="linear-gradient-50" x1="-573.23" y1="242.98" x2="-1107.61" y2="-176.61" gradientTransform="matrix(1, 0, 0, -1, 1290.1, 2799.95)" xlink:href="#linear-gradient-4"/><linearGradient id="linear-gradient-51" x1="-900.11" y1="236.92" x2="-928.16" y2="-7.95" gradientTransform="matrix(1, 0, 0, -1, 1290.1, 2799.95)" xlink:href="#linear-gradient-23"/><linearGradient id="linear-gradient-52" x1="-478.29" y1="122.25" x2="-1012.67" y2="-297.35" gradientTransform="matrix(1, 0, 0, -1, 1290.1, 2799.95)" xlink:href="#linear-gradient-4"/><linearGradient id="linear-gradient-53" x1="-717.28" y1="65.97" x2="-505.84" y2="65.97" gradientTransform="matrix(1, 0, 0, -1, 1290.1, 2799.95)" xlink:href="#linear-gradient-2"/><linearGradient id="linear-gradient-54" x1="-458.67" y1="379.26" x2="-486.73" y2="134.39" gradientTransform="matrix(1, -0.06, -0.06, -1, 1096.35, 2938.57)" xlink:href="#linear-gradient-23"/><linearGradient id="linear-gradient-55" x1="499.49" y1="335.42" x2="344.31" y2="1185.52" gradientTransform="matrix(1, 0, 0, -1, 0, 2799.95)" xlink:href="#linear-gradient-2"/><linearGradient id="linear-gradient-56" x1="-159.06" y1="798.84" x2="859.71" y2="1709.66" xlink:href="#linear-gradient-4"/><linearGradient id="linear-gradient-57" x1="-788.16" y1="1664.13" x2="-723" y2="1842.08" gradientTransform="matrix(1, 0, 0, -1, 1290.1, 2799.95)" xlink:href="#linear-gradient-23"/><linearGradient id="linear-gradient-58" x1="669.25" y1="1743.57" x2="537.69" y2="2016.82" xlink:href="#linear-gradient-23"/><linearGradient id="linear-gradient-59" x1="445.16" y1="2104.3" x2="606.27" y2="1915.6" gradientTransform="matrix(1, 0, 0, -1, 0, 2799.95)" xlink:href="#linear-gradient-2"/><linearGradient id="linear-gradient-60" x1="608.59" y1="1714.36" x2="477.02" y2="1987.61" xlink:href="#linear-gradient-23"/><linearGradient id="linear-gradient-61" x1="1496.6" y1="2424.2" x2="965.31" y2="1887.86" xlink:href="#linear-gradient-4"/><linearGradient id="linear-gradient-62" x1="872.91" y1="1839" x2="815.56" y2="1198.05" xlink:href="#linear-gradient-23"/><linearGradient id="linear-gradient-63" x1="1237.4" y1="1891.81" x2="1097.19" y2="1745.36" xlink:href="#linear-gradient-23"/><linearGradient id="linear-gradient-64" x1="1082.1" y1="1820.29" x2="1024.75" y2="1179.34" xlink:href="#linear-gradient-23"/><linearGradient id="linear-gradient-65" x1="899.42" y1="1447.17" x2="336.06" y2="1433.68" xlink:href="#linear-gradient-23"/><linearGradient id="linear-gradient-66" x1="2033.97" y1="2681.7" x2="1048.93" y2="1953.04" gradientTransform="matrix(1, 0, 0, -1, 0, 2799.95)" xlink:href="#linear-gradient-2"/><linearGradient id="linear-gradient-67" x1="1999.91" y1="2727.76" x2="1014.87" y2="1999.1" gradientTransform="matrix(1, 0, 0, -1, 0, 2799.95)" xlink:href="#linear-gradient-2"/></defs><title>Asset 1</title><g id="Layer_2" data-name="Layer 2"><g id="Layer_1-2" data-name="Layer 1"><g id="Illustration"><path class="cls-1" d="M2468.67,2390.85c-56.87,59.86-110.67,98.47-153.18,129-499.7,358.54-1091,254-1216.65,228.5-185.56-37.68-544.26-110.54-803.59-415.5C-97.09,1871.43-36,1144.53,268.35,664.69c55.67-87.77,349.72-574.92,947.36-653,361.64-47.33,783.29,48,1088.64,303.83C2945.21,852.46,2899.59,1937.19,2468.67,2390.85Z"/><path class="cls-2" d="M193.68,2445.26a44.26,44.26,0,0,0,44.15,44.11H2625.27a44.26,44.26,0,0,0,44.15-44.11l19.86-1372c0-24.26-28.58-71.62-81-68.06L275.06,944.84a111.26,111.26,0,0,0-114.15,108.28c0,1.84,0,3.68,0,5.51Z"/><path class="cls-3" d="M237.27,2403A41.9,41.9,0,0,0,279,2444.74H2567.69a41.88,41.88,0,0,0,41.77-41.77l18.75-1245.51c-2.21-75-67.92-101.89-107.76-100.3l-2236.21-60A78.2,78.2,0,0,0,204,1073.29c0,1.29,0,2.58,0,3.87Z"/><path class="cls-4" d="M2584.73,1811.24h-.09a6.1,6.1,0,0,1-6-6.21l1.48-101a6.13,6.13,0,0,1,6.12-6h.09a6.12,6.12,0,0,1,6,6.22l-1.48,101A6.11,6.11,0,0,1,2584.73,1811.24Z"/><path class="cls-4" d="M2588.35,1563.72h-.1a6.11,6.11,0,0,1-6-6.21l5.68-386.87c-.1-23-7.08-41.32-20.73-54.41-25.49-24.41-65.94-23.16-67.65-23.08L1784.8,1074a6.11,6.11,0,0,1-6-6.23v0a5.86,5.86,0,0,1,5.7-6h.59l714.32,19.16c4.44-.26,47.52-1,76.21,26.48,16.14,15.47,24.38,36.77,24.5,63.31l-5.68,387A6.11,6.11,0,0,1,2588.35,1563.72Z"/><rect class="cls-5" y="2482.72" width="2814.69" height="120.55" rx="5.65"/><circle class="cls-4" cx="2008.03" cy="842.15" r="515.1" transform="translate(-7.35 1666.55) rotate(-45)"/><circle class="cls-6" cx="2008.03" cy="842.15" r="439.62"/><path class="cls-7" d="M2008,1303.79c-254.54,0-461.63-207.09-461.63-461.64S1753.48,380.51,2008,380.51s461.64,207.09,461.64,461.64S2262.57,1303.79,2008,1303.79Zm0-901.26c-242.4,0-439.61,197.21-439.61,439.62s197.21,439.62,439.61,439.62,439.62-197.21,439.62-439.62S2250.43,402.53,2008,402.53Z"/><circle class="cls-8" cx="2008.03" cy="842.15" r="268.01"/><path class="cls-7" d="M2008,1132.18c-159.92,0-290-130.11-290-290s130.11-290,290-290,290,130.11,290,290S2168,1132.18,2008,1132.18Zm0-536c-135.64,0-246,110.35-246,246s110.35,246,246,246,246-110.36,246-246-110.35-246-246-246Z"/><circle class="cls-9" cx="2007.95" cy="842.08" r="103.84" transform="translate(-7.33 1666.48) rotate(-45)"/><path class="cls-7" d="M2008,968a125.86,125.86,0,1,1,125.86-125.86A125.85,125.85,0,0,1,2008,968Zm0-207.68a81.82,81.82,0,1,0,81.82,81.82A81.82,81.82,0,0,0,2008,760.29Z"/><rect class="cls-10" x="2004.89" y="476.05" width="743.45" height="19.63" transform="translate(352.54 1822.82) rotate(-45)"/><path class="cls-11" d="M2116.61,708.28c8-8,45.51,29.58,37.55,37.55L2014.9,855.31c-5.15,4-11.81-2.62-7.77-7.77Z"/><path class="cls-12" d="M2646.06,230.26l70.72,7-97.08,97.09a150.08,150.08,0,0,1-121,43.22h0Z"/><path class="cls-13" d="M2632.18,216.38l-7-70.72-97.09,97.08a150.11,150.11,0,0,0-43.22,121h0Z"/><circle class="cls-14" cx="1227.84" cy="213.62" r="133.89"/><circle class="cls-15" cx="1227.85" cy="213.62" r="129.44"/><path class="cls-16" d="M1121.11,165.29a5.29,5.29,0,0,1-2.44-.59,5.42,5.42,0,0,1-2.42-7.28v0a124.41,124.41,0,0,1,111.59-68.7,128,128,0,0,1,22.53,2,5.44,5.44,0,0,1-2,10.7h0a115.48,115.48,0,0,0-20.58-1.85,113.59,113.59,0,0,0-101.88,62.73A5.41,5.41,0,0,1,1121.11,165.29Z"/><circle class="cls-16" cx="1230.6" cy="216.4" r="109.55" transform="translate(207.42 933.55) rotate(-45)"/><path class="cls-17" d="M1219.92,297.88V286c-12.43-.5-24.72-3.43-33.45-7.26a6.89,6.89,0,0,1-3.81-8.14l3-11.1a7,7,0,0,1,8.64-4.82,7.52,7.52,0,0,1,.8.27,80.53,80.53,0,0,0,30.87,6.5c12,0,20.9-4.06,20.9-12.37,0-7.51-6.9-12-23.53-16.43-23.74-6.49-40.77-16.84-40.77-37.73,0-18.86,13.79-33.27,37.72-37.12V145.85a7,7,0,0,1,7-6.94h7a7,7,0,0,1,7,6.94v10.7a88.94,88.94,0,0,1,26.5,4.76,6.92,6.92,0,0,1,4.32,8.35l-2.8,10.31a6.92,6.92,0,0,1-8.49,4.89c-.22-.06-.44-.13-.65-.21a72.61,72.61,0,0,0-26-4.72c-14.2,0-18.26,5.88-18.26,11.16,0,6.49,8.52,10.95,27,16.63,26.37,7.91,37.32,18.86,37.32,38.54,0,18-13.38,34.28-39.35,38.34v13.33a7,7,0,0,1-6.94,7h-7a7,7,0,0,1-7-7Z"/><circle class="cls-18" cx="1104.06" cy="915.84" r="133.89"/><circle class="cls-19" cx="1103.99" cy="915.93" r="129.44" transform="translate(-324.31 1048.91) rotate(-45)"/><path class="cls-16" d="M997.25,867.59a5.29,5.29,0,0,1-2.44-.59,5.42,5.42,0,0,1-2.4-7.29h0A124.4,124.4,0,0,1,1104,791a128,128,0,0,1,22.53,2,5.44,5.44,0,0,1-2,10.7,115.48,115.48,0,0,0-20.58-1.85,113.59,113.59,0,0,0-101.88,62.73A5.41,5.41,0,0,1,997.25,867.59Z"/><circle class="cls-16" cx="1106.83" cy="918.78" r="109.55"/><path class="cls-20" d="M1096.06,1000.18V988.27c-12.42-.5-24.71-3.43-33.44-7.26a6.88,6.88,0,0,1-3.81-8.14l3-11.1a7,7,0,0,1,8.64-4.82,7.52,7.52,0,0,1,.8.27,80.62,80.62,0,0,0,30.88,6.5c12,0,20.89-4.06,20.89-12.37,0-7.51-6.9-12-23.53-16.43-23.73-6.49-40.77-16.84-40.77-37.73,0-18.87,13.79-33.27,37.73-37.12V848.15a6.94,6.94,0,0,1,6.94-6.94h7a7,7,0,0,1,7,6.94v10.7a89,89,0,0,1,26.51,4.76,6.92,6.92,0,0,1,4.32,8.35l-2.79,10.26a6.91,6.91,0,0,1-8.47,4.9,5.25,5.25,0,0,1-.67-.22,72.61,72.61,0,0,0-26-4.72c-14.2,0-18.26,5.88-18.26,11.16,0,6.49,8.52,11,27,16.63,26.37,7.91,37.32,18.86,37.32,38.54,0,18-13.38,34.28-39.35,38.34v13.33a7,7,0,0,1-6.94,7h-7A7,7,0,0,1,1096.06,1000.18Z"/><circle class="cls-21" cx="901.77" cy="531.84" r="209.18"/><circle class="cls-22" cx="901.77" cy="531.84" r="202.22"/><path class="cls-16" d="M735,452.71a4.86,4.86,0,0,1-4.36-7.07A190.78,190.78,0,0,1,901.77,340.29a194.28,194.28,0,0,1,34.55,3.1,4.88,4.88,0,1,1-1.75,9.61,184.09,184.09,0,0,0-32.8-3A181,181,0,0,0,739.38,450,4.86,4.86,0,0,1,735,452.71Z"/><circle class="cls-16" cx="906.18" cy="536.25" r="171.16"/><path class="cls-23" d="M889.35,663.48V644.86c-19.41-.77-38.61-5.36-52.25-11.32a10.77,10.77,0,0,1-6-12.73l4.73-17.34a10.85,10.85,0,0,1,13.33-7.6,11.76,11.76,0,0,1,1.41.49c13.52,5.67,30.23,10.16,48.24,10.16,18.69,0,32.64-6.34,32.64-19.33,0-11.73-10.78-18.7-36.76-25.67-37.08-10.14-63.7-26.3-63.7-58.94,0-29.48,21.55-52,58.94-58V426a10.85,10.85,0,0,1,10.85-10.85h10.94a10.85,10.85,0,0,1,10.93,10.77v16.8c18,.72,31,3.79,41.42,7.44a10.8,10.8,0,0,1,6.74,13l-4.35,16a10.8,10.8,0,0,1-13.24,7.65,9.71,9.71,0,0,1-1-.34,113.17,113.17,0,0,0-40.62-7.37c-22.18,0-28.52,9.19-28.52,17.43,0,10.14,13.31,17.11,42.15,26,41.2,12.36,58.31,29.47,58.31,60.21,0,28.2-20.92,53.56-61.48,59.9v20.83a10.85,10.85,0,0,1-10.85,10.85H900.23A10.84,10.84,0,0,1,889.35,663.48Z"/><circle class="cls-24" cx="1350.09" cy="628.4" r="158.59"/><circle class="cls-25" cx="1350.09" cy="628.4" r="153.32" transform="translate(-48.91 1138.72) rotate(-45)"/><path class="cls-16" d="M1223.66,569.62a4.67,4.67,0,0,1-2.2-.53,4.91,4.91,0,0,1-2.17-6.59A145.82,145.82,0,0,1,1350.09,482a148,148,0,0,1,26.41,2.38,4.91,4.91,0,0,1-1.62,9.69l-.14,0a136.86,136.86,0,0,0-146.69,73A4.92,4.92,0,0,1,1223.66,569.62Z"/><circle class="cls-16" cx="1353.43" cy="631.74" r="129.77"/><path class="cls-26" d="M1340.7,728.21V714.09c-14.72-.59-29.28-4.06-39.62-8.59a8.15,8.15,0,0,1-4.51-9.64l3.59-13.15a8.22,8.22,0,0,1,10.11-5.75,9.44,9.44,0,0,1,1.06.36,95.51,95.51,0,0,0,36.58,7.7c14.17,0,24.74-4.81,24.74-14.66,0-8.89-8.17-14.17-27.87-19.46-28.11-7.68-48.29-19.94-48.29-44.69,0-22.34,16.34-39.4,44.69-44V548.09a8.22,8.22,0,0,1,8.21-8.23h8.31a8.24,8.24,0,0,1,8.23,8.23v12.67a105.55,105.55,0,0,1,31.39,5.64,8.18,8.18,0,0,1,5.12,9.88l-3.3,12.17a8.21,8.21,0,0,1-10.07,5.79,7.49,7.49,0,0,1-.76-.25,85.89,85.89,0,0,0-30.79-5.59c-16.82,0-21.63,7-21.63,13.21,0,7.69,10.09,13,32,19.7,31.23,9.37,44.21,22.34,44.21,45.65,0,21.38-15.86,40.61-46.62,45.41v15.8a8.22,8.22,0,0,1-8.22,8.23H1349A8.22,8.22,0,0,1,1340.7,728.21Z"/><g class="cls-27"><rect class="cls-7" x="2426.91" y="1906.35" width="112.91" height="511.06"/><rect class="cls-7" x="2238.24" y="2081.99" width="112.91" height="335.42"/><rect class="cls-7" x="2049.58" y="1647.91" width="112.91" height="769.5"/><rect class="cls-7" x="1860.9" y="2232.55" width="112.91" height="184.86"/><rect class="cls-7" x="1672.24" y="1750.78" width="112.91" height="666.63"/><rect class="cls-7" x="1483.56" y="1866.21" width="112.92" height="551.2"/><rect class="cls-7" x="1294.91" y="1991.67" width="112.91" height="425.74"/><rect class="cls-7" x="1106.23" y="1492.34" width="112.91" height="925.07"/><rect class="cls-7" x="917.57" y="1590.2" width="112.91" height="827.21"/><rect class="cls-7" x="728.9" y="1738.24" width="112.91" height="679.17"/><rect class="cls-7" x="540.24" y="2249.7" width="112.91" height="167.71"/><rect class="cls-7" x="351.56" y="1923.92" width="112.91" height="493.49"/></g><path class="cls-28" d="M1046.42,1369.21s-16.2-42.65-35.12-38.74-39.63,18.44-39.63,18.44L941.27,1390s85.34,33.62,115.36,14.35c0,0,87.17,15.06,197.24-3-15.93-33.64-25.43-67.32-31-93.47C1167.11,1339.47,1107.06,1363,1046.42,1369.21Z"/><path class="cls-29" d="M1508.17,1059.87s-124.81,157.19-285.3,248c5.57,26.15,15.07,59.83,31,93.47,83.26-13.66,179.62-46.27,261.31-118.72Z"/><path class="cls-30" d="M1663.81,1756.59c-24.41-115.93-48.81-183-130.54-402.8-25.72-69.15-49.07-139.12-37.78-212l12.68-81.89s158.82-53.74,334.86-2.26c0,0,240.19,104.34,77,619.65C1846.54,1759.54,1760.48,1783,1663.81,1756.59Z"/><path class="cls-31" d="M1535.2,955.36l41.18,98.94a19.68,19.68,0,0,0,14.9,11.84c23.74,4.08,81.17,10.44,118.88-14.36a9.59,9.59,0,0,0,2.7-13.29c0-.06-.09-.12-.13-.19l-76.09-109.23Z"/><path class="cls-32" d="M1577.79,804c-1.73,1.62-73,141.57-73,141.57l80.77,39,87.25-122.6S1606.75,776.73,1577.79,804Z"/><path class="cls-33" d="M1636.11,876.66l-40.28,67.15a12.25,12.25,0,0,1-2.21,2.75c-4.8,4.47-21.2,17.45-33.89-.23-10.81-15.06-21-28.76-31.82-34.41a12.89,12.89,0,0,0-17.33,5.62l0,.1c-6.64,13.16-19.5,40-27.57,65.4a12.8,12.8,0,0,0,7.46,15.73c16.35,6.63,48.68,18.61,77.36,22.57a12.86,12.86,0,0,0,12.18-5.18c12.34-16.91,47.13-64.15,59-76,11-11,31.38-6.84,40.56-4.21a12.9,12.9,0,0,0,10.29-1.35c9.3-5.6,25.54-19.56,10.69-43.19a12.89,12.89,0,0,1,4-17.52c10.39-6.84,21.66-19.66,10.92-40.44-10.88-21-30.29-22.92-43.52-21.3a13.38,13.38,0,0,1-14-7.81,8.51,8.51,0,0,0-6.64-5.23,12.49,12.49,0,0,1-10.16-14.46c0-.08,0-.15,0-.23,2.33-11.9.57-27.36-18.43-37.81-34.85-19.16-65.38,12.06-73.14,38.42s31.2,45,55.71,48.09c18,2.28,27.88,21.93,31.85,32.2A12.89,12.89,0,0,1,1636.11,876.66Z"/><path class="cls-34" d="M1622,960.29s17.34-40.79,37.17-39.13,35.45,21.43,10.87,43.64C1639.45,992.44,1622,960.29,1622,960.29Z"/><path class="cls-35" d="M1648.17,2778.31c38.36,3.32,104.94,8.7,157.42,11,31.55,1.39,49.71-1.7,60.17-5.89,0,1.18,0,2.3-.1,3.33a10.83,10.83,0,0,1-10.31,10.22c-99.17,5.54-178,1.92-206.12.21a7.73,7.73,0,0,1-6.29-11.61A64.21,64.21,0,0,1,1648.17,2778.31Z"/><path class="cls-36" d="M1805.59,2789.32c-52.48-2.31-119.06-7.69-157.42-11,37.72-46.27,157.42-77.45,157.42-77.45h33.81c23.25,33.51,26.62,65.42,26.36,82.57C1855.35,2787.62,1837.14,2790.71,1805.59,2789.32Z"/><path class="cls-37" d="M1845.09,2645.66l-3.17,62.61a14.28,14.28,0,0,1-12.2,13.45,55.64,55.64,0,0,1-25.4-2.11,16.92,16.92,0,0,1-11.37-13l-10.93-61Z"/><path class="cls-38" d="M2284.2,2788.85c16.64-2.32,24.16-11,27.32-20.2l.06.25c2.45,9.75-3.23,19.84-14.57,24.65-13.71,5.8-28.7,6.79-40.34,6.31-12.48-.51-23.94-5.68-30.24-14l-.09-.12C2238.87,2792,2256.46,2792.72,2284.2,2788.85Z"/><path class="cls-39" d="M2205.77,2645.26h27.88c42.47-.87,69.14,88.71,77.87,123.39-3.16,9.24-10.68,17.88-27.32,20.2-27.74,3.87-45.33,3.14-57.86-3.06-23-30.19-34.32-74.41-39.79-100.22C2180.35,2656.22,2205.77,2645.26,2205.77,2645.26Z"/><path class="cls-40" d="M2230.07,2587.15l15.48,61.58a16.7,16.7,0,0,1-8.69,18.94c-8.67,4.44-20.86,9.11-32.06,7.76a14,14,0,0,1-11.39-9.31l-22.73-64.78Z"/><path class="cls-41" d="M2248.54,2605c-19.27,17.09-81.92,19.34-81.92,19.34-225.67-541.65-319.76-690.76-319.76-690.76,32.59,204.45,7,729.22,7,729.22-37.24,16.43-85.25,0-85.25,0-3-334.7-50.15-694.35-110.92-924.47,152.53-3.43,235.42-36.68,261.91-57.63C2046.76,1885.64,2248.54,2605,2248.54,2605Z"/><path class="cls-42" d="M1619.28,1889.64l28.07,174.57a57.48,57.48,0,0,0,63.84,47.8l420.07-51.24a41.47,41.47,0,0,0,36.54-40.27c.9-45.1-.87-125.38-19.8-198.51Z"/><path class="cls-7" d="M1714.67,2101.16a1.16,1.16,0,0,1,0-2.32,41.66,41.66,0,0,0,4.85-.37l4.27-.52a1.13,1.13,0,0,1,1.28,1,.06.06,0,0,1,0,0,1.15,1.15,0,0,1-1,1.29l-4.26.52c-1.68.2-3.39.33-5.06.39Zm30.69-3.52a1.15,1.15,0,0,1-1.15-1.17,1.18,1.18,0,0,1,1-1.14l9.2-1.12a1.12,1.12,0,0,1,1.28.92s0,0,0,.08a1.15,1.15,0,0,1-1,1.29l-9.2,1.12Zm-51.88,0a1,1,0,0,1-.41-.07,56.14,56.14,0,0,1-8.53-4.09,1.14,1.14,0,0,1-.41-1.57h0a1.18,1.18,0,0,1,1.59-.42,52.85,52.85,0,0,0,8.17,3.92,1.16,1.16,0,0,1-.41,2.24Zm82.55-3.73a1.16,1.16,0,0,1-1.15-1.17,1.18,1.18,0,0,1,1-1.14l9.2-1.12a1.12,1.12,0,0,1,1.28.92s0,0,0,.08a1.15,1.15,0,0,1-1,1.29h0l-9.2,1.13Zm30.67-3.74a1.15,1.15,0,0,1-1.15-1.17,1.18,1.18,0,0,1,1-1.14l9.2-1.13a1.13,1.13,0,0,1,1.28,1,.06.06,0,0,1,0,0,1.15,1.15,0,0,1-1,1.29h0l-9.2,1.13Zm30.67-3.75a1.15,1.15,0,1,1-.14-2.3l9.2-1.13a1.13,1.13,0,0,1,1.29.94.13.13,0,0,1,0,.06,1.15,1.15,0,0,1-1,1.29l-9.2,1.12Zm30.67-3.74a1.15,1.15,0,0,1-1.15-1.17,1.18,1.18,0,0,1,1-1.14l9.2-1.12a1.14,1.14,0,0,1,1.29,1v0a1.16,1.16,0,0,1-1,1.29l-9.2,1.12Zm-199-3.33a1.17,1.17,0,0,1-.93-.46,55.52,55.52,0,0,1-5-8,1.17,1.17,0,0,1,.51-1.56,1.16,1.16,0,0,1,1.55.51h0a53.35,53.35,0,0,0,4.81,7.67,1.16,1.16,0,0,1-.21,1.62h0a1.09,1.09,0,0,1-.67.21Zm229.63-.41a1.16,1.16,0,0,1-.15-2.31l9.2-1.12a1.12,1.12,0,0,1,1.29.92s0,.06,0,.08a1.15,1.15,0,0,1-1,1.29l-9.2,1.12Zm30.67-3.74a1.16,1.16,0,0,1-.15-2.31l9.21-1.12a1.13,1.13,0,0,1,1.28,1,.06.06,0,0,1,0,0,1.15,1.15,0,0,1-1,1.29l-9.2,1.12Zm30.67-3.74a1.16,1.16,0,0,1-.15-2.31l9.21-1.12a1.13,1.13,0,0,1,1.28,1,.06.06,0,0,1,0,0,1.15,1.15,0,0,1-1,1.29l-9.2,1.12Zm30.67-3.74a1.15,1.15,0,0,1-1.15-1.17,1.18,1.18,0,0,1,1-1.14l9.2-1.12a1.12,1.12,0,0,1,1.28.92s0,.05,0,.08a1.15,1.15,0,0,1-1,1.29l-9.2,1.12Zm30.67-3.74a1.15,1.15,0,0,1-1.15-1.17,1.18,1.18,0,0,1,1-1.14l9.2-1.12a1.13,1.13,0,0,1,1.28.94s0,0,0,.06a1.15,1.15,0,0,1-1,1.29l-9.2,1.12Zm30.67-3.74a1.15,1.15,0,0,1-1.15-1.17,1.18,1.18,0,0,1,1-1.14l9.2-1.12a1.13,1.13,0,0,1,1.28.94s0,0,0,.06a1.15,1.15,0,0,1-1,1.29h0l-9.2,1.13Zm30.67-3.75a1.15,1.15,0,0,1-.14-2.3l9.2-1.13a1.13,1.13,0,0,1,1.28,1,.06.06,0,0,1,0,0,1.15,1.15,0,0,1-1,1.29h0l-9.2,1.13Zm30.67-3.74a1.15,1.15,0,0,1-.14-2.3l6-.73c1-.13,2.09-.3,3.11-.51a1.16,1.16,0,0,1,1.33,1,1.14,1.14,0,0,1-.86,1.31c-1.09.22-2.18.4-3.29.54l-6,.72Zm-455.26-1.9a1.15,1.15,0,0,1-1.14-1l-1.47-9.15a1.16,1.16,0,0,1,2.28-.4v0l1.47,9.15a1.16,1.16,0,0,1-1,1.33h0Zm483.43-9.11a1.15,1.15,0,0,1-.85-.37,1.17,1.17,0,0,1,.06-1.64,38.5,38.5,0,0,0,5.83-6.84,1.16,1.16,0,0,1,1.92,1.29,40,40,0,0,1-6.17,7.25,1.14,1.14,0,0,1-.74.3Zm-488.33-21.4a1.14,1.14,0,0,1-1.14-1l-1.47-9.15a1.15,1.15,0,0,1,1-1.32,1.16,1.16,0,0,1,1.33,1l1.48,9.15a1.16,1.16,0,0,1-1,1.33h0Zm500.91-6h0a1.15,1.15,0,0,1-1.11-1.2h0v-.64c.06-2.74.1-5.61.13-8.59a1.17,1.17,0,0,1,1.16-1.15h0a1.17,1.17,0,0,1,1.15,1.17c0,3-.07,5.87-.13,8.61v.7a1.16,1.16,0,0,1-1.15,1.15Zm-505.76-24.51a1.17,1.17,0,0,1-1.15-1l-1.47-9.15a1.15,1.15,0,0,1,1-1.32h0a1.15,1.15,0,0,1,1.32,1,.11.11,0,0,1,0,0l1.47,9.15a1.16,1.16,0,0,1-1,1.33h-.21Zm505.91-6.36a1.16,1.16,0,0,1-1.16-1.14q-.06-4.51-.18-9.26a1.17,1.17,0,0,1,1.14-1.18h0a1.15,1.15,0,0,1,1.16,1.13q.12,4.76.18,9.28a1.15,1.15,0,0,1-1.13,1.17Zm-510.82-24.15a1.15,1.15,0,0,1-1.14-1l-1.47-9.15a1.15,1.15,0,0,1,2.28-.37h0l1.48,9.16a1.15,1.15,0,0,1-1,1.32h0Zm509.86-6.74a1.15,1.15,0,0,1-1.16-1.1q-.22-4.56-.5-9.25a1.16,1.16,0,1,1,2.3-.3,1,1,0,0,1,0,.17q.28,4.71.5,9.27a1.15,1.15,0,0,1-1.09,1.21h-.06Zm-514.76-23.77a1.15,1.15,0,0,1-1.15-1l-1.47-9.16a1.15,1.15,0,0,1,1-1.31h0a1.15,1.15,0,0,1,1.32.93s0,0,0,.07l1.47,9.15a1.16,1.16,0,0,1-1,1.33h-.21Zm512.67-7.06a1.15,1.15,0,0,1-1.15-1.06c-.27-3-.55-6.12-.86-9.22a1.17,1.17,0,0,1,1-1.27,1.13,1.13,0,0,1,1.26,1v0c.31,3.12.59,6.2.86,9.25a1.14,1.14,0,0,1-1,1.25h0Zm-517.58-23.44a1.15,1.15,0,0,1-1.14-1l-1.47-9.15a1.16,1.16,0,0,1,2.28-.4v0l1.47,9.15a1.16,1.16,0,0,1-1,1.33h0Zm514.25-7.29a1.15,1.15,0,0,1-1.15-1q-.58-4.56-1.26-9.16a1.15,1.15,0,0,1,1-1.3h0a1.14,1.14,0,0,1,1.31.94s0,0,0,.06c.44,3.07.87,6.14,1.26,9.19a1.15,1.15,0,0,1-1,1.3h0Zm-506.53-3a1.16,1.16,0,0,1-.15-2.31l9.2-1.17a1.13,1.13,0,0,1,1.29.9s0,.07,0,.1a1.16,1.16,0,0,1-1,1.3l-9.2,1.17Zm30.65-3.92a1.15,1.15,0,0,1-1.15-1.17,1.18,1.18,0,0,1,1-1.14l9.19-1.17a1.13,1.13,0,0,1,1.29.9s0,.07,0,.1a1.16,1.16,0,0,1-1,1.3l-9.2,1.17Zm30.65-3.92a1.16,1.16,0,0,1-.15-2.31l9.2-1.18a1.14,1.14,0,0,1,1.29.95.07.07,0,0,1,0,.05,1.15,1.15,0,0,1-1,1.29l-9.19,1.18Zm30.65-3.92a1.16,1.16,0,0,1-.15-2.31l9.19-1.18a1.13,1.13,0,0,1,1.29.9s0,.07,0,.1a1.15,1.15,0,0,1-1,1.29h0l-9.19,1.17Zm30.65-3.91a1.18,1.18,0,0,1-1.16-1.17,1.16,1.16,0,0,1,1-1.15l9.19-1.17a1.11,1.11,0,0,1,1.29.89s0,.07,0,.11a1.17,1.17,0,0,1-1,1.3l-9.2,1.18Zm30.65-3.93a1.15,1.15,0,0,1-.15-2.3l9.19-1.17a1.11,1.11,0,0,1,1.29.91s0,.06,0,.09a1.17,1.17,0,0,1-1,1.3l-9.19,1.17Zm30.64-3.92a1.16,1.16,0,0,1-.14-2.31l9.25-1.17a1.12,1.12,0,0,1,1.29.92s0,.06,0,.08a1.16,1.16,0,0,1-1,1.3l-9.2,1.17Zm30.65-3.92a1.18,1.18,0,0,1-1.16-1.17,1.15,1.15,0,0,1,1-1.14l9.2-1.18a1.16,1.16,0,1,1,.38,2.28l-.09,0-9.19,1.18Zm287.21,0a1.16,1.16,0,0,1-1.14-1q-.83-4.54-1.73-9.09a1.16,1.16,0,0,1,2.27-.47h0c.6,3,1.19,6.09,1.74,9.13a1.15,1.15,0,0,1-.92,1.34h0a.48.48,0,0,1-.17,0Zm-256.56-3.9a1.18,1.18,0,0,1-1.16-1.17,1.15,1.15,0,0,1,1-1.14l9.2-1.18a1.11,1.11,0,0,1,1.28.95.07.07,0,0,1,0,.05,1.14,1.14,0,0,1-1,1.28h0l-9.19,1.18Zm30.65-3.92a1.18,1.18,0,0,1-1.16-1.17,1.15,1.15,0,0,1,1-1.14l9.2-1.18a1.1,1.1,0,0,1,1.28.89s0,.07,0,.11a1.14,1.14,0,0,1-1,1.28h0l-9.19,1.18Zm30.65-3.93a1.15,1.15,0,1,1-.15-2.3l9.19-1.18a1.11,1.11,0,0,1,1.29.89s0,.07,0,.11a1.17,1.17,0,0,1-1,1.3l-9.19,1.18Zm30.64-3.92a1.15,1.15,0,0,1-.14-2.3l9.19-1.17a1.11,1.11,0,0,1,1.29.92s0,0,0,.08a1.17,1.17,0,0,1-1,1.3l-9.2,1.17Zm30.65-3.92a1.18,1.18,0,0,1-1.16-1.17,1.15,1.15,0,0,1,1-1.14l9.2-1.17a1.11,1.11,0,0,1,1.29.92s0,0,0,.08a1.17,1.17,0,0,1-1,1.3l-9.19,1.17Zm30.65-3.92a1.18,1.18,0,0,1-1.16-1.17,1.15,1.15,0,0,1,1-1.14l9.2-1.18a1.11,1.11,0,0,1,1.28,1,.43.43,0,0,1,0,0,1.14,1.14,0,0,1-1,1.28h0l-9.19,1.18Zm30.65-3.92a1.18,1.18,0,0,1-1.16-1.17,1.15,1.15,0,0,1,1-1.14l9.2-1.18a1.12,1.12,0,0,1,1.28.93s0,0,0,.07a1.13,1.13,0,0,1-1,1.28h0l-9.19,1.18Zm66.24-2.79a1.18,1.18,0,0,1-1.12-.88c-.37-1.51-.75-3-1.13-4.51l-2.55.33a1.17,1.17,0,0,1-1.26-1.06,1.15,1.15,0,0,1,1-1.24l4.57-.59.26,1c.47,1.84.94,3.68,1.39,5.52a1.17,1.17,0,0,1-.85,1.4h-.24Zm-35.59-1.13a1.18,1.18,0,0,1-1.16-1.17,1.15,1.15,0,0,1,1-1.14l9.19-1.18a1.09,1.09,0,0,1,1.28.87.51.51,0,0,1,0,.13,1.17,1.17,0,0,1-1,1.3l-9.19,1.18Z"/><path class="cls-43" d="M1726,1746.65l-.47-13.68a10.51,10.51,0,0,1,7.1-7.08c12.82-3.75,44.78-11.56,61.89-1.89l4.34,15.41Z"/><path class="cls-44" d="M1765.2,1728.42a18.79,18.79,0,0,1-9,1.14,8.23,8.23,0,0,1-7.25-7.12l-5.41-42.33,21.54-2.75,5.41,42.3A8.27,8.27,0,0,1,1765.2,1728.42Z"/><path class="cls-45" d="M1934.67,1720l-.47-13.68a10.49,10.49,0,0,1,7.11-7.08c12.81-3.75,44.77-11.56,61.88-1.89l4.35,15.41Z"/><path class="cls-46" d="M1973.86,1701.72a18.76,18.76,0,0,1-9,1.14,8.23,8.23,0,0,1-7.25-7.12l-6-46.79,21.54-2.75,6,46.76A8.28,8.28,0,0,1,1973.86,1701.72Z"/><path class="cls-47" d="M1742.63,1690.77l230.72-37.31a11.27,11.27,0,0,0,9.5-10.54,95.34,95.34,0,0,0-3-29.46,27,27,0,0,0-28.8-19.3c-43.35,4.5-153.37,18.61-210.94,50.36a21.37,21.37,0,0,0-10.91,16.33c-.74,6.57-.68,15.2,2.45,23.6A10.06,10.06,0,0,0,1742.63,1690.77Z"/><path class="cls-3" d="M1736.94,1681.31a3.09,3.09,0,0,1-3-2.39,57.25,57.25,0,0,1-.87-18.37,21.47,21.47,0,0,1,12.66-16.66c12.51-5.48,36.53-15.15,56.84-18.33a3.1,3.1,0,0,1,1,6.11h0c-20.36,3.19-45.47,13.56-55.33,17.88a15.28,15.28,0,0,0-9,11.84,51.52,51.52,0,0,0,.78,16.15,3.08,3.08,0,0,1-2.32,3.69A2.43,2.43,0,0,1,1736.94,1681.31Z"/><path class="cls-48" d="M1617.85,1755.14c74.73-10.53,398.07-55.37,493.58-56.06a19.31,19.31,0,0,1,18.35,12.73c8.78,24.41,27.43,81.35,33.5,139.37a16.88,16.88,0,0,1-11.68,17.74l-209.49,68-76.26,9.76-234.57-16.2a18,18,0,0,1-16.55-14.76c-5.21-28.92-16.27-96.91-14-141.88A20,20,0,0,1,1617.85,1755.14Z"/><path class="cls-7" d="M1865.35,1929.2h-.07l-9.25-.63a1.16,1.16,0,0,1-1.08-1.24,1.2,1.2,0,0,1,1.24-1.08l9.24.64a1.17,1.17,0,0,1,1.12,1.2,1.15,1.15,0,0,1-1.2,1.12h0Zm-30.82-2.13h-.08l-9.25-.64a1.15,1.15,0,0,1-1.07-1.24,1.17,1.17,0,0,1,1.23-1.08l9.25.64a1.17,1.17,0,0,1,1.12,1.2,1.15,1.15,0,0,1-1.2,1.12Zm50.47-.39a1.16,1.16,0,0,1-.15-2.31l9.2-1.17a1.12,1.12,0,0,1,1.29.92s0,.06,0,.08a1.16,1.16,0,0,1-1,1.3l-9.19,1.17Zm-81.3-1.74h-.08l-9.24-.63a1.18,1.18,0,0,1-1.08-1.24,1.22,1.22,0,0,1,1.24-1.08l9.24.63a1.17,1.17,0,0,1,1.12,1.21,1.15,1.15,0,0,1-1.2,1.11Zm-30.82-2.12h-.08l-9.25-.64a1.16,1.16,0,0,1-1.07-1.24,1.18,1.18,0,0,1,1.23-1.07l9.25.63a1.17,1.17,0,0,1-.08,2.32Zm142.77,0a1.18,1.18,0,0,1-1.16-1.17,1.16,1.16,0,0,1,1-1.15l9.2-1.16a1.1,1.1,0,0,1,1.28.91s0,0,0,.09a1.15,1.15,0,0,1-1,1.28h0l-9.19,1.17Zm-173.59-2.09H1742l-9.25-.63a1.17,1.17,0,0,1-1.08-1.23,1.2,1.2,0,0,1,1.24-1.09l9.25.64a1.16,1.16,0,0,1,1,1.3,1.15,1.15,0,0,1-1.09,1Zm-30.83-2.12h-.08l-9.25-.64a1.16,1.16,0,0,1-1.07-1.24,1.18,1.18,0,0,1,1.23-1.07l9.25.63a1.17,1.17,0,0,1-.08,2.32Zm234.73-1.23a1.16,1.16,0,0,1-1.15-1.17,1.14,1.14,0,0,1,.79-1.09l8.82-2.87a1.16,1.16,0,0,1,.87,2.16l-.15,0-8.82,2.88a1.12,1.12,0,0,1-.41,0Zm-265.55-.9h-.08l-9.25-.64a1.16,1.16,0,0,1-1.08-1.22h0a1.17,1.17,0,0,1,1.24-1.08l9.24.64a1.15,1.15,0,0,1,1.08,1.23h0a1.14,1.14,0,0,1-1.21,1.06Zm-30.83-2.13h-.08l-9.25-.63a1.16,1.16,0,0,1-1.07-1.24,1.19,1.19,0,0,1,1.23-1.08l9.25.64a1.15,1.15,0,0,1,1,1.29,1.16,1.16,0,0,1-1.09,1Zm325.76-6.52a1.16,1.16,0,0,1-1.15-1.17,1.14,1.14,0,0,1,.79-1.09l8.82-2.86a1.16,1.16,0,0,1,1.41.83,1.17,1.17,0,0,1-.69,1.37l-8.82,2.87a1.39,1.39,0,0,1-.41,0ZM1630.59,1899a1.18,1.18,0,0,1-1.14-1c-.48-2.88-1-6-1.49-9.17a1.15,1.15,0,0,1,1-1.32h0a1.16,1.16,0,0,1,1.33,1v0c.51,3.21,1,6.27,1.49,9.15a1.15,1.15,0,0,1-1,1.32h-.22Zm374.14-.81a1.16,1.16,0,0,1-1.15-1.17,1.14,1.14,0,0,1,.79-1.09l8.82-2.86a1.15,1.15,0,0,1,1.39.86,1.17,1.17,0,0,1-.68,1.34l-8.81,2.87a1.39,1.39,0,0,1-.41,0Zm29.38-9.55a1.16,1.16,0,0,1-1.14-1.18,1.14,1.14,0,0,1,.79-1.08l8.81-2.86a1.15,1.15,0,0,1,.72,2.19l-8.82,2.88a1.39,1.39,0,0,1-.41,0Zm29.39-9.55a1.16,1.16,0,0,1-1.15-1.17,1.14,1.14,0,0,1,.79-1.09L2072,1874a1.17,1.17,0,0,1,1.52.63,1.15,1.15,0,0,1-.62,1.51.7.7,0,0,1-.19.06l-8.81,2.88a1.39,1.39,0,0,1-.41,0Zm29.39-9.55a1.16,1.16,0,0,1-1.15-1.17,1.14,1.14,0,0,1,.79-1.09l8.81-2.87a1.16,1.16,0,0,1,.87,2.16l-.15,0-8.82,2.88a1.36,1.36,0,0,1-.4,0Zm-467-1.12a1.14,1.14,0,0,1-1.14-1c-.42-3-.84-6.07-1.25-9.19a1.16,1.16,0,0,1,2.3-.32h0q.62,4.68,1.24,9.19a1.15,1.15,0,0,1-1,1.3h-.17Zm496.37-8.43a1.16,1.16,0,0,1-1.15-1.17,1.14,1.14,0,0,1,.79-1.09l8.81-2.87a1.17,1.17,0,0,1,1.41.84,1.15,1.15,0,0,1-.69,1.36l-8.81,2.87a1.1,1.1,0,0,1-.4,0Zm21.49-14.61a1.15,1.15,0,0,1-1.15-1q-.6-4.59-1.27-9.15a1.16,1.16,0,1,1,2.27-.49s0,.1,0,.14c.45,3.06.87,6.14,1.28,9.21a1.16,1.16,0,0,1-1,1.3Zm-521.64-7.63a1.16,1.16,0,0,1-1.15-1q-.48-4.63-.91-9.25a1.16,1.16,0,1,1,2.31-.26v0c.28,3.07.59,6.14.91,9.21a1.18,1.18,0,0,1-1,1.28Zm516.69-22.88a1.16,1.16,0,0,1-1.14-.94c-.59-3-1.21-6.07-1.84-9.07a1.16,1.16,0,0,1,2.27-.48c.63,3,1.25,6,1.85,9.12a1.16,1.16,0,0,1-.92,1.35h-.22ZM1619.59,1807a1.15,1.15,0,0,1-1.16-1.1c-.16-3.14-.29-6.23-.39-9.29a1.17,1.17,0,0,1,1.12-1.2h0a1.23,1.23,0,0,1,1.2,1.13c.09,3,.21,6.12.38,9.24a1.15,1.15,0,0,1-1.08,1.22h-.07Zm512.46-22.23a1.13,1.13,0,0,1-1.12-.88c-.77-3-1.53-6-2.31-9a1.16,1.16,0,0,1,.83-1.41,1.14,1.14,0,0,1,1.4.8v0q1.17,4.4,2.31,9a1.15,1.15,0,0,1-.84,1.4h0A1.27,1.27,0,0,1,2132.05,1784.74Zm-512.73-8.6h0a1.21,1.21,0,0,1-1.15-1.23v-.24a2.41,2.41,0,0,1,2.1-2.21l7.33-1a1.13,1.13,0,0,1,1.29.94.13.13,0,0,1,0,.06,1.15,1.15,0,0,1-1,1.31h0l-7.32,1.09-.15.23a1.08,1.08,0,0,1-1.08,1.05Zm29.89-5.4a1.15,1.15,0,0,1-1.11-1.2,1.17,1.17,0,0,1,1-1.1l9.19-1.28a1.16,1.16,0,0,1,.31,2.3l-9.18,1.27Zm30.62-4.21a1.16,1.16,0,0,1-1.17-1.15,1.17,1.17,0,0,1,1-1.16l9.19-1.26a1.16,1.16,0,0,1,.31,2.3l-9.18,1.26Zm30.63-4.17a1.15,1.15,0,1,1-.15-2.3l9.19-1.24a1.16,1.16,0,1,1,.51,2.27l-.2,0-9.19,1.24Zm30.64-4.1a1.16,1.16,0,0,1-.15-2.31l9.19-1.22a1.19,1.19,0,0,1,1.3,1,1.16,1.16,0,0,1-1,1.3l-9.19,1.22Zm382.79-3.34a1.15,1.15,0,0,1-1.11-.82q-1.38-4.62-2.7-8.86a1.16,1.16,0,0,1,2.16-.83,1.21,1.21,0,0,1,.05.14c.89,2.83,1.79,5.8,2.71,8.88a1.16,1.16,0,0,1-.77,1.45h0a1,1,0,0,1-.33.09Zm-352.15-.7a1.16,1.16,0,0,1-.15-2.31l9.19-1.2a1.18,1.18,0,0,1,1.32,1,1.16,1.16,0,0,1-1,1.32h-.05l-9.19,1.2Zm30.65-4a1.16,1.16,0,0,1-.15-2.31l9.2-1.17a1.14,1.14,0,0,1,1.29,1v0a1.16,1.16,0,0,1-1,1.3l-9.19,1.17Zm30.66-3.9a1.15,1.15,0,1,1-.15-2.3l9.2-1.16a1.13,1.13,0,0,1,1.28.94s0,0,0,.06a1.15,1.15,0,0,1-1,1.29l-9.2,1.15Zm30.66-3.82a1.15,1.15,0,0,1-.14-2.3l9.2-1.13a1.12,1.12,0,0,1,1.28.92s0,0,0,.08a1.15,1.15,0,0,1-1,1.29l-9.2,1.12Zm30.67-3.72a1.15,1.15,0,0,1-1.15-1.17,1.18,1.18,0,0,1,1-1.14l9.21-1.1a1.13,1.13,0,0,1,1.27,1v0a1.15,1.15,0,0,1-1,1.29l-9.2,1.09Zm30.69-3.61a1.14,1.14,0,0,1-.15-2.28l9.21-1.06a1.17,1.17,0,0,1,1.21,1.11,1.15,1.15,0,0,1-.95,1.19l-9.21,1.06Zm30.7-3.48a1.15,1.15,0,0,1-1.14-1.18,1.17,1.17,0,0,1,1-1.13l9.22-1a1.13,1.13,0,0,1,1.27.95.11.11,0,0,1,0,.05,1.15,1.15,0,0,1-1,1.28l-9.21,1Zm30.73-3.31a1.15,1.15,0,0,1-1.13-1.18,1.16,1.16,0,0,1,1-1.13l9.22-1a1.19,1.19,0,0,1,1.27,1,1.15,1.15,0,0,1-1,1.27l-9.22,1Zm127.93-2.91a1.15,1.15,0,0,1-1.1-.78c-.74-2.14-1.43-4.08-2-5.82h-1.56a1.16,1.16,0,1,1,0-2.32h1.87a1.86,1.86,0,0,1,1.77,1.14c.66,1.84,1.4,3.93,2.2,6.24a1.16,1.16,0,0,1-.71,1.48h0a1.25,1.25,0,0,1-.42.08Zm-97.19-.18a1.16,1.16,0,0,1-.11-2.31l9.23-.87a1.11,1.11,0,0,1,1.25,1,.11.11,0,0,1,0,0,1.16,1.16,0,0,1-1,1.26l-9.23.87Zm30.77-2.78a1.15,1.15,0,0,1-1.15-1.06,1.14,1.14,0,0,1,1-1.24h0l9.24-.76a1.12,1.12,0,0,1,1.24,1,.25.25,0,0,1,0,.08,1.15,1.15,0,0,1-1,1.24h0l-9.24.76Zm30.82-2.3a1.15,1.15,0,0,1-1.09-1.22,1.16,1.16,0,0,1,1-1.09q4.83-.32,9.26-.55a1.16,1.16,0,0,1,1.22,1.1,1.15,1.15,0,0,1-1.09,1.22h0c-3,.16-6,.34-9.25.54Z"/><path class="cls-49" d="M1939,1970l-66.81,8.55a17.4,17.4,0,0,1-19.11-13l-16-63.31a17.38,17.38,0,0,1,12.67-21.06,19.82,19.82,0,0,1,2-.38l80.26-10.27a17.39,17.39,0,0,1,19.49,15c.06.51.11,1,.13,1.54l2.49,65A17.39,17.39,0,0,1,1939,1970Z"/><path class="cls-50" d="M1929.35,1959.17l-50.85,6.51a13.25,13.25,0,0,1-14.55-9.87l-12.13-48.18a13.21,13.21,0,0,1,9.62-16,14,14,0,0,1,1.57-.3l61.09-7.82a13.24,13.24,0,0,1,14.83,11.41c0,.39.08.78.1,1.17l1.9,49.49A13.24,13.24,0,0,1,1929.35,1959.17Z"/><path class="cls-51" d="M1889.56,1446.85c15.76,65.12,16.18,128.82,13.78,152a18,18,0,0,1-16.7,16.18c-10,.7-23.52,1.62-35.64,2.31-13.32.77-28.1-7.65-38-14.68a5.94,5.94,0,0,0-8.75,7.52c4.85,9.5,13.29,17,21.66,23.34,5,3.83,21.77,10.63,20.61,18.16a13.32,13.32,0,0,1-3.35,6.3c-9.3,11.16-23.37,17.12-37.26,21.38-1.74.54-3.58,1.11-4.81,2.46-.35,9,27.28,19,34.42,21.33a79.23,79.23,0,0,0,33.23,3.86c27.81-2.93,53.48-22.12,68.46-45.26,40-61.85,60.73-136.55,68.29-193.68C1968.27,1430.87,1912.05,1440.3,1889.56,1446.85Z"/><path class="cls-52" d="M2005.51,1474c29.7-224.35-143.19-396.86-143.19-396.86L1759.45,1197c78.1,97.34,115.22,186.54,132.18,256.6C1914.12,1447.09,1968.27,1436.75,2005.51,1474Z"/><path class="cls-53" d="M1889.18,1452.55a6.37,6.37,0,0,1-6.19-4.88c-20.9-86.36-65-171.86-131-254.11a6.38,6.38,0,0,1,9.93-8c67.17,83.73,112.06,170.9,133.41,259.1a6.37,6.37,0,0,1-4.7,7.69A5.83,5.83,0,0,1,1889.18,1452.55Z"/><path class="cls-54" d="M496,2782.54a12.4,12.4,0,0,0-.33-3.32C479.15,2713.64,397,2672.78,397,2672.78l-32.54,2.55c-18.71,57.81-16.3,93.27-13.3,109.06.09.44.22.86.34,1.29C378.35,2788.08,433.62,2789.65,496,2782.54Z"/><path class="cls-55" d="M351.54,2785.68c1.45,5.27,5.34,9.38,10.32,10.43,38.18,8,98.87,1.57,124.35-1.76,5.62-.74,9.73-5.94,9.82-11.81C433.62,2789.65,378.35,2788.08,351.54,2785.68Z"/><path class="cls-56" d="M351.42,2626.87l13.78,66.34c1,4.86,4.75,8.5,9.27,8.93a91.85,91.85,0,0,0,21.35-.34c7.11-1,12.06-8.27,10.8-16L397,2626.9Z"/><path class="cls-57" d="M637,2784.84c-35.94-1-54.52-5.24-64.13-9.16,0,3.57,0,7.21.11,11,.13,4,3.11,7.24,6.77,7.22L777,2792.62c6.3,0,10-7.34,7.25-13.11C758.35,2781.61,692.5,2786.4,637,2784.84Z"/><path class="cls-58" d="M784.26,2779.48a8.82,8.82,0,0,0-.78-1.49c-17.43-24.35-61.81-72.83-149.5-93.86l-42.07-1.33s-18.74,32.56-19.09,92.88c9.61,3.92,28.19,8.16,64.13,9.16C692.5,2786.4,758.35,2781.61,784.26,2779.48Z"/><path class="cls-59" d="M582.23,2621c.66,3.1,9.42,50.31,12.81,68.61a9.13,9.13,0,0,0,8.22,7.76c7.21.41,18.83.45,28.82-2.26,5.39-1.46,9-7,8.63-13.06L636,2607.36Z"/><path class="cls-60" d="M550.35,1749.42s57.87,397.67,99.64,870.9c.78,8.81-6.25,16.48-14.9,18.31-12.76,2.68-31.52,5.87-47,5.44a17.41,17.41,0,0,1-16.61-14.55c-14.23-83.44-115.76-531.24-142.4-629.8,0,0-30.61,418.65-20.83,635.84a10.28,10.28,0,0,1-9.08,10.71,172.72,172.72,0,0,1-37.76-.11,13.76,13.76,0,0,1-12.28-11.69c-10.13-70.62-68.46-490.95-66-793.74.14-17.07,20-157.36,20-157.36Z"/><path class="cls-61" d="M294.44,1772.34a16.35,16.35,0,0,1-10.74-13.79c-7.7-74.67-45-537.62,190.29-728.06,0,0,13.49-35.3,124.38,51.47s51.52,177.71,25,303.15c-32.12,151.79-88.49,275.87-63.55,369.28a13,13,0,0,1-7.93,15.52C465.72,1801.66,379.91,1802.71,294.44,1772.34Z"/><path class="cls-62" d="M565.75,891.78c-.07,6.59-94,140-94,140S488.61,1065,569.11,1092l69.48-142.86Z"/><path class="cls-63" d="M639.71,815.32s33.43,76.79,35.67,117.09,10.93,66.45-35.67,74.56-85.85-15.1-107.12-55.24c0,0-33.32-61.86-25.84-87.19S639.71,815.32,639.71,815.32Z"/><path class="cls-64" d="M548.52,922.87l2.65-1.17a6.39,6.39,0,0,0,3.3-8.41l-.18-.38c-6.57-12.69-19.38-41.79-2.83-48.57,21.33-8.75,105.81-26,124-56,17.52-28.81,2-66-21.33-76.58a3.21,3.21,0,0,0-4.2,1.37L648,736.86a3.16,3.16,0,0,1-5.84-.6h0a3.17,3.17,0,0,0-3.91-2.17,3.22,3.22,0,0,0-1.8,1.35c-5.6,9-20.72,23.51-61.17,31-57.49,10.61-95.5,33.88-96.44,73.6a3.16,3.16,0,0,1-4.9,2.62c-4.25-2.59-11-3.81-20.12,3.83-15.79,13.27-9.33,47.71,25.28,76a3.14,3.14,0,0,1,.55,4.41,2.75,2.75,0,0,1-.7.66c-6.27,4.08-15.62,13.8,8.61,26.75,25.07,13.4,43.79,12.31,51,11.12a3.15,3.15,0,0,0,2.59-3.62c0-.06,0-.12,0-.19l-7.69-34.91a3.16,3.16,0,0,1,2.42-3.77,3.72,3.72,0,0,1,.67-.08Z"/><path class="cls-65" d="M550,930.24s-12.75-49-34.74-35.3,11.41,55,29.09,56.79Z"/><path class="cls-66" d="M634,1122.22l6.48,174a477.21,477.21,0,0,0,52.59,14.93c10.43-33.59,33.4-74.81,52.21-105.46C676.21,1181.22,634,1122.22,634,1122.22Z"/><path class="cls-67" d="M979.07,1119.26c-94.8,102.35-171.53,108.38-233.75,86.38-18.81,30.65-41.78,71.87-52.21,105.46,253.15,55.81,312.77-176.92,312.77-176.92Z"/><path class="cls-68" d="M998.29,1108.39s10.92-11.72,31.13-8,38.2,10.71,50.8,0,17,3.66,17,3.66l-37.7,28.67Z"/><path class="cls-69" d="M975.74,1128.44s7.48-31.29,30-27,73.74,32.13,86.93,27,30.06-17.4,38.72-13.07l-15.25,19s39.19-22.61,45.94-8.72l-65.21,36.7S1001.49,1152.76,975.74,1128.44Z"/><path class="cls-70" d="M528.81,1349.88S707,1499.14,899.49,1434a45.85,45.85,0,0,1,36.13,2.73L991,1466a49.39,49.39,0,0,0,65.45-18.33c7.69-12.86,14.25-27.55,15.55-41.61L963.69,1362.2l8-13.28s-52.85-4.48-66.69,33.41c0,0-100.68,41.87-270.47-144.88C634.51,1237.44,557.46,1303,528.81,1349.88Z"/><path class="cls-71" d="M519.22,1348.34a2.91,2.91,0,0,1-1.71-.53c-75-50.7-110.34-132.54-110.69-133.36a3.05,3.05,0,1,1,5.62-2.38c.34.8,35,81,108.49,130.69a3,3,0,0,1-1.71,5.58Z"/><path class="cls-72" d="M631,1234.91a3,3,0,0,1-2.56-1.4c-.23-.35-23.16-36-66.82-114.23-13.43-24-31.08-39.27-52.45-45.25-35.4-9.89-69.52,9.09-69.86,9.28a3,3,0,0,1-3-5.31c1.47-.83,36.56-20.46,74.46-9.86,23,6.43,41.93,22.63,56.19,48.16,43.55,78,66.39,113.55,66.62,113.91a3.05,3.05,0,0,1-.92,4.22,2.92,2.92,0,0,1-1.65.48Z"/></g></g></g></svg>