<svg xmlns="http://www.w3.org/2000/svg" xmlns:xlink="http://www.w3.org/1999/xlink" viewBox="0 0 408.99 311.86"><defs><style>.cls-1{fill:url(#linear-gradient);}.cls-2{opacity:0.81;}.cls-3{fill:#bdd0fb;}.cls-4{fill:#dce5fe;}.cls-5{opacity:0.88;}.cls-6{fill:url(#linear-gradient-2);}.cls-7{fill:url(#linear-gradient-3);}.cls-8{fill:url(#linear-gradient-4);}.cls-9{fill:url(#linear-gradient-5);}.cls-10{fill:url(#linear-gradient-6);}.cls-11{opacity:0.8;}.cls-12{fill:#91b3fa;}.cls-13,.cls-78,.cls-79{fill:#fff;}.cls-14{fill:url(#linear-gradient-7);}.cls-15{fill:url(#linear-gradient-8);}.cls-16{fill:url(#linear-gradient-9);}.cls-17{fill:url(#linear-gradient-10);}.cls-18{fill:url(#linear-gradient-11);}.cls-19{fill:url(#linear-gradient-12);}.cls-20{fill:url(#linear-gradient-13);}.cls-21{fill:url(#linear-gradient-14);}.cls-22{fill:url(#linear-gradient-15);}.cls-23{fill:url(#linear-gradient-16);}.cls-24{fill:url(#linear-gradient-17);}.cls-25{fill:url(#linear-gradient-18);}.cls-26{fill:url(#linear-gradient-19);}.cls-27{fill:url(#linear-gradient-20);}.cls-28{fill:url(#linear-gradient-21);}.cls-29{fill:url(#linear-gradient-22);}.cls-30{fill:url(#linear-gradient-23);}.cls-31{fill:url(#linear-gradient-24);}.cls-32{fill:url(#linear-gradient-25);}.cls-33{fill:#7d97f4;}.cls-34{fill:url(#linear-gradient-26);}.cls-35{fill:url(#linear-gradient-27);}.cls-36{fill:url(#linear-gradient-28);}.cls-37{fill:url(#linear-gradient-29);}.cls-38{fill:url(#linear-gradient-30);}.cls-39{fill:url(#linear-gradient-31);}.cls-40{fill:url(#linear-gradient-32);}.cls-41{fill:url(#linear-gradient-33);}.cls-42{fill:url(#linear-gradient-34);}.cls-43{fill:url(#linear-gradient-35);}.cls-44{fill:url(#linear-gradient-36);}.cls-45{fill:url(#linear-gradient-37);}.cls-46{fill:url(#linear-gradient-38);}.cls-47{fill:url(#linear-gradient-39);}.cls-48{fill:url(#linear-gradient-40);}.cls-49{fill:url(#linear-gradient-41);}.cls-50{fill:url(#linear-gradient-42);}.cls-51{fill:url(#linear-gradient-43);}.cls-52{fill:url(#linear-gradient-44);}.cls-53{fill:url(#linear-gradient-45);}.cls-54{fill:url(#linear-gradient-46);}.cls-55{fill:url(#linear-gradient-47);}.cls-56{fill:url(#linear-gradient-48);}.cls-57{fill:url(#linear-gradient-49);}.cls-58{fill:url(#linear-gradient-50);}.cls-59{fill:url(#linear-gradient-51);}.cls-60{fill:url(#linear-gradient-52);}.cls-61{fill:url(#linear-gradient-53);}.cls-62{fill:url(#linear-gradient-54);}.cls-63{fill:url(#linear-gradient-55);}.cls-64{fill:url(#linear-gradient-56);}.cls-65{fill:url(#linear-gradient-57);}.cls-66{fill:url(#linear-gradient-58);}.cls-67{fill:url(#linear-gradient-59);}.cls-68{fill:url(#linear-gradient-60);}.cls-69{fill:url(#linear-gradient-61);}.cls-70{fill:url(#linear-gradient-62);}.cls-71{fill:url(#linear-gradient-63);}.cls-72{fill:url(#linear-gradient-64);}.cls-73{fill:url(#linear-gradient-65);}.cls-74{fill:url(#linear-gradient-66);}.cls-75{fill:url(#linear-gradient-67);}.cls-76{fill:url(#linear-gradient-68);}.cls-77{fill:url(#linear-gradient-69);}.cls-78,.cls-79{isolation:isolate;}.cls-78{opacity:0.6;}.cls-79{opacity:0.78;}.cls-80{fill:url(#linear-gradient-70);}.cls-81{fill:url(#linear-gradient-71);}.cls-82{fill:url(#linear-gradient-72);}.cls-83{fill:url(#linear-gradient-73);}.cls-84{fill:url(#linear-gradient-74);}.cls-85{fill:url(#linear-gradient-75);}.cls-86{fill:url(#linear-gradient-76);}.cls-87{fill:url(#linear-gradient-77);}.cls-88{fill:url(#linear-gradient-78);}.cls-89{fill:url(#linear-gradient-79);}.cls-90{fill:url(#linear-gradient-80);}.cls-91{fill:url(#linear-gradient-81);}.cls-92{fill:url(#linear-gradient-82);}.cls-93{fill:url(#linear-gradient-83);}.cls-94{fill:url(#linear-gradient-84);}.cls-95{fill:url(#linear-gradient-85);}.cls-96{fill:url(#linear-gradient-86);}</style><linearGradient id="linear-gradient" x1="7.72" y1="241.86" x2="408.5" y2="241.86" gradientTransform="matrix(1, 0, 0, -1, 0, 387.72)" gradientUnits="userSpaceOnUse"><stop offset="0" stop-color="#dae3fe"/><stop offset="1" stop-color="#e9effd"/></linearGradient><linearGradient id="linear-gradient-2" x1="142.67" y1="297.1" x2="87.05" y2="64.49" gradientTransform="matrix(1, 0, 0, -1, 0, 387.72)" gradientUnits="userSpaceOnUse"><stop offset="0" stop-color="#fe7062"/><stop offset="1" stop-color="#ff928e"/></linearGradient><linearGradient id="linear-gradient-3" x1="220.67" y1="276.02" x2="165.07" y2="43.48" xlink:href="#linear-gradient-2"/><linearGradient id="linear-gradient-4" x1="176.97" y1="288.02" x2="121.29" y2="55.19" xlink:href="#linear-gradient-2"/><linearGradient id="linear-gradient-5" x1="305.26" y1="253.27" x2="249.57" y2="20.4" xlink:href="#linear-gradient-2"/><linearGradient id="linear-gradient-6" x1="251.25" y1="217.58" x2="195.55" y2="-15.37" xlink:href="#linear-gradient-2"/><linearGradient id="linear-gradient-7" x1="310.68" y1="225.49" x2="313.18" y2="99.3" gradientTransform="matrix(1, 0, 0, -1, 0, 387.72)" gradientUnits="userSpaceOnUse"><stop offset="0" stop-color="#4042e2"/><stop offset="1" stop-color="#4f52ff"/></linearGradient><linearGradient id="linear-gradient-8" x1="241.74" y1="195.26" x2="249.19" y2="47.15" xlink:href="#linear-gradient-7"/><linearGradient id="linear-gradient-9" x1="158.11" y1="73.43" x2="181.08" y2="207.13" xlink:href="#linear-gradient-7"/><linearGradient id="linear-gradient-10" x1="104.39" y1="99.99" x2="114.67" y2="26.02" xlink:href="#linear-gradient-7"/><linearGradient id="linear-gradient-11" x1="83.31" y1="59.51" x2="83.54" y2="35.9" gradientTransform="matrix(1, 0, 0, -1, 0, 387.72)" gradientUnits="userSpaceOnUse"><stop offset="0" stop-color="#09005d"/><stop offset="1" stop-color="#1a0f91"/></linearGradient><linearGradient id="linear-gradient-12" x1="78.26" y1="85.89" x2="77.03" y2="95.51" gradientTransform="matrix(1, 0, 0, -1, 0, 387.72)" gradientUnits="userSpaceOnUse"><stop offset="0" stop-color="#ff928e"/><stop offset="1" stop-color="#feb3b1"/></linearGradient><linearGradient id="linear-gradient-13" x1="54.83" y1="59.19" x2="55.05" y2="35.56" xlink:href="#linear-gradient-11"/><linearGradient id="linear-gradient-14" x1="54.36" y1="82.6" x2="53.17" y2="91.91" xlink:href="#linear-gradient-12"/><linearGradient id="linear-gradient-15" x1="46.84" y1="118.13" x2="79.67" y2="118.13" xlink:href="#linear-gradient-7"/><linearGradient id="linear-gradient-16" x1="53.14" y1="123.84" x2="54.47" y2="126.5" xlink:href="#linear-gradient-7"/><linearGradient id="linear-gradient-17" x1="73.83" y1="179.96" x2="51.31" y2="113.06" xlink:href="#linear-gradient-11"/><linearGradient id="linear-gradient-18" x1="74.21" y1="168.14" x2="76.18" y2="168.14" xlink:href="#linear-gradient-7"/><linearGradient id="linear-gradient-19" x1="62.35" y1="144.01" x2="77.29" y2="144.01" xlink:href="#linear-gradient-12"/><linearGradient id="linear-gradient-20" x1="76.15" y1="165.01" x2="104.04" y2="165.01" xlink:href="#linear-gradient-12"/><linearGradient id="linear-gradient-21" x1="72.99" y1="193.17" x2="69.49" y2="179.01" xlink:href="#linear-gradient-12"/><linearGradient id="linear-gradient-22" x1="84.54" y1="196.43" x2="72.85" y2="196.27" xlink:href="#linear-gradient-12"/><linearGradient id="linear-gradient-23" x1="70.91" y1="196.44" x2="85.39" y2="196.44" xlink:href="#linear-gradient-11"/><linearGradient id="linear-gradient-24" x1="70.86" y1="193.71" x2="67.37" y2="179.55" xlink:href="#linear-gradient-12"/><linearGradient id="linear-gradient-25" x1="57.54" y1="163.48" x2="68.48" y2="163.48" xlink:href="#linear-gradient-7"/><linearGradient id="linear-gradient-26" x1="133.31" y1="85.81" x2="138.49" y2="118.39" xlink:href="#linear-gradient-11"/><linearGradient id="linear-gradient-27" x1="135.37" y1="85.43" x2="140.18" y2="115.69" xlink:href="#linear-gradient-11"/><linearGradient id="linear-gradient-28" x1="131.48" y1="87.02" x2="136.49" y2="118.52" xlink:href="#linear-gradient-11"/><linearGradient id="linear-gradient-29" x1="118.42" y1="107.91" x2="115.47" y2="78.07" gradientTransform="matrix(1, 0, 0, -1, 0, 387.72)" gradientUnits="userSpaceOnUse"><stop offset="0" stop-color="#ff928e"/><stop offset="0.48" stop-color="#ffa29f"/><stop offset="1" stop-color="#feb3b1"/></linearGradient><linearGradient id="linear-gradient-30" x1="121.17" y1="95.42" x2="118.68" y2="57.11" xlink:href="#linear-gradient-11"/><linearGradient id="linear-gradient-31" x1="93.96" y1="105.4" x2="126.07" y2="105.4" xlink:href="#linear-gradient-12"/><linearGradient id="linear-gradient-32" x1="113.76" y1="124.19" x2="149.75" y2="124.19" gradientTransform="matrix(1, 0, 0, -1, 0, 387.72)" gradientUnits="userSpaceOnUse"><stop offset="0" stop-color="#e1473d"/><stop offset="1" stop-color="#e9605a"/></linearGradient><linearGradient id="linear-gradient-33" x1="99.61" y1="96.82" x2="97.14" y2="59.01" xlink:href="#linear-gradient-11"/><linearGradient id="linear-gradient-34" x1="150.9" y1="173.57" x2="137.81" y2="160.76" xlink:href="#linear-gradient-11"/><linearGradient id="linear-gradient-35" x1="128.58" y1="162.77" x2="128.58" y2="155.03" xlink:href="#linear-gradient-12"/><linearGradient id="linear-gradient-36" x1="133.84" y1="172.39" x2="125.3" y2="174.2" xlink:href="#linear-gradient-12"/><linearGradient id="linear-gradient-37" x1="140.19" y1="186.11" x2="126.55" y2="172.76" xlink:href="#linear-gradient-11"/><linearGradient id="linear-gradient-38" x1="133.67" y1="171.64" x2="125.18" y2="173.43" xlink:href="#linear-gradient-12"/><linearGradient id="linear-gradient-39" x1="74.07" y1="134.78" x2="104.25" y2="134.78" xlink:href="#linear-gradient-12"/><linearGradient id="linear-gradient-40" x1="108.93" y1="37.63" x2="89.92" y2="32.42" gradientTransform="matrix(1, -0.05, -0.05, -1, 32.89, 293.02)" xlink:href="#linear-gradient-11"/><linearGradient id="linear-gradient-41" x1="114.68" y1="151.67" x2="100.28" y2="136.45" xlink:href="#linear-gradient-11"/><linearGradient id="linear-gradient-42" x1="106.25" y1="148.05" x2="99.44" y2="137.8" xlink:href="#linear-gradient-7"/><linearGradient id="linear-gradient-43" x1="65.36" y1="133.46" x2="88.55" y2="133.46" xlink:href="#linear-gradient-2"/><linearGradient id="linear-gradient-44" x1="76.37" y1="118.83" x2="76.26" y2="125.44" gradientTransform="matrix(1, 0, 0, -1, 0, 387.72)" gradientUnits="userSpaceOnUse"><stop offset="0" stop-color="#a22b25"/><stop offset="1" stop-color="#c0423c"/></linearGradient><linearGradient id="linear-gradient-45" x1="247.35" y1="360.73" x2="127.66" y2="243.65" xlink:href="#linear-gradient-11"/><linearGradient id="linear-gradient-46" x1="114.49" y1="273.52" x2="102.51" y2="261.8" xlink:href="#linear-gradient-11"/><linearGradient id="linear-gradient-47" x1="158.42" y1="300.42" x2="146.44" y2="288.7" xlink:href="#linear-gradient-11"/><linearGradient id="linear-gradient-48" x1="199.63" y1="281.13" x2="187.65" y2="269.41" xlink:href="#linear-gradient-11"/><linearGradient id="linear-gradient-49" x1="234.04" y1="319.21" x2="222.06" y2="307.49" xlink:href="#linear-gradient-11"/><linearGradient id="linear-gradient-50" x1="276.61" y1="346.62" x2="264.63" y2="334.91" xlink:href="#linear-gradient-11"/><linearGradient id="linear-gradient-51" x1="-101.88" y1="84.45" x2="-97.84" y2="103.81" gradientTransform="matrix(1, 0, 0, -1, 333.84, 387.72)" xlink:href="#linear-gradient-32"/><linearGradient id="linear-gradient-52" x1="-75.11" y1="78.4" x2="-59.9" y2="78.4" gradientTransform="matrix(1, 0, 0, -1, 333.84, 387.72)" xlink:href="#linear-gradient-7"/><linearGradient id="linear-gradient-53" x1="-63.01" y1="110.4" x2="-67.54" y2="79.09" gradientTransform="matrix(1, 0, 0, -1, 333.84, 387.72)" xlink:href="#linear-gradient-11"/><linearGradient id="linear-gradient-54" x1="-74.35" y1="83.57" x2="-70.24" y2="83.57" gradientTransform="matrix(1, 0, 0, -1, 333.84, 387.72)" xlink:href="#linear-gradient-12"/><linearGradient id="linear-gradient-55" x1="-51.24" y1="81.81" x2="-38.95" y2="81.81" gradientTransform="matrix(1, 0, 0, -1, 333.84, 387.72)" xlink:href="#linear-gradient-7"/><linearGradient id="linear-gradient-56" x1="-42.46" y1="107.51" x2="-47.06" y2="75.78" gradientTransform="matrix(1, 0, 0, -1, 333.84, 387.72)" xlink:href="#linear-gradient-11"/><linearGradient id="linear-gradient-57" x1="252.91" y1="113.02" x2="249.46" y2="96.88" xlink:href="#linear-gradient-11"/><linearGradient id="linear-gradient-58" x1="-54.84" y1="83.17" x2="-49.93" y2="83.17" gradientTransform="matrix(1, 0, 0, -1, 333.84, 387.72)" xlink:href="#linear-gradient-12"/><linearGradient id="linear-gradient-59" x1="260.28" y1="139.07" x2="257.03" y2="118.46" xlink:href="#linear-gradient-11"/><linearGradient id="linear-gradient-60" x1="255.97" y1="164.71" x2="263.75" y2="169.43" xlink:href="#linear-gradient-12"/><linearGradient id="linear-gradient-61" x1="253.66" y1="139.64" x2="236.42" y2="96.7" xlink:href="#linear-gradient-11"/><linearGradient id="linear-gradient-62" x1="256.43" y1="152.14" x2="233.62" y2="127.32" xlink:href="#linear-gradient-7"/><linearGradient id="linear-gradient-63" x1="-61.45" y1="134.21" x2="-50.09" y2="134.21" gradientTransform="matrix(1, 0, 0, -1, 333.84, 387.72)" gradientUnits="userSpaceOnUse"><stop offset="0" stop-color="#f9b776"/><stop offset="1" stop-color="#f47960"/></linearGradient><linearGradient id="linear-gradient-64" x1="282.22" y1="182.15" x2="280.88" y2="148.87" xlink:href="#linear-gradient-11"/><linearGradient id="linear-gradient-65" x1="263.81" y1="170.61" x2="254.49" y2="164.4" xlink:href="#linear-gradient-12"/><linearGradient id="linear-gradient-66" x1="272.19" y1="1354.39" x2="284.52" y2="1338.52" gradientTransform="matrix(0.92, 0.39, 0.39, -0.92, -518.37, 1352.18)" xlink:href="#linear-gradient-11"/><linearGradient id="linear-gradient-67" x1="262.3" y1="173.78" x2="252.7" y2="167.38" xlink:href="#linear-gradient-12"/><linearGradient id="linear-gradient-68" x1="280.98" y1="196.39" x2="300.41" y2="218.94" xlink:href="#linear-gradient-32"/><linearGradient id="linear-gradient-69" x1="311.53" y1="235.6" x2="253.31" y2="147.65" xlink:href="#linear-gradient-12"/><linearGradient id="linear-gradient-70" x1="310" y1="233.44" x2="278.16" y2="179.99" xlink:href="#linear-gradient-32"/><linearGradient id="linear-gradient-71" x1="304.78" y1="197.32" x2="338.6" y2="236.57" xlink:href="#linear-gradient-32"/><linearGradient id="linear-gradient-72" x1="357.96" y1="265.58" x2="256.61" y2="112.47" xlink:href="#linear-gradient-12"/><linearGradient id="linear-gradient-73" x1="355.31" y1="261.82" x2="299.88" y2="168.76" xlink:href="#linear-gradient-32"/><linearGradient id="linear-gradient-74" x1="320.01" y1="137.23" x2="354.81" y2="177.62" xlink:href="#linear-gradient-32"/><linearGradient id="linear-gradient-75" x1="374.72" y1="207.46" x2="270.44" y2="49.92" xlink:href="#linear-gradient-12"/><linearGradient id="linear-gradient-76" x1="372.02" y1="203.59" x2="314.98" y2="107.83" xlink:href="#linear-gradient-32"/><linearGradient id="linear-gradient-77" x1="360.56" y1="185.23" x2="386.06" y2="214.82" xlink:href="#linear-gradient-32"/><linearGradient id="linear-gradient-78" x1="400.65" y1="236.69" x2="324.24" y2="121.26" xlink:href="#linear-gradient-12"/><linearGradient id="linear-gradient-79" x1="398.64" y1="233.87" x2="356.84" y2="163.71" xlink:href="#linear-gradient-32"/><linearGradient id="linear-gradient-80" x1="-3856.85" y1="-3243.23" x2="-3869.92" y2="-3260.79" gradientTransform="matrix(0.74, -0.67, 0.67, 0.74, 5276.13, -177.41)" xlink:href="#linear-gradient-32"/><linearGradient id="linear-gradient-81" x1="-1758.81" y1="-3104.82" x2="-1750.81" y2="-3088.52" gradientTransform="translate(3353.03 -1671.59) rotate(-89.26)" xlink:href="#linear-gradient-7"/><linearGradient id="linear-gradient-82" x1="-1714.53" y1="-3105.69" x2="-1727.04" y2="-3084.53" gradientTransform="translate(3353.03 -1671.59) rotate(-89.26)" xlink:href="#linear-gradient-7"/><linearGradient id="linear-gradient-83" x1="248.12" y1="359.01" x2="271.28" y2="366.34" xlink:href="#linear-gradient-7"/><linearGradient id="linear-gradient-84" x1="-1731.41" y1="-3047.31" x2="-1748.65" y2="-3072.24" gradientTransform="translate(3353.03 -1671.59) rotate(-89.26)" xlink:href="#linear-gradient-11"/><linearGradient id="linear-gradient-85" x1="-1743.48" y1="-3067.77" x2="-1731.62" y2="-3067.77" gradientTransform="translate(3353.03 -1671.59) rotate(-89.26)" xlink:href="#linear-gradient-11"/><linearGradient id="linear-gradient-86" x1="-1741.52" y1="-3080.26" x2="-1733.69" y2="-3080.26" gradientTransform="translate(3353.03 -1671.59) rotate(-89.26)" xlink:href="#linear-gradient-11"/></defs><g id="Layer_2" data-name="Layer 2"><g id="Layer_1-2" data-name="Layer 1"><path class="cls-1" d="M89.43,18.12c-23,16.28-39.24,3.69-53.11,21C-7,92.89,47.91,113.28,22.39,121.54c-27.7,9-10.46,48.52,5.13,60s27.17,18.31,5,30-26,24.61-16.73,45.64,26.87,27.64,100,28.9,214.67-1.39,253.3-13.35,10.46-42.75,26.69-65.74,19.44-36.49-5.43-58.82-10.71-45.4-3.24-61.68,13.21-45.8-16.75-54.22-64.8,25.19-79.88,8.12-8.44-39.72-41.34-34-44,49.83-72.7,47.39S138.13-16.41,89.43,18.12Z"/><g class="cls-2"><path class="cls-3" d="M115.36,303.51s-3.81-49.23-61.68-66.42c-38.61-11.48-49.5-24.53-52.46-29.94a.65.65,0,0,0-1.22.37c-.09,9.14,2.5,37.92,35.75,60.59C75.84,295.43,99.58,284.15,115.36,303.51Z"/></g><g class="cls-2"><path class="cls-3" d="M277.06,294S180.53,182,329,32.09c0,0,8.82,64.39-27.1,128.7S262,263.47,277.06,294Z"/><path class="cls-4" d="M304.33,93.56a158.59,158.59,0,0,0-13.44,20.08c-2,3.52-4,7.09-5.77,10.77s-3.54,7.37-5.16,11.13A204,204,0,0,0,266.05,183q-1,6.15-1.64,12.39c-.42,4.15-.73,8.31-.86,12.48-.11,2.09-.11,4.17-.15,6.26s0,4.19.07,6.26c.1,4.17.35,8.35.69,12.52a228,228,0,0,0,9.89,48.9.26.26,0,0,1-.13.32.2.2,0,0,1-.27-.12,215.36,215.36,0,0,1-7.11-24,197.61,197.61,0,0,1-4.15-24.89,191.81,191.81,0,0,1,1.52-50.54c.67-4.17,1.49-8.32,2.44-12.4s2-8.16,3.24-12.15,2.55-8,4-11.86,3-7.76,4.73-11.52,3.5-7.5,5.41-11.13,3.94-7.2,6.08-10.68,4.4-6.86,6.74-10.15a108,108,0,0,1,7.51-9.44.21.21,0,0,1,.31,0,.25.25,0,0,1,0,.28Z"/></g><g class="cls-5"><path class="cls-3" d="M92.4,56.23c-1.85-3.31-6.42-1.43-6,2.44,2.38,19.93,5.22,54.73-.37,77.47-8.23,33.43-23,131.8,60.37,156.71C146.42,292.85,138.49,138.21,92.4,56.23Z"/><path class="cls-4" d="M99.79,97.36a44.64,44.64,0,0,1,2.29,6c.65,2.08,1.16,4.17,1.64,6.29a118.82,118.82,0,0,1,2,12.9l.27,3.27c.09,1.09.11,2.18.19,3.27.13,2.18.15,4.36.19,6.56,0,.55,0,1.09,0,1.64l0,1.65-.08,3.27c0,1.09-.09,2.17-.15,3.26l-.17,3.27c-.27,4.38-.82,8.7-1.37,13l-1.68,12.82A205,205,0,0,0,101,200.1a116.24,116.24,0,0,0,2.65,25.21c.52,2,1,4.11,1.58,6.11.31,1,.57,2,.9,3l1,3,.51,1.47.57,1.45,1.15,2.91c.42,1,.85,1.9,1.27,2.84s.84,1.92,1.34,2.82l1.43,2.78c.24.47.47.92.72,1.39l.78,1.34,1.54,2.69.39.69.42.66.83,1.3,1.66,2.61c.55.88,1.18,1.69,1.75,2.54l1.78,2.52c.61.84,1.24,1.65,1.84,2.46a194.72,194.72,0,0,0,16.16,18.44.25.25,0,0,1,0,.34.22.22,0,0,1-.3,0,150.85,150.85,0,0,1-17.34-17.32c-.67-.79-1.36-1.56-2-2.38l-1.91-2.47c-.63-.84-1.28-1.65-1.88-2.5l-1.8-2.59-.89-1.3-.46-.64-.42-.67-1.68-2.69-.83-1.34c-.27-.45-.52-.94-.78-1.39l-1.55-2.8a103.75,103.75,0,0,1-9.22-24.25,112.87,112.87,0,0,1-3-26.17,186.48,186.48,0,0,1,2-26.15c1.14-8.61,2.71-17.07,3.51-25.55l.28-3.21c.08-1.07.21-2.14.25-3.2l.17-3.21.1-1.6c0-.54,0-1.07,0-1.6,0-2.14.14-4.28.1-6.43,0-1.07,0-2.14,0-3.21l-.13-3.2a124.17,124.17,0,0,0-1.22-12.78c-.32-2.11-.69-4.23-1.18-6.3a46.76,46.76,0,0,0-1.74-6.13v0a.27.27,0,0,1,.12-.32A.21.21,0,0,1,99.79,97.36Z"/></g><path class="cls-6" d="M124.53,172.09a3.58,3.58,0,0,0-3.36-3.76H94.67a3.58,3.58,0,0,0-3.36,3.76V299.81a3.58,3.58,0,0,0,3.36,3.76h26.5a3.58,3.58,0,0,0,3.36-3.76V172.09Z"/><path class="cls-7" d="M205.93,152.16H179.48c-1.85,0-3.39,2-3.39,4.34V299.13c0,2.33,1.54,4.46,3.39,4.46h26.45c1.85,0,3.83-2.13,3.83-4.46V156.5C209.74,154.17,207.78,152.16,205.93,152.16Z"/><path class="cls-8" d="M166.05,130a3.58,3.58,0,0,0-3.36-3.76H136.17a3.58,3.58,0,0,0-3.35,3.76V299.83a3.57,3.57,0,0,0,3.35,3.76h26.5a3.58,3.58,0,0,0,3.36-3.76V130Z"/><path class="cls-9" d="M309.84,69.69a3.58,3.58,0,0,0-3.36-3.76H280a3.58,3.58,0,0,0-3.36,3.76V299.83a3.58,3.58,0,0,0,3.36,3.76h26.5a3.58,3.58,0,0,0,3.36-3.76Z"/><path class="cls-10" d="M260.44,102.51a3.58,3.58,0,0,0-3.35-3.76h-26.5a3.58,3.58,0,0,0-3.36,3.76v197.3a3.58,3.58,0,0,0,3.36,3.76h26.5a3.58,3.58,0,0,0,3.35-3.76Z"/><g class="cls-11"><path class="cls-12" d="M121.17,301.33s-37.44,14.53-65.41-31.39c-26.28-43.13-10.48-97.08,1.1-127.89a1.51,1.51,0,0,1,2.94.41c3.48,25.94,19.64,127.4,63.35,158.78Z"/><path class="cls-13" d="M117.19,302.35a54,54,0,0,1-13.81-4.42,68.53,68.53,0,0,1-12.71-7.67,73.17,73.17,0,0,1-11.09-10.42,86,86,0,0,1-9.06-12.69,110.37,110.37,0,0,1-6.72-14.4l-1.3-3.81-.63-1.9-.53-1.94-1.07-3.87c-.3-1.3-.59-2.63-.85-3.93a129.89,129.89,0,0,1-2.58-32.07.24.24,0,0,1,.23-.23.23.23,0,0,1,.21.21h0c.25,2.67.48,5.32.67,8l.46,3.95c.15,1.33.26,2.65.45,4s.4,2.61.59,3.93.37,2.63.65,3.91c.54,2.59.92,5.2,1.6,7.74l.92,3.82,1.08,3.76.54,1.88.63,1.84,1.25,3.7a104.17,104.17,0,0,0,6.46,14,85.67,85.67,0,0,0,8.62,12.46,75.39,75.39,0,0,0,10.55,10.44,77.43,77.43,0,0,0,12.16,8.06,59.59,59.59,0,0,0,13.39,5.19h0a.25.25,0,0,1,.17.3C117.42,302.29,117.3,302.38,117.19,302.35Z"/></g><path class="cls-14" d="M250.88,277.81,312,146.52H299.49c-2.31,0-3.58-3-2.12-5l65.15-89c2.82-3.87,8.41-1.41,8.14,3.57l-4.57,87.06c-.27,5-4.22,8.7-8.64,8.14l-8.72-1.11L288.07,297.38a9.65,9.65,0,0,1-8.76,6.28h-21Z"/><path class="cls-15" d="M200.35,185.72,243.5,293.21c2.56,6.37,8.22,10.47,14.43,10.47h22.24a8,8,0,0,0,7.1-4.68l.8-1.6h0a6.3,6.3,0,0,1-5.65-3.89L224.93,167.2Z"/><path class="cls-16" d="M230.72,179.93h0c-4.33-3.82-10.65-2.71-13.7,2.44L153.57,289.24c-5.09,8.56-13.65,13.69-22.81,13.69h-8.94l-7.26-23.46s59-101.39,74.18-116.73c0,0,15.15-15.3,30.07-3.74a27.6,27.6,0,0,1,8.77,12.39Z"/><path class="cls-17" d="M45.54,216.38a46.83,46.83,0,0,1,31.2-17.2S86.51,202.92,106,242s32.39,57,47.56,47.22l-1.26,2.33C148.15,299.3,140.72,304,132.7,304h-8.38c-9.25,0-17.92-5-23.31-13.4C85.86,267,54.86,220.06,45.54,216.38Z"/><path class="cls-12" d="M363.3,83.64h-.07a.7.7,0,0,1-.57-.81l.43-4.25a.66.66,0,0,1,.73-.64.71.71,0,0,1,.57.81L364,83A.68.68,0,0,1,363.3,83.64Z"/><path class="cls-12" d="M308.92,137.29a.57.57,0,0,1-.4-.15.77.77,0,0,1-.11-1L362.2,57.75a2.1,2.1,0,0,1,2.68-.81,2.6,2.6,0,0,1,1.43,2.69l-.95,9.4a.67.67,0,0,1-.72.64.7.7,0,0,1-.57-.81l.95-9.4a1.12,1.12,0,0,0-.61-1.16.91.91,0,0,0-1.16.37L309.45,137A.71.71,0,0,1,308.92,137.29Z"/><path class="cls-12" d="M186.87,219.46a.57.57,0,0,1-.36-.13.78.78,0,0,1-.17-1l27.82-46.24a4.78,4.78,0,0,1,4.48-2.43,4.92,4.92,0,0,1,4.1,3.16.79.79,0,0,1-.31,1,.64.64,0,0,1-.88-.34,3.62,3.62,0,0,0-3-2.33,3.49,3.49,0,0,0-3.29,1.8l-27.82,46.23A.68.68,0,0,1,186.87,219.46Z"/><path class="cls-12" d="M179.65,231.47a.61.61,0,0,1-.36-.13.8.8,0,0,1-.17-1l1.79-3a.61.61,0,0,1,.91-.19.79.79,0,0,1,.18,1l-1.8,3A.65.65,0,0,1,179.65,231.47Z"/><g class="cls-2"><path class="cls-12" d="M399.89,135.09c-24.28,12.07-88.78,53.84-116.62,166.41,0,0,37.56.71,65.74-66.83,24.11-57.75,38-81.1,52.73-96.46C403.13,136.76,401.62,134.21,399.89,135.09Z"/><path class="cls-4" d="M287.94,295.2c1.07-3.38,2.23-6.71,3.45-10s2.48-6.58,3.81-9.85,2.67-6.5,4.08-9.7c.7-1.6,1.41-3.21,2.13-4.81s1.45-3.18,2.21-4.76q4.44-9.52,9.38-18.74c3.29-6.13,6.76-12.16,10.33-18.1A304.11,304.11,0,0,1,347,185.43l3.28-3.94c1.11-1.3,2.25-2.56,3.35-3.82l1.68-1.9,1.73-1.86c1.17-1.22,2.33-2.46,3.51-3.65a183.76,183.76,0,0,1,14.88-13.51.2.2,0,0,1,.31.07.27.27,0,0,1,0,.34h0c-4.94,4.49-9.74,9.17-14.29,14.12s-8.92,10.13-13.07,15.53a340.48,340.48,0,0,0-23.06,33.93c-3.54,5.9-6.94,11.92-10.23,18s-6.44,12.29-9.51,18.5c-6.12,12.48-11.89,25.19-17.17,38.18h0a.21.21,0,0,1-.28.13A.36.36,0,0,1,287.94,295.2Z"/></g><g class="cls-2"><path class="cls-3" d="M283.27,302.53s10.73-47.14,69.36-53.48c39.14-4.23,51.56-15,55.22-19.68.42-.55,1.22-.15,1.13.58-1.22,8.89-7.81,36.38-43.35,52.45C322.81,301.76,301.36,286.54,283.27,302.53Z"/><path class="cls-4" d="M286.36,293.42a90.8,90.8,0,0,1,11.79-10.7c2.1-1.6,4.23-3.16,6.43-4.57s4.42-2.82,6.7-4.06,4.63-2.39,7-3.5,4.78-2,7.24-2.82c.61-.2,1.22-.43,1.85-.62l1.84-.56c1.24-.38,2.5-.64,3.76-1s2.51-.51,3.79-.75l1.91-.28,1-.15.95-.1,1.93-.2c.64-.06,1.27-.06,1.92-.1l1.93-.09,1.92,0c1.28,0,2.57.11,3.85.2l1.89.15,1.84.14,3.7.18c1.24,0,2.48,0,3.7,0a58.61,58.61,0,0,0,7.37-.62,43.05,43.05,0,0,0,14.14-4.47,32.43,32.43,0,0,0,3.22-2,26.3,26.3,0,0,0,3-2.39,29,29,0,0,0,2.71-2.82,17.05,17.05,0,0,0,2.21-3.31v0a.2.2,0,0,1,.3-.09.28.28,0,0,1,.1.32,20.64,20.64,0,0,1-2,3.68,26.9,26.9,0,0,1-2.58,3.18,31.36,31.36,0,0,1-6.21,5.09,38.14,38.14,0,0,1-7.07,3.44,44.52,44.52,0,0,1-7.47,2.07,61.35,61.35,0,0,1-7.64,1,69.89,69.89,0,0,1-7.66.06l-1.9-.1-1.89-.11c-1.22,0-2.46-.15-3.68-.11h-1.85l-1.84.11c-.61,0-1.22,0-1.83.13l-1.83.19a75.85,75.85,0,0,0-14.47,3.27,102.28,102.28,0,0,0-13.91,5.77c-1.12.55-2.24,1.15-3.39,1.75s-2.23,1.22-3.33,1.86c-2.21,1.28-4.4,2.61-6.56,4s-4.28,2.86-6.38,4.4-4.17,3.12-6.19,4.78h0a.2.2,0,0,1-.31,0S286.28,293.51,286.36,293.42Z"/></g><path class="cls-18" d="M76.89,300.35a33.54,33.54,0,0,0-.34,3.37,1.43,1.43,0,0,0,1.16,1.54c2.42.26,7.91.75,11.41.17a.68.68,0,0,0,.33-1.13,17.41,17.41,0,0,0-10.69-5.09Z"/><path class="cls-19" d="M75.69,296.89l1.22,3.35a1,1,0,0,0,1,.68,5.87,5.87,0,0,0,1-.21,1.51,1.51,0,0,0,.87-1.82l-.91-3.46Z"/><path class="cls-20" d="M54.84,303a14.15,14.15,0,0,1,3.39,5.23,1.23,1.23,0,0,1-1.06,1.67h-5A1.29,1.29,0,0,1,51,308.36C51.3,306.33,52.21,303,54.84,303Z"/><path class="cls-21" d="M51.81,300.05s.5,2.45.88,4.06a.47.47,0,0,0,.61.36,3.56,3.56,0,0,1,1.83-.36.4.4,0,0,0,.4-.41l0-4.06Z"/><path class="cls-22" d="M64.81,245l14.86,50.82s-2.86,2.1-4.21,2L57.81,256.93s-3.08,25.17-1.6,43.22l-5.05.43s-8.21-46.17-2-62Z"/><path class="cls-23" d="M57.91,256.48h0c-.1,0-.15-.08-.13-.17l.57-5.12c0-.09.07-.15.15-.15a.16.16,0,0,1,.13.17l-.57,5.12A.18.18,0,0,1,57.91,256.48Z"/><path class="cls-24" d="M67.59,200.23s-12,1.2-10.33,10.81a141.13,141.13,0,0,0-9.75,30.57,1,1,0,0,0,.7,1.16l20.05,3.84a1.07,1.07,0,0,0,1.22-.89L74.26,225l1.87,9.66,5.92-1.73-5-28.35S76.36,200.4,67.59,200.23Z"/><path class="cls-25" d="M74.35,224.05h0a.16.16,0,0,1-.12-.19l1.68-8.61a.15.15,0,0,1,.17-.13.16.16,0,0,1,.11.19l-1.67,8.61A.13.13,0,0,1,74.35,224.05Z"/><path class="cls-26" d="M73.15,249.65a2.6,2.6,0,0,0-2.07-.3l-1.39.38a.51.51,0,0,1-.63-.49l-1.45-14.4a10.38,10.38,0,0,1-5.26.77l3.32,17H77.29Z"/><path class="cls-27" d="M104,218.41l-.34-1.3a2.6,2.6,0,0,0-1.35-1.67L96,212.58s-.09-.92,1.33-1.54,1.11-2.43,1.11-2.43-2,1-4.84,2.6a7.3,7.3,0,0,0-3,3.74l-14.4,19.68,1.69,1.3a4.26,4.26,0,0,0,6.54-1.79l7.79-16.77A26.33,26.33,0,0,0,104,218.41Z"/><path class="cls-28" d="M71.5,191l-3.7,11.63s3.28,2.88,5.68,1.9l1.87-6.67S73.9,189.76,71.5,191Z"/><path class="cls-29" d="M82.53,186.88c0,.17-3.56,11.32-3.56,11.32l-5.63-2.41,2-11.13S82.53,183.87,82.53,186.88Z"/><path class="cls-30" d="M76.32,187.37l-1.45,5.77a.82.82,0,0,0,0,.23c0,.47.1,2.1,1.58,1.86a6.26,6.26,0,0,1,3.34,0,.91.91,0,0,1,.38,1,40.32,40.32,0,0,1-2,5.13.71.71,0,0,1-1,.34,23.93,23.93,0,0,1-4.82-3.18.88.88,0,0,1-.26-.81c.24-1.48,1-6,1-7.25s-1.18-2.13-1.72-2.48a.75.75,0,0,1-.34-.51,2.2,2.2,0,0,1,1.69-2.93.84.84,0,0,0,.61-1,2.23,2.23,0,0,1,1.45-2.8,2.67,2.67,0,0,1,3.13,1.39.7.7,0,0,0,.93.28.55.55,0,0,1,.67.13.68.68,0,0,0,1.07-.2,2.12,2.12,0,0,1,2.74-1c2.53.92,2.42,4.21,1.49,6s-3.64.62-4.92-.57c-1-.9-2.46-.37-3.11-.05A.8.8,0,0,0,76.32,187.37Z"/><path class="cls-31" d="M72.54,192.65s1.51-3.19.52-4.19-2.69-.83-2.63,1.67C70.47,193.22,72.54,192.65,72.54,192.65Z"/><path class="cls-32" d="M63.51,235.85a9,9,0,0,1-1.46-.09l-.12,0-4.38-22.9a.18.18,0,0,1,.11-.2.15.15,0,0,1,.17.13l4.35,22.67c.65.06,4.13.32,6-1.13L64.37,214.4l.8-1.67a.14.14,0,0,1,.21-.06.17.17,0,0,1,.06.23l-.75,1.56,3.81,20-.07.06A8.11,8.11,0,0,1,63.51,235.85Z"/><path class="cls-33" d="M69.19,311.86a.71.71,0,0,1-.34-.08,1.16,1.16,0,0,1-.46-1.39l18.1-51.49a.83.83,0,0,1,1.15-.56,1.17,1.17,0,0,1,.45,1.39L70,311.22A.9.9,0,0,1,69.19,311.86Z"/><path class="cls-33" d="M89.58,311.86a.88.88,0,0,1-.8-.64l-18.1-51.49a1.17,1.17,0,0,1,.45-1.39.83.83,0,0,1,1.15.56l18.1,51.49a1.16,1.16,0,0,1-.46,1.39A.71.71,0,0,1,89.58,311.86Z"/><path class="cls-33" d="M146.25,311.86a.68.68,0,0,1-.34-.08,1.16,1.16,0,0,1-.46-1.39l18.1-51.49a.82.82,0,0,1,1.14-.56,1.16,1.16,0,0,1,.46,1.39l-18.1,51.49A.9.9,0,0,1,146.25,311.86Z"/><path class="cls-33" d="M166.64,311.86a.87.87,0,0,1-.8-.64l-18.1-51.49a1.15,1.15,0,0,1,.45-1.39.83.83,0,0,1,1.15.56l18.1,51.49a1.16,1.16,0,0,1-.46,1.39A.71.71,0,0,1,166.64,311.86Z"/><rect class="cls-34" x="134.11" y="277.17" width="2.13" height="25.96"/><path class="cls-35" d="M144.55,303.62H125.8v-.11a1.38,1.38,0,0,1,1.3-1.45h16.06a1.49,1.49,0,0,1,1.39,1.56Z"/><path class="cls-36" d="M147.33,276.27a2.46,2.46,0,0,1-2.3,2.58h-19a2.46,2.46,0,0,1-2.31-2.58v-2.33a2.47,2.47,0,0,1,2.31-2.59h19a2.47,2.47,0,0,1,2.3,2.59Z"/><path class="cls-37" d="M119.38,259.86a17.69,17.69,0,0,0-6.76,3.23,2,2,0,0,0-.78,1.9,91.92,91.92,0,0,0,8,28.14,3.42,3.42,0,0,1,.27,2.07l-1,5.25-1.87,2h4.82l3.2-9.74-1.37-.49a2.9,2.9,0,0,1-1.81-2.74L121.92,279a12.72,12.72,0,0,0-2.54-7.86l7.7-.43Z"/><path class="cls-38" d="M115.32,303.4c-.44.64,4.73,1.5,7.34.09,0,0,3.62-7.05,3.62-10.69,0,0-.29-.74-2.4-.57,0,0-1.22,8.35-2.5,9.29s-3.58.09-3.58.09A7.36,7.36,0,0,0,115.32,303.4Z"/><path class="cls-39" d="M126.07,271.35c0-.08-8.29-1.11-8.29-1.11a24,24,0,0,1-.57,6.69c-.84,3.87-12.94,20.62-12.94,20.62l1.28,4.51a18.48,18.48,0,0,1-11.59.79l7.87-5.3s7.36-28.12,11.87-33.14l8.27-3.2Z"/><path class="cls-40" d="M144.55,255s4.75,7.93,5.15,11.54-1.3,5.08-6.29,5.32-18.29.23-18.29.23l-11.36-10.87s8.27-3.32,10.42-4.26S144.55,255,144.55,255Z"/><path class="cls-41" d="M105.05,300.54a2.8,2.8,0,0,1,.44,3.14s-10.82,2.16-13.76,1.17c0,0,.61-1.56,3.93-3.33l-.25.22a.45.45,0,0,0,.27.79C97.85,302.38,102.37,301.93,105.05,300.54Z"/><path class="cls-42" d="M135,210.51c.72.25,3.3,1.28,3,3.16a.31.31,0,0,0,.38.38c1.11-.34,3.59-.77,5.11,1.39a3.64,3.64,0,0,1-.48,4.66c-.19.24,0,.62.25.58,2.06-.3,6.5-.37,7.22,4.31.69,4.36-2,5.6-3.64,5.94a.35.35,0,0,0-.09.62c.8.58,1.73,1.75,1.35,4.08-.59,3.63-7,3.36-7.7,3.29a.33.33,0,0,1-.13,0L130,232.36a.41.41,0,0,1-.15-.23l-2.06-13.33a.44.44,0,0,1,.08-.3l6.77-7.89A.25.25,0,0,1,135,210.51Z"/><path class="cls-33" d="M131.71,253.94a115.55,115.55,0,0,1-8.25-9.8,9.18,9.18,0,0,1-1.26-7.48,107.68,107.68,0,0,1,3.66-10.32c.3-1.15,6.52-1.11,6.52-1.11s12.19,8.89,17,23.93L144,251a69.92,69.92,0,0,0-6.33-9.81s5.45,8.08,5.65,11.37Z"/><path class="cls-43" d="M125.1,219.87c.05.23,1.67,6.26,1.81,6.38s3.54.35,5.16-.89L129.35,219Z"/><path class="cls-44" d="M127.77,207.22s-2.92,1.39-4.92,6.11-.5,6.92,1.35,7.22,4.65.26,7.61-2.8S131.56,205.59,127.77,207.22Z"/><path class="cls-45" d="M129.82,215.23s2.21-6.92-3.27-7l-1.3,1s-2-3.85,1.3-5.69,7.16-.32,8.55,4.66,1.64,8.31-.68,10.7-3.3-.32-3.3-.32,1.28-2.22.76-3.42-1.71.26-1.71.26Z"/><path class="cls-46" d="M130.43,216s1.11-3.57,2.61-2.14-1.2,3.29-2.26,3.91Z"/><path class="cls-47" d="M120.43,254.39l4.06-4.4,5.62,2.67s5.6,1,8.8,0l3.2-1,7.24-2.52,1.15,3.61a2.35,2.35,0,0,1-.71,2.5,13.89,13.89,0,0,1-1.83,1.28c-1,.47-23.49-.32-23.49-.32Z"/><path class="cls-48" d="M135.81,256.44h-.06l-23.57,0a1.18,1.18,0,0,1,0-2.35l23.57,0a1.12,1.12,0,0,1,1.05,1.18A1.08,1.08,0,0,1,135.81,256.44Z"/><path class="cls-49" d="M91,232.45h19.63a3.77,3.77,0,0,1,3.39,2.41l9.07,21.58H98.71a2.3,2.3,0,0,1-2.12-1.6l-7-20A1.75,1.75,0,0,1,91,232.45Z"/><path class="cls-50" d="M104.82,243.52c.42,1.47.12,2.92-.7,3.2s-1.81-.66-2.25-2.16-.11-2.92.7-3.2S104.4,242,104.82,243.52Z"/><path class="cls-51" d="M88.55,255.61H65.36v-2.69H88.55C88,252.92,88,255.61,88.55,255.61Z"/><path class="cls-52" d="M65.53,255.61a.2.2,0,0,1-.19-.22v-2.26a.19.19,0,0,1,.19-.21H89.05a.21.21,0,0,0,.19-.22v-.17a.19.19,0,0,0-.19-.21H64a1.08,1.08,0,0,0-1,1.13v1.71a1,1,0,0,0,1,1.07h25.1a.2.2,0,0,0,.19-.22v-.17a.2.2,0,0,0-.19-.21H65.53Z"/><path class="cls-12" d="M168.75,257.42a1,1,0,0,0-.23-.85,1,1,0,0,0-.8-.36H61.57a1.21,1.21,0,0,0-1,.53,1.14,1.14,0,0,0-.08,1.13l1.15,2.42a1.62,1.62,0,0,0,1.46.92H167a1.21,1.21,0,0,0,1.2-1Z"/><polygon class="cls-53" points="106.77 122.72 106.14 121.44 150.35 94.35 191.43 114.6 226.72 75.8 226.79 75.76 268.22 48.33 268.89 49.61 227.52 76.98 191.71 116.35 150.4 95.99 106.77 122.72"/><path class="cls-54" d="M111.21,122.08a4.8,4.8,0,1,1-4.77-5.34A5.08,5.08,0,0,1,111.21,122.08Z"/><ellipse class="cls-55" cx="150.36" cy="95.18" rx="4.76" ry="5.34"/><ellipse class="cls-56" cx="191.58" cy="114.47" rx="4.76" ry="5.34"/><ellipse class="cls-57" cx="225.99" cy="76.38" rx="4.76" ry="5.34"/><ellipse class="cls-58" cx="268.56" cy="48.97" rx="4.76" ry="5.34"/><path class="cls-33" d="M227.77,277.06c-.63,1.05-3.11,24.5-3.49,33.18a1,1,0,0,0,.91,1.07h0a1,1,0,0,0,.92-.88l4.53-32.62Z"/><path class="cls-33" d="M247.74,277.06c.62,1.05,3.1,24.5,3.48,33.18a1,1,0,0,1-.91,1.07h0a1,1,0,0,1-.92-.88l-4.53-32.62Z"/><path class="cls-59" d="M224,275.22v.26a3.27,3.27,0,0,0,3.16,3.37l21,.41a3.27,3.27,0,0,0,3.28-3.18l0-.24a3.31,3.31,0,0,0-3.16-3.52l-21-.43A3.31,3.31,0,0,0,224,275.22Z"/><path class="cls-60" d="M264.85,309.38c-3.74,0-5.38-.36-6.12-.68a1.48,1.48,0,0,0,1.37,1.24h13.21a.71.71,0,0,0,.61-.92C272.43,309.15,269.23,309.38,264.85,309.38Z"/><path class="cls-61" d="M273.94,309a.76.76,0,0,0-.12-.26c-1-1.43-3-3.69-5.77-3.65-4,.06-5.43.55-8.56,0l-.74,2.74a1.59,1.59,0,0,0,0,.81c.74.32,2.38.68,6.12.68A87.72,87.72,0,0,0,273.94,309Z"/><path class="cls-62" d="M260.39,302.16l-.92,3.46a4.78,4.78,0,0,0,3.78.2l.34-3Z"/><path class="cls-63" d="M287.75,307.2c-2.92,2.63-4.4,3.51-5.14,3.76a1.28,1.28,0,0,0,1.75,0l10.29-9.27a.77.77,0,0,0,0-1.13C293.54,301.69,291.16,304.13,287.75,307.2Z"/><path class="cls-64" d="M294.63,300.54a.63.63,0,0,0-.23-.13c-1.58-.41-4.42-.75-6.54,1.22-3.1,2.88-3.92,4.25-6.65,6l1,2.65a1.31,1.31,0,0,0,.44.64c.76-.25,2.24-1.15,5.14-3.76C291.16,304.13,293.54,301.69,294.63,300.54Z"/><path class="cls-65" d="M241,262.81s22.33,2.05,26.92,4.46-3.73,36.32-3.73,36.32-1.24.69-4-.3c0,0,2.84-25,.72-30.44l-24.2-4.44Z"/><path class="cls-66" d="M279,302.91c.21.21,2.21,4.76,2.21,4.76s2.25-.53,2.71-2.13l-2-4.1Z"/><path class="cls-67" d="M227.56,262.59a14.21,14.21,0,0,0-.71,4.58,6.58,6.58,0,0,0,5.85,6.73l26.41,1.34a1.3,1.3,0,0,1,1.16,1.07c.63,2.69,3.66,11,18.49,27.45a1.08,1.08,0,0,0,1.48.18l2.12-1.5a.57.57,0,0,0,.15-.73l-15.38-29.44a6.13,6.13,0,0,0-3.62-3L241,262.81Z"/><path class="cls-68" d="M258.2,217.28s-7.45,5-10.33,7.67l6,3.74s3.22-4.17,6.29-5.92Z"/><path class="cls-69" d="M227.08,262.81s7.13,1.94,13.93,0c0,0,9.53-14.36,13.2-18.27a26.07,26.07,0,0,0,19,11.88l.73-1.84s-10.43-5.38-13.63-13.65-4.49-11.79-7.41-14c-1.81-1.35-2.9-2.26-3.47-2.76a.86.86,0,0,0-1.06-.08C245.26,226.25,230.68,237.45,227.08,262.81Z"/><path class="cls-70" d="M253.83,244s.06,0,.1,0a.2.2,0,0,0,0-.23,34.06,34.06,0,0,1-3.51-7,.18.18,0,0,0-.21-.1.2.2,0,0,0-.09.23,32.79,32.79,0,0,0,3.54,7.05A.17.17,0,0,0,253.83,244Z"/><path class="cls-71" d="M272.39,253.64l1.47-.45,4.48-1.15a1.79,1.79,0,0,1,1.56.3l3.85,2.71-10.61,0Z"/><path class="cls-3" d="M268.3,257.38h.05l22.68,0a1.08,1.08,0,0,0,1-1.13,1.06,1.06,0,0,0-1-1.13l-22.68,0a1.08,1.08,0,0,0-1,1.13A1.06,1.06,0,0,0,268.3,257.38Z"/><path class="cls-3" d="M299.81,232.49a.07.07,0,0,1,0,0l-9.54,23.08a1.22,1.22,0,0,0,.49,1.52,1,1,0,0,0,1.35-.56l9.55-23.07a1.22,1.22,0,0,0-.49-1.52A1,1,0,0,0,299.81,232.49Z"/><path class="cls-12" d="M278.39,258.66c-.09.47-9.56,40.26-12,50.34a1.79,1.79,0,0,0,1.56,2.31h0a1.66,1.66,0,0,0,1.56-1.39l10.5-47.75Z"/><path class="cls-12" d="M283.58,258.66c.09.47,9.56,40.26,12,50.34a1.79,1.79,0,0,1-1.56,2.31h0a1.66,1.66,0,0,1-1.56-1.39l-10.5-47.75Z"/><path class="cls-12" d="M284,257.36h-5.89v5.3a1.31,1.31,0,0,0,1.22,1.39h.8V276a1,1,0,0,0,.91,1h0a1,1,0,0,0,.92-1V264.05h.42a1.73,1.73,0,0,0,1.62-1.84Z"/><path class="cls-72" d="M263.59,256.08H296.5a1.05,1.05,0,0,1,1,.85l.46,2a1.12,1.12,0,0,1-1,1.43l-33.76-.21a1.13,1.13,0,0,1-1-1.43l.4-1.8A1.06,1.06,0,0,1,263.59,256.08Z"/><path class="cls-73" d="M263.28,215.31s.08,5.92-.78,8.61-1,4.64-3.88,3.89-4.63-3.33-4.88-6.53c0,0-.42-4.94.63-6.39S263.28,215.31,263.28,215.31Z"/><path class="cls-74" d="M255.36,219.84l.34.17s-.19-3.9,1.26-3.88,6.78,1.19,8.57-.26a4.24,4.24,0,0,0,.61-5.6.19.19,0,0,0-.26,0l-.21.19a.2.2,0,0,1-.33-.19h0c0-.19-.17-.32-.3-.21-.56.42-1.78,1-4.33.34-3.6-.88-6.38-.41-7.41,2.16a.19.19,0,0,1-.34,0,1,1,0,0,0-1.26-.3c-1.24.43-1.72,2.86-.38,5.64a.23.23,0,0,1-.14.32c-.45.09-1.23.47-.15,2s2,1.86,2.36,1.9a.2.2,0,0,0,.23-.15l.73-2.35a.18.18,0,0,1,.26-.13Z"/><path class="cls-75" d="M255.26,220.36s.46-3.55-1.16-3.25-.69,3.89.3,4.51Z"/><ellipse class="cls-76" cx="300.8" cy="168.33" rx="13.51" ry="15.15"/><ellipse class="cls-77" cx="300.8" cy="168.33" rx="13.07" ry="14.66"/><path class="cls-78" d="M290,162.74a.59.59,0,0,1-.19-.05.52.52,0,0,1-.19-.66,12.36,12.36,0,0,1,11.16-7.71,11.08,11.08,0,0,1,2.25.23.48.48,0,0,1,.34.58.41.41,0,0,1-.51.38,9.84,9.84,0,0,0-2.1-.21,11.5,11.5,0,0,0-10.38,7.18A.41.41,0,0,1,290,162.74Z"/><ellipse class="cls-79" cx="301.09" cy="168.65" rx="11.07" ry="12.41"/><path class="cls-80" d="M300,177.86v-1.34a9.22,9.22,0,0,1-3.37-.82.78.78,0,0,1-.38-.91l.3-1.27a.68.68,0,0,1,1-.51,7.43,7.43,0,0,0,3.12.73c1.2,0,2.12-.45,2.12-1.41s-.71-1.35-2.39-1.86c-2.4-.73-4.11-1.9-4.11-4.27a4.21,4.21,0,0,1,3.81-4.21v-1.35a.74.74,0,0,1,.7-.79h.71a.74.74,0,0,1,.7.79v1.22a8,8,0,0,1,2.67.53.8.8,0,0,1,.44.94l-.28,1.16a.7.7,0,0,1-.92.53,6.81,6.81,0,0,0-2.63-.53c-1.43,0-1.85.66-1.85,1.26s.86,1.24,2.73,1.88c2.67.9,3.77,2.13,3.77,4.36a4.36,4.36,0,0,1-4,4.33v1.52a.75.75,0,0,1-.71.79h-.7A.71.71,0,0,1,300,177.86Z"/><ellipse class="cls-81" cx="339.27" cy="150.37" rx="23.53" ry="26.39"/><ellipse class="cls-82" cx="339.27" cy="150.37" rx="22.75" ry="25.51"/><path class="cls-78" d="M320.52,140.26a.72.72,0,0,1-.19,0,.54.54,0,0,1-.19-.67c3.68-8.16,11-13.22,19.15-13.22a20.07,20.07,0,0,1,3.87.38.49.49,0,0,1,.35.58.44.44,0,0,1-.52.39,17.8,17.8,0,0,0-3.72-.39c-7.81,0-14.84,4.85-18.36,12.69A.45.45,0,0,1,320.52,140.26Z"/><ellipse class="cls-79" cx="339.77" cy="150.92" rx="19.26" ry="21.6"/><path class="cls-83" d="M337.88,167v-2.35a15.72,15.72,0,0,1-5.87-1.44,1.41,1.41,0,0,1-.66-1.6l.53-2.18a1.19,1.19,0,0,1,1.66-.89,13.08,13.08,0,0,0,5.43,1.28c2.1,0,3.68-.79,3.68-2.44,0-1.47-1.22-2.35-4.14-3.25-4.17-1.28-7.16-3.31-7.16-7.43,0-3.72,2.42-6.56,6.63-7.31V137a1.3,1.3,0,0,1,1.22-1.36h1.24a1.31,1.31,0,0,1,1.22,1.36v2.12a13.77,13.77,0,0,1,4.67.94,1.4,1.4,0,0,1,.76,1.64l-.5,2a1.18,1.18,0,0,1-1.6.92,11.55,11.55,0,0,0-4.57-.94c-2.5,0-3.2,1.15-3.2,2.2,0,1.28,1.5,2.16,4.74,3.27,4.63,1.56,6.56,3.72,6.56,7.58,0,3.57-2.35,6.76-6.92,7.57V167a1.31,1.31,0,0,1-1.22,1.36h-1.24A1.32,1.32,0,0,1,337.88,167Z"/><ellipse class="cls-84" cx="355.51" cy="209.29" rx="24.22" ry="27.15"/><ellipse class="cls-85" cx="355.51" cy="209.29" rx="23.42" ry="26.26"/><path class="cls-78" d="M336.21,198.88a.58.58,0,0,1-.19,0,.52.52,0,0,1-.19-.66c3.77-8.4,11.31-13.59,19.7-13.59a19.07,19.07,0,0,1,4,.41.47.47,0,0,1,.34.57.43.43,0,0,1-.51.39,18.8,18.8,0,0,0-3.81-.39c-8,0-15.28,5-18.92,13.06A.48.48,0,0,1,336.21,198.88Z"/><ellipse class="cls-79" cx="356" cy="209.87" rx="19.82" ry="22.22"/><path class="cls-86" d="M354.08,226.38V224a16.1,16.1,0,0,1-6-1.48,1.42,1.42,0,0,1-.69-1.64l.56-2.25a1.22,1.22,0,0,1,1.71-.91A13.53,13.53,0,0,0,355.2,219c2.18,0,3.78-.83,3.78-2.5,0-1.52-1.24-2.43-4.25-3.33-4.29-1.33-7.38-3.42-7.38-7.65,0-3.82,2.5-6.75,6.83-7.52v-2.42a1.36,1.36,0,0,1,1.25-1.41h1.26a1.36,1.36,0,0,1,1.26,1.41v2.18a14.51,14.51,0,0,1,4.8,1,1.43,1.43,0,0,1,.78,1.68L363,202.5a1.23,1.23,0,0,1-1.66.94,11.83,11.83,0,0,0-4.71-1c-2.57,0-3.29,1.2-3.29,2.27,0,1.32,1.54,2.22,4.87,3.37,4.77,1.61,6.75,3.83,6.75,7.82,0,3.66-2.42,6.95-7.11,7.78v2.71a1.35,1.35,0,0,1-1.26,1.41h-1.25A1.4,1.4,0,0,1,354.08,226.38Z"/><ellipse class="cls-87" cx="386.57" cy="172.31" rx="17.74" ry="19.89"/><ellipse class="cls-88" cx="386.57" cy="172.31" rx="17.15" ry="19.23"/><path class="cls-78" d="M372.43,164.81a.65.65,0,0,1-.19,0,.53.53,0,0,1-.19-.67c2.78-6.19,8.35-10,14.54-10a15.17,15.17,0,0,1,2.93.3.49.49,0,0,1,.35.58.43.43,0,0,1-.52.38,13.66,13.66,0,0,0-2.78-.28c-5.85,0-11.11,3.64-13.76,9.49A.41.41,0,0,1,372.43,164.81Z"/><ellipse class="cls-79" cx="386.96" cy="172.74" rx="14.52" ry="16.28"/><path class="cls-89" d="M385.52,184.83v-1.78a11.88,11.88,0,0,1-4.44-1.06,1,1,0,0,1-.49-1.22l.4-1.65a.91.91,0,0,1,1.25-.68,9.94,9.94,0,0,0,4.1,1c1.58,0,2.76-.6,2.76-1.84s-.91-1.77-3.12-2.43c-3.15-1-5.41-2.5-5.41-5.6,0-2.8,1.83-4.94,5-5.51v-1.78a1,1,0,0,1,.91-1h.94a1,1,0,0,1,.91,1v1.59a10.55,10.55,0,0,1,3.51.7,1,1,0,0,1,.57,1.24l-.36,1.52a.91.91,0,0,1-1.22.7,8.81,8.81,0,0,0-3.45-.7c-1.89,0-2.42.87-2.42,1.66,0,1,1.12,1.63,3.58,2.48,3.49,1.18,5,2.8,5,5.73,0,2.69-1.78,5.08-5.22,5.7v2a1,1,0,0,1-.92,1h-.93A1,1,0,0,1,385.52,184.83Z"/><path class="cls-33" d="M204.25,31.77l.27-.47a.32.32,0,0,1,.46-.11.38.38,0,0,1,.13.19l.48-.12a.33.33,0,0,1,.4.27.38.38,0,0,1-.25.45c-.5.13-.84.26-1,.32s-.08,0-.1.05l-.78.23Zm1.2-2c.31-.49.65-1,1-1.49a.29.29,0,0,1,.46-.07.41.41,0,0,1,.06.51l-1,1.48a.3.3,0,0,1-.46.08s-.06,0-.06-.06A.45.45,0,0,1,205.45,29.76Zm1.49,1.56a.36.36,0,0,1,.28-.41c.58-.08,1.13-.14,1.66-.17a.36.36,0,0,1,.35.35.36.36,0,0,1-.31.38,15.57,15.57,0,0,0-1.6.17.35.35,0,0,1-.31-.13A1.46,1.46,0,0,1,206.94,31.32Zm3.28-.23a.36.36,0,0,1,.36-.35,8.86,8.86,0,0,1,1.66.3.38.38,0,0,1,.24.45.35.35,0,0,1-.4.28,8.77,8.77,0,0,0-1.56-.28.32.32,0,0,1-.23-.13A.37.37,0,0,1,210.22,31.09Zm-2.77-4.26c.35-.47.71-1,1.07-1.41a.29.29,0,0,1,.46,0,.4.4,0,0,1,0,.52c-.37.44-.71.91-1.05,1.38a.31.31,0,0,1-.46.05l-.06-.07A.45.45,0,0,1,207.45,26.83Zm6,5a.33.33,0,0,1,.44-.19,7.22,7.22,0,0,1,1.06.66l.38.28a.4.4,0,0,1,.12.51.31.31,0,0,1-.46.13,3.47,3.47,0,0,1-.4-.3,6.83,6.83,0,0,0-1-.6.16.16,0,0,1-.11-.1A.35.35,0,0,1,213.4,31.83Zm4.46,5.22a.3.3,0,0,1,.34-.09,1.8,1.8,0,0,1,1-.06.37.37,0,0,1,.29.4.34.34,0,0,1-.37.32,1.25,1.25,0,0,0-1,.24l-.42-.56Zm-1.58-3.44a.32.32,0,0,1,.41-.22,5.23,5.23,0,0,0,1.49.45.38.38,0,0,1,.29.41.35.35,0,0,1-.37.32,6.15,6.15,0,0,1-1.65-.49.38.38,0,0,1-.14-.11A.42.42,0,0,1,216.28,33.61Zm-6.64-9.55c.39-.45.79-.9,1.17-1.31a.29.29,0,0,1,.45,0,.37.37,0,0,1,0,.52c-.38.4-.78.85-1.14,1.28a.3.3,0,0,1-.46,0l0,0A.46.46,0,0,1,209.64,24.06ZM219,35.72l1.12-1.32a.3.3,0,0,1,.46,0,.38.38,0,0,1,0,.51c-.3.38-.69.83-1.12,1.34a.29.29,0,0,1-.46,0s0,0,0,0A.38.38,0,0,1,219,35.72Zm1.43,1.82a.35.35,0,0,1,.4-.28,13.94,13.94,0,0,0,1.58.36.36.36,0,0,1,.27.43.33.33,0,0,1-.38.3c-.63-.11-1.15-.24-1.64-.36a.26.26,0,0,1-.17-.13A.43.43,0,0,1,220.43,37.54Zm-1-3.36a.34.34,0,0,1,.23-.44,4.16,4.16,0,0,0,1.1-.58L221,33s.06-.05.09-.05a.31.31,0,0,1,.4.24.38.38,0,0,1-.2.47.61.61,0,0,0-.2.13,4.15,4.15,0,0,1-1.27.66.32.32,0,0,1-.35-.13ZM212,21.49c.36-.36.74-.72,1.12-1l.15-.13a.29.29,0,0,1,.46.06h0a.37.37,0,0,1-.06.51l-.15.13c-.36.32-.74.69-1.1,1a.29.29,0,0,1-.46,0v0A.36.36,0,0,1,212,21.49Zm11.62,16.67a.32.32,0,0,1,.34-.34,12.24,12.24,0,0,0,1.6,0,.37.37,0,0,1,0,.73,15.73,15.73,0,0,1-1.68,0,.32.32,0,0,1-.24-.13A1.14,1.14,0,0,1,223.65,38.16Zm3.28-.13a.39.39,0,0,1,.26-.43l.35-.06a12.07,12.07,0,0,0,1.22-.3.31.31,0,0,1,.4.26.36.36,0,0,1-.23.44,11.21,11.21,0,0,1-1.3.32l-.36.07a.33.33,0,0,1-.3-.13A.43.43,0,0,1,226.93,38ZM214.54,19.72a.41.41,0,0,1,.08-.51c.46-.37.91-.71,1.39-1a.32.32,0,0,1,.46.13.41.41,0,0,1-.12.51c-.46.3-.89.64-1.35,1a.35.35,0,0,1-.46-.11Zm15.55,17.39a.39.39,0,0,1,.15-.49,8.68,8.68,0,0,0,1.39-.86.32.32,0,0,1,.46.11.39.39,0,0,1-.09.51,11.14,11.14,0,0,1-1.47.92.33.33,0,0,1-.4-.1C230.11,37.15,230.09,37.13,230.09,37.11ZM217.3,17.75a.41.41,0,0,1,.14-.49c.49-.3,1-.55,1.5-.79a.32.32,0,0,1,.44.19.39.39,0,0,1-.17.5c-.48.23-1,.49-1.45.77a.3.3,0,0,1-.4-.09Zm15.59,16.93A10.73,10.73,0,0,0,234,33.39a.3.3,0,0,1,.45,0,.38.38,0,0,1,0,.51,11,11,0,0,1-1.18,1.35.3.3,0,0,1-.46,0l0,0A.41.41,0,0,1,232.89,34.68ZM220.3,16.26a.38.38,0,0,1,.21-.47,15.49,15.49,0,0,1,1.6-.49.35.35,0,0,1,.4.27.41.41,0,0,1-.25.45,14.47,14.47,0,0,0-1.54.49.32.32,0,0,1-.37-.12ZM235,32a7.34,7.34,0,0,0,.69-1.47l.09-.81a.33.33,0,0,1,.36-.32.37.37,0,0,1,.29.4l-.1.79h0a7,7,0,0,1-.78,1.77.31.31,0,0,1-.46.11.19.19,0,0,1-.07-.08A.34.34,0,0,1,235,32ZM223.48,15.38a.36.36,0,0,1,.28-.4c.56-.07,1.13-.11,1.66-.13a.36.36,0,0,1,0,.72,10.79,10.79,0,0,0-1.6.13.28.28,0,0,1-.28-.13A.38.38,0,0,1,223.48,15.38Zm3.26-.1a.32.32,0,0,1,.36-.32,14,14,0,0,1,1.66.27.37.37,0,0,1,.24.43.33.33,0,0,1-.38.28,11.59,11.59,0,0,0-1.58-.28.32.32,0,0,1-.23-.13A.43.43,0,0,1,226.74,15.28ZM236,27.88l.23-1.81a.35.35,0,0,1,.36-.33.38.38,0,0,1,.28.41L236.63,28a.35.35,0,0,1-.37.32.52.52,0,0,1-.21-.13A.37.37,0,0,1,236,27.88Zm-6-11.94a.33.33,0,0,1,.42-.24c.51.2,1,.41,1.56.67a.38.38,0,0,1,.17.49.32.32,0,0,1-.44.19c-.49-.24-1-.45-1.5-.64a.33.33,0,0,1-.16-.13A.36.36,0,0,1,230,15.94Zm6.49,8.31.23-1.82a.35.35,0,0,1,.37-.32.37.37,0,0,1,.28.41l-.23,1.81a.33.33,0,0,1-.36.32.45.45,0,0,1-.21-.12A.32.32,0,0,1,236.45,24.25ZM233,17.33a.32.32,0,0,1,.44-.15c.47.3,1,.6,1.42,1a.39.39,0,0,1,.1.51.31.31,0,0,1-.46.11,13.92,13.92,0,0,0-1.39-.92.26.26,0,0,1-.09-.09A.51.51,0,0,1,233,17.33Zm2.78,1.94a.29.29,0,0,1,.46-.06c.42.36.84.72,1.25,1.13l.14.13,0,.23a.35.35,0,0,1-.36.32.32.32,0,0,1-.25-.21c-.38-.36-.76-.71-1.14-1l-.06-.06A.37.37,0,0,1,235.75,19.27Z"/><path class="cls-90" d="M236.09,26.47s-3.35,7.22-8.34,5-9.55-5.77-11.86-4.65c0,0,8.83-12.46,20.28-3.25Z"/><path class="cls-91" d="M249.24,35.19s-.86,7.92-3.12,8.91-18.2-.69-19.76-.84c-.08,0-.12-.06-.12-.15h0a2.1,2.1,0,0,1,.76-1.64c2.31-1.84,9.21-7.24,11.76-8.12C241.85,32.26,249.24,35.19,249.24,35.19Z"/><path class="cls-3" d="M232.13,42.75a.15.15,0,0,0,.11.07c.1,0,8.9.72,12.71.87a1.7,1.7,0,0,0,1.6-1.09,30,30,0,0,0,1.79-5.45.17.17,0,0,0-.11-.21.16.16,0,0,0-.19.13,31.64,31.64,0,0,1-1.75,5.36,1.37,1.37,0,0,1-1.3.88c-3.79-.15-12.59-.86-12.69-.88a.16.16,0,0,0-.17.17A.13.13,0,0,0,232.13,42.75Z"/><path class="cls-92" d="M249.45,16.62s-.69-8-2.92-9-18.21.15-19.77.27c-.08,0-.12.07-.14.15h0a2.16,2.16,0,0,0,.73,1.67c2.24,1.9,9,7.5,11.56,8.46C242,19.31,249.45,16.62,249.45,16.62Z"/><path class="cls-3" d="M232.53,8.8a.16.16,0,0,0,.13.07c.1,0,8.9-.47,12.71-.49a1.42,1.42,0,0,1,1.28.91,29.93,29.93,0,0,1,1.64,5.43.17.17,0,0,0,.19.15.19.19,0,0,0,.13-.21A29.32,29.32,0,0,0,247,9.17,1.73,1.73,0,0,0,245.37,8c-3.81.05-12.63.49-12.71.49s-.15.09-.15.2S232.51,8.78,232.53,8.8Z"/><path class="cls-93" d="M273.17,35.42a33,33,0,0,1-11.35,1.88,94.92,94.92,0,0,1-25.57-3.65,1.51,1.51,0,0,1-1-1.15,30.88,30.88,0,0,1,.06-13.19,2.14,2.14,0,0,1,1.51-1.66,93.85,93.85,0,0,1,25.24-2.8A33.3,33.3,0,0,1,273.31,17C275,24.4,274,31.47,273.17,35.42Z"/><path class="cls-94" d="M273.31,17.05a37.64,37.64,0,0,1,13.43,8.82.81.81,0,0,1,0,1.14,37.65,37.65,0,0,1-13.57,8.41A43.28,43.28,0,0,0,273.31,17.05Z"/><ellipse class="cls-12" cx="262.79" cy="26.11" rx="7.43" ry="6.17" transform="translate(235.38 288.77) rotate(-89.72)"/><path class="cls-95" d="M263,20c-2.73-.05-5,2.58-5,5.85s2.14,6,4.86,6,5-2.58,5-5.85S265.76,20,263,20Z"/><path class="cls-3" d="M263.84,30.06a.13.13,0,0,0,.17.06,4.6,4.6,0,0,0,2.89-4.4,5.49,5.49,0,0,0-.19-1.51.16.16,0,0,0-.21-.13.19.19,0,0,0-.11.23,4.35,4.35,0,0,1,.17,1.39,4.23,4.23,0,0,1-2.65,4.06c-.09,0-.13.13-.11.24Z"/><path class="cls-12" d="M250.44,21c-2.25,0-4.11,2.14-4.13,4.85s1.77,4.94,4,5,4.11-2.14,4.13-4.85S252.69,21,250.44,21Z"/><path class="cls-96" d="M250.54,21.88c-1.79,0-3.28,1.71-3.3,3.86s1.41,3.94,3.2,4,3.28-1.71,3.3-3.87S252.35,21.9,250.54,21.88Z"/><path class="cls-3" d="M251,28.59a.15.15,0,0,0,.17.06,3.06,3.06,0,0,0,2-3,3.7,3.7,0,0,0-.14-1,.16.16,0,0,0-.21-.12c-.09,0-.13.12-.11.23a3.47,3.47,0,0,1,.11.9,2.77,2.77,0,0,1-1.71,2.63c-.1,0-.13.13-.12.23Z"/><path class="cls-33" d="M199.85,31.49l-2.15.6a.38.38,0,0,1-.46-.3.43.43,0,0,1,.27-.51h0l2.09-.58h0a.38.38,0,0,1,.46.3.38.38,0,0,1-.25.49Z"/><path class="cls-33" d="M195.52,32.52l-2.19.25a.36.36,0,0,1-.4-.36.39.39,0,0,1,.33-.45h0l2.15-.28h0a.37.37,0,0,1,.4.37.41.41,0,0,1-.33.47Z"/><path class="cls-33" d="M191.12,32.9l-2.21,0a.41.41,0,0,1,0-.81h2.21a.42.42,0,0,1,0,.83Z"/><path class="cls-33" d="M186.74,32.73l-2.19-.26a.38.38,0,0,1-.31-.42.35.35,0,0,1,.39-.34h0l2.16.25h0a.39.39,0,0,1,.32.43.39.39,0,0,1-.4.34Z"/><path class="cls-33" d="M182.36,32.11l-2.16-.47a.36.36,0,0,1-.26-.45.34.34,0,0,1,.4-.3h0l2.13.45h0a.39.39,0,0,1-.15.77Z"/><path class="cls-33" d="M178.07,31.11,176,30.49a.39.39,0,0,1-.25-.45.35.35,0,0,1,.4-.28h0l2.09.62h0a.39.39,0,0,1,.25.47.32.32,0,0,1-.4.26Z"/><path class="cls-33" d="M173.84,29.78,171.76,29a.39.39,0,0,1-.21-.47.32.32,0,0,1,.42-.23h0l2.08.75h0a.38.38,0,0,1,.21.47.32.32,0,0,1-.42.25Z"/><path class="cls-33" d="M169.69,28.18l-2-.88a.37.37,0,0,1-.19-.47.31.31,0,0,1,.42-.21h0l2,.88h0a.38.38,0,0,1,.2.47.3.3,0,0,1-.42.21Z"/><path class="cls-33" d="M165.61,26.36l-2-1a.35.35,0,0,1-.15-.45.29.29,0,0,1,.4-.17h0l2,1h0a.42.42,0,0,1,.17.47.3.3,0,0,1-.42.17Z"/><path class="cls-33" d="M161.61,24.36l-2-1.07a.35.35,0,0,1-.14-.45.28.28,0,0,1,.4-.15h0l2,1h0a.36.36,0,0,1,.16.44.29.29,0,0,1-.4.18Z"/><path class="cls-33" d="M157.68,22.18,155.74,21a.35.35,0,0,1-.12-.45.27.27,0,0,1,.4-.12h0L158,21.58h0a.34.34,0,0,1,.13.45.28.28,0,0,1-.4.15Z"/><path class="cls-33" d="M153.83,19.85l-1.9-1.22a.37.37,0,0,1-.12-.45.29.29,0,0,1,.4-.13h0l1.91,1.2h0a.36.36,0,0,1,.11.45.27.27,0,0,1-.4.15Z"/><path class="cls-33" d="M150,17.39l-1.87-1.26a.34.34,0,0,1-.09-.43.26.26,0,0,1,.38-.1h0l1.87,1.26h0a.32.32,0,0,1,.09.42.24.24,0,0,1-.38.11Z"/><path class="cls-33" d="M146.29,14.83l-1.85-1.33a.31.31,0,0,1-.08-.42.24.24,0,0,1,.38-.09h0l1.85,1.32h0a.34.34,0,0,1,.1.43.27.27,0,0,1-.4.09Z"/><path class="cls-33" d="M142.63,12.16l-1.81-1.37a.34.34,0,0,1-.08-.43.26.26,0,0,1,.38-.08h0l1.81,1.36h0a.33.33,0,0,1,.08.43.25.25,0,0,1-.38.09Z"/><path class="cls-33" d="M139,9.38,137.22,8a.31.31,0,0,1-.06-.43.24.24,0,0,1,.38-.06h0l1.77,1.41h0a.31.31,0,0,1,.06.43c-.1.12-.25.17-.36.06Z"/><path class="cls-33" d="M135.43,6.6l-1.87-1.24h0a.34.34,0,0,1-.1-.42.26.26,0,0,1,.38-.11l1.89,1.26a.35.35,0,0,1,.1.43.27.27,0,0,1-.38.08Z"/><path class="cls-33" d="M131.63,4.25l-2-1h0a.31.31,0,0,1-.13-.41.26.26,0,0,1,.36-.15l2,1a.3.3,0,0,1,.13.4.27.27,0,0,1-.38.13Z"/><path class="cls-33" d="M127.59,2.46l-2.07-.69h0a.31.31,0,0,1-.19-.38.25.25,0,0,1,.32-.21l2.12.68a.31.31,0,0,1,.19.38.24.24,0,0,1-.35.22Z"/><path class="cls-33" d="M123.4,1.26,121.27.9h0A.29.29,0,0,1,121,.56a.27.27,0,0,1,.3-.26l2.18.38a.31.31,0,0,1,.23.35.28.28,0,0,1-.33.23Z"/><path class="cls-33" d="M119.1.66,116.92.6h0a.29.29,0,0,1-.26-.3.29.29,0,0,1,.26-.3l2.21.06a.29.29,0,0,1,.27.3c0,.2-.11.32-.28.3Z"/><path class="cls-33" d="M114.77.68l-2.15.24h0a.28.28,0,0,1-.29-.26.29.29,0,0,1,.23-.32l2.19-.25a.26.26,0,0,1,.29.25.28.28,0,0,1-.25.34Z"/><path class="cls-33" d="M110.46,1.32l-2.11.56h0a.25.25,0,0,1-.31-.21.3.3,0,0,1,.2-.35l2.15-.55a.25.25,0,0,1,.3.21.28.28,0,0,1-.21.34Z"/><path class="cls-33" d="M106.27,2.56l-2,.84h0a.23.23,0,0,1-.32-.17.29.29,0,0,1,.15-.37L106.1,2a.25.25,0,0,1,.34.17.28.28,0,0,1-.17.38Z"/><path class="cls-33" d="M102.27,4.4l-1.91,1.15h0a.23.23,0,0,1-.35-.12.3.3,0,0,1,.1-.39L102,3.87a.22.22,0,0,1,.34.13.3.3,0,0,1-.11.4Z"/><path class="cls-33" d="M98.52,6.86,96.76,8.29h0a.25.25,0,0,1-.36-.06.31.31,0,0,1,.06-.41l1.77-1.45a.24.24,0,0,1,.36.06.31.31,0,0,1,0,.43Z"/><path class="cls-33" d="M95.09,9.83,93.5,11.49v0a.24.24,0,0,1-.37,0,.31.31,0,0,1,0-.4l1.6-1.69a.24.24,0,0,1,.37,0,.3.3,0,0,1,0,.41Z"/><path class="cls-33" d="M92,13.25,90.59,15.1v0a.22.22,0,0,1-.34,0,.27.27,0,0,1,0-.39l1.43-1.88a.22.22,0,0,1,.36,0,.35.35,0,0,1,0,.39Z"/><path class="cls-33" d="M89.27,17l-1.2,2v0a.22.22,0,0,1-.34.08.3.3,0,0,1-.08-.38l1.22-2.05a.24.24,0,0,1,.35-.09.28.28,0,0,1,0,.39Z"/><path class="cls-33" d="M87,21.15l-1,2.18v0a.25.25,0,0,1-.33.13.3.3,0,0,1-.11-.36l1-2.2a.23.23,0,0,1,.32-.13.25.25,0,0,1,.1.36Z"/><path class="cls-33" d="M85.14,25.55l-.71,2.29v0a.23.23,0,0,1-.3.17.28.28,0,0,1-.15-.34l.72-2.33a.24.24,0,0,1,.31-.17.28.28,0,0,1,.13.36Z"/><path class="cls-33" d="M83.86,30.21l-.38,2.39v0a.25.25,0,0,1-.28.22.26.26,0,0,1-.19-.32l.4-2.44a.24.24,0,0,1,.28-.21.27.27,0,0,1,.19.32h0Z"/><path class="cls-33" d="M83.27,35l0,2.41v0a.25.25,0,0,1-.24.26.24.24,0,0,1-.23-.28l0-2.48a.25.25,0,1,1,.49,0h0Z"/><path class="cls-33" d="M83.44,39.85l.4,2.37v0a.27.27,0,0,1-.19.32.26.26,0,0,1-.28-.21L83,39.91a.28.28,0,0,1,.19-.32.24.24,0,0,1,.28.21h0Z"/><path class="cls-33" d="M84.47,44.55l.82,2.24v0a.26.26,0,0,1-.13.34c-.12.07-.25,0-.31-.15L84,44.72a.26.26,0,0,1,.13-.35.21.21,0,0,1,.3.15h0Z"/><path class="cls-33" d="M86.36,48.88a14.72,14.72,0,0,0,1.35,1.86.25.25,0,0,1,0,.36.2.2,0,0,1-.32,0A12.28,12.28,0,0,1,86,49.18a.27.27,0,0,1,.06-.36.22.22,0,0,1,.34.06Z"/><path class="cls-33" d="M89.39,52.22a9.59,9.59,0,0,0,1.92,1,.28.28,0,0,1,.16.32.23.23,0,0,1-.29.17,10.57,10.57,0,0,1-2-1.07.3.3,0,0,1-.08-.36.19.19,0,0,1,.31-.08Z"/><path class="cls-33" d="M93.39,53.75a7.6,7.6,0,0,0,2.13,0c.14,0,.23.09.25.24a.24.24,0,0,1-.21.28,10.39,10.39,0,0,1-2.23,0,.27.27,0,0,1-.21-.28.25.25,0,0,1,.27-.24Z"/><path class="cls-33" d="M97.6,53.24a10.47,10.47,0,0,0,2-.92.22.22,0,0,1,.31.11.25.25,0,0,1-.1.34,10.47,10.47,0,0,1-2.06,1,.22.22,0,0,1-.28-.17.3.3,0,0,1,.15-.32Z"/><path class="cls-33" d="M101.39,51A12.17,12.17,0,0,0,103,49.4a.22.22,0,0,1,.32,0,.31.31,0,0,1,0,.37,13.8,13.8,0,0,1-1.64,1.69.22.22,0,0,1-.32,0,.29.29,0,0,1,0-.36Z"/><path class="cls-33" d="M104.31,47.52l.55-1.05c.19-.34.34-.71.5-1.07v0a.21.21,0,0,1,.3-.11.27.27,0,0,1,.1.34c-.17.37-.31.75-.52,1.11l-.57,1.07a.2.2,0,0,1-.3.09.25.25,0,0,1-.08-.34h0Z"/><path class="cls-33" d="M106.1,43.14a14.25,14.25,0,0,0,.4-2.38.23.23,0,0,1,.25-.21.24.24,0,0,1,.19.28,16,16,0,0,1-.42,2.46.22.22,0,0,1-.27.17.26.26,0,0,1-.15-.32Z"/><path class="cls-33" d="M106.52,38.37a12.55,12.55,0,0,0-.4-2.35.25.25,0,0,1,.15-.3.22.22,0,0,1,.27.17,15.42,15.42,0,0,1,.42,2.46.22.22,0,0,1-.19.26.24.24,0,0,1-.25-.24Z"/><path class="cls-33" d="M105.32,33.8a16.44,16.44,0,0,0-1.14-2,.26.26,0,0,1,0-.34.2.2,0,0,1,.31,0,15.44,15.44,0,0,1,1.18,2.11.23.23,0,0,1-.1.32.19.19,0,0,1-.28-.08Z"/><path class="cls-33" d="M102.77,29.93a18.49,18.49,0,0,0-1.64-1.56.25.25,0,0,1,0-.34.19.19,0,0,1,.3,0,17.05,17.05,0,0,1,1.7,1.6.26.26,0,0,1,0,.34.21.21,0,0,1-.32,0Z"/><path class="cls-33" d="M99.32,27.07A16.67,16.67,0,0,0,97.37,26a.24.24,0,0,1-.11-.3.2.2,0,0,1,.27-.12,17.88,17.88,0,0,1,2,1.06.26.26,0,0,1,.07.32.18.18,0,0,1-.26.09Z"/><path class="cls-33" d="M95.33,25.23c-.68-.23-1.41-.36-2.11-.55h0a.24.24,0,0,1-.15-.3.2.2,0,0,1,.26-.17h0c.71.19,1.43.36,2.14.57a.27.27,0,0,1,.15.3c0,.13-.15.17-.27.15Z"/><path class="cls-33" d="M91.08,24.27,88.93,24h0a.26.26,0,0,1-.21-.28.25.25,0,0,1,.25-.24h0l2.19.26a.24.24,0,0,1,.19.28.23.23,0,0,1-.25.21Z"/><path class="cls-33" d="M86.74,24,84.57,24h0a.25.25,0,0,1-.25-.25.26.26,0,0,1,.23-.28h0l2.19,0a.23.23,0,0,1,.23.25.21.21,0,0,1-.21.26Z"/><path class="cls-33" d="M82.41,24.21l-2.15.32h0a.26.26,0,0,1-.28-.24.28.28,0,0,1,.21-.32h0l2.17-.32a.25.25,0,0,1,.27.24.25.25,0,0,1-.2.32Z"/><path class="cls-33" d="M78.13,25,76,25.57h0a.27.27,0,0,1-.32-.21.31.31,0,0,1,.19-.36h0L78,24.42a.26.26,0,0,1,.31.21.27.27,0,0,1-.17.37Z"/><path class="cls-33" d="M73.94,26.28l-2,.83h0a.25.25,0,0,1-.35-.19.29.29,0,0,1,.18-.38h0l2.07-.84a.26.26,0,0,1,.35.19.36.36,0,0,1-.19.39Z"/><path class="cls-33" d="M69.91,28.07,68,29.16h0a.26.26,0,0,1-.38-.15.31.31,0,0,1,.13-.42h0l2-1.09a.26.26,0,0,1,.38.15.35.35,0,0,1-.16.42Z"/><path class="cls-33" d="M66.08,30.36l-1.81,1.35v0a.29.29,0,0,1-.42-.09.37.37,0,0,1,.07-.47h0l1.85-1.34a.26.26,0,0,1,.4.08.3.3,0,0,1-.08.45Z"/><path class="cls-33" d="M62.54,33.16l-1.68,1.56h0a.28.28,0,0,1-.43,0,.38.38,0,0,1,0-.5h0l1.7-1.56a.29.29,0,0,1,.44.05.38.38,0,0,1,0,.49Z"/><path class="cls-33" d="M59.26,36.34l-1.54,1.71h0a.3.3,0,0,1-.46,0,.41.41,0,0,1,0-.51h0l1.58-1.71a.32.32,0,0,1,.46,0,.41.41,0,0,1,0,.51Z"/><path class="cls-33" d="M56.21,39.82l-1.44,1.82h0a.33.33,0,0,1-.48,0,.44.44,0,0,1,0-.53h0l1.47-1.84a.29.29,0,0,1,.46,0,.38.38,0,0,1,0,.53Z"/><path class="cls-33" d="M53.38,43.52,52,45.44h0a.32.32,0,0,1-.48.07.41.41,0,0,1-.05-.54h0l1.35-1.92a.31.31,0,0,1,.48-.06.41.41,0,0,1,0,.53Z"/><path class="cls-33" d="M50.76,47.41l-1.23,2h0a.33.33,0,0,1-.5.1.41.41,0,0,1-.09-.55h0l1.25-2a.35.35,0,0,1,.5-.09.41.41,0,0,1,.07.54Z"/><path class="cls-33" d="M48.33,51.45l-1.15,2.07h0a.34.34,0,0,1-.51.13.46.46,0,0,1-.12-.58h0L47.72,51a.32.32,0,0,1,.49-.13.49.49,0,0,1,.12.6Z"/><path class="cls-33" d="M46.08,55.63l-1,2.14h0a.36.36,0,0,1-.52.17.46.46,0,0,1-.15-.58h0l1.07-2.13a.36.36,0,0,1,.51-.17.45.45,0,0,1,.14.57Z"/><path class="cls-33" d="M44,59.93l-1,2.2h0a.39.39,0,0,1-.54.19.48.48,0,0,1-.17-.6h0l1-2.2a.37.37,0,0,1,.52-.19.49.49,0,0,1,.17.6Z"/><path class="cls-33" d="M42.15,64.33l-.86,2.24v0a.38.38,0,0,1-.53.24.47.47,0,0,1-.21-.6h0L41.43,64a.38.38,0,0,1,.51-.24.48.48,0,0,1,.21.6Z"/><path class="cls-33" d="M40.49,68.84l-.74,2.28v0a.41.41,0,0,1-.53.28.49.49,0,0,1-.25-.6h0l.76-2.3a.41.41,0,0,1,.54-.28.51.51,0,0,1,.22.6Z"/><path class="cls-33" d="M39.06,73.45l-.6,2.33v0a.41.41,0,0,1-.54.32.47.47,0,0,1-.28-.6h0l.62-2.37a.43.43,0,0,1,.52-.32.52.52,0,0,1,.28.62Z"/><path class="cls-33" d="M37.94,78.15l-.46,2.37v0a.46.46,0,0,1-.51.38.51.51,0,0,1-.34-.58l.45-2.41a.43.43,0,0,1,.52-.36.46.46,0,0,1,.34.57Z"/><path class="cls-33" d="M37.14,82.92l-.25,2.41v0a.46.46,0,0,1-.47.43.48.48,0,0,1-.38-.53l.24-2.46a.45.45,0,0,1,.48-.43.47.47,0,0,1,.38.54h0Z"/><path class="cls-33" d="M36.74,87.75l0,2.43v0a.45.45,0,0,1-.44.47.46.46,0,0,1-.42-.49l0-2.48a.43.43,0,1,1,.86,0h0Z"/><path class="cls-33" d="M36.78,92.6,37,95v0a.46.46,0,0,1-.38.51.44.44,0,0,1-.46-.42l-.21-2.46a.46.46,0,0,1,.38-.51.44.44,0,0,1,.46.42h0Z"/><path class="cls-33" d="M37.29,97.42l.44,2.38v0a.46.46,0,0,1-.32.55.42.42,0,0,1-.5-.36l-.46-2.42a.46.46,0,0,1,.33-.55.4.4,0,0,1,.49.36h0Z"/><path class="cls-33" d="M38.3,102.12l.69,2.31v0a.49.49,0,0,1-.27.6.4.4,0,0,1-.53-.3l-.71-2.35a.5.5,0,0,1,.27-.6.41.41,0,0,1,.53.3h0Z"/><path class="cls-33" d="M39.79,106.67l.91,2.21v0a.49.49,0,0,1-.21.62.4.4,0,0,1-.55-.24L39,107a.48.48,0,0,1,.21-.62.4.4,0,0,1,.55.23h0Z"/><path class="cls-33" d="M41.69,111l1.11,2.1,0,0a.49.49,0,0,1-.13.62.39.39,0,0,1-.56-.15L41,111.5a.48.48,0,0,1,.13-.62c.17-.17.42-.1.55.15Z"/><path class="cls-33" d="M44,115.13l1.28,2,0,0a.46.46,0,0,1-.1.62.35.35,0,0,1-.55-.11l-1.3-2a.49.49,0,0,1,.1-.64.38.38,0,0,1,.55.12Z"/><path class="cls-33" d="M46.63,119l1.43,1.84,0,0a.46.46,0,0,1,0,.62.35.35,0,0,1-.55,0L46,119.58a.49.49,0,0,1,0-.64.34.34,0,0,1,.55.06Z"/><path class="cls-33" d="M49.53,122.61l1.54,1.71h0a.48.48,0,0,1,0,.62.36.36,0,0,1-.55,0L49,123.21a.48.48,0,0,1,0-.62.36.36,0,0,1,.56,0Z"/><path class="cls-33" d="M52.67,126l1.64,1.6h0a.48.48,0,0,1,0,.62.37.37,0,0,1-.56,0l-1.65-1.62a.48.48,0,0,1,0-.62.38.38,0,0,1,.57,0Z"/><path class="cls-33" d="M56,129.13l1.71,1.49h0a.49.49,0,0,1,.08.6.37.37,0,0,1-.54.09l-1.73-1.5a.49.49,0,0,1-.08-.62.37.37,0,0,1,.56-.06Z"/><path class="cls-33" d="M59.45,132.08l1.79,1.39h0a.46.46,0,0,1,.1.59.35.35,0,0,1-.53.11L59,132.76a.47.47,0,0,1-.1-.6.36.36,0,0,1,.55-.08Z"/><path class="cls-33" d="M63.06,134.83l1.82,1.35a.45.45,0,0,1,.12.58.35.35,0,0,1-.52.12l-1.83-1.34a.48.48,0,0,1-.11-.6.35.35,0,0,1,.52-.11Z"/><path class="cls-33" d="M66.69,137.53l1.83,1.34a.45.45,0,0,1,.12.58.36.36,0,0,1-.52.13l-1.83-1.35a.46.46,0,0,1-.11-.58.34.34,0,0,1,.51-.12Z"/><path class="cls-33" d="M70.35,140.2l1.83,1.34a.49.49,0,0,1,.12.58.38.38,0,0,1-.52.13L70,140.9a.45.45,0,0,1-.11-.58.36.36,0,0,1,.51-.12Z"/><path class="cls-33" d="M74,142.89l1.83,1.34a.43.43,0,0,1,.1.56.34.34,0,0,1-.5.11l-1.83-1.35a.47.47,0,0,1-.11-.58.36.36,0,0,1,.51-.08Z"/><path class="cls-33" d="M77.65,145.6,79.46,147a.42.42,0,0,1,.1.55.33.33,0,0,1-.5.11h0l-1.81-1.37h0a.41.41,0,0,1-.09-.55.33.33,0,0,1,.49-.11Z"/><path class="cls-33" d="M81.25,148.38,83,149.79a.43.43,0,0,1,.08.55.35.35,0,0,1-.5.11h0L80.83,149h0a.43.43,0,0,1-.09-.55.34.34,0,0,1,.51-.11Z"/><path class="cls-33" d="M84.82,151.22l1.75,1.45a.45.45,0,0,1,.08.56.34.34,0,0,1-.5.08h0l-1.75-1.45h0a.43.43,0,0,1-.08-.55.34.34,0,0,1,.5-.09Z"/><path class="cls-33" d="M88.32,154.17l1.74,1.52a.42.42,0,0,1,0,.55.31.31,0,0,1-.47.06h0l-1.72-1.49h0a.45.45,0,0,1-.06-.56.29.29,0,0,1,.46-.08Z"/><path class="cls-33" d="M91.75,157.22l1.7,1.56a.4.4,0,0,1,0,.54.3.3,0,0,1-.48,0h0l-1.68-1.54h0a.4.4,0,0,1,0-.53.31.31,0,0,1,.47-.07Z"/><path class="cls-33" d="M95.12,160.36,96.78,162a.42.42,0,0,1,0,.53.33.33,0,0,1-.48,0h0L94.71,161h0a.41.41,0,0,1,0-.53.28.28,0,0,1,.45-.07Z"/><path class="cls-33" d="M98.4,163.63l1.6,1.69a.42.42,0,0,1,0,.54.33.33,0,0,1-.47,0h0L98,164.21h0a.44.44,0,0,1,0-.53.27.27,0,0,1,.46-.05Z"/><path class="cls-33" d="M101.55,167.05l1.52,1.77a.42.42,0,0,1,0,.52.3.3,0,0,1-.46,0h0l-1.5-1.75h0a.42.42,0,0,1,0-.54.26.26,0,0,1,.44,0Z"/><path class="cls-33" d="M104.56,170.64l1.43,1.88a.41.41,0,0,1,0,.51.31.31,0,0,1-.46,0h0l-1.41-1.86h0a.39.39,0,0,1,0-.51c.11-.15.3-.13.44,0Z"/><path class="cls-33" d="M107.34,174.44l1.29,2a.36.36,0,0,1-.07.49.29.29,0,0,1-.44-.08v0l-1.28-2v0a.39.39,0,0,1,.08-.51.35.35,0,0,1,.42.12Z"/><path class="cls-33" d="M109.83,178.5l1.13,2.12a.38.38,0,0,1-.12.49.29.29,0,0,1-.43-.13v0l-1.13-2.09v0a.38.38,0,0,1,.12-.49.32.32,0,0,1,.43.15Z"/><path class="cls-33" d="M112,182.8l.91,2.24a.34.34,0,0,1-.15.45.29.29,0,0,1-.4-.17v0l-.92-2.2v0a.38.38,0,0,1,.16-.47.32.32,0,0,1,.4.19Z"/><path class="cls-33" d="M113.72,187.33l.69,2.35a.34.34,0,0,1-.19.42.29.29,0,0,1-.38-.21v0l-.69-2.31v0a.36.36,0,0,1,.19-.43.29.29,0,0,1,.38.22Z"/><path class="cls-33" d="M115,192.07l.42,2.44a.3.3,0,0,1-.23.36.28.28,0,0,1-.32-.26v0l-.42-2.39v0a.33.33,0,0,1,.23-.39.31.31,0,0,1,.32.28Z"/><path class="cls-33" d="M115.67,196.94l.13,2.46a.29.29,0,0,1-.25.32.27.27,0,0,1-.28-.28v0l-.16-2.44v0a.32.32,0,0,1,.27-.34.37.37,0,0,1,.29.32Z"/><path class="cls-33" d="M115.78,201.88l-.15,2.45a.29.29,0,0,1-.29.28.31.31,0,0,1-.25-.3v0l.16-2.44v0a.28.28,0,0,1,.28-.27.31.31,0,0,1,.25.32Z"/><path class="cls-33" d="M115.36,206.79l-.36,2.44a.26.26,0,0,1-.29.23.28.28,0,0,1-.21-.32v0l.35-2.42v0a.25.25,0,0,1,.28-.23.3.3,0,0,1,.23.34Z"/><path class="cls-33" d="M114.54,211.62,114,214c0,.15-.15.24-.29.19a.25.25,0,0,1-.17-.32v0l.53-2.35v0a.24.24,0,0,1,.29-.19.25.25,0,0,1,.19.32Z"/><path class="cls-33" d="M113.3,216.36l-.82,2.29a.19.19,0,0,1-.28.13.25.25,0,0,1-.12-.32v0l.8-2.26v0a.24.24,0,0,1,.31-.15.28.28,0,0,1,.11.36Z"/><path class="cls-33" d="M111.47,220.85a21.13,21.13,0,0,1-1.25,2.05.21.21,0,0,1-.31,0,.3.3,0,0,1,0-.34,14.93,14.93,0,0,0,1.22-2,.22.22,0,0,1,.31-.08.24.24,0,0,1,.07.32Z"/><path class="cls-33" d="M108.62,224.65a7.58,7.58,0,0,1-2,1.24.2.2,0,0,1-.25-.13.25.25,0,0,1,.12-.28,6.47,6.47,0,0,0,1.83-1.17.18.18,0,0,1,.28,0,.21.21,0,0,1,0,.3Z"/></g></g></svg>