<?xml version="1.0" encoding="utf-8"?>
<!-- Generator: Adobe Illustrator 26.0.1, SVG Export Plug-In . SVG Version: 6.00 Build 0)  -->
<svg version="1.1" id="Illustration" xmlns="http://www.w3.org/2000/svg" xmlns:xlink="http://www.w3.org/1999/xlink" x="0px"
	 y="0px" viewBox="0 0 3710 3710" style="enable-background:new 0 0 3710 3710;" xml:space="preserve">
<style type="text/css">
	.st0{fill:url(#SVGID_1_);}
	.st1{fill:#BDD0FB;}
	.st2{opacity:0.86;fill:#FFFFFF;}
	.st3{fill:#91B3FA;}
	.st4{opacity:0.43;fill:#FFFFFF;}
	.st5{fill:url(#SVGID_00000108285752780799783460000016460220677566927011_);}
	.st6{fill:url(#SVGID_00000127008594484866427430000017457507598238729401_);}
	.st7{fill:url(#SVGID_00000145757880301759280090000013938916816245188793_);}
	.st8{fill:url(#SVGID_00000009591565489115883080000007488109744303948726_);}
	.st9{fill:url(#SVGID_00000069393625929539874340000015093554889050233021_);}
	.st10{fill:url(#SVGID_00000083788070431621156410000001064035362557341367_);}
	.st11{fill:url(#SVGID_00000122683494978559649970000006080160252583826610_);}
	.st12{clip-path:url(#SVGID_00000011024644416863647100000004590170673088636093_);fill:#7D97F4;}
	.st13{clip-path:url(#SVGID_00000011024644416863647100000004590170673088636093_);fill:#BDD0FB;}
	.st14{fill:url(#SVGID_00000046309228508497583760000016687651309975897775_);}
	.st15{fill:url(#SVGID_00000162322404112644316270000000333890788800330925_);}
	.st16{fill:url(#SVGID_00000052099449620425885390000002098966283829376137_);}
	
		.st17{clip-path:url(#SVGID_00000039122308773009969220000003764473437225329324_);fill:url(#SVGID_00000007391248923940239340000017365165178599834812_);}
	.st18{fill:url(#SVGID_00000139274921356135787540000009926067238883297718_);}
	.st19{fill:#FFFFFF;}
	.st20{fill:#7D97F4;}
	.st21{fill:url(#SVGID_00000158713812592464953730000017464440277991869074_);}
	.st22{fill:url(#SVGID_00000102508513625497322270000010076830157964334242_);}
	.st23{fill:url(#SVGID_00000018210176198280810410000001908356207753429381_);}
	.st24{fill-rule:evenodd;clip-rule:evenodd;fill:#FFFFFF;}
	.st25{fill:url(#SVGID_00000074412532174792191470000000672591957621515397_);}
	.st26{fill:url(#SVGID_00000122706624358362224510000017586763000888682654_);}
	.st27{fill:url(#SVGID_00000054231759724433695370000000645067029916151943_);}
	.st28{fill:url(#SVGID_00000054260785328207199110000012881911579904124570_);}
	.st29{fill:url(#SVGID_00000170246826236483571770000001680467424270386341_);}
	.st30{fill:url(#SVGID_00000116934741715512948090000012393799636013234860_);}
	.st31{fill:url(#SVGID_00000073712652921432587260000015362033391661634440_);}
	.st32{fill:url(#SVGID_00000143598288723784491630000003174533768464016556_);}
	.st33{fill:url(#SVGID_00000124131155535427011940000001903562336756551577_);}
	.st34{fill:url(#SVGID_00000038411367638169110260000011598542639190178449_);}
	.st35{fill:url(#SVGID_00000138534363043427966680000006654818996510315141_);}
	.st36{fill:url(#SVGID_00000130635346529545424340000006431580184013332399_);}
	.st37{fill:url(#SVGID_00000045580918849980231750000004365037934357877123_);}
	.st38{fill:url(#SVGID_00000059272177357416701350000002356468987557445821_);}
	.st39{fill:url(#SVGID_00000178167095108635943730000004008141297003686819_);}
	.st40{fill:url(#SVGID_00000070820439114850302300000012778693062559365565_);}
	.st41{fill:url(#SVGID_00000145025579919565073260000003540932216260251048_);}
	.st42{fill:url(#SVGID_00000083785527749890680370000012203907577628152976_);}
	.st43{fill:url(#SVGID_00000158011670650090418510000004539038908926441624_);}
	.st44{fill:url(#SVGID_00000060003200129137020890000015703835732435224489_);}
</style>
<g>
	<linearGradient id="SVGID_1_" gradientUnits="userSpaceOnUse" x1="3422.4897" y1="3616.6389" x2="1366.4615" y2="1397.4336">
		<stop  offset="0" style="stop-color:#DAE3FE"/>
		<stop  offset="1" style="stop-color:#E9EFFD"/>
	</linearGradient>
	<path class="st0" d="M3136,2352c-282.5,660.3-1028.3,944-1612.6,895.6c-159.5-13.2-480.5-39.8-731.2-276.8
		C310.9,2515.6,385,1564.2,845.8,1004c59.3-72.1,470.1-555.4,1110.1-549c468.6,4.7,797.5,269.4,837.5,302.4
		c50.5,41.7,162,140.7,262.4,297.7C3291.8,1424.2,3312.5,1939.3,3136,2352z"/>
	<g>
		<path class="st1" d="M857.4,463.4c-54.2,130.7-338.5,904,339.3,1301.1c0,0,318.2-460.9-318.7-1303.7
			C872.4,453.4,860.9,454.9,857.4,463.4z"/>
		<path class="st2" d="M896.8,601.2c0.6,45.1,2.2,90.2,4.1,135.3c2,45.1,4.5,90.2,7.5,135.2c6,90.1,14.1,180,24.9,269.6
			c10.9,89.6,24.4,178.9,42.7,267.1c9,44.1,19.6,87.9,31.9,131.2c12.3,43.2,26.3,86,43.7,127.4l0,0c1.4,3.4-0.2,7.4-3.6,8.8
			c-3.4,1.4-7.4-0.2-8.8-3.6l0,0c-17.3-42.1-31.2-85.5-43.3-129.2c-12-43.7-22.4-87.9-31.1-132.3c-17.8-88.8-30.7-178.4-40.9-268.3
			c-10.2-89.9-17.6-180-23-270.2c-2.7-45.1-4.9-90.3-6.5-135.4c-1.6-45.2-2.9-90.3-3.2-135.6c0-1.6,1.3-2.9,2.8-2.9
			C895.5,598.4,896.8,599.6,896.8,601.2L896.8,601.2z"/>
	</g>
	<g>
		<path class="st3" d="M495.1,495.2c2.2-13.8,21.4-15.6,26-2.3c43.9,127.8,169.5,459.5,343.3,629.3
			c283,276.6,487.3,740.2,330.8,995.4C1195.2,2117.7,259.8,2000.4,495.1,495.2z"/>
		<path class="st4" d="M535.4,679c0.6,3.3,1.5,7.1,2.3,10.7l2.6,10.9l5.4,21.7c3.7,14.5,7.5,28.9,11.4,43.3
			c7.8,28.8,16,57.5,24.4,86.1c16.8,57.3,34.7,114.2,53.7,170.8c38.2,113,79.8,224.9,127.2,334.4c23.9,54.6,48.3,109.1,74.8,162.5
			c26.6,53.4,54.3,106.2,84.2,157.8c3.6,6.5,7.4,12.9,11.3,19.3l11.5,19.2l11.5,19.2c3.9,6.3,8,12.6,12,18.9
			c8.1,12.5,15.9,25.2,24.2,37.6l25.1,37c34.1,48.9,70.6,96.1,109.7,141.2l0,0c0.6,0.7,0.5,1.8-0.2,2.4c-0.7,0.6-1.7,0.5-2.3-0.1
			c-40.4-44.1-77.7-91-112.8-139.4l-25.7-36.8c-8.5-12.3-16.4-25-24.7-37.5c-4.1-6.3-8.2-12.5-12.2-18.8l-11.7-19.1l-11.7-19.1
			c-3.9-6.4-7.8-12.7-11.5-19.3c-60.4-103.3-113.3-210.9-160.5-320.8c-23.7-54.9-45.6-110.6-66.6-166.5
			c-21-56-40.9-112.4-59.2-169.3c-18.4-56.9-35.9-114-52-171.6c-8-28.8-15.7-57.7-23.1-86.6c-3.6-14.5-7.2-29-10.7-43.5l-5-21.9
			l-2.4-11c-0.7-3.7-1.5-7.2-2.1-11.3c-0.1-0.9,0.5-1.8,1.4-1.9c0.9-0.1,1.7,0.5,1.9,1.4L535.4,679z"/>
	</g>
	<g>
		<g>
			
				<linearGradient id="SVGID_00000042012061046609653940000015424167025314290074_" gradientUnits="userSpaceOnUse" x1="1615.7725" y1="2715.2627" x2="2198.4014" y2="967.3713">
				<stop  offset="0" style="stop-color:#09005D"/>
				<stop  offset="1" style="stop-color:#1A0F91"/>
			</linearGradient>
			<path style="fill:url(#SVGID_00000042012061046609653940000015424167025314290074_);" d="M3120.2,2778.7
				c0,25.1-20.5,45.6-45.6,45.6H607.6c-25.1,0-45.6-20.5-45.6-45.6L541.5,1361c0-25.1,29.5-74,83.7-70.3l2410.9-62.4
				c31.5-0.8,61.9,11.3,84.2,33.5c22.3,22.2,34.5,52.6,33.7,84.1L3120.2,2778.7z"/>
			<path class="st3" d="M3075.1,2734.9c0,23.7-19.4,43.2-43.2,43.2H667.1c-23.7,0-43.2-19.4-43.2-43.2l-19.4-1287
				c2.3-77.4,70.2-105.3,111.3-103.6l2310.7-62c22.1-0.6,43.5,7.9,59.2,23.6c15.7,15.6,24.3,37,23.7,59.1L3075.1,2734.9z"/>
			<g>
				
					<linearGradient id="SVGID_00000124125203495408136070000014894175351899976612_" gradientUnits="userSpaceOnUse" x1="644.6428" y1="2065.0354" x2="652.8972" y2="2065.0354">
					<stop  offset="0" style="stop-color:#DAE3FE"/>
					<stop  offset="1" style="stop-color:#E9EFFD"/>
				</linearGradient>
				<path style="fill:url(#SVGID_00000124125203495408136070000014894175351899976612_);" d="M649.5,2120.6c-1.8,0-3.3-1.5-3.4-3.3
					l-1.5-104.4c0-1.9,1.5-3.4,3.3-3.4c2,0,3.4,1.5,3.4,3.3l1.5,104.4C652.9,2119,651.4,2120.6,649.5,2120.6
					C649.6,2120.6,649.6,2120.6,649.5,2120.6z"/>
				
					<linearGradient id="SVGID_00000091736169534918433070000012810054022290700713_" gradientUnits="userSpaceOnUse" x1="636.5502" y1="1608.4375" x2="1479.2867" y2="1608.4375">
					<stop  offset="0" style="stop-color:#DAE3FE"/>
					<stop  offset="1" style="stop-color:#E9EFFD"/>
				</linearGradient>
				<path style="fill:url(#SVGID_00000091736169534918433070000012810054022290700713_);" d="M645.8,1864.8c-1.8,0-3.3-1.5-3.4-3.3
					l-5.9-399.7c0.1-26.7,8.3-48,24.4-63.4c29.3-28,75.1-26.6,77-26.5l737.9-19.8c1.9-0.1,3.4,1.4,3.4,3.3c0,1.9-1.4,3.4-3.3,3.4
					l-738.1,19.8c-2.1-0.1-45.1-1.4-72.3,24.7c-14.7,14.1-22.2,33.8-22.3,58.5l5.9,399.7C649.2,1863.3,647.7,1864.8,645.8,1864.8
					C645.8,1864.8,645.8,1864.8,645.8,1864.8z"/>
			</g>
		</g>
		
			<linearGradient id="SVGID_00000080197139580360633270000003621218259730615449_" gradientUnits="userSpaceOnUse" x1="2914.998" y1="2586.917" x2="422.3407" y2="3193.2385">
			<stop  offset="0" style="stop-color:#09005D"/>
			<stop  offset="1" style="stop-color:#1A0F91"/>
		</linearGradient>
		<path style="fill:url(#SVGID_00000080197139580360633270000003621218259730615449_);" d="M3239.2,2918.4H466.8
			c-4.1,0-7.5-3.4-7.5-7.5v-131.4c0-4.1,3.4-7.5,7.5-7.5h2772.4c4.1,0,7.5,3.4,7.5,7.5v131.4
			C3246.7,2915.1,3243.3,2918.4,3239.2,2918.4z"/>
	</g>
	<g>
		<g>
			
				<linearGradient id="SVGID_00000018205605934675209980000002498504832108705463_" gradientUnits="userSpaceOnUse" x1="2116.6387" y1="624.8638" x2="2761.9285" y2="-827.0375">
				<stop  offset="0" style="stop-color:#FE7062"/>
				<stop  offset="1" style="stop-color:#FF928E"/>
			</linearGradient>
			<path style="fill:url(#SVGID_00000018205605934675209980000002498504832108705463_);" d="M1816.2,517.2l-961.8,795.2
				c18.7,9,39.8,13.6,62.2,12.5l1822.4-95c31.3-1.6,59.6-14.4,80.9-34.4l-715.3-670.1C2026.9,452.6,1898.7,449,1816.2,517.2z"/>
		</g>
		
			<linearGradient id="SVGID_00000078023167713797552310000017865995140519133087_" gradientUnits="userSpaceOnUse" x1="1666.796" y1="3619.7625" x2="1858.3666" y2="1623.3969">
			<stop  offset="0" style="stop-color:#FE7062"/>
			<stop  offset="1" style="stop-color:#FF928E"/>
		</linearGradient>
		<path style="fill:url(#SVGID_00000078023167713797552310000017865995140519133087_);" d="M2702.2,2670.2H947.9
			c-70.8,0-128.2-57.4-128.2-128.2V1399.6c0-68.1,53.2-124.3,121.1-128l1822-101.6c76.3-4.3,139.3,58.7,135.2,135l-67.7,1243.9
			C2826.5,2616.9,2770.3,2670.2,2702.2,2670.2z"/>
		<g>
			
				<linearGradient id="SVGID_00000019680521860912867750000013147342236616771980_" gradientUnits="userSpaceOnUse" x1="2117.5583" y1="625.2774" x2="2762.8484" y2="-826.6242">
				<stop  offset="0" style="stop-color:#FE7062"/>
				<stop  offset="1" style="stop-color:#FF928E"/>
			</linearGradient>
			<path style="fill:url(#SVGID_00000019680521860912867750000013147342236616771980_);" d="M1866,1980.9l959-798.6
				c-18.7-8.9-50.2-34.7-72.5-33.4L963.9,1250.6c-31.3,1.7-82.7,35.6-103.9,55.7l717.7,667.5
				C1655.6,2046.2,1783.8,2049.4,1866,1980.9z"/>
		</g>
		<g>
			<defs>
				<path id="SVGID_00000083779464342327217840000012418568998076060056_" d="M1866,1980.9l928.3-773.1c14.5-12,7.2-35.5-11.6-37.4
					c-6.5-0.6-13.2-608.7-20-608.4l-1822,101.6c-21.7,1.2-41.9,615.7-59.3,626.3c-11.9,7.2-13.3,23.9-3.1,33.4l699.4,650.4
					C1655.6,2046.2,1783.8,2049.4,1866,1980.9z"/>
			</defs>
			<clipPath id="SVGID_00000058560316236943911200000008885356096300388517_">
				<use xlink:href="#SVGID_00000083779464342327217840000012418568998076060056_"  style="overflow:visible;"/>
			</clipPath>
			<path style="clip-path:url(#SVGID_00000058560316236943911200000008885356096300388517_);fill:#7D97F4;" d="M2558.3,2190.6
				H1113.9V813.9c0-52.7,49-96.2,111.7-99.3L2433,656.3c68-3.3,125.3,42.1,125.3,99.3V2190.6z"/>
			<path style="clip-path:url(#SVGID_00000058560316236943911200000008885356096300388517_);fill:#BDD0FB;" d="M2509.5,2131.3
				H1163.9V848.8c0-49.1,45.6-89.6,104-92.5L2392.8,702c63.4-3.1,116.7,39.2,116.7,92.5V2131.3z"/>
		</g>
	</g>
	<g>
		
			<linearGradient id="SVGID_00000178188570740086164960000006858507316310392250_" gradientUnits="userSpaceOnUse" x1="1440.0364" y1="1760.261" x2="1537.4927" y2="2173.6096">
			<stop  offset="0" style="stop-color:#09005D"/>
			<stop  offset="1" style="stop-color:#1A0F91"/>
		</linearGradient>
		<path style="fill:url(#SVGID_00000178188570740086164960000006858507316310392250_);" d="M1283.2,1687.3
			c0,0,129.2,412.1,172.6,498.8c50.4,100.6,217.7,48.2,214.3-33.8c-3.4-81.9-174.9-429.9-174.9-429.9L1283.2,1687.3z"/>
		
			<linearGradient id="SVGID_00000052100048778815296900000005627465573110329751_" gradientUnits="userSpaceOnUse" x1="2017.0465" y1="998.4764" x2="2626.0708" y2="2083.1636" gradientTransform="matrix(0.9983 5.850000e-02 -5.850000e-02 0.9983 -109.9439 73.3558)">
			<stop  offset="0" style="stop-color:#4F52FF"/>
			<stop  offset="1" style="stop-color:#4042E2"/>
		</linearGradient>
		<polygon style="fill:url(#SVGID_00000052100048778815296900000005627465573110329751_);" points="1507,1405.7 2476.4,1132 
			2414.2,2022.8 1460.7,1750.7 		"/>
		
			<ellipse transform="matrix(5.850006e-02 -0.9983 0.9983 5.850006e-02 729.9612 3934.6975)" class="st3" cx="2451" cy="1580.4" rx="458.9" ry="93.5"/>
		
			<linearGradient id="SVGID_00000050622564278828237770000015614829149885618347_" gradientUnits="userSpaceOnUse" x1="2541.311" y1="1362.0382" x2="2787.4272" y2="1339.6641" gradientTransform="matrix(0.9983 5.850000e-02 -5.850000e-02 0.9983 -109.9439 73.3558)">
			<stop  offset="0" style="stop-color:#4F52FF"/>
			<stop  offset="1" style="stop-color:#4042E2"/>
		</linearGradient>
		<path style="fill:url(#SVGID_00000050622564278828237770000015614829149885618347_);" d="M2433.1,2007.6
			c-7.9-9.1-24.4-43.3-35.1-129.8c-10.4-83.6-12.5-191.4-5.9-303.5c6.6-112.1,21.2-218.9,41.3-300.7c20.8-84.7,41.1-116.7,50-124.8
			c7.9,9.1,24.4,43.3,35.1,129.8c10.4,83.6,12.5,191.4,5.9,303.5c-6.6,112.1-21.2,218.9-41.3,300.7
			C2462.3,1967.4,2442,1999.5,2433.1,2007.6z"/>
		<g>
			<defs>
				<path id="SVGID_00000099632754700803549520000011253187494004258969_" d="M2433.1,2007.6c-7.9-9.1-24.4-43.3-35.1-129.8
					c-10.4-83.6-12.5-191.4-5.9-303.5c6.6-112.1,21.2-218.9,41.3-300.7c20.8-84.7,41.1-116.7,50-124.8c7.9,9.1,24.4,43.3,35.1,129.8
					c10.4,83.6,124.3,197.9,117.7,310c-6.6,112.1-133,212.3-153.1,294.2C2462.3,1967.4,2442,1999.5,2433.1,2007.6z"/>
			</defs>
			<clipPath id="SVGID_00000148655156938215381410000001260018923738669206_">
				<use xlink:href="#SVGID_00000099632754700803549520000011253187494004258969_"  style="overflow:visible;"/>
			</clipPath>
			
				<linearGradient id="SVGID_00000013904244456995501400000010653751066239374498_" gradientUnits="userSpaceOnUse" x1="2851.8257" y1="1336.7941" x2="2188.0564" y2="1374.8796" gradientTransform="matrix(0.9983 5.850000e-02 -5.850000e-02 0.9983 -109.9439 73.3558)">
				<stop  offset="0" style="stop-color:#09005D"/>
				<stop  offset="1" style="stop-color:#1A0F91"/>
			</linearGradient>
			
				<path style="clip-path:url(#SVGID_00000148655156938215381410000001260018923738669206_);fill:url(#SVGID_00000013904244456995501400000010653751066239374498_);" d="
				M2578.1,1581.8c-4.6,77.8-50.2,138.5-133.2,133.6c-83-4.9-146.6-71.9-142-149.7c4.6-77.8,75.5-137,158.5-132.1
				C2544.4,1438.4,2582.6,1503.9,2578.1,1581.8z"/>
		</g>
		
			<linearGradient id="SVGID_00000067206857767842438670000007252737817664613253_" gradientUnits="userSpaceOnUse" x1="1862.9725" y1="993.8442" x2="1772.2375" y2="1111.4636">
			<stop  offset="0" style="stop-color:#09005D"/>
			<stop  offset="1" style="stop-color:#1A0F91"/>
		</linearGradient>
		<path style="fill:url(#SVGID_00000067206857767842438670000007252737817664613253_);" d="M1354.9,1377.6
			c45-2.6,109.2-0.7,177.6,19.2c-29.8,117.9-33.7,242.4-14.8,372.7l-195.4-11.5c-31.2-1.8-56.4-26-59.5-57.1
			c-6.1-62.3-12-166.7,5.6-249.2C1277.2,1410.4,1312.6,1380,1354.9,1377.6z"/>
		<path class="st1" d="M1466.8,1475.8l-152.3-8.9c-5.2-0.3-9.6-3.3-11.8-8c-2.2-4.7-1.7-10,1.4-14.1c1.3-1.7,3.7-2.1,5.5-0.8
			c1.7,1.3,2.1,3.7,0.8,5.5c-1.3,1.8-1.6,4.1-0.6,6.2c1,2,2.9,3.3,5.1,3.5l152.3,8.9c3.3,0.2,6.2-2.4,6.4-5.7l0.6-10.8
			c0.2-3.3-2.4-6.2-5.7-6.4l-153.4-9c-2.2-0.1-3.8-2-3.7-4.1c0.1-2.2,2-3.8,4.1-3.7l153.4,9c7.7,0.4,13.5,7,13.1,14.7l-0.6,10.8
			C1481.1,1470.4,1474.5,1476.2,1466.8,1475.8z"/>
		<path class="st1" d="M1449.3,1542.4l-152.3-8.9c-5.2-0.3-9.6-3.3-11.8-8c-2.2-4.7-1.7-10,1.4-14.1c1.3-1.7,3.7-2.1,5.5-0.8
			c1.7,1.3,2.1,3.7,0.8,5.5c-1.3,1.8-1.6,4.1-0.6,6.2c1,2,2.9,3.3,5.1,3.5l152.3,8.9c3.3,0.2,6.2-2.4,6.4-5.7l0.6-10.8
			c0.2-3.3-2.4-6.2-5.7-6.4l-153.4-9c-2.2-0.1-3.8-2-3.7-4.1c0.1-2.2,2-3.8,4.1-3.7l153.4,9c7.7,0.4,13.5,7,13.1,14.7l-0.6,10.8
			C1463.5,1537,1456.9,1542.9,1449.3,1542.4z"/>
		<path class="st1" d="M1646.4,1389.7c-1.7-0.1-3.1-1.3-3.6-2.9c-0.5-2.1,0.7-4.2,2.8-4.8l733-186.8c2.1-0.5,4.2,0.7,4.8,2.8
			c0.5,2.1-0.7,4.2-2.8,4.8l-733,186.8C1647.2,1389.7,1646.8,1389.7,1646.4,1389.7z"/>
		<path class="st1" d="M1546.8,1423.8c-1.5-0.1-3-1.1-3.5-2.6c-0.7-2,0.4-4.3,2.4-5l37.9-13c2-0.7,4.3,0.4,5,2.4
			c0.7,2-0.4,4.3-2.4,5l-37.9,13C1547.8,1423.7,1547.3,1423.8,1546.8,1423.8z"/>
		<path class="st1" d="M1458.2,1622.2l-152.3-8.9c-5.2-0.3-9.6-3.3-11.8-8c-2.2-4.7-1.7-10,1.4-14.1c1.3-1.7,3.7-2.1,5.5-0.8
			c1.7,1.3,2.1,3.7,0.8,5.5c-1.3,1.8-1.6,4.1-0.6,6.2c1,2,2.9,3.3,5.1,3.5l152.3,8.9c3.3,0.2,6.2-2.4,6.4-5.7l0.6-10.8
			c0.2-3.3-2.4-6.2-5.7-6.4l-153.4-9c-2.2-0.1-3.8-2-3.7-4.1c0.1-2.2,2-3.8,4.1-3.7l153.4,9c7.7,0.4,13.5,7,13.1,14.7l-0.6,10.8
			C1472.5,1616.8,1465.9,1622.7,1458.2,1622.2z"/>
		<path class="st1" d="M1467.4,1710.7l-152.3-8.9c-5.2-0.3-9.6-3.3-11.8-8c-2.2-4.7-1.7-10,1.4-14.1c1.3-1.7,3.7-2.1,5.5-0.8
			c1.7,1.3,2.1,3.7,0.8,5.5c-1.3,1.8-1.6,4.1-0.6,6.2c1,2,2.9,3.3,5.1,3.5l152.3,8.9c3.3,0.2,6.2-2.4,6.4-5.7l0.6-10.8
			c0.2-3.3-2.4-6.2-5.7-6.4l-153.4-9c-2.2-0.1-3.8-2-3.7-4.1c0.1-2.2,2-3.8,4.1-3.7l153.4,9c7.7,0.4,13.5,7,13.1,14.7l-0.6,10.8
			C1481.6,1705.3,1475,1711.2,1467.4,1710.7z"/>
		<path class="st1" d="M1575.4,2195.4c-7-0.4-14.1-1.6-21-3.5c-30.6-8.6-54.6-30.5-65.9-60.1l-105.8-277.4c-0.8-2,0.2-4.3,2.3-5.1
			s4.3,0.2,5.1,2.3l105.8,277.4c10.4,27.3,32.5,47.4,60.7,55.3c27.7,7.8,56.4,2.2,79-15.3c1.2-0.9,2.4-1.9,3.6-2.9
			c1.7-1.4,4.2-1.1,5.5,0.6c1.4,1.7,1.1,4.2-0.6,5.5c-1.3,1-2.5,2-3.8,3C1621.4,2189.7,1598.6,2196.7,1575.4,2195.4z"/>
		<path class="st1" d="M1370.5,1815.8c-1.5-0.1-2.9-1-3.4-2.5l-11.8-30.9c-0.8-2,0.2-4.3,2.3-5.1c2-0.8,4.3,0.2,5.1,2.3l11.8,30.9
			c0.8,2-0.2,4.3-2.3,5.1C1371.6,1815.8,1371,1815.9,1370.5,1815.8z"/>
		<path class="st19" d="M2556.1,1576.4c-2-0.1-3.7-1.8-3.7-3.9c-0.5-38.3-12-67.5-34.3-86.8c-38.6-33.4-96.9-26.1-97.5-26
			c-2.2,0.3-4.1-1.2-4.4-3.4c-0.3-2.1,1.2-4.1,3.4-4.4c2.5-0.3,62.4-7.8,103.6,27.9c24.1,20.8,36.5,52,37,92.7c0,2.2-1.7,3.9-3.9,4
			C2556.2,1576.4,2556.2,1576.4,2556.1,1576.4z"/>
	</g>
	<g>
		<g>
			<circle class="st3" cx="3004.5" cy="1417.7" r="244.4"/>
			
				<ellipse transform="matrix(0.7071 -0.7071 0.7071 0.7071 -123.9392 2537.2397)" class="st20" cx="3000.7" cy="1418.2" rx="221.6" ry="221.6"/>
			
				<linearGradient id="SVGID_00000157989615370945365060000017829654609750125729_" gradientUnits="userSpaceOnUse" x1="3129.9778" y1="1292.3082" x2="3210.0356" y2="1292.3082">
				<stop  offset="0" style="stop-color:#DAE3FE"/>
				<stop  offset="1" style="stop-color:#E9EFFD"/>
			</linearGradient>
			<path style="fill:url(#SVGID_00000157989615370945365060000017829654609750125729_);" d="M3205,1343c-2,0-3.9-1.2-4.7-3.1
				c-14.5-35.1-38.1-66-68.4-89.3c-2.2-1.7-2.6-4.9-0.9-7.1c1.7-2.2,4.9-2.6,7.1-0.9c31.7,24.3,56.4,56.6,71.6,93.4
				c1.1,2.6-0.2,5.5-2.7,6.6C3206.3,1342.9,3205.6,1343,3205,1343z"/>
			
				<linearGradient id="SVGID_00000150083705095923386860000017184772678974828206_" gradientUnits="userSpaceOnUse" x1="2880.1619" y1="1216.808" x2="3091.334" y2="1216.808">
				<stop  offset="0" style="stop-color:#DAE3FE"/>
				<stop  offset="1" style="stop-color:#E9EFFD"/>
			</linearGradient>
			<path style="fill:url(#SVGID_00000150083705095923386860000017184772678974828206_);" d="M2885.2,1237.9c-1.7,0-3.4-0.9-4.3-2.4
				c-1.4-2.4-0.7-5.5,1.7-6.9c35.3-21.4,75.9-32.8,117.4-32.8c30.6,0,60.3,6,88.2,17.8c2.6,1.1,3.8,4,2.7,6.6
				c-1.1,2.6-4,3.8-6.6,2.7c-26.7-11.3-55.1-17-84.3-17c-39.7,0-78.5,10.8-112.2,31.3C2887,1237.6,2886.1,1237.9,2885.2,1237.9z"/>
			
				<linearGradient id="SVGID_00000156583213037558661040000016768669527611228299_" gradientUnits="userSpaceOnUse" x1="2773.356" y1="1436.2747" x2="2861.0752" y2="1436.2747">
				<stop  offset="0" style="stop-color:#DAE3FE"/>
				<stop  offset="1" style="stop-color:#E9EFFD"/>
			</linearGradient>
			<path style="fill:url(#SVGID_00000156583213037558661040000016768669527611228299_);" d="M2856,1595.9c-1.2,0-2.3-0.4-3.3-1.2
				c-50.5-43.2-79.4-106-79.4-172.3c0-52.4,18.3-103.6,51.6-144c1.8-2.1,4.9-2.5,7.1-0.7c2.1,1.8,2.5,4.9,0.7,7.1
				c-31.8,38.6-49.3,87.5-49.3,137.6c0,63.4,27.7,123.4,75.9,164.7c2.1,1.8,2.4,5,0.6,7.1C2858.9,1595.3,2857.5,1595.9,2856,1595.9z
				"/>
		</g>
		<g>
			<path class="st19" d="M3000.9,1553.5c-76.5,0-138.6-62.2-138.6-138.6s62.2-138.6,138.6-138.6c76.4,0,138.6,62.2,138.6,138.6
				S3077.3,1553.5,3000.9,1553.5z M3000.9,1299.5c-63.6,0-115.4,51.8-115.4,115.4s51.8,115.4,115.4,115.4
				c63.6,0,115.4-51.8,115.4-115.4S3064.5,1299.5,3000.9,1299.5z"/>
			<path class="st24" d="M2957.4,1468.3v-99.7c0-10.7,11.6-17.3,20.8-11.8l84,49.8c9,5.3,9,18.3,0,23.6l-84,49.8
				C2969,1485.5,2957.4,1478.9,2957.4,1468.3z"/>
		</g>
	</g>
	<g>
		<g>
			
				<ellipse transform="matrix(0.7071 -0.7071 0.7071 0.7071 -579.5991 2574.6516)" class="st3" cx="2818.1" cy="1987" rx="244.4" ry="244.4"/>
			<circle class="st20" cx="2814.3" cy="1987.5" r="221.6"/>
			
				<linearGradient id="SVGID_00000114766013741650252380000014851236283980912039_" gradientUnits="userSpaceOnUse" x1="2943.5422" y1="1861.5635" x2="3023.6035" y2="1861.5635">
				<stop  offset="0" style="stop-color:#DAE3FE"/>
				<stop  offset="1" style="stop-color:#E9EFFD"/>
			</linearGradient>
			<path style="fill:url(#SVGID_00000114766013741650252380000014851236283980912039_);" d="M3018.6,1912.3c-2,0-3.9-1.2-4.7-3.1
				c-14.5-35.1-38.1-66-68.4-89.3c-2.2-1.7-2.6-4.9-0.9-7.1c1.7-2.2,4.9-2.6,7.1-0.9c31.7,24.3,56.4,56.6,71.6,93.4
				c1.1,2.6-0.2,5.5-2.7,6.6C3019.9,1912.1,3019.2,1912.3,3018.6,1912.3z"/>
			
				<linearGradient id="SVGID_00000176038191429772352250000007854174408648001173_" gradientUnits="userSpaceOnUse" x1="2693.7295" y1="1786.0631" x2="2904.9019" y2="1786.0631">
				<stop  offset="0" style="stop-color:#DAE3FE"/>
				<stop  offset="1" style="stop-color:#E9EFFD"/>
			</linearGradient>
			<path style="fill:url(#SVGID_00000176038191429772352250000007854174408648001173_);" d="M2698.8,1807.1c-1.7,0-3.4-0.9-4.3-2.4
				c-1.4-2.4-0.7-5.5,1.7-6.9c35.3-21.4,75.9-32.8,117.4-32.8c30.6,0,60.3,6,88.2,17.8c2.6,1.1,3.8,4,2.7,6.6
				c-1.1,2.6-4,3.8-6.6,2.7c-26.7-11.3-55.1-17-84.3-17c-39.7,0-78.5,10.8-112.2,31.3C2700.6,1806.9,2699.7,1807.1,2698.8,1807.1z"
				/>
			
				<linearGradient id="SVGID_00000010271108094239625330000005370994084426572182_" gradientUnits="userSpaceOnUse" x1="2586.9207" y1="2005.5292" x2="2674.6399" y2="2005.5292">
				<stop  offset="0" style="stop-color:#DAE3FE"/>
				<stop  offset="1" style="stop-color:#E9EFFD"/>
			</linearGradient>
			<path style="fill:url(#SVGID_00000010271108094239625330000005370994084426572182_);" d="M2669.6,2165.2c-1.2,0-2.3-0.4-3.3-1.2
				c-50.5-43.2-79.4-106-79.4-172.3c0-52.4,18.3-103.6,51.6-144c1.8-2.1,4.9-2.5,7.1-0.7c2.1,1.8,2.5,4.9,0.7,7.1
				c-31.8,38.6-49.3,87.5-49.3,137.6c0,63.4,27.7,123.4,75.9,164.7c2.1,1.8,2.4,5,0.6,7.1C2672.4,2164.6,2671,2165.2,2669.6,2165.2z
				"/>
		</g>
		<g>
			<path class="st19" d="M2936.7,1949.8L2936.7,1949.8c-9.3-24.9-31.9-42.6-58.2-42.7c-34.5-0.2-62.2,29.8-61.8,67
				c-0.4-37.2-28.9-67.5-63.8-67.7c-26.9-0.1-49.8,17.6-58.8,42.8l0,0c-34.5,90.4,124.2,173.4,124.2,173.4
				S2971.8,2038.4,2936.7,1949.8z"/>
		</g>
	</g>
	<g>
		<g>
			<circle class="st3" cx="2850.5" cy="866.7" r="235.4"/>
			<circle class="st20" cx="2846.9" cy="867.2" r="213.5"/>
			
				<linearGradient id="SVGID_00000008123329285296903200000016294152032743728315_" gradientUnits="userSpaceOnUse" x1="2971.1882" y1="745.9211" x2="3048.6699" y2="745.9211">
				<stop  offset="0" style="stop-color:#DAE3FE"/>
				<stop  offset="1" style="stop-color:#E9EFFD"/>
			</linearGradient>
			<path style="fill:url(#SVGID_00000008123329285296903200000016294152032743728315_);" d="M3043.6,794.9c-2,0-3.9-1.2-4.7-3.1
				c-13.9-33.8-36.7-63.5-65.8-85.9c-2.2-1.7-2.6-4.9-0.9-7.1c1.7-2.2,4.9-2.6,7.1-0.9c30.5,23.5,54.4,54.6,69,90
				c1.1,2.6-0.2,5.5-2.7,6.6C3044.9,794.8,3044.3,794.9,3043.6,794.9z"/>
			
				<linearGradient id="SVGID_00000143613364497760412290000018309529138755211448_" gradientUnits="userSpaceOnUse" x1="2730.584" y1="673.2042" x2="2934.3428" y2="673.2042">
				<stop  offset="0" style="stop-color:#DAE3FE"/>
				<stop  offset="1" style="stop-color:#E9EFFD"/>
			</linearGradient>
			<path style="fill:url(#SVGID_00000143613364497760412290000018309529138755211448_);" d="M2735.6,693.7c-1.7,0-3.4-0.9-4.3-2.4
				c-1.4-2.4-0.7-5.5,1.7-6.9c34-20.7,73.2-31.6,113.2-31.6c29.5,0,58.1,5.8,85.1,17.2c2.6,1.1,3.8,4,2.7,6.6
				c-1.1,2.6-4,3.8-6.6,2.7c-25.7-10.9-53-16.4-81.1-16.4c-38.2,0-75.5,10.4-108,30.1C2737.4,693.4,2736.5,693.7,2735.6,693.7z"/>
			
				<linearGradient id="SVGID_00000140014974619207276330000014356397352339473803_" gradientUnits="userSpaceOnUse" x1="2627.7134" y1="884.5806" x2="2712.5708" y2="884.5806">
				<stop  offset="0" style="stop-color:#DAE3FE"/>
				<stop  offset="1" style="stop-color:#E9EFFD"/>
			</linearGradient>
			<path style="fill:url(#SVGID_00000140014974619207276330000014356397352339473803_);" d="M2707.5,1038.6c-1.2,0-2.3-0.4-3.3-1.2
				c-48.6-41.6-76.5-102.2-76.5-166.1c0-50.5,17.7-99.8,49.7-138.8c1.8-2.1,4.9-2.5,7.1-0.7s2.5,4.9,0.7,7.1
				c-30.6,37.2-47.4,84.2-47.4,132.4c0,61,26.6,118.8,73,158.4c2.1,1.8,2.4,5,0.6,7.1C2710.4,1038,2709,1038.6,2707.5,1038.6z"/>
		</g>
		<path class="st19" d="M2752.6,816.3c2,33.3,42.1,106,68.2,150c10.4,17.6,36.8,17.5,46.9-0.2c25.3-44.2,64-117.1,65.5-150.4
			c2.4-54.1-38.4-100.4-91.1-100.2C2789.3,715.6,2749.3,762.2,2752.6,816.3z M2794.5,816.1c-1.1-28.6,20.4-52.6,48-52.7
			c27.6-0.1,49.5,23.7,48.9,52.4c-0.5,27.7-22,49.6-48,49.7C2817.4,865.6,2795.5,843.8,2794.5,816.1z"/>
		<circle class="st19" cx="2848.1" cy="1027.4" r="23.6"/>
	</g>
	<g>
		
			<linearGradient id="SVGID_00000173137486968790343000000003636069249896282279_" gradientUnits="userSpaceOnUse" x1="1312.5674" y1="2852.8569" x2="1801.5044" y2="2121.9729">
			<stop  offset="0" style="stop-color:#A22B25"/>
			<stop  offset="1" style="stop-color:#C0423C"/>
		</linearGradient>
		<path style="fill:url(#SVGID_00000173137486968790343000000003636069249896282279_);" d="M1535.4,3070.3
			c-0.5-0.2-275.2-481.2-312.3-526.4c-6.2-7.6-15.9-11.5-25.7-10.3l-76.7,9.1l-90.1,194.8l150-87.4
			c-14.8,102.7,177.9,255.3,244,310.9c6.7,5.7,7.3,15.8,1.2,22.1l-26.4,27.6c43.3,43.9,93.3,72.1,149.7,85.2L1535.4,3070.3z"/>
		
			<linearGradient id="SVGID_00000177443447163984170020000017139902888986135938_" gradientUnits="userSpaceOnUse" x1="-13390.0078" y1="-5743.6494" x2="-13423.248" y2="-5233.9595" gradientTransform="matrix(-0.8974 -0.4412 -0.4412 0.8974 -13005.6787 2161.1482)">
			<stop  offset="0" style="stop-color:#09005D"/>
			<stop  offset="1" style="stop-color:#1A0F91"/>
		</linearGradient>
		<path style="fill:url(#SVGID_00000177443447163984170020000017139902888986135938_);" d="M1414.8,2995.9c0,0-16.8,5.4-22.5,20.4
			c-2.7,7.2,0.2,15.3,6.5,19.8c27.7,19.9,119.2,84,161.4,96.6c3.5,1,6.8-2.1,6-5.6c-2.2-9.8-9.2-29.4-31.8-58.1l2,4.1
			c2.6,5.2-3.1,10.6-8.1,7.7C1500,3064.9,1442.5,3030,1414.8,2995.9z"/>
		
			<linearGradient id="SVGID_00000183222821816305654720000014759021953580536465_" gradientUnits="userSpaceOnUse" x1="2283.2495" y1="1834.2809" x2="1834.6372" y2="2313.1372">
			<stop  offset="0" style="stop-color:#A22B25"/>
			<stop  offset="1" style="stop-color:#C0423C"/>
		</linearGradient>
		<path style="fill:url(#SVGID_00000183222821816305654720000014759021953580536465_);" d="M1428.4,3188.3
			c-0.5-0.3-41.7-99.6-42.1-99.9c-37.8-230-130-427-157.1-478.9c-4.6-8.7-13.3-14.5-23.1-15.3l-76.9-6.6l-127.6,172.6l164.6-55.2
			c-35.3,97.5,122.6,286,176,353.9c5.4,6.9,3.9,16.9-3.3,21.9l-31.4,21.7c33.5,51.8,76.8,89.5,129.4,113.7L1428.4,3188.3z"/>
		
			<linearGradient id="SVGID_00000016788222960189535540000014423709882666891961_" gradientUnits="userSpaceOnUse" x1="-11348.1367" y1="-9015.6152" x2="-11381.375" y2="-8505.958" gradientTransform="matrix(-0.7895 -0.6137 -0.6137 0.7895 -13023.2676 3191.1018)">
			<stop  offset="0" style="stop-color:#09005D"/>
			<stop  offset="1" style="stop-color:#1A0F91"/>
		</linearGradient>
		<path style="fill:url(#SVGID_00000016788222960189535540000014423709882666891961_);" d="M1325.4,3091.1c0,0-17.6,1.9-26.2,15.5
			c-4.1,6.5-2.9,15,2.3,20.7c23.1,25.1,99.7,106.4,138.5,127.3c3.2,1.7,7-0.7,7-4.3c-0.1-10-3-30.6-19.3-63.3l1.2,4.4
			c1.5,5.6-5.2,9.7-9.5,5.9C1394.9,3175.9,1345.6,3130.1,1325.4,3091.1z"/>
		<g>
			
				<linearGradient id="SVGID_00000151503806373493421380000005232085509996266130_" gradientUnits="userSpaceOnUse" x1="15664.8799" y1="2357.0134" x2="15308.7441" y2="2747.2991" gradientTransform="matrix(1 0 0 1 -14469.2578 0)">
				<stop  offset="0" style="stop-color:#4F52FF"/>
				<stop  offset="1" style="stop-color:#4042E2"/>
			</linearGradient>
			<path style="fill:url(#SVGID_00000151503806373493421380000005232085509996266130_);" d="M769.1,2551.3
				c0,0-69.6,103.5-75.3,150.7c-5.7,47.2,19.2,63.5,92.1,69.6c216.7,17.9,323.6-47,323.6-47c14.8-94.5,25.4-118.6,149.2-170
				c0,0-156.6,12.4-188.1,0.2C1039,2542.6,769.1,2551.3,769.1,2551.3z"/>
		</g>
		<g>
			
				<linearGradient id="SVGID_00000101810821998495519600000012757680830284975502_" gradientUnits="userSpaceOnUse" x1="-16540.9277" y1="-2015.317" x2="-16434.4492" y2="-1748.2175" gradientTransform="matrix(-0.9446 -0.3283 -0.3283 0.9446 -15165.4209 -1699.1722)">
				<stop  offset="0" style="stop-color:#09005D"/>
				<stop  offset="1" style="stop-color:#1A0F91"/>
			</linearGradient>
			<path style="fill:url(#SVGID_00000101810821998495519600000012757680830284975502_);" d="M1046.6,1971.5c0,0-48.5-57.3-100,13
				c-9.3,12.7-45.2,2.2-58.3,28.9c-6.8,13.8-21.4,21.6-36.5,18.8c-37.6-6.9-99.1-7.5-129.4,51.4c-23.2,45-5.3,71.3,17.9,86.3
				c17,11,23.1,33.4,12.8,50.9c-9.9,16.7-11.7,39.4,13.7,66.7c57.1,61.2,170-38.8,170-38.8l89.7-212L1046.6,1971.5z"/>
			
				<linearGradient id="SVGID_00000091705006836797898960000003274081098965448870_" gradientUnits="userSpaceOnUse" x1="794.3514" y1="2684.0828" x2="964.6357" y2="2255.9402">
				<stop  offset="0" style="stop-color:#4F52FF"/>
				<stop  offset="1" style="stop-color:#4042E2"/>
			</linearGradient>
			<path style="fill:url(#SVGID_00000091705006836797898960000003274081098965448870_);" d="M957.3,2537.6c0,0,81-77.2,120.9-128.3
				c21.6-27.6,28.3-64,18.4-97.6c-18.2-61.4-50.6-124.9-53.5-134.8c-4.5-15.2-95.4-14.5-95.4-14.5s-178.8,116-249,312.6l78.9,24.6
				c0,0,46.7-78.3,92.8-128.1c0,0-79.8,105.4-82.6,148.6L957.3,2537.6z"/>
			
				<linearGradient id="SVGID_00000029043796880171428730000012434364271397052083_" gradientUnits="userSpaceOnUse" x1="-14747.3096" y1="2524.8799" x2="-14315.9648" y2="2524.8799" gradientTransform="matrix(-1 0 0 1 -13904.4951 0)">
				<stop  offset="0" style="stop-color:#A22B25"/>
				<stop  offset="1" style="stop-color:#C0423C"/>
			</linearGradient>
			<path style="fill:url(#SVGID_00000029043796880171428730000012434364271397052083_);" d="M1111.7,2568.1l-60.9-66.2l-70.3,18.9
				c0,0-82,12.7-128.9,0c-46.9-12.7-46.9-12.7-46.9-12.7l-106-33l-16.7,47.1c-4.2,11.9,0,25.2,10.4,32.6
				c9.2,6.5,19.9,13.7,26.8,16.7c14,6.1,321.7,1.9,321.7,1.9L1111.7,2568.1z"/>
			
				<linearGradient id="SVGID_00000140005740833737096810000014276642021893889461_" gradientUnits="userSpaceOnUse" x1="1015.4625" y1="2117.5657" x2="1181.2505" y2="1828.5574">
				<stop  offset="0" style="stop-color:#A22B25"/>
				<stop  offset="1" style="stop-color:#C0423C"/>
			</linearGradient>
			<path style="fill:url(#SVGID_00000140005740833737096810000014276642021893889461_);" d="M1010.1,2053.2L949,2166.8
				c4,24.8,66.5,25.5,76.1,10.7c1-1.5,1.5-3.2,1.9-5l36.5-75.9c1.6-7.4-18.7-32.3-25.4-35.9l-24.3-12.9
				C1004.6,2042.8,1043.6,2042.4,1010.1,2053.2z"/>
			<g>
				
					<linearGradient id="SVGID_00000139282848355746764080000000221498888619996319_" gradientUnits="userSpaceOnUse" x1="-16602.5449" y1="19685.0371" x2="-16568.9395" y2="19413.9512" gradientTransform="matrix(-0.5458 -0.8379 -0.8379 0.5458 -13151.3809 -4320.769)">
					<stop  offset="0" style="stop-color:#A22B25"/>
					<stop  offset="1" style="stop-color:#C0423C"/>
				</linearGradient>
				<path style="fill:url(#SVGID_00000139282848355746764080000000221498888619996319_);" d="M1133.7,2026.6c0,0,6.9,38.4-23.3,87.1
					c-30.2,48.8-60.2,46.6-75.4,29.2c-15.3-17.4-33.5-46.4-25.2-95C1018.1,1999.2,1123.3,1977.6,1133.7,2026.6z"/>
				
					<linearGradient id="SVGID_00000112630328294151330660000000041425708783197334_" gradientUnits="userSpaceOnUse" x1="-13136.5664" y1="-8616.3623" x2="-13037.2988" y2="-8367.3525" gradientTransform="matrix(-0.5458 -0.8379 -0.8379 0.5458 -13151.3809 -4320.769)">
					<stop  offset="0" style="stop-color:#09005D"/>
					<stop  offset="1" style="stop-color:#1A0F91"/>
				</linearGradient>
				<path style="fill:url(#SVGID_00000112630328294151330660000000041425708783197334_);" d="M1046.3,2053.2c0,0,48.8-64.1,86.3-8.2
					l-0.6,19.3c0,0,48.7-2.3,43.5-47.2c-5.3-44.9-45.1-75.6-100.3-60.3c-55.2,15.4-87.4,32.8-93.6,71.1c-6.2,38.3,25,32,25,32
					s11.9-26.4,26.4-28.2c14.4-1.8,9.2,19.1,9.2,19.1L1046.3,2053.2z"/>
				
					<linearGradient id="SVGID_00000128483013107507353630000014797276368525857981_" gradientUnits="userSpaceOnUse" x1="-16548.248" y1="19691.7715" x2="-16514.6426" y2="19420.6875" gradientTransform="matrix(-0.5458 -0.8379 -0.8379 0.5458 -13151.3809 -4320.769)">
					<stop  offset="0" style="stop-color:#A22B25"/>
					<stop  offset="1" style="stop-color:#C0423C"/>
				</linearGradient>
				<path style="fill:url(#SVGID_00000128483013107507353630000014797276368525857981_);" d="M1035.1,2051.4c0,0,25.3-32.8,2.3-39.6
					c-23-6.8-22.2,32.2-20.7,46.7L1035.1,2051.4z"/>
			</g>
		</g>
		<g>
			
				<linearGradient id="SVGID_00000091713967658432098780000001572949151297160616_" gradientUnits="userSpaceOnUse" x1="-14834.5303" y1="1844.3184" x2="-15060.1797" y2="1906.163" gradientTransform="matrix(-0.9988 -4.940000e-02 -4.940000e-02 0.9988 -13863.0254 -55.0328)">
				<stop  offset="0" style="stop-color:#09005D"/>
				<stop  offset="1" style="stop-color:#1A0F91"/>
			</linearGradient>
			<path style="fill:url(#SVGID_00000091713967658432098780000001572949151297160616_);" d="M910.1,2594.3c0.2,0,0.4,0,0.6,0
				l280.1-0.3c6.9,0,12.5-5.6,12.5-12.5c0-6.9-5.6-12.6-12.6-12.5l-280.1,0.3c-6.9,0-12.5,5.6-12.5,12.5
				C898.2,2588.5,903.5,2594,910.1,2594.3z"/>
			
				<linearGradient id="SVGID_00000182502318628002340850000006709795157893472930_" gradientUnits="userSpaceOnUse" x1="-3801.6311" y1="2483.5767" x2="-1772.1541" y2="2312.8274" gradientTransform="matrix(-1 0 0 1 -2353.3853 0)">
				<stop  offset="0" style="stop-color:#09005D"/>
				<stop  offset="1" style="stop-color:#1A0F91"/>
			</linearGradient>
			<path style="fill:url(#SVGID_00000182502318628002340850000006709795157893472930_);" d="M1442.6,2340h-233.2
				c-17.2,0-32.9,9.9-40.2,25.5l-107.8,228.6h289.9c11.1,0,21.1-6.8,25.1-17.1l83.6-211.6C1464.7,2353.3,1455.7,2340,1442.6,2340z"
				/>
			<path class="st3" d="M1278.3,2457.3c-5.1,15.7-1.3,31,8.3,34.1c9.7,3.1,21.6-7.1,26.6-22.8c5.1-15.7,1.3-31-8.3-34.1
				C1295.2,2431.3,1283.3,2441.6,1278.3,2457.3z"/>
		</g>
	</g>
</g>
</svg>
